<?xml version="1.0" encoding="utf-8"?>
<!-- Generator: Adobe Illustrator 15.0.0, SVG Export Plug-In . SVG Version: 6.00 Build 0)  -->
<!DOCTYPE svg PUBLIC "-//W3C//DTD SVG 1.1//EN" "http://www.w3.org/Graphics/SVG/1.1/DTD/svg11.dtd">
<svg version="1.1" id="Layer_1" xmlns="http://www.w3.org/2000/svg" xmlns:xlink="http://www.w3.org/1999/xlink" x="0px" y="0px"
	 width="131.5px" height="131.5px" viewBox="0 0 131.5 131.5" enable-background="new 0 0 131.5 131.5" xml:space="preserve">
<g id="Layer_1_1_">
	<rect x="10.25" y="10" opacity="0.76" fill="#FFFFFF" enable-background="new    " width="112" height="112"/>
</g>
<g id="Layer_2">
	<g>
		<g>
			<path fill="#FFFFFF" d="M63.247,74.046c9.592,0,15.753,0.076,15.677,1.258c0,0.759-6.026,1.072-15.618,1.072
				s-13.032-0.514-13.032-1.271C50.272,74.348,53.655,74.046,63.247,74.046z"/>
			<path fill="#FAFBFB" d="M63.253,74.091c9.473,0,15.638,0.088,15.567,1.218c0,0.729-6.041,1.041-15.513,1.041
				c-9.473,0-12.872-0.479-12.872-1.227C50.435,74.375,53.78,74.091,63.253,74.091z"/>
			<path fill="#F6F7F8" d="M63.258,74.137c9.354,0,15.523,0.1,15.458,1.175c0,0.704-6.054,1.011-15.407,1.011
				c-9.353,0-12.711-0.447-12.711-1.183C50.598,74.403,53.905,74.137,63.258,74.137z"/>
			<path fill="#F3F4F5" d="M63.263,74.184c9.235,0,15.409,0.11,15.346,1.132c0,0.676-6.064,0.979-15.299,0.979
				s-12.55-0.413-12.55-1.138C50.761,74.432,54.029,74.184,63.263,74.184z"/>
			<path fill="#F0F2F3" d="M63.269,74.229c9.114,0,15.293,0.122,15.238,1.09c0,0.649-6.08,0.949-15.194,0.949
				c-9.115,0-12.39-0.381-12.39-1.094C50.923,74.46,54.154,74.229,63.269,74.229z"/>
			<path fill="#EDEFF1" d="M63.275,74.274c8.995,0,15.178,0.134,15.127,1.047c0,0.622-6.092,0.92-15.087,0.92
				c-8.997,0-12.229-0.346-12.229-1.05C51.085,74.488,54.279,74.274,63.275,74.274z"/>
			<path fill="#EAEDEF" d="M63.28,74.32c8.876,0,15.063,0.145,15.017,1.006c0,0.594-6.104,0.888-14.98,0.888
				c-8.877,0-12.068-0.312-12.068-1.005C51.248,74.517,54.403,74.32,63.28,74.32z"/>
			<path fill="#E8EAED" d="M63.285,74.365c8.757,0,14.95,0.157,14.907,0.963c0,0.567-6.118,0.857-14.874,0.857
				c-8.758,0-11.908-0.279-11.908-0.961C51.411,74.545,54.528,74.365,63.285,74.365z"/>
			<path fill="#E5E8EB" d="M63.292,74.411c8.638,0,14.833,0.168,14.795,0.921c0,0.54-6.128,0.828-14.768,0.828
				c-8.637,0-11.746-0.247-11.746-0.916C51.573,74.572,54.653,74.411,63.292,74.411z"/>
			<path fill="#E2E6E9" d="M63.296,74.457c8.518,0,14.72,0.181,14.687,0.879c0,0.513-6.144,0.796-14.662,0.796
				c-8.52,0-11.585-0.212-11.585-0.871C51.737,74.601,54.778,74.457,63.296,74.457z"/>
			<path fill="#DFE3E7" d="M63.301,74.503c8.4,0,14.605,0.19,14.576,0.835c0,0.486-6.155,0.766-14.554,0.766
				c-8.4,0-11.425-0.179-11.425-0.828C51.898,74.629,54.901,74.503,63.301,74.503z"/>
			<path fill="#DCE1E5" d="M63.307,74.549c8.281,0,14.49,0.203,14.466,0.795c0,0.457-6.168,0.734-14.447,0.734
				c-8.281,0-11.264-0.145-11.264-0.784C52.062,74.657,55.026,74.549,63.307,74.549z"/>
			<path fill="#D9DFE3" d="M63.312,74.594c8.161,0,14.375,0.215,14.356,0.753c0,0.431-6.183,0.704-14.342,0.704
				c-8.162,0-11.103-0.111-11.103-0.739S55.151,74.594,63.312,74.594z"/>
			<path fill="#D7DDE1" d="M63.318,74.641c8.042,0,14.26,0.227,14.246,0.709c0,0.405-6.193,0.675-14.236,0.675
				c-8.042,0-10.942-0.078-10.942-0.693C52.387,74.715,55.275,74.641,63.318,74.641z"/>
			<path fill="#D4DBE0" d="M63.323,74.686c7.923,0,14.146,0.236,14.136,0.668c0,0.375-6.204,0.644-14.128,0.644
				c-7.922,0-10.782-0.046-10.782-0.65C52.549,74.742,55.4,74.686,63.323,74.686z"/>
			<path fill="#D1D9DE" d="M63.329,74.731c7.802,0,14.031,0.25,14.026,0.625c0,0.348-6.219,0.613-14.021,0.613
				c-7.805,0-10.622-0.012-10.622-0.605C52.712,74.771,55.525,74.731,63.329,74.731z"/>
			<path fill="#CED6DC" d="M63.334,74.778c7.684,0,13.916,0.26,13.916,0.583c0,0.321-6.231,0.584-13.916,0.584
				c-7.685,0-10.46,0.021-10.46-0.562C52.875,74.798,55.65,74.778,63.334,74.778z"/>
		</g>
		<g>
			<path fill="#CED6DC" d="M55.586,75.088c1.933,0,3.5,0.103,3.5,0.228c0,0.124-1.567,0.227-3.5,0.227
				c-1.933,0-2.91-0.11-2.91-0.233C52.678,75.181,53.653,75.088,55.586,75.088z"/>
			<path fill="#C9D2D8" d="M55.539,75.529c-1.872,0-2.835-0.106-2.835-0.227c0-0.122,0.964-0.211,2.835-0.211
				c1.873,0,3.391,0.099,3.391,0.22C58.929,75.432,57.411,75.529,55.539,75.529z"/>
			<path fill="#C5CDD4" d="M55.492,75.519c-1.81,0-2.763-0.103-2.763-0.219c0-0.115,0.953-0.202,2.763-0.202
				c1.813,0,3.281,0.095,3.281,0.211C58.773,75.423,57.305,75.519,55.492,75.519z"/>
			<path fill="#C0C9D0" d="M55.445,75.508c-1.75,0-2.69-0.099-2.69-0.21c0-0.113,0.941-0.195,2.69-0.195
				c1.751,0,3.172,0.091,3.172,0.202S57.197,75.508,55.445,75.508z"/>
			<path fill="#BBC5CC" d="M55.398,75.496c-1.689,0-2.618-0.094-2.618-0.201s0.929-0.188,2.618-0.188
				c1.691,0,3.062,0.089,3.062,0.194C58.46,75.407,57.089,75.496,55.398,75.496z"/>
			<path fill="#B6C0C9" d="M55.352,75.485c-1.629,0-2.545-0.09-2.545-0.193c0-0.102,0.916-0.18,2.545-0.18
				c1.63,0,2.952,0.083,2.952,0.187C58.303,75.401,56.982,75.485,55.352,75.485z"/>
			<path fill="#B2BCC5" d="M55.305,75.475c-1.569,0-2.474-0.087-2.474-0.186s0.905-0.173,2.474-0.173s2.842,0.08,2.842,0.178
				C58.147,75.393,56.874,75.475,55.305,75.475z"/>
			<path fill="#ADB8C2" d="M55.258,75.463c-1.508,0-2.4-0.083-2.4-0.176c0-0.095,0.893-0.166,2.4-0.166s2.733,0.076,2.733,0.17
				S56.766,75.463,55.258,75.463z"/>
			<path fill="#A9B4BE" d="M55.211,75.451c-1.448,0-2.329-0.078-2.329-0.168c0-0.088,0.881-0.157,2.329-0.157
				c1.447,0,2.624,0.073,2.624,0.161C57.835,75.378,56.659,75.451,55.211,75.451z"/>
			<path fill="#A4B0BB" d="M55.164,75.439c-1.386,0-2.255-0.073-2.255-0.159c0-0.085,0.868-0.15,2.255-0.15s2.513,0.07,2.513,0.155
				C57.678,75.37,56.551,75.439,55.164,75.439z"/>
			<path fill="#A0ACB8" d="M55.117,75.428c-1.326,0-2.182-0.069-2.182-0.149c0-0.082,0.856-0.144,2.182-0.144
				s2.403,0.065,2.403,0.146C57.521,75.361,56.442,75.428,55.117,75.428z"/>
			<path fill="#9CA8B4" d="M55.07,75.418c-1.265,0-2.11-0.066-2.11-0.143s0.845-0.136,2.11-0.136c1.265,0,2.294,0.062,2.294,0.139
				C57.365,75.354,56.335,75.418,55.07,75.418z"/>
			<path fill="#97A5B1" d="M55.024,75.405c-1.206,0-2.038-0.061-2.038-0.132c0-0.072,0.833-0.127,2.038-0.127
				c1.205,0,2.184,0.058,2.184,0.129C57.208,75.349,56.228,75.405,55.024,75.405z"/>
			<path fill="#93A1AE" d="M54.976,75.395c-1.145,0-1.965-0.057-1.965-0.124c0-0.066,0.82-0.121,1.965-0.121
				c1.144,0,2.075,0.055,2.075,0.122C57.052,75.339,56.121,75.395,54.976,75.395z"/>
			<path fill="#8F9EAB" d="M54.93,75.385c-1.084,0-1.892-0.054-1.892-0.118c0-0.062,0.808-0.113,1.892-0.113
				c1.083,0,1.966,0.053,1.966,0.115S56.013,75.385,54.93,75.385z"/>
			<path fill="#8B9AA8" d="M54.882,75.372c-1.023,0-1.82-0.049-1.82-0.107c0-0.058,0.797-0.105,1.82-0.105
				c1.022,0,1.856,0.048,1.856,0.106S55.904,75.372,54.882,75.372z"/>
			<path fill="#8797A5" d="M54.835,75.36c0.962,0,1.746-0.045,1.746-0.099c0-0.055-0.784-0.099-1.746-0.099
				c-0.963,0-1.748,0.044-1.748,0.099C53.088,75.315,53.874,75.36,54.835,75.36z"/>
			<path fill="#808F9E" d="M54.795,75.36c0.934,0,1.694-0.044,1.694-0.096c0-0.053-0.761-0.096-1.694-0.096S53.1,75.212,53.1,75.265
				C53.1,75.316,53.863,75.36,54.795,75.36z"/>
			<path fill="#7A8797" d="M54.757,75.36c0.904,0,1.642-0.042,1.642-0.092c0-0.051-0.738-0.093-1.642-0.093
				c-0.905,0-1.644,0.042-1.644,0.093C53.114,75.318,53.852,75.36,54.757,75.36z"/>
			<path fill="#748090" d="M54.718,75.36c0.875,0,1.591-0.04,1.591-0.09c0-0.049-0.715-0.09-1.591-0.09
				c-0.877,0-1.591,0.042-1.591,0.09C53.126,75.32,53.841,75.36,54.718,75.36z"/>
			<path fill="#6E7989" d="M54.677,75.36c0.848,0,1.539-0.04,1.539-0.087s-0.691-0.087-1.539-0.087c-0.848,0-1.538,0.04-1.538,0.087
				S53.831,75.36,54.677,75.36z"/>
			<path fill="#687383" d="M54.639,75.36c0.818,0,1.485-0.039,1.485-0.083c0-0.047-0.667-0.085-1.485-0.085
				c-0.819,0-1.487,0.038-1.487,0.085C53.152,75.321,53.82,75.36,54.639,75.36z"/>
			<path fill="#626C7D" d="M54.6,75.36c0.79,0,1.434-0.036,1.434-0.082c0-0.043-0.644-0.08-1.434-0.08
				c-0.791,0-1.435,0.037-1.435,0.08C53.165,75.324,53.809,75.36,54.6,75.36z"/>
			<path fill="#5C6677" d="M54.56,75.36c0.761,0,1.382-0.035,1.382-0.078c0-0.042-0.62-0.078-1.382-0.078
				c-0.762,0-1.382,0.036-1.382,0.078C53.177,75.325,53.798,75.36,54.56,75.36z"/>
			<path fill="#566072" d="M54.521,75.36c0.733,0,1.331-0.033,1.331-0.075c0-0.041-0.597-0.074-1.331-0.074
				c-0.733,0-1.331,0.033-1.331,0.074C53.189,75.327,53.788,75.36,54.521,75.36z"/>
			<path fill="#505B6C" d="M54.48,75.359c0.705,0,1.278-0.032,1.278-0.07c0-0.04-0.574-0.071-1.278-0.071
				c-0.703,0-1.278,0.031-1.278,0.071C53.203,75.328,53.776,75.359,54.48,75.359z"/>
			<ellipse fill="#4A5567" cx="54.441" cy="75.292" rx="1.226" ry="0.068"/>
			<path fill="#455063" d="M54.402,75.359c0.647,0,1.174-0.029,1.174-0.065c0-0.035-0.528-0.065-1.174-0.065
				s-1.174,0.03-1.174,0.065C53.228,75.33,53.754,75.359,54.402,75.359z"/>
			<path fill="#3F4B5E" d="M54.363,75.359c0.619,0,1.122-0.027,1.122-0.062s-0.504-0.062-1.122-0.062s-1.123,0.028-1.123,0.062
				S53.744,75.359,54.363,75.359z"/>
			<ellipse fill="#3A4559" cx="54.324" cy="75.301" rx="1.07" ry="0.059"/>
			<path fill="#344055" d="M54.284,75.359c0.561,0,1.019-0.024,1.019-0.056c0-0.03-0.458-0.055-1.019-0.055
				c-0.562,0-1.018,0.024-1.018,0.055C53.266,75.335,53.723,75.359,54.284,75.359z"/>
			<ellipse fill="#2F3B50" cx="54.245" cy="75.307" rx="0.967" ry="0.053"/>
			<ellipse fill="#2A364C" cx="54.206" cy="75.311" rx="0.914" ry="0.051"/>
		</g>
		<g>
			<path fill="#CED6DC" d="M64.673,75.469c1.213,0,2.198,0.1,2.198,0.225c0,0.126-0.985,0.229-2.198,0.229
				c-1.214,0-1.827-0.111-1.827-0.234C62.845,75.561,63.458,75.469,64.673,75.469z"/>
			<path fill="#C9D2D8" d="M64.678,75.917c-1.186,0-1.799-0.106-1.799-0.228s0.613-0.209,1.799-0.209s2.149,0.098,2.149,0.218
				C66.827,75.817,65.864,75.917,64.678,75.917z"/>
			<path fill="#C5CDD4" d="M64.685,75.915c-1.157,0-1.771-0.103-1.771-0.217c0-0.117,0.614-0.202,1.771-0.202
				s2.096,0.093,2.096,0.208C66.78,75.821,65.843,75.915,64.685,75.915z"/>
			<path fill="#C0C9D0" d="M64.691,75.912c-1.129,0-1.744-0.099-1.744-0.209c0-0.111,0.614-0.195,1.744-0.195
				s2.046,0.091,2.046,0.202C66.736,75.821,65.82,75.912,64.691,75.912z"/>
			<path fill="#BBC5CC" d="M64.697,75.91c-1.101,0-1.715-0.095-1.715-0.2c0-0.108,0.614-0.189,1.715-0.189
				c1.1,0,1.993,0.088,1.993,0.194C66.692,75.822,65.797,75.91,64.697,75.91z"/>
			<path fill="#B6C0C9" d="M64.703,75.906c-1.072,0-1.688-0.089-1.688-0.191c0-0.104,0.615-0.181,1.688-0.181
				s1.943,0.083,1.943,0.187S65.775,75.906,64.703,75.906z"/>
			<path fill="#B2BCC5" d="M64.71,75.903c-1.043,0-1.661-0.086-1.661-0.184c0-0.099,0.617-0.173,1.661-0.173
				c1.044,0,1.893,0.08,1.893,0.179C66.602,75.824,65.754,75.903,64.71,75.903z"/>
			<path fill="#ADB8C2" d="M64.716,75.9c-1.016,0-1.631-0.081-1.631-0.175s0.616-0.165,1.631-0.165c1.016,0,1.841,0.076,1.841,0.169
				C66.557,75.824,65.732,75.9,64.716,75.9z"/>
			<path fill="#A9B4BE" d="M64.722,75.897c-0.988,0-1.604-0.077-1.604-0.166c0-0.088,0.617-0.158,1.604-0.158
				c0.987,0,1.79,0.072,1.79,0.161C66.512,75.824,65.709,75.897,64.722,75.897z"/>
			<path fill="#A4B0BB" d="M64.729,75.896c-0.958,0-1.575-0.074-1.575-0.158c0-0.087,0.618-0.152,1.575-0.152
				c0.958,0,1.738,0.07,1.738,0.154C66.467,75.825,65.687,75.896,64.729,75.896z"/>
			<path fill="#A0ACB8" d="M64.734,75.892c-0.93,0-1.547-0.067-1.547-0.149c0-0.081,0.618-0.144,1.547-0.144
				c0.931,0,1.688,0.066,1.688,0.147C66.422,75.826,65.666,75.892,64.734,75.892z"/>
			<path fill="#9CA8B4" d="M64.742,75.889c-0.902,0-1.521-0.064-1.521-0.141s0.618-0.136,1.521-0.136
				c0.902,0,1.636,0.062,1.636,0.14C66.378,75.828,65.644,75.889,64.742,75.889z"/>
			<path fill="#97A5B1" d="M64.748,75.887c-0.874,0-1.493-0.061-1.493-0.132c0-0.072,0.619-0.128,1.493-0.128
				c0.874,0,1.585,0.058,1.585,0.13C66.333,75.828,65.62,75.887,64.748,75.887z"/>
			<path fill="#93A1AE" d="M64.753,75.884c-0.846,0-1.464-0.056-1.464-0.125c0-0.066,0.619-0.12,1.464-0.12
				c0.846,0,1.535,0.054,1.535,0.121C66.288,75.829,65.598,75.884,64.753,75.884z"/>
			<path fill="#8F9EAB" d="M64.76,75.88c-0.817,0-1.437-0.051-1.437-0.114c0-0.062,0.62-0.113,1.437-0.113
				c0.817,0,1.483,0.052,1.483,0.114C66.243,75.83,65.577,75.88,64.76,75.88z"/>
			<path fill="#8B9AA8" d="M64.765,75.879c-0.789,0-1.409-0.049-1.409-0.106c0-0.059,0.62-0.106,1.409-0.106
				s1.432,0.049,1.432,0.106C66.197,75.83,65.554,75.879,64.765,75.879z"/>
			<path fill="#8797A5" d="M64.772,75.875c0.76,0,1.381-0.044,1.381-0.098c0-0.055-0.621-0.099-1.381-0.099
				c-0.761,0-1.381,0.044-1.381,0.099C63.391,75.831,64.012,75.875,64.772,75.875z"/>
			<path fill="#808F9E" d="M64.768,75.874c0.739,0,1.341-0.042,1.341-0.095s-0.603-0.096-1.341-0.096s-1.341,0.043-1.341,0.096
				S64.029,75.874,64.768,75.874z"/>
			<path fill="#7A8797" d="M64.764,75.874c0.717,0,1.301-0.042,1.301-0.093s-0.585-0.092-1.301-0.092
				c-0.717,0-1.302,0.042-1.302,0.092C63.462,75.832,64.046,75.874,64.764,75.874z"/>
			<path fill="#748090" d="M64.76,75.872c0.695,0,1.261-0.039,1.261-0.088c0-0.05-0.566-0.09-1.261-0.09
				c-0.695,0-1.262,0.042-1.262,0.09C63.498,75.833,64.064,75.872,64.76,75.872z"/>
			<path fill="#6E7989" d="M64.755,75.871c0.673,0,1.222-0.038,1.222-0.086s-0.549-0.087-1.222-0.087
				c-0.674,0-1.222,0.039-1.222,0.087S64.081,75.871,64.755,75.871z"/>
			<path fill="#687383" d="M64.75,75.87c0.651,0,1.182-0.036,1.182-0.083c0-0.046-0.531-0.083-1.182-0.083
				c-0.651,0-1.183,0.037-1.183,0.083C63.569,75.834,64.1,75.87,64.75,75.87z"/>
			<path fill="#626C7D" d="M64.747,75.87c0.63,0,1.143-0.035,1.143-0.08c0-0.044-0.513-0.08-1.143-0.08
				c-0.629,0-1.142,0.036-1.142,0.08C63.604,75.835,64.118,75.87,64.747,75.87z"/>
			<ellipse fill="#5C6677" cx="64.742" cy="75.792" rx="1.102" ry="0.077"/>
			<path fill="#566072" d="M64.739,75.868c0.585,0,1.062-0.033,1.062-0.074c0-0.04-0.477-0.074-1.062-0.074
				c-0.587,0-1.063,0.033-1.063,0.074S64.152,75.868,64.739,75.868z"/>
			<path fill="#505B6C" d="M64.734,75.868c0.563,0,1.023-0.032,1.023-0.071c0-0.04-0.46-0.071-1.023-0.071
				c-0.564,0-1.023,0.031-1.023,0.071C63.71,75.836,64.169,75.868,64.734,75.868z"/>
			<path fill="#4A5567" d="M64.729,75.867c0.542,0,0.983-0.031,0.983-0.069c0-0.037-0.441-0.067-0.983-0.067
				c-0.542,0-0.984,0.03-0.984,0.067C63.746,75.836,64.188,75.867,64.729,75.867z"/>
			<ellipse fill="#455063" cx="64.726" cy="75.801" rx="0.943" ry="0.065"/>
			<path fill="#3F4B5E" d="M64.721,75.865c0.498,0,0.904-0.028,0.904-0.062c0-0.033-0.406-0.062-0.904-0.062
				c-0.498,0-0.904,0.028-0.904,0.062C63.817,75.837,64.224,75.865,64.721,75.865z"/>
			<ellipse fill="#3A4559" cx="64.717" cy="75.804" rx="0.864" ry="0.06"/>
			<ellipse fill="#344055" cx="64.712" cy="75.807" rx="0.824" ry="0.056"/>
			<ellipse fill="#2F3B50" cx="64.709" cy="75.81" rx="0.784" ry="0.054"/>
			<ellipse fill="#2A364C" cx="64.705" cy="75.811" rx="0.743" ry="0.051"/>
		</g>
		<g>
			<path fill="#CED6DC" d="M74.523,75.143c-1.557,0-2.821,0.102-2.821,0.227c0,0.123,1.264,0.226,2.821,0.226
				c1.559,0,2.344-0.109,2.344-0.233C76.867,75.235,76.081,75.143,74.523,75.143z"/>
			<path fill="#C9D2D8" d="M74.561,75.583c1.51,0,2.285-0.104,2.285-0.227c0-0.121-0.775-0.21-2.285-0.21
				c-1.506,0-2.731,0.098-2.731,0.219C71.83,75.485,73.055,75.583,74.561,75.583z"/>
			<path fill="#C5CDD4" d="M74.6,75.573c1.459,0,2.227-0.103,2.227-0.219c0-0.117-0.768-0.202-2.227-0.202
				c-1.46,0-2.644,0.093-2.644,0.211C71.956,75.479,73.14,75.573,74.6,75.573z"/>
			<path fill="#C0C9D0" d="M74.637,75.562c1.411,0,2.17-0.1,2.17-0.211s-0.759-0.194-2.17-0.194c-1.41,0-2.555,0.092-2.555,0.202
				C72.082,75.471,73.227,75.562,74.637,75.562z"/>
			<path fill="#BBC5CC" d="M74.675,75.55c1.362,0,2.11-0.094,2.11-0.2c0-0.107-0.747-0.188-2.11-0.188
				c-1.36,0-2.467,0.087-2.467,0.194C72.208,75.461,73.314,75.55,74.675,75.55z"/>
			<path fill="#B6C0C9" d="M74.713,75.538c1.312,0,2.051-0.089,2.051-0.191c0-0.104-0.738-0.182-2.051-0.182
				s-2.379,0.084-2.379,0.187C72.334,75.456,73.4,75.538,74.713,75.538z"/>
			<path fill="#B2BCC5" d="M74.751,75.527c1.264,0,1.993-0.086,1.993-0.184c0-0.099-0.729-0.173-1.993-0.173
				c-1.264,0-2.291,0.079-2.291,0.179C72.46,75.447,73.487,75.527,74.751,75.527z"/>
			<path fill="#ADB8C2" d="M74.789,75.516c1.215,0,1.934-0.08,1.934-0.175c0-0.094-0.719-0.165-1.934-0.165
				s-2.203,0.076-2.203,0.169C72.587,75.438,73.573,75.516,74.789,75.516z"/>
			<path fill="#A9B4BE" d="M74.826,75.504c1.166,0,1.876-0.078,1.876-0.166c0-0.089-0.71-0.158-1.876-0.158
				c-1.165,0-2.113,0.072-2.113,0.163C72.713,75.432,73.661,75.504,74.826,75.504z"/>
			<path fill="#A4B0BB" d="M74.864,75.492c1.118,0,1.817-0.072,1.817-0.157c0-0.086-0.699-0.15-1.817-0.15
				c-1.117,0-2.025,0.069-2.025,0.154C72.839,75.423,73.748,75.492,74.864,75.492z"/>
			<path fill="#A0ACB8" d="M74.903,75.482c1.067,0,1.757-0.069,1.757-0.15c0-0.08-0.689-0.142-1.757-0.142
				c-1.07,0-1.938,0.065-1.938,0.146S73.833,75.482,74.903,75.482z"/>
			<path fill="#9CA8B4" d="M74.94,75.471c1.02,0,1.699-0.064,1.699-0.141s-0.68-0.135-1.699-0.135c-1.021,0-1.848,0.061-1.848,0.137
				C73.091,75.409,73.92,75.471,74.94,75.471z"/>
			<path fill="#97A5B1" d="M74.979,75.459c0.971,0,1.643-0.061,1.643-0.132s-0.672-0.128-1.643-0.128s-1.761,0.058-1.761,0.131
				C73.218,75.401,74.008,75.459,74.979,75.459z"/>
			<path fill="#93A1AE" d="M75.016,75.447c0.922,0,1.582-0.055,1.582-0.122c0-0.068-0.66-0.121-1.582-0.121
				c-0.921,0-1.673,0.054-1.673,0.122C73.343,75.393,74.095,75.447,75.016,75.447z"/>
			<path fill="#8F9EAB" d="M75.054,75.437c0.873,0,1.524-0.052,1.524-0.115c0-0.062-0.651-0.114-1.524-0.114
				c-0.874,0-1.584,0.054-1.584,0.114C73.47,75.387,74.182,75.437,75.054,75.437z"/>
			<path fill="#8B9AA8" d="M75.091,75.426c0.824,0,1.467-0.05,1.467-0.107c0-0.057-0.643-0.104-1.467-0.104
				c-0.823,0-1.494,0.048-1.494,0.104C73.597,75.378,74.269,75.426,75.091,75.426z"/>
			<path fill="#8797A5" d="M75.13,75.414c0.774,0,1.407-0.044,1.407-0.098c0-0.055-0.633-0.099-1.407-0.099
				c-0.776,0-1.407,0.044-1.407,0.099C73.723,75.37,74.354,75.414,75.13,75.414z"/>
			<path fill="#808F9E" d="M75.161,75.414c0.752,0,1.365-0.043,1.365-0.094c0-0.054-0.613-0.096-1.365-0.096
				c-0.753,0-1.364,0.042-1.364,0.096C73.797,75.371,74.409,75.414,75.161,75.414z"/>
			<path fill="#7A8797" d="M75.193,75.414c0.729,0,1.323-0.042,1.323-0.091c0-0.052-0.595-0.093-1.323-0.093
				s-1.323,0.042-1.323,0.093C73.87,75.372,74.465,75.414,75.193,75.414z"/>
			<path fill="#748090" d="M75.225,75.414c0.705,0,1.281-0.04,1.281-0.088c0-0.051-0.576-0.089-1.281-0.089
				c-0.706,0-1.282,0.04-1.282,0.089C73.942,75.374,74.52,75.414,75.225,75.414z"/>
			<path fill="#6E7989" d="M75.257,75.414c0.683,0,1.239-0.038,1.239-0.086s-0.558-0.086-1.239-0.086
				c-0.683,0-1.239,0.038-1.239,0.086S74.574,75.414,75.257,75.414z"/>
			<path fill="#687383" d="M75.288,75.414c0.66,0,1.198-0.038,1.198-0.083c0-0.046-0.538-0.084-1.198-0.084
				s-1.198,0.038-1.198,0.084C74.09,75.376,74.628,75.414,75.288,75.414z"/>
			<path fill="#626C7D" d="M75.32,75.414c0.636,0,1.154-0.036,1.154-0.08s-0.521-0.08-1.154-0.08c-0.637,0-1.156,0.036-1.156,0.08
				S74.682,75.414,75.32,75.414z"/>
			<path fill="#5C6677" d="M75.353,75.414c0.613,0,1.113-0.034,1.113-0.077s-0.5-0.077-1.113-0.077
				c-0.614,0-1.114,0.034-1.114,0.077C74.237,75.38,74.737,75.414,75.353,75.414z"/>
			<path fill="#566072" d="M75.385,75.414c0.589,0,1.07-0.032,1.07-0.074c0-0.04-0.481-0.074-1.07-0.074
				c-0.592,0-1.073,0.034-1.073,0.074C74.312,75.382,74.793,75.414,75.385,75.414z"/>
			<path fill="#505B6C" d="M75.415,75.414c0.567,0,1.03-0.031,1.03-0.07c0-0.04-0.463-0.072-1.03-0.072s-1.03,0.032-1.03,0.072
				C74.385,75.383,74.848,75.414,75.415,75.414z"/>
			<path fill="#4A5567" d="M75.445,75.414c0.546,0,0.99-0.029,0.99-0.067s-0.444-0.068-0.99-0.068c-0.543,0-0.987,0.03-0.987,0.068
				S74.902,75.414,75.445,75.414z"/>
			<ellipse fill="#455063" cx="75.479" cy="75.349" rx="0.946" ry="0.065"/>
			<path fill="#3F4B5E" d="M75.512,75.414c0.497,0,0.903-0.027,0.903-0.062c0-0.033-0.406-0.061-0.903-0.061
				c-0.499,0-0.904,0.027-0.904,0.061C74.605,75.387,75.012,75.414,75.512,75.414z"/>
			<path fill="#3A4559" d="M75.543,75.414c0.475,0,0.861-0.026,0.861-0.058c0-0.033-0.387-0.061-0.861-0.061
				c-0.477,0-0.863,0.027-0.863,0.061C74.68,75.388,75.066,75.414,75.543,75.414z"/>
			<ellipse fill="#344055" cx="75.573" cy="75.358" rx="0.82" ry="0.056"/>
			<path fill="#2F3B50" d="M75.606,75.414c0.429,0,0.777-0.022,0.777-0.053c0-0.029-0.349-0.054-0.777-0.054
				c-0.431,0-0.778,0.023-0.778,0.054S75.176,75.414,75.606,75.414z"/>
			<ellipse fill="#2A364C" cx="75.637" cy="75.364" rx="0.737" ry="0.05"/>
		</g>
		
			<linearGradient id="SVGID_1_" gradientUnits="userSpaceOnUse" x1="323.5537" y1="583.9492" x2="323.5537" y2="586.4403" gradientTransform="matrix(1 0 0 1 -259 -560.5)">
			<stop  offset="0" style="stop-color:#425255"/>
			<stop  offset="0.74" style="stop-color:#48585A"/>
			<stop  offset="0.82" style="stop-color:#303F43"/>
			<stop  offset="1" style="stop-color:#0E1819"/>
		</linearGradient>
		<rect x="63.705" y="22.727" fill="url(#SVGID_1_)" width="1.697" height="14.424"/>
		
			<linearGradient id="SVGID_2_" gradientUnits="userSpaceOnUse" x1="329.5703" y1="635.8203" x2="329.5703" y2="632.0918" gradientTransform="matrix(1 0 0 1 -259 -560.5)">
			<stop  offset="0" style="stop-color:#314044"/>
			<stop  offset="1" style="stop-color:#0E1819"/>
		</linearGradient>
		<polygon fill="url(#SVGID_2_)" points="65.662,70.867 76.44,73.825 76.436,73.637 76.432,73.637 76.432,75.333 74.734,75.333 
			74.734,74.481 64.701,71.587 		"/>
		
			<linearGradient id="SVGID_3_" gradientUnits="userSpaceOnUse" x1="317.8271" y1="635.8203" x2="317.8271" y2="632.0918" gradientTransform="matrix(1 0 0 1 -259 -560.5)">
			<stop  offset="0" style="stop-color:#314044"/>
			<stop  offset="1" style="stop-color:#0E1819"/>
		</linearGradient>
		<polygon fill="url(#SVGID_3_)" points="63.774,70.867 53.02,73.825 53.025,73.637 52.674,73.637 52.674,75.333 55.22,75.333 
			55.22,74.481 64.981,71.587 		"/>
		
			<linearGradient id="SVGID_4_" gradientUnits="userSpaceOnUse" x1="323.5527" y1="629.8936" x2="323.5527" y2="624.0317" gradientTransform="matrix(1 0 0 1 -259 -560.5)">
			<stop  offset="0" style="stop-color:#425255"/>
			<stop  offset="0.74" style="stop-color:#5C696C"/>
			<stop  offset="0.82" style="stop-color:#303F43"/>
			<stop  offset="1" style="stop-color:#0E1819"/>
		</linearGradient>
		<rect x="63.705" y="37.151" fill="url(#SVGID_4_)" width="1.697" height="33.939"/>
		
			<linearGradient id="SVGID_5_" gradientUnits="userSpaceOnUse" x1="323.5527" y1="629.8936" x2="323.5527" y2="624.0317" gradientTransform="matrix(1 0 0 1 -259 -560.5)">
			<stop  offset="0" style="stop-color:#425255"/>
			<stop  offset="0.74" style="stop-color:#48585A"/>
			<stop  offset="0.82" style="stop-color:#303F43"/>
			<stop  offset="1" style="stop-color:#0E1819"/>
		</linearGradient>
		<rect x="63.705" y="37.151" fill="url(#SVGID_5_)" width="1.697" height="33.939"/>
		
			<linearGradient id="SVGID_6_" gradientUnits="userSpaceOnUse" x1="323.9766" y1="589.1104" x2="323.9766" y2="587.7228" gradientTransform="matrix(1 0 0 1 -259 -560.5)">
			<stop  offset="0" style="stop-color:#BCBFC4"/>
			<stop  offset="0.49" style="stop-color:#A5A6AA"/>
			<stop  offset="1" style="stop-color:#606667"/>
		</linearGradient>
		<rect x="43.341" y="26.121" fill="url(#SVGID_6_)" width="43.272" height="36.485"/>
		
			<radialGradient id="SVGID_7_" cx="323.5527" cy="605.7959" r="25.1882" gradientTransform="matrix(1 0 0 1 -259 -560.5)" gradientUnits="userSpaceOnUse">
			<stop  offset="0" style="stop-color:#FFFFFF"/>
			<stop  offset="0.38" style="stop-color:#F7F6F7"/>
			<stop  offset="0.68" style="stop-color:#DDDEE1"/>
			<stop  offset="1" style="stop-color:#BCBFC4"/>
		</radialGradient>
		<rect x="43.341" y="28.667" fill="url(#SVGID_7_)" width="42.425" height="33.939"/>
		
			<linearGradient id="SVGID_8_" gradientUnits="userSpaceOnUse" x1="323.5527" y1="588.3184" x2="323.5527" y2="584.9248" gradientTransform="matrix(1 0 0 1 -259 -560.5)">
			<stop  offset="0" style="stop-color:#676A6A"/>
			<stop  offset="0.22" style="stop-color:#2A3233"/>
			<stop  offset="0.29" style="stop-color:#2A3233"/>
			<stop  offset="0.41" style="stop-color:#202828"/>
			<stop  offset="0.45" style="stop-color:#424A4A"/>
			<stop  offset="0.62" style="stop-color:#52595A"/>
			<stop  offset="0.73" style="stop-color:#0B1515"/>
			<stop  offset="0.88" style="stop-color:#5D6262"/>
			<stop  offset="1" style="stop-color:#9A9A9B"/>
		</linearGradient>
		<rect x="42.492" y="24.424" fill="url(#SVGID_8_)" width="44.121" height="3.394"/>
		
			<linearGradient id="SVGID_9_" gradientUnits="userSpaceOnUse" x1="323.5527" y1="623.9551" x2="323.5527" y2="623.1064" gradientTransform="matrix(1 0 0 1 -259 -560.5)">
			<stop  offset="0" style="stop-color:#676A6A"/>
			<stop  offset="0.22" style="stop-color:#2A3233"/>
			<stop  offset="0.29" style="stop-color:#2A3233"/>
			<stop  offset="0.41" style="stop-color:#202828"/>
			<stop  offset="0.45" style="stop-color:#424A4A"/>
			<stop  offset="0.62" style="stop-color:#52595A"/>
			<stop  offset="0.73" style="stop-color:#0B1515"/>
			<stop  offset="0.88" style="stop-color:#5D6262"/>
			<stop  offset="1" style="stop-color:#9A9A9B"/>
		</linearGradient>
		<rect x="42.492" y="62.606" fill="url(#SVGID_9_)" width="44.121" height="0.849"/>
		
			<linearGradient id="SVGID_10_" gradientUnits="userSpaceOnUse" x1="323.5527" y1="634.7832" x2="323.5527" y2="630.1797" gradientTransform="matrix(1 0 0 1 -259 -560.5)">
			<stop  offset="0" style="stop-color:#344447"/>
			<stop  offset="1" style="stop-color:#0E1819"/>
		</linearGradient>
		<rect x="63.705" y="71.091" fill="url(#SVGID_10_)" width="1.697" height="3.394"/>
		
			<linearGradient id="SVGID_11_" gradientUnits="userSpaceOnUse" x1="322.7031" y1="635.6064" x2="322.7031" y2="613.21" gradientTransform="matrix(1 0 0 1 -259 -560.5)">
			<stop  offset="0" style="stop-color:#38484B"/>
			<stop  offset="1" style="stop-color:#FFFFFF"/>
		</linearGradient>
		<path fill="url(#SVGID_11_)" d="M63.705,75.774c0,0.026,0.026,0.048,0,0.048C63.678,75.822,63.705,75.802,63.705,75.774V70.87
			c0-0.027-0.026-0.05,0-0.05c0.026,0,0,0.022,0,0.05V75.774z"/>
		
			<linearGradient id="SVGID_12_" gradientUnits="userSpaceOnUse" x1="324.4014" y1="635.6064" x2="324.4014" y2="613.21" gradientTransform="matrix(1 0 0 1 -259 -560.5)">
			<stop  offset="0" style="stop-color:#38484B"/>
			<stop  offset="1" style="stop-color:#FFFFFF"/>
		</linearGradient>
		<path fill="url(#SVGID_12_)" d="M65.401,75.774c0,0.026,0.027,0.048,0.001,0.048C65.376,75.822,65.401,75.802,65.401,75.774V70.87
			c0-0.027-0.025-0.05,0.001-0.05c0.026,0-0.001,0.022-0.001,0.05V75.774z"/>
		
			<linearGradient id="SVGID_13_" gradientUnits="userSpaceOnUse" x1="323.5527" y1="636.4414" x2="323.5527" y2="628.9193" gradientTransform="matrix(1 0 0 1 -259 -560.5)">
			<stop  offset="0" style="stop-color:#38484B"/>
			<stop  offset="1" style="stop-color:#FFFFFF"/>
		</linearGradient>
		<rect x="63.705" y="74.484" fill="url(#SVGID_13_)" width="1.697" height="1.697"/>
		
			<linearGradient id="SVGID_14_" gradientUnits="userSpaceOnUse" x1="317.3125" y1="635.4375" x2="317.3125" y2="614.4775" gradientTransform="matrix(1 0 0 1 -259 -560.5)">
			<stop  offset="0" style="stop-color:#38484B"/>
			<stop  offset="1" style="stop-color:#FFFFFF"/>
		</linearGradient>
		<path fill="url(#SVGID_14_)" d="M53.11,75.333c0,0-0.192,0.042-0.217,0.042c-0.027,0-0.219-0.03-0.219-0.057v-1.306
			c0-0.022,0.187-0.042,0.206-0.047l10.772-3.146c0.025-0.007,0.094,0.009,0.101,0.033c0.008,0.026,0.222,0.054,0.196,0.06
			l-10.426,3.134v1.286H53.11L53.11,75.333z"/>
		
			<linearGradient id="SVGID_15_" gradientUnits="userSpaceOnUse" x1="330.0391" y1="635.4375" x2="330.0391" y2="614.4775" gradientTransform="matrix(1 0 0 1 -259 -560.5)">
			<stop  offset="0" style="stop-color:#38484B"/>
			<stop  offset="1" style="stop-color:#FFFFFF"/>
		</linearGradient>
		<path fill="url(#SVGID_15_)" d="M76.334,75.333c0,0,0.023,0.042,0.05,0.042c0.024,0,0.048-0.03,0.048-0.057v-1.306
			c0-0.022-0.017-0.042-0.038-0.047L65.707,70.82c-0.025-0.007-0.052,0.009-0.059,0.033c-0.007,0.026,0.056,0.054,0.081,0.06
			l10.703,3.134v1.286H76.334L76.334,75.333z"/>
		
			<linearGradient id="SVGID_16_" gradientUnits="userSpaceOnUse" x1="323.5391" y1="634.7188" x2="323.5608" y2="635.134" gradientTransform="matrix(1 0 0 1 -259 -560.5)">
			<stop  offset="0" style="stop-color:#38484B"/>
			<stop  offset="1" style="stop-color:#FFFFFF"/>
		</linearGradient>
		<rect x="63.705" y="74.484" fill="url(#SVGID_16_)" width="1.697" height="0"/>
		
			<radialGradient id="SVGID_17_" cx="320.041" cy="591.1514" r="36.6878" gradientTransform="matrix(1 0 0 1 -259 -560.5)" gradientUnits="userSpaceOnUse">
			<stop  offset="0" style="stop-color:#CDDC38"/>
			<stop  offset="0.23" style="stop-color:#B5D337"/>
			<stop  offset="0.58" style="stop-color:#8CBE3F"/>
			<stop  offset="1" style="stop-color:#8CBE3F"/>
		</radialGradient>
		<path fill="url(#SVGID_17_)" d="M47.847,30.364h33.755c1.493,0,2.466,1.1,2.466,2.59v22.719v1.22c0,1.493-0.975,2.32-2.466,2.32
			h-0.698H48.546h-0.699c-1.491,0-2.809-0.829-2.809-2.32v-1.22V32.954C45.038,31.464,46.354,30.364,47.847,30.364z"/>
		
			<radialGradient id="SVGID_18_" cx="320.3457" cy="591.1484" r="35.6282" gradientTransform="matrix(1 0 0 1 -259 -560.5)" gradientUnits="userSpaceOnUse">
			<stop  offset="0" style="stop-color:#DAE252"/>
			<stop  offset="0.23" style="stop-color:#C8DA37"/>
			<stop  offset="0.58" style="stop-color:#9DC33D"/>
			<stop  offset="1" style="stop-color:#9DC33D"/>
		</radialGradient>
		<path fill="url(#SVGID_18_)" d="M47.847,30.364h3.979v28.848h-3.279h-0.699c-0.392,0-1.112,0.309-1.112,0.158V30.478
			C46.735,30.327,47.455,30.364,47.847,30.364L47.847,30.364z M56.917,30.364h5.091v28.848h-5.091V30.364L56.917,30.364z
			 M67.099,30.364h5.091v28.848h-5.091V30.364L67.099,30.364z M77.28,30.364h4.321c0.394,0,0.77-0.037,0.77,0.116v28.888
			c0,0.153-0.376-0.156-0.77-0.156h-0.698H77.28V30.364L77.28,30.364z"/>
		
			<linearGradient id="SVGID_19_" gradientUnits="userSpaceOnUse" x1="323.5527" y1="588.3184" x2="323.5527" y2="584.9248" gradientTransform="matrix(1 0 0 1 -259 -560.5)">
			<stop  offset="0" style="stop-color:#6F9A41"/>
			<stop  offset="0.29" style="stop-color:#2A3233"/>
			<stop  offset="0.41" style="stop-color:#202828"/>
			<stop  offset="0.45" style="stop-color:#424A4A"/>
			<stop  offset="0.62" style="stop-color:#52595A"/>
			<stop  offset="0.73" style="stop-color:#0B1515"/>
			<stop  offset="0.88" style="stop-color:#5D6262"/>
			<stop  offset="1" style="stop-color:#9A9A9B"/>
		</linearGradient>
		<rect x="45.038" y="24.424" fill="url(#SVGID_19_)" width="39.03" height="3.394"/>
		
			<linearGradient id="SVGID_20_" gradientUnits="userSpaceOnUse" x1="323.7764" y1="583.458" x2="323.5657" y2="581.4531" gradientTransform="matrix(1 0 0 1 -259 -560.5)">
			<stop  offset="0" style="stop-color:#545B5C"/>
			<stop  offset="1" style="stop-color:#FFFFFF"/>
		</linearGradient>
		<rect x="64.019" y="22.382" fill="url(#SVGID_20_)" width="1.412" height="0.17"/>
		<path fill="#2B3618" d="M62.008,42.358v-0.002v-0.003v-3.504h-1.229c-0.036,0-0.066,0.036-0.066,0c0-0.037,0.029,0,0.066,0h1.454
			c0.036,0-0.225-0.025-0.225,0.011v0.003v3.379h1.542c0.036,0,0.066-0.036,0.066,0c0,0.037-0.031,0-0.066,0h-1.542v8.251
			c0,0.037,0.26,0.233,0.225,0.233h-0.003h-1.45c-0.036,0-0.066,0.038-0.066,0.001s0.029-0.001,0.066-0.001h1.229V42.358
			L62.008,42.358z M50.129,34.8c0,0,0.102-0.061,0.102-0.098c0-0.035,0.199-0.096,0.234-0.096h1.454
			c0.036,0-0.093,0.093-0.093,0.128v0.003v1.566h1.411c0.037,0,0.066-0.037,0.066,0c0,0.036-0.03,0-0.066,0h-1.411v0.865
			c0,0.035,0.13-0.017,0.093-0.017h-0.003h-1.451c-0.036,0-0.066,0.036-0.066,0.001c0-0.037,0.031-0.001,0.066-0.001h1.361v-1.198
			v-0.004v-0.002v-1.341h-1.697V34.8z M50.465,46.485c-0.036,0-0.066,0.037-0.066,0.001C50.398,46.449,50.429,46.485,50.465,46.485
			h1.454c0.036,0-0.093-0.154-0.093-0.118v0.004v0.962h1.411c0.037,0,0.066-0.037,0.066,0c0,0.036-0.03,0-0.066,0h-1.411V48.8
			c0,0.037,0.13,0.23,0.093,0.23h-0.003h-1.451c-0.036,0-0.066,0.037-0.066,0s0.031,0,0.066,0h1.361v-1.443v-0.004V47.58v-1.095
			H50.465L50.465,46.485z M55.619,47.333c-0.037,0-0.065,0.036-0.065,0C55.553,47.297,55.582,47.333,55.619,47.333h1.454
			c0.036,0-0.156,0.189-0.156,0.225v0.003v3.165h1.474c0.036,0,0.066-0.036,0.066,0c0,0.036-0.03,0-0.066,0h-1.474v2.698
			c0,0.036,0.193-0.152,0.156-0.152h-0.003h-1.451c-0.037,0-0.065,0.036-0.065-0.001c0-0.035,0.029,0.001,0.065,0.001h1.298v-2.778
			v-0.003v-0.003v-3.155H55.619L55.619,47.333z M55.619,36.303c-0.037,0-0.065-0.39-0.065-0.424c0-0.037,0.029-0.424,0.065-0.424
			h1.454c0.036,0-0.156,0.433-0.156,0.471v0.003v2.92h1.474c0.036,0,0.066-0.035,0.066,0c0,0.036-0.03,0-0.066,0h-1.474v2.943
			c0,0.036,0.193,0.451,0.156,0.451h-0.003h-1.451c-0.037,0-0.065-0.389-0.065-0.424c0-0.037,0.029-0.424,0.065-0.424h1.298v-2.532
			v-0.005v-0.002v-2.551H55.619L55.619,36.303z M50.465,40.581c-0.036,0-0.066,0.018-0.066-0.018c0-0.036,0.031-0.018,0.066-0.018
			h1.454c0.036,0-0.093-0.031-0.093,0.004v0.004v0.84h1.411c0.037,0,0.066,0.388,0.066,0.424c0,0.036-0.03,0.424-0.066,0.424h-1.411
			v0.74c0,0.037,0.13,0.108,0.093,0.108h-0.003h-1.451c-0.036,0-0.066,0.037-0.066,0c0-0.036,0.031,0,0.066,0h1.361V41.77v-0.003
			v-0.003v-1.218h-1.361V40.581z M50.465,52.337c-0.036,0-0.066,0.08-0.066,0.044c0-0.036,0.031,0.043,0.066,0.043h1.454
			c0.036,0-0.093-0.276-0.093-0.24v0.003v1.085h1.411c0.037,0,0.066-0.036,0.066-0.001c0,0.037-0.03,0.001-0.066,0.001h-1.411v1.345
			c0,0.036,0.13,0.352,0.093,0.352h-0.003h-1.451c-0.036,0-0.066,0.036-0.066,0s0.031,0,0.066,0h1.361v-1.566V53.4v-0.003v-0.973
			h-1.361V52.337z"/>
		<path fill="#2B3618" d="M67.099,45.262v0.005v0.003v5.457h1.572c0.037,0,0.068-0.036,0.068,0.001s-0.031-0.001-0.068-0.001h-1.453
			c-0.036,0-0.119-0.199-0.119-0.235v-0.004v-4.852H65.9c-0.037,0-0.066-0.388-0.066-0.424c0-0.036,0.03-0.424,0.066-0.424h1.198
			v-5.93c0-0.037,0.083-0.01,0.119-0.01h0.003h1.45c0.037,0,0.066-0.037,0.066,0c0,0.036-0.029,0-0.066,0h-1.572V45.262
			L67.099,45.262z M78.984,54.761c0.036,0,0.065,0.069,0.065,0.104s-0.029,0.104-0.065,0.104h-1.455
			c-0.036,0-0.249-0.316-0.249-0.352v-0.004v-1.34h-1.068c-0.036,0-0.065,0.036-0.065,0c0-0.037,0.029,0,0.065,0h1.068v-1.089
			c0-0.036,0.213,0.24,0.249,0.24h0.005h1.45c0.036,0,0.065-0.035,0.065,0c0,0.037-0.029,0-0.065,0H77.28v0.973V53.4v0.005v1.564
			h1.704V54.761z M78.984,43.003c0.036,0,0.065,0.008,0.065,0.044c0,0.038-0.029,0.044-0.065,0.044h-1.455
			c-0.036,0-0.249-0.071-0.249-0.108v-0.003v-0.737h-1.068c-0.036,0-0.065-0.388-0.065-0.423c0-0.036,0.029-0.425,0.065-0.425h1.068
			V40.55c0-0.036,0.213-0.004,0.249-0.004h0.005h1.45c0.036,0,0.065-0.037,0.065,0s-0.029,0-0.065,0H77.28v1.218v0.003v0.005v1.319
			h1.704V43.003z M73.832,41.394c0.036,0,0.066,0.388,0.066,0.423s-0.03,0.425-0.066,0.425h-1.454c-0.036,0-0.188-0.415-0.188-0.451
			v-0.003v-2.94h-1.13c-0.036,0-0.065,0.036-0.065-0.001c0-0.035,0.029,0.001,0.065,0.001h1.13v-2.923
			c0-0.037,0.152-0.471,0.188-0.471h0.004h1.45c0.036,0,0.066,0.388,0.066,0.424c0,0.036-0.03,0.424-0.066,0.424h-1.643v2.553v0.004
			v0.003v2.531H73.832L73.832,41.394z M73.832,53.273c0.036,0,0.066-0.036,0.066-0.001C73.898,53.309,73.868,53.273,73.832,53.273
			h-1.454c-0.036,0-0.188,0.188-0.188,0.152v-0.003v-2.695h-1.13c-0.036,0-0.065,0.036-0.065,0c0-0.037,0.029,0,0.065,0h1.13v-3.168
			c0-0.036,0.152-0.225,0.188-0.225h0.004h1.45c0.036,0,0.066-0.037,0.066,0c0,0.036-0.03,0-0.066,0h-1.643v3.157v0.003v0.003v2.776
			H73.832L73.832,53.273z M78.984,49.03c0.036,0,0.065-0.036,0.065,0.001C79.05,49.066,79.021,49.03,78.984,49.03h-1.455
			c-0.036,0-0.249-0.195-0.249-0.23v-0.003v-1.463h-1.068c-0.036,0-0.065,0.036-0.065,0c0-0.037,0.029,0,0.065,0h1.068v-0.966
			c0-0.038,0.213,0.118,0.249,0.118h0.005h1.45c0.036,0,0.065-0.037,0.065,0.001c0,0.035-0.029-0.001-0.065-0.001H77.28v1.095v0.003
			v0.004v1.443H78.984L78.984,49.03z M78.978,37.1c0,0,0.069-0.011,0.069,0.026c0,0.035-0.026,0.025-0.062,0.025h-1.455
			c-0.036,0-0.249,0.05-0.249,0.015v-0.003v-0.86h-1.068c-0.036,0-0.065,0.036-0.065,0c0-0.037,0.029,0,0.065,0h1.068v-1.571
			c0-0.035,0.213-0.126,0.249-0.126h0.005h1.45c0.036,0,0.065-0.036,0.065,0c0,0.036-0.029,0-0.065,0H77.28v1.341v0.002v0.004v1.198
			h1.697V37.1z"/>
		<rect x="78.978" y="54.121" fill="#E9F0C2" width="2.545" height="1.697"/>
		<rect x="78.978" y="51.576" fill="#E9F0C2" width="2.545" height="1.697"/>
		<rect x="73.887" y="52.424" fill="#E9F0C2" width="2.545" height="1.697"/>
		<rect x="73.887" y="46.485" fill="#E9F0C2" width="2.545" height="1.697"/>
		<rect x="73.887" y="40.545" fill="#E9F0C2" width="2.545" height="1.697"/>
		<rect x="73.887" y="35.455" fill="#E9F0C2" width="2.545" height="1.697"/>
		<rect x="78.978" y="48.182" fill="#E9F0C2" width="2.545" height="1.697"/>
		<rect x="78.978" y="45.636" fill="#E9F0C2" width="2.545" height="1.697"/>
		<rect x="78.978" y="42.242" fill="#E9F0C2" width="2.545" height="1.697"/>
		<rect x="78.978" y="39.697" fill="#E9F0C2" width="2.545" height="1.697"/>
		<rect x="78.978" y="36.303" fill="#E9F0C2" width="2.545" height="1.697"/>
		<rect x="78.978" y="33.758" fill="#E9F0C2" width="2.545" height="1.697"/>
		<rect x="68.796" y="49.879" fill="#E9F0C2" width="2.545" height="1.697"/>
		<rect x="68.796" y="38" fill="#E9F0C2" width="2.545" height="1.697"/>
		<rect x="63.705" y="44.788" fill="#E9F0C2" width="2.545" height="1.697"/>
		<rect x="48.432" y="33.758" fill="#E9F0C2" width="1.697" height="1.697"/>
		<rect x="48.432" y="36.303" fill="#E9F0C2" width="1.697" height="1.697"/>
		<rect x="53.523" y="35.455" fill="#E9F0C2" width="1.697" height="1.697"/>
		<rect x="53.523" y="40.545" fill="#E9F0C2" width="1.697" height="1.697"/>
		<rect x="53.523" y="46.485" fill="#E9F0C2" width="1.697" height="1.697"/>
		<rect x="53.523" y="52.424" fill="#E9F0C2" width="1.697" height="1.697"/>
		<rect x="48.432" y="39.697" fill="#E9F0C2" width="1.697" height="1.697"/>
		<rect x="48.432" y="42.242" fill="#E9F0C2" width="1.697" height="1.697"/>
		<rect x="48.432" y="45.636" fill="#E9F0C2" width="1.697" height="1.697"/>
		<rect x="48.432" y="48.182" fill="#E9F0C2" width="1.697" height="1.697"/>
		<rect x="48.432" y="51.576" fill="#E9F0C2" width="1.697" height="1.697"/>
		<rect x="48.432" y="54.121" fill="#E9F0C2" width="1.697" height="1.697"/>
		<rect x="58.614" y="38" fill="#E9F0C2" width="2.545" height="1.697"/>
		<rect x="58.614" y="49.879" fill="#E9F0C2" width="2.545" height="1.697"/>
		<rect x="63.705" y="52.424" fill="#E9F0C2" width="2.545" height="1.697"/>
		<rect x="63.705" y="49.879" fill="#E9F0C2" width="2.545" height="1.697"/>
		<rect x="63.705" y="41.394" fill="#E9F0C2" width="2.545" height="1.697"/>
		<g>
			<path fill="#0D68AA" d="M51.771,79.576l3.012,11.03h-2.39l-0.525-2.546h-3.028l-0.526,2.546h-2.39l3.012-11.03H51.771z
				 M51.468,86.363l-1.1-5.091h-0.032l-1.099,5.091H51.468z"/>
			<path fill="#0D68AA" d="M57.125,88.265c0,0.372,0.098,0.632,0.294,0.86c0.197,0.229,0.481,0.321,0.853,0.321
				c0.34,0,0.611-0.095,0.813-0.264c0.202-0.171,0.303-0.431,0.303-0.77c0-0.276-0.08-0.489-0.239-0.633s-0.345-0.258-0.558-0.343
				l-1.546-0.56c-0.605-0.212-1.062-0.513-1.37-0.9c-0.309-0.388-0.462-0.885-0.462-1.49c0-0.351,0.059-0.684,0.176-0.996
				c0.117-0.313,0.303-0.587,0.558-0.821c0.255-0.233,0.582-0.42,0.98-0.558c0.398-0.139,0.878-0.207,1.442-0.207
				c0.999,0,1.666,0.212,2.145,0.637c0.479,0.425,0.646,1.025,0.646,1.802v0.323h-1.834c0,0-0.071-0.76-0.214-0.968
				c-0.144-0.207-0.396-0.304-0.757-0.304c-0.276,0-0.518,0.081-0.725,0.235c-0.208,0.153-0.311,0.386-0.311,0.694
				c0,0.212,0.066,0.405,0.199,0.574c0.133,0.171,0.386,0.313,0.758,0.431l1.323,0.447c0.69,0.232,1.18,0.54,1.467,0.916
				c0.287,0.377,0.43,0.89,0.43,1.539c0,0.456-0.079,0.853-0.239,1.188c-0.16,0.334-0.38,0.613-0.661,0.836
				s-0.617,0.382-1.004,0.478c-0.388,0.097-0.815,0.145-1.283,0.145c-0.616,0-1.129-0.059-1.539-0.176
				c-0.41-0.117-0.733-0.293-0.971-0.525c-0.24-0.233-0.374-0.518-0.469-0.852c-0.095-0.336-0.109-0.711-0.109-1.125v-0.14h1.908
				L57.125,88.265L57.125,88.265z"/>
			<path fill="#0D68AA" d="M64.553,82.121v8.485h-1.697v-8.485H64.553z M65.794,78.728l-1.561,2.545h-1.499l0.86-2.545H65.794z"/>
			<path fill="#0D68AA" d="M76.503,82.121l-2.151,8.485h-2.549l-2.215-8.485h2.295l1.227,5.939h0.032l1.163-5.939H76.503z"/>
			<path fill="#0D68AA" d="M77.28,84.549c0-0.499,0.09-0.915,0.249-1.251c0.159-0.335,0.379-0.605,0.649-0.812
				c0.271-0.207,0.592-0.355,0.958-0.445c0.367-0.091,0.76-0.136,1.172-0.136c0.66,0,1.191,0.062,1.595,0.191
				c0.404,0.127,0.718,0.308,0.941,0.543c0.223,0.232,0.274,0.513,0.354,0.835c0.08,0.324,0.021,0.678,0.021,1.06v4.511
				c0,0.403,0.117,0.67,0.155,0.894c0.037,0.222,0.208,0.669,0.315,0.669h-2.104c-0.075,0-0.13-0.263-0.168-0.417
				c-0.036-0.153-0.071-0.432-0.103-0.432h-0.033c-0.254,0.849-0.548,0.761-0.884,0.894s-0.769,0.212-1.299,0.212
				c-0.383,0-0.706-0.06-0.972-0.192c-0.266-0.134-0.479-0.312-0.638-0.547c-0.158-0.232-0.277-0.494-0.351-0.787
				c-0.074-0.292-0.111-0.581-0.111-0.868c0-0.403,0.042-0.75,0.128-1.041c0.083-0.293,0.214-0.544,0.39-0.749
				c0.174-0.208,0.398-0.381,0.669-0.519c0.271-0.138,0.599-0.261,0.981-0.366l1.242-0.335c0.33-0.086,0.558-0.202,0.685-0.352
				c0.128-0.148,0.191-0.366,0.191-0.653c0-0.329-0.076-0.586-0.23-0.771c-0.153-0.187-0.417-0.279-0.787-0.279
				c-0.342,0-0.745,0.1-0.916,0.302c-0.17,0.201-0.403,0.474-0.403,0.813v0.148H77.28l0,0l0,0V84.549z M80.94,86.693
				c-0.17,0.069-0.376,0.119-0.513,0.15c-0.446,0.097-0.791,0.256-0.982,0.479s-0.299,0.525-0.299,0.908
				c0,0.329,0.057,0.61,0.185,0.845c0.127,0.233,0.337,0.35,0.634,0.35c0.148,0,0.302-0.023,0.461-0.071
				c0.159-0.049,0.304-0.124,0.437-0.23c0.134-0.107,0.346-0.244,0.43-0.414c0.087-0.17,0.23-0.372,0.23-0.606v-1.689
				C81.522,86.531,81.112,86.624,80.94,86.693z"/>
			<path fill="#0D68AA" d="M45.038,92.303v11.03h-2.546v-11.03H45.038z"/>
			<path fill="#0D68AA" d="M46.735,97.3c0-0.5-0.037-0.917,0.124-1.252c0.159-0.336,0.316-0.605,0.588-0.812
				c0.271-0.208,0.561-0.355,0.927-0.445c0.366-0.091,0.743-0.136,1.156-0.136c0.659,0,1.183,0.063,1.586,0.19
				c0.405,0.128,0.714,0.309,0.938,0.544c0.223,0.232,0.397,0.512,0.477,0.835c0.08,0.324,0.144,0.678,0.144,1.061v4.51
				c0,0.404-0.007,0.658,0.03,0.881c0.037,0.224,0.083,0.658,0.189,0.658H50.79c-0.074,0-0.129-0.262-0.166-0.416
				c-0.038-0.153-0.072-0.433-0.104-0.433h-0.032c-0.254,0.849-0.549,0.772-0.884,0.905c-0.335,0.133-0.767,0.219-1.298,0.219
				c-0.383,0-0.707-0.059-0.973-0.191c-0.266-0.132-0.478-0.311-0.637-0.545c-0.159-0.233-0.277-0.493-0.351-0.786
				c-0.074-0.293-0.112-0.58-0.112-0.866c0-0.403,0.042-0.752,0.127-1.043c0.085-0.293,0.214-0.542,0.39-0.749
				c0.175-0.208,0.398-0.379,0.669-0.518c0.271-0.139,0.598-0.26,0.98-0.366l1.243-0.336c0.329-0.085,0.558-0.201,0.686-0.35
				s0.191-0.366,0.191-0.653c0-0.33-0.077-0.588-0.232-0.773c-0.154-0.187-0.417-0.279-0.788-0.279c-0.34,0-0.619,0.102-0.789,0.304
				c-0.17,0.2-0.279,0.473-0.279,0.812v0.126h-1.697V97.3L46.735,97.3z M49.847,99.442c-0.171,0.069-0.227,0.119-0.366,0.15
				c-0.446,0.097-0.715,0.256-0.907,0.478c-0.191,0.224-0.263,0.525-0.263,0.908c0,0.33,0.076,0.611,0.203,0.845
				c0.127,0.233,0.346,0.351,0.643,0.351c0.149,0,0.306-0.023,0.465-0.072c0.159-0.047,0.307-0.124,0.438-0.229
				c0.134-0.108,0.049-0.244,0.134-0.414c0.085-0.17-0.066-0.372-0.066-0.606v-1.689C50.129,99.281,50.017,99.373,49.847,99.442z"/>
			<path fill="#0D68AA" d="M60.311,94.849v0.849h-0.165c0.244,0,0.517-0.65,0.82-0.825c0.302-0.175,0.677-0.24,1.124-0.24
				c0.903,0,1.567,0.363,1.992,1.069c0.425,0.708,0.637,1.861,0.637,3.455c0,1.595-0.212,2.739-0.637,3.431
				c-0.425,0.69-1.088,1.035-1.992,1.035c-0.415,0-0.768-0.159-1.06-0.313c-0.293-0.152-0.556,0.024-0.789-0.824h0.07v3.395h-2.545
				v-11.03H60.311L60.311,94.849z M60.423,101.275c0.145,0.473,0.46,0.71,0.949,0.71c0.478,0,0.789-0.237,0.933-0.71
				c0.144-0.473,0.214-1.177,0.214-2.112s-0.071-1.639-0.214-2.11c-0.144-0.475-0.454-0.71-0.933-0.71
				c-0.489,0-0.806,0.235-0.949,0.71c-0.144,0.472-0.215,1.177-0.215,2.11C60.207,100.099,60.28,100.803,60.423,101.275z"/>
			<path fill="#0D68AA" d="M65.866,97.219c0.116-0.562,0.308-1.033,0.573-1.409c0.267-0.378,0.613-0.664,1.045-0.86
				c0.43-0.197,0.958-0.296,1.584-0.296c0.659-0.012,1.207,0.077,1.643,0.263c0.436,0.187,0.781,0.471,1.037,0.854
				c0.253,0.382,0.434,0.854,0.541,1.418c0.106,0.563,0.16,1.221,0.16,1.976c0,0.733-0.059,1.382-0.176,1.944
				c-0.118,0.563-0.309,1.033-0.574,1.41c-0.267,0.377-0.613,0.656-1.043,0.836c-0.432,0.181-0.96,0.271-1.586,0.271
				c-0.659,0.011-1.207-0.071-1.643-0.247c-0.436-0.175-0.781-0.449-1.037-0.828c-0.254-0.377-0.435-0.851-0.542-1.42
				c-0.106-0.566-0.16-1.223-0.16-1.967C65.69,98.432,65.749,97.781,65.866,97.219z M67.922,100.375
				c0.021,0.371,0.071,0.69,0.151,0.956c0.079,0.266,0.198,0.474,0.357,0.621c0.16,0.149,0.372,0.223,0.637,0.223
				c0.447,0,0.755-0.231,0.926-0.699c0.17-0.469,0.253-1.238,0.253-2.312c0-1.073-0.083-1.843-0.253-2.312
				c-0.171-0.467-0.479-0.7-0.926-0.7c-0.266,0-0.478,0.075-0.637,0.224s-0.278,0.356-0.357,0.621
				c-0.08,0.266-0.131,0.583-0.151,0.956c-0.021,0.371-0.031,0.775-0.031,1.211C67.891,99.6,67.9,100.002,67.922,100.375z"/>
			<path fill="#0D68AA" d="M75.583,92.303v11.03h-1.696v-11.03H75.583z"/>
			<path fill="#0D68AA" d="M79.826,92.303v11.03H77.28v-11.03H79.826z"/>
			<path fill="#0D68AA" d="M81.522,97.3c0-0.5-0.051-0.917,0.107-1.252c0.159-0.336,0.309-0.605,0.581-0.812
				c0.27-0.208,0.557-0.355,0.923-0.445c0.366-0.091,0.74-0.136,1.153-0.136c0.659,0,1.183,0.063,1.586,0.19
				c0.402,0.128,0.713,0.309,0.937,0.544c0.223,0.232,0.412,0.512,0.493,0.835c0.08,0.324,0.159,0.678,0.159,1.061v4.51
				c0,0.404-0.023,0.658,0.015,0.881c0.037,0.224,0.066,0.658,0.173,0.658h-2.103c-0.075,0-0.132-0.262-0.168-0.416
				c-0.037-0.153-0.073-0.433-0.104-0.433h-0.032c-0.255,0.849-0.549,0.772-0.885,0.905c-0.334,0.133-0.767,0.219-1.297,0.219
				c-0.385,0-0.708-0.059-0.973-0.191c-0.266-0.132-0.478-0.311-0.638-0.545c-0.159-0.233-0.276-0.493-0.35-0.786
				c-0.075-0.293-0.112-0.58-0.112-0.866c0-0.403,0.042-0.752,0.127-1.043c0.086-0.293,0.215-0.542,0.391-0.749
				c0.176-0.208,0.398-0.379,0.67-0.518s0.598-0.26,0.98-0.366l1.243-0.336c0.33-0.085,0.558-0.201,0.685-0.35
				c0.129-0.148,0.191-0.366,0.191-0.653c0-0.33-0.078-0.588-0.231-0.773c-0.153-0.187-0.416-0.279-0.787-0.279
				c-0.341,0-0.604,0.102-0.773,0.304c-0.17,0.2-0.264,0.473-0.264,0.812v0.126h-1.697V97.3L81.522,97.3z M84.618,99.442
				c-0.171,0.069-0.235,0.119-0.373,0.15c-0.445,0.097-0.719,0.256-0.909,0.478c-0.191,0.224-0.265,0.525-0.265,0.908
				c0,0.33,0.074,0.611,0.201,0.845c0.128,0.233,0.346,0.351,0.645,0.351c0.147,0,0.305-0.023,0.465-0.072
				c0.159-0.047,0.305-0.124,0.438-0.229c0.132-0.108,0.063-0.244,0.148-0.414s-0.052-0.372-0.052-0.606v-1.689
				C84.917,99.281,84.789,99.373,84.618,99.442z"/>
		</g>
	</g>
</g>
</svg>
