<?xml version="1.0" encoding="utf-8"?>
<!-- Generator: Adobe Illustrator 16.0.0, SVG Export Plug-In . SVG Version: 6.00 Build 0)  -->
<!DOCTYPE svg PUBLIC "-//W3C//DTD SVG 1.1//EN" "http://www.w3.org/Graphics/SVG/1.1/DTD/svg11.dtd">
<svg version="1.1" xmlns="http://www.w3.org/2000/svg" xmlns:xlink="http://www.w3.org/1999/xlink" x="0px" y="0px" width="212px"
	 height="212px" viewBox="0 0 212 212" enable-background="new 0 0 212 212" xml:space="preserve">
<g id="Layer_2_1_">
	<rect x="1" fill="#FFFFFF" width="212" height="212"/>
</g>
<g id="Layer_1">
	<g id="Layer_2">
		<g>
			<g>
				<path fill="#FFFFFF" d="M100.165,121.255c18.056,0,29.655,0.144,29.511,2.37c0,1.427-11.347,2.018-29.402,2.018
					c-18.057,0-24.533-0.968-24.533-2.394C75.74,121.822,82.108,121.255,100.165,121.255z"/>
				<path fill="#FAFBFB" d="M100.176,121.341c17.83,0,29.438,0.164,29.303,2.291c0,1.375-11.369,1.96-29.201,1.96
					c-17.833,0-24.231-0.904-24.231-2.311C76.046,121.875,82.343,121.341,100.176,121.341z"/>
				<path fill="#F6F7F8" d="M100.186,121.427c17.607,0,29.223,0.188,29.097,2.212c0,1.323-11.396,1.902-29.002,1.902
					c-17.607,0-23.928-0.842-23.928-2.227S82.578,121.427,100.186,121.427z"/>
				<path fill="#F3F4F5" d="M100.195,121.514c17.383,0,29.007,0.207,28.89,2.131c0,1.272-11.419,1.846-28.802,1.846
					c-17.383,0-23.625-0.778-23.625-2.143C76.659,121.98,82.813,121.514,100.195,121.514z"/>
				<path fill="#F0F2F3" d="M100.206,121.6c17.157,0,28.79,0.229,28.683,2.053c0,1.222-11.443,1.787-28.602,1.787
					c-17.159,0-23.322-0.717-23.322-2.061S83.047,121.6,100.206,121.6z"/>
				<path fill="#EDEFF1" d="M100.217,121.686c16.934,0,28.573,0.252,28.475,1.973c0,1.171-11.467,1.73-28.399,1.73
					c-16.935,0-23.02-0.652-23.02-1.977C77.271,122.088,83.282,121.686,100.217,121.686z"/>
				<path fill="#EAEDEF" d="M100.227,121.771c16.708,0,28.357,0.272,28.268,1.893c0,1.119-11.49,1.672-28.199,1.672
					c-16.711,0-22.718-0.589-22.718-1.893C77.577,122.141,83.517,121.771,100.227,121.771z"/>
				<path fill="#E8EAED" d="M100.236,121.857c16.485,0,28.142,0.295,28.061,1.813c0,1.066-11.515,1.614-27.999,1.614
					c-16.486,0-22.415-0.525-22.415-1.81C77.883,122.193,83.751,121.857,100.236,121.857z"/>
				<path fill="#E5E8EB" d="M100.247,121.943c16.261,0,27.925,0.315,27.853,1.733c0,1.017-11.537,1.558-27.799,1.558
					c-16.261,0-22.111-0.463-22.111-1.726C78.189,122.247,83.986,121.943,100.247,121.943z"/>
				<path fill="#E2E6E9" d="M100.258,122.029c16.035,0,27.709,0.339,27.646,1.654c0,0.965-11.563,1.5-27.599,1.5
					c-16.037,0-21.809-0.4-21.809-1.643C78.496,122.3,84.221,122.029,100.258,122.029z"/>
				<path fill="#DFE3E7" d="M100.268,122.115c15.812,0,27.494,0.359,27.438,1.574c0,0.914-11.587,1.442-27.397,1.442
					c-15.813,0-21.507-0.337-21.507-1.559C78.802,122.354,84.455,122.115,100.268,122.115z"/>
				<path fill="#DCE1E5" d="M100.277,122.201c15.588,0,27.278,0.383,27.231,1.496c0,0.861-11.609,1.384-27.197,1.384
					c-15.588,0-21.204-0.272-21.204-1.476C79.108,122.406,84.69,122.201,100.277,122.201z"/>
				<path fill="#D9DFE3" d="M100.288,122.287c15.362,0,27.062,0.404,27.024,1.416c0,0.811-11.636,1.326-26.998,1.326
					c-15.364,0-20.901-0.209-20.901-1.391C79.414,122.458,84.925,122.287,100.288,122.287z"/>
				<path fill="#D7DDE1" d="M100.299,122.374c15.139,0,26.844,0.426,26.816,1.336c0,0.761-11.658,1.271-26.797,1.271
					c-15.139,0-20.598-0.147-20.598-1.309C79.72,122.514,85.159,122.374,100.299,122.374z"/>
				<path fill="#D4DBE0" d="M100.309,122.46c14.914,0,26.628,0.447,26.609,1.257c0,0.708-11.682,1.211-26.596,1.211
					s-20.296-0.084-20.296-1.224S85.394,122.46,100.309,122.46z"/>
				<path fill="#D1D9DE" d="M100.318,122.546c14.689,0,26.413,0.47,26.403,1.177c0,0.657-11.707,1.154-26.396,1.154
					c-14.691,0-19.994-0.021-19.994-1.141C80.333,122.619,85.628,122.546,100.318,122.546z"/>
				<path fill="#CED6DC" d="M100.329,122.632c14.465,0,26.194,0.491,26.194,1.099c0,0.604-11.729,1.097-26.194,1.097
					c-14.466,0-19.69,0.042-19.69-1.058C80.639,122.672,85.863,122.632,100.329,122.632z"/>
			</g>
			<g>
				<path fill="#CED6DC" d="M85.743,123.218c3.64,0,6.589,0.191,6.589,0.427c0,0.234-2.949,0.426-6.589,0.426
					c-3.638,0-5.476-0.207-5.476-0.441C80.268,123.393,82.105,123.218,85.743,123.218z"/>
				<path fill="#C9D2D8" d="M85.655,124.049c-3.523,0-5.339-0.199-5.339-0.426c0-0.229,1.815-0.396,5.339-0.396
					c3.525,0,6.382,0.186,6.382,0.412C92.037,123.864,89.18,124.049,85.655,124.049z"/>
				<path fill="#C5CDD4" d="M85.566,124.027c-3.409,0-5.202-0.192-5.202-0.41c0-0.219,1.793-0.383,5.202-0.383
					c3.411,0,6.176,0.179,6.176,0.396C91.743,123.85,88.978,124.027,85.566,124.027z"/>
				<path fill="#C0C9D0" d="M85.478,124.007c-3.295,0-5.065-0.185-5.065-0.396s1.771-0.367,5.065-0.367
					c3.297,0,5.97,0.172,5.97,0.381C91.448,123.835,88.775,124.007,85.478,124.007z"/>
				<path fill="#BBC5CC" d="M85.39,123.984c-3.181,0-4.929-0.176-4.929-0.377c0-0.203,1.748-0.354,4.929-0.354
					c3.183,0,5.764,0.165,5.764,0.366S88.572,123.984,85.39,123.984z"/>
				<path fill="#B6C0C9" d="M85.302,123.964c-3.067,0-4.792-0.169-4.792-0.362c0-0.192,1.725-0.34,4.792-0.34
					c3.068,0,5.557,0.158,5.557,0.352C90.858,123.807,88.37,123.964,85.302,123.964z"/>
				<path fill="#B2BCC5" d="M85.213,123.943c-2.953,0-4.656-0.162-4.656-0.348s1.703-0.326,4.656-0.326
					c2.954,0,5.351,0.151,5.351,0.336C90.564,123.792,88.167,123.943,85.213,123.943z"/>
				<path fill="#ADB8C2" d="M85.125,123.922c-2.839,0-4.519-0.154-4.519-0.33c0-0.178,1.68-0.313,4.519-0.313
					s5.145,0.145,5.145,0.32S87.964,123.922,85.125,123.922z"/>
				<path fill="#A9B4BE" d="M85.037,123.9c-2.725,0-4.382-0.146-4.382-0.314s1.658-0.297,4.382-0.297
					c2.725,0,4.938,0.137,4.938,0.305C89.975,123.764,87.762,123.9,85.037,123.9z"/>
				<path fill="#A4B0BB" d="M84.948,123.879c-2.61,0-4.246-0.138-4.246-0.298s1.635-0.283,4.246-0.283
					c2.611,0,4.731,0.132,4.731,0.29C89.68,123.748,87.559,123.879,84.948,123.879z"/>
				<path fill="#A0ACB8" d="M84.86,123.857c-2.496,0-4.109-0.131-4.109-0.281c0-0.152,1.613-0.27,4.109-0.27
					c2.497,0,4.525,0.123,4.525,0.274S87.356,123.857,84.86,123.857z"/>
				<path fill="#9CA8B4" d="M84.771,123.837c-2.382,0-3.972-0.123-3.972-0.267c0-0.145,1.59-0.256,3.972-0.256
					s4.319,0.117,4.319,0.262C89.091,123.719,87.154,123.837,84.771,123.837z"/>
				<path fill="#97A5B1" d="M84.684,123.814c-2.269,0-3.836-0.114-3.836-0.25c0-0.135,1.567-0.24,3.836-0.24
					c2.268,0,4.112,0.109,4.112,0.244C88.796,123.705,86.951,123.814,84.684,123.814z"/>
				<path fill="#93A1AE" d="M84.595,123.794c-2.154,0-3.699-0.106-3.699-0.233s1.545-0.228,3.699-0.228
					c2.153,0,3.906,0.104,3.906,0.229C88.501,123.689,86.749,123.794,84.595,123.794z"/>
				<path fill="#8F9EAB" d="M84.507,123.773c-2.04,0-3.563-0.101-3.563-0.219c0-0.119,1.522-0.214,3.563-0.214
					c2.039,0,3.7,0.099,3.7,0.216C88.207,123.675,86.546,123.773,84.507,123.773z"/>
				<path fill="#8B9AA8" d="M84.418,123.752c-1.926,0-3.426-0.092-3.426-0.202c0-0.108,1.5-0.198,3.426-0.198
					c1.925,0,3.494,0.09,3.494,0.199C87.912,123.661,86.343,123.752,84.418,123.752z"/>
				<path fill="#8797A5" d="M84.33,123.73c1.811,0,3.287-0.084,3.287-0.187s-1.477-0.187-3.287-0.187
					c-1.812,0-3.289,0.084-3.289,0.187S82.519,123.73,84.33,123.73z"/>
				<path fill="#808F9E" d="M84.256,123.73c1.757,0,3.189-0.082,3.189-0.181s-1.433-0.18-3.189-0.18
					c-1.757,0-3.191,0.081-3.191,0.18S82.499,123.73,84.256,123.73z"/>
				<path fill="#7A8797" d="M84.182,123.73c1.703,0,3.091-0.08,3.091-0.174c0-0.097-1.388-0.176-3.091-0.176
					c-1.704,0-3.093,0.079-3.093,0.176C81.089,123.65,82.478,123.73,84.182,123.73z"/>
				<path fill="#748090" d="M84.107,123.73c1.649,0,2.994-0.076,2.994-0.17c0-0.092-1.345-0.168-2.994-0.168
					s-2.995,0.076-2.995,0.168C81.113,123.654,82.458,123.73,84.107,123.73z"/>
				<path fill="#6E7989" d="M84.033,123.73c1.595,0,2.896-0.074,2.896-0.164c0-0.088-1.3-0.162-2.896-0.162
					c-1.596,0-2.896,0.074-2.896,0.162C81.137,123.656,82.438,123.73,84.033,123.73z"/>
				<path fill="#687383" d="M83.959,123.73c1.541,0,2.797-0.071,2.797-0.157c0-0.087-1.256-0.157-2.797-0.157
					c-1.542,0-2.799,0.07-2.799,0.157C81.16,123.659,82.417,123.73,83.959,123.73z"/>
				<path fill="#626C7D" d="M83.885,123.73c1.487,0,2.7-0.069,2.7-0.152c0-0.082-1.213-0.151-2.7-0.151
					c-1.488,0-2.701,0.069-2.701,0.151C81.184,123.661,82.397,123.73,83.885,123.73z"/>
				<path fill="#5C6677" d="M83.811,123.73c1.433,0,2.602-0.066,2.602-0.146c0-0.079-1.168-0.146-2.602-0.146
					s-2.603,0.066-2.603,0.146S82.377,123.73,83.811,123.73z"/>
				<path fill="#566072" d="M83.737,123.73c1.379,0,2.504-0.064,2.504-0.142s-1.125-0.141-2.504-0.141
					c-1.38,0-2.505,0.063-2.505,0.141S82.357,123.73,83.737,123.73z"/>
				<path fill="#505B6C" d="M83.663,123.729c1.326,0,2.406-0.061,2.406-0.133c0-0.074-1.081-0.136-2.406-0.136
					c-1.325,0-2.407,0.062-2.407,0.136C81.256,123.669,82.337,123.729,83.663,123.729z"/>
				<ellipse fill="#4A5567" cx="83.588" cy="123.601" rx="2.308" ry="0.128"/>
				<path fill="#455063" d="M83.514,123.729c1.218,0,2.21-0.056,2.21-0.123c0-0.066-0.993-0.123-2.21-0.123
					c-1.217,0-2.21,0.057-2.21,0.123C81.304,123.673,82.296,123.729,83.514,123.729z"/>
				<path fill="#3F4B5E" d="M83.44,123.729c1.164,0,2.112-0.053,2.112-0.117c0-0.063-0.949-0.116-2.112-0.116
					c-1.164,0-2.113,0.053-2.113,0.116C81.327,123.676,82.276,123.729,83.44,123.729z"/>
				<ellipse fill="#3A4559" cx="83.366" cy="123.618" rx="2.014" ry="0.112"/>
				<path fill="#344055" d="M83.292,123.729c1.056,0,1.917-0.047,1.917-0.105s-0.861-0.105-1.917-0.105s-1.917,0.049-1.917,0.105
					C81.375,123.682,82.236,123.729,83.292,123.729z"/>
				<ellipse fill="#2F3B50" cx="83.218" cy="123.629" rx="1.818" ry="0.102"/>
				<ellipse fill="#2A364C" cx="83.144" cy="123.635" rx="1.721" ry="0.095"/>
			</g>
			<g>
				<path fill="#CED6DC" d="M102.848,123.934c2.285,0,4.138,0.189,4.138,0.424c0,0.235-1.854,0.428-4.138,0.428
					c-2.285,0-3.439-0.208-3.439-0.442C99.408,124.105,100.563,123.934,102.848,123.934z"/>
				<path fill="#C9D2D8" d="M102.859,124.779c-2.232,0-3.387-0.2-3.387-0.428c0-0.227,1.154-0.396,3.387-0.396
					s4.043,0.185,4.043,0.41S105.092,124.779,102.859,124.779z"/>
				<path fill="#C5CDD4" d="M102.871,124.773c-2.179,0-3.334-0.192-3.334-0.41c0-0.219,1.155-0.381,3.334-0.381
					c2.179,0,3.945,0.177,3.945,0.395C106.816,124.596,105.05,124.773,102.871,124.773z"/>
				<path fill="#C0C9D0" d="M102.883,124.768c-2.125,0-3.282-0.184-3.282-0.394s1.157-0.367,3.282-0.367s3.85,0.171,3.85,0.38
					C106.732,124.598,105.008,124.768,102.883,124.768z"/>
				<path fill="#BBC5CC" d="M102.895,124.764c-2.072,0-3.229-0.178-3.229-0.379s1.157-0.354,3.229-0.354s3.753,0.164,3.753,0.365
					C106.648,124.6,104.967,124.764,102.895,124.764z"/>
				<path fill="#B6C0C9" d="M102.906,124.758c-2.019,0-3.177-0.169-3.177-0.361c0-0.193,1.158-0.34,3.177-0.34
					c2.019,0,3.659,0.156,3.659,0.351S104.925,124.758,102.906,124.758z"/>
				<path fill="#B2BCC5" d="M102.918,124.752c-1.965,0-3.125-0.161-3.125-0.346c0-0.186,1.16-0.325,3.125-0.325
					s3.562,0.149,3.562,0.335C106.479,124.602,104.883,124.752,102.918,124.752z"/>
				<path fill="#ADB8C2" d="M102.93,124.746c-1.912,0-3.072-0.152-3.072-0.329s1.16-0.312,3.072-0.312
					c1.912,0,3.465,0.145,3.465,0.319C106.395,124.604,104.842,124.746,102.93,124.746z"/>
				<path fill="#A9B4BE" d="M102.941,124.741c-1.858,0-3.02-0.146-3.02-0.313c0-0.167,1.161-0.297,3.02-0.297
					s3.369,0.137,3.369,0.305C106.311,124.604,104.8,124.741,102.941,124.741z"/>
				<path fill="#A4B0BB" d="M102.953,124.736c-1.805,0-2.967-0.139-2.967-0.297c0-0.162,1.162-0.285,2.967-0.285
					c1.805,0,3.273,0.131,3.273,0.291C106.227,124.605,104.758,124.736,102.953,124.736z"/>
				<path fill="#A0ACB8" d="M102.965,124.73c-1.752,0-2.914-0.129-2.914-0.28c0-0.152,1.162-0.271,2.914-0.271
					s3.177,0.123,3.177,0.275S104.717,124.73,102.965,124.73z"/>
				<path fill="#9CA8B4" d="M102.977,124.725c-1.698,0-2.862-0.121-2.862-0.264c0-0.145,1.164-0.256,2.862-0.256
					c1.698,0,3.08,0.117,3.08,0.261S104.675,124.725,102.977,124.725z"/>
				<path fill="#97A5B1" d="M102.988,124.721c-1.645,0-2.81-0.113-2.81-0.248c0-0.137,1.165-0.242,2.81-0.242
					s2.984,0.109,2.984,0.246C105.973,124.609,104.633,124.721,102.988,124.721z"/>
				<path fill="#93A1AE" d="M103,124.715c-1.592,0-2.757-0.105-2.757-0.232s1.165-0.228,2.757-0.228s2.889,0.103,2.889,0.229
					S104.592,124.715,103,124.715z"/>
				<path fill="#8F9EAB" d="M103.012,124.709c-1.538,0-2.705-0.098-2.705-0.216c0-0.119,1.167-0.214,2.705-0.214
					c1.538,0,2.792,0.097,2.792,0.216C105.804,124.613,104.55,124.709,103.012,124.709z"/>
				<path fill="#8B9AA8" d="M103.023,124.703c-1.484,0-2.652-0.09-2.652-0.199c0-0.111,1.168-0.199,2.652-0.199
					s2.695,0.09,2.695,0.2S104.508,124.703,103.023,124.703z"/>
				<path fill="#8797A5" d="M103.035,124.698c1.432,0,2.6-0.082,2.6-0.185s-1.168-0.186-2.6-0.186c-1.432,0-2.6,0.083-2.6,0.186
					C100.436,124.616,101.604,124.698,103.035,124.698z"/>
				<path fill="#808F9E" d="M103.027,124.695c1.391,0,2.524-0.078,2.524-0.178s-1.134-0.18-2.524-0.18
					c-1.39,0-2.525,0.08-2.525,0.18S101.637,124.695,103.027,124.695z"/>
				<path fill="#7A8797" d="M103.02,124.695c1.349,0,2.449-0.077,2.449-0.174c0-0.096-1.101-0.174-2.449-0.174
					c-1.35,0-2.45,0.078-2.45,0.174C100.57,124.618,101.67,124.695,103.02,124.695z"/>
				<path fill="#748090" d="M103.012,124.693c1.308,0,2.375-0.074,2.375-0.168c0-0.092-1.067-0.168-2.375-0.168
					c-1.309,0-2.375,0.076-2.375,0.168C100.637,124.619,101.703,124.693,103.012,124.693z"/>
				<path fill="#6E7989" d="M103.004,124.691c1.266,0,2.299-0.071,2.299-0.162c0-0.088-1.033-0.162-2.299-0.162
					c-1.268,0-2.301,0.074-2.301,0.162C100.703,124.62,101.736,124.691,103.004,124.691z"/>
				<path fill="#687383" d="M102.996,124.689c1.225,0,2.225-0.068,2.225-0.155c0-0.086-1-0.157-2.225-0.157
					c-1.227,0-2.227,0.071-2.227,0.157C100.77,124.621,101.77,124.689,102.996,124.689z"/>
				<path fill="#626C7D" d="M102.987,124.689c1.185,0,2.15-0.067,2.15-0.151c0-0.083-0.966-0.151-2.15-0.151
					c-1.184,0-2.15,0.068-2.15,0.151C100.837,124.622,101.803,124.689,102.987,124.689z"/>
				<ellipse fill="#5C6677" cx="102.979" cy="124.542" rx="2.075" ry="0.146"/>
				<path fill="#566072" d="M102.972,124.686c1.102,0,2-0.063,2-0.139s-0.898-0.141-2-0.141c-1.103,0-2.001,0.063-2.001,0.141
					C100.971,124.623,101.869,124.686,102.972,124.686z"/>
				<path fill="#505B6C" d="M102.964,124.686c1.06,0,1.925-0.062,1.925-0.135c0-0.074-0.865-0.135-1.925-0.135
					c-1.062,0-1.927,0.061-1.927,0.135C101.037,124.624,101.902,124.686,102.964,124.686z"/>
				<path fill="#4A5567" d="M102.956,124.684c1.019,0,1.85-0.059,1.85-0.129s-0.831-0.129-1.85-0.129
					c-1.021,0-1.852,0.059-1.852,0.129S101.936,124.684,102.956,124.684z"/>
				<ellipse fill="#455063" cx="102.947" cy="124.559" rx="1.775" ry="0.123"/>
				<path fill="#3F4B5E" d="M102.939,124.68c0.938,0,1.701-0.053,1.701-0.117c0-0.063-0.764-0.117-1.701-0.117
					s-1.701,0.054-1.701,0.117C101.238,124.627,102.003,124.68,102.939,124.68z"/>
				<ellipse fill="#3A4559" cx="102.932" cy="124.566" rx="1.625" ry="0.112"/>
				<ellipse fill="#344055" cx="102.924" cy="124.57" rx="1.551" ry="0.106"/>
				<ellipse fill="#2F3B50" cx="102.916" cy="124.575" rx="1.476" ry="0.101"/>
				<ellipse fill="#2A364C" cx="102.908" cy="124.579" rx="1.4" ry="0.095"/>
			</g>
			<g>
				<path fill="#CED6DC" d="M121.393,123.32c-2.931,0-5.31,0.189-5.31,0.426c0,0.234,2.379,0.425,5.31,0.425
					c2.934,0,4.412-0.206,4.412-0.44C125.805,123.495,124.325,123.32,121.393,123.32z"/>
				<path fill="#C9D2D8" d="M121.464,124.148c2.841,0,4.302-0.197,4.302-0.424c0-0.229-1.461-0.396-4.302-0.396
					c-2.839,0-5.144,0.184-5.144,0.411C116.32,123.966,118.625,124.148,121.464,124.148z"/>
				<path fill="#C5CDD4" d="M121.535,124.129c2.748,0,4.191-0.191,4.191-0.41s-1.443-0.381-4.191-0.381
					c-2.747,0-4.977,0.178-4.977,0.396C116.559,123.951,118.788,124.129,121.535,124.129z"/>
				<path fill="#C0C9D0" d="M121.605,124.107c2.656,0,4.082-0.185,4.082-0.395s-1.426-0.367-4.082-0.367
					c-2.654,0-4.811,0.172-4.811,0.381C116.796,123.938,118.951,124.107,121.605,124.107z"/>
				<path fill="#BBC5CC" d="M121.678,124.086c2.564,0,3.971-0.176,3.971-0.377c0-0.202-1.405-0.354-3.971-0.354
					c-2.563,0-4.645,0.164-4.645,0.365C117.033,123.921,119.115,124.086,121.678,124.086z"/>
				<path fill="#B6C0C9" d="M121.749,124.064c2.472,0,3.86-0.168,3.86-0.361s-1.389-0.339-3.86-0.339s-4.479,0.157-4.479,0.351
					C117.27,123.909,119.277,124.064,121.749,124.064z"/>
				<path fill="#B2BCC5" d="M121.82,124.043c2.38,0,3.75-0.159,3.75-0.345c0-0.185-1.37-0.325-3.75-0.325
					c-2.379,0-4.313,0.15-4.313,0.336C117.508,123.895,119.441,124.043,121.82,124.043z"/>
				<path fill="#ADB8C2" d="M121.893,124.021c2.287,0,3.641-0.151,3.641-0.328c0-0.178-1.354-0.313-3.641-0.313
					s-4.146,0.145-4.146,0.32S119.604,124.021,121.893,124.021z"/>
				<path fill="#A9B4BE" d="M121.963,124.001c2.195,0,3.53-0.146,3.53-0.313s-1.335-0.297-3.53-0.297s-3.979,0.137-3.979,0.307
					C117.982,123.864,119.768,124.001,121.963,124.001z"/>
				<path fill="#A4B0BB" d="M122.034,123.979c2.104,0,3.42-0.137,3.42-0.297s-1.315-0.281-3.42-0.281s-3.813,0.129-3.813,0.289
					S119.932,123.979,122.034,123.979z"/>
				<path fill="#A0ACB8" d="M122.105,123.959c2.011,0,3.31-0.13,3.31-0.281c0-0.152-1.299-0.269-3.31-0.269
					c-2.013,0-3.646,0.123-3.646,0.274C118.459,123.834,120.094,123.959,122.105,123.959z"/>
				<path fill="#9CA8B4" d="M122.177,123.938c1.919,0,3.199-0.121,3.199-0.265s-1.28-0.255-3.199-0.255
					c-1.92,0-3.479,0.116-3.479,0.26C118.695,123.82,120.257,123.938,122.177,123.938z"/>
				<path fill="#97A5B1" d="M122.248,123.916c1.826,0,3.09-0.113,3.09-0.249c0-0.135-1.264-0.24-3.09-0.24
					c-1.828,0-3.314,0.109-3.314,0.245C118.934,123.807,120.42,123.916,122.248,123.916z"/>
				<path fill="#93A1AE" d="M122.318,123.895c1.734,0,2.979-0.104,2.979-0.231s-1.245-0.228-2.979-0.228s-3.147,0.104-3.147,0.229
					S120.584,123.895,122.318,123.895z"/>
				<path fill="#8F9EAB" d="M122.391,123.873c1.644,0,2.869-0.098,2.869-0.216s-1.227-0.214-2.869-0.214
					c-1.644,0-2.981,0.098-2.981,0.216S120.747,123.873,122.391,123.873z"/>
				<path fill="#8B9AA8" d="M122.462,123.854c1.55,0,2.759-0.092,2.759-0.201s-1.209-0.198-2.759-0.198
					c-1.552,0-2.815,0.09-2.815,0.198C119.646,123.764,120.91,123.854,122.462,123.854z"/>
				<path fill="#8797A5" d="M122.533,123.831c1.458,0,2.648-0.083,2.648-0.185c0-0.103-1.19-0.186-2.648-0.186
					c-1.46,0-2.649,0.083-2.649,0.186C119.884,123.748,121.073,123.831,122.533,123.831z"/>
				<path fill="#808F9E" d="M122.593,123.831c1.415,0,2.569-0.08,2.569-0.179c0-0.1-1.154-0.18-2.569-0.18
					c-1.416,0-2.569,0.08-2.569,0.18C120.023,123.751,121.177,123.831,122.593,123.831z"/>
				<path fill="#7A8797" d="M122.652,123.831c1.371,0,2.49-0.078,2.49-0.173c0-0.096-1.119-0.174-2.49-0.174
					c-1.373,0-2.491,0.078-2.491,0.174C120.161,123.753,121.279,123.831,122.652,123.831z"/>
				<path fill="#748090" d="M122.712,123.831c1.328,0,2.412-0.075,2.412-0.168s-1.084-0.167-2.412-0.167
					c-1.329,0-2.412,0.074-2.412,0.167S121.383,123.831,122.712,123.831z"/>
				<path fill="#6E7989" d="M122.771,123.831c1.285,0,2.334-0.073,2.334-0.162s-1.049-0.162-2.334-0.162s-2.334,0.073-2.334,0.162
					S121.486,123.831,122.771,123.831z"/>
				<path fill="#687383" d="M122.832,123.831c1.24,0,2.254-0.07,2.254-0.156s-1.014-0.157-2.254-0.157
					c-1.243,0-2.255,0.071-2.255,0.157S121.589,123.831,122.832,123.831z"/>
				<path fill="#626C7D" d="M122.893,123.831c1.196,0,2.174-0.067,2.174-0.151c0-0.082-0.978-0.15-2.174-0.15
					c-1.199,0-2.177,0.068-2.177,0.15C120.716,123.764,121.691,123.831,122.893,123.831z"/>
				<path fill="#5C6677" d="M122.951,123.831c1.154,0,2.097-0.065,2.097-0.146s-0.942-0.146-2.097-0.146
					c-1.156,0-2.098,0.065-2.098,0.146S121.795,123.831,122.951,123.831z"/>
				<path fill="#566072" d="M123.012,123.831c1.109,0,2.018-0.063,2.018-0.14s-0.907-0.141-2.018-0.141
					c-1.113,0-2.02,0.063-2.02,0.141C120.992,123.77,121.898,123.831,123.012,123.831z"/>
				<path fill="#505B6C" d="M123.07,123.831c1.066,0,1.938-0.06,1.938-0.134s-0.871-0.135-1.938-0.135
					c-1.068,0-1.939,0.061-1.939,0.135S122.002,123.831,123.07,123.831z"/>
				<path fill="#4A5567" d="M123.13,123.831c1.024,0,1.86-0.058,1.86-0.128c0-0.071-0.836-0.129-1.86-0.129s-1.86,0.058-1.86,0.129
					C121.27,123.773,122.104,123.831,123.13,123.831z"/>
				<ellipse fill="#455063" cx="123.189" cy="123.708" rx="1.781" ry="0.123"/>
				<path fill="#3F4B5E" d="M123.25,123.831c0.938,0,1.701-0.052,1.701-0.117c0-0.063-0.766-0.116-1.701-0.116
					c-0.939,0-1.703,0.053-1.703,0.116C121.547,123.779,122.311,123.831,123.25,123.831z"/>
				<path fill="#3A4559" d="M123.311,123.831c0.894,0,1.623-0.05,1.623-0.11c0-0.062-0.729-0.113-1.623-0.113
					c-0.896,0-1.625,0.052-1.625,0.113C121.686,123.781,122.414,123.831,123.311,123.831z"/>
				<ellipse fill="#344055" cx="123.369" cy="123.725" rx="1.544" ry="0.106"/>
				<path fill="#2F3B50" d="M123.43,123.831c0.807,0,1.465-0.045,1.465-0.101s-0.658-0.101-1.465-0.101
					c-0.81,0-1.467,0.045-1.467,0.101S122.62,123.831,123.43,123.831z"/>
				<ellipse fill="#2A364C" cx="123.488" cy="123.736" rx="1.387" ry="0.095"/>
			</g>
			
				<linearGradient id="SVGID_1_" gradientUnits="userSpaceOnUse" x1="302.9453" y1="-102.3896" x2="302.9453" y2="-107.1903" gradientTransform="matrix(1 0 0 -1 -200 -77)">
				<stop  offset="0" style="stop-color:#425255"/>
				<stop  offset="0.74" style="stop-color:#48585A"/>
				<stop  offset="0.82" style="stop-color:#303F43"/>
				<stop  offset="1" style="stop-color:#0E1819"/>
			</linearGradient>
			<rect x="101.617" y="24" fill="url(#SVGID_1_)" width="2.658" height="27.794"/>
			
				<linearGradient id="SVGID_2_" gradientUnits="userSpaceOnUse" x1="313.8438" y1="-200.7207" x2="313.8438" y2="-193.6489" gradientTransform="matrix(1 0 0 -1 -200 -77)">
				<stop  offset="0" style="stop-color:#314044"/>
				<stop  offset="1" style="stop-color:#0E1819"/>
			</linearGradient>
			<polygon fill="url(#SVGID_2_)" points="104.71,115.273 125.001,121.198 124.992,121.204 125.018,121.204 125.018,123.742 
				121.329,123.742 121.329,122.075 102.671,116.627 			"/>
			
				<linearGradient id="SVGID_3_" gradientUnits="userSpaceOnUse" x1="292.043" y1="-200.7207" x2="292.043" y2="-193.6489" gradientTransform="matrix(1 0 0 -1 -200 -77)">
				<stop  offset="0" style="stop-color:#314044"/>
				<stop  offset="1" style="stop-color:#0E1819"/>
			</linearGradient>
			<polygon fill="url(#SVGID_3_)" points="101.156,115.273 80.912,121.198 80.921,121.204 80.895,121.204 80.895,123.742 
				84.575,123.742 84.575,122.075 103.19,116.627 			"/>
			
				<linearGradient id="SVGID_4_" gradientUnits="userSpaceOnUse" x1="302.9453" y1="-189.7729" x2="302.9453" y2="-178.6861" gradientTransform="matrix(1 0 0 -1 -200 -77)">
				<stop  offset="0" style="stop-color:#425255"/>
				<stop  offset="0.74" style="stop-color:#5C696C"/>
				<stop  offset="0.82" style="stop-color:#303F43"/>
				<stop  offset="1" style="stop-color:#0E1819"/>
			</linearGradient>
			<rect x="101.091" y="51.794" fill="url(#SVGID_4_)" width="3.71" height="64.188"/>
			
				<linearGradient id="SVGID_5_" gradientUnits="userSpaceOnUse" x1="302.9463" y1="-189.7729" x2="302.9463" y2="-178.6861" gradientTransform="matrix(1 0 0 -1 -200 -77)">
				<stop  offset="0" style="stop-color:#425255"/>
				<stop  offset="0.74" style="stop-color:#48585A"/>
				<stop  offset="0.82" style="stop-color:#303F43"/>
				<stop  offset="1" style="stop-color:#0E1819"/>
			</linearGradient>
			<rect x="101.617" y="51.794" fill="url(#SVGID_5_)" width="2.658" height="64.188"/>
			
				<linearGradient id="SVGID_6_" gradientUnits="userSpaceOnUse" x1="302.9473" y1="-113.0576" x2="302.9473" y2="-110.4511" gradientTransform="matrix(1 0 0 -1 -200 -77)">
				<stop  offset="0" style="stop-color:#BCBFC4"/>
				<stop  offset="0.49" style="stop-color:#A5A6AA"/>
				<stop  offset="1" style="stop-color:#606667"/>
			</linearGradient>
			<rect x="61.898" y="31.382" fill="url(#SVGID_6_)" width="82.097" height="68.539"/>
			
				<radialGradient id="SVGID_7_" cx="302.9463" cy="-143.7686" r="47.6289" gradientTransform="matrix(1 0 0 -1 -200 -77)" gradientUnits="userSpaceOnUse">
				<stop  offset="0" style="stop-color:#FFFFFF"/>
				<stop  offset="0.38" style="stop-color:#F7F6F7"/>
				<stop  offset="0.68" style="stop-color:#DDDEE1"/>
				<stop  offset="1" style="stop-color:#BCBFC4"/>
			</radialGradient>
			<rect x="62.67" y="35.517" fill="url(#SVGID_7_)" width="80.553" height="63.781"/>
			
				<linearGradient id="SVGID_8_" gradientUnits="userSpaceOnUse" x1="302.9463" y1="-110.6821" x2="302.9463" y2="-105.0762" gradientTransform="matrix(1 0 0 -1 -200 -77)">
				<stop  offset="0" style="stop-color:#676A6A"/>
				<stop  offset="0.22" style="stop-color:#2A3233"/>
				<stop  offset="0.29" style="stop-color:#2A3233"/>
				<stop  offset="0.41" style="stop-color:#202828"/>
				<stop  offset="0.45" style="stop-color:#424A4A"/>
				<stop  offset="0.62" style="stop-color:#52595A"/>
				<stop  offset="0.73" style="stop-color:#0B1515"/>
				<stop  offset="0.88" style="stop-color:#5D6262"/>
				<stop  offset="1" style="stop-color:#9A9A9B"/>
			</linearGradient>
			<rect x="61" y="28.076" fill="url(#SVGID_8_)" width="83.893" height="5.606"/>
			
				<linearGradient id="SVGID_9_" gradientUnits="userSpaceOnUse" x1="302.9463" y1="-178.7861" x2="302.9463" y2="-175.9819" gradientTransform="matrix(1 0 0 -1 -200 -77)">
				<stop  offset="0" style="stop-color:#676A6A"/>
				<stop  offset="0.22" style="stop-color:#2A3233"/>
				<stop  offset="0.29" style="stop-color:#2A3233"/>
				<stop  offset="0.41" style="stop-color:#202828"/>
				<stop  offset="0.45" style="stop-color:#424A4A"/>
				<stop  offset="0.62" style="stop-color:#52595A"/>
				<stop  offset="0.73" style="stop-color:#0B1515"/>
				<stop  offset="0.88" style="stop-color:#5D6262"/>
				<stop  offset="1" style="stop-color:#9A9A9B"/>
			</linearGradient>
			<rect x="61" y="98.982" fill="url(#SVGID_9_)" width="83.893" height="2.804"/>
			
				<linearGradient id="SVGID_10_" gradientUnits="userSpaceOnUse" x1="302.9258" y1="-198.9961" x2="302.9258" y2="-189.3034" gradientTransform="matrix(1 0 0 -1 -200 -77)">
				<stop  offset="0" style="stop-color:#344447"/>
				<stop  offset="1" style="stop-color:#0E1819"/>
			</linearGradient>
			<rect x="101.114" y="115.273" fill="url(#SVGID_10_)" width="3.624" height="7.144"/>
			
				<linearGradient id="SVGID_11_" gradientUnits="userSpaceOnUse" x1="301.1152" y1="-200.2524" x2="301.1152" y2="-158.1006" gradientTransform="matrix(1 0 0 -1 -200 -77)">
				<stop  offset="0" style="stop-color:#38484B"/>
				<stop  offset="1" style="stop-color:#FFFFFF"/>
			</linearGradient>
			<path fill="url(#SVGID_11_)" d="M101.205,124.507c0,0.052-0.041,0.091-0.091,0.091c-0.05,0-0.09-0.039-0.09-0.091v-9.231
				c0-0.051,0.04-0.092,0.09-0.092c0.05,0,0.091,0.041,0.091,0.092V124.507z"/>
			
				<linearGradient id="SVGID_12_" gradientUnits="userSpaceOnUse" x1="304.7695" y1="-200.2524" x2="304.7695" y2="-158.1006" gradientTransform="matrix(1 0 0 -1 -200 -77)">
				<stop  offset="0" style="stop-color:#38484B"/>
				<stop  offset="1" style="stop-color:#FFFFFF"/>
			</linearGradient>
			<path fill="url(#SVGID_12_)" d="M104.859,124.507c0,0.052-0.04,0.091-0.09,0.091c-0.049,0-0.09-0.039-0.09-0.091v-9.231
				c0-0.051,0.041-0.092,0.09-0.092c0.05,0,0.09,0.041,0.09,0.092V124.507z"/>
			
				<linearGradient id="SVGID_13_" gradientUnits="userSpaceOnUse" x1="302.9365" y1="-201.3457" x2="302.9365" y2="-191.3886" gradientTransform="matrix(1 0 0 -1 -200 -77)">
				<stop  offset="0" style="stop-color:#38484B"/>
				<stop  offset="1" style="stop-color:#FFFFFF"/>
			</linearGradient>
			<rect x="101.024" y="122.418" fill="url(#SVGID_13_)" width="3.824" height="2.245"/>
			
				<linearGradient id="SVGID_14_" gradientUnits="userSpaceOnUse" x1="291.0527" y1="-199.9219" x2="291.0527" y2="-160.5395" gradientTransform="matrix(1 0 0 -1 -200 -77)">
				<stop  offset="0" style="stop-color:#38484B"/>
				<stop  offset="1" style="stop-color:#FFFFFF"/>
			</linearGradient>
			<path fill="url(#SVGID_14_)" d="M81.082,123.652c0,0.048-0.04,0.09-0.09,0.09c-0.05,0-0.09-0.042-0.09-0.09v-2.459
				c0-0.043,0.029-0.078,0.068-0.088l20.118-5.92c0.048-0.014,0.098,0.016,0.111,0.063c0.015,0.048-0.013,0.098-0.062,0.111
				l-20.057,5.901v2.392H81.082z"/>
			
				<linearGradient id="SVGID_15_" gradientUnits="userSpaceOnUse" x1="314.832" y1="-199.9219" x2="314.832" y2="-160.5395" gradientTransform="matrix(1 0 0 -1 -200 -77)">
				<stop  offset="0" style="stop-color:#38484B"/>
				<stop  offset="1" style="stop-color:#FFFFFF"/>
			</linearGradient>
			<path fill="url(#SVGID_15_)" d="M124.801,123.652c0,0.048,0.041,0.09,0.092,0.09c0.049,0,0.09-0.042,0.09-0.09v-2.459
				c0-0.043-0.029-0.078-0.069-0.088l-20.117-5.92c-0.048-0.014-0.098,0.016-0.111,0.063c-0.014,0.048,0.014,0.098,0.061,0.111
				l20.057,5.901v2.392H124.801z"/>
			
				<linearGradient id="SVGID_16_" gradientUnits="userSpaceOnUse" x1="302.8906" y1="-198.6069" x2="302.9605" y2="-199.9406" gradientTransform="matrix(1 0 0 -1 -200 -77)">
				<stop  offset="0" style="stop-color:#38484B"/>
				<stop  offset="1" style="stop-color:#FFFFFF"/>
			</linearGradient>
			<rect x="101.024" y="122.417" fill="url(#SVGID_16_)" width="3.824" height="0.085"/>
			
				<radialGradient id="SVGID_17_" cx="296.3096" cy="-116.3486" r="69.9127" gradientTransform="matrix(1 0 0 -1 -200 -77)" gradientUnits="userSpaceOnUse">
				<stop  offset="0" style="stop-color:#CDDC38"/>
				<stop  offset="0.23" style="stop-color:#B5D337"/>
				<stop  offset="0.58" style="stop-color:#8CBE3F"/>
				<stop  offset="1" style="stop-color:#8CBE3F"/>
			</radialGradient>
			<path fill="url(#SVGID_17_)" d="M71.175,38.797h63.542c2.811,0,5.106,2.3,5.106,5.106V86.67v2.297
				c0,2.808-2.298,5.104-5.106,5.104h-1.314H72.49h-1.315c-2.809,0-5.105-2.297-5.105-5.104V86.67V43.903
				C66.069,41.096,68.365,38.797,71.175,38.797z"/>
			
				<radialGradient id="SVGID_18_" cx="296.8564" cy="-116.3486" r="67.7488" gradientTransform="matrix(1 0 0 -1 -200 -77)" gradientUnits="userSpaceOnUse">
				<stop  offset="0" style="stop-color:#DAE252"/>
				<stop  offset="0.23" style="stop-color:#C8DA37"/>
				<stop  offset="0.58" style="stop-color:#9DC33D"/>
				<stop  offset="1" style="stop-color:#9DC33D"/>
			</radialGradient>
			<path fill="url(#SVGID_18_)" d="M71.175,38.797h7.774v55.274H72.49h-1.315c-0.739,0-1.441-0.158-2.076-0.443V39.241
				C69.733,38.956,70.436,38.797,71.175,38.797L71.175,38.797z M88.477,38.797h9.851v55.274h-9.851V38.797L88.477,38.797z
				 M107.57,38.797h9.852v55.274h-9.852V38.797L107.57,38.797z M126.949,38.797h7.768c0.741,0,1.446,0.16,2.083,0.447v54.382
				c-0.637,0.285-1.342,0.445-2.083,0.445h-1.314h-6.452L126.949,38.797L126.949,38.797z"/>
			
				<linearGradient id="SVGID_19_" gradientUnits="userSpaceOnUse" x1="302.9473" y1="-110.6821" x2="302.9473" y2="-105.0762" gradientTransform="matrix(1 0 0 -1 -200 -77)">
				<stop  offset="0" style="stop-color:#6F9A41"/>
				<stop  offset="0.29" style="stop-color:#2A3233"/>
				<stop  offset="0.41" style="stop-color:#202828"/>
				<stop  offset="0.45" style="stop-color:#424A4A"/>
				<stop  offset="0.62" style="stop-color:#52595A"/>
				<stop  offset="0.73" style="stop-color:#0B1515"/>
				<stop  offset="0.88" style="stop-color:#5D6262"/>
				<stop  offset="1" style="stop-color:#9A9A9B"/>
			</linearGradient>
			<rect x="66.672" y="28.076" fill="url(#SVGID_19_)" width="72.551" height="5.606"/>
			
				<linearGradient id="SVGID_20_" gradientUnits="userSpaceOnUse" x1="303.0439" y1="-102.085" x2="302.6469" y2="-98.3078" gradientTransform="matrix(1 0 0 -1 -200 -77)">
				<stop  offset="0" style="stop-color:#545B5C"/>
				<stop  offset="1" style="stop-color:#FFFFFF"/>
			</linearGradient>
			<rect x="101.617" y="24" fill="url(#SVGID_20_)" width="2.658" height="0.321"/>
			<path fill="#2B3618" d="M98.131,61.606V61.6v-0.006v-6.452h-2.614c-0.068,0-0.124-0.056-0.124-0.125
				c0-0.068,0.056-0.123,0.124-0.123h2.737c0.068,0,0.125,0.055,0.125,0.123v0.008v6.451h2.355c0.068,0,0.125,0.056,0.125,0.124
				s-0.057,0.124-0.125,0.124h-2.355v15.193c0,0.069-0.057,0.124-0.125,0.124h-0.006h-2.731c-0.068,0-0.124-0.055-0.124-0.124
				c0-0.068,0.056-0.124,0.124-0.124h2.614V61.606L98.131,61.606z M76.103,47.374c-0.067,0-0.124-0.055-0.124-0.124
				c0-0.067,0.057-0.124,0.124-0.124h2.738c0.067,0,0.124,0.057,0.124,0.124v0.007v2.159h2.355c0.068,0,0.125,0.057,0.125,0.124
				c0,0.069-0.057,0.125-0.125,0.125h-2.355v2.167c0,0.067-0.057,0.124-0.124,0.124h-0.007h-2.731c-0.067,0-0.124-0.057-0.124-0.124
				c0-0.069,0.057-0.125,0.124-0.125h2.614v-2.16V49.54v-0.006v-2.16H76.103L76.103,47.374z M76.103,69.274
				c-0.067,0-0.124-0.056-0.124-0.124c0-0.069,0.057-0.124,0.124-0.124h2.738c0.067,0,0.124,0.055,0.124,0.124v0.007v2.159h2.355
				c0.068,0,0.125,0.056,0.125,0.124s-0.057,0.124-0.125,0.124h-2.355v2.166c0,0.068-0.057,0.124-0.124,0.124h-0.007h-2.731
				c-0.067,0-0.124-0.056-0.124-0.124s0.057-0.124,0.124-0.124h2.614v-2.159V71.44v-0.006v-2.16H76.103L76.103,69.274z
				 M85.803,71.518c-0.068,0-0.123-0.056-0.123-0.125c0-0.067,0.055-0.124,0.123-0.124h2.738c0.068,0,0.124,0.057,0.124,0.124V71.4
				v5.392h2.356c0.068,0,0.124,0.057,0.124,0.124c0,0.069-0.056,0.124-0.124,0.124h-2.356v5.398c0,0.069-0.056,0.124-0.124,0.124
				h-0.006h-2.732c-0.068,0-0.123-0.055-0.123-0.124c0-0.067,0.055-0.124,0.123-0.124h2.614v-5.392v-0.007v-0.006v-5.392
				L85.803,71.518L85.803,71.518z M85.803,49.617c-0.068,0-0.123-0.056-0.123-0.125c0-0.067,0.055-0.123,0.123-0.123h2.738
				c0.068,0,0.124,0.056,0.124,0.123V49.5v5.392h2.356c0.068,0,0.124,0.057,0.124,0.123c0,0.068-0.056,0.124-0.124,0.124h-2.356
				v5.399c0,0.068-0.056,0.123-0.124,0.123h-0.006h-2.732c-0.068,0-0.123-0.055-0.123-0.123c0-0.067,0.055-0.124,0.123-0.124h2.614
				v-5.393v-0.007v-0.006v-5.392L85.803,49.617L85.803,49.617z M76.103,58.324c-0.067,0-0.124-0.056-0.124-0.124
				c0-0.068,0.057-0.124,0.124-0.124h2.738c0.067,0,0.124,0.056,0.124,0.124v0.008v2.158h2.355c0.068,0,0.125,0.057,0.125,0.124
				c0,0.069-0.057,0.124-0.125,0.124h-2.355v2.166c0,0.069-0.057,0.125-0.124,0.125h-0.007h-2.731c-0.067,0-0.124-0.056-0.124-0.125
				c0-0.067,0.057-0.124,0.124-0.124h2.614v-2.158V60.49v-0.006v-2.16H76.103L76.103,58.324z M76.103,80.224
				c-0.067,0-0.124-0.055-0.124-0.123s0.057-0.124,0.124-0.124h2.738c0.067,0,0.124,0.056,0.124,0.124v0.007v2.159h2.355
				c0.068,0,0.125,0.057,0.125,0.124c0,0.068-0.057,0.123-0.125,0.123h-2.355v2.167c0,0.068-0.057,0.124-0.124,0.124h-0.007h-2.731
				c-0.067,0-0.124-0.056-0.124-0.124c0-0.067,0.057-0.123,0.124-0.123h2.614v-2.16v-0.007v-0.006v-2.161H76.103z"/>
			<path fill="#2B3618" d="M107.762,67.071v0.007v0.007v9.704h2.614c0.067,0,0.124,0.057,0.124,0.125s-0.057,0.124-0.124,0.124
				h-2.737c-0.068,0-0.125-0.056-0.125-0.124v-0.007v-9.705h-2.354c-0.068,0-0.125-0.056-0.125-0.124
				c0-0.069,0.057-0.124,0.125-0.124h2.354V55.015c0-0.068,0.057-0.124,0.125-0.124h0.006h2.731c0.067,0,0.124,0.056,0.124,0.124
				c0,0.068-0.057,0.123-0.124,0.123h-2.614V67.071L107.762,67.071z M129.789,84.558c0.068,0,0.125,0.056,0.125,0.123
				c0,0.068-0.057,0.124-0.125,0.124h-2.737c-0.069,0-0.124-0.056-0.124-0.124v-0.006v-2.161h-2.357
				c-0.067,0-0.122-0.055-0.122-0.123c0-0.067,0.055-0.124,0.122-0.124h2.357v-2.166c0-0.068,0.055-0.124,0.124-0.124h0.007h2.73
				c0.068,0,0.125,0.056,0.125,0.124s-0.057,0.123-0.125,0.123h-2.613v2.161v0.006v0.007v2.16H129.789L129.789,84.558z
				 M129.789,62.656c0.068,0,0.125,0.057,0.125,0.124c0,0.069-0.057,0.125-0.125,0.125h-2.737c-0.069,0-0.124-0.056-0.124-0.125
				v-0.006v-2.16h-2.357c-0.067,0-0.122-0.055-0.122-0.124c0-0.067,0.055-0.124,0.122-0.124h2.357V58.2
				c0-0.068,0.055-0.124,0.124-0.124h0.007h2.73c0.068,0,0.125,0.056,0.125,0.124c0,0.068-0.057,0.124-0.125,0.124h-2.613v2.16
				v0.006v0.008v2.158H129.789L129.789,62.656z M120.089,60.414c0.068,0,0.124,0.057,0.124,0.124c0,0.068-0.056,0.124-0.124,0.124
				h-2.737c-0.068,0-0.125-0.056-0.125-0.124v-0.006V55.14h-2.355c-0.068,0-0.123-0.056-0.123-0.124
				c0-0.067,0.055-0.124,0.123-0.124h2.355v-5.398c0-0.068,0.057-0.123,0.125-0.123h0.008h2.729c0.068,0,0.124,0.055,0.124,0.123
				c0,0.068-0.056,0.124-0.124,0.124h-2.614v5.393v0.006v0.007v5.392h2.614V60.414z M120.089,82.314
				c0.068,0,0.124,0.056,0.124,0.124s-0.056,0.124-0.124,0.124h-2.737c-0.068,0-0.125-0.056-0.125-0.124v-0.007V77.04h-2.355
				c-0.068,0-0.123-0.056-0.123-0.124s0.055-0.124,0.123-0.124h2.355v-5.398c0-0.068,0.057-0.124,0.125-0.124h0.008h2.729
				c0.068,0,0.124,0.056,0.124,0.124s-0.056,0.124-0.124,0.124h-2.614v5.393v0.006v0.006v5.393h2.614V82.314z M129.789,73.606
				c0.068,0,0.125,0.056,0.125,0.124s-0.057,0.124-0.125,0.124h-2.737c-0.069,0-0.124-0.056-0.124-0.124v-0.006v-2.16h-2.357
				c-0.067,0-0.122-0.056-0.122-0.124s0.055-0.124,0.122-0.124h2.357V69.15c0-0.069,0.055-0.124,0.124-0.124h0.007h2.73
				c0.068,0,0.125,0.055,0.125,0.124c0,0.068-0.057,0.124-0.125,0.124h-2.613v2.16v0.006v0.007v2.159H129.789L129.789,73.606z
				 M129.789,51.707c0.068,0,0.125,0.056,0.125,0.125c0,0.067-0.057,0.124-0.125,0.124h-2.737c-0.069,0-0.124-0.057-0.124-0.124
				v-0.008v-2.159h-2.357c-0.067,0-0.122-0.056-0.122-0.125c0-0.067,0.055-0.124,0.122-0.124h2.357V47.25
				c0-0.067,0.055-0.124,0.124-0.124h0.007h2.73c0.068,0,0.125,0.057,0.125,0.124c0,0.069-0.057,0.124-0.125,0.124h-2.613v2.16
				v0.006v0.007v2.16H129.789z"/>
			<rect x="129.789" y="82.999" fill="#E9F0C2" width="4.434" height="3.292"/>
			<rect x="129.789" y="78.49" fill="#E9F0C2" width="4.434" height="3.293"/>
			<rect x="120.139" y="80.745" fill="#E9F0C2" width="4.434" height="3.292"/>
			<rect x="120.139" y="69.795" fill="#E9F0C2" width="4.434" height="3.292"/>
			<rect x="120.139" y="58.845" fill="#E9F0C2" width="4.434" height="3.293"/>
			<rect x="120.139" y="47.895" fill="#E9F0C2" width="4.434" height="3.293"/>
			<rect x="129.789" y="72.048" fill="#E9F0C2" width="4.434" height="3.294"/>
			<rect x="129.789" y="67.54" fill="#E9F0C2" width="4.434" height="3.292"/>
			<rect x="129.789" y="61.099" fill="#E9F0C2" width="4.434" height="3.292"/>
			<rect x="129.789" y="56.59" fill="#E9F0C2" width="4.434" height="3.292"/>
			<rect x="129.789" y="50.148" fill="#E9F0C2" width="4.434" height="3.292"/>
			<rect x="129.789" y="45.64" fill="#E9F0C2" width="4.434" height="3.293"/>
			<rect x="110.381" y="75.27" fill="#E9F0C2" width="4.434" height="3.293"/>
			<rect x="110.381" y="53.37" fill="#E9F0C2" width="4.434" height="3.292"/>
			<rect x="100.73" y="65.432" fill="#E9F0C2" width="4.432" height="3.292"/>
			<rect x="71.67" y="45.64" fill="#E9F0C2" width="4.433" height="3.293"/>
			<rect x="71.67" y="50.148" fill="#E9F0C2" width="4.433" height="3.292"/>
			<rect x="81.32" y="47.895" fill="#E9F0C2" width="4.434" height="3.293"/>
			<rect x="81.32" y="58.845" fill="#E9F0C2" width="4.434" height="3.293"/>
			<rect x="81.32" y="69.794" fill="#E9F0C2" width="4.434" height="3.293"/>
			<rect x="81.32" y="80.745" fill="#E9F0C2" width="4.434" height="3.291"/>
			<rect x="71.67" y="56.59" fill="#E9F0C2" width="4.433" height="3.292"/>
			<rect x="71.67" y="61.099" fill="#E9F0C2" width="4.433" height="3.292"/>
			<rect x="71.67" y="67.54" fill="#E9F0C2" width="4.433" height="3.291"/>
			<rect x="71.67" y="72.048" fill="#E9F0C2" width="4.433" height="3.294"/>
			<rect x="71.67" y="78.49" fill="#E9F0C2" width="4.433" height="3.293"/>
			<rect x="71.67" y="82.998" fill="#E9F0C2" width="4.433" height="3.293"/>
			<rect x="91.08" y="53.37" fill="#E9F0C2" width="4.432" height="3.292"/>
			<rect x="91.08" y="75.27" fill="#E9F0C2" width="4.432" height="3.293"/>
			<rect x="100.73" y="80.747" fill="#E9F0C2" width="4.432" height="3.293"/>
			<rect x="100.729" y="75.27" fill="#E9F0C2" width="4.433" height="3.293"/>
			<rect x="100.729" y="59.954" fill="#E9F0C2" width="4.433" height="3.292"/>
			<g>
				<path fill="#0D68AA" d="M78.56,131.188l5.67,21.42h-4.5l-0.989-4.529h-5.7l-0.99,4.529h-4.5l5.67-21.42H78.56z M77.99,144.538
					l-2.07-9.63h-0.061l-2.069,9.63H77.99z"/>
				<path fill="#0D68AA" d="M88.64,147.868c0,0.7,0.185,1.266,0.555,1.694c0.37,0.432,0.905,0.646,1.605,0.646
					c0.64,0,1.149-0.159,1.529-0.479c0.38-0.318,0.57-0.799,0.57-1.439c0-0.52-0.15-0.915-0.45-1.186
					c-0.3-0.271-0.649-0.483-1.05-0.646l-2.91-1.05c-1.14-0.399-2-0.965-2.58-1.694c-0.58-0.729-0.87-1.665-0.87-2.806
					c0-0.66,0.11-1.284,0.33-1.875c0.22-0.59,0.57-1.104,1.051-1.545c0.479-0.439,1.095-0.79,1.845-1.051
					c0.75-0.26,1.654-0.39,2.715-0.39c1.88,0,3.27,0.399,4.17,1.199c0.9,0.801,1.35,1.931,1.35,3.392v0.659h-3.72
					c0-0.841-0.135-1.455-0.405-1.846c-0.27-0.39-0.745-0.585-1.425-0.585c-0.521,0-0.975,0.146-1.364,0.436
					c-0.391,0.29-0.586,0.725-0.586,1.305c0,0.4,0.125,0.762,0.375,1.08c0.25,0.32,0.726,0.59,1.426,0.811l2.489,0.841
					c1.3,0.438,2.221,1.015,2.761,1.726c0.54,0.709,0.81,1.675,0.81,2.895c0,0.859-0.149,1.605-0.45,2.234
					c-0.3,0.631-0.715,1.156-1.245,1.576c-0.529,0.42-1.16,0.72-1.89,0.898c-0.73,0.182-1.535,0.271-2.415,0.271
					c-1.16,0-2.125-0.11-2.895-0.33c-0.771-0.221-1.38-0.551-1.83-0.99c-0.45-0.439-0.766-0.975-0.945-1.604
					c-0.179-0.629-0.27-1.336-0.27-2.115v-0.57h3.72L88.64,147.868L88.64,147.868z"/>
				<path fill="#0D68AA" d="M103.22,136.469v16.141h-4.14v-16.141H103.22z M104.96,130.259l-2.94,4.319H99.2l1.619-4.319H104.96z"/>
				<path fill="#0D68AA" d="M125.119,136.469l-4.051,16.141h-4.799l-4.17-16.141h4.318l2.311,11.551h0.061l2.189-11.551H125.119z"/>
				<path fill="#0D68AA" d="M126.618,141.027c0-0.938,0.149-1.725,0.45-2.354c0.3-0.631,0.705-1.141,1.215-1.529
					c0.511-0.392,1.109-0.67,1.801-0.84c0.689-0.171,1.425-0.256,2.204-0.256c1.239,0,2.239,0.119,3,0.359s1.351,0.58,1.771,1.021
					c0.42,0.438,0.705,0.965,0.854,1.573c0.149,0.61,0.226,1.274,0.226,1.995v8.49c0,0.761,0.034,1.351,0.104,1.771
					c0.069,0.421,0.204,0.869,0.405,1.351h-3.961c-0.14-0.26-0.244-0.535-0.313-0.825c-0.069-0.289-0.136-0.574-0.194-0.854h-0.062
					c-0.479,0.84-1.034,1.385-1.665,1.635s-1.444,0.375-2.444,0.375c-0.721,0-1.329-0.125-1.829-0.375s-0.9-0.595-1.201-1.035
					c-0.299-0.438-0.521-0.935-0.66-1.484c-0.139-0.55-0.209-1.095-0.209-1.635c0-0.76,0.08-1.414,0.24-1.965
					c0.159-0.551,0.404-1.021,0.734-1.41c0.329-0.391,0.75-0.715,1.26-0.975c0.51-0.261,1.125-0.49,1.846-0.69l2.34-0.63
					c0.619-0.16,1.05-0.381,1.289-0.66c0.24-0.279,0.36-0.689,0.36-1.229c0-0.621-0.146-1.105-0.436-1.455
					c-0.29-0.351-0.785-0.525-1.484-0.525c-0.641,0-1.12,0.189-1.44,0.57c-0.319,0.379-0.479,0.89-0.479,1.529v0.449h-3.721
					L126.618,141.027L126.618,141.027z M133.277,145.063c-0.319,0.131-0.609,0.226-0.869,0.285c-0.84,0.18-1.439,0.479-1.801,0.899
					c-0.358,0.42-0.539,0.989-0.539,1.71c0,0.62,0.119,1.15,0.359,1.591c0.24,0.438,0.641,0.659,1.2,0.659
					c0.279,0,0.569-0.045,0.87-0.135c0.3-0.09,0.574-0.234,0.824-0.436s0.455-0.46,0.615-0.779s0.24-0.7,0.24-1.141v-3.181
					C133.898,144.759,133.6,144.934,133.277,145.063z"/>
				<path fill="#0D68AA" d="M65.765,155.188v21.42h-4.14v-21.42H65.765z"/>
				<path fill="#0D68AA" d="M68.645,165.027c0-0.938,0.15-1.725,0.45-2.354c0.3-0.631,0.705-1.141,1.215-1.529
					c0.511-0.392,1.11-0.67,1.801-0.84c0.689-0.171,1.425-0.256,2.204-0.256c1.24,0,2.24,0.119,3,0.359
					c0.761,0.24,1.351,0.58,1.771,1.021c0.42,0.438,0.705,0.965,0.854,1.573c0.15,0.61,0.226,1.274,0.226,1.995v8.49
					c0,0.761,0.034,1.351,0.104,1.771c0.07,0.421,0.205,0.869,0.405,1.351h-3.96c-0.14-0.26-0.245-0.535-0.314-0.825
					c-0.07-0.289-0.136-0.574-0.195-0.854h-0.061c-0.479,0.84-1.034,1.385-1.665,1.635c-0.63,0.25-1.444,0.375-2.444,0.375
					c-0.721,0-1.33-0.125-1.83-0.375s-0.9-0.595-1.2-1.035c-0.3-0.438-0.521-0.935-0.66-1.484c-0.14-0.55-0.21-1.095-0.21-1.635
					c0-0.76,0.08-1.414,0.24-1.965s0.405-1.021,0.735-1.41c0.329-0.391,0.75-0.715,1.26-0.975c0.51-0.261,1.125-0.49,1.845-0.69
					l2.34-0.63c0.62-0.16,1.05-0.381,1.29-0.66c0.24-0.279,0.36-0.689,0.36-1.229c0-0.621-0.146-1.105-0.436-1.455
					c-0.29-0.351-0.785-0.525-1.484-0.525c-0.641,0-1.12,0.189-1.44,0.57c-0.32,0.379-0.479,0.89-0.479,1.529v0.449h-3.721
					L68.645,165.027L68.645,165.027z M75.305,169.063c-0.32,0.131-0.61,0.226-0.87,0.285c-0.84,0.18-1.439,0.479-1.8,0.899
					c-0.359,0.42-0.54,0.989-0.54,1.71c0,0.62,0.12,1.15,0.36,1.591c0.24,0.438,0.64,0.659,1.2,0.659
					c0.279,0,0.569-0.045,0.87-0.135c0.3-0.09,0.574-0.234,0.824-0.436s0.455-0.46,0.615-0.779c0.16-0.319,0.24-0.7,0.24-1.141
					v-3.181C75.925,168.759,75.625,168.934,75.305,169.063z"/>
				<path fill="#0D68AA" d="M94.264,160.469v1.711h0.061c0.459-0.761,0.975-1.307,1.545-1.637c0.569-0.329,1.274-0.494,2.114-0.494
					c1.7,0,2.95,0.665,3.75,1.994c0.8,1.331,1.2,3.495,1.2,6.495s-0.4,5.149-1.2,6.45c-0.8,1.301-2.05,1.949-3.75,1.949
					c-0.779,0-1.444-0.146-1.994-0.436c-0.551-0.289-1.046-0.754-1.485-1.395h-0.061v6.689h-4.14v-21.33h3.96V160.469z
					 M94.849,172.514c0.271,0.891,0.865,1.336,1.785,1.336c0.9,0,1.485-0.445,1.755-1.336c0.271-0.89,0.405-2.215,0.405-3.976
					s-0.135-3.085-0.405-3.976c-0.27-0.89-0.854-1.334-1.755-1.334c-0.92,0-1.515,0.444-1.785,1.334
					c-0.27,0.891-0.405,2.215-0.405,3.976C94.443,170.299,94.579,171.624,94.849,172.514z"/>
				<path fill="#0D68AA" d="M105.094,164.878c0.22-1.06,0.58-1.944,1.08-2.653c0.5-0.711,1.155-1.25,1.965-1.621
					c0.812-0.369,1.805-0.555,2.985-0.555c1.239-0.021,2.271,0.145,3.09,0.494c0.819,0.352,1.47,0.887,1.95,1.605
					c0.479,0.72,0.818,1.609,1.02,2.67c0.2,1.061,0.301,2.3,0.301,3.72c0,1.38-0.109,2.601-0.33,3.66
					c-0.221,1.061-0.58,1.944-1.079,2.655c-0.501,0.709-1.155,1.234-1.966,1.574s-1.805,0.51-2.984,0.51
					c-1.24,0.021-2.271-0.135-3.09-0.465c-0.82-0.33-1.471-0.85-1.95-1.561c-0.48-0.709-0.82-1.6-1.021-2.67
					c-0.2-1.069-0.3-2.305-0.3-3.705C104.764,167.158,104.873,165.938,105.094,164.878z M108.964,170.818
					c0.04,0.699,0.136,1.301,0.285,1.8c0.149,0.5,0.375,0.891,0.675,1.17c0.301,0.28,0.7,0.42,1.2,0.42
					c0.84,0,1.42-0.438,1.739-1.319c0.32-0.88,0.479-2.33,0.479-4.351s-0.159-3.47-0.479-4.351
					c-0.319-0.879-0.899-1.319-1.739-1.319c-0.5,0-0.899,0.141-1.2,0.42c-0.3,0.28-0.525,0.671-0.675,1.17
					c-0.149,0.501-0.245,1.101-0.285,1.801s-0.06,1.46-0.06,2.279S108.924,170.118,108.964,170.818z"/>
				<path fill="#0D68AA" d="M123.993,155.188v21.42h-4.14v-21.42H123.993z"/>
				<path fill="#0D68AA" d="M131.193,155.188v21.42h-4.141v-21.42H131.193z"/>
				<path fill="#0D68AA" d="M134.072,165.027c0-0.938,0.15-1.725,0.449-2.354c0.301-0.631,0.705-1.141,1.215-1.529
					c0.512-0.392,1.111-0.67,1.802-0.84c0.688-0.171,1.425-0.256,2.204-0.256c1.24,0,2.24,0.119,3,0.359
					c0.761,0.24,1.351,0.58,1.771,1.021c0.42,0.438,0.704,0.965,0.854,1.573c0.15,0.61,0.226,1.274,0.226,1.995v8.49
					c0,0.761,0.034,1.351,0.104,1.771c0.07,0.421,0.205,0.869,0.404,1.351h-3.959c-0.141-0.26-0.246-0.535-0.314-0.825
					c-0.07-0.289-0.137-0.574-0.195-0.854h-0.061c-0.479,0.84-1.034,1.385-1.665,1.635c-0.63,0.25-1.444,0.375-2.444,0.375
					c-0.721,0-1.33-0.125-1.83-0.375s-0.9-0.595-1.199-1.035c-0.301-0.438-0.521-0.935-0.66-1.484
					c-0.141-0.55-0.211-1.095-0.211-1.635c0-0.76,0.08-1.414,0.24-1.965s0.405-1.021,0.735-1.41c0.329-0.391,0.75-0.715,1.26-0.975
					c0.511-0.261,1.125-0.49,1.845-0.69l2.34-0.63c0.621-0.16,1.051-0.381,1.291-0.66s0.359-0.689,0.359-1.229
					c0-0.621-0.146-1.105-0.436-1.455c-0.291-0.351-0.785-0.525-1.484-0.525c-0.641,0-1.12,0.189-1.439,0.57
					c-0.32,0.379-0.479,0.89-0.479,1.529v0.449h-3.722V165.027L134.072,165.027z M140.732,169.063
					c-0.32,0.131-0.61,0.226-0.871,0.285c-0.84,0.18-1.438,0.479-1.799,0.899c-0.359,0.42-0.541,0.989-0.541,1.71
					c0,0.62,0.121,1.15,0.36,1.591c0.24,0.438,0.64,0.659,1.2,0.659c0.279,0,0.568-0.045,0.87-0.135
					c0.3-0.09,0.573-0.234,0.823-0.436s0.455-0.46,0.615-0.779s0.24-0.7,0.24-1.141v-3.181
					C141.354,168.759,141.053,168.934,140.732,169.063z"/>
			</g>
		</g>
	</g>
</g>
</svg>
