<?xml version="1.0" encoding="utf-8"?>
<!-- Generated by IcoMoon.io -->
<!DOCTYPE svg PUBLIC "-//W3C//DTD SVG 1.1//EN" "http://www.w3.org/Graphics/SVG/1.1/DTD/svg11.dtd">
<svg version="1.1" xmlns="http://www.w3.org/2000/svg" xmlns:xlink="http://www.w3.org/1999/xlink" width="34" height="34" viewBox="0 0 34 34">
<g>
</g>
	<path d="M0.027 28.876c-0.008-0.084-0.015-0.168-0.019-0.253 0.004 0.085 0.011 0.169 0.019 0.253zM7.833 18.765c3.055 0.091 5.104-3.078 4.577-7.079-0.528-4-3.433-7.211-6.488-7.302-3.056-0.091-5.105 2.971-4.577 6.973 0.527 4 3.432 7.317 6.488 7.408zM34 8.5v-2.833c0-3.117-2.549-5.667-5.666-5.667h-22.666c-3.064 0-5.579 2.465-5.663 5.509 1.938-1.706 4.626-3.132 7.4-3.132 2.965 0 11.862 0 11.862 0l-2.655 2.245h-3.761c2.495 0.956 3.824 3.856 3.824 6.831 0 2.498-1.388 4.647-3.35 6.175-1.914 1.491-2.277 2.115-2.277 3.383 0 1.082 2.050 2.922 3.122 3.679 3.134 2.209 4.148 4.26 4.148 7.685 0 0.545-0.068 1.090-0.201 1.626h10.218c3.117 0 5.666-2.548 5.666-5.667v-17.707h-6.375v6.375h-2.125v-6.375h-6.375v-2.125h6.375v-6.375h2.125v6.375h6.375zM6.172 25.431c0.718 0 1.375-0.020 2.056-0.020-0.901-0.874-1.615-1.946-1.615-3.267 0-0.784 0.251-1.539 0.602-2.209-0.358 0.026-0.723 0.033-1.1 0.033-2.469 0-4.566-0.799-6.116-2.12v2.233l0 6.698c1.774-0.842 3.881-1.349 6.172-1.349zM0.114 29.46c-0.037-0.181-0.065-0.365-0.084-0.552 0.019 0.187 0.047 0.371 0.084 0.552zM15.122 31.637c-0.5-1.953-2.273-2.921-4.744-4.634-0.899-0.29-1.889-0.461-2.952-0.472-2.976-0.032-5.748 1.16-7.312 2.934 0.529 2.58 2.823 4.534 5.553 4.534h9.511c0.060-0.369 0.090-0.751 0.090-1.143 0-0.416-0.051-0.823-0.145-1.219z" fill="#7d7d7d" />
</svg>
