<?xml version="1.0" encoding="utf-8"?>
<!-- Generated by IcoMoon.io -->
<!DOCTYPE svg PUBLIC "-//W3C//DTD SVG 1.1//EN" "http://www.w3.org/Graphics/SVG/1.1/DTD/svg11.dtd">
<svg version="1.1" xmlns="http://www.w3.org/2000/svg" xmlns:xlink="http://www.w3.org/1999/xlink" width="34" height="34" viewBox="0 0 34 34">
<g>
</g>
	<path d="M12.75 19.125h-10.625c-1.175 0-2.125 0.95-2.125 2.125v10.625c0 1.175 0.95 2.125 2.125 2.125h10.625c1.175 0 2.125-0.95 2.125-2.125v-10.625c0-1.175-0.95-2.125-2.125-2.125zM10.625 29.75h-6.375v-6.375h6.375v6.375zM12.75 0h-10.625c-1.175 0-2.125 0.95-2.125 2.125v10.625c0 1.175 0.95 2.125 2.125 2.125h10.625c1.175 0 2.125-0.95 2.125-2.125v-10.625c0-1.175-0.95-2.125-2.125-2.125zM10.625 10.625h-6.375v-6.375h6.375v6.375zM31.875 19.125h-10.625c-1.175 0-2.125 0.95-2.125 2.125v10.625c0 1.175 0.95 2.125 2.125 2.125h10.625c1.175 0 2.125-0.95 2.125-2.125v-10.625c0-1.175-0.95-2.125-2.125-2.125zM29.75 29.75h-6.375v-6.375h6.375v6.375zM31.875 0h-10.625c-1.175 0-2.125 0.95-2.125 2.125v10.625c0 1.175 0.95 2.125 2.125 2.125h10.625c1.175 0 2.125-0.95 2.125-2.125v-10.625c0-1.175-0.95-2.125-2.125-2.125zM29.75 10.625h-6.375v-6.375h6.375v6.375z" fill="#7d7d7d" />
</svg>
