<?xml version="1.0" encoding="utf-8"?>
<!-- Generator: Adobe Illustrator 15.0.0, SVG Export Plug-In . SVG Version: 6.00 Build 0)  -->
<!DOCTYPE svg PUBLIC "-//W3C//DTD SVG 1.1//EN" "http://www.w3.org/Graphics/SVG/1.1/DTD/svg11.dtd">
<svg version="1.1" id="Layer_1" xmlns="http://www.w3.org/2000/svg" xmlns:xlink="http://www.w3.org/1999/xlink" x="0px" y="0px"
	 width="32px" height="32px" viewBox="0 0 32 32" enable-background="new 0 0 32 32" xml:space="preserve">
<path fill="#0E67A9" d="M30.036,18.58v-5.162l-3.942-0.657c-0.16-0.487-0.354-0.958-0.582-1.411l2.322-3.25l-3.65-3.65l-3.246,2.32
	c-0.453-0.229-0.928-0.427-1.416-0.588L18.866,2.25h-5.162l-0.656,3.932c-0.489,0.162-0.963,0.358-1.417,0.588L8.386,4.452
	l-3.649,3.65l2.322,3.25c-0.228,0.453-0.423,0.924-0.583,1.411L2.534,13.42v5.162l3.951,0.658c0.16,0.482,0.354,0.949,0.581,1.396
	l-2.33,3.263l3.65,3.649l3.267-2.333c0.446,0.223,0.91,0.416,1.391,0.576l0.66,3.959h5.162l0.659-3.961
	c0.48-0.158,0.945-0.352,1.391-0.576l3.27,2.333l3.647-3.647l-2.33-3.263c0.228-0.446,0.422-0.913,0.581-1.396L30.036,18.58
	L30.036,18.58z M16.286,19.438c-1.899,0-3.438-1.539-3.438-3.438c0-1.898,1.539-3.438,3.438-3.438c1.897,0,3.438,1.54,3.438,3.438
	C19.725,17.896,18.184,19.438,16.286,19.438z"/>
</svg>
