<?xml version="1.0" encoding="utf-8"?>
<!-- Generator: Adobe Illustrator 15.0.0, SVG Export Plug-In . SVG Version: 6.00 Build 0)  -->
<!DOCTYPE svg PUBLIC "-//W3C//DTD SVG 1.1//EN" "http://www.w3.org/Graphics/SVG/1.1/DTD/svg11.dtd">
<svg version="1.1" id="Layer_1" xmlns="http://www.w3.org/2000/svg" xmlns:xlink="http://www.w3.org/1999/xlink" x="0px" y="0px"
	 width="131.5px" height="131.5px" viewBox="0 0 131.5 131.5" enable-background="new 0 0 131.5 131.5" xml:space="preserve">
<g id="Layer_1_2_">
	<rect x="10.25" y="9.25" opacity="0.76" fill="#FFFFFF" enable-background="new    " width="112" height="112"/>
</g>
<g>
	<g>
		<g>
			<path fill-rule="evenodd" clip-rule="evenodd" fill="#FFFFFF" d="M38.304,71.524c10.172,0,44.981,0,55.154,0
				c0.092,0,0.169-0.022,0.203-0.056c0.036-0.033,0.017-0.07-0.046-0.097l-5.896-2.403c-0.015-0.005-0.032-0.009-0.053-0.009
				c-6.312,0-37.26,0-43.572,0c-0.02,0-0.038,0.004-0.051,0.009l-5.896,2.403c-0.064,0.026-0.082,0.063-0.046,0.097
				C38.136,71.502,38.213,71.524,38.304,71.524z"/>
			<path fill-rule="evenodd" clip-rule="evenodd" fill="#F7F8F9" d="M38.38,71.514c10.117,0,44.871,0,54.988,0
				c0.091,0,0.168-0.022,0.202-0.056c0.036-0.034,0.016-0.069-0.046-0.096l-5.863-2.389c-0.015-0.005-0.032-0.009-0.053-0.009
				c-6.277,0-37.191,0-43.468,0c-0.021,0-0.038,0.004-0.051,0.009l-5.864,2.389c-0.064,0.026-0.081,0.062-0.046,0.096
				S38.29,71.514,38.38,71.514z"/>
			<path fill-rule="evenodd" clip-rule="evenodd" fill="#F0F2F4" d="M38.457,71.503c10.062,0,44.759,0,54.822,0
				c0.09,0,0.167-0.022,0.201-0.055c0.035-0.033,0.016-0.07-0.046-0.096l-5.831-2.375c-0.015-0.005-0.032-0.009-0.053-0.009
				c-6.242,0-37.122,0-43.365,0c-0.02,0-0.038,0.004-0.051,0.009l-5.832,2.375c-0.064,0.025-0.081,0.062-0.046,0.096
				C38.291,71.48,38.367,71.503,38.457,71.503z"/>
			<path fill-rule="evenodd" clip-rule="evenodd" fill="#E8EBEE" d="M38.533,71.492c10.006,0,44.649,0,54.655,0
				c0.091,0,0.166-0.022,0.2-0.055c0.035-0.032,0.017-0.069-0.045-0.096l-5.799-2.359c-0.015-0.005-0.032-0.009-0.052-0.009
				c-6.209,0-37.054,0-43.263,0c-0.02,0-0.037,0.004-0.05,0.009l-5.8,2.359c-0.062,0.026-0.08,0.063-0.045,0.096
				C38.368,71.47,38.443,71.492,38.533,71.492z"/>
			<path fill-rule="evenodd" clip-rule="evenodd" fill="#E1E5E8" d="M38.609,71.481c9.951,0,44.538,0,54.49,0
				c0.089,0,0.165-0.022,0.198-0.055c0.035-0.033,0.016-0.069-0.045-0.095l-5.767-2.345c-0.015-0.006-0.032-0.009-0.052-0.009
				c-6.175,0-36.985,0-43.16,0c-0.019,0-0.037,0.003-0.05,0.009l-5.768,2.345c-0.062,0.025-0.08,0.062-0.045,0.095
				C38.444,71.459,38.521,71.481,38.609,71.481z"/>
			<path fill-rule="evenodd" clip-rule="evenodd" fill="#D9DEE3" d="M38.686,71.47c9.896,0,44.428,0,54.322,0
				c0.089,0,0.163-0.021,0.198-0.054c0.034-0.032,0.016-0.068-0.045-0.094l-5.735-2.33c-0.014-0.006-0.031-0.009-0.051-0.009
				c-6.141,0-36.916,0-43.056,0c-0.02,0-0.037,0.003-0.05,0.009l-5.735,2.33c-0.062,0.025-0.079,0.062-0.045,0.094
				C38.521,71.449,38.597,71.47,38.686,71.47z"/>
			<path fill-rule="evenodd" clip-rule="evenodd" fill="#D2D8DD" d="M38.762,71.459c9.84,0,44.316,0,54.156,0
				c0.088,0,0.163-0.021,0.197-0.053c0.034-0.032,0.016-0.068-0.045-0.094l-5.703-2.316c-0.015-0.005-0.031-0.008-0.051-0.008
				c-6.105,0-36.847,0-42.953,0c-0.02,0-0.036,0.003-0.05,0.008l-5.703,2.316c-0.062,0.025-0.079,0.062-0.045,0.094
				C38.599,71.438,38.674,71.459,38.762,71.459z"/>
			<path fill-rule="evenodd" clip-rule="evenodd" fill="#CAD1D7" d="M38.838,71.448c9.785,0,44.205,0,53.99,0
				c0.088,0,0.162-0.021,0.196-0.053c0.034-0.032,0.015-0.067-0.045-0.093l-5.671-2.302c-0.015-0.006-0.031-0.008-0.051-0.008
				c-6.07,0-36.778,0-42.85,0c-0.02,0-0.036,0.002-0.05,0.008l-5.671,2.302c-0.062,0.025-0.079,0.061-0.045,0.093
				C38.676,71.427,38.75,71.448,38.838,71.448z"/>
			<path fill-rule="evenodd" clip-rule="evenodd" fill="#C3CBD2" d="M38.914,71.438c9.729,0,44.095,0,53.824,0
				c0.087,0,0.161-0.021,0.195-0.053c0.033-0.031,0.015-0.067-0.045-0.092l-5.639-2.287c-0.015-0.006-0.031-0.008-0.051-0.008
				c-6.037,0-36.709,0-42.746,0c-0.02,0-0.036,0.002-0.05,0.008l-5.639,2.287c-0.062,0.024-0.078,0.061-0.045,0.092
				S38.827,71.438,38.914,71.438z"/>
			<path fill-rule="evenodd" clip-rule="evenodd" fill="#BBC4CC" d="M38.99,71.427c9.674,0,43.984,0,53.658,0
				c0.086,0,0.16-0.021,0.193-0.052s0.016-0.068-0.044-0.093l-5.606-2.272c-0.015-0.005-0.031-0.008-0.05-0.008
				c-6.003,0-36.641,0-42.644,0c-0.02,0-0.036,0.003-0.05,0.008l-5.606,2.272c-0.062,0.024-0.078,0.062-0.045,0.093
				S38.904,71.427,38.99,71.427z"/>
			<path fill-rule="evenodd" clip-rule="evenodd" fill="#B3BDC6" d="M39.066,71.416c9.619,0,43.873,0,53.492,0
				c0.086,0,0.159-0.021,0.192-0.052s0.015-0.067-0.044-0.092l-5.574-2.258c-0.015-0.006-0.031-0.008-0.05-0.008
				c-5.969,0-36.572,0-42.541,0c-0.019,0-0.036,0.002-0.049,0.008l-5.574,2.258c-0.062,0.024-0.078,0.061-0.045,0.092
				C38.907,71.396,38.98,71.416,39.066,71.416z"/>
			<path fill-rule="evenodd" clip-rule="evenodd" fill="#ACB7C0" d="M39.143,71.405c9.563,0,43.763,0,53.326,0
				c0.085,0,0.158-0.021,0.191-0.052s0.015-0.066-0.044-0.091l-5.542-2.243c-0.016-0.006-0.031-0.008-0.05-0.008
				c-5.935,0-36.504,0-42.438,0c-0.019,0-0.035,0.002-0.049,0.008l-5.542,2.243c-0.061,0.024-0.077,0.06-0.044,0.091
				C38.984,71.385,39.058,71.405,39.143,71.405z"/>
			<path fill-rule="evenodd" clip-rule="evenodd" fill="#A4B0BB" d="M39.219,71.394c9.508,0,43.652,0,53.159,0
				c0.085,0,0.158-0.02,0.191-0.05s0.015-0.066-0.044-0.091l-5.511-2.229c-0.015-0.005-0.029-0.007-0.049-0.007
				c-5.899,0-36.435,0-42.334,0c-0.02,0-0.035,0.002-0.049,0.007l-5.51,2.229c-0.061,0.024-0.077,0.06-0.044,0.091
				C39.062,71.373,39.134,71.394,39.219,71.394z"/>
			<path fill-rule="evenodd" clip-rule="evenodd" fill="#9DAAB5" d="M39.295,71.383c9.453,0,43.541,0,52.994,0
				c0.083,0,0.156-0.019,0.189-0.05c0.032-0.029,0.014-0.066-0.044-0.091l-5.479-2.214c-0.015-0.006-0.029-0.008-0.048-0.008
				c-5.866,0-36.366,0-42.231,0c-0.019,0-0.035,0.002-0.049,0.008l-5.478,2.214c-0.061,0.024-0.077,0.061-0.044,0.091
				C39.138,71.363,39.211,71.383,39.295,71.383z"/>
			<path fill-rule="evenodd" clip-rule="evenodd" fill="#95A3AF" d="M39.372,71.372c9.397,0,43.429,0,52.827,0
				c0.083,0,0.156-0.019,0.189-0.05c0.032-0.029,0.014-0.065-0.044-0.089l-5.446-2.2c-0.015-0.006-0.029-0.008-0.049-0.008
				c-5.831,0-36.297,0-42.128,0c-0.019,0-0.034,0.002-0.048,0.008l-5.446,2.2c-0.059,0.023-0.076,0.059-0.043,0.089
				C39.215,71.353,39.288,71.372,39.372,71.372z"/>
			<path fill-rule="evenodd" clip-rule="evenodd" fill="#8E9DAA" d="M39.448,71.361c9.342,0,43.319,0,52.661,0
				c0.083,0,0.155-0.019,0.188-0.049c0.033-0.03,0.014-0.066-0.043-0.09l-5.414-2.186c-0.015-0.006-0.029-0.007-0.048-0.007
				c-5.797,0-36.229,0-42.025,0c-0.018,0-0.034,0.001-0.048,0.007l-5.414,2.186c-0.059,0.023-0.076,0.059-0.043,0.09
				C39.292,71.342,39.364,71.361,39.448,71.361z"/>
			<path fill-rule="evenodd" clip-rule="evenodd" fill="#8696A4" d="M39.524,71.351c9.287,0,43.208,0,52.495,0
				c0.082,0,0.153-0.02,0.187-0.049c0.031-0.03,0.014-0.065-0.043-0.089l-5.382-2.171c-0.015-0.006-0.029-0.007-0.048-0.007
				c-5.763,0-36.16,0-41.922,0c-0.019,0-0.034,0.001-0.048,0.007l-5.381,2.171c-0.059,0.023-0.075,0.059-0.043,0.089
				C39.37,71.331,39.441,71.351,39.524,71.351z"/>
			<path fill-rule="evenodd" clip-rule="evenodd" fill="#80909F" d="M39.561,71.348c9.266,0,43.172,0,52.439,0
				c0.081,0,0.153-0.019,0.186-0.049c0.032-0.029,0.014-0.065-0.043-0.089l-5.37-2.165c-0.015-0.006-0.029-0.007-0.048-0.007
				c-5.75,0-36.139,0-41.889,0c-0.018,0-0.033,0.001-0.048,0.007l-5.37,2.165c-0.059,0.023-0.075,0.059-0.043,0.089
				C39.407,71.328,39.479,71.348,39.561,71.348z"/>
			<path fill-rule="evenodd" clip-rule="evenodd" fill="#7A8A99" d="M39.598,71.345c9.246,0,43.136,0,52.382,0
				c0.082,0,0.153-0.019,0.186-0.049c0.032-0.029,0.014-0.064-0.043-0.088l-5.358-2.16c-0.015-0.006-0.029-0.007-0.048-0.007
				c-5.737,0-36.118,0-41.855,0c-0.018,0-0.033,0.001-0.047,0.007l-5.358,2.16c-0.059,0.023-0.075,0.058-0.043,0.088
				C39.444,71.325,39.515,71.345,39.598,71.345z"/>
			<path fill-rule="evenodd" clip-rule="evenodd" fill="#758494" d="M39.635,71.342c9.227,0,43.101,0,52.326,0
				c0.082,0,0.153-0.019,0.186-0.049c0.032-0.029,0.014-0.064-0.043-0.088l-5.347-2.154c-0.015-0.006-0.028-0.007-0.047-0.007
				c-5.726,0-36.098,0-41.822,0c-0.019,0-0.034,0.001-0.048,0.007l-5.346,2.154c-0.059,0.023-0.075,0.058-0.043,0.088
				C39.481,71.322,39.553,71.342,39.635,71.342z"/>
			<path fill-rule="evenodd" clip-rule="evenodd" fill="#6F7E8E" d="M39.672,71.338c9.206,0,43.064,0,52.27,0
				c0.082,0,0.153-0.019,0.186-0.048s0.014-0.064-0.043-0.088l-5.335-2.148c-0.015-0.005-0.028-0.007-0.047-0.007
				c-5.713,0-36.077,0-41.789,0c-0.019,0-0.034,0.002-0.047,0.007l-5.335,2.148c-0.059,0.023-0.075,0.058-0.043,0.088
				C39.52,71.318,39.59,71.338,39.672,71.338z"/>
			<path fill-rule="evenodd" clip-rule="evenodd" fill="#697889" d="M39.709,71.336c9.186,0,43.028,0,52.214,0
				c0.082,0,0.152-0.019,0.185-0.049c0.032-0.029,0.014-0.064-0.043-0.088l-5.323-2.143c-0.015-0.005-0.028-0.006-0.047-0.006
				c-5.7,0-36.056,0-41.756,0c-0.019,0-0.034,0.001-0.047,0.006l-5.323,2.143c-0.059,0.023-0.075,0.058-0.043,0.088
				C39.557,71.316,39.627,71.336,39.709,71.336z"/>
			<path fill-rule="evenodd" clip-rule="evenodd" fill="#637283" d="M39.746,71.332c9.166,0,42.992,0,52.158,0
				c0.081,0,0.151-0.018,0.184-0.048c0.031-0.029,0.014-0.064-0.042-0.088l-5.312-2.136c-0.015-0.006-0.028-0.008-0.046-0.008
				c-5.688,0-36.036,0-41.723,0c-0.018,0-0.034,0.002-0.047,0.008l-5.312,2.136c-0.059,0.023-0.074,0.058-0.043,0.088
				C39.594,71.313,39.664,71.332,39.746,71.332z"/>
			<path fill-rule="evenodd" clip-rule="evenodd" fill="#5D6C7E" d="M39.783,71.329c9.146,0,42.956,0,52.102,0
				c0.081,0,0.151-0.019,0.184-0.048c0.031-0.029,0.014-0.064-0.042-0.088l-5.301-2.13c-0.015-0.006-0.028-0.008-0.046-0.008
				c-5.676,0-36.015,0-41.69,0c-0.018,0-0.034,0.002-0.047,0.008l-5.3,2.13c-0.058,0.023-0.074,0.059-0.042,0.088
				S39.702,71.329,39.783,71.329z"/>
			<path fill-rule="evenodd" clip-rule="evenodd" fill="#586678" d="M39.82,71.326c9.125,0,42.92,0,52.045,0
				c0.082,0,0.152-0.019,0.184-0.048c0.032-0.029,0.014-0.063-0.042-0.087l-5.289-2.125c-0.015-0.006-0.028-0.008-0.046-0.008
				c-5.663,0-35.994,0-41.657,0c-0.018,0-0.034,0.002-0.046,0.008l-5.289,2.125c-0.058,0.023-0.074,0.057-0.042,0.087
				C39.669,71.307,39.739,71.326,39.82,71.326z"/>
			<path fill-rule="evenodd" clip-rule="evenodd" fill="#526073" d="M39.857,71.323c9.105,0,42.884,0,51.989,0
				c0.081,0,0.15-0.019,0.183-0.048c0.031-0.028,0.014-0.063-0.042-0.086l-5.277-2.12c-0.015-0.006-0.028-0.007-0.046-0.007
				c-5.65,0-35.973,0-41.624,0c-0.018,0-0.034,0.001-0.046,0.007l-5.276,2.12c-0.058,0.022-0.074,0.057-0.042,0.086
				C39.706,71.304,39.776,71.323,39.857,71.323z"/>
			<path fill-rule="evenodd" clip-rule="evenodd" fill="#4C5A6D" d="M39.895,71.32c9.085,0,42.848,0,51.933,0
				c0.081,0,0.15-0.02,0.182-0.048c0.032-0.029,0.015-0.063-0.041-0.086l-5.266-2.114c-0.015-0.006-0.028-0.008-0.046-0.008
				c-5.638,0-35.952,0-41.59,0c-0.018,0-0.034,0.002-0.046,0.008l-5.265,2.114c-0.058,0.022-0.074,0.057-0.042,0.086
				C39.744,71.301,39.813,71.32,39.895,71.32z"/>
			<path fill-rule="evenodd" clip-rule="evenodd" fill="#465468" d="M39.932,71.317c9.064,0,42.812,0,51.877,0
				c0.08,0,0.15-0.019,0.181-0.048c0.032-0.03,0.015-0.063-0.04-0.086l-5.255-2.107c-0.015-0.006-0.028-0.008-0.046-0.008
				c-5.625,0-35.932,0-41.557,0c-0.018,0-0.034,0.002-0.046,0.008l-5.253,2.107c-0.058,0.022-0.073,0.057-0.042,0.086
				S39.851,71.317,39.932,71.317z"/>
			<path fill-rule="evenodd" clip-rule="evenodd" fill="#404E62" d="M39.968,71.314c9.045,0,42.776,0,51.821,0
				c0.081,0,0.15-0.019,0.182-0.048c0.032-0.029,0.015-0.063-0.041-0.086l-5.243-2.102c-0.014-0.007-0.028-0.008-0.046-0.008
				c-5.612,0-35.911,0-41.523,0c-0.018,0-0.034,0.001-0.046,0.008l-5.242,2.102c-0.058,0.022-0.073,0.056-0.042,0.086
				C39.818,71.295,39.888,71.314,39.968,71.314z"/>
			<path fill-rule="evenodd" clip-rule="evenodd" fill="#3A485D" d="M40.005,71.311c9.025,0,42.74,0,51.765,0
				c0.081,0,0.15-0.019,0.181-0.047c0.032-0.029,0.016-0.063-0.04-0.086l-5.231-2.096c-0.014-0.006-0.027-0.008-0.045-0.008
				c-5.601,0-35.891,0-41.491,0c-0.018,0-0.034,0.002-0.046,0.008l-5.23,2.096c-0.058,0.022-0.073,0.057-0.042,0.086
				C39.855,71.292,39.925,71.311,40.005,71.311z"/>
			<path fill-rule="evenodd" clip-rule="evenodd" fill="#354257" d="M40.042,71.308c9.005,0,42.704,0,51.709,0
				c0.08,0,0.149-0.019,0.18-0.047c0.032-0.029,0.016-0.062-0.04-0.086l-5.22-2.09c-0.014-0.006-0.027-0.008-0.045-0.008
				c-5.588,0-35.869,0-41.457,0c-0.018,0-0.034,0.002-0.046,0.008l-5.218,2.09c-0.058,0.023-0.073,0.057-0.042,0.086
				C39.893,71.289,39.962,71.308,40.042,71.308z"/>
			<path fill-rule="evenodd" clip-rule="evenodd" fill="#2F3C52" d="M40.079,71.305c8.985,0,42.668,0,51.653,0
				c0.079,0,0.148-0.019,0.179-0.047c0.032-0.029,0.016-0.062-0.04-0.085l-5.208-2.085c-0.014-0.006-0.027-0.008-0.045-0.008
				c-5.575,0-35.849,0-41.424,0c-0.018,0-0.034,0.002-0.045,0.008l-5.207,2.085c-0.058,0.022-0.073,0.056-0.042,0.085
				C39.93,71.286,39.999,71.305,40.079,71.305z"/>
			<path fill-rule="evenodd" clip-rule="evenodd" fill="#29364C" d="M40.116,71.302c8.964,0,42.632,0,51.597,0
				c0.08,0,0.148-0.019,0.179-0.047c0.032-0.029,0.016-0.062-0.04-0.085l-5.196-2.079c-0.014-0.006-0.027-0.008-0.045-0.008
				c-5.562,0-35.828,0-41.391,0c-0.017,0-0.034,0.002-0.045,0.008l-5.195,2.079c-0.057,0.022-0.073,0.056-0.042,0.085
				C39.968,71.283,40.037,71.302,40.116,71.302z"/>
		</g>
		<linearGradient id="SVGID_1_" gradientUnits="userSpaceOnUse" x1="84.085" y1="33.9414" x2="76.5341" y2="34.735">
			<stop  offset="0" style="stop-color:#C9CBCF"/>
			<stop  offset="0.5" style="stop-color:#A9A8AB"/>
			<stop  offset="1" style="stop-color:#767879"/>
		</linearGradient>
		<path fill-rule="evenodd" clip-rule="evenodd" fill="url(#SVGID_1_)" d="M77.553,33.369h12.61
			c0.154,0.003,0.261,0.034,0.381,0.101l1.587,0.885c-0.132-0.071-0.24-0.104-0.405-0.107H77.553V33.369z"/>
		<linearGradient id="SVGID_2_" gradientUnits="userSpaceOnUse" x1="42.645" y1="32.4404" x2="39.7681" y2="31.3933">
			<stop  offset="0" style="stop-color:#C9CBCF"/>
			<stop  offset="1" style="stop-color:#FFFFFF"/>
		</linearGradient>
		<path fill-rule="evenodd" clip-rule="evenodd" fill="url(#SVGID_2_)" d="M39.259,34.354l1.683-0.932
			c0.09-0.036,0.184-0.052,0.285-0.054h12.611v0.879H39.666C39.5,34.251,39.39,34.283,39.259,34.354z"/>
		<path fill-rule="evenodd" clip-rule="evenodd" fill="#C9CBCF" d="M39.666,34.207h52.06c0.35,0,0.638,0.29,0.638,0.646v35.73
			c0,0.355-0.288,0.647-0.638,0.647h-52.06c-0.352,0-0.64-0.292-0.64-0.647v-35.73C39.026,34.497,39.314,34.207,39.666,34.207z"/>
		<path fill-rule="evenodd" clip-rule="evenodd" fill="#C9CBCF" d="M57.248,46.712h16.893c0.114,0,0.208,0.095,0.208,0.208v11.593
			c0,0.116-0.094,0.211-0.208,0.211H57.248c-0.113,0-0.207-0.095-0.207-0.211V46.92C57.041,46.807,57.135,46.712,57.248,46.712z"/>
		<path fill-rule="evenodd" clip-rule="evenodd" fill="#FFFFFF" d="M39.666,34.207h52.06c0.35,0,0.638,0.29,0.638,0.646v0.133
			c0-0.355-0.288-0.645-0.638-0.645h-52.06c-0.352,0-0.64,0.29-0.64,0.645v-0.133C39.026,34.497,39.314,34.207,39.666,34.207z"/>
		<circle fill-rule="evenodd" clip-rule="evenodd" fill="#3B3D3C" cx="65.694" cy="51.982" r="1.486"/>
		<path fill-rule="evenodd" clip-rule="evenodd" fill="#3B3D3C" d="M65.694,60.595c0.82,0,1.486-0.668,1.486-1.487
			c0-0.818-0.666-1.486-1.486-1.486c-0.818,0-1.486,0.668-1.486,1.486C64.208,59.927,64.876,60.595,65.694,60.595z"/>
		<path fill-rule="evenodd" clip-rule="evenodd" fill="#FFFFFF" d="M44.41,42.993h16.295c0.438,0,0.798,0.36,0.798,0.799v24.335
			c0,0.438-0.359,0.799-0.798,0.799H44.41c-0.439,0-0.798-0.36-0.798-0.799V43.792C43.612,43.353,43.971,42.993,44.41,42.993z"/>
		<path fill-rule="evenodd" clip-rule="evenodd" d="M44.41,42.86h16.295c0.438,0,0.798,0.359,0.798,0.799v24.335
			c0,0.438-0.359,0.799-0.798,0.799H44.41c-0.439,0-0.798-0.36-0.798-0.799V43.659C43.612,43.219,43.971,42.86,44.41,42.86z"/>
		<linearGradient id="SVGID_3_" gradientUnits="userSpaceOnUse" x1="52.5576" y1="55.7236" x2="52.5576" y2="43.077">
			<stop  offset="0" style="stop-color:#000000"/>
			<stop  offset="0.07" style="stop-color:#313333"/>
			<stop  offset="1" style="stop-color:#3F4040"/>
		</linearGradient>
		<path fill-rule="evenodd" clip-rule="evenodd" fill="url(#SVGID_3_)" d="M44.648,43.237h15.821c0.426,0,0.774,0.349,0.774,0.776
			v11.839H43.872V44.013C43.872,43.586,44.221,43.237,44.648,43.237z"/>
		<path fill-rule="evenodd" clip-rule="evenodd" fill="#636364" d="M44.648,43.237h15.821c0.426,0,0.774,0.349,0.774,0.776v0.177
			c0-0.426-0.349-0.775-0.774-0.775H44.648c-0.427,0-0.776,0.349-0.776,0.775v-0.177C43.872,43.586,44.221,43.237,44.648,43.237z"/>
		<linearGradient id="SVGID_4_" gradientUnits="userSpaceOnUse" x1="52.5576" y1="55.8105" x2="52.5576" y2="68.6377">
			<stop  offset="0" style="stop-color:#171F1F"/>
			<stop  offset="0.04" style="stop-color:#313333"/>
			<stop  offset="0.08" style="stop-color:#4A4A4A"/>
			<stop  offset="0.14" style="stop-color:#484847"/>
			<stop  offset="0.19" style="stop-color:#3B3D3C"/>
			<stop  offset="1" style="stop-color:#464747"/>
		</linearGradient>
		<path fill-rule="evenodd" clip-rule="evenodd" fill="url(#SVGID_4_)" d="M44.648,68.468h15.821c0.426,0,0.774-0.35,0.774-0.775
			v-11.84H43.872v11.84C43.872,68.118,44.221,68.468,44.648,68.468z"/>
		<linearGradient id="SVGID_5_" gradientUnits="userSpaceOnUse" x1="52.5576" y1="55.8525" x2="52.5576" y2="66.4304">
			<stop  offset="0" style="stop-color:#7F8182"/>
			<stop  offset="0.07" style="stop-color:#D8D7D7"/>
			<stop  offset="0.1" style="stop-color:#ECECEC"/>
			<stop  offset="1" style="stop-color:#D8D7D7"/>
		</linearGradient>
		<path fill="url(#SVGID_5_)" d="M59.521,62.454v3.691H45.594c0.154-1.395,0.603-2.717,1.361-3.968
			c0.752-1.25,2.244-2.904,4.463-4.971c0.54-0.499,1.015-0.95,1.428-1.354h5.008c-0.134,0.187-0.274,0.374-0.423,0.563
			c-0.482,0.614-1.351,1.496-2.601,2.645c-1.256,1.149-2.052,1.917-2.384,2.293c-0.333,0.376-0.608,0.742-0.816,1.101H59.521z"/>
		<linearGradient id="SVGID_6_" gradientUnits="userSpaceOnUse" x1="52.7915" y1="55.8525" x2="52.7915" y2="45.2508">
			<stop  offset="0" style="stop-color:#7F8182"/>
			<stop  offset="0.09" style="stop-color:#D8D7D7"/>
			<stop  offset="0.15" style="stop-color:#ECECEC"/>
			<stop  offset="1" style="stop-color:#D8D7D7"/>
		</linearGradient>
		<path fill="url(#SVGID_6_)" d="M52.846,55.853c0.962-0.942,1.585-1.622,1.869-2.037c0.545-0.82,0.82-1.631,0.82-2.433
			c0-0.882-0.237-1.563-0.714-2.041c-0.479-0.479-1.134-0.714-1.973-0.714c-0.831,0-1.487,0.251-1.979,0.746
			c-0.487,0.504-0.772,1.332-0.849,2.491l-3.958-0.396c0.236-2.186,0.975-3.754,2.22-4.709c1.245-0.951,2.799-1.429,4.666-1.429
			c2.046,0,3.653,0.554,4.821,1.655c1.169,1.106,1.752,2.476,1.752,4.117c0,0.932-0.168,1.818-0.502,2.664
			c-0.263,0.671-0.653,1.367-1.165,2.085H52.846z"/>
		<rect x="43.901" y="55.718" fill-rule="evenodd" clip-rule="evenodd" width="17.343" height="0.182"/>
		<rect x="43.872" y="55.853" fill-rule="evenodd" clip-rule="evenodd" fill="#4A4A4A" width="17.371" height="0.134"/>
		<path fill-rule="evenodd" clip-rule="evenodd" fill="#636364" d="M44.648,68.468h15.821c0.426,0,0.774-0.35,0.774-0.775v-0.176
			c0,0.426-0.349,0.773-0.774,0.773H44.648c-0.427,0-0.776-0.348-0.776-0.773v0.176C43.872,68.118,44.221,68.468,44.648,68.468z"/>
		<path fill-rule="evenodd" clip-rule="evenodd" fill="#FFFFFF" d="M70.686,42.993h16.294c0.439,0,0.8,0.36,0.8,0.799v24.335
			c0,0.438-0.36,0.799-0.8,0.799H70.686c-0.439,0-0.799-0.36-0.799-0.799V43.792C69.887,43.353,70.246,42.993,70.686,42.993z"/>
		<path fill-rule="evenodd" clip-rule="evenodd" d="M70.686,42.86h16.294c0.439,0,0.8,0.359,0.8,0.799v24.335
			c0,0.438-0.36,0.799-0.8,0.799H70.686c-0.439,0-0.799-0.36-0.799-0.799V43.659C69.887,43.219,70.246,42.86,70.686,42.86z"/>
		<linearGradient id="SVGID_7_" gradientUnits="userSpaceOnUse" x1="78.833" y1="55.7236" x2="78.833" y2="43.077">
			<stop  offset="0" style="stop-color:#000000"/>
			<stop  offset="0.07" style="stop-color:#313333"/>
			<stop  offset="1" style="stop-color:#3F4040"/>
		</linearGradient>
		<path fill-rule="evenodd" clip-rule="evenodd" fill="url(#SVGID_7_)" d="M70.923,43.237h15.82c0.426,0,0.775,0.349,0.775,0.776
			v11.839H70.147V44.013C70.147,43.586,70.496,43.237,70.923,43.237z"/>
		<path fill-rule="evenodd" clip-rule="evenodd" fill="#636364" d="M70.923,43.237h15.82c0.426,0,0.775,0.349,0.775,0.776v0.177
			c0-0.426-0.35-0.775-0.775-0.775h-15.82c-0.427,0-0.775,0.349-0.775,0.775v-0.177C70.147,43.586,70.496,43.237,70.923,43.237z"/>
		<linearGradient id="SVGID_8_" gradientUnits="userSpaceOnUse" x1="78.833" y1="55.8105" x2="78.833" y2="68.6377">
			<stop  offset="0" style="stop-color:#171F1F"/>
			<stop  offset="0.04" style="stop-color:#313333"/>
			<stop  offset="0.08" style="stop-color:#4A4A4A"/>
			<stop  offset="0.14" style="stop-color:#484847"/>
			<stop  offset="0.19" style="stop-color:#3B3D3C"/>
			<stop  offset="1" style="stop-color:#464747"/>
		</linearGradient>
		<path fill-rule="evenodd" clip-rule="evenodd" fill="url(#SVGID_8_)" d="M70.923,68.468h15.82c0.426,0,0.775-0.35,0.775-0.775
			v-11.84H70.147v11.84C70.147,68.118,70.496,68.468,70.923,68.468z"/>
		<linearGradient id="SVGID_9_" gradientUnits="userSpaceOnUse" x1="81.6328" y1="55.8525" x2="81.6328" y2="66.4304">
			<stop  offset="0" style="stop-color:#7F8182"/>
			<stop  offset="0.07" style="stop-color:#D8D7D7"/>
			<stop  offset="0.1" style="stop-color:#ECECEC"/>
			<stop  offset="1" style="stop-color:#D8D7D7"/>
		</linearGradient>
		<rect x="79.646" y="55.853" fill="url(#SVGID_9_)" width="3.974" height="10.293"/>
		<linearGradient id="SVGID_10_" gradientUnits="userSpaceOnUse" x1="79.0684" y1="55.8525" x2="79.0684" y2="45.2508">
			<stop  offset="0" style="stop-color:#7F8182"/>
			<stop  offset="0.09" style="stop-color:#D8D7D7"/>
			<stop  offset="0.15" style="stop-color:#ECECEC"/>
			<stop  offset="1" style="stop-color:#D8D7D7"/>
		</linearGradient>
		<path fill="url(#SVGID_10_)" d="M79.646,55.853v-4.682c-1.452,1.361-3.16,2.363-5.129,3.01v-3.604
			c1.033-0.337,2.162-0.979,3.377-1.927c1.217-0.95,2.053-2.055,2.501-3.319h3.225v10.521H79.646z"/>
		<rect x="70.177" y="55.718" fill-rule="evenodd" clip-rule="evenodd" width="17.345" height="0.182"/>
		<rect x="70.147" y="55.853" fill-rule="evenodd" clip-rule="evenodd" fill="#4A4A4A" width="17.371" height="0.134"/>
		<path fill-rule="evenodd" clip-rule="evenodd" fill="#636364" d="M70.923,68.468h15.82c0.426,0,0.775-0.35,0.775-0.775v-0.176
			c0,0.426-0.35,0.773-0.775,0.773h-15.82c-0.427,0-0.775-0.348-0.775-0.773v0.176C70.147,68.118,70.496,68.468,70.923,68.468z"/>
		<path fill-rule="evenodd" clip-rule="evenodd" d="M44.41,36.18h16.295c0.438,0,0.798,0.36,0.798,0.799v2.894
			c0,0.439-0.359,0.799-0.798,0.799H44.41c-0.438,0-0.798-0.36-0.798-0.799v-2.894C43.612,36.54,43.971,36.18,44.41,36.18z"/>
		<path fill-rule="evenodd" clip-rule="evenodd" d="M70.686,36.18h16.294c0.439,0,0.8,0.36,0.8,0.799v2.894
			c0,0.439-0.36,0.799-0.8,0.799H70.686c-0.439,0-0.799-0.36-0.799-0.799v-2.894C69.887,36.54,70.246,36.18,70.686,36.18z"/>
		<linearGradient id="SVGID_11_" gradientUnits="userSpaceOnUse" x1="52.5576" y1="40.6724" x2="52.5576" y2="36.2905">
			<stop  offset="0" style="stop-color:#000000"/>
			<stop  offset="0.07" style="stop-color:#313333"/>
			<stop  offset="1" style="stop-color:#3F4040"/>
		</linearGradient>
		<path fill-rule="evenodd" clip-rule="evenodd" fill="url(#SVGID_11_)" d="M44.648,36.342h15.821c0.426,0,0.774,0.349,0.774,0.776
			c0,0.853,0,1.706,0,2.559c0,0.426-0.349,0.775-0.774,0.775H44.648c-0.427,0-0.776-0.349-0.776-0.775c0-0.853,0-1.706,0-2.559
			C43.872,36.691,44.221,36.342,44.648,36.342z"/>
		<path fill-rule="evenodd" clip-rule="evenodd" fill="#636364" d="M44.648,36.342h15.821c0.426,0,0.774,0.349,0.774,0.776v0.1
			c0-0.426-0.349-0.775-0.774-0.775H44.648c-0.427,0-0.776,0.349-0.776,0.775v-0.1C43.872,36.691,44.221,36.342,44.648,36.342z"/>
		<linearGradient id="SVGID_12_" gradientUnits="userSpaceOnUse" x1="78.833" y1="40.6724" x2="78.833" y2="36.2905">
			<stop  offset="0" style="stop-color:#000000"/>
			<stop  offset="0.07" style="stop-color:#313333"/>
			<stop  offset="1" style="stop-color:#3F4040"/>
		</linearGradient>
		<path fill-rule="evenodd" clip-rule="evenodd" fill="url(#SVGID_12_)" d="M70.923,36.342h15.82c0.426,0,0.775,0.349,0.775,0.776
			c0,0.853,0,1.706,0,2.559c0,0.426-0.35,0.775-0.775,0.775h-15.82c-0.427,0-0.775-0.349-0.775-0.775c0-0.853,0-1.706,0-2.559
			C70.147,36.691,70.496,36.342,70.923,36.342z"/>
		<path fill-rule="evenodd" clip-rule="evenodd" fill="#636364" d="M70.923,36.342h15.82c0.426,0,0.775,0.349,0.775,0.776v0.1
			c0-0.426-0.35-0.775-0.775-0.775h-15.82c-0.427,0-0.775,0.349-0.775,0.775v-0.1C70.147,36.691,70.496,36.342,70.923,36.342z"/>
		<linearGradient id="SVGID_13_" gradientUnits="userSpaceOnUse" x1="78.833" y1="40.0454" x2="78.833" y2="36.7815">
			<stop  offset="0" style="stop-color:#7F8182"/>
			<stop  offset="0.09" style="stop-color:#D8D7D7"/>
			<stop  offset="0.15" style="stop-color:#ECECEC"/>
			<stop  offset="1" style="stop-color:#D8D7D7"/>
		</linearGradient>
		<path fill="url(#SVGID_13_)" d="M71.949,39.995l-1.14-3.188h0.698l0.806,2.359l0.781-2.359h0.684l-1.142,3.188H71.949
			L71.949,39.995z M74.021,37.371v-0.564h0.611v0.564H74.021L74.021,37.371z M74.021,39.995v-2.31h0.611v2.31H74.021L74.021,39.995z
			 M75.045,39.335l0.614-0.094c0.025,0.119,0.078,0.21,0.158,0.271c0.079,0.062,0.191,0.094,0.335,0.094
			c0.157,0,0.276-0.03,0.355-0.088c0.055-0.041,0.081-0.095,0.081-0.163c0-0.047-0.014-0.085-0.043-0.116
			c-0.031-0.029-0.1-0.055-0.205-0.08c-0.491-0.108-0.806-0.208-0.938-0.297c-0.183-0.125-0.273-0.299-0.273-0.521
			c0-0.199,0.078-0.368,0.236-0.503c0.159-0.137,0.403-0.205,0.736-0.205c0.316,0,0.551,0.052,0.704,0.154
			c0.153,0.104,0.26,0.256,0.316,0.458l-0.576,0.106c-0.024-0.09-0.071-0.159-0.14-0.206c-0.068-0.049-0.167-0.073-0.295-0.073
			c-0.16,0-0.275,0.022-0.345,0.068c-0.047,0.032-0.069,0.073-0.069,0.124c0,0.044,0.021,0.081,0.061,0.111
			c0.055,0.041,0.245,0.099,0.57,0.172c0.326,0.073,0.553,0.164,0.682,0.271c0.129,0.109,0.192,0.261,0.192,0.455
			c0,0.212-0.089,0.394-0.267,0.546c-0.177,0.152-0.438,0.227-0.784,0.227c-0.314,0-0.563-0.063-0.748-0.191
			C75.221,39.728,75.101,39.554,75.045,39.335L75.045,39.335z M77.737,37.371v-0.564h0.611v0.564H77.737L77.737,37.371z
			 M77.737,39.995v-2.31h0.611v2.31H77.737L77.737,39.995z M80.034,37.685v0.486h-0.418v0.931c0,0.189,0.005,0.299,0.014,0.33
			c0.007,0.032,0.025,0.057,0.053,0.078c0.029,0.02,0.064,0.031,0.104,0.031c0.057,0,0.139-0.02,0.247-0.059l0.052,0.474
			c-0.142,0.061-0.304,0.09-0.482,0.09c-0.111,0-0.211-0.018-0.299-0.054c-0.088-0.037-0.153-0.085-0.194-0.144
			c-0.041-0.059-0.07-0.138-0.086-0.239c-0.014-0.071-0.02-0.215-0.02-0.43v-1.008h-0.28v-0.486h0.28v-0.459l0.612-0.358v0.817
			H80.034L80.034,37.685z M80.317,38.806c0-0.202,0.052-0.399,0.15-0.589c0.1-0.19,0.241-0.335,0.425-0.435
			c0.185-0.1,0.389-0.15,0.615-0.15c0.348,0,0.635,0.114,0.857,0.341c0.225,0.227,0.337,0.514,0.337,0.86
			c0,0.349-0.115,0.638-0.34,0.869c-0.225,0.23-0.509,0.343-0.85,0.343c-0.214,0-0.414-0.046-0.606-0.143
			c-0.192-0.096-0.339-0.235-0.438-0.421C80.369,39.297,80.317,39.072,80.317,38.806L80.317,38.806z M80.944,38.838
			c0,0.229,0.054,0.405,0.162,0.527c0.109,0.122,0.244,0.183,0.403,0.183s0.294-0.061,0.4-0.183c0.109-0.122,0.163-0.299,0.163-0.53
			c0-0.227-0.054-0.401-0.163-0.522c-0.106-0.122-0.241-0.183-0.4-0.183s-0.294,0.061-0.403,0.183
			C80.998,38.435,80.944,38.61,80.944,38.838L80.944,38.838z M83.766,39.995h-0.61v-2.31h0.566v0.329
			c0.097-0.156,0.185-0.258,0.263-0.307c0.077-0.049,0.165-0.074,0.264-0.074c0.14,0,0.272,0.038,0.402,0.116l-0.188,0.532
			c-0.103-0.066-0.199-0.099-0.288-0.099c-0.086,0-0.158,0.023-0.217,0.07c-0.061,0.047-0.106,0.132-0.142,0.256
			c-0.032,0.123-0.05,0.381-0.05,0.773V39.995L83.766,39.995z M84.699,39.335l0.612-0.094c0.026,0.119,0.079,0.21,0.16,0.271
			c0.079,0.062,0.19,0.094,0.334,0.094c0.158,0,0.275-0.03,0.356-0.088c0.055-0.041,0.082-0.095,0.082-0.163
			c0-0.047-0.018-0.085-0.045-0.116c-0.03-0.029-0.099-0.055-0.205-0.08c-0.493-0.108-0.806-0.208-0.937-0.297
			c-0.183-0.125-0.275-0.299-0.275-0.521c0-0.199,0.079-0.368,0.238-0.503c0.158-0.137,0.402-0.205,0.735-0.205
			c0.314,0,0.551,0.052,0.705,0.154c0.151,0.104,0.258,0.256,0.317,0.458l-0.576,0.106c-0.024-0.09-0.071-0.159-0.142-0.206
			c-0.069-0.049-0.166-0.073-0.294-0.073c-0.161,0-0.276,0.022-0.347,0.068c-0.046,0.032-0.068,0.073-0.068,0.124
			c0,0.044,0.021,0.081,0.062,0.111c0.054,0.041,0.243,0.099,0.57,0.172c0.325,0.073,0.553,0.164,0.682,0.271
			c0.127,0.109,0.191,0.261,0.191,0.455c0,0.212-0.089,0.394-0.267,0.546c-0.176,0.152-0.438,0.227-0.784,0.227
			c-0.314,0-0.563-0.063-0.748-0.191C84.875,39.728,84.754,39.554,84.699,39.335z"/>
		<linearGradient id="SVGID_14_" gradientUnits="userSpaceOnUse" x1="52.5571" y1="40.0454" x2="52.5571" y2="36.7815">
			<stop  offset="0" style="stop-color:#7F8182"/>
			<stop  offset="0.09" style="stop-color:#D8D7D7"/>
			<stop  offset="0.15" style="stop-color:#ECECEC"/>
			<stop  offset="1" style="stop-color:#D8D7D7"/>
		</linearGradient>
		<path fill="url(#SVGID_14_)" d="M46.621,39.995v-3.188h0.644v1.254h1.262v-1.254h0.645v3.188h-0.645V38.6h-1.262v1.395H46.621
			L46.621,39.995z M49.69,38.806c0-0.202,0.051-0.399,0.15-0.589c0.1-0.19,0.242-0.335,0.425-0.435c0.183-0.1,0.388-0.15,0.615-0.15
			c0.35,0,0.636,0.114,0.859,0.341c0.225,0.227,0.335,0.514,0.335,0.86c0,0.349-0.113,0.638-0.338,0.869
			c-0.226,0.23-0.51,0.343-0.852,0.343c-0.212,0-0.413-0.046-0.605-0.143c-0.192-0.096-0.339-0.235-0.438-0.421
			C49.741,39.297,49.69,39.072,49.69,38.806L49.69,38.806z M50.317,38.838c0,0.229,0.054,0.405,0.163,0.527
			c0.109,0.122,0.243,0.183,0.402,0.183c0.16,0,0.293-0.061,0.401-0.183c0.108-0.122,0.163-0.299,0.163-0.53
			c0-0.227-0.054-0.401-0.163-0.522c-0.108-0.122-0.241-0.183-0.401-0.183c-0.159,0-0.293,0.061-0.402,0.183
			C50.371,38.435,50.317,38.61,50.317,38.838L50.317,38.838z M52.508,37.685h0.563v0.314c0.201-0.245,0.442-0.367,0.72-0.367
			c0.147,0,0.276,0.03,0.384,0.091c0.11,0.062,0.2,0.154,0.269,0.276c0.101-0.123,0.21-0.215,0.328-0.276
			c0.118-0.061,0.243-0.091,0.377-0.091c0.169,0,0.313,0.035,0.43,0.104c0.118,0.067,0.205,0.17,0.263,0.302
			c0.042,0.099,0.063,0.259,0.063,0.479v1.477h-0.611v-1.32c0-0.23-0.021-0.377-0.064-0.445c-0.056-0.085-0.143-0.13-0.26-0.13
			c-0.086,0-0.166,0.026-0.242,0.078c-0.075,0.052-0.128,0.128-0.163,0.23c-0.033,0.101-0.05,0.259-0.05,0.477v1.11h-0.611v-1.267
			c0-0.225-0.011-0.37-0.032-0.435c-0.022-0.065-0.056-0.114-0.102-0.146c-0.045-0.032-0.108-0.048-0.186-0.048
			c-0.094,0-0.18,0.025-0.255,0.076c-0.075,0.051-0.129,0.124-0.161,0.22c-0.033,0.096-0.049,0.253-0.049,0.476v1.123h-0.611V37.685
			L52.508,37.685z M57.852,39.259l0.61,0.103c-0.08,0.223-0.202,0.393-0.372,0.51c-0.169,0.117-0.38,0.174-0.635,0.174
			c-0.4,0-0.698-0.13-0.891-0.393c-0.152-0.21-0.229-0.477-0.229-0.796c0-0.384,0.1-0.683,0.301-0.9
			c0.199-0.217,0.453-0.325,0.758-0.325c0.344,0,0.616,0.114,0.814,0.341c0.199,0.227,0.293,0.575,0.285,1.043h-1.532
			c0.006,0.182,0.055,0.322,0.148,0.423c0.095,0.101,0.212,0.151,0.353,0.151c0.097,0,0.177-0.026,0.242-0.078
			C57.769,39.459,57.819,39.375,57.852,39.259L57.852,39.259z M57.887,38.642c-0.004-0.178-0.05-0.312-0.137-0.404
			c-0.086-0.092-0.192-0.138-0.317-0.138c-0.133,0-0.245,0.048-0.331,0.146c-0.087,0.096-0.13,0.229-0.13,0.396H57.887z"/>
		<linearGradient id="SVGID_15_" gradientUnits="userSpaceOnUse" x1="65.6953" y1="22.9507" x2="65.6953" y2="26.0749">
			<stop  offset="0" style="stop-color:#C9CBCF"/>
			<stop  offset="1" style="stop-color:#FFFFFF"/>
		</linearGradient>
		<path fill-rule="evenodd" clip-rule="evenodd" fill="url(#SVGID_15_)" d="M53.941,24.711l0.748-0.538
			c0.041-0.021,0.081-0.03,0.127-0.031h21.759c0.067,0.001,0.114,0.019,0.169,0.058l0.706,0.511
			c-0.061-0.042-0.107-0.061-0.182-0.062H54.122C54.048,24.651,54,24.67,53.941,24.711z"/>
		<path fill-rule="evenodd" clip-rule="evenodd" fill="#C9CBCF" d="M54.122,24.646h23.147c0.157,0,0.284,0.129,0.284,0.287v10.166
			c0,0.158-0.127,0.288-0.284,0.288H54.122c-0.156,0-0.283-0.129-0.283-0.288V24.933C53.838,24.775,53.965,24.646,54.122,24.646z"/>
		<path fill-rule="evenodd" clip-rule="evenodd" fill="#FFFFFF" d="M55.272,25.517h20.832c0.109,0,0.2,0.09,0.2,0.201v7.512
			c0,0.109-0.091,0.201-0.2,0.201H55.272c-0.11,0-0.201-0.092-0.201-0.201v-7.512C55.072,25.607,55.162,25.517,55.272,25.517z"/>
		<path fill-rule="evenodd" clip-rule="evenodd" d="M55.272,25.384h20.832c0.109,0,0.2,0.091,0.2,0.202v7.512
			c0,0.11-0.091,0.2-0.2,0.2H55.272c-0.11,0-0.201-0.09-0.201-0.2v-7.512C55.072,25.474,55.162,25.384,55.272,25.384z"/>
		<radialGradient id="SVGID_16_" cx="58.4756" cy="29.3896" r="2.6235" gradientUnits="userSpaceOnUse">
			<stop  offset="0" style="stop-color:#176C3F"/>
			<stop  offset="1" style="stop-color:#000000"/>
		</radialGradient>
		<path fill-rule="evenodd" clip-rule="evenodd" fill="url(#SVGID_16_)" d="M58.476,31.547c1.188,0,2.156-0.97,2.156-2.157
			c0-1.188-0.969-2.157-2.156-2.157s-2.157,0.969-2.157,2.157C56.319,30.577,57.289,31.547,58.476,31.547z"/>
		<radialGradient id="SVGID_17_" cx="69.3184" cy="29.3896" r="2.6232" gradientUnits="userSpaceOnUse">
			<stop  offset="0" style="stop-color:#176C3F"/>
			<stop  offset="1" style="stop-color:#000000"/>
		</radialGradient>
		<path fill-rule="evenodd" clip-rule="evenodd" fill="url(#SVGID_17_)" d="M69.317,31.547c1.188,0,2.157-0.97,2.157-2.157
			c0-1.188-0.969-2.157-2.157-2.157c-1.187,0-2.156,0.969-2.156,2.157C67.161,30.577,68.131,31.547,69.317,31.547z"/>
		<radialGradient id="SVGID_18_" cx="62.8896" cy="29.3896" r="2.6232" gradientUnits="userSpaceOnUse">
			<stop  offset="0" style="stop-color:#176C3F"/>
			<stop  offset="1" style="stop-color:#000000"/>
		</radialGradient>
		<path fill-rule="evenodd" clip-rule="evenodd" fill="url(#SVGID_18_)" d="M62.89,31.547c1.188,0,2.156-0.97,2.156-2.157
			c0-1.188-0.968-2.157-2.156-2.157c-1.188,0-2.157,0.969-2.157,2.157C60.733,30.577,61.702,31.547,62.89,31.547z"/>
		<radialGradient id="SVGID_19_" cx="66.0649" cy="28.4565" r="1.4792" gradientUnits="userSpaceOnUse">
			<stop  offset="0" style="stop-color:#176C3F"/>
			<stop  offset="0.1525" style="stop-color:#135A34"/>
			<stop  offset="0.7282" style="stop-color:#05190F"/>
			<stop  offset="1" style="stop-color:#000000"/>
		</radialGradient>
		<path fill-rule="evenodd" clip-rule="evenodd" fill="url(#SVGID_19_)" d="M66.065,29.673c0.668,0,1.216-0.547,1.216-1.217
			s-0.548-1.215-1.216-1.215c-0.671,0-1.217,0.545-1.217,1.215S65.395,29.673,66.065,29.673z"/>
		<radialGradient id="SVGID_20_" cx="66.0649" cy="31.0781" r="1.4792" gradientUnits="userSpaceOnUse">
			<stop  offset="0" style="stop-color:#176C3F"/>
			<stop  offset="0.1525" style="stop-color:#135A34"/>
			<stop  offset="0.7282" style="stop-color:#05190F"/>
			<stop  offset="1" style="stop-color:#000000"/>
		</radialGradient>
		<path fill-rule="evenodd" clip-rule="evenodd" fill="url(#SVGID_20_)" d="M66.065,32.294c0.668,0,1.216-0.545,1.216-1.216
			s-0.548-1.217-1.216-1.217c-0.671,0-1.217,0.546-1.217,1.217S65.395,32.294,66.065,32.294z"/>
		<radialGradient id="SVGID_21_" cx="73.7324" cy="29.3896" r="2.623" gradientUnits="userSpaceOnUse">
			<stop  offset="0" style="stop-color:#176C3F"/>
			<stop  offset="1" style="stop-color:#000000"/>
		</radialGradient>
		<path fill-rule="evenodd" clip-rule="evenodd" fill="url(#SVGID_21_)" d="M73.732,31.547c1.188,0,2.156-0.97,2.156-2.157
			c0-1.188-0.968-2.157-2.156-2.157s-2.157,0.969-2.157,2.157C71.575,30.577,72.544,31.547,73.732,31.547z"/>
		<radialGradient id="SVGID_22_" cx="58.4399" cy="29.3926" r="3.3425" gradientUnits="userSpaceOnUse">
			<stop  offset="0" style="stop-color:#608640"/>
			<stop  offset="1" style="stop-color:#002207"/>
		</radialGradient>
		<path fill-rule="evenodd" clip-rule="evenodd" fill="url(#SVGID_22_)" d="M59.72,28.914c0-0.215,0-0.431,0-0.646
			c0.216,0,0.432,0,0.648,0c0,0.215,0,0.431,0,0.646C60.152,28.914,59.937,28.914,59.72,28.914L59.72,28.914z M59.72,29.709
			c0-0.215,0-0.432,0-0.647c0.216,0,0.432,0,0.648,0c0,0.215,0,0.432,0,0.647C60.152,29.709,59.937,29.709,59.72,29.709
			L59.72,29.709z M56.512,29.709c0-0.215,0-0.432,0-0.647c0.216,0,0.432,0,0.648,0c0,0.215,0,0.432,0,0.647
			C56.943,29.709,56.728,29.709,56.512,29.709L56.512,29.709z M56.512,32.123c0-0.215,0-0.432,0-0.647c0.216,0,0.432,0,0.648,0
			c0,0.215,0,0.432,0,0.647C56.943,32.123,56.728,32.123,56.512,32.123L56.512,32.123z M59.72,32.123c0-0.215,0-0.432,0-0.647
			c0.216,0,0.432,0,0.648,0c0,0.215,0,0.432,0,0.647C60.152,32.123,59.937,32.123,59.72,32.123L59.72,32.123z M59.72,27.309
			c0-0.214,0-0.431,0-0.647c0.216,0,0.432,0,0.648,0c0,0.216,0,0.433,0,0.647C60.152,27.309,59.937,27.309,59.72,27.309
			L59.72,27.309z M56.512,27.309c0-0.214,0-0.431,0-0.647c0.216,0,0.432,0,0.648,0c0,0.216,0,0.433,0,0.647
			C56.943,27.309,56.728,27.309,56.512,27.309L56.512,27.309z M59.72,28.111c0-0.215,0-0.431,0-0.646c0.216,0,0.432,0,0.648,0
			c0,0.216,0,0.431,0,0.646C60.152,28.111,59.937,28.111,59.72,28.111L59.72,28.111z M58.919,27.309c0-0.214,0-0.431,0-0.647
			c0.214,0,0.43,0,0.646,0c0,0.216,0,0.433,0,0.647C59.349,27.309,59.133,27.309,58.919,27.309L58.919,27.309z M58.116,27.309
			c0-0.214,0-0.431,0-0.647c0.217,0,0.432,0,0.647,0c0,0.216,0,0.433,0,0.647C58.547,27.309,58.333,27.309,58.116,27.309
			L58.116,27.309z M57.313,27.309c0-0.214,0-0.431,0-0.647c0.216,0,0.432,0,0.647,0c0,0.216,0,0.433,0,0.647
			C57.745,27.309,57.529,27.309,57.313,27.309L57.313,27.309z M56.512,28.111c0-0.215,0-0.431,0-0.646c0.215,0,0.432,0,0.647,0
			c0,0.216,0,0.431,0,0.646C56.943,28.111,56.727,28.111,56.512,28.111L56.512,28.111z M56.512,28.914c0-0.215,0-0.431,0-0.646
			c0.215,0,0.432,0,0.647,0c0,0.215,0,0.431,0,0.646C56.943,28.914,56.727,28.914,56.512,28.914L56.512,28.914z M59.72,31.32
			c0-0.215,0-0.432,0-0.647c0.216,0,0.432,0,0.648,0c0,0.216,0,0.432,0,0.647C60.152,31.32,59.937,31.32,59.72,31.32L59.72,31.32z
			 M59.72,30.518c0-0.215,0-0.431,0-0.647c0.216,0,0.432,0,0.648,0c0,0.216,0,0.432,0,0.647
			C60.152,30.518,59.937,30.518,59.72,30.518L59.72,30.518z M58.919,29.716c0-0.215,0-0.432,0-0.647c0.214,0,0.43,0,0.646,0
			c0,0.215,0,0.432,0,0.647C59.349,29.716,59.133,29.716,58.919,29.716L58.919,29.716z M58.116,29.716c0-0.215,0-0.432,0-0.647
			c0.217,0,0.432,0,0.647,0c0,0.215,0,0.432,0,0.647C58.547,29.716,58.333,29.716,58.116,29.716L58.116,29.716z M57.313,29.716
			c0-0.215,0-0.432,0-0.647c0.216,0,0.432,0,0.647,0c0,0.215,0,0.432,0,0.647C57.745,29.716,57.529,29.716,57.313,29.716
			L57.313,29.716z M56.512,30.518c0-0.215,0-0.431,0-0.647c0.215,0,0.432,0,0.647,0c0,0.216,0,0.432,0,0.647
			C56.943,30.518,56.727,30.518,56.512,30.518L56.512,30.518z M56.512,31.32c0-0.215,0-0.432,0-0.647c0.215,0,0.432,0,0.647,0
			c0,0.216,0,0.432,0,0.647C56.943,31.32,56.727,31.32,56.512,31.32L56.512,31.32z M57.313,32.123c0-0.215,0-0.432,0-0.647
			c0.216,0,0.432,0,0.647,0c0,0.215,0,0.432,0,0.647C57.745,32.123,57.529,32.123,57.313,32.123L57.313,32.123z M58.116,32.123
			c0-0.215,0-0.432,0-0.647c0.217,0,0.432,0,0.647,0c0,0.215,0,0.432,0,0.647C58.547,32.123,58.333,32.123,58.116,32.123
			L58.116,32.123z M58.919,32.123c0-0.215,0-0.432,0-0.647c0.214,0,0.43,0,0.646,0c0,0.215,0,0.432,0,0.647
			C59.349,32.123,59.133,32.123,58.919,32.123z"/>
		<radialGradient id="SVGID_23_" cx="69.2812" cy="29.3926" r="3.3428" gradientUnits="userSpaceOnUse">
			<stop  offset="0" style="stop-color:#608640"/>
			<stop  offset="1" style="stop-color:#002207"/>
		</radialGradient>
		<path fill-rule="evenodd" clip-rule="evenodd" fill="url(#SVGID_23_)" d="M70.562,28.914c0-0.215,0-0.431,0-0.646
			c0.215,0,0.432,0,0.647,0c0,0.215,0,0.431,0,0.646C70.994,28.914,70.777,28.914,70.562,28.914L70.562,28.914z M70.562,29.709
			c0-0.215,0-0.432,0-0.647c0.215,0,0.432,0,0.647,0c0,0.215,0,0.432,0,0.647C70.994,29.709,70.777,29.709,70.562,29.709
			L70.562,29.709z M67.354,29.709c0-0.215,0-0.432,0-0.647c0.216,0,0.433,0,0.647,0c0,0.215,0,0.432,0,0.647
			C67.786,29.709,67.569,29.709,67.354,29.709L67.354,29.709z M67.354,32.123c0-0.215,0-0.432,0-0.647c0.216,0,0.433,0,0.647,0
			c0,0.215,0,0.432,0,0.647C67.786,32.123,67.569,32.123,67.354,32.123L67.354,32.123z M70.562,32.123c0-0.215,0-0.432,0-0.647
			c0.215,0,0.432,0,0.647,0c0,0.215,0,0.432,0,0.647C70.994,32.123,70.777,32.123,70.562,32.123L70.562,32.123z M70.562,27.309
			c0-0.214,0-0.431,0-0.647c0.215,0,0.432,0,0.647,0c0,0.216,0,0.433,0,0.647C70.994,27.309,70.777,27.309,70.562,27.309
			L70.562,27.309z M67.354,27.309c0-0.214,0-0.431,0-0.647c0.216,0,0.433,0,0.647,0c0,0.216,0,0.433,0,0.647
			C67.786,27.309,67.569,27.309,67.354,27.309L67.354,27.309z M70.562,28.111c0-0.215,0-0.431,0-0.646c0.215,0,0.432,0,0.647,0
			c0,0.216,0,0.431,0,0.646C70.994,28.111,70.777,28.111,70.562,28.111L70.562,28.111z M69.761,27.309c0-0.214,0-0.431,0-0.647
			c0.215,0,0.431,0,0.646,0c0,0.216,0,0.433,0,0.647C70.191,27.309,69.976,27.309,69.761,27.309L69.761,27.309z M68.957,27.309
			c0-0.214,0-0.431,0-0.647c0.216,0,0.433,0,0.648,0c0,0.216,0,0.433,0,0.647C69.39,27.309,69.173,27.309,68.957,27.309
			L68.957,27.309z M68.156,27.309c0-0.214,0-0.431,0-0.647c0.215,0,0.432,0,0.646,0c0,0.216,0,0.433,0,0.647
			C68.588,27.309,68.371,27.309,68.156,27.309L68.156,27.309z M67.354,28.111c0-0.215,0-0.431,0-0.646c0.216,0,0.432,0,0.647,0
			c0,0.216,0,0.431,0,0.646C67.785,28.111,67.569,28.111,67.354,28.111L67.354,28.111z M67.354,28.914c0-0.215,0-0.431,0-0.646
			c0.216,0,0.432,0,0.647,0c0,0.215,0,0.431,0,0.646C67.785,28.914,67.569,28.914,67.354,28.914L67.354,28.914z M70.562,31.32
			c0-0.215,0-0.432,0-0.647c0.215,0,0.432,0,0.647,0c0,0.216,0,0.432,0,0.647C70.994,31.32,70.777,31.32,70.562,31.32L70.562,31.32z
			 M70.562,30.518c0-0.215,0-0.431,0-0.647c0.215,0,0.432,0,0.647,0c0,0.216,0,0.432,0,0.647
			C70.994,30.518,70.777,30.518,70.562,30.518L70.562,30.518z M69.761,29.716c0-0.215,0-0.432,0-0.647c0.215,0,0.431,0,0.646,0
			c0,0.215,0,0.432,0,0.647C70.191,29.716,69.976,29.716,69.761,29.716L69.761,29.716z M68.957,29.716c0-0.215,0-0.432,0-0.647
			c0.216,0,0.433,0,0.648,0c0,0.215,0,0.432,0,0.647C69.39,29.716,69.173,29.716,68.957,29.716L68.957,29.716z M68.156,29.716
			c0-0.215,0-0.432,0-0.647c0.215,0,0.432,0,0.646,0c0,0.215,0,0.432,0,0.647C68.588,29.716,68.371,29.716,68.156,29.716
			L68.156,29.716z M67.354,30.518c0-0.215,0-0.431,0-0.647c0.216,0,0.432,0,0.647,0c0,0.216,0,0.432,0,0.647
			C67.785,30.518,67.569,30.518,67.354,30.518L67.354,30.518z M67.354,31.32c0-0.215,0-0.432,0-0.647c0.216,0,0.432,0,0.647,0
			c0,0.216,0,0.432,0,0.647C67.785,31.32,67.569,31.32,67.354,31.32L67.354,31.32z M68.156,32.123c0-0.215,0-0.432,0-0.647
			c0.215,0,0.432,0,0.646,0c0,0.215,0,0.432,0,0.647C68.588,32.123,68.371,32.123,68.156,32.123L68.156,32.123z M68.957,32.123
			c0-0.215,0-0.432,0-0.647c0.216,0,0.433,0,0.648,0c0,0.215,0,0.432,0,0.647C69.39,32.123,69.173,32.123,68.957,32.123
			L68.957,32.123z M69.761,32.123c0-0.215,0-0.432,0-0.647c0.215,0,0.431,0,0.646,0c0,0.215,0,0.432,0,0.647
			C70.191,32.123,69.976,32.123,69.761,32.123z"/>
		<radialGradient id="SVGID_24_" cx="62.8394" cy="29.3926" r="3.3425" gradientUnits="userSpaceOnUse">
			<stop  offset="0" style="stop-color:#608640"/>
			<stop  offset="1" style="stop-color:#002207"/>
		</radialGradient>
		<path fill-rule="evenodd" clip-rule="evenodd" fill="url(#SVGID_24_)" d="M64.119,28.914c0-0.215,0-0.431,0-0.646
			c0.216,0,0.431,0,0.648,0c0,0.215,0,0.431,0,0.646C64.55,28.914,64.335,28.914,64.119,28.914L64.119,28.914z M64.119,29.709
			c0-0.215,0-0.432,0-0.647c0.216,0,0.431,0,0.648,0c0,0.215,0,0.432,0,0.647C64.55,29.709,64.335,29.709,64.119,29.709
			L64.119,29.709z M60.911,29.709c0-0.215,0-0.432,0-0.647c0.216,0,0.431,0,0.647,0c0,0.215,0,0.432,0,0.647
			C61.342,29.709,61.127,29.709,60.911,29.709L60.911,29.709z M60.911,32.123c0-0.215,0-0.432,0-0.647c0.216,0,0.431,0,0.647,0
			c0,0.215,0,0.432,0,0.647C61.342,32.123,61.127,32.123,60.911,32.123L60.911,32.123z M64.119,32.123c0-0.215,0-0.432,0-0.647
			c0.216,0,0.431,0,0.648,0c0,0.215,0,0.432,0,0.647C64.55,32.123,64.335,32.123,64.119,32.123L64.119,32.123z M64.119,27.309
			c0-0.214,0-0.431,0-0.647c0.216,0,0.431,0,0.648,0c0,0.216,0,0.433,0,0.647C64.55,27.309,64.335,27.309,64.119,27.309
			L64.119,27.309z M60.911,27.309c0-0.214,0-0.431,0-0.647c0.216,0,0.431,0,0.647,0c0,0.216,0,0.433,0,0.647
			C61.342,27.309,61.127,27.309,60.911,27.309L60.911,27.309z M64.119,28.111c0-0.215,0-0.431,0-0.646c0.216,0,0.431,0,0.648,0
			c0,0.216,0,0.431,0,0.646C64.55,28.111,64.335,28.111,64.119,28.111L64.119,28.111z M63.316,27.309c0-0.214,0-0.431,0-0.647
			c0.217,0,0.432,0,0.648,0c0,0.216,0,0.433,0,0.647C63.748,27.309,63.533,27.309,63.316,27.309L63.316,27.309z M62.515,27.309
			c0-0.214,0-0.431,0-0.647c0.215,0,0.431,0,0.646,0c0,0.216,0,0.433,0,0.647C62.946,27.309,62.73,27.309,62.515,27.309
			L62.515,27.309z M61.712,27.309c0-0.214,0-0.431,0-0.647c0.215,0,0.431,0,0.647,0c0,0.216,0,0.433,0,0.647
			C62.144,27.309,61.928,27.309,61.712,27.309L61.712,27.309z M60.911,28.111c0-0.215,0-0.431,0-0.646c0.216,0,0.43,0,0.647,0
			c0,0.216,0,0.431,0,0.646C61.341,28.111,61.127,28.111,60.911,28.111L60.911,28.111z M60.911,28.914c0-0.215,0-0.431,0-0.646
			c0.216,0,0.43,0,0.647,0c0,0.215,0,0.431,0,0.646C61.341,28.914,61.127,28.914,60.911,28.914L60.911,28.914z M64.119,31.32
			c0-0.215,0-0.432,0-0.647c0.216,0,0.431,0,0.648,0c0,0.216,0,0.432,0,0.647C64.55,31.32,64.335,31.32,64.119,31.32L64.119,31.32z
			 M64.119,30.518c0-0.215,0-0.431,0-0.647c0.216,0,0.431,0,0.648,0c0,0.216,0,0.432,0,0.647
			C64.55,30.518,64.335,30.518,64.119,30.518L64.119,30.518z M63.316,29.716c0-0.215,0-0.432,0-0.647c0.217,0,0.432,0,0.648,0
			c0,0.215,0,0.432,0,0.647C63.748,29.716,63.533,29.716,63.316,29.716L63.316,29.716z M62.515,29.716c0-0.215,0-0.432,0-0.647
			c0.215,0,0.431,0,0.646,0c0,0.215,0,0.432,0,0.647C62.946,29.716,62.73,29.716,62.515,29.716L62.515,29.716z M61.712,29.716
			c0-0.215,0-0.432,0-0.647c0.215,0,0.431,0,0.647,0c0,0.215,0,0.432,0,0.647C62.144,29.716,61.928,29.716,61.712,29.716
			L61.712,29.716z M60.911,30.518c0-0.215,0-0.431,0-0.647c0.216,0,0.43,0,0.647,0c0,0.216,0,0.432,0,0.647
			C61.341,30.518,61.127,30.518,60.911,30.518L60.911,30.518z M60.911,31.32c0-0.215,0-0.432,0-0.647c0.216,0,0.43,0,0.647,0
			c0,0.216,0,0.432,0,0.647C61.341,31.32,61.127,31.32,60.911,31.32L60.911,31.32z M61.712,32.123c0-0.215,0-0.432,0-0.647
			c0.215,0,0.431,0,0.647,0c0,0.215,0,0.432,0,0.647C62.144,32.123,61.928,32.123,61.712,32.123L61.712,32.123z M62.515,32.123
			c0-0.215,0-0.432,0-0.647c0.215,0,0.431,0,0.646,0c0,0.215,0,0.432,0,0.647C62.946,32.123,62.73,32.123,62.515,32.123
			L62.515,32.123z M63.316,32.123c0-0.215,0-0.432,0-0.647c0.217,0,0.432,0,0.648,0c0,0.215,0,0.432,0,0.647
			C63.748,32.123,63.533,32.123,63.316,32.123z"/>
		<radialGradient id="SVGID_25_" cx="73.6807" cy="29.3926" r="3.3422" gradientUnits="userSpaceOnUse">
			<stop  offset="0" style="stop-color:#608640"/>
			<stop  offset="1" style="stop-color:#002207"/>
		</radialGradient>
		<path fill-rule="evenodd" clip-rule="evenodd" fill="url(#SVGID_25_)" d="M74.961,28.914c0-0.215,0-0.431,0-0.646
			c0.216,0,0.432,0,0.647,0c0,0.215,0,0.431,0,0.646C75.393,28.914,75.177,28.914,74.961,28.914L74.961,28.914z M74.961,29.709
			c0-0.215,0-0.432,0-0.647c0.216,0,0.432,0,0.647,0c0,0.215,0,0.432,0,0.647C75.393,29.709,75.177,29.709,74.961,29.709
			L74.961,29.709z M71.753,29.709c0-0.215,0-0.432,0-0.647c0.216,0,0.433,0,0.647,0c0,0.215,0,0.432,0,0.647
			C72.186,29.709,71.969,29.709,71.753,29.709L71.753,29.709z M71.753,32.123c0-0.215,0-0.432,0-0.647c0.216,0,0.433,0,0.647,0
			c0,0.215,0,0.432,0,0.647C72.186,32.123,71.969,32.123,71.753,32.123L71.753,32.123z M74.961,32.123c0-0.215,0-0.432,0-0.647
			c0.216,0,0.432,0,0.647,0c0,0.215,0,0.432,0,0.647C75.393,32.123,75.177,32.123,74.961,32.123L74.961,32.123z M74.961,27.309
			c0-0.214,0-0.431,0-0.647c0.216,0,0.432,0,0.647,0c0,0.216,0,0.433,0,0.647C75.393,27.309,75.177,27.309,74.961,27.309
			L74.961,27.309z M71.753,27.309c0-0.214,0-0.431,0-0.647c0.216,0,0.433,0,0.647,0c0,0.216,0,0.433,0,0.647
			C72.186,27.309,71.969,27.309,71.753,27.309L71.753,27.309z M74.961,28.111c0-0.215,0-0.431,0-0.646c0.216,0,0.432,0,0.647,0
			c0,0.216,0,0.431,0,0.646C75.393,28.111,75.177,28.111,74.961,28.111L74.961,28.111z M74.159,27.309c0-0.214,0-0.431,0-0.647
			c0.215,0,0.431,0,0.646,0c0,0.216,0,0.433,0,0.647C74.59,27.309,74.374,27.309,74.159,27.309L74.159,27.309z M73.356,27.309
			c0-0.214,0-0.431,0-0.647c0.216,0,0.432,0,0.647,0c0,0.216,0,0.433,0,0.647C73.788,27.309,73.572,27.309,73.356,27.309
			L73.356,27.309z M72.554,27.309c0-0.214,0-0.431,0-0.647c0.216,0,0.433,0,0.647,0c0,0.216,0,0.433,0,0.647
			C72.986,27.309,72.77,27.309,72.554,27.309L72.554,27.309z M71.753,28.111c0-0.215,0-0.431,0-0.646c0.216,0,0.432,0,0.647,0
			c0,0.216,0,0.431,0,0.646C72.185,28.111,71.969,28.111,71.753,28.111L71.753,28.111z M71.753,28.914c0-0.215,0-0.431,0-0.646
			c0.216,0,0.432,0,0.647,0c0,0.215,0,0.431,0,0.646C72.185,28.914,71.969,28.914,71.753,28.914L71.753,28.914z M74.961,31.32
			c0-0.215,0-0.432,0-0.647c0.216,0,0.432,0,0.647,0c0,0.216,0,0.432,0,0.647C75.393,31.32,75.177,31.32,74.961,31.32L74.961,31.32z
			 M74.961,30.518c0-0.215,0-0.431,0-0.647c0.216,0,0.432,0,0.647,0c0,0.216,0,0.432,0,0.647
			C75.393,30.518,75.177,30.518,74.961,30.518L74.961,30.518z M74.159,29.716c0-0.215,0-0.432,0-0.647c0.215,0,0.431,0,0.646,0
			c0,0.215,0,0.432,0,0.647C74.59,29.716,74.374,29.716,74.159,29.716L74.159,29.716z M73.356,29.716c0-0.215,0-0.432,0-0.647
			c0.216,0,0.432,0,0.647,0c0,0.215,0,0.432,0,0.647C73.788,29.716,73.572,29.716,73.356,29.716L73.356,29.716z M72.554,29.716
			c0-0.215,0-0.432,0-0.647c0.216,0,0.433,0,0.647,0c0,0.215,0,0.432,0,0.647C72.986,29.716,72.77,29.716,72.554,29.716
			L72.554,29.716z M71.753,30.518c0-0.215,0-0.431,0-0.647c0.216,0,0.432,0,0.647,0c0,0.216,0,0.432,0,0.647
			C72.185,30.518,71.969,30.518,71.753,30.518L71.753,30.518z M71.753,31.32c0-0.215,0-0.432,0-0.647c0.216,0,0.432,0,0.647,0
			c0,0.216,0,0.432,0,0.647C72.185,31.32,71.969,31.32,71.753,31.32L71.753,31.32z M72.554,32.123c0-0.215,0-0.432,0-0.647
			c0.216,0,0.433,0,0.647,0c0,0.215,0,0.432,0,0.647C72.986,32.123,72.77,32.123,72.554,32.123L72.554,32.123z M73.356,32.123
			c0-0.215,0-0.432,0-0.647c0.216,0,0.432,0,0.647,0c0,0.215,0,0.432,0,0.647C73.788,32.123,73.572,32.123,73.356,32.123
			L73.356,32.123z M74.159,32.123c0-0.215,0-0.432,0-0.647c0.215,0,0.431,0,0.646,0c0,0.215,0,0.432,0,0.647
			C74.59,32.123,74.374,32.123,74.159,32.123z"/>
		<path fill-rule="evenodd" clip-rule="evenodd" fill="#B6D333" d="M70.562,28.914c0-0.215,0-0.431,0-0.646c0.215,0,0.432,0,0.647,0
			c0,0.215,0,0.431,0,0.646C70.994,28.914,70.777,28.914,70.562,28.914L70.562,28.914z M70.562,29.709c0-0.215,0-0.432,0-0.647
			c0.215,0,0.432,0,0.647,0c0,0.215,0,0.432,0,0.647C70.994,29.709,70.777,29.709,70.562,29.709L70.562,29.709z M67.354,29.709
			c0-0.215,0-0.432,0-0.647c0.216,0,0.433,0,0.647,0c0,0.215,0,0.432,0,0.647C67.786,29.709,67.569,29.709,67.354,29.709
			L67.354,29.709z M67.354,32.123c0-0.215,0-0.432,0-0.647c0.216,0,0.433,0,0.647,0c0,0.215,0,0.432,0,0.647
			C67.786,32.123,67.569,32.123,67.354,32.123L67.354,32.123z M70.562,32.123c0-0.215,0-0.432,0-0.647c0.215,0,0.432,0,0.647,0
			c0,0.215,0,0.432,0,0.647C70.994,32.123,70.777,32.123,70.562,32.123L70.562,32.123z M70.562,27.309c0-0.214,0-0.431,0-0.647
			c0.215,0,0.432,0,0.647,0c0,0.216,0,0.433,0,0.647C70.994,27.309,70.777,27.309,70.562,27.309L70.562,27.309z M67.354,27.309
			c0-0.214,0-0.431,0-0.647c0.216,0,0.433,0,0.647,0c0,0.216,0,0.433,0,0.647C67.786,27.309,67.569,27.309,67.354,27.309
			L67.354,27.309z M70.562,28.111c0-0.215,0-0.431,0-0.646c0.215,0,0.432,0,0.647,0c0,0.216,0,0.431,0,0.646
			C70.994,28.111,70.777,28.111,70.562,28.111L70.562,28.111z M69.761,27.309c0-0.214,0-0.431,0-0.647c0.215,0,0.431,0,0.646,0
			c0,0.216,0,0.433,0,0.647C70.191,27.309,69.976,27.309,69.761,27.309L69.761,27.309z M68.957,27.309c0-0.214,0-0.431,0-0.647
			c0.216,0,0.433,0,0.648,0c0,0.216,0,0.433,0,0.647C69.39,27.309,69.173,27.309,68.957,27.309L68.957,27.309z M68.156,27.309
			c0-0.214,0-0.431,0-0.647c0.215,0,0.432,0,0.646,0c0,0.216,0,0.433,0,0.647C68.588,27.309,68.371,27.309,68.156,27.309
			L68.156,27.309z M69.761,29.716c0-0.215,0-0.432,0-0.647c0.215,0,0.431,0,0.646,0c0,0.215,0,0.432,0,0.647
			C70.191,29.716,69.976,29.716,69.761,29.716L69.761,29.716z M68.957,29.716c0-0.215,0-0.432,0-0.647c0.216,0,0.433,0,0.648,0
			c0,0.215,0,0.432,0,0.647C69.39,29.716,69.173,29.716,68.957,29.716L68.957,29.716z M68.156,29.716c0-0.215,0-0.432,0-0.647
			c0.215,0,0.432,0,0.646,0c0,0.215,0,0.432,0,0.647C68.588,29.716,68.371,29.716,68.156,29.716L68.156,29.716z M67.354,30.518
			c0-0.215,0-0.431,0-0.647c0.216,0,0.432,0,0.647,0c0,0.216,0,0.432,0,0.647C67.785,30.518,67.569,30.518,67.354,30.518
			L67.354,30.518z M67.354,31.32c0-0.215,0-0.432,0-0.647c0.216,0,0.432,0,0.647,0c0,0.216,0,0.432,0,0.647
			C67.785,31.32,67.569,31.32,67.354,31.32L67.354,31.32z M68.156,32.123c0-0.215,0-0.432,0-0.647c0.215,0,0.432,0,0.646,0
			c0,0.215,0,0.432,0,0.647C68.588,32.123,68.371,32.123,68.156,32.123L68.156,32.123z M68.957,32.123c0-0.215,0-0.432,0-0.647
			c0.216,0,0.433,0,0.648,0c0,0.215,0,0.432,0,0.647C69.39,32.123,69.173,32.123,68.957,32.123L68.957,32.123z M69.761,32.123
			c0-0.215,0-0.432,0-0.647c0.215,0,0.431,0,0.646,0c0,0.215,0,0.432,0,0.647C70.191,32.123,69.976,32.123,69.761,32.123z"/>
		<path fill-rule="evenodd" clip-rule="evenodd" fill="#B6D333" d="M59.72,28.914c0-0.215,0-0.431,0-0.646c0.216,0,0.432,0,0.648,0
			c0,0.215,0,0.431,0,0.646C60.152,28.914,59.937,28.914,59.72,28.914L59.72,28.914z M59.72,29.709c0-0.215,0-0.432,0-0.647
			c0.216,0,0.432,0,0.648,0c0,0.215,0,0.432,0,0.647C60.152,29.709,59.937,29.709,59.72,29.709L59.72,29.709z M56.512,29.709
			c0-0.215,0-0.432,0-0.647c0.216,0,0.432,0,0.648,0c0,0.215,0,0.432,0,0.647C56.943,29.709,56.728,29.709,56.512,29.709
			L56.512,29.709z M56.512,32.123c0-0.215,0-0.432,0-0.647c0.216,0,0.432,0,0.648,0c0,0.215,0,0.432,0,0.647
			C56.943,32.123,56.728,32.123,56.512,32.123L56.512,32.123z M59.72,32.123c0-0.215,0-0.432,0-0.647c0.216,0,0.432,0,0.648,0
			c0,0.215,0,0.432,0,0.647C60.152,32.123,59.937,32.123,59.72,32.123L59.72,32.123z M59.72,27.309c0-0.214,0-0.431,0-0.647
			c0.216,0,0.432,0,0.648,0c0,0.216,0,0.433,0,0.647C60.152,27.309,59.937,27.309,59.72,27.309L59.72,27.309z M56.512,27.309
			c0-0.214,0-0.431,0-0.647c0.216,0,0.432,0,0.648,0c0,0.216,0,0.433,0,0.647C56.943,27.309,56.728,27.309,56.512,27.309
			L56.512,27.309z M59.72,28.111c0-0.215,0-0.431,0-0.646c0.216,0,0.432,0,0.648,0c0,0.216,0,0.431,0,0.646
			C60.152,28.111,59.937,28.111,59.72,28.111L59.72,28.111z M58.919,27.309c0-0.214,0-0.431,0-0.647c0.214,0,0.43,0,0.646,0
			c0,0.216,0,0.433,0,0.647C59.349,27.309,59.133,27.309,58.919,27.309L58.919,27.309z M58.116,27.309c0-0.214,0-0.431,0-0.647
			c0.217,0,0.432,0,0.647,0c0,0.216,0,0.433,0,0.647C58.547,27.309,58.333,27.309,58.116,27.309L58.116,27.309z M57.313,27.309
			c0-0.214,0-0.431,0-0.647c0.216,0,0.432,0,0.647,0c0,0.216,0,0.433,0,0.647C57.745,27.309,57.529,27.309,57.313,27.309
			L57.313,27.309z M59.72,31.32c0-0.215,0-0.432,0-0.647c0.216,0,0.432,0,0.648,0c0,0.216,0,0.432,0,0.647
			C60.152,31.32,59.937,31.32,59.72,31.32L59.72,31.32z M59.72,30.518c0-0.215,0-0.431,0-0.647c0.216,0,0.432,0,0.648,0
			c0,0.216,0,0.432,0,0.647C60.152,30.518,59.937,30.518,59.72,30.518L59.72,30.518z M58.919,29.716c0-0.215,0-0.432,0-0.647
			c0.214,0,0.43,0,0.646,0c0,0.215,0,0.432,0,0.647C59.349,29.716,59.133,29.716,58.919,29.716L58.919,29.716z M58.116,29.716
			c0-0.215,0-0.432,0-0.647c0.217,0,0.432,0,0.647,0c0,0.215,0,0.432,0,0.647C58.547,29.716,58.333,29.716,58.116,29.716
			L58.116,29.716z M57.313,29.716c0-0.215,0-0.432,0-0.647c0.216,0,0.432,0,0.647,0c0,0.215,0,0.432,0,0.647
			C57.745,29.716,57.529,29.716,57.313,29.716L57.313,29.716z M57.313,32.123c0-0.215,0-0.432,0-0.647c0.216,0,0.432,0,0.647,0
			c0,0.215,0,0.432,0,0.647C57.745,32.123,57.529,32.123,57.313,32.123L57.313,32.123z M58.116,32.123c0-0.215,0-0.432,0-0.647
			c0.217,0,0.432,0,0.647,0c0,0.215,0,0.432,0,0.647C58.547,32.123,58.333,32.123,58.116,32.123L58.116,32.123z M58.919,32.123
			c0-0.215,0-0.432,0-0.647c0.214,0,0.43,0,0.646,0c0,0.215,0,0.432,0,0.647C59.349,32.123,59.133,32.123,58.919,32.123z"/>
		<path fill-rule="evenodd" clip-rule="evenodd" fill="#B6D333" d="M74.961,28.914c0-0.215,0-0.431,0-0.646c0.216,0,0.432,0,0.647,0
			c0,0.215,0,0.431,0,0.646C75.393,28.914,75.177,28.914,74.961,28.914L74.961,28.914z M74.961,29.709c0-0.215,0-0.432,0-0.647
			c0.216,0,0.432,0,0.647,0c0,0.215,0,0.432,0,0.647C75.393,29.709,75.177,29.709,74.961,29.709L74.961,29.709z M74.961,32.123
			c0-0.215,0-0.432,0-0.647c0.216,0,0.432,0,0.647,0c0,0.215,0,0.432,0,0.647C75.393,32.123,75.177,32.123,74.961,32.123
			L74.961,32.123z M74.961,27.309c0-0.214,0-0.431,0-0.647c0.216,0,0.432,0,0.647,0c0,0.216,0,0.433,0,0.647
			C75.393,27.309,75.177,27.309,74.961,27.309L74.961,27.309z M71.753,27.309c0-0.214,0-0.431,0-0.647c0.216,0,0.433,0,0.647,0
			c0,0.216,0,0.433,0,0.647C72.186,27.309,71.969,27.309,71.753,27.309L71.753,27.309z M74.961,28.111c0-0.215,0-0.431,0-0.646
			c0.216,0,0.432,0,0.647,0c0,0.216,0,0.431,0,0.646C75.393,28.111,75.177,28.111,74.961,28.111L74.961,28.111z M74.159,27.309
			c0-0.214,0-0.431,0-0.647c0.215,0,0.431,0,0.646,0c0,0.216,0,0.433,0,0.647C74.59,27.309,74.374,27.309,74.159,27.309
			L74.159,27.309z M73.356,27.309c0-0.214,0-0.431,0-0.647c0.216,0,0.432,0,0.647,0c0,0.216,0,0.433,0,0.647
			C73.788,27.309,73.572,27.309,73.356,27.309L73.356,27.309z M72.554,27.309c0-0.214,0-0.431,0-0.647c0.216,0,0.433,0,0.647,0
			c0,0.216,0,0.433,0,0.647C72.986,27.309,72.77,27.309,72.554,27.309L72.554,27.309z M74.961,31.32c0-0.215,0-0.432,0-0.647
			c0.216,0,0.432,0,0.647,0c0,0.216,0,0.432,0,0.647C75.393,31.32,75.177,31.32,74.961,31.32L74.961,31.32z M74.961,30.518
			c0-0.215,0-0.431,0-0.647c0.216,0,0.432,0,0.647,0c0,0.216,0,0.432,0,0.647C75.393,30.518,75.177,30.518,74.961,30.518z"/>
		<path fill-rule="evenodd" clip-rule="evenodd" fill="#B6D333" d="M64.119,28.914c0-0.215,0-0.431,0-0.646c0.216,0,0.431,0,0.648,0
			c0,0.215,0,0.431,0,0.646C64.55,28.914,64.335,28.914,64.119,28.914L64.119,28.914z M64.119,29.709c0-0.215,0-0.432,0-0.647
			c0.216,0,0.431,0,0.648,0c0,0.215,0,0.432,0,0.647C64.55,29.709,64.335,29.709,64.119,29.709L64.119,29.709z M64.119,32.123
			c0-0.215,0-0.432,0-0.647c0.216,0,0.431,0,0.648,0c0,0.215,0,0.432,0,0.647C64.55,32.123,64.335,32.123,64.119,32.123
			L64.119,32.123z M64.119,27.309c0-0.214,0-0.431,0-0.647c0.216,0,0.431,0,0.648,0c0,0.216,0,0.433,0,0.647
			C64.55,27.309,64.335,27.309,64.119,27.309L64.119,27.309z M64.119,28.111c0-0.215,0-0.431,0-0.646c0.216,0,0.431,0,0.648,0
			c0,0.216,0,0.431,0,0.646C64.55,28.111,64.335,28.111,64.119,28.111L64.119,28.111z M63.316,27.309c0-0.214,0-0.431,0-0.647
			c0.217,0,0.432,0,0.648,0c0,0.216,0,0.433,0,0.647C63.748,27.309,63.533,27.309,63.316,27.309L63.316,27.309z M64.119,31.32
			c0-0.215,0-0.432,0-0.647c0.216,0,0.431,0,0.648,0c0,0.216,0,0.432,0,0.647C64.55,31.32,64.335,31.32,64.119,31.32L64.119,31.32z
			 M64.119,30.518c0-0.215,0-0.431,0-0.647c0.216,0,0.431,0,0.648,0c0,0.216,0,0.432,0,0.647
			C64.55,30.518,64.335,30.518,64.119,30.518z"/>
		<path fill-rule="evenodd" clip-rule="evenodd" fill="#B6D333" d="M65.718,28.914c0-0.215,0-0.431,0-0.646c0.216,0,0.432,0,0.647,0
			c0,0.215,0,0.431,0,0.646C66.149,28.914,65.934,28.914,65.718,28.914L65.718,28.914z M65.706,31.321c0-0.216,0-0.432,0-0.648
			c0.215,0,0.431,0,0.646,0c0,0.216,0,0.432,0,0.648C66.137,31.321,65.921,31.321,65.706,31.321z"/>
		<path fill-rule="evenodd" clip-rule="evenodd" fill="#FFFFFF" d="M54.122,24.646h23.147c0.157,0,0.284,0.129,0.284,0.287v0.176
			c0-0.157-0.127-0.286-0.284-0.286H54.122c-0.156,0-0.283,0.129-0.283,0.286v-0.176C53.838,24.775,53.965,24.646,54.122,24.646z"/>
		<linearGradient id="SVGID_26_" gradientUnits="userSpaceOnUse" x1="65.689" y1="30.6602" x2="65.689" y2="17.1321">
			<stop  offset="0" style="stop-color:#000000"/>
			<stop  offset="1" style="stop-color:#FFFFFF"/>
		</linearGradient>
		<path fill-rule="evenodd" clip-rule="evenodd" fill="url(#SVGID_26_)" d="M55.389,25.605h20.599c0.11,0,0.2,0.09,0.2,0.198v0.222
			c0-0.109-0.09-0.199-0.2-0.199H55.389c-0.11,0-0.199,0.09-0.199,0.199v-0.222C55.19,25.695,55.279,25.605,55.389,25.605z"/>
		<linearGradient id="SVGID_27_" gradientUnits="userSpaceOnUse" x1="65.6885" y1="32.1948" x2="65.6885" y2="33.3733">
			<stop  offset="0" style="stop-color:#000000"/>
			<stop  offset="1" style="stop-color:#2F653A"/>
		</linearGradient>
		<path fill-rule="evenodd" clip-rule="evenodd" fill="url(#SVGID_27_)" d="M55.389,33.158h20.599c0.11,0,0.2-0.09,0.2-0.2v-0.221
			c0,0.109-0.09,0.199-0.2,0.199H55.389c-0.11,0-0.199-0.089-0.199-0.199v0.221C55.19,33.069,55.279,33.158,55.389,33.158z"/>
	</g>
	<g>
		<path fill="#0D68A9" d="M34.934,76.979c0.581,0,1.067,0.099,1.463,0.293c0.395,0.194,0.713,0.451,0.956,0.767
			c0.242,0.315,0.416,0.677,0.521,1.081c0.105,0.405,0.158,0.82,0.158,1.241c0,0.579-0.086,1.085-0.26,1.517
			c-0.174,0.433-0.417,0.784-0.727,1.059c-0.312,0.275-0.688,0.48-1.13,0.617c-0.443,0.137-0.932,0.205-1.471,0.205h-1.216v4.504
			h-2.276V76.979H34.934z M34.239,82.082c0.453,0,0.819-0.136,1.099-0.409c0.278-0.273,0.418-0.701,0.418-1.28
			c0-0.569-0.121-1.001-0.363-1.296c-0.243-0.294-0.648-0.443-1.217-0.443h-0.948v3.429H34.239z"/>
		<path fill="#0D68A9" d="M41.177,79.761v1.138h0.031c0.222-0.411,0.49-0.739,0.806-0.987c0.316-0.246,0.7-0.371,1.153-0.371
			c0.063,0,0.129,0.002,0.198,0.007c0.068,0.006,0.134,0.015,0.197,0.023v2.087c-0.117-0.011-0.229-0.019-0.339-0.023
			c-0.111-0.005-0.224-0.008-0.339-0.008c-0.19,0-0.38,0.025-0.569,0.079c-0.19,0.052-0.364,0.14-0.521,0.26
			c-0.158,0.121-0.284,0.28-0.379,0.475c-0.095,0.195-0.142,0.434-0.142,0.72v5.104H39.09v-8.502H41.177z"/>
		<path fill="#0D68A9" d="M44.242,82.082c0.115-0.557,0.305-1.022,0.568-1.397c0.264-0.373,0.608-0.657,1.035-0.852
			c0.426-0.195,0.951-0.293,1.572-0.293c0.653-0.012,1.195,0.076,1.627,0.26c0.432,0.186,0.774,0.466,1.027,0.846
			c0.253,0.378,0.433,0.849,0.538,1.407s0.158,1.212,0.158,1.958c0,0.727-0.057,1.371-0.173,1.929
			c-0.116,0.559-0.306,1.024-0.569,1.398s-0.608,0.651-1.036,0.829c-0.426,0.18-0.95,0.269-1.572,0.269
			c-0.653,0.011-1.196-0.072-1.627-0.244c-0.432-0.174-0.775-0.448-1.027-0.821c-0.253-0.374-0.433-0.844-0.538-1.406
			c-0.105-0.564-0.157-1.215-0.157-1.953C44.068,83.284,44.126,82.642,44.242,82.082z M46.28,85.213
			c0.021,0.368,0.071,0.685,0.15,0.947c0.078,0.264,0.197,0.47,0.356,0.617c0.157,0.148,0.368,0.22,0.631,0.22
			c0.442,0,0.748-0.23,0.917-0.694c0.168-0.463,0.253-1.228,0.253-2.292c0-1.063-0.084-1.827-0.253-2.292
			c-0.168-0.462-0.474-0.695-0.917-0.695c-0.264,0-0.474,0.075-0.631,0.223c-0.159,0.148-0.278,0.352-0.356,0.616
			c-0.079,0.264-0.129,0.58-0.15,0.947c-0.021,0.369-0.031,0.77-0.031,1.201C46.25,84.443,46.259,84.844,46.28,85.213z"/>
		<path fill="#0D68A9" d="M54.023,79.761v0.995h0.032c0.232-0.422,0.532-0.729,0.901-0.923c0.369-0.195,0.791-0.293,1.264-0.293
			c0.696,0,1.23,0.189,1.604,0.567c0.374,0.38,0.561,0.996,0.561,1.85v6.306h-2.18v-5.863c0-0.442-0.075-0.75-0.222-0.923
			c-0.148-0.175-0.384-0.263-0.71-0.263c-0.77,0-1.154,0.469-1.154,1.407v5.642h-2.181v-8.502H54.023z"/>
		<path fill="#0D68A9" d="M59.728,82.082c0.116-0.557,0.307-1.022,0.57-1.397c0.262-0.373,0.607-0.657,1.034-0.852
			c0.428-0.195,0.951-0.293,1.572-0.293c0.653-0.012,1.195,0.076,1.628,0.26c0.432,0.186,0.774,0.466,1.027,0.846
			c0.253,0.378,0.432,0.849,0.537,1.407c0.104,0.559,0.158,1.212,0.158,1.958c0,0.727-0.058,1.371-0.174,1.929
			c-0.117,0.559-0.307,1.024-0.569,1.398c-0.264,0.374-0.608,0.651-1.035,0.829c-0.426,0.18-0.951,0.269-1.572,0.269
			c-0.652,0.011-1.195-0.072-1.627-0.244c-0.432-0.174-0.775-0.448-1.027-0.821c-0.251-0.374-0.431-0.844-0.537-1.406
			c-0.106-0.564-0.158-1.215-0.158-1.953C59.555,83.284,59.612,82.642,59.728,82.082z M61.767,85.213
			c0.021,0.368,0.071,0.685,0.15,0.947c0.079,0.264,0.197,0.47,0.356,0.617c0.157,0.148,0.369,0.22,0.631,0.22
			c0.442,0,0.748-0.23,0.918-0.694c0.167-0.463,0.252-1.228,0.252-2.292c0-1.063-0.085-1.827-0.252-2.292
			c-0.17-0.462-0.476-0.695-0.918-0.695c-0.263,0-0.475,0.075-0.631,0.223c-0.159,0.148-0.277,0.352-0.356,0.616
			c-0.08,0.264-0.129,0.58-0.15,0.947c-0.021,0.369-0.031,0.77-0.031,1.201C61.735,84.443,61.746,84.844,61.767,85.213z"/>
		<path fill="#0D68A9" d="M69.02,85.765c0,0.371,0.098,0.667,0.294,0.894c0.194,0.227,0.475,0.339,0.845,0.339
			c0.337,0,0.605-0.084,0.804-0.252c0.201-0.168,0.302-0.421,0.302-0.758c0-0.274-0.079-0.482-0.237-0.624
			c-0.158-0.144-0.342-0.256-0.554-0.34l-1.533-0.553c-0.6-0.212-1.052-0.508-1.358-0.894c-0.305-0.385-0.458-0.877-0.458-1.478
			c0-0.349,0.058-0.677,0.174-0.987c0.116-0.312,0.302-0.583,0.554-0.815c0.252-0.229,0.576-0.415,0.972-0.553
			c0.396-0.137,0.872-0.204,1.431-0.204c0.989,0,1.722,0.21,2.196,0.633c0.474,0.42,0.71,1.015,0.71,1.784v0.347H71.2
			c0-0.441-0.07-0.766-0.214-0.971c-0.141-0.205-0.392-0.31-0.751-0.31c-0.272,0-0.512,0.076-0.718,0.23
			c-0.204,0.152-0.309,0.382-0.309,0.687c0,0.212,0.066,0.401,0.197,0.57c0.132,0.168,0.382,0.311,0.752,0.426l1.311,0.444
			c0.685,0.23,1.171,0.534,1.454,0.907c0.284,0.374,0.428,0.884,0.428,1.524c0,0.453-0.08,0.846-0.238,1.178
			s-0.377,0.608-0.656,0.83c-0.278,0.221-0.611,0.379-0.995,0.474s-0.809,0.142-1.271,0.142c-0.611,0-1.119-0.057-1.524-0.173
			c-0.407-0.117-0.727-0.289-0.966-0.522c-0.236-0.231-0.402-0.514-0.497-0.846c-0.095-0.33-0.141-0.702-0.141-1.113v-0.3h1.958
			V85.765z"/>
		<path fill="#0D68A9" d="M77.095,77.326v2.435h1.264v1.485h-1.264v4.599c0,0.337,0.05,0.576,0.149,0.72
			c0.101,0.142,0.309,0.213,0.624,0.213c0.085,0,0.169-0.002,0.253-0.009c0.085-0.005,0.163-0.012,0.237-0.023v1.518
			c-0.243,0-0.477,0.009-0.704,0.023c-0.226,0.016-0.465,0.024-0.718,0.024c-0.422,0-0.767-0.029-1.035-0.088
			c-0.269-0.057-0.474-0.173-0.617-0.348c-0.142-0.173-0.238-0.402-0.291-0.688c-0.053-0.283-0.08-0.643-0.08-1.073v-4.868h-1.105
			v-1.485h1.105v-2.435H77.095z"/>
		<path fill="#0D68A9" d="M81.377,76.854v1.864h-2.181v-1.864H81.377z M81.377,79.761v8.502h-2.181v-8.502H81.377z"/>
		<path fill="#0D68A9" d="M86.963,82.209c-0.026-0.198-0.074-0.382-0.142-0.544c-0.068-0.164-0.166-0.295-0.294-0.396
			c-0.126-0.101-0.295-0.149-0.505-0.149c-0.263,0-0.479,0.061-0.647,0.182c-0.169,0.121-0.296,0.299-0.38,0.537
			c-0.084,0.237-0.143,0.537-0.174,0.901c-0.03,0.362-0.048,0.792-0.048,1.287c0,0.527,0.018,0.977,0.048,1.352
			c0.031,0.374,0.09,0.683,0.174,0.924c0.084,0.242,0.203,0.417,0.355,0.53c0.152,0.109,0.351,0.164,0.593,0.164
			c0.368,0,0.638-0.157,0.807-0.473c0.168-0.317,0.252-0.821,0.252-1.519h2.086c0,1.117-0.25,1.968-0.75,2.554
			c-0.501,0.584-1.33,0.876-2.489,0.876c-0.547,0-1.023-0.065-1.431-0.196c-0.406-0.133-0.742-0.369-1.01-0.713
			c-0.27-0.342-0.472-0.8-0.609-1.374c-0.137-0.573-0.205-1.288-0.205-2.142c0-0.874,0.084-1.598,0.252-2.172
			c0.169-0.574,0.406-1.033,0.712-1.376c0.305-0.341,0.669-0.581,1.091-0.719c0.421-0.137,0.884-0.204,1.39-0.204
			c1.012,0,1.772,0.295,2.284,0.885c0.51,0.59,0.766,1.391,0.766,2.402h-2.086C87.002,82.615,86.989,82.41,86.963,82.209z"/>
		<path fill="#0D68A9" d="M90.21,82.163c0-0.494,0.078-0.909,0.238-1.241c0.156-0.332,0.369-0.601,0.639-0.806
			c0.269-0.205,0.584-0.354,0.948-0.443c0.363-0.088,0.751-0.133,1.161-0.133c0.653,0,1.18,0.063,1.581,0.189
			c0.399,0.127,0.711,0.305,0.932,0.536c0.223,0.232,0.373,0.51,0.45,0.83c0.08,0.322,0.118,0.672,0.118,1.052v4.472
			c0,0.4,0.02,0.712,0.056,0.933c0.037,0.222,0.108,0.458,0.213,0.711h-2.084c-0.074-0.137-0.13-0.282-0.167-0.435
			c-0.037-0.153-0.071-0.304-0.103-0.452H94.16c-0.252,0.444-0.545,0.73-0.877,0.863c-0.332,0.131-0.76,0.196-1.288,0.196
			c-0.379,0-0.699-0.065-0.963-0.196c-0.264-0.133-0.475-0.313-0.633-0.546c-0.158-0.231-0.274-0.492-0.348-0.783
			c-0.073-0.289-0.11-0.575-0.11-0.859c0-0.401,0.043-0.746,0.126-1.036c0.086-0.288,0.215-0.538,0.388-0.742
			c0.173-0.206,0.396-0.377,0.663-0.514c0.269-0.137,0.593-0.258,0.974-0.364l1.231-0.332c0.326-0.084,0.553-0.199,0.68-0.347
			c0.126-0.147,0.189-0.364,0.189-0.647c0-0.327-0.076-0.583-0.229-0.767c-0.152-0.185-0.413-0.278-0.781-0.278
			c-0.338,0-0.591,0.102-0.76,0.303c-0.168,0.199-0.252,0.468-0.252,0.805v0.237h-1.96V82.163z M93.718,84.288
			c-0.168,0.068-0.32,0.119-0.458,0.15c-0.441,0.095-0.758,0.253-0.948,0.475c-0.19,0.221-0.284,0.521-0.284,0.899
			c0,0.327,0.064,0.605,0.189,0.838c0.126,0.232,0.337,0.347,0.632,0.347c0.147,0,0.301-0.023,0.459-0.07
			c0.157-0.047,0.303-0.124,0.435-0.23c0.131-0.104,0.239-0.241,0.323-0.409c0.084-0.169,0.127-0.368,0.127-0.601v-1.676
			C94.045,84.128,93.887,84.22,93.718,84.288z"/>
		<path fill="#0D68A9" d="M99.912,79.761v1.138h0.033c0.221-0.411,0.488-0.739,0.805-0.987c0.316-0.246,0.699-0.371,1.152-0.371
			c0.064,0,0.13,0.002,0.198,0.007c0.068,0.006,0.136,0.015,0.198,0.023v2.087c-0.116-0.011-0.229-0.019-0.34-0.023
			s-0.224-0.008-0.339-0.008c-0.19,0-0.38,0.025-0.569,0.079c-0.189,0.052-0.364,0.14-0.522,0.26
			c-0.158,0.121-0.284,0.28-0.38,0.475c-0.093,0.195-0.141,0.434-0.141,0.72v5.104h-2.182v-8.502H99.912z"/>
		<path fill="#0D68A9" d="M31.656,92.401v0.869h0.032c0.273-0.389,0.582-0.667,0.924-0.836c0.342-0.169,0.751-0.254,1.225-0.254
			c0.506,0,0.93,0.117,1.271,0.349c0.342,0.231,0.571,0.568,0.688,1.011h0.032c0.168-0.452,0.439-0.792,0.813-1.019
			c0.375-0.227,0.818-0.341,1.335-0.341c0.727,0,1.261,0.22,1.604,0.658c0.343,0.436,0.515,1.065,0.515,1.886v6.18h-2.181v-5.941
			c0-0.358-0.065-0.634-0.198-0.822c-0.132-0.189-0.35-0.284-0.656-0.284c-0.347,0-0.624,0.116-0.829,0.348
			c-0.206,0.232-0.308,0.602-0.308,1.106v5.594h-2.181v-5.941c0-0.358-0.066-0.634-0.197-0.822
			c-0.132-0.189-0.351-0.284-0.656-0.284c-0.347,0-0.624,0.116-0.829,0.348c-0.206,0.232-0.309,0.602-0.309,1.106v5.594h-2.181
			v-8.503H31.656z"/>
		<path fill="#0D68A9" d="M41.531,94.806c0-0.496,0.08-0.909,0.238-1.241s0.372-0.602,0.64-0.807
			c0.27-0.206,0.585-0.353,0.949-0.442c0.363-0.09,0.751-0.135,1.161-0.135c0.653,0,1.18,0.063,1.58,0.19
			c0.4,0.126,0.711,0.306,0.932,0.537c0.222,0.232,0.372,0.508,0.45,0.83c0.079,0.321,0.119,0.67,0.119,1.05v4.473
			c0,0.401,0.018,0.712,0.055,0.932c0.037,0.222,0.108,0.459,0.214,0.712h-2.086c-0.073-0.138-0.129-0.282-0.166-0.436
			c-0.037-0.152-0.071-0.302-0.103-0.449h-0.032c-0.252,0.443-0.545,0.729-0.876,0.86c-0.332,0.134-0.761,0.198-1.288,0.198
			c-0.38,0-0.701-0.064-0.965-0.198c-0.263-0.131-0.474-0.313-0.632-0.545c-0.158-0.231-0.274-0.492-0.348-0.782
			c-0.074-0.29-0.111-0.577-0.111-0.861c0-0.4,0.042-0.745,0.127-1.034s0.214-0.538,0.387-0.743
			c0.173-0.206,0.395-0.377,0.663-0.514c0.269-0.137,0.593-0.259,0.972-0.363l1.233-0.333c0.326-0.082,0.552-0.198,0.679-0.346
			c0.127-0.148,0.19-0.364,0.19-0.648c0-0.327-0.076-0.583-0.229-0.767c-0.153-0.184-0.413-0.276-0.782-0.276
			c-0.337,0-0.59,0.1-0.759,0.3c-0.168,0.2-0.252,0.47-0.252,0.806v0.237h-1.96V94.806z M45.04,96.93
			c-0.168,0.07-0.321,0.118-0.458,0.151c-0.443,0.095-0.758,0.252-0.948,0.474c-0.19,0.22-0.285,0.521-0.285,0.901
			c0,0.325,0.063,0.604,0.19,0.836c0.127,0.233,0.337,0.349,0.632,0.349c0.147,0,0.3-0.024,0.458-0.072
			c0.159-0.047,0.303-0.122,0.435-0.229c0.132-0.104,0.24-0.241,0.323-0.41c0.084-0.169,0.127-0.368,0.127-0.601v-1.675
			C45.367,96.77,45.209,96.861,45.04,96.93z"/>
		<path fill="#0D68A9" d="M51.235,92.401v1.139h0.031c0.221-0.41,0.49-0.74,0.806-0.988c0.317-0.247,0.701-0.371,1.154-0.371
			c0.063,0,0.129,0.004,0.198,0.008c0.068,0.006,0.134,0.013,0.197,0.024v2.086c-0.116-0.01-0.229-0.019-0.34-0.024
			c-0.111-0.004-0.224-0.007-0.339-0.007c-0.189,0-0.38,0.026-0.569,0.078c-0.189,0.055-0.364,0.141-0.521,0.261
			c-0.158,0.122-0.284,0.28-0.379,0.475c-0.096,0.195-0.143,0.434-0.143,0.72v5.104h-2.18v-8.503H51.235z"/>
		<path fill="#0D68A9" d="M58.464,94.852c-0.026-0.2-0.074-0.381-0.143-0.545c-0.068-0.163-0.166-0.294-0.292-0.396
			c-0.127-0.099-0.295-0.15-0.506-0.15c-0.263,0-0.479,0.062-0.648,0.184c-0.168,0.12-0.295,0.301-0.379,0.537
			c-0.084,0.236-0.143,0.538-0.174,0.901c-0.031,0.363-0.048,0.791-0.048,1.287c0,0.528,0.017,0.978,0.048,1.353
			c0.031,0.372,0.09,0.681,0.174,0.923c0.084,0.242,0.203,0.419,0.354,0.529c0.152,0.111,0.352,0.167,0.594,0.167
			c0.369,0,0.637-0.158,0.805-0.475c0.168-0.316,0.255-0.821,0.255-1.517h2.085c0,1.115-0.25,1.967-0.751,2.552
			c-0.502,0.584-1.332,0.877-2.489,0.877c-0.548,0-1.025-0.064-1.43-0.198c-0.406-0.131-0.743-0.368-1.012-0.71
			c-0.269-0.344-0.472-0.8-0.608-1.374c-0.137-0.575-0.206-1.289-0.206-2.143c0-0.875,0.083-1.599,0.253-2.173
			c0.168-0.574,0.405-1.032,0.711-1.375c0.305-0.343,0.669-0.582,1.09-0.719c0.422-0.137,0.886-0.206,1.392-0.206
			c1.011,0,1.771,0.296,2.284,0.886c0.509,0.589,0.766,1.39,0.766,2.402h-2.085C58.504,95.257,58.49,95.052,58.464,94.852z"/>
		<path fill="#0D68A9" d="M61.71,94.806c0-0.496,0.079-0.909,0.237-1.241c0.158-0.332,0.371-0.602,0.639-0.807
			c0.27-0.206,0.585-0.353,0.949-0.442c0.363-0.09,0.751-0.135,1.161-0.135c0.653,0,1.181,0.063,1.58,0.19
			c0.401,0.126,0.711,0.306,0.934,0.537c0.221,0.232,0.37,0.508,0.449,0.83c0.08,0.321,0.119,0.67,0.119,1.05v4.473
			c0,0.401,0.018,0.712,0.055,0.932c0.036,0.222,0.108,0.459,0.214,0.712h-2.086c-0.074-0.138-0.129-0.282-0.166-0.436
			c-0.037-0.152-0.071-0.302-0.103-0.449h-0.031c-0.254,0.443-0.546,0.729-0.878,0.86c-0.331,0.134-0.76,0.198-1.287,0.198
			c-0.381,0-0.7-0.064-0.964-0.198c-0.263-0.131-0.474-0.313-0.632-0.545c-0.159-0.231-0.274-0.492-0.348-0.782
			c-0.073-0.29-0.11-0.577-0.11-0.861c0-0.4,0.042-0.745,0.126-1.034c0.085-0.289,0.214-0.538,0.387-0.743
			c0.174-0.206,0.396-0.377,0.665-0.514c0.268-0.137,0.593-0.259,0.972-0.363l1.233-0.333c0.326-0.082,0.554-0.198,0.678-0.346
			c0.128-0.148,0.191-0.364,0.191-0.648c0-0.327-0.077-0.583-0.23-0.767c-0.152-0.184-0.413-0.276-0.781-0.276
			c-0.339,0-0.591,0.1-0.759,0.3c-0.169,0.2-0.252,0.47-0.252,0.806v0.237h-1.96V94.806z M65.219,96.93
			c-0.169,0.07-0.322,0.118-0.458,0.151c-0.441,0.095-0.757,0.252-0.948,0.474c-0.188,0.22-0.285,0.521-0.285,0.901
			c0,0.325,0.063,0.604,0.191,0.836c0.125,0.233,0.334,0.349,0.629,0.349c0.147,0,0.302-0.024,0.459-0.072
			c0.158-0.047,0.303-0.122,0.435-0.229c0.133-0.104,0.24-0.241,0.325-0.41c0.082-0.169,0.126-0.368,0.126-0.601v-1.675
			C65.546,96.77,65.387,96.861,65.219,96.93z"/>
		<path fill="#0D68A9" d="M73.657,100.004c-0.242,0.4-0.514,0.678-0.814,0.837c-0.3,0.157-0.671,0.237-1.113,0.237
			c-0.896,0-1.555-0.343-1.976-1.027c-0.421-0.684-0.631-1.817-0.631-3.397s0.21-2.721,0.631-3.421s1.08-1.052,1.976-1.052
			c0.411,0,0.762,0.085,1.051,0.254s0.55,0.421,0.783,0.757h0.03v-3.57h2.182v11.283h-2.086v-0.9H73.657z M71.516,98.747
			c0.143,0.469,0.45,0.704,0.925,0.704c0.484,0,0.798-0.235,0.939-0.704c0.143-0.469,0.214-1.166,0.214-2.094
			c0-0.927-0.071-1.625-0.214-2.095c-0.142-0.468-0.455-0.702-0.939-0.702c-0.475,0-0.782,0.234-0.925,0.702
			c-0.143,0.47-0.214,1.168-0.214,2.095C71.302,97.581,71.373,98.278,71.516,98.747z"/>
		<path fill="#0D68A9" d="M77.119,94.725c0.115-0.558,0.306-1.024,0.567-1.396c0.264-0.376,0.609-0.659,1.035-0.854
			c0.427-0.195,0.951-0.293,1.572-0.293c0.653-0.01,1.195,0.078,1.628,0.262c0.433,0.185,0.774,0.466,1.027,0.846
			c0.252,0.379,0.432,0.847,0.537,1.405c0.105,0.56,0.157,1.211,0.157,1.96c0,0.728-0.057,1.37-0.173,1.928
			c-0.117,0.559-0.307,1.025-0.569,1.398c-0.263,0.375-0.608,0.651-1.034,0.83c-0.427,0.179-0.952,0.269-1.573,0.269
			c-0.652,0.011-1.195-0.071-1.627-0.246c-0.433-0.173-0.774-0.446-1.026-0.821c-0.254-0.373-0.433-0.843-0.539-1.406
			c-0.104-0.563-0.157-1.214-0.157-1.951C76.944,95.926,77.002,95.284,77.119,94.725z M79.156,97.854
			c0.021,0.369,0.07,0.685,0.15,0.948c0.079,0.264,0.197,0.469,0.355,0.616c0.158,0.149,0.369,0.223,0.632,0.223
			c0.444,0,0.748-0.232,0.916-0.696c0.169-0.463,0.255-1.228,0.255-2.291s-0.086-1.826-0.255-2.291
			c-0.168-0.464-0.472-0.695-0.916-0.695c-0.263,0-0.474,0.073-0.632,0.222c-0.158,0.147-0.276,0.352-0.355,0.615
			c-0.08,0.263-0.129,0.58-0.15,0.948c-0.02,0.369-0.032,0.769-0.032,1.201C79.124,97.085,79.137,97.485,79.156,97.854z"/>
		<path fill="#0D68A9" d="M86.9,92.401v1.139h0.03c0.222-0.41,0.491-0.74,0.807-0.988c0.317-0.247,0.701-0.371,1.154-0.371
			c0.063,0,0.128,0.004,0.196,0.008c0.068,0.006,0.135,0.013,0.198,0.024v2.086c-0.115-0.01-0.23-0.019-0.341-0.024
			c-0.111-0.004-0.223-0.007-0.339-0.007c-0.189,0-0.378,0.026-0.568,0.078c-0.19,0.055-0.363,0.141-0.522,0.261
			c-0.157,0.122-0.284,0.28-0.378,0.475c-0.096,0.195-0.144,0.434-0.144,0.72v5.104h-2.181v-8.503H86.9z"/>
		<path fill="#0D68A9" d="M91.94,97.664c0,0.254,0.018,0.499,0.055,0.735c0.037,0.237,0.099,0.446,0.183,0.633
			c0.084,0.184,0.195,0.331,0.331,0.441c0.138,0.111,0.307,0.167,0.507,0.167c0.367,0,0.637-0.133,0.806-0.396
			c0.168-0.264,0.284-0.664,0.348-1.201h1.959c-0.042,0.99-0.306,1.743-0.79,2.259c-0.485,0.518-1.248,0.775-2.292,0.775
			c-0.79,0-1.406-0.133-1.849-0.396c-0.442-0.263-0.769-0.609-0.979-1.041c-0.211-0.434-0.34-0.917-0.387-1.455
			c-0.048-0.536-0.071-1.074-0.071-1.611c0-0.568,0.04-1.116,0.118-1.643c0.08-0.527,0.238-0.996,0.475-1.406
			c0.236-0.412,0.576-0.738,1.02-0.981c0.441-0.241,1.032-0.363,1.77-0.363c0.633,0,1.151,0.104,1.558,0.31
			c0.404,0.204,0.724,0.494,0.954,0.868c0.233,0.374,0.391,0.827,0.475,1.358c0.084,0.533,0.127,1.126,0.127,1.778v0.489H91.94
			V97.664z M94.105,94.828c-0.031-0.247-0.086-0.458-0.167-0.632c-0.078-0.174-0.188-0.306-0.331-0.396
			c-0.143-0.088-0.324-0.134-0.545-0.134c-0.222,0-0.403,0.051-0.546,0.15c-0.142,0.099-0.255,0.231-0.339,0.395
			s-0.146,0.345-0.183,0.545s-0.055,0.4-0.055,0.602v0.33h2.229C94.157,95.362,94.137,95.076,94.105,94.828z"/>
		<path fill="#0D68A9" d="M98.989,98.408c0,0.368,0.096,0.666,0.292,0.893c0.195,0.226,0.476,0.34,0.846,0.34
			c0.337,0,0.604-0.085,0.806-0.254c0.199-0.167,0.3-0.421,0.3-0.758c0-0.274-0.079-0.482-0.237-0.625s-0.342-0.255-0.553-0.34
			l-1.533-0.553c-0.601-0.211-1.054-0.508-1.359-0.894c-0.306-0.385-0.457-0.877-0.457-1.476c0-0.348,0.058-0.679,0.173-0.988
			c0.117-0.312,0.301-0.582,0.554-0.813s0.577-0.417,0.972-0.554c0.396-0.137,0.871-0.206,1.43-0.206
			c0.99,0,1.722,0.212,2.196,0.633c0.476,0.422,0.712,1.017,0.712,1.784v0.349h-1.959c0-0.442-0.072-0.767-0.214-0.971
			c-0.143-0.206-0.393-0.309-0.75-0.309c-0.274,0-0.514,0.076-0.719,0.229c-0.206,0.152-0.309,0.381-0.309,0.688
			c0,0.209,0.066,0.398,0.197,0.567c0.131,0.17,0.381,0.312,0.751,0.428l1.312,0.442c0.684,0.231,1.168,0.534,1.454,0.908
			c0.284,0.375,0.426,0.883,0.426,1.526c0,0.451-0.079,0.845-0.236,1.176c-0.158,0.331-0.378,0.609-0.656,0.831
			c-0.279,0.219-0.611,0.378-0.996,0.474c-0.385,0.094-0.809,0.142-1.271,0.142c-0.611,0-1.12-0.059-1.524-0.174
			c-0.406-0.116-0.728-0.29-0.964-0.522c-0.237-0.231-0.404-0.513-0.499-0.845s-0.141-0.703-0.141-1.114v-0.301h1.959V98.408z"/>
	</g>
</g>
</svg>
