<?xml version="1.0" encoding="utf-8"?>
<!-- Generator: Adobe Illustrator 16.0.0, SVG Export Plug-In . SVG Version: 6.00 Build 0)  -->
<!DOCTYPE svg PUBLIC "-//W3C//DTD SVG 1.1//EN" "http://www.w3.org/Graphics/SVG/1.1/DTD/svg11.dtd">
<svg version="1.1" id="Layer_1" xmlns="http://www.w3.org/2000/svg" xmlns:xlink="http://www.w3.org/1999/xlink" x="0px" y="0px"
	 width="34px" height="34px" viewBox="0 0 34 34" enable-background="new 0 0 34 34" xml:space="preserve">
<path fill="#FFFFFF" d="M29.75,12.75H18.202c0.746-2.686,1.123-3.34,1.123-6.176c0-2.453-1.996-4.449-4.449-4.449
	s-4.449,1.996-4.449,4.449c0,3.452-1.286,5.045-3.821,6.83c-0.075,0.053-0.152,0.105-0.229,0.156v-2.936H0.002v21.25h6.375V29.98
	c2.114,0.144,2.693,0.737,3.402,1.465c0.546,0.561,1.226,1.259,2.458,1.769c1.293,0.536,2.977,0.785,5.297,0.785h2.157
	c2.058,0,3.73-1.702,3.73-3.795c0-0.349-0.047-0.693-0.139-1.026c0.654-0.697,1.027-1.627,1.027-2.617
	c0-0.348-0.047-0.692-0.139-1.025c0.654-0.697,1.028-1.627,1.028-2.617c0-0.6-0.138-1.165-0.382-1.67h4.936
	c2.348,0,4.25-1.902,4.25-4.25c0-2.347-1.902-4.25-4.25-4.25L29.75,12.75z M3.188,29.75c-0.587,0-1.063-0.477-1.063-1.063
	c0-0.588,0.476-1.063,1.063-1.063s1.063,0.476,1.063,1.063C4.251,29.273,3.775,29.75,3.188,29.75z M29.551,19.125h-8.5v2.125h0.217
	c0.885,0,1.605,0.749,1.605,1.67c0,0.577-0.281,1.105-0.752,1.414l-0.823,0.539l0.476,0.861c0.138,0.252,0.211,0.537,0.211,0.828
	c0,0.578-0.281,1.105-0.752,1.414l-0.823,0.539l0.475,0.862c0.138,0.251,0.212,0.537,0.212,0.828c0,0.921-0.721,1.67-1.605,1.67
	h-2.158c-4.202,0-5.05-1.269-5.947-2.19c-0.916-0.939-1.942-1.992-5.01-2.215V16.368c0.523-0.274,1.019-0.573,1.483-0.899
	c3.201-2.253,4.892-4.633,4.892-8.894c0-1.062,0.997-1.926,2.059-1.926s1.992,0.864,1.992,1.926c0,2.844-0.412,3.5-1.227,6.176
	c-0.203,0.755-0.396,1.503-0.527,2.103l14.504,0.022c1.172,0,2.125,0.953,2.125,2.125S30.723,19.126,29.551,19.125L29.551,19.125z"
	/>
</svg>
