<?xml version="1.0" encoding="utf-8"?>
<!-- Generated by IcoMoon.io -->
<!DOCTYPE svg PUBLIC "-//W3C//DTD SVG 1.1//EN" "http://www.w3.org/Graphics/SVG/1.1/DTD/svg11.dtd">
<svg version="1.1" xmlns="http://www.w3.org/2000/svg" xmlns:xlink="http://www.w3.org/1999/xlink" width="34" height="34" viewBox="0 0 34 34">
<g>
</g>
	<path d="M28.334 0h-22.666c-3.117 0-5.667 2.55-5.667 5.667v22.665c0 3.119 2.55 5.667 5.667 5.667h22.666c3.117 0 5.666-2.548 5.666-5.667v-22.665c0-3.117-2.549-5.667-5.666-5.667zM27.826 11.35c0.011 0.244 0.016 0.489 0.016 0.735 0 7.511-5.618 16.172-15.893 16.172-3.154 0-6.091-0.941-8.563-2.554 0.437 0.053 0.882 0.079 1.332 0.079 2.617 0 5.026-0.909 6.937-2.433-2.444-0.046-4.507-1.689-5.218-3.947 0.341 0.066 0.691 0.102 1.051 0.102 0.509 0 1.003-0.070 1.472-0.199-2.555-0.522-4.481-2.819-4.481-5.573 0-0.024 0-0.048 0.001-0.071 0.753 0.426 1.614 0.681 2.53 0.711-1.499-1.019-2.485-2.759-2.485-4.731 0-1.042 0.275-2.018 0.756-2.857 2.755 3.439 6.871 5.702 11.513 5.939-0.095-0.416-0.145-0.85-0.145-1.295 0-3.139 2.501-5.684 5.586-5.684 1.607 0 3.059 0.69 4.077 1.795 1.272-0.255 2.468-0.728 3.547-1.379-0.417 1.327-1.303 2.441-2.456 3.145 1.13-0.137 2.206-0.443 3.208-0.895-0.749 1.14-1.696 2.141-2.787 2.942z" fill="#7d7d7d" />
</svg>
