<?xml version="1.0" encoding="utf-8"?>
<!-- Generator: Adobe Illustrator 15.0.0, SVG Export Plug-In . SVG Version: 6.00 Build 0)  -->
<!DOCTYPE svg PUBLIC "-//W3C//DTD SVG 1.1//EN" "http://www.w3.org/Graphics/SVG/1.1/DTD/svg11.dtd">
<svg version="1.1" id="Layer_1" xmlns="http://www.w3.org/2000/svg" xmlns:xlink="http://www.w3.org/1999/xlink" x="0px" y="0px"
	 width="212px" height="212px" viewBox="0 0 212 212" enable-background="new 0 0 212 212" xml:space="preserve">
<g id="Layer_2_1_">
	<rect x="1.5" fill="#FFFFFF" width="212" height="212"/>
</g>
<g id="Layer_1_1_">
	<g id="Layer_2">
		<g>
			<g>
				<path fill="#0D68AA" d="M61.098,144.369c0,0.539,0.035,1.035,0.105,1.484c0.069,0.451,0.199,0.84,0.39,1.17
					c0.189,0.33,0.45,0.592,0.78,0.781c0.33,0.188,0.745,0.283,1.245,0.283c0.52,0,0.939-0.096,1.26-0.283
					c0.319-0.189,0.574-0.451,0.765-0.781s0.32-0.719,0.391-1.17c0.069-0.449,0.104-0.945,0.104-1.484V129.43h4.32v14.939
					c0,1.359-0.19,2.484-0.57,3.375c-0.38,0.891-0.89,1.596-1.53,2.115c-0.64,0.519-1.37,0.869-2.189,1.049
					c-0.82,0.182-1.67,0.271-2.55,0.271c-0.881,0-1.73-0.08-2.551-0.24c-0.821-0.16-1.55-0.484-2.189-0.977
					c-0.641-0.488-1.15-1.188-1.53-2.086c-0.38-0.898-0.569-2.068-0.569-3.51V129.43h4.319L61.098,144.369L61.098,144.369z"/>
				<path fill="#0D68AA" d="M77.027,134.709v1.891h0.061c0.439-0.801,1.01-1.385,1.71-1.756c0.699-0.369,1.5-0.555,2.399-0.555
					c1.32,0,2.335,0.359,3.045,1.08s1.065,1.891,1.065,3.51v11.971h-4.14v-11.131c0-0.84-0.141-1.424-0.421-1.754
					c-0.28-0.33-0.729-0.496-1.35-0.496c-1.46,0-2.19,0.891-2.19,2.67v10.711h-4.14v-16.141H77.027z"/>
				<path fill="#0D68AA" d="M92.357,129.189v3.539h-4.14v-3.539H92.357z M92.357,134.709v16.141h-4.14v-16.141H92.357z"/>
				<path fill="#0D68AA" d="M99.228,134.709v2.16h0.061c0.42-0.779,0.93-1.404,1.529-1.875c0.601-0.469,1.33-0.705,2.19-0.705
					c0.12,0,0.244,0.006,0.375,0.016c0.13,0.01,0.255,0.025,0.375,0.045v3.959c-0.221-0.02-0.436-0.033-0.646-0.045
					c-0.21-0.01-0.425-0.014-0.645-0.014c-0.36,0-0.72,0.049-1.08,0.148c-0.36,0.102-0.69,0.266-0.99,0.496
					c-0.3,0.229-0.54,0.527-0.72,0.898c-0.18,0.369-0.271,0.824-0.271,1.363v9.689h-4.14v-16.141h3.962V134.709z"/>
				<path fill="#0D68AA" d="M108.287,146.109c0,0.699,0.186,1.266,0.555,1.695c0.37,0.428,0.905,0.645,1.605,0.645
					c0.64,0,1.148-0.16,1.529-0.48c0.379-0.318,0.568-0.799,0.568-1.438c0-0.521-0.148-0.916-0.449-1.188
					c-0.301-0.27-0.648-0.484-1.051-0.645l-2.908-1.051c-1.142-0.398-2-0.965-2.582-1.693c-0.58-0.73-0.87-1.666-0.87-2.807
					c0-0.66,0.11-1.283,0.33-1.875c0.22-0.59,0.57-1.104,1.051-1.545c0.479-0.439,1.095-0.789,1.845-1.049
					c0.75-0.262,1.653-0.393,2.715-0.393c1.88,0,3.271,0.398,4.17,1.197c0.899,0.803,1.351,1.934,1.351,3.393v0.66h-3.721
					c0-0.84-0.135-1.455-0.404-1.848c-0.271-0.389-0.744-0.584-1.424-0.584c-0.521,0-0.977,0.146-1.365,0.438
					c-0.392,0.289-0.586,0.727-0.586,1.307c0,0.398,0.125,0.76,0.375,1.08c0.25,0.318,0.727,0.59,1.427,0.809l2.489,0.842
					c1.299,0.439,2.221,1.014,2.761,1.725c0.54,0.709,0.81,1.674,0.81,2.896c0,0.857-0.148,1.604-0.449,2.232
					c-0.301,0.631-0.716,1.156-1.246,1.576c-0.527,0.42-1.16,0.719-1.89,0.898c-0.729,0.182-1.534,0.271-2.415,0.271
					c-1.16,0-2.125-0.111-2.895-0.33c-0.771-0.223-1.38-0.553-1.83-0.99c-0.45-0.439-0.766-0.977-0.945-1.605
					c-0.18-0.629-0.27-1.334-0.27-2.115v-0.57h3.72L108.287,146.109L108.287,146.109z"/>
				<path fill="#0D68AA" d="M122.116,144.699c0,0.48,0.034,0.945,0.104,1.395c0.068,0.451,0.186,0.852,0.346,1.201
					s0.369,0.629,0.629,0.84c0.261,0.209,0.58,0.314,0.961,0.314c0.699,0,1.21-0.25,1.529-0.75c0.318-0.5,0.541-1.26,0.66-2.279
					h3.721c-0.08,1.879-0.58,3.309-1.5,4.289s-2.371,1.471-4.353,1.471c-1.5,0-2.67-0.25-3.51-0.75
					c-0.841-0.5-1.46-1.16-1.858-1.979c-0.4-0.82-0.646-1.74-0.734-2.762c-0.09-1.02-0.135-2.041-0.135-3.061
					c0-1.08,0.073-2.119,0.225-3.119c0.15-1,0.449-1.891,0.9-2.67c0.448-0.781,1.094-1.4,1.935-1.861
					c0.84-0.459,1.96-0.688,3.36-0.688c1.199,0,2.185,0.193,2.955,0.586c0.77,0.391,1.375,0.938,1.812,1.646
					c0.439,0.711,0.738,1.57,0.898,2.58c0.16,1.014,0.24,2.139,0.24,3.375v0.932h-8.189L122.116,144.699L122.116,144.699z
					 M126.227,139.314c-0.061-0.473-0.164-0.871-0.313-1.201c-0.147-0.33-0.358-0.578-0.63-0.75
					c-0.271-0.168-0.615-0.254-1.035-0.254s-0.766,0.096-1.035,0.285c-0.271,0.188-0.482,0.438-0.646,0.75
					c-0.159,0.311-0.273,0.652-0.344,1.035c-0.07,0.379-0.104,0.76-0.104,1.139v0.631h4.229
					C126.326,140.33,126.286,139.785,126.227,139.314z"/>
				<path fill="#0D68AA" d="M139.637,139.27c0-0.938,0.149-1.725,0.449-2.354c0.301-0.63,0.705-1.143,1.215-1.529
					c0.512-0.391,1.11-0.67,1.801-0.84c0.689-0.17,1.426-0.256,2.205-0.256c1.239,0,2.239,0.119,3,0.357
					c0.76,0.24,1.352,0.58,1.771,1.021c0.42,0.439,0.705,0.965,0.854,1.574c0.149,0.609,0.227,1.275,0.227,1.994v8.49
					c0,0.762,0.033,1.352,0.104,1.771s0.205,0.869,0.405,1.351h-3.96c-0.141-0.261-0.245-0.535-0.312-0.826
					c-0.07-0.289-0.138-0.573-0.195-0.854h-0.062c-0.479,0.84-1.033,1.387-1.664,1.637s-1.443,0.375-2.443,0.375
					c-0.721,0-1.33-0.125-1.83-0.375s-0.9-0.598-1.2-1.035c-0.3-0.439-0.521-0.938-0.66-1.486s-0.21-1.094-0.21-1.635
					c0-0.76,0.08-1.414,0.24-1.965s0.404-1.021,0.734-1.41c0.33-0.39,0.75-0.715,1.26-0.977c0.511-0.26,1.125-0.488,1.846-0.688
					l2.34-0.631c0.62-0.16,1.051-0.379,1.29-0.66c0.24-0.279,0.36-0.689,0.36-1.229c0-0.62-0.146-1.104-0.438-1.455
					c-0.289-0.35-0.783-0.524-1.482-0.524c-0.643,0-1.121,0.188-1.44,0.57c-0.319,0.379-0.479,0.889-0.479,1.528v0.449h-3.721v-0.39
					H139.637z M146.296,143.305c-0.319,0.129-0.61,0.225-0.87,0.285c-0.84,0.18-1.439,0.479-1.8,0.898
					c-0.358,0.42-0.54,0.99-0.54,1.711c0,0.619,0.12,1.15,0.359,1.59c0.24,0.439,0.641,0.66,1.201,0.66
					c0.277,0,0.567-0.045,0.869-0.135c0.301-0.09,0.573-0.234,0.823-0.438c0.25-0.197,0.455-0.459,0.615-0.777
					c0.16-0.32,0.239-0.701,0.239-1.143v-3.182C146.916,143,146.616,143.174,146.296,143.305z"/>
				<path fill="#0D68AA" d="M58.803,172.959c-0.439,0.801-1.01,1.371-1.71,1.711c-0.7,0.34-1.5,0.51-2.399,0.51
					c-1.32,0-2.336-0.346-3.045-1.035c-0.711-0.688-1.065-1.846-1.065-3.465v-11.971h4.14v11.131c0,0.84,0.141,1.424,0.421,1.754
					c0.279,0.33,0.729,0.496,1.35,0.496c1.46,0,2.19-0.891,2.19-2.67v-10.711h4.14v16.141h-3.96v-1.891H58.803z"/>
				<path fill="#0D68AA" d="M69.543,158.709v1.891h0.061c0.439-0.801,1.01-1.385,1.71-1.756c0.699-0.369,1.5-0.555,2.399-0.555
					c1.32,0,2.335,0.359,3.045,1.08s1.065,1.891,1.065,3.51v11.971h-4.14v-11.131c0-0.84-0.141-1.424-0.421-1.754
					c-0.28-0.33-0.729-0.496-1.35-0.496c-1.46,0-2.19,0.891-2.19,2.67v10.711h-4.14v-16.141H69.543z"/>
				<path fill="#0D68AA" d="M80.553,163.27c0-0.938,0.15-1.725,0.45-2.354c0.3-0.63,0.705-1.143,1.215-1.529
					c0.511-0.391,1.11-0.67,1.801-0.84c0.689-0.17,1.425-0.256,2.204-0.256c1.24,0,2.24,0.119,3,0.357
					c0.761,0.24,1.351,0.58,1.771,1.021c0.42,0.439,0.705,0.965,0.854,1.574c0.15,0.609,0.226,1.275,0.226,1.994v8.49
					c0,0.762,0.034,1.352,0.104,1.771c0.07,0.419,0.205,0.869,0.405,1.351h-3.96c-0.14-0.261-0.245-0.535-0.314-0.826
					c-0.07-0.289-0.136-0.573-0.195-0.854h-0.061c-0.479,0.84-1.034,1.387-1.665,1.637c-0.63,0.25-1.444,0.375-2.444,0.375
					c-0.721,0-1.33-0.125-1.83-0.375s-0.9-0.598-1.2-1.035c-0.3-0.439-0.521-0.938-0.66-1.486c-0.14-0.549-0.21-1.094-0.21-1.635
					c0-0.76,0.08-1.414,0.24-1.965c0.16-0.551,0.405-1.021,0.735-1.41c0.329-0.391,0.75-0.715,1.26-0.977
					c0.51-0.26,1.125-0.488,1.845-0.688l2.34-0.631c0.62-0.16,1.05-0.379,1.29-0.66c0.24-0.279,0.36-0.689,0.36-1.229
					c0-0.62-0.146-1.104-0.436-1.455c-0.29-0.35-0.785-0.524-1.484-0.524c-0.641,0-1.12,0.188-1.44,0.57
					c-0.32,0.379-0.479,0.889-0.479,1.528v0.449h-3.721L80.553,163.27L80.553,163.27z M87.213,167.305
					c-0.32,0.129-0.61,0.225-0.87,0.285c-0.84,0.18-1.439,0.479-1.8,0.898c-0.359,0.42-0.54,0.99-0.54,1.711
					c0,0.619,0.12,1.15,0.36,1.59c0.24,0.439,0.64,0.66,1.2,0.66c0.279,0,0.569-0.045,0.87-0.135c0.3-0.09,0.574-0.234,0.824-0.438
					c0.25-0.197,0.455-0.459,0.615-0.777c0.16-0.32,0.24-0.701,0.24-1.143v-3.182C87.833,167,87.533,167.174,87.213,167.305z"/>
				<path fill="#0D68AA" d="M106.172,158.709v1.711h0.061c0.458-0.76,0.975-1.307,1.544-1.637c0.57-0.328,1.273-0.494,2.115-0.494
					c1.698,0,2.948,0.666,3.75,1.994c0.799,1.332,1.198,3.496,1.198,6.496s-0.399,5.15-1.198,6.449
					c-0.802,1.301-2.052,1.951-3.75,1.951c-0.779,0-1.445-0.146-1.994-0.438c-0.551-0.289-1.047-0.754-1.485-1.396h-0.061v6.689
					h-4.14v-21.33h3.96V158.709z M106.757,170.754c0.271,0.891,0.865,1.336,1.785,1.336c0.899,0,1.485-0.445,1.755-1.336
					c0.271-0.889,0.405-2.215,0.405-3.975s-0.136-3.086-0.405-3.975c-0.27-0.893-0.854-1.338-1.755-1.338
					c-0.92,0-1.515,0.445-1.785,1.338c-0.27,0.889-0.405,2.215-0.405,3.975S106.487,169.865,106.757,170.754z"/>
				<path fill="#0D68AA" d="M117.002,163.119c0.221-1.061,0.58-1.945,1.08-2.654c0.5-0.711,1.154-1.25,1.965-1.621
					c0.811-0.369,1.805-0.555,2.985-0.555c1.239-0.02,2.27,0.145,3.09,0.494c0.819,0.352,1.47,0.887,1.95,1.605
					c0.479,0.721,0.818,1.609,1.02,2.67c0.2,1.061,0.301,2.301,0.301,3.721c0,1.379-0.108,2.6-0.33,3.66
					c-0.221,1.06-0.58,1.943-1.08,2.652c-0.5,0.713-1.153,1.236-1.965,1.576c-0.811,0.34-1.806,0.512-2.983,0.512
					c-1.24,0.02-2.271-0.137-3.091-0.467c-0.819-0.33-1.471-0.85-1.949-1.562c-0.479-0.709-0.82-1.6-1.021-2.67
					c-0.201-1.068-0.301-2.305-0.301-3.705C116.672,165.398,116.781,164.18,117.002,163.119z M120.872,169.059
					c0.04,0.701,0.135,1.301,0.285,1.801c0.149,0.5,0.375,0.893,0.675,1.17c0.3,0.279,0.7,0.422,1.2,0.422
					c0.84,0,1.42-0.439,1.739-1.32c0.318-0.879,0.479-2.33,0.479-4.352c0-2.02-0.16-3.471-0.479-4.35
					c-0.319-0.881-0.899-1.32-1.739-1.32c-0.5,0-0.9,0.143-1.2,0.42c-0.3,0.279-0.525,0.672-0.675,1.172
					c-0.15,0.5-0.245,1.1-0.285,1.801c-0.04,0.699-0.06,1.459-0.06,2.277C120.812,167.6,120.832,168.359,120.872,169.059z"/>
				<path fill="#0D68AA" d="M135.902,153.43v21.42h-4.142v-21.42H135.902z"/>
				<path fill="#0D68AA" d="M143.102,153.43v21.42h-4.14v-21.42H143.102z"/>
				<path fill="#0D68AA" d="M145.98,163.27c0-0.938,0.149-1.725,0.451-2.354c0.299-0.63,0.705-1.143,1.215-1.529
					c0.511-0.391,1.108-0.67,1.801-0.84c0.688-0.17,1.425-0.256,2.203-0.256c1.24,0,2.24,0.119,3,0.357
					c0.762,0.24,1.352,0.58,1.771,1.021c0.42,0.439,0.705,0.965,0.854,1.574s0.227,1.275,0.227,1.994v8.49
					c0,0.762,0.034,1.352,0.104,1.771c0.07,0.419,0.205,0.869,0.406,1.351h-3.961c-0.14-0.261-0.244-0.535-0.314-0.826
					c-0.068-0.289-0.135-0.573-0.193-0.854h-0.062c-0.479,0.84-1.032,1.387-1.664,1.637c-0.631,0.25-1.443,0.375-2.443,0.375
					c-0.723,0-1.33-0.125-1.83-0.375s-0.898-0.598-1.2-1.035c-0.3-0.439-0.521-0.938-0.659-1.486
					c-0.141-0.549-0.209-1.094-0.209-1.635c0-0.76,0.078-1.414,0.238-1.965s0.405-1.021,0.735-1.41
					c0.327-0.391,0.75-0.715,1.26-0.977c0.51-0.26,1.125-0.488,1.845-0.688l2.342-0.631c0.619-0.16,1.049-0.379,1.289-0.66
					c0.239-0.279,0.359-0.689,0.359-1.229c0-0.62-0.146-1.104-0.438-1.455c-0.289-0.35-0.785-0.524-1.482-0.524
					c-0.643,0-1.12,0.188-1.439,0.57c-0.32,0.379-0.479,0.889-0.479,1.528v0.449h-3.722v-0.388h-0.002V163.27z M152.643,167.305
					c-0.319,0.129-0.609,0.225-0.871,0.285c-0.84,0.18-1.438,0.479-1.799,0.898c-0.358,0.42-0.541,0.99-0.541,1.711
					c0,0.619,0.12,1.15,0.36,1.59s0.64,0.66,1.2,0.66c0.279,0,0.568-0.045,0.869-0.135s0.574-0.234,0.824-0.438
					c0.25-0.197,0.455-0.459,0.614-0.777c0.16-0.32,0.24-0.701,0.24-1.143v-3.182C153.262,167,152.962,167.174,152.643,167.305z"/>
			</g>
			<g>
				<g>
					<g>
						
							<linearGradient id="SVGID_1_" gradientUnits="userSpaceOnUse" x1="345.665" y1="733.3047" x2="345.665" y2="696.8789" gradientTransform="matrix(1 0 0 1 -276 -623)">
							<stop  offset="0" style="stop-color:#FFFFFF"/>
							<stop  offset="1" style="stop-color:#817E7E"/>
						</linearGradient>
						<path fill="url(#SVGID_1_)" d="M78.629,86.859l1.047-12.119l-1.82-0.862c0,1.251-6.897,5.368-8.165,5.368
							c-1.506,0-8.162-4.195-8.162-5.368l-1.873,0.862l1.102,12.119l2.9,8.57l4.817,14.875h2.436l4.813-14.875L78.629,86.859z"/>
						
							<linearGradient id="SVGID_2_" gradientUnits="userSpaceOnUse" x1="345.75" y1="704.5928" x2="345.5379" y2="735.1792" gradientTransform="matrix(1 0 0 1 -276 -623)">
							<stop  offset="0" style="stop-color:#A11D21"/>
							<stop  offset="0.0296" style="stop-color:#A61E22"/>
							<stop  offset="0.1735" style="stop-color:#BA1F24"/>
							<stop  offset="0.3433" style="stop-color:#C91F26"/>
							<stop  offset="0.5616" style="stop-color:#D21F26"/>
							<stop  offset="1" style="stop-color:#D51F26"/>
						</linearGradient>
						<path fill="url(#SVGID_2_)" d="M92.337,79.162c-0.931-0.088-8.494-2.916-10.015-3.124l-2.646-1.298l-9.99,8.946l-10.03-8.946
							l-2.74,1.316c-1.462,0.199-8.964,3.021-9.866,3.105c-6.391,0.599-7.044,3.546-7.044,10.747c0,2.774,3.416,7.674,3.842,10.417
							c1.099,7.059,3.71,9.979,10.128,9.979h31.432c6.421,0,8.875-2.992,10.13-9.979c0.491-2.731,3.842-7.643,3.842-10.417
							C99.378,83.004,98.728,79.76,92.337,79.162z"/>
					</g>
					<g>
						
							<radialGradient id="SVGID_3_" cx="345.6895" cy="678.248" r="15.7453" gradientTransform="matrix(1 0 0 1 -276 -623)" gradientUnits="userSpaceOnUse">
							<stop  offset="0" style="stop-color:#F7E4CF"/>
							<stop  offset="0.0993" style="stop-color:#F7E2CA"/>
							<stop  offset="0.2281" style="stop-color:#F5DABC"/>
							<stop  offset="0.3732" style="stop-color:#F1CDA4"/>
							<stop  offset="0.529" style="stop-color:#EDBC86"/>
							<stop  offset="0.6373" style="stop-color:#E9AF6F"/>
							<stop  offset="0.7005" style="stop-color:#DDA56A"/>
							<stop  offset="0.789" style="stop-color:#C48F5F"/>
							<stop  offset="0.8924" style="stop-color:#9F704E"/>
							<stop  offset="1" style="stop-color:#754E3A"/>
						</radialGradient>
						<path fill="url(#SVGID_3_)" d="M69.69,37.573c-9.856,0-13.545,5.007-13.545,13.924c0,3.266,0.919,4.18,1.265,6.804
							c0.17,1.291,0.58,3.992,1.219,4.904c1.845,2.636,2.909,4.952,4.233,6.661c1.473,1.905,3.27,3.056,6.828,3.056
							c3.55,0,5.35-1.07,6.836-2.953c1.319-1.673,2.393-3.986,4.224-6.764c0.858-1.298,1.299-4.582,1.495-6.487
							c0.23-2.229,0.989-2.592,0.989-5.221C83.234,42.58,79.544,37.573,69.69,37.573z"/>
						
							<linearGradient id="SVGID_4_" gradientUnits="userSpaceOnUse" x1="345.6914" y1="702.2461" x2="345.6914" y2="692.8691" gradientTransform="matrix(1 0 0 1 -276 -623)">
							<stop  offset="0" style="stop-color:#F0C89B"/>
							<stop  offset="0.0719" style="stop-color:#EFC596"/>
							<stop  offset="0.1711" style="stop-color:#EDBD87"/>
							<stop  offset="0.2863" style="stop-color:#EAB071"/>
							<stop  offset="0.4126" style="stop-color:#E59F51"/>
							<stop  offset="0.4559" style="stop-color:#E39844"/>
							<stop  offset="1" style="stop-color:#6E4631"/>
						</linearGradient>
						<path fill="url(#SVGID_4_)" d="M76.378,72.59c0-1.42,0.068-2.171,0.147-2.619c-1.486,1.882-3.286,2.95-6.835,2.95
							c-3.557,0-5.353-1.149-6.826-3.052c0.053,0.543,0.095,1.367,0.095,2.613c0,0.963-0.057,1.395-1.431,1.395
							c0,1.173,6.656,5.368,8.162,5.368c1.268,0,8.165-4.117,8.165-5.368C76.821,73.877,76.378,73.525,76.378,72.59z"/>
						
							<linearGradient id="SVGID_5_" gradientUnits="userSpaceOnUse" x1="330.0801" y1="667.875" x2="353.7998" y2="667.875" gradientTransform="matrix(1 0 0 1 -276 -623)">
							<stop  offset="0" style="stop-color:#000000"/>
							<stop  offset="1" style="stop-color:#706D6D"/>
						</linearGradient>
						<path fill="url(#SVGID_5_)" d="M77.395,39.208c-2.468,2.235-3.896,2.014-6.401,2.021c-2.945,0.01-2.072-0.711-3.388,1.653
							c0.016-1.207-0.925,0.896-1.066-0.234c-1.872,0.229-2.08-0.913-3.158,0.613c-0.155-1.071-0.975,0.22-0.896-0.832
							c-1.985,0.796-4.638,0.122-4.638,5.164c0,1.866,0.474,3.442-0.481,4.212c-1.144,0.919,0.104,5.3,0.044,6.496
							c-1.432,0-1.562-2.49-1.664-3.851c-0.162-2.126-1.17-1.824-1.372-3.945c-0.336-3.497-0.593-5.111,0.443-8.467
							c1.098-3.553,2.117-6.286,5.417-7.918c2.478-1.224,5.975-3.309,8.49-2.479c1.739,0.57,5.367,0.976,7.043,1.832
							c1.348,0.689,1.694,0.831,1.797,1.204c0.091,0.33-0.006,0.839,0.23,2.061C77.846,37.003,77.509,39.104,77.395,39.208z"/>
						
							<linearGradient id="SVGID_6_" gradientUnits="userSpaceOnUse" x1="353.3945" y1="668.4141" x2="361.3428" y2="668.4141" gradientTransform="matrix(1 0 0 1 -276 -623)">
							<stop  offset="0" style="stop-color:#000000"/>
							<stop  offset="1" style="stop-color:#706D6D"/>
						</linearGradient>
						<path fill="url(#SVGID_6_)" d="M84.379,41.876c-0.242-1.295-1.922-4.477-2.461-5.006c-0.652-0.642-1.192-2.212-1.676-2.577
							c-0.399-0.306-2.333-0.257-2.678,0.383c0.091,0.33-0.006,0.839,0.23,2.061c0.051,0.267-0.286,2.367-0.4,2.471
							c0.127,0.492,0.478,1.356,1.026,1.59c1.255,0.533,1.606,0.605,1.208,1.854c0.331-0.507,0.524-0.494,0.581-0.811
							c0.607,0.996,1.046,2.09,1.011,2.718c-0.043,0.817-0.194,1.653-0.01,2.438c0.167,0.717,0.38,1.434,0.865,3.429
							c0.182,0.745,0.519,0.695,0.432,1.445c-0.182,1.573-0.314,3.249-0.265,4.846c0.737,0,1.293-0.655,1.352-1.124
							c0.091-0.743,0.362-1.894,0.797-2.917c0.235-0.559,0.954-2.652,0.952-4.113C85.343,45.279,84.554,42.808,84.379,41.876z"/>
					</g>
				</g>
				<g>
					<g>
						<path fill="#FFFFFF" d="M149.876,86.859l1.047-12.119l-1.819-0.862c0,1.251-6.896,5.368-8.166,5.368
							c-1.506,0-8.162-4.195-8.162-5.368l-1.873,0.862l1.104,12.119l2.898,8.57l4.818,14.875h2.438l4.812-14.875L149.876,86.859z"/>
						
							<linearGradient id="SVGID_7_" gradientUnits="userSpaceOnUse" x1="416.9971" y1="704.5918" x2="416.785" y2="735.1782" gradientTransform="matrix(1 0 0 1 -276 -623)">
							<stop  offset="0" style="stop-color:#A29639"/>
							<stop  offset="0.3374" style="stop-color:#A2CD3A"/>
						</linearGradient>
						<path fill="url(#SVGID_7_)" d="M163.584,79.162c-0.932-0.088-8.493-2.916-10.014-3.124l-2.647-1.298l-9.989,8.946
							l-10.031-8.946l-2.738,1.316c-1.462,0.199-8.964,3.021-9.866,3.105c-6.391,0.599-7.044,3.546-7.044,10.747
							c0,2.774,3.416,7.674,3.844,10.417c1.098,7.059,3.709,9.979,10.129,9.979h31.43c6.422,0,8.875-2.992,10.131-9.979
							c0.49-2.731,3.842-7.643,3.842-10.417C170.625,83.004,169.975,79.76,163.584,79.162z"/>
					</g>
					<g>
						
							<radialGradient id="SVGID_8_" cx="416.9375" cy="678.248" r="15.7453" gradientTransform="matrix(1 0 0 1 -276 -623)" gradientUnits="userSpaceOnUse">
							<stop  offset="0" style="stop-color:#F7E4CF"/>
							<stop  offset="0.0993" style="stop-color:#F7E2CA"/>
							<stop  offset="0.2281" style="stop-color:#F5DABC"/>
							<stop  offset="0.3732" style="stop-color:#F1CDA4"/>
							<stop  offset="0.529" style="stop-color:#EDBC86"/>
							<stop  offset="0.6373" style="stop-color:#E9AF6F"/>
							<stop  offset="0.7005" style="stop-color:#DDA56A"/>
							<stop  offset="0.789" style="stop-color:#C48F5F"/>
							<stop  offset="0.8924" style="stop-color:#9F704E"/>
							<stop  offset="1" style="stop-color:#754E3A"/>
						</radialGradient>
						<path fill="url(#SVGID_8_)" d="M140.938,37.573c-9.854,0-13.545,5.007-13.545,13.924c0,3.266,0.92,4.18,1.267,6.804
							c0.171,1.291,0.58,3.992,1.219,4.904c1.847,2.636,2.909,4.952,4.231,6.661c1.475,1.905,3.271,3.056,6.828,3.056
							c3.551,0,5.352-1.07,6.836-2.953c1.319-1.673,2.395-3.986,4.226-6.764c0.856-1.298,1.299-4.582,1.495-6.487
							c0.229-2.229,0.988-2.592,0.988-5.221C154.482,42.58,150.791,37.573,140.938,37.573z"/>
						
							<linearGradient id="SVGID_9_" gradientUnits="userSpaceOnUse" x1="416.9385" y1="702.2461" x2="416.9385" y2="692.8691" gradientTransform="matrix(1 0 0 1 -276 -623)">
							<stop  offset="0" style="stop-color:#F0C89B"/>
							<stop  offset="0.0719" style="stop-color:#EFC596"/>
							<stop  offset="0.1711" style="stop-color:#EDBD87"/>
							<stop  offset="0.2863" style="stop-color:#EAB071"/>
							<stop  offset="0.4126" style="stop-color:#E59F51"/>
							<stop  offset="0.4559" style="stop-color:#E39844"/>
							<stop  offset="1" style="stop-color:#6E4631"/>
						</linearGradient>
						<path fill="url(#SVGID_9_)" d="M147.625,72.59c0-1.42,0.068-2.171,0.146-2.619c-1.485,1.882-3.285,2.95-6.834,2.95
							c-3.559,0-5.354-1.149-6.826-3.052c0.053,0.543,0.095,1.367,0.095,2.613c0,0.963-0.058,1.395-1.431,1.395
							c0,1.173,6.656,5.368,8.162,5.368c1.268,0,8.164-4.117,8.164-5.368C148.068,73.877,147.625,73.525,147.625,72.59z"/>
						
							<linearGradient id="SVGID_10_" gradientUnits="userSpaceOnUse" x1="401.3281" y1="667.875" x2="425.0479" y2="667.875" gradientTransform="matrix(1 0 0 1 -276 -623)">
							<stop  offset="0" style="stop-color:#000000"/>
							<stop  offset="1" style="stop-color:#706D6D"/>
						</linearGradient>
						<path fill="url(#SVGID_10_)" d="M148.643,39.208c-2.469,2.235-3.896,2.014-6.4,2.021c-2.945,0.01-2.072-0.711-3.389,1.653
							c0.017-1.207-0.926,0.896-1.064-0.234c-1.873,0.229-2.08-0.913-3.159,0.613c-0.153-1.071-0.976,0.22-0.896-0.832
							c-1.983,0.796-4.637,0.122-4.637,5.164c0,1.866,0.475,3.442-0.482,4.212c-1.143,0.919,0.104,5.3,0.045,6.496
							c-1.432,0-1.561-2.49-1.663-3.851c-0.162-2.126-1.171-1.824-1.373-3.945c-0.336-3.497-0.593-5.111,0.442-8.467
							c1.099-3.553,2.117-6.286,5.418-7.918c2.478-1.224,5.975-3.309,8.49-2.479c1.738,0.57,5.365,0.976,7.043,1.832
							c1.348,0.689,1.692,0.831,1.797,1.204c0.09,0.33-0.006,0.839,0.229,2.061C149.093,37.003,148.756,39.104,148.643,39.208z"/>
						
							<linearGradient id="SVGID_11_" gradientUnits="userSpaceOnUse" x1="424.6406" y1="668.4141" x2="432.5898" y2="668.4141" gradientTransform="matrix(1 0 0 1 -276 -623)">
							<stop  offset="0" style="stop-color:#000000"/>
							<stop  offset="1" style="stop-color:#706D6D"/>
						</linearGradient>
						<path fill="url(#SVGID_11_)" d="M155.626,41.876c-0.241-1.295-1.922-4.477-2.461-5.006c-0.651-0.642-1.192-2.212-1.675-2.577
							c-0.4-0.306-2.334-0.257-2.68,0.383c0.092,0.33-0.004,0.839,0.229,2.061c0.051,0.267-0.286,2.367-0.399,2.471
							c0.127,0.492,0.479,1.356,1.025,1.59c1.255,0.533,1.605,0.605,1.209,1.854c0.33-0.507,0.521-0.494,0.58-0.811
							c0.605,0.996,1.046,2.09,1.011,2.718c-0.043,0.817-0.192,1.653-0.01,2.438c0.167,0.717,0.38,1.434,0.866,3.429
							c0.182,0.745,0.518,0.695,0.432,1.445c-0.184,1.573-0.314,3.249-0.266,4.846c0.736,0,1.293-0.655,1.352-1.124
							c0.094-0.743,0.362-1.894,0.799-2.917c0.233-0.559,0.952-2.652,0.951-4.113C156.59,45.279,155.801,42.808,155.626,41.876z"/>
					</g>
				</g>
				<path d="M129.031,79.162c-0.932-0.088-8.493-2.916-10.014-3.124l-2.647-1.298l-1.82-0.862c-1.032,0-1.478-0.353-1.478-1.287
					c0-1.42,0.068-2.171,0.146-2.619c-1.485,1.882-3.284,2.95-6.835,2.95c3.553,0,5.352-1.07,6.838-2.953
					c1.317-1.673,2.393-3.986,4.223-6.764c0.859-1.298,1.3-4.582,1.496-6.487c0.733-0.001,1.291-0.655,1.35-1.124
					c0.092-0.743,0.361-1.894,0.798-2.917c0.235-0.559,0.953-2.652,0.952-4.113c-0.002-3.284-0.79-5.755-0.966-6.687
					c-0.241-1.295-1.923-4.477-2.462-5.006c-0.65-0.642-1.191-2.212-1.674-2.577c-0.4-0.306-2.334-0.257-2.681,0.383
					c-0.104-0.373-0.446-0.515-1.796-1.204c-1.677-0.856-5.304-1.262-7.044-1.832c-2.515-0.829-6.012,1.256-8.489,2.479
					c-3.301,1.632-4.32,4.365-5.417,7.918c-1.037,3.355-0.779,4.97-0.444,8.467c0.202,2.121,1.211,1.819,1.373,3.945
					c0.103,1.36,0.231,3.851,1.663,3.851c0.171,1.291,0.58,3.992,1.22,4.904c1.844,2.636,2.908,4.952,4.232,6.661
					c0.167,0.218,0.341,0.421,0.519,0.617c-0.177-0.196-0.349-0.398-0.516-0.613c0.052,0.543,0.094,1.367,0.094,2.613
					c0,0.963-0.056,1.395-1.431,1.395L96.35,74.74l-2.741,1.316c-1.462,0.199-8.964,3.021-9.866,3.105
					c-6.39,0.599-7.044,3.546-7.044,10.747c0,2.774,3.417,7.674,3.842,10.417c1.099,7.059,3.711,9.979,10.129,9.979h31.432
					c6.42,0,8.875-2.992,10.129-9.979c0.492-2.731,3.844-7.643,3.844-10.417C136.072,83.004,135.423,79.76,129.031,79.162z"/>
			</g>
		</g>
	</g>
</g>
</svg>
