<?xml version="1.0" encoding="utf-8"?>
<!-- Generator: Adobe Illustrator 15.0.0, SVG Export Plug-In . SVG Version: 6.00 Build 0)  -->
<!DOCTYPE svg PUBLIC "-//W3C//DTD SVG 1.1//EN" "http://www.w3.org/Graphics/SVG/1.1/DTD/svg11.dtd">
<svg version="1.1" id="Layer_1" xmlns="http://www.w3.org/2000/svg" xmlns:xlink="http://www.w3.org/1999/xlink" x="0px" y="0px"
	 width="131.5px" height="131.5px" viewBox="0 0 131.5 131.5" enable-background="new 0 0 131.5 131.5" xml:space="preserve">
<g>
	<g id="Layer_1_2_">
		<rect x="10.25" y="10.25" opacity="0.76" fill="#FFFFFF" enable-background="new    " width="112" height="112"/>
	</g>
	<g id="Layer_2">
		<g>
			<g>
				<path fill="#0D68AA" d="M42.529,89.056c0,0.284,0.018,0.546,0.055,0.784c0.037,0.238,0.105,0.444,0.207,0.618
					c0.1,0.171,0.237,0.31,0.413,0.409c0.174,0.1,0.393,0.153,0.658,0.153c0.274,0,0.496-0.053,0.666-0.153
					c0.168-0.1,0.304-0.237,0.404-0.409c0.102-0.174,0.169-0.38,0.207-0.618c0.037-0.236,0.055-0.5,0.055-0.784v-7.893h2.282v7.893
					c0,0.719-0.101,1.312-0.301,1.779c-0.202,0.475-0.47,0.844-0.809,1.118c-0.338,0.27-0.724,0.459-1.156,0.55
					c-0.433,0.096-0.882,0.144-1.347,0.144c-0.466,0-0.914-0.042-1.348-0.123c-0.434-0.081-0.819-0.258-1.157-0.512
					c-0.339-0.262-0.607-0.626-0.808-1.105c-0.201-0.475-0.301-1.093-0.301-1.851v-7.893h2.282L42.529,89.056L42.529,89.056z"/>
				<path fill="#0D68AA" d="M50.944,83.953v0.999h0.032c0.231-0.424,0.534-0.731,0.903-0.928c0.369-0.195,0.793-0.294,1.268-0.294
					c0.697,0,1.233,0.189,1.608,0.571c0.375,0.381,0.563,0.998,0.563,1.85v6.322h-2.187v-5.877c0-0.443-0.074-0.753-0.222-0.929
					c-0.148-0.175-0.385-0.264-0.713-0.264c-0.772,0-1.157,0.471-1.157,1.411v5.656h-2.188V83.95h2.092V83.953z"/>
				<path fill="#0D68AA" d="M59.042,81.037v1.869h-2.187v-1.869H59.042z M59.042,83.953v8.527h-2.187v-8.527H59.042z"/>
				<path fill="#0D68AA" d="M62.673,83.953v1.141h0.032c0.222-0.411,0.491-0.741,0.808-0.99c0.317-0.248,0.702-0.372,1.157-0.372
					c0.063,0,0.129,0.004,0.198,0.009c0.069,0.008,0.135,0.017,0.198,0.023v2.091c-0.117-0.01-0.23-0.017-0.342-0.02
					c-0.111-0.006-0.225-0.007-0.34-0.007c-0.19,0-0.381,0.021-0.571,0.078c-0.191,0.053-0.365,0.141-0.523,0.264
					c-0.158,0.122-0.285,0.279-0.381,0.475c-0.094,0.194-0.143,0.438-0.143,0.723v5.119H60.58v-8.531h2.093V83.953z"/>
				<path fill="#0D68AA" d="M67.459,89.976c0,0.37,0.098,0.669,0.293,0.896c0.195,0.228,0.478,0.341,0.848,0.341
					c0.338,0,0.61-0.086,0.809-0.254c0.2-0.168,0.301-0.423,0.301-0.76c0-0.275-0.079-0.484-0.238-0.627
					c-0.158-0.142-0.343-0.256-0.555-0.34l-1.533-0.552c-0.603-0.211-1.057-0.51-1.363-0.898c-0.307-0.386-0.46-0.88-0.46-1.483
					c0-0.349,0.058-0.678,0.175-0.99c0.116-0.312,0.301-0.584,0.556-0.816c0.254-0.231,0.581-0.417,0.971-0.554
					c0.4-0.138,0.875-0.207,1.435-0.207c0.992,0,1.727,0.211,2.202,0.634s0.713,1.021,0.713,1.791v0.349h-1.964
					c0-0.442-0.071-0.769-0.215-0.976c-0.143-0.205-0.394-0.308-0.752-0.308c-0.276,0-0.517,0.08-0.721,0.229
					c-0.207,0.154-0.311,0.383-0.311,0.69c0,0.21,0.066,0.401,0.198,0.57c0.129,0.168,0.385,0.312,0.754,0.427l1.315,0.444
					c0.686,0.229,1.173,0.536,1.459,0.911c0.285,0.371,0.427,0.885,0.427,1.53c0,0.454-0.077,0.848-0.233,1.181
					c-0.159,0.332-0.377,0.61-0.656,0.828c-0.277,0.225-0.615,0.38-1,0.475c-0.386,0.098-0.811,0.144-1.28,0.144
					c-0.612,0-1.118-0.057-1.528-0.172c-0.408-0.119-0.729-0.294-0.967-0.523s-0.405-0.515-0.5-0.849
					c-0.095-0.333-0.142-0.704-0.142-1.117V89.69h1.965L67.459,89.976L67.459,89.976z"/>
				<path fill="#0D68AA" d="M74.765,89.231c0,0.257,0.018,0.498,0.056,0.736c0.036,0.238,0.094,0.449,0.182,0.636
					c0.085,0.183,0.192,0.335,0.332,0.442c0.139,0.11,0.307,0.166,0.508,0.166c0.371,0,0.639-0.132,0.81-0.396
					c0.167-0.266,0.285-0.667,0.347-1.208h1.967c-0.042,0.995-0.307,1.747-0.793,2.27c-0.485,0.517-1.25,0.775-2.3,0.775
					c-0.793,0-1.409-0.131-1.854-0.396c-0.439-0.264-0.771-0.616-0.982-1.045c-0.211-0.434-0.337-0.919-0.388-1.459
					c-0.046-0.542-0.071-1.078-0.071-1.616c0-0.574,0.043-1.119,0.123-1.647c0.084-0.528,0.237-1.002,0.475-1.41
					c0.238-0.413,0.58-0.741,1.022-0.984c0.442-0.242,1.037-0.363,1.777-0.363c0.634,0,1.152,0.101,1.563,0.306
					c0.405,0.206,0.725,0.495,0.958,0.87c0.23,0.371,0.392,0.827,0.475,1.358c0.088,0.537,0.125,1.13,0.125,1.783v0.492h-4.324
					L74.765,89.231L74.765,89.231z M76.937,86.385c-0.033-0.249-0.088-0.459-0.167-0.634c-0.077-0.174-0.189-0.306-0.332-0.396
					c-0.144-0.088-0.325-0.134-0.548-0.134c-0.221,0-0.403,0.051-0.546,0.15s-0.255,0.231-0.339,0.396
					c-0.086,0.164-0.146,0.346-0.182,0.546c-0.038,0.202-0.054,0.402-0.054,0.604v0.333h2.236
					C76.988,86.922,76.968,86.634,76.937,86.385z"/>
				<path fill="#0D68AA" d="M84.021,86.361c0-0.495,0.079-0.91,0.238-1.243c0.158-0.335,0.369-0.604,0.641-0.807
					c0.268-0.207,0.583-0.355,0.95-0.445c0.365-0.088,0.754-0.135,1.166-0.135c0.651,0,1.18,0.063,1.585,0.193
					c0.401,0.124,0.713,0.303,0.933,0.54c0.225,0.229,0.37,0.51,0.451,0.827c0.08,0.326,0.122,0.678,0.122,1.054v4.489
					c0,0.405,0.018,0.716,0.053,0.934c0.037,0.225,0.108,0.459,0.214,0.717h-2.095c-0.074-0.138-0.127-0.283-0.163-0.439
					c-0.038-0.154-0.072-0.301-0.104-0.452h-0.029c-0.254,0.443-0.546,0.732-0.88,0.863c-0.333,0.132-0.763,0.196-1.29,0.196
					c-0.382,0-0.704-0.064-0.968-0.196c-0.265-0.131-0.476-0.315-0.634-0.547c-0.159-0.229-0.275-0.493-0.35-0.784
					c-0.073-0.291-0.11-0.579-0.11-0.863c0-0.402,0.042-0.749,0.126-1.038c0.085-0.291,0.215-0.541,0.388-0.746
					c0.176-0.205,0.397-0.377,0.666-0.514c0.267-0.139,0.594-0.26,0.972-0.365l1.236-0.335c0.331-0.087,0.556-0.198,0.685-0.348
					c0.124-0.149,0.19-0.365,0.19-0.651c0-0.331-0.077-0.582-0.23-0.768c-0.152-0.188-0.414-0.277-0.783-0.277
					c-0.34,0-0.592,0.1-0.761,0.3c-0.167,0.2-0.252,0.472-0.252,0.808v0.237h-1.967V86.361L84.021,86.361z M87.539,88.493
					c-0.17,0.069-0.322,0.12-0.461,0.152c-0.439,0.094-0.757,0.252-0.951,0.474c-0.188,0.223-0.283,0.523-0.283,0.904
					c0,0.327,0.062,0.607,0.189,0.84c0.129,0.231,0.339,0.349,0.634,0.349c0.151,0,0.301-0.023,0.463-0.072
					c0.16-0.046,0.3-0.124,0.436-0.229c0.132-0.104,0.241-0.243,0.328-0.411c0.084-0.166,0.122-0.37,0.122-0.603v-1.681
					C87.866,88.333,87.707,88.424,87.539,88.493z"/>
				<path fill="#0D68AA" d="M41.316,104.16c-0.231,0.423-0.533,0.725-0.904,0.904c-0.37,0.179-0.792,0.269-1.268,0.269
					c-0.698,0-1.234-0.182-1.609-0.547c-0.375-0.363-0.563-0.974-0.563-1.83v-6.324h2.187v5.881c0,0.443,0.074,0.757,0.222,0.931
					c0.147,0.174,0.385,0.264,0.713,0.264c0.771,0,1.157-0.474,1.157-1.412v-5.657h2.187v8.527h-2.092v-1.005H41.316z"/>
				<path fill="#0D68AA" d="M46.989,96.632v0.999h0.032c0.231-0.423,0.533-0.731,0.903-0.928c0.37-0.194,0.793-0.294,1.267-0.294
					c0.698,0,1.233,0.19,1.609,0.571c0.375,0.382,0.563,0.999,0.563,1.85v6.322h-2.188v-5.879c0-0.442-0.074-0.753-0.222-0.928
					c-0.148-0.175-0.386-0.263-0.714-0.263c-0.772,0-1.157,0.47-1.157,1.41v5.658h-2.187v-8.525h2.093V96.632z"/>
				<path fill="#0D68AA" d="M52.807,99.041c0-0.495,0.08-0.91,0.237-1.243c0.159-0.335,0.372-0.604,0.642-0.808
					c0.27-0.207,0.586-0.354,0.951-0.444c0.364-0.089,0.753-0.135,1.165-0.135c0.654,0,1.182,0.062,1.585,0.193
					c0.401,0.124,0.713,0.302,0.935,0.54c0.222,0.229,0.373,0.51,0.451,0.827c0.08,0.325,0.119,0.678,0.119,1.053v4.49
					c0,0.405,0.018,0.715,0.055,0.934c0.037,0.225,0.108,0.459,0.214,0.716h-2.09c-0.075-0.138-0.129-0.283-0.166-0.438
					c-0.037-0.154-0.072-0.301-0.103-0.453H56.77c-0.253,0.443-0.546,0.733-0.88,0.864c-0.334,0.132-0.764,0.196-1.292,0.196
					c-0.38,0-0.703-0.064-0.967-0.196c-0.264-0.131-0.476-0.315-0.634-0.547c-0.158-0.229-0.275-0.493-0.349-0.784
					c-0.074-0.291-0.111-0.579-0.111-0.863c0-0.403,0.043-0.75,0.127-1.039c0.084-0.291,0.214-0.54,0.388-0.746
					c0.174-0.204,0.396-0.376,0.666-0.513c0.27-0.139,0.594-0.261,0.975-0.366l1.236-0.334c0.328-0.087,0.554-0.199,0.682-0.348
					c0.126-0.149,0.19-0.366,0.19-0.651c0-0.331-0.077-0.582-0.23-0.768c-0.153-0.188-0.415-0.277-0.784-0.277
					c-0.338,0-0.592,0.099-0.761,0.3c-0.169,0.2-0.253,0.473-0.253,0.807v0.238h-1.966L52.807,99.041L52.807,99.041z
					 M56.325,101.173c-0.169,0.069-0.322,0.119-0.459,0.151c-0.444,0.094-0.76,0.253-0.951,0.474
					c-0.189,0.223-0.285,0.523-0.285,0.905c0,0.326,0.063,0.607,0.19,0.839c0.126,0.232,0.338,0.35,0.634,0.35
					c0.147,0,0.3-0.024,0.459-0.072c0.159-0.047,0.303-0.124,0.436-0.229c0.131-0.105,0.24-0.243,0.324-0.411
					c0.084-0.165,0.127-0.37,0.127-0.603v-1.681C56.653,101.013,56.494,101.104,56.325,101.173z"/>
				<path fill="#0D68AA" d="M66.341,96.632v0.9h0.031c0.243-0.402,0.512-0.687,0.815-0.863c0.299-0.172,0.674-0.261,1.118-0.261
					c0.897,0,1.559,0.349,1.98,1.051c0.423,0.704,0.635,1.85,0.635,3.433c0,1.585-0.212,2.724-0.635,3.407
					c-0.422,0.688-1.082,1.03-1.98,1.03c-0.411,0-0.763-0.077-1.054-0.229c-0.294-0.152-0.552-0.398-0.787-0.737h-0.028v3.535h-2.19
					v-11.27h2.094V96.632L66.341,96.632z M66.649,102.995c0.144,0.471,0.457,0.706,0.943,0.706c0.475,0,0.785-0.235,0.928-0.706
					c0.144-0.469,0.214-1.17,0.214-2.095c0-0.934-0.072-1.635-0.214-2.101c-0.143-0.476-0.451-0.706-0.928-0.706
					c-0.486,0-0.8,0.23-0.943,0.706c-0.142,0.474-0.213,1.174-0.213,2.101C66.437,101.825,66.508,102.526,66.649,102.995z"/>
				<path fill="#0D68AA" d="M72.062,98.962c0.116-0.56,0.306-1.028,0.57-1.401c0.264-0.377,0.609-0.661,1.038-0.857
					c0.432-0.194,0.957-0.294,1.577-0.294c0.655-0.014,1.198,0.078,1.636,0.261c0.433,0.187,0.776,0.47,1.03,0.85
					c0.256,0.381,0.436,0.851,0.543,1.411c0.105,0.56,0.158,1.215,0.158,1.965c0,0.728-0.058,1.373-0.174,1.933
					c-0.116,0.562-0.307,1.028-0.57,1.401c-0.265,0.374-0.611,0.651-1.038,0.83c-0.433,0.18-0.956,0.267-1.577,0.267
					c-0.655,0.014-1.2-0.072-1.636-0.246c-0.434-0.173-0.777-0.446-1.03-0.825c-0.253-0.375-0.438-0.846-0.543-1.411
					c-0.106-0.565-0.159-1.218-0.159-1.957C71.888,100.166,71.945,99.521,72.062,98.962z M74.106,102.101
					c0.021,0.369,0.071,0.687,0.15,0.95c0.079,0.265,0.198,0.473,0.356,0.618c0.16,0.148,0.371,0.223,0.635,0.223
					c0.443,0,0.754-0.231,0.919-0.697c0.169-0.464,0.256-1.231,0.256-2.299s-0.087-1.833-0.256-2.299
					c-0.166-0.469-0.475-0.696-0.919-0.696c-0.264,0-0.475,0.075-0.635,0.222c-0.158,0.148-0.277,0.354-0.356,0.618
					s-0.129,0.581-0.15,0.951c-0.021,0.369-0.031,0.771-0.031,1.204C74.075,101.329,74.085,101.73,74.106,102.101z"/>
				<path fill="#0D68AA" d="M82.048,93.844v11.319H79.86V93.844H82.048z"/>
				<path fill="#0D68AA" d="M85.85,93.844v11.319h-2.186V93.844H85.85z"/>
				<path fill="#0D68AA" d="M87.372,99.041c0-0.495,0.079-0.91,0.238-1.243c0.158-0.335,0.369-0.604,0.642-0.808
					c0.271-0.207,0.586-0.354,0.951-0.444c0.365-0.089,0.754-0.135,1.165-0.135c0.654,0,1.183,0.062,1.585,0.193
					c0.402,0.124,0.714,0.302,0.935,0.54c0.224,0.229,0.37,0.51,0.447,0.827c0.083,0.325,0.124,0.678,0.124,1.053v4.49
					c0,0.405,0.018,0.715,0.052,0.934c0.038,0.225,0.108,0.459,0.214,0.716h-2.093c-0.074-0.138-0.128-0.283-0.165-0.438
					c-0.036-0.154-0.071-0.301-0.103-0.453h-0.033c-0.253,0.443-0.546,0.733-0.879,0.864c-0.334,0.132-0.761,0.196-1.289,0.196
					c-0.38,0-0.703-0.064-0.968-0.196c-0.264-0.131-0.475-0.315-0.634-0.547c-0.159-0.229-0.273-0.493-0.35-0.784
					c-0.073-0.291-0.109-0.579-0.109-0.863c0-0.403,0.041-0.75,0.123-1.039c0.087-0.291,0.214-0.54,0.388-0.746
					c0.173-0.204,0.399-0.376,0.667-0.513c0.269-0.139,0.595-0.261,0.974-0.366l1.236-0.334c0.327-0.087,0.555-0.199,0.683-0.348
					c0.129-0.149,0.193-0.366,0.193-0.651c0-0.331-0.077-0.582-0.229-0.768c-0.155-0.188-0.415-0.277-0.784-0.277
					c-0.339,0-0.592,0.099-0.762,0.3c-0.167,0.2-0.252,0.473-0.252,0.807v0.238h-1.965v-0.206L87.372,99.041L87.372,99.041z
					 M90.891,101.173c-0.169,0.069-0.322,0.119-0.459,0.151c-0.444,0.094-0.761,0.253-0.951,0.474
					c-0.194,0.223-0.286,0.523-0.286,0.905c0,0.326,0.06,0.607,0.191,0.839c0.126,0.232,0.337,0.35,0.634,0.35
					c0.147,0,0.3-0.024,0.459-0.072c0.159-0.047,0.303-0.124,0.437-0.229c0.131-0.105,0.239-0.243,0.323-0.411
					c0.089-0.165,0.128-0.37,0.128-0.603v-1.681C91.219,101.013,91.061,101.104,90.891,101.173z"/>
			</g>
			<g>
				<g>
					<g>
						
							<linearGradient id="SVGID_1_" gradientUnits="userSpaceOnUse" x1="611.1816" y1="1593.9404" x2="611.1816" y2="1576.4258" gradientTransform="matrix(1 0 0 1 -563 -1519.5)">
							<stop  offset="0" style="stop-color:#FFFFFF"/>
							<stop  offset="1" style="stop-color:#817E7E"/>
						</linearGradient>
						<path fill="url(#SVGID_1_)" d="M52.494,63.167l0.502-5.828l-0.875-0.415c0,0.601-3.317,2.582-3.927,2.582
							c-0.724,0-3.925-2.018-3.925-2.582l-0.901,0.415l0.53,5.828l1.395,4.121l2.316,7.152h1.171l2.314-7.152L52.494,63.167z"/>
						
							<linearGradient id="SVGID_2_" gradientUnits="userSpaceOnUse" x1="611.2236" y1="1580.1357" x2="611.1216" y2="1594.842" gradientTransform="matrix(1 0 0 1 -563 -1519.5)">
							<stop  offset="0" style="stop-color:#A11D21"/>
							<stop  offset="0.0296" style="stop-color:#A61E22"/>
							<stop  offset="0.1735" style="stop-color:#BA1F24"/>
							<stop  offset="0.3433" style="stop-color:#C91F26"/>
							<stop  offset="0.5616" style="stop-color:#D21F26"/>
							<stop  offset="1" style="stop-color:#D51F26"/>
						</linearGradient>
						<path fill="url(#SVGID_2_)" d="M59.085,59.467c-0.448-0.042-4.085-1.402-4.815-1.503l-1.273-0.624l-4.803,4.302L43.37,57.34
							l-1.318,0.633c-0.704,0.095-4.311,1.452-4.744,1.492c-3.073,0.288-3.387,1.706-3.387,5.168c0,1.333,1.642,3.69,1.848,5.012
							c0.528,3.393,1.783,4.798,4.87,4.798h15.115c3.087,0,4.268-1.438,4.872-4.798c0.237-1.314,1.847-3.676,1.847-5.012
							C62.471,61.313,62.159,59.753,59.085,59.467z"/>
					</g>
					<g>
						
							<radialGradient id="SVGID_3_" cx="611.1953" cy="1567.4629" r="7.5712" gradientTransform="matrix(1 0 0 1 -563 -1519.5)" gradientUnits="userSpaceOnUse">
							<stop  offset="0" style="stop-color:#F7E4CF"/>
							<stop  offset="0.0993" style="stop-color:#F7E2CA"/>
							<stop  offset="0.2281" style="stop-color:#F5DABC"/>
							<stop  offset="0.3732" style="stop-color:#F1CDA4"/>
							<stop  offset="0.529" style="stop-color:#EDBC86"/>
							<stop  offset="0.6373" style="stop-color:#E9AF6F"/>
							<stop  offset="0.7005" style="stop-color:#DDA56A"/>
							<stop  offset="0.789" style="stop-color:#C48F5F"/>
							<stop  offset="0.8924" style="stop-color:#9F704E"/>
							<stop  offset="1" style="stop-color:#754E3A"/>
						</radialGradient>
						<path fill="url(#SVGID_3_)" d="M48.196,39.465c-4.74,0-6.514,2.408-6.514,6.696c0,1.57,0.442,2.008,0.608,3.271
							c0.083,0.621,0.28,1.92,0.587,2.357c0.887,1.267,1.399,2.383,2.036,3.204c0.708,0.915,1.573,1.469,3.284,1.469
							c1.708,0,2.572-0.515,3.287-1.422c0.635-0.803,1.151-1.916,2.032-3.252c0.412-0.625,0.625-2.202,0.718-3.121
							c0.111-1.073,0.476-1.245,0.476-2.51C54.708,41.873,52.934,39.465,48.196,39.465z"/>
						
							<linearGradient id="SVGID_4_" gradientUnits="userSpaceOnUse" x1="611.1953" y1="1579.0039" x2="611.1953" y2="1574.4971" gradientTransform="matrix(1 0 0 1 -563 -1519.5)">
							<stop  offset="0" style="stop-color:#F0C89B"/>
							<stop  offset="0.0719" style="stop-color:#EFC596"/>
							<stop  offset="0.1711" style="stop-color:#EDBD87"/>
							<stop  offset="0.2863" style="stop-color:#EAB071"/>
							<stop  offset="0.4126" style="stop-color:#E59F51"/>
							<stop  offset="0.4559" style="stop-color:#E39844"/>
							<stop  offset="1" style="stop-color:#6E4631"/>
						</linearGradient>
						<path fill="url(#SVGID_4_)" d="M51.411,56.305c0-0.685,0.032-1.044,0.071-1.259c-0.715,0.904-1.581,1.418-3.287,1.418
							c-1.71,0-2.575-0.552-3.282-1.467c0.025,0.261,0.046,0.657,0.046,1.256c0,0.464-0.028,0.671-0.688,0.671
							c0,0.564,3.201,2.58,3.925,2.58c0.609,0,3.926-1.979,3.926-2.58C51.624,56.924,51.411,56.755,51.411,56.305z"/>
						
							<linearGradient id="SVGID_5_" gradientUnits="userSpaceOnUse" x1="603.6875" y1="1562.4814" x2="615.0947" y2="1562.4814" gradientTransform="matrix(1 0 0 1 -563 -1519.5)">
							<stop  offset="0" style="stop-color:#000000"/>
							<stop  offset="1" style="stop-color:#706D6D"/>
						</linearGradient>
						<path fill="url(#SVGID_5_)" d="M51.9,40.253c-1.188,1.074-1.874,0.969-3.079,0.971c-1.417,0.004-0.996-0.34-1.628,0.794
							c0.007-0.581-0.445,0.432-0.513-0.111c-0.9,0.11-1-0.438-1.52,0.295c-0.074-0.515-0.468,0.106-0.43-0.4
							c-0.955,0.383-2.23,0.058-2.23,2.484c0,0.897,0.228,1.654-0.232,2.025c-0.549,0.442,0.05,2.548,0.021,3.124
							c-0.689,0-0.751-1.198-0.8-1.851c-0.078-1.021-0.562-0.877-0.659-1.897c-0.162-1.684-0.286-2.457,0.213-4.073
							c0.527-1.708,1.018-3.021,2.605-3.806c1.191-0.588,2.873-1.591,4.083-1.193c0.836,0.272,2.581,0.469,3.387,0.881
							c0.649,0.333,0.814,0.4,0.864,0.579c0.044,0.159-0.002,0.405,0.11,0.991C52.118,39.193,51.955,40.202,51.9,40.253z"/>
						
							<linearGradient id="SVGID_6_" gradientUnits="userSpaceOnUse" x1="614.9004" y1="1562.7363" x2="618.7236" y2="1562.7363" gradientTransform="matrix(1 0 0 1 -563 -1519.5)">
							<stop  offset="0" style="stop-color:#000000"/>
							<stop  offset="1" style="stop-color:#706D6D"/>
						</linearGradient>
						<path fill="url(#SVGID_6_)" d="M55.259,41.536c-0.116-0.623-0.924-2.153-1.183-2.407c-0.313-0.309-0.573-1.064-0.806-1.238
							c-0.193-0.146-1.122-0.125-1.288,0.182c0.044,0.159-0.003,0.402,0.11,0.991c0.024,0.129-0.138,1.138-0.192,1.188
							c0.062,0.237,0.23,0.653,0.494,0.765c0.603,0.256,0.772,0.291,0.581,0.892c0.159-0.243,0.252-0.238,0.279-0.39
							c0.292,0.479,0.503,1.005,0.487,1.307c-0.021,0.393-0.094,0.793-0.005,1.171c0.081,0.343,0.183,0.689,0.417,1.65
							c0.088,0.357,0.249,0.335,0.207,0.694c-0.087,0.754-0.15,1.562-0.127,2.329c0.354,0,0.621-0.313,0.65-0.54
							c0.044-0.359,0.175-0.913,0.384-1.403c0.113-0.27,0.458-1.273,0.458-1.976C55.722,43.172,55.343,41.983,55.259,41.536z"/>
					</g>
				</g>
				<g>
					<g>
						<path fill="#FFFFFF" d="M86.754,63.167l0.504-5.828l-0.875-0.415c0,0.601-3.318,2.582-3.927,2.582
							c-0.722,0-3.927-2.018-3.927-2.582l-0.898,0.415l0.529,5.828l1.394,4.121l2.317,7.152h1.173l2.312-7.152L86.754,63.167z"/>
						
							<linearGradient id="SVGID_7_" gradientUnits="userSpaceOnUse" x1="645.4854" y1="1580.1328" x2="645.3834" y2="1594.8395" gradientTransform="matrix(1 0 0 1 -563 -1519.5)">
							<stop  offset="0" style="stop-color:#A29639"/>
							<stop  offset="0.3374" style="stop-color:#A2CD3A"/>
						</linearGradient>
						<path fill="url(#SVGID_7_)" d="M93.347,59.467c-0.449-0.042-4.084-1.402-4.815-1.503l-1.273-0.624l-4.804,4.302l-4.825-4.302
							l-1.316,0.633c-0.702,0.095-4.312,1.452-4.746,1.492c-3.073,0.288-3.386,1.706-3.386,5.168c0,1.333,1.642,3.69,1.849,5.012
							c0.528,3.393,1.78,4.798,4.87,4.798h15.116c3.085,0,4.267-1.438,4.871-4.798c0.233-1.314,1.848-3.676,1.848-5.012
							C96.733,61.313,96.419,59.753,93.347,59.467z"/>
					</g>
					<g>
						
							<radialGradient id="SVGID_8_" cx="645.458" cy="1567.4629" r="7.572" gradientTransform="matrix(1 0 0 1 -563 -1519.5)" gradientUnits="userSpaceOnUse">
							<stop  offset="0" style="stop-color:#F7E4CF"/>
							<stop  offset="0.0993" style="stop-color:#F7E2CA"/>
							<stop  offset="0.2281" style="stop-color:#F5DABC"/>
							<stop  offset="0.3732" style="stop-color:#F1CDA4"/>
							<stop  offset="0.529" style="stop-color:#EDBC86"/>
							<stop  offset="0.6373" style="stop-color:#E9AF6F"/>
							<stop  offset="0.7005" style="stop-color:#DDA56A"/>
							<stop  offset="0.789" style="stop-color:#C48F5F"/>
							<stop  offset="0.8924" style="stop-color:#9F704E"/>
							<stop  offset="1" style="stop-color:#754E3A"/>
						</radialGradient>
						<path fill="url(#SVGID_8_)" d="M82.456,39.465c-4.738,0-6.514,2.408-6.514,6.696c0,1.57,0.442,2.008,0.609,3.271
							c0.083,0.621,0.279,1.92,0.585,2.357c0.89,1.267,1.399,2.383,2.036,3.204c0.711,0.915,1.572,1.469,3.285,1.469
							c1.71,0,2.575-0.515,3.286-1.422c0.634-0.803,1.151-1.916,2.033-3.252c0.413-0.625,0.625-2.202,0.721-3.121
							c0.111-1.073,0.476-1.245,0.476-2.51C88.971,41.873,87.194,39.465,82.456,39.465z"/>
						
							<linearGradient id="SVGID_9_" gradientUnits="userSpaceOnUse" x1="645.458" y1="1579.0039" x2="645.458" y2="1574.4971" gradientTransform="matrix(1 0 0 1 -563 -1519.5)">
							<stop  offset="0" style="stop-color:#F0C89B"/>
							<stop  offset="0.0719" style="stop-color:#EFC596"/>
							<stop  offset="0.1711" style="stop-color:#EDBD87"/>
							<stop  offset="0.2863" style="stop-color:#EAB071"/>
							<stop  offset="0.4126" style="stop-color:#E59F51"/>
							<stop  offset="0.4559" style="stop-color:#E39844"/>
							<stop  offset="1" style="stop-color:#6E4631"/>
						</linearGradient>
						<path fill="url(#SVGID_9_)" d="M85.672,56.305c0-0.685,0.034-1.044,0.071-1.259c-0.714,0.904-1.58,1.418-3.287,1.418
							c-1.709,0-2.573-0.552-3.281-1.467c0.023,0.261,0.047,0.657,0.047,1.256c0,0.464-0.028,0.671-0.69,0.671
							c0,0.564,3.201,2.58,3.927,2.58c0.611,0,3.927-1.979,3.927-2.58C85.885,56.924,85.672,56.755,85.672,56.305z"/>
						
							<linearGradient id="SVGID_10_" gradientUnits="userSpaceOnUse" x1="637.9502" y1="1562.4814" x2="649.3564" y2="1562.4814" gradientTransform="matrix(1 0 0 1 -563 -1519.5)">
							<stop  offset="0" style="stop-color:#000000"/>
							<stop  offset="1" style="stop-color:#706D6D"/>
						</linearGradient>
						<path fill="url(#SVGID_10_)" d="M86.16,40.253c-1.187,1.074-1.875,0.969-3.078,0.971c-1.415,0.004-0.996-0.34-1.629,0.794
							c0.008-0.581-0.444,0.432-0.512-0.111c-0.901,0.11-1.002-0.438-1.52,0.295c-0.075-0.515-0.47,0.106-0.434-0.4
							c-0.954,0.383-2.229,0.058-2.229,2.484c0,0.897,0.229,1.654-0.231,2.025c-0.55,0.442,0.049,2.548,0.021,3.124
							c-0.688,0-0.754-1.198-0.8-1.851c-0.081-1.021-0.561-0.877-0.658-1.897c-0.161-1.684-0.284-2.457,0.21-4.073
							c0.53-1.708,1.018-3.021,2.606-3.806c1.192-0.588,2.872-1.591,4.084-1.193c0.837,0.272,2.579,0.469,3.385,0.881
							c0.649,0.333,0.816,0.4,0.864,0.579c0.046,0.159-0.003,0.405,0.113,0.991C86.378,39.193,86.216,40.202,86.16,40.253z"/>
						
							<linearGradient id="SVGID_11_" gradientUnits="userSpaceOnUse" x1="649.1602" y1="1562.7363" x2="652.9893" y2="1562.7363" gradientTransform="matrix(1 0 0 1 -563 -1519.5)">
							<stop  offset="0" style="stop-color:#000000"/>
							<stop  offset="1" style="stop-color:#706D6D"/>
						</linearGradient>
						<path fill="url(#SVGID_11_)" d="M89.519,41.536c-0.114-0.623-0.925-2.153-1.183-2.407c-0.314-0.309-0.574-1.064-0.806-1.238
							c-0.192-0.146-1.122-0.125-1.287,0.182c0.045,0.159-0.002,0.402,0.111,0.991c0.023,0.129-0.137,1.138-0.194,1.188
							c0.062,0.237,0.233,0.653,0.497,0.765c0.603,0.256,0.771,0.291,0.581,0.892c0.158-0.243,0.252-0.238,0.279-0.39
							c0.292,0.479,0.502,1.005,0.485,1.307c-0.019,0.393-0.092,0.793-0.005,1.171c0.079,0.343,0.182,0.689,0.418,1.65
							c0.086,0.357,0.245,0.335,0.208,0.694c-0.088,0.754-0.152,1.562-0.128,2.329c0.354,0,0.623-0.313,0.65-0.54
							c0.047-0.359,0.176-0.913,0.385-1.403c0.112-0.27,0.459-1.273,0.458-1.976C89.983,43.172,89.603,41.983,89.519,41.536z"/>
					</g>
				</g>
				<path d="M76.73,59.467c-0.447-0.042-4.085-1.402-4.814-1.503l-1.272-0.624l-0.876-0.415c-0.498,0-0.711-0.17-0.711-0.619
					c0-0.685,0.033-1.042,0.069-1.259c-0.713,0.905-1.578,1.419-3.285,1.419c1.708,0,2.573-0.515,3.287-1.42
					c0.632-0.806,1.15-1.917,2.03-3.254c0.412-0.625,0.623-2.202,0.721-3.121c0.354,0,0.621-0.314,0.649-0.54
					c0.048-0.357,0.177-0.912,0.386-1.402c0.113-0.268,0.458-1.273,0.456-1.977c0-1.58-0.378-2.768-0.464-3.217
					c-0.113-0.623-0.923-2.152-1.184-2.407c-0.312-0.308-0.571-1.063-0.806-1.237c-0.192-0.147-1.122-0.123-1.286,0.182
					c-0.049-0.177-0.215-0.245-0.863-0.578c-0.808-0.412-2.55-0.607-3.386-0.882c-1.21-0.4-2.892,0.604-4.083,1.194
					c-1.587,0.784-2.078,2.098-2.604,3.806c-0.499,1.615-0.374,2.389-0.213,4.071c0.097,1.021,0.582,0.877,0.66,1.899
					c0.049,0.653,0.112,1.85,0.801,1.85c0.082,0.623,0.28,1.92,0.586,2.358c0.887,1.266,1.398,2.382,2.036,3.203
					c0.08,0.105,0.164,0.204,0.25,0.297c-0.085-0.093-0.168-0.192-0.248-0.295c0.024,0.261,0.045,0.657,0.045,1.256
					c0,0.463-0.026,0.671-0.688,0.671l-0.9,0.416l-1.319,0.632c-0.703,0.095-4.309,1.453-4.743,1.493
					c-3.073,0.287-3.387,1.704-3.387,5.168c0,1.332,1.644,3.689,1.847,5.009c0.528,3.394,1.785,4.798,4.872,4.798h15.114
					c3.089,0,4.27-1.439,4.87-4.798c0.238-1.313,1.85-3.675,1.85-5.009C80.116,61.313,79.805,59.753,76.73,59.467z"/>
			</g>
		</g>
	</g>
</g>
</svg>
