<?xml version="1.0" encoding="utf-8"?>
<!-- Generator: Adobe Illustrator 16.0.0, SVG Export Plug-In . SVG Version: 6.00 Build 0)  -->
<!DOCTYPE svg PUBLIC "-//W3C//DTD SVG 1.1//EN" "http://www.w3.org/Graphics/SVG/1.1/DTD/svg11.dtd">
<svg version="1.1" id="Layer_1" xmlns="http://www.w3.org/2000/svg" xmlns:xlink="http://www.w3.org/1999/xlink" x="0px" y="0px"
	 width="131.5px" height="131.5px" viewBox="0 80.5 131.5 131.5" enable-background="new 0 80.5 131.5 131.5" xml:space="preserve">
<g id="Layer_1_1_">
	<rect y="80.817" opacity="0.76" fill="#FFFFFF" enable-background="new    " width="132.729" height="132.729"/>
</g>
<g id="Layer_2">
	<g>
		<g>
			<path fill="#FFFFFF" d="M62.711,156.732c11.305,0,18.567,0.09,18.477,1.483c0,0.894-7.104,1.264-18.408,1.264
				c-11.305,0-15.359-0.606-15.359-1.499C47.419,157.088,51.406,156.732,62.711,156.732z"/>
			<path fill="#FAFBFB" d="M62.718,156.786c11.164,0,18.431,0.103,18.346,1.435c0,0.86-7.118,1.227-18.282,1.227
				c-11.165,0-15.17-0.565-15.17-1.446C47.611,157.121,51.553,156.786,62.718,156.786z"/>
			<path fill="#F6F7F8" d="M62.724,156.84c11.024,0,18.296,0.117,18.218,1.385c0,0.829-7.135,1.191-18.158,1.191
				c-11.023,0-14.981-0.527-14.981-1.395C47.803,157.155,51.7,156.84,62.724,156.84z"/>
			<path fill="#F3F4F5" d="M62.73,156.895c10.883,0,18.16,0.13,18.087,1.334c0,0.797-7.148,1.155-18.032,1.155
				s-14.791-0.487-14.791-1.341C47.995,157.187,51.847,156.895,62.73,156.895z"/>
			<path fill="#F0F2F3" d="M62.737,156.948c10.742,0,18.025,0.144,17.958,1.285c0,0.765-7.165,1.119-17.907,1.119
				c-10.743,0-14.602-0.449-14.602-1.29C48.186,157.221,51.994,156.948,62.737,156.948z"/>
			<path fill="#EDEFF1" d="M62.744,157.002c10.602,0,17.889,0.158,17.828,1.235c0,0.732-7.179,1.083-17.781,1.083
				c-10.603,0-14.412-0.408-14.412-1.237C48.377,157.254,52.141,157.002,62.744,157.002z"/>
			<path fill="#EAEDEF" d="M62.75,157.056c10.461,0,17.754,0.171,17.698,1.185c0,0.701-7.194,1.047-17.655,1.047
				c-10.462,0-14.223-0.368-14.223-1.185C48.569,157.287,52.288,157.056,62.75,157.056z"/>
			<path fill="#E8EAED" d="M62.755,157.109c10.321,0,17.619,0.185,17.569,1.135c0,0.668-7.21,1.011-17.53,1.011
				c-10.322,0-14.034-0.329-14.034-1.133C48.761,157.32,52.435,157.109,62.755,157.109z"/>
			<path fill="#E5E8EB" d="M62.763,157.163c10.181,0,17.483,0.198,17.438,1.086c0,0.636-7.223,0.975-17.405,0.975
				c-10.18,0-13.843-0.29-13.843-1.08C48.952,157.354,52.582,157.163,62.763,157.163z"/>
			<path fill="#E2E6E9" d="M62.769,157.217c10.04,0,17.349,0.213,17.309,1.036c0,0.604-7.24,0.939-17.279,0.939
				c-10.041,0-13.654-0.251-13.654-1.028S52.729,157.217,62.769,157.217z"/>
			<path fill="#DFE3E7" d="M62.775,157.271c9.9,0,17.214,0.225,17.178,0.985c0,0.572-7.254,0.902-17.152,0.902
				c-9.9,0-13.465-0.211-13.465-0.976C49.336,157.42,52.875,157.271,62.775,157.271z"/>
			<path fill="#DCE1E5" d="M62.781,157.325c9.76,0,17.078,0.239,17.049,0.937c0,0.539-7.269,0.866-17.027,0.866
				c-9.759,0-13.275-0.171-13.275-0.924C49.528,157.453,53.022,157.325,62.781,157.325z"/>
			<path fill="#D9DFE3" d="M62.788,157.379c9.618,0,16.943,0.253,16.92,0.887c0,0.507-7.286,0.83-16.903,0.83
				c-9.619,0-13.086-0.131-13.086-0.871C49.719,157.485,53.169,157.379,62.788,157.379z"/>
			<path fill="#D7DDE1" d="M62.795,157.433c9.478,0,16.807,0.267,16.79,0.837c0,0.477-7.299,0.795-16.778,0.795
				c-9.478,0-12.896-0.092-12.896-0.818C49.911,157.521,53.316,157.433,62.795,157.433z"/>
			<path fill="#D4DBE0" d="M62.801,157.487c9.337,0,16.672,0.279,16.66,0.786c0,0.443-7.313,0.759-16.652,0.759
				c-9.337,0-12.707-0.053-12.707-0.767C50.103,157.553,53.463,157.487,62.801,157.487z"/>
			<path fill="#D1D9DE" d="M62.807,157.541c9.196,0,16.537,0.294,16.531,0.736c0,0.411-7.33,0.723-16.526,0.723
				c-9.198,0-12.518-0.014-12.518-0.714C50.295,157.587,53.61,157.541,62.807,157.541z"/>
			<path fill="#CED6DC" d="M62.814,157.595c9.056,0,16.4,0.308,16.4,0.688c0,0.379-7.344,0.687-16.4,0.687
				c-9.057,0-12.328,0.026-12.328-0.662C50.486,157.619,53.757,157.595,62.814,157.595z"/>
		</g>
		<g>
			<path fill="#CED6DC" d="M53.682,157.961c2.278,0,4.125,0.12,4.125,0.268c0,0.146-1.847,0.267-4.125,0.267
				c-2.278,0-3.429-0.13-3.429-0.276C50.254,158.07,51.404,157.961,53.682,157.961z"/>
			<path fill="#C9D2D8" d="M53.626,158.481c-2.206,0-3.342-0.125-3.342-0.267c0-0.143,1.136-0.248,3.342-0.248
				c2.207,0,3.996,0.116,3.996,0.258S55.833,158.481,53.626,158.481z"/>
			<path fill="#C5CDD4" d="M53.571,158.468c-2.134,0-3.257-0.12-3.257-0.257s1.123-0.239,3.257-0.239
				c2.136,0,3.867,0.112,3.867,0.248C57.438,158.356,55.707,158.468,53.571,158.468z"/>
			<path fill="#C0C9D0" d="M53.516,158.455c-2.063,0-3.171-0.115-3.171-0.247c0-0.133,1.109-0.23,3.171-0.23
				c2.064,0,3.738,0.107,3.738,0.238C57.254,158.348,55.58,158.455,53.516,158.455z"/>
			<path fill="#BBC5CC" d="M53.461,158.441c-1.992,0-3.086-0.11-3.086-0.236c0-0.127,1.094-0.222,3.086-0.222
				c1.993,0,3.608,0.104,3.608,0.229S55.453,158.441,53.461,158.441z"/>
			<path fill="#B6C0C9" d="M53.406,158.429c-1.92,0-3-0.106-3-0.228c0-0.12,1.08-0.212,3-0.212c1.921,0,3.479,0.099,3.479,0.22
				C56.884,158.33,55.327,158.429,53.406,158.429z"/>
			<path fill="#B2BCC5" d="M53.35,158.416c-1.849,0-2.915-0.102-2.915-0.218s1.066-0.204,2.915-0.204s3.35,0.095,3.35,0.21
				C56.7,158.321,55.199,158.416,53.35,158.416z"/>
			<path fill="#ADB8C2" d="M53.295,158.402c-1.777,0-2.829-0.097-2.829-0.207c0-0.111,1.052-0.195,2.829-0.195s3.221,0.09,3.221,0.2
				S55.072,158.402,53.295,158.402z"/>
			<path fill="#A9B4BE" d="M53.24,158.389c-1.706,0-2.744-0.092-2.744-0.197c0-0.104,1.038-0.186,2.744-0.186
				c1.706,0,3.092,0.086,3.092,0.19C56.332,158.303,54.946,158.389,53.24,158.389z"/>
			<path fill="#A4B0BB" d="M53.184,158.375c-1.634,0-2.658-0.086-2.658-0.187c0-0.1,1.023-0.177,2.658-0.177
				s2.962,0.082,2.962,0.182C56.147,158.293,54.819,158.375,53.184,158.375z"/>
			<path fill="#A0ACB8" d="M53.129,158.361c-1.563,0-2.572-0.081-2.572-0.176c0-0.096,1.009-0.169,2.572-0.169
				c1.563,0,2.833,0.077,2.833,0.172S54.691,158.361,53.129,158.361z"/>
			<path fill="#9CA8B4" d="M53.073,158.349c-1.491,0-2.487-0.077-2.487-0.167s0.996-0.16,2.487-0.16s2.704,0.073,2.704,0.164
				C55.778,158.275,54.565,158.349,53.073,158.349z"/>
			<path fill="#97A5B1" d="M53.019,158.335c-1.421,0-2.402-0.071-2.402-0.156s0.981-0.15,2.402-0.15c1.42,0,2.574,0.068,2.574,0.152
				C55.593,158.267,54.438,158.335,53.019,158.335z"/>
			<path fill="#93A1AE" d="M52.963,158.322c-1.349,0-2.316-0.066-2.316-0.146c0-0.079,0.967-0.143,2.316-0.143
				c1.348,0,2.445,0.065,2.445,0.144C55.409,158.257,54.312,158.322,52.963,158.322z"/>
			<path fill="#8F9EAB" d="M52.908,158.31c-1.277,0-2.23-0.063-2.23-0.138s0.953-0.134,2.23-0.134c1.277,0,2.317,0.062,2.317,0.136
				C55.225,158.247,54.185,158.31,52.908,158.31z"/>
			<path fill="#8B9AA8" d="M52.852,158.296c-1.206,0-2.145-0.058-2.145-0.127c0-0.067,0.939-0.124,2.145-0.124
				c1.205,0,2.188,0.057,2.188,0.125C55.04,158.239,54.057,158.296,52.852,158.296z"/>
			<path fill="#8797A5" d="M52.797,158.282c1.134,0,2.058-0.053,2.058-0.117c0-0.063-0.924-0.116-2.058-0.116
				c-1.135,0-2.06,0.053-2.06,0.116C50.738,158.229,51.664,158.282,52.797,158.282z"/>
			<path fill="#808F9E" d="M52.75,158.282c1.101,0,1.997-0.052,1.997-0.113s-0.897-0.112-1.997-0.112s-1.998,0.051-1.998,0.112
				S51.651,158.282,52.75,158.282z"/>
			<path fill="#7A8797" d="M52.705,158.282c1.066,0,1.935-0.05,1.935-0.108c0-0.061-0.869-0.11-1.935-0.11
				c-1.067,0-1.937,0.05-1.937,0.11C50.768,158.232,51.638,158.282,52.705,158.282z"/>
			<path fill="#748090" d="M52.658,158.282c1.032,0,1.875-0.048,1.875-0.106c0-0.058-0.842-0.105-1.875-0.105
				c-1.033,0-1.875,0.048-1.875,0.105C50.783,158.234,51.625,158.282,52.658,158.282z"/>
			<path fill="#6E7989" d="M52.611,158.282c0.999,0,1.813-0.047,1.813-0.103c0-0.055-0.814-0.102-1.813-0.102
				c-1,0-1.813,0.047-1.813,0.102C50.798,158.235,51.613,158.282,52.611,158.282z"/>
			<path fill="#687383" d="M52.565,158.282c0.965,0,1.751-0.045,1.751-0.099s-0.786-0.099-1.751-0.099
				c-0.965,0-1.752,0.045-1.752,0.099S51.6,158.282,52.565,158.282z"/>
			<path fill="#626C7D" d="M52.519,158.282c0.931,0,1.69-0.043,1.69-0.096c0-0.051-0.759-0.095-1.69-0.095
				c-0.932,0-1.691,0.044-1.691,0.095C50.828,158.239,51.587,158.282,52.519,158.282z"/>
			<path fill="#5C6677" d="M52.472,158.282c0.897,0,1.629-0.042,1.629-0.092s-0.731-0.092-1.629-0.092s-1.629,0.042-1.629,0.092
				S51.574,158.282,52.472,158.282z"/>
			<path fill="#566072" d="M52.426,158.282c0.864,0,1.568-0.04,1.568-0.089c0-0.048-0.704-0.088-1.568-0.088
				s-1.568,0.04-1.568,0.088C50.857,158.242,51.562,158.282,52.426,158.282z"/>
			<path fill="#505B6C" d="M52.379,158.281c0.83,0,1.506-0.038,1.506-0.083c0-0.047-0.677-0.085-1.506-0.085
				s-1.507,0.038-1.507,0.085C50.873,158.244,51.549,158.281,52.379,158.281z"/>
			<ellipse fill="#4A5567" cx="52.333" cy="158.201" rx="1.445" ry="0.08"/>
			<path fill="#455063" d="M52.286,158.281c0.763,0,1.384-0.035,1.384-0.077s-0.622-0.077-1.384-0.077
				c-0.762,0-1.383,0.035-1.383,0.077S51.523,158.281,52.286,158.281z"/>
			<path fill="#3F4B5E" d="M52.24,158.281c0.729,0,1.322-0.033,1.322-0.073s-0.594-0.073-1.322-0.073s-1.323,0.033-1.323,0.073
				S51.511,158.281,52.24,158.281z"/>
			<ellipse fill="#3A4559" cx="52.194" cy="158.212" rx="1.261" ry="0.07"/>
			<path fill="#344055" d="M52.147,158.281c0.661,0,1.2-0.029,1.2-0.066c0-0.036-0.539-0.065-1.2-0.065c-0.662,0-1.2,0.03-1.2,0.065
				C50.947,158.252,51.486,158.281,52.147,158.281z"/>
			<ellipse fill="#2F3B50" cx="52.101" cy="158.219" rx="1.139" ry="0.063"/>
			<ellipse fill="#2A364C" cx="52.055" cy="158.223" rx="1.078" ry="0.06"/>
		</g>
		<g>
			<path fill="#CED6DC" d="M64.391,158.409c1.43,0,2.591,0.119,2.591,0.266c0,0.147-1.161,0.268-2.591,0.268
				c-1.431,0-2.153-0.13-2.153-0.276C62.237,158.517,62.96,158.409,64.391,158.409z"/>
			<path fill="#C9D2D8" d="M64.397,158.938c-1.397,0-2.12-0.125-2.12-0.268c0-0.142,0.722-0.247,2.12-0.247s2.532,0.115,2.532,0.257
				C66.93,158.821,65.795,158.938,64.397,158.938z"/>
			<path fill="#C5CDD4" d="M64.405,158.936c-1.364,0-2.087-0.121-2.087-0.257c0-0.137,0.723-0.238,2.087-0.238s2.47,0.11,2.47,0.247
				S65.77,158.936,64.405,158.936z"/>
			<path fill="#C0C9D0" d="M64.413,158.932c-1.331,0-2.055-0.115-2.055-0.246c0-0.132,0.724-0.23,2.055-0.23
				s2.411,0.107,2.411,0.238C66.823,158.825,65.743,158.932,64.413,158.932z"/>
			<path fill="#BBC5CC" d="M64.42,158.929c-1.297,0-2.021-0.11-2.021-0.236s0.724-0.222,2.021-0.222c1.297,0,2.35,0.103,2.35,0.229
				C66.771,158.826,65.717,158.929,64.42,158.929z"/>
			<path fill="#B6C0C9" d="M64.427,158.926c-1.264,0-1.989-0.106-1.989-0.227c0-0.121,0.725-0.213,1.989-0.213
				c1.264,0,2.291,0.098,2.291,0.22S65.691,158.926,64.427,158.926z"/>
			<path fill="#B2BCC5" d="M64.435,158.922c-1.23,0-1.957-0.101-1.957-0.217s0.727-0.203,1.957-0.203c1.23,0,2.23,0.094,2.23,0.21
				C66.664,158.828,65.665,158.922,64.435,158.922z"/>
			<path fill="#ADB8C2" d="M64.442,158.918c-1.197,0-1.923-0.095-1.923-0.206c0-0.11,0.726-0.195,1.923-0.195
				c1.197,0,2.169,0.091,2.169,0.2C66.612,158.829,65.639,158.918,64.442,158.918z"/>
			<path fill="#A9B4BE" d="M64.449,158.915c-1.164,0-1.891-0.091-1.891-0.196c0-0.104,0.727-0.186,1.891-0.186
				c1.164,0,2.109,0.085,2.109,0.19C66.559,158.829,65.613,158.915,64.449,158.915z"/>
			<path fill="#A4B0BB" d="M64.457,158.912c-1.13,0-1.857-0.087-1.857-0.186c0-0.102,0.728-0.179,1.857-0.179
				s2.049,0.082,2.049,0.182C66.506,158.83,65.586,158.912,64.457,158.912z"/>
			<path fill="#A0ACB8" d="M64.464,158.908c-1.097,0-1.824-0.08-1.824-0.176c0-0.095,0.728-0.169,1.824-0.169
				c1.097,0,1.989,0.077,1.989,0.173C66.453,158.831,65.561,158.908,64.464,158.908z"/>
			<path fill="#9CA8B4" d="M64.472,158.904c-1.063,0-1.792-0.075-1.792-0.165s0.728-0.16,1.792-0.16
				c1.063,0,1.928,0.073,1.928,0.164C66.4,158.833,65.535,158.904,64.472,158.904z"/>
			<path fill="#97A5B1" d="M64.479,158.902c-1.03,0-1.759-0.071-1.759-0.155c0-0.086,0.729-0.151,1.759-0.151
				c1.03,0,1.868,0.068,1.868,0.153C66.348,158.833,65.508,158.902,64.479,158.902z"/>
			<path fill="#93A1AE" d="M64.486,158.898c-0.997,0-1.726-0.065-1.726-0.146c0-0.079,0.729-0.143,1.726-0.143
				s1.809,0.064,1.809,0.144C66.295,158.834,65.482,158.898,64.486,158.898z"/>
			<path fill="#8F9EAB" d="M64.494,158.895c-0.963,0-1.693-0.061-1.693-0.135s0.73-0.134,1.693-0.134s1.748,0.061,1.748,0.135
				S65.457,158.895,64.494,158.895z"/>
			<path fill="#8B9AA8" d="M64.5,158.892c-0.929,0-1.66-0.057-1.66-0.125c0-0.069,0.731-0.125,1.66-0.125
				c0.929,0,1.687,0.057,1.687,0.126C66.188,158.836,65.43,158.892,64.5,158.892z"/>
			<path fill="#8797A5" d="M64.508,158.889c0.896,0,1.628-0.052,1.628-0.116s-0.731-0.116-1.628-0.116s-1.627,0.052-1.627,0.116
				C62.881,158.837,63.612,158.889,64.508,158.889z"/>
			<path fill="#808F9E" d="M64.503,158.887c0.871,0,1.58-0.049,1.58-0.111s-0.71-0.113-1.58-0.113s-1.581,0.051-1.581,0.113
				S63.633,158.887,64.503,158.887z"/>
			<path fill="#7A8797" d="M64.499,158.887c0.845,0,1.533-0.049,1.533-0.109c0-0.06-0.689-0.108-1.533-0.108
				c-0.845,0-1.534,0.049-1.534,0.108C62.964,158.838,63.653,158.887,64.499,158.887z"/>
			<path fill="#748090" d="M64.494,158.885c0.819,0,1.487-0.046,1.487-0.104c0-0.058-0.668-0.105-1.487-0.105
				c-0.819,0-1.487,0.048-1.487,0.105C63.007,158.839,63.674,158.885,64.494,158.885z"/>
			<path fill="#6E7989" d="M64.488,158.884c0.793,0,1.44-0.045,1.44-0.102c0-0.055-0.647-0.102-1.44-0.102
				c-0.794,0-1.44,0.047-1.44,0.102C63.048,158.839,63.694,158.884,64.488,158.884z"/>
			<path fill="#687383" d="M64.483,158.883c0.767,0,1.393-0.043,1.393-0.098c0-0.054-0.626-0.098-1.393-0.098
				c-0.768,0-1.394,0.044-1.394,0.098C63.09,158.84,63.716,158.883,64.483,158.883z"/>
			<path fill="#626C7D" d="M64.478,158.883c0.742,0,1.347-0.042,1.347-0.095c0-0.052-0.605-0.095-1.347-0.095
				c-0.741,0-1.346,0.043-1.346,0.095C63.132,158.841,63.737,158.883,64.478,158.883z"/>
			<ellipse fill="#5C6677" cx="64.473" cy="158.791" rx="1.299" ry="0.091"/>
			<path fill="#566072" d="M64.469,158.88c0.69,0,1.252-0.039,1.252-0.087c0-0.047-0.562-0.088-1.252-0.088
				c-0.691,0-1.253,0.039-1.253,0.088C63.216,158.841,63.778,158.88,64.469,158.88z"/>
			<path fill="#505B6C" d="M64.463,158.88c0.664,0,1.206-0.038,1.206-0.084c0-0.047-0.542-0.084-1.206-0.084
				c-0.665,0-1.206,0.037-1.206,0.084C63.257,158.842,63.798,158.88,64.463,158.88z"/>
			<path fill="#4A5567" d="M64.458,158.879c0.638,0,1.158-0.036,1.158-0.081c0-0.044-0.52-0.08-1.158-0.08
				c-0.639,0-1.16,0.036-1.16,0.08C63.299,158.843,63.82,158.879,64.458,158.879z"/>
			<ellipse fill="#455063" cx="64.453" cy="158.801" rx="1.112" ry="0.077"/>
			<path fill="#3F4B5E" d="M64.448,158.877c0.587,0,1.065-0.033,1.065-0.074c0-0.039-0.478-0.073-1.065-0.073
				c-0.586,0-1.065,0.034-1.065,0.073C63.383,158.844,63.862,158.877,64.448,158.877z"/>
			<ellipse fill="#3A4559" cx="64.443" cy="158.805" rx="1.018" ry="0.07"/>
			<ellipse fill="#344055" cx="64.438" cy="158.808" rx="0.971" ry="0.066"/>
			<ellipse fill="#2F3B50" cx="64.434" cy="158.811" rx="0.924" ry="0.063"/>
			<ellipse fill="#2A364C" cx="64.429" cy="158.813" rx="0.876" ry="0.06"/>
		</g>
		<g>
			<path fill="#CED6DC" d="M76.001,158.025c-1.835,0-3.325,0.119-3.325,0.267c0,0.146,1.489,0.266,3.325,0.266
				c1.837,0,2.762-0.129,2.762-0.275C78.764,158.135,77.837,158.025,76.001,158.025z"/>
			<path fill="#C9D2D8" d="M76.045,158.544c1.779,0,2.694-0.123,2.694-0.266s-0.915-0.248-2.694-0.248
				c-1.776,0-3.22,0.115-3.22,0.258C72.826,158.43,74.269,158.544,76.045,158.544z"/>
			<path fill="#C5CDD4" d="M76.091,158.532c1.72,0,2.624-0.12,2.624-0.257c0-0.138-0.904-0.239-2.624-0.239
				c-1.721,0-3.116,0.111-3.116,0.249C72.975,158.421,74.37,158.532,76.091,158.532z"/>
			<path fill="#C0C9D0" d="M76.135,158.519c1.663,0,2.556-0.116,2.556-0.247c0-0.132-0.893-0.23-2.556-0.23
				c-1.662,0-3.012,0.108-3.012,0.239C73.123,158.412,74.473,158.519,76.135,158.519z"/>
			<path fill="#BBC5CC" d="M76.18,158.505c1.605,0,2.486-0.11,2.486-0.236s-0.88-0.221-2.486-0.221
				c-1.604,0-2.908,0.103-2.908,0.229C73.272,158.401,74.576,158.505,76.18,158.505z"/>
			<path fill="#B6C0C9" d="M76.224,158.491c1.548,0,2.417-0.104,2.417-0.226s-0.87-0.213-2.417-0.213
				c-1.547,0-2.804,0.099-2.804,0.22C73.42,158.395,74.677,158.491,76.224,158.491z"/>
			<path fill="#B2BCC5" d="M76.27,158.478c1.489,0,2.348-0.1,2.348-0.216c0-0.115-0.858-0.203-2.348-0.203
				c-1.49,0-2.701,0.094-2.701,0.21C73.569,158.385,74.78,158.478,76.27,158.478z"/>
			<path fill="#ADB8C2" d="M76.314,158.465c1.432,0,2.279-0.095,2.279-0.206s-0.847-0.195-2.279-0.195
				c-1.432,0-2.596,0.091-2.596,0.2C73.719,158.374,74.881,158.465,76.314,158.465z"/>
			<path fill="#A9B4BE" d="M76.358,158.451c1.375,0,2.21-0.091,2.21-0.195c0-0.105-0.835-0.187-2.21-0.187
				c-1.374,0-2.491,0.086-2.491,0.192C73.867,158.366,74.984,158.451,76.358,158.451z"/>
			<path fill="#A4B0BB" d="M76.403,158.438c1.318,0,2.141-0.086,2.141-0.186c0-0.101-0.823-0.177-2.141-0.177
				c-1.317,0-2.387,0.081-2.387,0.182C74.016,158.356,75.087,158.438,76.403,158.438z"/>
			<path fill="#A0ACB8" d="M76.448,158.426c1.258,0,2.071-0.082,2.071-0.177s-0.813-0.168-2.071-0.168
				c-1.261,0-2.283,0.077-2.283,0.172C74.165,158.347,75.188,158.426,76.448,158.426z"/>
			<path fill="#9CA8B4" d="M76.492,158.412c1.202,0,2.003-0.076,2.003-0.166s-0.801-0.159-2.003-0.159
				c-1.202,0-2.178,0.072-2.178,0.162C74.313,158.339,75.29,158.412,76.492,158.412z"/>
			<path fill="#97A5B1" d="M76.537,158.398c1.144,0,1.935-0.071,1.935-0.156c0-0.084-0.791-0.15-1.935-0.15
				c-1.145,0-2.075,0.068-2.075,0.154C74.462,158.33,75.393,158.398,76.537,158.398z"/>
			<path fill="#93A1AE" d="M76.581,158.385c1.086,0,1.865-0.065,1.865-0.145c0-0.08-0.779-0.143-1.865-0.143
				s-1.971,0.064-1.971,0.144S75.495,158.385,76.581,158.385z"/>
			<path fill="#8F9EAB" d="M76.626,158.371c1.028,0,1.796-0.061,1.796-0.135s-0.768-0.134-1.796-0.134
				c-1.03,0-1.867,0.062-1.867,0.135C74.759,158.312,75.597,158.371,76.626,158.371z"/>
			<path fill="#8B9AA8" d="M76.67,158.359c0.971,0,1.728-0.058,1.728-0.126s-0.757-0.124-1.728-0.124s-1.762,0.056-1.762,0.124
				C74.908,158.303,75.7,158.359,76.67,158.359z"/>
			<path fill="#8797A5" d="M76.716,158.346c0.912,0,1.658-0.053,1.658-0.116c0-0.064-0.746-0.116-1.658-0.116
				c-0.915,0-1.66,0.052-1.66,0.116C75.056,158.293,75.801,158.346,76.716,158.346z"/>
			<path fill="#808F9E" d="M76.752,158.346c0.886,0,1.609-0.051,1.609-0.112c0-0.063-0.723-0.112-1.609-0.112
				c-0.887,0-1.608,0.05-1.608,0.112C75.145,158.295,75.866,158.346,76.752,158.346z"/>
			<path fill="#7A8797" d="M76.79,158.346c0.858,0,1.559-0.05,1.559-0.108c0-0.061-0.701-0.109-1.559-0.109
				c-0.859,0-1.56,0.049-1.56,0.109C75.23,158.296,75.931,158.346,76.79,158.346z"/>
			<path fill="#748090" d="M76.827,158.346c0.831,0,1.51-0.048,1.51-0.105c0-0.059-0.679-0.104-1.51-0.104
				c-0.832,0-1.51,0.046-1.51,0.104C75.317,158.298,75.996,158.346,76.827,158.346z"/>
			<path fill="#6E7989" d="M76.865,158.346c0.805,0,1.461-0.046,1.461-0.102s-0.657-0.102-1.461-0.102s-1.461,0.046-1.461,0.102
				S76.06,158.346,76.865,158.346z"/>
			<path fill="#687383" d="M76.903,158.346c0.776,0,1.411-0.045,1.411-0.099s-0.635-0.098-1.411-0.098
				c-0.779,0-1.413,0.044-1.413,0.098S76.124,158.346,76.903,158.346z"/>
			<path fill="#626C7D" d="M76.94,158.346c0.749,0,1.361-0.043,1.361-0.095s-0.613-0.095-1.361-0.095
				c-0.75,0-1.363,0.043-1.363,0.095S76.188,158.346,76.94,158.346z"/>
			<path fill="#5C6677" d="M76.978,158.346c0.723,0,1.312-0.041,1.312-0.092c0-0.05-0.589-0.091-1.312-0.091
				c-0.724,0-1.313,0.041-1.313,0.091C75.664,158.305,76.253,158.346,76.978,158.346z"/>
			<path fill="#566072" d="M77.015,158.346c0.695,0,1.263-0.04,1.263-0.088s-0.568-0.088-1.263-0.088
				c-0.697,0-1.264,0.04-1.264,0.088C75.751,158.307,76.318,158.346,77.015,158.346z"/>
			<path fill="#505B6C" d="M77.052,158.346c0.668,0,1.213-0.038,1.213-0.084c0-0.047-0.545-0.085-1.213-0.085
				c-0.669,0-1.214,0.038-1.214,0.085C75.838,158.308,76.383,158.346,77.052,158.346z"/>
			<path fill="#4A5567" d="M77.088,158.346c0.642,0,1.166-0.036,1.166-0.08c0-0.045-0.523-0.081-1.166-0.081
				c-0.641,0-1.164,0.036-1.164,0.081C75.924,158.31,76.447,158.346,77.088,158.346z"/>
			<ellipse fill="#455063" cx="77.126" cy="158.269" rx="1.115" ry="0.077"/>
			<path fill="#3F4B5E" d="M77.165,158.346c0.587,0,1.065-0.033,1.065-0.074c0-0.039-0.479-0.072-1.065-0.072
				c-0.588,0-1.066,0.033-1.066,0.072C76.098,158.313,76.576,158.346,77.165,158.346z"/>
			<path fill="#3A4559" d="M77.202,158.346c0.559,0,1.016-0.031,1.016-0.069c0-0.039-0.457-0.071-1.016-0.071
				c-0.561,0-1.017,0.032-1.017,0.071C76.185,158.314,76.641,158.346,77.202,158.346z"/>
			<ellipse fill="#344055" cx="77.239" cy="158.279" rx="0.966" ry="0.066"/>
			<path fill="#2F3B50" d="M77.277,158.346c0.505,0,0.917-0.028,0.917-0.063s-0.412-0.063-0.917-0.063
				c-0.507,0-0.918,0.027-0.918,0.063S76.77,158.346,77.277,158.346z"/>
			<ellipse fill="#2A364C" cx="77.313" cy="158.286" rx="0.868" ry="0.06"/>
		</g>
		
			<linearGradient id="SVGID_1_" gradientUnits="userSpaceOnUse" x1="247.4521" y1="-111.2134" x2="247.4521" y2="-114.2189" gradientTransform="matrix(1 0 0 -1 -183 -14.5)">
			<stop  offset="0" style="stop-color:#425255"/>
			<stop  offset="0.74" style="stop-color:#48585A"/>
			<stop  offset="0.82" style="stop-color:#303F43"/>
			<stop  offset="1" style="stop-color:#0E1819"/>
		</linearGradient>
		<rect x="63.62" y="95.843" fill="url(#SVGID_1_)" width="1.664" height="17.401"/>
		
			<linearGradient id="SVGID_2_" gradientUnits="userSpaceOnUse" x1="254.2754" y1="-172.7764" x2="254.2754" y2="-168.3483" gradientTransform="matrix(1 0 0 -1 -183 -14.5)">
			<stop  offset="0" style="stop-color:#314044"/>
			<stop  offset="1" style="stop-color:#0E1819"/>
		</linearGradient>
		<polygon fill="url(#SVGID_2_)" points="65.557,152.987 78.26,156.697 78.255,156.7 78.271,156.7 78.271,158.29 75.961,158.29 
			75.961,157.246 64.28,153.835 		"/>
		
			<linearGradient id="SVGID_3_" gradientUnits="userSpaceOnUse" x1="240.626" y1="-172.7764" x2="240.626" y2="-168.3483" gradientTransform="matrix(1 0 0 -1 -183 -14.5)">
			<stop  offset="0" style="stop-color:#314044"/>
			<stop  offset="1" style="stop-color:#0E1819"/>
		</linearGradient>
		<polygon fill="url(#SVGID_3_)" points="63.332,152.987 50.657,156.697 50.663,156.7 50.646,156.7 50.646,158.29 52.951,158.29 
			52.951,157.246 64.605,153.835 		"/>
		
			<linearGradient id="SVGID_4_" gradientUnits="userSpaceOnUse" x1="247.4521" y1="-165.9224" x2="247.4521" y2="-158.981" gradientTransform="matrix(1 0 0 -1 -183 -14.5)">
			<stop  offset="0" style="stop-color:#425255"/>
			<stop  offset="0.74" style="stop-color:#5C696C"/>
			<stop  offset="0.82" style="stop-color:#303F43"/>
			<stop  offset="1" style="stop-color:#0E1819"/>
		</linearGradient>
		<rect x="63.291" y="113.244" fill="url(#SVGID_4_)" width="2.323" height="40.188"/>
		
			<linearGradient id="SVGID_5_" gradientUnits="userSpaceOnUse" x1="247.4521" y1="-165.9224" x2="247.4521" y2="-158.981" gradientTransform="matrix(1 0 0 -1 -183 -14.5)">
			<stop  offset="0" style="stop-color:#425255"/>
			<stop  offset="0.74" style="stop-color:#48585A"/>
			<stop  offset="0.82" style="stop-color:#303F43"/>
			<stop  offset="1" style="stop-color:#0E1819"/>
		</linearGradient>
		<rect x="63.62" y="113.244" fill="url(#SVGID_5_)" width="1.664" height="40.188"/>
		
			<linearGradient id="SVGID_6_" gradientUnits="userSpaceOnUse" x1="247.4531" y1="-117.8921" x2="247.4531" y2="-116.2602" gradientTransform="matrix(1 0 0 -1 -183 -14.5)">
			<stop  offset="0" style="stop-color:#BCBFC4"/>
			<stop  offset="0.49" style="stop-color:#A5A6AA"/>
			<stop  offset="1" style="stop-color:#606667"/>
		</linearGradient>
		<rect x="38.753" y="100.465" fill="url(#SVGID_6_)" width="51.399" height="42.911"/>
		
			<radialGradient id="SVGID_7_" cx="247.4531" cy="-137.1196" r="29.8191" gradientTransform="matrix(1 0 0 -1 -183 -14.5)" gradientUnits="userSpaceOnUse">
			<stop  offset="0" style="stop-color:#FFFFFF"/>
			<stop  offset="0.38" style="stop-color:#F7F6F7"/>
			<stop  offset="0.68" style="stop-color:#DDDEE1"/>
			<stop  offset="1" style="stop-color:#BCBFC4"/>
		</radialGradient>
		<rect x="39.236" y="103.054" fill="url(#SVGID_7_)" width="50.433" height="39.931"/>
		
			<linearGradient id="SVGID_8_" gradientUnits="userSpaceOnUse" x1="247.4531" y1="-116.4048" x2="247.4531" y2="-112.895" gradientTransform="matrix(1 0 0 -1 -183 -14.5)">
			<stop  offset="0" style="stop-color:#676A6A"/>
			<stop  offset="0.22" style="stop-color:#2A3233"/>
			<stop  offset="0.29" style="stop-color:#2A3233"/>
			<stop  offset="0.41" style="stop-color:#202828"/>
			<stop  offset="0.45" style="stop-color:#424A4A"/>
			<stop  offset="0.62" style="stop-color:#52595A"/>
			<stop  offset="0.73" style="stop-color:#0B1515"/>
			<stop  offset="0.88" style="stop-color:#5D6262"/>
			<stop  offset="1" style="stop-color:#9A9A9B"/>
		</linearGradient>
		<rect x="38.191" y="98.395" fill="url(#SVGID_8_)" width="52.523" height="3.51"/>
		
			<linearGradient id="SVGID_9_" gradientUnits="userSpaceOnUse" x1="247.4531" y1="-159.043" x2="247.4531" y2="-157.2881" gradientTransform="matrix(1 0 0 -1 -183 -14.5)">
			<stop  offset="0" style="stop-color:#676A6A"/>
			<stop  offset="0.22" style="stop-color:#2A3233"/>
			<stop  offset="0.29" style="stop-color:#2A3233"/>
			<stop  offset="0.41" style="stop-color:#202828"/>
			<stop  offset="0.45" style="stop-color:#424A4A"/>
			<stop  offset="0.62" style="stop-color:#52595A"/>
			<stop  offset="0.73" style="stop-color:#0B1515"/>
			<stop  offset="0.88" style="stop-color:#5D6262"/>
			<stop  offset="1" style="stop-color:#9A9A9B"/>
		</linearGradient>
		<rect x="38.191" y="142.788" fill="url(#SVGID_9_)" width="52.523" height="1.755"/>
		
			<linearGradient id="SVGID_10_" gradientUnits="userSpaceOnUse" x1="247.4395" y1="-171.6963" x2="247.4395" y2="-165.6276" gradientTransform="matrix(1 0 0 -1 -183 -14.5)">
			<stop  offset="0" style="stop-color:#344447"/>
			<stop  offset="1" style="stop-color:#0E1819"/>
		</linearGradient>
		<rect x="63.305" y="152.987" fill="url(#SVGID_10_)" width="2.269" height="4.473"/>
		
			<linearGradient id="SVGID_11_" gradientUnits="userSpaceOnUse" x1="246.3057" y1="-172.4829" x2="246.3057" y2="-146.0943" gradientTransform="matrix(1 0 0 -1 -183 -14.5)">
			<stop  offset="0" style="stop-color:#38484B"/>
			<stop  offset="1" style="stop-color:#FFFFFF"/>
		</linearGradient>
		<path fill="url(#SVGID_11_)" d="M63.362,158.769c0,0.032-0.026,0.057-0.057,0.057s-0.056-0.024-0.056-0.057v-5.78
			c0-0.031,0.025-0.057,0.056-0.057s0.057,0.025,0.057,0.057V158.769z"/>
		
			<linearGradient id="SVGID_12_" gradientUnits="userSpaceOnUse" x1="248.5938" y1="-172.4829" x2="248.5938" y2="-146.0943" gradientTransform="matrix(1 0 0 -1 -183 -14.5)">
			<stop  offset="0" style="stop-color:#38484B"/>
			<stop  offset="1" style="stop-color:#FFFFFF"/>
		</linearGradient>
		<path fill="url(#SVGID_12_)" d="M65.65,158.769c0,0.032-0.025,0.057-0.056,0.057c-0.031,0-0.057-0.024-0.057-0.057v-5.78
			c0-0.031,0.026-0.057,0.057-0.057c0.031,0,0.056,0.025,0.056,0.057V158.769z"/>
		
			<linearGradient id="SVGID_13_" gradientUnits="userSpaceOnUse" x1="247.4463" y1="-173.1675" x2="247.4463" y2="-166.9351" gradientTransform="matrix(1 0 0 -1 -183 -14.5)">
			<stop  offset="0" style="stop-color:#38484B"/>
			<stop  offset="1" style="stop-color:#FFFFFF"/>
		</linearGradient>
		<rect x="63.249" y="157.461" fill="url(#SVGID_13_)" width="2.394" height="1.405"/>
		
			<linearGradient id="SVGID_14_" gradientUnits="userSpaceOnUse" x1="240.0059" y1="-172.2764" x2="240.0059" y2="-147.6194" gradientTransform="matrix(1 0 0 -1 -183 -14.5)">
			<stop  offset="0" style="stop-color:#38484B"/>
			<stop  offset="1" style="stop-color:#FFFFFF"/>
		</linearGradient>
		<path fill="url(#SVGID_14_)" d="M50.764,158.233c0,0.03-0.025,0.057-0.056,0.057c-0.032,0-0.057-0.026-0.057-0.057v-1.539
			c0-0.027,0.019-0.05,0.043-0.056l12.595-3.706c0.03-0.009,0.061,0.01,0.069,0.039c0.009,0.03-0.008,0.062-0.039,0.069
			l-12.558,3.695v1.497H50.764z"/>
		
			<linearGradient id="SVGID_15_" gradientUnits="userSpaceOnUse" x1="254.8945" y1="-172.2764" x2="254.8945" y2="-147.6194" gradientTransform="matrix(1 0 0 -1 -183 -14.5)">
			<stop  offset="0" style="stop-color:#38484B"/>
			<stop  offset="1" style="stop-color:#FFFFFF"/>
		</linearGradient>
		<path fill="url(#SVGID_15_)" d="M78.135,158.233c0,0.03,0.026,0.057,0.058,0.057c0.03,0,0.056-0.026,0.056-0.057v-1.539
			c0-0.027-0.019-0.05-0.044-0.056l-12.595-3.706c-0.03-0.009-0.061,0.01-0.069,0.039c-0.009,0.03,0.009,0.062,0.038,0.069
			l12.558,3.695v1.497H78.135z"/>
		
			<linearGradient id="SVGID_16_" gradientUnits="userSpaceOnUse" x1="247.418" y1="-171.4526" x2="247.4617" y2="-172.2876" gradientTransform="matrix(1 0 0 -1 -183 -14.5)">
			<stop  offset="0" style="stop-color:#38484B"/>
			<stop  offset="1" style="stop-color:#FFFFFF"/>
		</linearGradient>
		<rect x="63.249" y="157.46" fill="url(#SVGID_16_)" width="2.394" height="0.053"/>
		
			<radialGradient id="SVGID_17_" cx="243.2979" cy="-119.9531" r="43.7696" gradientTransform="matrix(1 0 0 -1 -183 -14.5)" gradientUnits="userSpaceOnUse">
			<stop  offset="0" style="stop-color:#CDDC38"/>
			<stop  offset="0.23" style="stop-color:#B5D337"/>
			<stop  offset="0.58" style="stop-color:#8CBE3F"/>
			<stop  offset="1" style="stop-color:#8CBE3F"/>
		</radialGradient>
		<path fill="url(#SVGID_17_)" d="M44.561,105.107h39.783c1.759,0,3.196,1.44,3.196,3.196v26.775v1.438
			c0,1.759-1.438,3.195-3.196,3.195h-0.823H45.385h-0.824c-1.758,0-3.196-1.438-3.196-3.195v-1.438v-26.775
			C41.364,106.547,42.802,105.107,44.561,105.107z"/>
		
			<radialGradient id="SVGID_18_" cx="243.6396" cy="-119.9531" r="42.4146" gradientTransform="matrix(1 0 0 -1 -183 -14.5)" gradientUnits="userSpaceOnUse">
			<stop  offset="0" style="stop-color:#DAE252"/>
			<stop  offset="0.23" style="stop-color:#C8DA37"/>
			<stop  offset="0.58" style="stop-color:#9DC33D"/>
			<stop  offset="1" style="stop-color:#9DC33D"/>
		</radialGradient>
		<path fill="url(#SVGID_18_)" d="M44.561,105.107h4.867v34.605h-4.043h-0.824c-0.462,0-0.902-0.099-1.3-0.277v-34.05
			C43.658,105.207,44.099,105.107,44.561,105.107L44.561,105.107z M55.394,105.107h6.167v34.605h-6.167V105.107L55.394,105.107z
			 M67.348,105.107h6.168v34.605h-6.168V105.107L67.348,105.107z M79.48,105.107h4.863c0.463,0,0.905,0.1,1.303,0.28v34.047
			c-0.398,0.179-0.84,0.278-1.303,0.278h-0.823h-4.04V105.107L79.48,105.107z"/>
		
			<linearGradient id="SVGID_19_" gradientUnits="userSpaceOnUse" x1="247.4531" y1="-116.4048" x2="247.4531" y2="-112.895" gradientTransform="matrix(1 0 0 -1 -183 -14.5)">
			<stop  offset="0" style="stop-color:#6F9A41"/>
			<stop  offset="0.29" style="stop-color:#2A3233"/>
			<stop  offset="0.41" style="stop-color:#202828"/>
			<stop  offset="0.45" style="stop-color:#424A4A"/>
			<stop  offset="0.62" style="stop-color:#52595A"/>
			<stop  offset="0.73" style="stop-color:#0B1515"/>
			<stop  offset="0.88" style="stop-color:#5D6262"/>
			<stop  offset="1" style="stop-color:#9A9A9B"/>
		</linearGradient>
		<rect x="41.742" y="98.395" fill="url(#SVGID_19_)" width="45.423" height="3.51"/>
		
			<linearGradient id="SVGID_20_" gradientUnits="userSpaceOnUse" x1="247.5127" y1="-111.0215" x2="247.2644" y2="-108.6588" gradientTransform="matrix(1 0 0 -1 -183 -14.5)">
			<stop  offset="0" style="stop-color:#545B5C"/>
			<stop  offset="1" style="stop-color:#FFFFFF"/>
		</linearGradient>
		<rect x="63.62" y="95.843" fill="url(#SVGID_20_)" width="1.664" height="0.201"/>
		<path fill="#2B3618" d="M61.438,119.387v-0.003v-0.004v-4.039h-1.636c-0.042,0-0.078-0.035-0.078-0.078s0.035-0.077,0.078-0.077
			h1.713c0.042,0,0.078,0.034,0.078,0.077v0.005v4.039h1.475c0.042,0,0.078,0.035,0.078,0.077c0,0.043-0.036,0.078-0.078,0.078
			h-1.475v9.512c0,0.043-0.036,0.077-0.078,0.077h-0.004h-1.709c-0.042,0-0.078-0.034-0.078-0.077c0-0.042,0.035-0.078,0.078-0.078
			h1.636V119.387L61.438,119.387z M47.646,110.478c-0.042,0-0.078-0.035-0.078-0.078c0-0.041,0.036-0.077,0.078-0.077h1.714
			c0.042,0,0.078,0.036,0.078,0.077v0.005v1.352h1.475c0.043,0,0.078,0.035,0.078,0.077c0,0.044-0.035,0.078-0.078,0.078h-1.475
			v1.357c0,0.041-0.035,0.077-0.078,0.077h-0.004h-1.71c-0.042,0-0.078-0.036-0.078-0.077c0-0.043,0.036-0.078,0.078-0.078h1.636
			v-1.353v-0.005v-0.003v-1.353H47.646L47.646,110.478z M47.646,124.188c-0.042,0-0.078-0.034-0.078-0.076
			c0-0.044,0.036-0.079,0.078-0.079h1.714c0.042,0,0.078,0.035,0.078,0.079v0.004v1.352h1.475c0.043,0,0.078,0.035,0.078,0.077
			c0,0.043-0.035,0.078-0.078,0.078h-1.475v1.356c0,0.042-0.035,0.077-0.078,0.077h-0.004h-1.71c-0.042,0-0.078-0.035-0.078-0.077
			c0-0.043,0.036-0.078,0.078-0.078h1.636v-1.352v-0.005v-0.004v-1.353H47.646L47.646,124.188z M53.72,125.593
			c-0.043,0-0.077-0.034-0.077-0.078c0-0.042,0.034-0.077,0.077-0.077h1.714c0.042,0,0.078,0.035,0.078,0.077v0.005v3.376h1.475
			c0.042,0,0.078,0.036,0.078,0.077c0,0.043-0.035,0.078-0.078,0.078h-1.475v3.379c0,0.043-0.035,0.078-0.078,0.078H55.43h-1.71
			c-0.043,0-0.077-0.035-0.077-0.078c0-0.042,0.034-0.077,0.077-0.077h1.636v-3.376v-0.004v-0.004v-3.376H53.72L53.72,125.593z
			 M53.72,111.882c-0.043,0-0.077-0.036-0.077-0.078c0-0.043,0.034-0.077,0.077-0.077h1.714c0.042,0,0.078,0.034,0.078,0.077v0.005
			v3.376h1.475c0.042,0,0.078,0.035,0.078,0.077s-0.035,0.077-0.078,0.077h-1.475v3.38c0,0.042-0.035,0.077-0.078,0.077H55.43h-1.71
			c-0.043,0-0.077-0.035-0.077-0.077s0.034-0.077,0.077-0.077h1.636v-3.377v-0.005v-0.003v-3.376L53.72,111.882L53.72,111.882z
			 M47.646,117.333c-0.042,0-0.078-0.035-0.078-0.078c0-0.042,0.036-0.077,0.078-0.077h1.714c0.042,0,0.078,0.035,0.078,0.077v0.005
			v1.352h1.475c0.043,0,0.078,0.035,0.078,0.078c0,0.042-0.035,0.077-0.078,0.077h-1.475v1.355c0,0.044-0.035,0.078-0.078,0.078
			h-0.004h-1.71c-0.042,0-0.078-0.034-0.078-0.078c0-0.042,0.036-0.077,0.078-0.077h1.636v-1.351v-0.005v-0.004v-1.353H47.646
			L47.646,117.333z M47.646,131.044c-0.042,0-0.078-0.034-0.078-0.077c0-0.042,0.036-0.078,0.078-0.078h1.714
			c0.042,0,0.078,0.036,0.078,0.078v0.004v1.353h1.475c0.043,0,0.078,0.035,0.078,0.077c0,0.043-0.035,0.077-0.078,0.077h-1.475
			v1.357c0,0.042-0.035,0.077-0.078,0.077h-0.004h-1.71c-0.042,0-0.078-0.035-0.078-0.077s0.036-0.077,0.078-0.077h1.636v-1.353
			V132.4v-0.004v-1.353H47.646z"/>
		<path fill="#2B3618" d="M67.468,122.809v0.005v0.004v6.076h1.636c0.043,0,0.079,0.035,0.079,0.078s-0.036,0.077-0.079,0.077
			h-1.713c-0.043,0-0.079-0.034-0.079-0.077v-0.004v-6.076h-1.474c-0.043,0-0.078-0.035-0.078-0.078s0.035-0.077,0.078-0.077h1.474
			v-7.475c0-0.043,0.036-0.078,0.079-0.078h0.003h1.709c0.043,0,0.079,0.035,0.079,0.078c0,0.042-0.036,0.077-0.079,0.077h-1.636
			V122.809L67.468,122.809z M81.258,133.758c0.043,0,0.078,0.035,0.078,0.077s-0.035,0.077-0.078,0.077h-1.714
			c-0.043,0-0.077-0.035-0.077-0.077v-0.005v-1.353h-1.476c-0.043,0-0.077-0.034-0.077-0.077c0-0.042,0.034-0.077,0.077-0.077h1.476
			v-1.356c0-0.042,0.034-0.078,0.077-0.078h0.005h1.709c0.043,0,0.078,0.036,0.078,0.078c0,0.043-0.035,0.077-0.078,0.077h-1.636
			v1.353v0.004v0.005v1.353H81.258L81.258,133.758z M81.258,120.045c0.043,0,0.078,0.035,0.078,0.077
			c0,0.044-0.035,0.078-0.078,0.078h-1.714c-0.043,0-0.077-0.034-0.077-0.078v-0.004v-1.352h-1.476
			c-0.043,0-0.077-0.035-0.077-0.077c0-0.043,0.034-0.078,0.077-0.078h1.476v-1.356c0-0.042,0.034-0.077,0.077-0.077h0.005h1.709
			c0.043,0,0.078,0.035,0.078,0.077c0,0.043-0.035,0.078-0.078,0.078h-1.636v1.353v0.004v0.005v1.351H81.258L81.258,120.045z
			 M75.185,118.642c0.043,0,0.079,0.035,0.079,0.077s-0.036,0.078-0.079,0.078h-1.713c-0.043,0-0.079-0.036-0.079-0.078v-0.004
			v-3.375h-1.475c-0.042,0-0.077-0.035-0.077-0.078c0-0.042,0.035-0.077,0.077-0.077h1.475v-3.38c0-0.043,0.036-0.077,0.079-0.077
			h0.005h1.708c0.043,0,0.079,0.034,0.079,0.077s-0.036,0.077-0.079,0.077h-1.636v3.377v0.004v0.004v3.376L75.185,118.642
			L75.185,118.642z M75.185,132.353c0.043,0,0.079,0.035,0.079,0.077c0,0.043-0.036,0.078-0.079,0.078h-1.713
			c-0.043,0-0.079-0.035-0.079-0.078v-0.004v-3.375h-1.475c-0.042,0-0.077-0.035-0.077-0.078s0.035-0.077,0.077-0.077h1.475v-3.38
			c0-0.043,0.036-0.078,0.079-0.078h0.005h1.708c0.043,0,0.079,0.035,0.079,0.078s-0.036,0.077-0.079,0.077h-1.636v3.377v0.004
			v0.004v3.376L75.185,132.353L75.185,132.353z M81.258,126.9c0.043,0,0.078,0.035,0.078,0.078c0,0.042-0.035,0.077-0.078,0.077
			h-1.714c-0.043,0-0.077-0.035-0.077-0.077v-0.004v-1.353h-1.476c-0.043,0-0.077-0.035-0.077-0.078
			c0-0.042,0.034-0.077,0.077-0.077h1.476v-1.355c0-0.044,0.034-0.079,0.077-0.079h0.005h1.709c0.043,0,0.078,0.035,0.078,0.079
			c0,0.042-0.035,0.076-0.078,0.076h-1.636v1.353v0.004v0.005v1.352H81.258L81.258,126.9z M81.258,113.19
			c0.043,0,0.078,0.035,0.078,0.078c0,0.041-0.035,0.077-0.078,0.077h-1.714c-0.043,0-0.077-0.036-0.077-0.077v-0.005v-1.353h-1.476
			c-0.043,0-0.077-0.034-0.077-0.078c0-0.042,0.034-0.077,0.077-0.077h1.476v-1.356c0-0.041,0.034-0.077,0.077-0.077h0.005h1.709
			c0.043,0,0.078,0.036,0.078,0.077c0,0.043-0.035,0.078-0.078,0.078h-1.636v1.353v0.003v0.005v1.353H81.258z"/>
		<rect x="81.258" y="132.781" fill="#E9F0C2" width="2.776" height="2.061"/>
		<rect x="81.258" y="129.958" fill="#E9F0C2" width="2.776" height="2.063"/>
		<rect x="75.216" y="131.37" fill="#E9F0C2" width="2.776" height="2.062"/>
		<rect x="75.216" y="124.515" fill="#E9F0C2" width="2.776" height="2.061"/>
		<rect x="75.216" y="117.659" fill="#E9F0C2" width="2.776" height="2.062"/>
		<rect x="75.216" y="110.803" fill="#E9F0C2" width="2.776" height="2.063"/>
		<rect x="81.258" y="125.925" fill="#E9F0C2" width="2.776" height="2.063"/>
		<rect x="81.258" y="123.103" fill="#E9F0C2" width="2.776" height="2.062"/>
		<rect x="81.258" y="119.07" fill="#E9F0C2" width="2.776" height="2.061"/>
		<rect x="81.258" y="116.247" fill="#E9F0C2" width="2.776" height="2.061"/>
		<rect x="81.258" y="112.214" fill="#E9F0C2" width="2.776" height="2.061"/>
		<rect x="81.258" y="109.392" fill="#E9F0C2" width="2.776" height="2.063"/>
		<rect x="69.107" y="127.942" fill="#E9F0C2" width="2.776" height="2.062"/>
		<rect x="69.107" y="114.231" fill="#E9F0C2" width="2.776" height="2.061"/>
		<rect x="63.065" y="121.782" fill="#E9F0C2" width="2.775" height="2.063"/>
		<rect x="44.871" y="109.392" fill="#E9F0C2" width="2.775" height="2.063"/>
		<rect x="44.871" y="112.214" fill="#E9F0C2" width="2.775" height="2.061"/>
		<rect x="50.913" y="110.803" fill="#E9F0C2" width="2.776" height="2.063"/>
		<rect x="50.913" y="117.659" fill="#E9F0C2" width="2.776" height="2.062"/>
		<rect x="50.913" y="124.514" fill="#E9F0C2" width="2.776" height="2.062"/>
		<rect x="50.913" y="131.37" fill="#E9F0C2" width="2.776" height="2.061"/>
		<rect x="44.871" y="116.247" fill="#E9F0C2" width="2.775" height="2.061"/>
		<rect x="44.871" y="119.07" fill="#E9F0C2" width="2.775" height="2.061"/>
		<rect x="44.871" y="123.103" fill="#E9F0C2" width="2.775" height="2.061"/>
		<rect x="44.871" y="125.925" fill="#E9F0C2" width="2.775" height="2.063"/>
		<rect x="44.871" y="129.958" fill="#E9F0C2" width="2.775" height="2.063"/>
		<rect x="44.871" y="132.78" fill="#E9F0C2" width="2.775" height="2.062"/>
		<rect x="57.023" y="114.231" fill="#E9F0C2" width="2.774" height="2.061"/>
		<rect x="57.023" y="127.942" fill="#E9F0C2" width="2.774" height="2.062"/>
		<rect x="63.065" y="131.371" fill="#E9F0C2" width="2.775" height="2.062"/>
		<rect x="63.064" y="127.942" fill="#E9F0C2" width="2.776" height="2.062"/>
		<rect x="63.064" y="118.354" fill="#E9F0C2" width="2.776" height="2.061"/>
		<g>
			<path fill="#0D68AA" d="M49.185,162.951l3.55,13.41h-2.817l-0.619-2.836h-3.569l-0.62,2.836h-2.817l3.55-13.41H49.185z
				 M48.828,171.31l-1.296-6.029h-0.038l-1.295,6.029H48.828z"/>
			<path fill="#0D68AA" d="M55.496,173.395c0,0.438,0.116,0.792,0.347,1.061c0.232,0.271,0.567,0.404,1.005,0.404
				c0.401,0,0.72-0.1,0.958-0.3s0.357-0.501,0.357-0.901c0-0.325-0.094-0.573-0.282-0.742c-0.188-0.17-0.407-0.303-0.658-0.404
				l-1.822-0.657c-0.713-0.25-1.252-0.604-1.615-1.061c-0.363-0.457-0.544-1.043-0.544-1.757c0-0.413,0.069-0.805,0.207-1.174
				s0.357-0.691,0.658-0.968c0.3-0.274,0.686-0.494,1.155-0.657c0.47-0.163,1.036-0.244,1.7-0.244c1.177,0,2.047,0.25,2.611,0.751
				s0.845,1.208,0.845,2.123v0.413h-2.329c0-0.526-0.084-0.911-0.253-1.156c-0.169-0.244-0.466-0.366-0.892-0.366
				c-0.326,0-0.61,0.092-0.854,0.273c-0.245,0.181-0.367,0.453-0.367,0.816c0,0.251,0.079,0.477,0.235,0.676
				c0.157,0.201,0.455,0.37,0.893,0.508l1.559,0.526c0.814,0.274,1.391,0.636,1.729,1.08s0.507,1.049,0.507,1.813
				c0,0.538-0.093,1.005-0.282,1.399c-0.188,0.395-0.448,0.724-0.779,0.986c-0.331,0.263-0.727,0.45-1.184,0.563
				c-0.457,0.113-0.961,0.17-1.512,0.17c-0.726,0-1.33-0.069-1.813-0.207s-0.864-0.345-1.145-0.619
				c-0.282-0.275-0.48-0.61-0.592-1.004c-0.112-0.395-0.169-0.837-0.169-1.325v-0.356h2.329L55.496,173.395L55.496,173.395z"/>
			<path fill="#0D68AA" d="M64.624,166.258v10.104h-2.592v-10.104H64.624z M65.713,162.369l-1.84,2.705h-1.766l1.014-2.705H65.713z"
				/>
			<path fill="#0D68AA" d="M78.334,166.258l-2.536,10.104h-3.004l-2.61-10.104h2.704l1.446,7.231h0.038l1.371-7.231H78.334z"/>
			<path fill="#0D68AA" d="M79.272,169.111c0-0.587,0.094-1.079,0.283-1.474c0.187-0.395,0.441-0.714,0.76-0.957
				c0.319-0.245,0.695-0.42,1.127-0.526c0.432-0.106,0.892-0.16,1.379-0.16c0.776,0,1.403,0.075,1.878,0.226
				c0.477,0.15,0.846,0.363,1.109,0.64c0.263,0.274,0.441,0.604,0.535,0.984c0.094,0.383,0.142,0.798,0.142,1.249v5.316
				c0,0.476,0.021,0.845,0.065,1.108c0.044,0.263,0.128,0.544,0.254,0.845h-2.48c-0.088-0.162-0.153-0.335-0.197-0.517
				c-0.043-0.181-0.084-0.359-0.121-0.534h-0.039c-0.3,0.525-0.647,0.866-1.042,1.023c-0.395,0.156-0.905,0.234-1.531,0.234
				c-0.451,0-0.832-0.078-1.145-0.234c-0.313-0.157-0.564-0.372-0.752-0.648c-0.187-0.274-0.326-0.585-0.413-0.93
				c-0.087-0.344-0.131-0.685-0.131-1.023c0-0.476,0.05-0.885,0.15-1.229c0.099-0.345,0.253-0.64,0.46-0.883
				c0.205-0.245,0.469-0.448,0.789-0.61c0.319-0.163,0.704-0.308,1.156-0.433l1.465-0.395c0.388-0.1,0.656-0.238,0.807-0.413
				c0.15-0.175,0.225-0.432,0.225-0.77c0-0.389-0.09-0.691-0.272-0.91c-0.181-0.22-0.492-0.329-0.929-0.329
				c-0.401,0-0.701,0.118-0.901,0.356c-0.201,0.237-0.3,0.558-0.3,0.958v0.281h-2.329v-0.246H79.272z M83.442,171.638
				c-0.201,0.082-0.381,0.142-0.544,0.179c-0.525,0.112-0.901,0.3-1.127,0.563c-0.225,0.263-0.337,0.619-0.337,1.07
				c0,0.388,0.075,0.72,0.225,0.996c0.15,0.274,0.401,0.412,0.751,0.412c0.175,0,0.357-0.028,0.545-0.084
				c0.187-0.057,0.359-0.146,0.516-0.272c0.157-0.126,0.285-0.288,0.385-0.488c0.101-0.2,0.15-0.438,0.15-0.714v-1.991
				C83.831,171.447,83.644,171.557,83.442,171.638z"/>
			<path fill="#0D68AA" d="M41.174,177.977v13.411h-2.592v-13.411H41.174z"/>
			<path fill="#0D68AA" d="M42.977,184.138c0-0.588,0.094-1.08,0.282-1.474c0.188-0.396,0.441-0.714,0.761-0.958
				c0.32-0.245,0.695-0.419,1.127-0.525c0.431-0.107,0.893-0.16,1.38-0.16c0.776,0,1.403,0.074,1.878,0.225
				c0.477,0.15,0.846,0.363,1.109,0.64c0.263,0.274,0.441,0.604,0.535,0.985c0.094,0.382,0.141,0.798,0.141,1.249v5.315
				c0,0.477,0.021,0.846,0.065,1.108c0.043,0.264,0.128,0.544,0.253,0.846h-2.479c-0.087-0.163-0.153-0.335-0.196-0.517
				c-0.044-0.181-0.085-0.359-0.122-0.535h-0.038c-0.3,0.526-0.647,0.867-1.042,1.023c-0.395,0.156-0.904,0.235-1.53,0.235
				c-0.451,0-0.833-0.079-1.146-0.235s-0.563-0.372-0.751-0.648c-0.188-0.274-0.326-0.584-0.413-0.929
				c-0.088-0.345-0.132-0.686-0.132-1.023c0-0.476,0.05-0.886,0.15-1.23c0.101-0.345,0.253-0.639,0.46-0.883
				c0.206-0.244,0.47-0.447,0.789-0.61s0.705-0.307,1.155-0.432l1.465-0.395c0.388-0.101,0.658-0.238,0.808-0.413
				c0.15-0.175,0.225-0.432,0.225-0.77c0-0.389-0.091-0.692-0.273-0.911c-0.182-0.22-0.492-0.329-0.929-0.329
				c-0.401,0-0.701,0.119-0.901,0.357c-0.201,0.237-0.3,0.557-0.3,0.957v0.281h-2.33L42.977,184.138L42.977,184.138z
				 M47.147,186.664c-0.201,0.082-0.382,0.141-0.545,0.178c-0.526,0.113-0.901,0.301-1.127,0.563
				c-0.225,0.263-0.338,0.619-0.338,1.07c0,0.389,0.075,0.721,0.225,0.996c0.15,0.274,0.401,0.413,0.751,0.413
				c0.175,0,0.356-0.028,0.544-0.085c0.188-0.056,0.36-0.146,0.516-0.272c0.157-0.126,0.285-0.287,0.385-0.487
				c0.101-0.2,0.15-0.438,0.15-0.715v-1.991C47.535,186.474,47.347,186.583,47.147,186.664z"/>
			<path fill="#0D68AA" d="M59.017,181.283v1.071h0.038c0.288-0.477,0.61-0.818,0.967-1.024c0.356-0.206,0.798-0.31,1.324-0.31
				c1.064,0,1.847,0.416,2.348,1.248c0.501,0.834,0.751,2.188,0.751,4.066c0,1.879-0.25,3.225-0.751,4.039s-1.283,1.22-2.348,1.22
				c-0.488,0-0.904-0.091-1.249-0.272c-0.345-0.181-0.655-0.472-0.93-0.873h-0.038v4.188h-2.592v-13.354L59.017,181.283
				L59.017,181.283z M59.383,188.824c0.17,0.558,0.542,0.837,1.118,0.837c0.563,0,0.93-0.279,1.099-0.837
				c0.17-0.557,0.253-1.387,0.253-2.489c0-1.102-0.084-1.931-0.253-2.488c-0.169-0.558-0.535-0.836-1.099-0.836
				c-0.576,0-0.949,0.278-1.118,0.836s-0.253,1.387-0.253,2.488C59.128,187.438,59.214,188.268,59.383,188.824z"/>
			<path fill="#0D68AA" d="M65.797,184.044c0.137-0.663,0.363-1.218,0.676-1.661c0.313-0.445,0.723-0.783,1.23-1.015
				s1.13-0.348,1.868-0.348c0.777-0.014,1.422,0.091,1.935,0.31c0.514,0.22,0.921,0.555,1.222,1.005
				c0.3,0.45,0.512,1.008,0.638,1.672c0.125,0.664,0.188,1.439,0.188,2.328c0,0.864-0.068,1.629-0.207,2.292
				c-0.138,0.664-0.363,1.217-0.676,1.662c-0.313,0.444-0.723,0.773-1.23,0.985c-0.508,0.213-1.13,0.319-1.869,0.319
				c-0.776,0.013-1.422-0.084-1.935-0.291c-0.514-0.206-0.921-0.531-1.222-0.977c-0.3-0.444-0.513-1.002-0.639-1.672
				c-0.125-0.669-0.188-1.442-0.188-2.319C65.59,185.472,65.659,184.707,65.797,184.044z M68.22,187.763
				c0.025,0.438,0.085,0.814,0.178,1.127c0.094,0.313,0.235,0.558,0.423,0.732c0.188,0.176,0.438,0.263,0.75,0.263
				c0.526,0,0.889-0.274,1.09-0.825c0.2-0.552,0.299-1.459,0.299-2.725c0-1.265-0.099-2.172-0.299-2.724
				c-0.201-0.55-0.564-0.826-1.09-0.826c-0.313,0-0.563,0.089-0.75,0.264c-0.188,0.175-0.329,0.42-0.423,0.732
				c-0.093,0.313-0.153,0.688-0.178,1.127c-0.024,0.438-0.037,0.914-0.037,1.427C68.183,186.849,68.195,187.324,68.22,187.763z"/>
			<path fill="#0D68AA" d="M77.629,177.977v13.411h-2.591v-13.411H77.629z"/>
			<path fill="#0D68AA" d="M82.138,177.977v13.411h-2.592v-13.411H82.138z"/>
			<path fill="#0D68AA" d="M83.94,184.138c0-0.588,0.094-1.08,0.281-1.474c0.188-0.396,0.441-0.714,0.761-0.958
				c0.32-0.245,0.696-0.419,1.127-0.525c0.432-0.107,0.893-0.16,1.38-0.16c0.776,0,1.403,0.074,1.878,0.225s0.845,0.363,1.109,0.64
				c0.263,0.274,0.44,0.604,0.535,0.985c0.094,0.382,0.141,0.798,0.141,1.249v5.315c0,0.477,0.022,0.846,0.066,1.108
				c0.044,0.264,0.128,0.544,0.253,0.846h-2.479c-0.088-0.163-0.154-0.335-0.197-0.517c-0.044-0.181-0.086-0.359-0.123-0.535h-0.038
				c-0.301,0.526-0.648,0.867-1.043,1.023c-0.394,0.156-0.903,0.235-1.529,0.235c-0.452,0-0.833-0.079-1.146-0.235
				s-0.563-0.372-0.751-0.648c-0.188-0.274-0.326-0.584-0.413-0.929c-0.088-0.345-0.132-0.686-0.132-1.023
				c0-0.476,0.05-0.886,0.15-1.23c0.101-0.345,0.253-0.639,0.46-0.883s0.47-0.447,0.789-0.61c0.321-0.163,0.705-0.307,1.156-0.432
				l1.465-0.395c0.389-0.101,0.658-0.238,0.808-0.413c0.151-0.175,0.225-0.432,0.225-0.77c0-0.389-0.092-0.692-0.272-0.911
				c-0.182-0.22-0.492-0.329-0.929-0.329c-0.401,0-0.702,0.119-0.901,0.357c-0.201,0.237-0.301,0.557-0.301,0.957v0.281h-2.33
				V184.138L83.94,184.138z M88.11,186.664c-0.201,0.082-0.383,0.141-0.545,0.178c-0.526,0.113-0.901,0.301-1.126,0.563
				c-0.225,0.263-0.338,0.619-0.338,1.07c0,0.389,0.076,0.721,0.225,0.996c0.15,0.274,0.401,0.413,0.752,0.413
				c0.175,0,0.355-0.028,0.544-0.085c0.188-0.056,0.359-0.146,0.516-0.272c0.156-0.126,0.285-0.287,0.385-0.487
				c0.1-0.2,0.15-0.438,0.15-0.715v-1.991C88.499,186.474,88.31,186.583,88.11,186.664z"/>
		</g>
	</g>
</g>
</svg>
