<?xml version="1.0" encoding="utf-8"?>
<!-- Generated by IcoMoon.io -->
<!DOCTYPE svg PUBLIC "-//W3C//DTD SVG 1.1//EN" "http://www.w3.org/Graphics/SVG/1.1/DTD/svg11.dtd">
<svg version="1.1" xmlns="http://www.w3.org/2000/svg" xmlns:xlink="http://www.w3.org/1999/xlink" width="34" height="34" viewBox="0 0 34 34">
<g>
</g>
	<path d="M28.334 0h-22.666c-3.117 0-5.667 2.55-5.667 5.667v22.665c0 3.119 2.55 5.667 5.667 5.667l22.666-0c3.117 0 5.666-2.548 5.666-5.667v-22.665c0-3.117-2.549-5.667-5.666-5.667zM28.906 17h-5.531v14.875h-6.375v-14.875h-3.072v-4.866h3.072v-3.16c0-4.295 1.852-6.848 6.902-6.848h5.819v5.265h-4.752c-1.411-0.002-1.586 0.736-1.586 2.109l-0.008 2.635h6.375l-0.844 4.866z" fill="#7d7d7d" />
</svg>
