<?xml version="1.0" encoding="utf-8"?>
<!-- Generator: Adobe Illustrator 16.0.0, SVG Export Plug-In . SVG Version: 6.00 Build 0)  -->
<!DOCTYPE svg PUBLIC "-//W3C//DTD SVG 1.1//EN" "http://www.w3.org/Graphics/SVG/1.1/DTD/svg11.dtd">
<svg version="1.1" id="Layer_1" xmlns="http://www.w3.org/2000/svg" xmlns:xlink="http://www.w3.org/1999/xlink" x="0px" y="0px"
	 width="32px" height="32px" viewBox="0 0 32 32" enable-background="new 0 0 32 32" xml:space="preserve">
<path fill="none" stroke="#0E67A9" stroke-miterlimit="10" d="M32,19.003v-6.006l-4.587-0.764c-0.187-0.567-0.413-1.115-0.679-1.641
	l2.703-3.782l-4.248-4.247L21.414,5.26c-0.527-0.267-1.079-0.497-1.648-0.684l-0.764-4.575h-6.006l-0.763,4.575
	c-0.57,0.188-1.121,0.417-1.649,0.684L6.808,2.563L2.561,6.81l2.702,3.782c-0.265,0.526-0.492,1.074-0.678,1.641l-4.587,0.764v6.006
	l4.597,0.767c0.186,0.561,0.413,1.104,0.676,1.625L2.56,25.189l4.247,4.248l3.802-2.715c0.519,0.26,1.059,0.484,1.618,0.67
	L12.995,32h6.006l0.769-4.609c0.559-0.185,1.099-0.408,1.617-0.67l3.803,2.715l4.246-4.246l-2.711-3.795
	c0.264-0.521,0.49-1.064,0.676-1.627l4.598-0.766L32,19.003z M16,20c-2.209,0-4-1.791-4-4s1.791-4,4-4s4,1.791,4,4S18.209,20,16,20z
	"/>
</svg>
