<?xml version="1.0" encoding="utf-8"?>
<!-- Generator: Adobe Illustrator 16.0.0, SVG Export Plug-In . SVG Version: 6.00 Build 0)  -->
<!DOCTYPE svg PUBLIC "-//W3C//DTD SVG 1.1//EN" "http://www.w3.org/Graphics/SVG/1.1/DTD/svg11.dtd">
<svg version="1.1" id="Layer_1" xmlns="http://www.w3.org/2000/svg" xmlns:xlink="http://www.w3.org/1999/xlink" x="0px" y="0px"
	 width="131.5px" height="131.5px" viewBox="0 80.5 131.5 131.5" enable-background="new 0 80.5 131.5 131.5" xml:space="preserve">
<g id="Layer_1_2_">
	<rect y="80.5" opacity="0.76" fill="#FFFFFF" enable-background="new    " width="132.5" height="132.5"/>
</g>
<g id="Layer_2_1_">
	<g>
		<g>
			<g>
				<path fill="#FFFFFF" d="M34.114,154.845c12.071,0,53.373,0,65.442,0c0.108,0,0.2-0.025,0.242-0.065
					c0.042-0.039,0.02-0.084-0.056-0.115l-6.995-2.852c-0.017-0.007-0.038-0.011-0.062-0.011c-7.489,0-44.209,0-51.699,0
					c-0.024,0-0.045,0.004-0.062,0.011l-6.996,2.852c-0.076,0.031-0.096,0.075-0.056,0.115
					C33.915,154.819,34.006,154.845,34.114,154.845z"/>
				<path fill="#F3F4F5" d="M34.205,154.832c12.005,0,53.241,0,65.245,0c0.108,0,0.199-0.025,0.241-0.065
					c0.041-0.039,0.02-0.083-0.056-0.114l-6.957-2.835c-0.017-0.007-0.039-0.011-0.063-0.011c-7.448,0-44.127,0-51.575,0
					c-0.024,0-0.045,0.004-0.062,0.011l-6.958,2.835c-0.076,0.031-0.096,0.075-0.055,0.114
					C34.006,154.807,34.098,154.832,34.205,154.832z"/>
				<path fill="#EBECEE" d="M34.295,154.818c11.939,0,53.108,0,65.048,0c0.107,0,0.197-0.024,0.239-0.064
					c0.041-0.039,0.019-0.083-0.055-0.114l-6.919-2.817c-0.016-0.006-0.039-0.01-0.062-0.01c-7.409,0-44.047,0-51.454,0
					c-0.024,0-0.045,0.004-0.062,0.01l-6.92,2.817c-0.075,0.031-0.096,0.075-0.055,0.114
					C34.098,154.794,34.188,154.818,34.295,154.818z"/>
				<path fill="#E3E4E7" d="M34.385,154.807c11.873,0,52.977,0,64.849,0c0.107,0,0.197-0.024,0.239-0.064
					c0.041-0.039,0.019-0.083-0.055-0.113l-6.881-2.8c-0.016-0.007-0.037-0.011-0.061-0.011c-7.366,0-43.965,0-51.331,0
					c-0.024,0-0.045,0.004-0.061,0.011l-6.881,2.8c-0.075,0.03-0.095,0.074-0.054,0.113
					C34.189,154.782,34.279,154.807,34.385,154.807z"/>
				<path fill="#DBDDE1" d="M34.476,154.793c11.808,0,52.846,0,64.653,0c0.106,0,0.195-0.024,0.237-0.063
					c0.04-0.039,0.02-0.081-0.055-0.112l-6.844-2.783c-0.016-0.007-0.036-0.011-0.06-0.011c-7.327,0-43.884,0-51.21,0
					c-0.023,0-0.044,0.004-0.061,0.011l-6.844,2.783c-0.074,0.031-0.094,0.073-0.054,0.112
					C34.281,154.769,34.371,154.793,34.476,154.793z"/>
				<path fill="#D3D6DB" d="M34.566,154.781c11.742,0,52.715,0,64.456,0c0.104,0,0.194-0.024,0.235-0.064
					c0.039-0.038,0.019-0.081-0.055-0.111l-6.805-2.767c-0.016-0.007-0.037-0.01-0.06-0.01c-7.285,0-43.802,0-51.087,0
					c-0.023,0-0.043,0.003-0.06,0.01l-6.805,2.767c-0.074,0.03-0.094,0.073-0.054,0.111
					C34.372,154.757,34.461,154.781,34.566,154.781z"/>
				<path fill="#CBD0D6" d="M34.656,154.768c11.676,0,52.584,0,64.259,0c0.104,0,0.194-0.024,0.234-0.063
					c0.039-0.038,0.018-0.081-0.055-0.11l-6.767-2.748c-0.016-0.008-0.037-0.012-0.061-0.012c-7.244,0-43.72,0-50.964,0
					c-0.023,0-0.043,0.004-0.06,0.012l-6.767,2.748c-0.073,0.029-0.093,0.072-0.054,0.11
					C34.463,154.743,34.553,154.768,34.656,154.768z"/>
				<path fill="#C4C9D0" d="M34.747,154.756c11.61,0,52.451,0,64.062,0c0.104,0,0.193-0.025,0.232-0.064
					c0.04-0.037,0.019-0.079-0.054-0.109l-6.729-2.731c-0.016-0.007-0.037-0.011-0.06-0.011c-7.203,0-43.638,0-50.842,0
					c-0.023,0-0.043,0.004-0.06,0.011l-6.729,2.731c-0.072,0.03-0.092,0.072-0.053,0.109
					C34.555,154.73,34.644,154.756,34.747,154.756z"/>
				<path fill="#BDC3CB" d="M34.838,154.742c11.544,0,52.32,0,63.864,0c0.103,0,0.191-0.024,0.231-0.063
					c0.039-0.038,0.018-0.08-0.054-0.109l-6.691-2.715c-0.016-0.006-0.036-0.01-0.059-0.01c-7.163,0-43.557,0-50.719,0
					c-0.023,0-0.043,0.004-0.06,0.01l-6.691,2.715c-0.072,0.029-0.092,0.071-0.053,0.109
					C34.646,154.718,34.734,154.742,34.838,154.742z"/>
				<path fill="#B6BDC6" d="M34.927,154.729c11.479,0,52.189,0,63.667,0c0.103,0,0.19-0.023,0.229-0.061
					c0.039-0.038,0.019-0.08-0.052-0.109l-6.653-2.696c-0.017-0.007-0.037-0.011-0.06-0.011c-7.122,0-43.475,0-50.597,0
					c-0.023,0-0.042,0.004-0.059,0.011l-6.653,2.696c-0.072,0.029-0.092,0.071-0.052,0.109
					C34.737,154.705,34.826,154.729,34.927,154.729z"/>
				<path fill="#AFB7C1" d="M35.018,154.716c11.413,0,52.057,0,63.47,0c0.102,0,0.188-0.023,0.228-0.062
					c0.04-0.037,0.02-0.078-0.053-0.107l-6.613-2.68c-0.017-0.007-0.037-0.011-0.059-0.011c-7.082,0-43.395,0-50.476,0
					c-0.023,0-0.042,0.004-0.059,0.011l-6.615,2.68c-0.071,0.029-0.091,0.07-0.052,0.107
					C34.83,154.692,34.917,154.716,35.018,154.716z"/>
				<path fill="#A8B1BC" d="M35.108,154.703c11.348,0,51.926,0,63.273,0c0.101,0,0.188-0.023,0.227-0.061
					c0.039-0.037,0.019-0.079-0.053-0.107l-6.576-2.663c-0.016-0.006-0.036-0.01-0.058-0.01c-7.041,0-43.312,0-50.353,0
					c-0.022,0-0.042,0.004-0.058,0.01l-6.576,2.663c-0.071,0.028-0.091,0.07-0.052,0.107S35.008,154.703,35.108,154.703z"/>
				<path fill="#A1ACB7" d="M35.199,154.69c11.282,0,51.794,0,63.077,0c0.1,0,0.186-0.023,0.225-0.061
					c0.039-0.037,0.018-0.078-0.052-0.106l-6.539-2.646c-0.016-0.006-0.035-0.01-0.058-0.01c-6.999,0-43.23,0-50.23,0
					c-0.022,0-0.042,0.004-0.058,0.01l-6.538,2.646c-0.071,0.028-0.09,0.069-0.052,0.106
					C35.013,154.667,35.099,154.69,35.199,154.69z"/>
				<path fill="#9AA6B2" d="M35.289,154.678c11.216,0,51.664,0,62.879,0c0.1,0,0.186-0.022,0.224-0.061
					c0.039-0.036,0.019-0.077-0.051-0.105l-6.501-2.628c-0.016-0.006-0.034-0.01-0.058-0.01c-6.959,0-43.148,0-50.107,0
					c-0.023,0-0.042,0.004-0.058,0.01l-6.5,2.628c-0.07,0.028-0.09,0.069-0.052,0.105C35.103,154.654,35.189,154.678,35.289,154.678
					z"/>
				<path fill="#94A1AE" d="M35.38,154.664c11.15,0,51.532,0,62.682,0c0.099,0,0.185-0.022,0.223-0.059
					c0.039-0.037,0.019-0.078-0.051-0.105l-6.463-2.611c-0.015-0.006-0.034-0.01-0.057-0.01c-6.918,0-43.067,0-49.986,0
					c-0.022,0-0.041,0.004-0.058,0.01l-6.462,2.611c-0.07,0.027-0.089,0.068-0.051,0.105
					C35.195,154.642,35.281,154.664,35.38,154.664z"/>
				<path fill="#8E9CAA" d="M35.471,154.651c11.084,0,51.399,0,62.484,0c0.098,0,0.184-0.021,0.221-0.059
					c0.038-0.036,0.017-0.077-0.051-0.104l-6.425-2.593c-0.015-0.007-0.034-0.011-0.056-0.011c-6.878,0-42.986,0-49.863,0
					c-0.022,0-0.041,0.004-0.057,0.011l-6.424,2.593c-0.069,0.027-0.089,0.068-0.051,0.104
					C35.287,154.629,35.372,154.651,35.471,154.651z"/>
				<path fill="#8797A5" d="M35.561,154.639c11.019,0,51.268,0,62.287,0c0.097,0,0.182-0.022,0.221-0.059
					c0.037-0.036,0.018-0.076-0.051-0.104l-6.387-2.575c-0.015-0.006-0.034-0.01-0.056-0.01c-6.836,0-42.904,0-49.741,0
					c-0.022,0-0.041,0.004-0.057,0.01l-6.386,2.575c-0.069,0.028-0.089,0.068-0.051,0.104S35.463,154.639,35.561,154.639z"/>
				<path fill="#808F9E" d="M35.605,154.635c10.995,0,51.226,0,62.221,0c0.097,0,0.181-0.021,0.22-0.059
					c0.038-0.036,0.017-0.076-0.051-0.103l-6.373-2.569c-0.015-0.007-0.034-0.01-0.056-0.01c-6.822,0-42.879,0-49.701,0
					c-0.022,0-0.041,0.003-0.057,0.01l-6.372,2.569c-0.069,0.026-0.088,0.066-0.051,0.103
					C35.422,154.612,35.507,154.635,35.605,154.635z"/>
				<path fill="#7A8797" d="M35.649,154.631c10.971,0,51.183,0,62.154,0c0.097,0,0.181-0.021,0.219-0.058
					c0.037-0.036,0.018-0.077-0.05-0.104l-6.359-2.563c-0.015-0.007-0.034-0.011-0.056-0.011c-6.807,0-42.855,0-49.662,0
					c-0.022,0-0.041,0.004-0.056,0.011l-6.359,2.563c-0.069,0.026-0.088,0.067-0.051,0.104S35.551,154.631,35.649,154.631z"/>
				<path fill="#748090" d="M35.692,154.627c10.947,0,51.14,0,62.088,0c0.097,0,0.18-0.021,0.218-0.058
					c0.038-0.036,0.018-0.075-0.05-0.104l-6.345-2.556c-0.015-0.006-0.034-0.01-0.056-0.01c-6.792,0-42.83,0-49.622,0
					c-0.022,0-0.041,0.004-0.056,0.01l-6.345,2.556c-0.069,0.028-0.088,0.067-0.051,0.104
					C35.512,154.605,35.595,154.627,35.692,154.627z"/>
				<path fill="#6E7989" d="M35.737,154.625c10.923,0,51.098,0,62.021,0c0.096,0,0.18-0.022,0.218-0.059
					c0.037-0.035,0.017-0.075-0.05-0.103l-6.332-2.549c-0.015-0.007-0.034-0.01-0.056-0.01c-6.777,0-42.805,0-49.583,0
					c-0.021,0-0.041,0.003-0.056,0.01l-6.331,2.549c-0.069,0.027-0.087,0.067-0.051,0.103
					C35.556,154.602,35.639,154.625,35.737,154.625z"/>
				<path fill="#687383" d="M35.781,154.62c10.899,0,51.055,0,61.954,0c0.096,0,0.181-0.021,0.218-0.057s0.018-0.076-0.05-0.103
					l-6.317-2.543c-0.015-0.006-0.034-0.01-0.056-0.01c-6.763,0-42.781,0-49.544,0c-0.022,0-0.041,0.004-0.057,0.01l-6.316,2.543
					c-0.068,0.026-0.088,0.066-0.05,0.103C35.6,154.6,35.684,154.62,35.781,154.62z"/>
				<path fill="#626C7D" d="M35.824,154.617c10.875,0,51.012,0,61.888,0c0.096,0,0.179-0.021,0.217-0.058
					c0.037-0.036,0.018-0.075-0.05-0.103l-6.304-2.536c-0.015-0.006-0.034-0.009-0.055-0.009c-6.748,0-42.757,0-49.505,0
					c-0.022,0-0.041,0.003-0.055,0.009l-6.304,2.536c-0.068,0.027-0.087,0.066-0.05,0.103
					C35.644,154.595,35.728,154.617,35.824,154.617z"/>
				<path fill="#5C6677" d="M35.869,154.613c10.851,0,50.97,0,61.822,0c0.095,0,0.178-0.021,0.216-0.058s0.019-0.074-0.05-0.102
					l-6.289-2.529c-0.015-0.007-0.034-0.009-0.056-0.009c-6.732,0-42.732,0-49.465,0c-0.021,0-0.041,0.002-0.056,0.009l-6.289,2.529
					c-0.068,0.027-0.088,0.065-0.05,0.102C35.689,154.591,35.772,154.613,35.869,154.613z"/>
				<path fill="#566072" d="M35.913,154.61c10.828,0,50.926,0,61.754,0c0.096,0,0.179-0.021,0.216-0.058
					c0.037-0.036,0.018-0.074-0.049-0.103l-6.276-2.521c-0.015-0.007-0.034-0.009-0.055-0.009c-6.719,0-42.707,0-49.425,0
					c-0.022,0-0.041,0.002-0.056,0.009l-6.276,2.521c-0.068,0.028-0.086,0.066-0.05,0.103
					C35.733,154.588,35.816,154.61,35.913,154.61z"/>
				<path fill="#505B6C" d="M35.956,154.606c10.804,0,50.884,0,61.688,0c0.096,0,0.178-0.022,0.216-0.058
					c0.037-0.036,0.017-0.074-0.05-0.102l-6.263-2.515c-0.015-0.006-0.034-0.011-0.055-0.011c-6.704,0-42.683,0-49.386,0
					c-0.022,0-0.041,0.005-0.056,0.011l-6.262,2.515c-0.068,0.027-0.087,0.065-0.049,0.102
					C35.777,154.584,35.86,154.606,35.956,154.606z"/>
				<path fill="#4A5567" d="M36,154.603c10.78,0,50.841,0,61.622,0c0.095,0,0.178-0.021,0.215-0.058
					c0.038-0.035,0.018-0.074-0.049-0.101l-6.248-2.509c-0.016-0.006-0.034-0.01-0.055-0.01c-6.689,0-42.658,0-49.347,0
					c-0.022,0-0.041,0.004-0.055,0.01l-6.248,2.509c-0.067,0.026-0.086,0.065-0.049,0.101C35.821,154.581,35.904,154.603,36,154.603
					z"/>
				<path fill="#455063" d="M36.044,154.6c10.755,0,50.798,0,61.554,0c0.096,0,0.177-0.022,0.215-0.058
					c0.038-0.035,0.018-0.073-0.049-0.101l-6.234-2.501c-0.016-0.007-0.034-0.011-0.056-0.011c-6.674,0-42.633,0-49.307,0
					c-0.021,0-0.04,0.004-0.055,0.011l-6.234,2.501c-0.067,0.027-0.086,0.065-0.049,0.101S35.949,154.6,36.044,154.6z"/>
				<path fill="#3F4B5E" d="M36.088,154.596c10.732,0,50.755,0,61.488,0c0.096,0,0.178-0.022,0.214-0.057
					c0.038-0.036,0.018-0.074-0.049-0.102l-6.221-2.494c-0.015-0.007-0.033-0.01-0.055-0.01c-6.659,0-42.608,0-49.267,0
					c-0.021,0-0.04,0.003-0.055,0.01l-6.221,2.494c-0.068,0.027-0.086,0.065-0.05,0.102
					C35.911,154.573,35.992,154.596,36.088,154.596z"/>
				<path fill="#3A4559" d="M36.132,154.592c10.708,0,50.713,0,61.421,0c0.095,0,0.177-0.021,0.215-0.057
					c0.037-0.035,0.017-0.073-0.05-0.101l-6.207-2.488c-0.015-0.006-0.033-0.009-0.055-0.009c-6.644,0-42.584,0-49.229,0
					c-0.021,0-0.041,0.003-0.055,0.009l-6.207,2.488c-0.067,0.027-0.086,0.065-0.049,0.101S36.037,154.592,36.132,154.592z"/>
				<path fill="#344055" d="M36.176,154.588c10.685,0,50.67,0,61.355,0c0.095,0,0.176-0.021,0.214-0.057
					c0.037-0.035,0.018-0.072-0.05-0.1l-6.192-2.481c-0.015-0.006-0.033-0.01-0.054-0.01c-6.63,0-42.561,0-49.189,0
					c-0.021,0-0.041,0.004-0.055,0.01l-6.192,2.481c-0.067,0.027-0.086,0.064-0.05,0.1S36.081,154.588,36.176,154.588z"/>
				<path fill="#2F3B50" d="M36.22,154.584c10.66,0,50.627,0,61.289,0c0.094,0,0.176-0.021,0.213-0.056
					c0.037-0.035,0.017-0.073-0.049-0.101l-6.179-2.474c-0.015-0.007-0.034-0.01-0.055-0.01c-6.614,0-42.535,0-49.15,0
					c-0.021,0-0.04,0.003-0.054,0.01l-6.179,2.474c-0.067,0.027-0.085,0.065-0.049,0.101S36.125,154.584,36.22,154.584z"/>
				<path fill="#2A364C" d="M36.264,154.581c10.637,0,50.585,0,61.222,0c0.095,0,0.176-0.021,0.212-0.057
					c0.037-0.035,0.018-0.072-0.049-0.1l-6.165-2.468c-0.015-0.006-0.033-0.01-0.054-0.01c-6.6,0-42.511,0-49.11,0
					c-0.021,0-0.04,0.004-0.054,0.01l-6.165,2.468c-0.067,0.027-0.085,0.065-0.049,0.1C36.088,154.56,36.169,154.581,36.264,154.581
					z"/>
			</g>
			
				<linearGradient id="SVGID_1_" gradientUnits="userSpaceOnUse" x1="271.4355" y1="-124.7515" x2="262.4763" y2="-125.6931" gradientTransform="matrix(1 0 0 -1 -183 -14.5)">
				<stop  offset="0" style="stop-color:#CACCD0"/>
				<stop  offset="0.5" style="stop-color:#AAA9AC"/>
				<stop  offset="1" style="stop-color:#767878"/>
			</linearGradient>
			<path fill="url(#SVGID_1_)" d="M80.684,109.572h14.962c0.185,0.004,0.309,0.04,0.453,0.119l1.882,1.051
				c-0.155-0.085-0.285-0.123-0.482-0.127H80.684V109.572z"/>
			
				<linearGradient id="SVGID_2_" gradientUnits="userSpaceOnUse" x1="222.2646" y1="-122.9717" x2="218.8513" y2="-121.7293" gradientTransform="matrix(1 0 0 -1 -183 -14.5)">
				<stop  offset="0" style="stop-color:#CACCD0"/>
				<stop  offset="1" style="stop-color:#FFFFFF"/>
			</linearGradient>
			<path fill="url(#SVGID_2_)" d="M35.248,110.742l1.996-1.106c0.107-0.043,0.218-0.062,0.339-0.063h14.962v1.043H35.73
				C35.533,110.619,35.403,110.657,35.248,110.742z"/>
			<path fill="#CACCD0" d="M35.73,110.566h61.769c0.417,0,0.758,0.345,0.758,0.766v42.397c0,0.421-0.342,0.766-0.758,0.766H35.73
				c-0.417,0-0.759-0.345-0.759-0.766v-42.397C34.971,110.911,35.313,110.566,35.73,110.566z"/>
			<path fill="#CACCD0" d="M56.592,125.404h20.044c0.135,0,0.246,0.112,0.246,0.248v13.757c0,0.137-0.111,0.249-0.246,0.249H56.592
				c-0.135,0-0.246-0.112-0.246-0.249v-13.757C56.346,125.516,56.457,125.404,56.592,125.404z"/>
			<path fill="#FFFFFF" d="M35.73,110.566h61.769c0.417,0,0.758,0.345,0.758,0.766v0.159c0-0.422-0.342-0.767-0.758-0.767H35.73
				c-0.417,0-0.759,0.345-0.759,0.767v-0.159C34.971,110.911,35.313,110.566,35.73,110.566z"/>
			<path fill="#3B3D3C" d="M66.614,133.42c0.971,0,1.764-0.793,1.764-1.763c0-0.971-0.792-1.764-1.764-1.764
				c-0.971,0-1.763,0.793-1.763,1.764C64.852,132.627,65.643,133.42,66.614,133.42z"/>
			<path fill="#3B3D3C" d="M66.614,141.876c0.971,0,1.764-0.793,1.764-1.764s-0.792-1.763-1.764-1.763
				c-0.971,0-1.763,0.792-1.763,1.763S65.643,141.876,66.614,141.876z"/>
			<path fill="#FFFFFF" d="M41.359,120.992h19.334c0.521,0,0.948,0.426,0.948,0.948v28.874c0,0.521-0.427,0.947-0.948,0.947H41.359
				c-0.522,0-0.947-0.427-0.947-0.947V121.94C40.412,121.418,40.837,120.992,41.359,120.992z"/>
			<path d="M41.359,120.834h19.334c0.521,0,0.948,0.426,0.948,0.947v28.875c0,0.521-0.427,0.947-0.948,0.947H41.359
				c-0.522,0-0.947-0.426-0.947-0.947v-28.875C40.412,121.26,40.837,120.834,41.359,120.834z"/>
			
				<linearGradient id="SVGID_3_" gradientUnits="userSpaceOnUse" x1="234.0273" y1="-150.5977" x2="234.0273" y2="-135.5926" gradientTransform="matrix(1 0 0 -1 -183 -14.5)">
				<stop  offset="0" style="stop-color:#000000"/>
				<stop  offset="0.07" style="stop-color:#313333"/>
				<stop  offset="1" style="stop-color:#3F4040"/>
			</linearGradient>
			<path fill="url(#SVGID_3_)" d="M41.641,121.282h18.771c0.506,0,0.92,0.413,0.92,0.92v14.049H40.721v-14.049
				C40.721,121.695,41.134,121.282,41.641,121.282z"/>
			<path fill="#636363" d="M41.641,121.282h18.771c0.506,0,0.92,0.413,0.92,0.92v0.21c0-0.506-0.415-0.92-0.92-0.92H41.641
				c-0.506,0-0.92,0.414-0.92,0.92v-0.21C40.721,121.695,41.134,121.282,41.641,121.282z"/>
			
				<linearGradient id="SVGID_4_" gradientUnits="userSpaceOnUse" x1="234.0264" y1="-150.7012" x2="234.0264" y2="-165.9204" gradientTransform="matrix(1 0 0 -1 -183 -14.5)">
				<stop  offset="0" style="stop-color:#181F1F"/>
				<stop  offset="0.04" style="stop-color:#313333"/>
				<stop  offset="0.08" style="stop-color:#4A4A4A"/>
				<stop  offset="0.14" style="stop-color:#484848"/>
				<stop  offset="0.19" style="stop-color:#3B3D3C"/>
				<stop  offset="1" style="stop-color:#464746"/>
			</linearGradient>
			<path fill="url(#SVGID_4_)" d="M41.641,151.219h18.771c0.506,0,0.92-0.414,0.92-0.92v-14.048H40.721V150.3
				C40.721,150.805,41.134,151.219,41.641,151.219z"/>
			
				<linearGradient id="SVGID_5_" gradientUnits="userSpaceOnUse" x1="234.0254" y1="-150.751" x2="234.0254" y2="-163.3012" gradientTransform="matrix(1 0 0 -1 -183 -14.5)">
				<stop  offset="0" style="stop-color:#808282"/>
				<stop  offset="0.07" style="stop-color:#D9D8D8"/>
				<stop  offset="0.1" style="stop-color:#ECEDED"/>
				<stop  offset="1" style="stop-color:#D9D8D8"/>
			</linearGradient>
			<path fill="url(#SVGID_5_)" d="M59.289,144.082v4.381H42.764c0.183-1.655,0.716-3.225,1.615-4.707
				c0.893-1.483,2.663-3.447,5.296-5.898c0.64-0.592,1.204-1.128,1.694-1.606h5.942c-0.158,0.221-0.324,0.443-0.501,0.667
				c-0.572,0.728-1.603,1.775-3.086,3.139c-1.489,1.363-2.434,2.274-2.829,2.721c-0.395,0.446-0.721,0.882-0.968,1.305H59.289
				L59.289,144.082z"/>
			
				<linearGradient id="SVGID_6_" gradientUnits="userSpaceOnUse" x1="234.3047" y1="-150.752" x2="234.3047" y2="-138.1721" gradientTransform="matrix(1 0 0 -1 -183 -14.5)">
				<stop  offset="0" style="stop-color:#808282"/>
				<stop  offset="0.09" style="stop-color:#D9D8D8"/>
				<stop  offset="0.15" style="stop-color:#ECEDED"/>
				<stop  offset="1" style="stop-color:#D9D8D8"/>
			</linearGradient>
			<path fill="url(#SVGID_6_)" d="M51.368,136.251c1.143-1.118,1.881-1.925,2.217-2.419c0.647-0.973,0.974-1.935,0.974-2.885
				c0-1.049-0.281-1.855-0.847-2.423c-0.567-0.566-1.345-0.847-2.342-0.847c-0.985,0-1.764,0.298-2.348,0.887
				c-0.578,0.596-0.916,1.581-1.007,2.955l-4.696-0.469c0.28-2.594,1.157-4.455,2.634-5.588c1.477-1.129,3.321-1.695,5.536-1.695
				c2.428,0,4.335,0.658,5.72,1.965c1.386,1.311,2.079,2.937,2.079,4.883c0,1.105-0.2,2.159-0.595,3.162
				c-0.314,0.795-0.776,1.621-1.383,2.475L51.368,136.251L51.368,136.251z"/>
			<rect x="40.756" y="136.09" width="20.578" height="0.216"/>
			<rect x="40.721" y="136.251" fill="#4A4A4A" width="20.612" height="0.157"/>
			<path fill="#636363" d="M41.641,151.219h18.771c0.506,0,0.92-0.414,0.92-0.92v-0.211c0,0.506-0.415,0.921-0.92,0.921H41.641
				c-0.506,0-0.92-0.415-0.92-0.921v0.211C40.721,150.805,41.134,151.219,41.641,151.219z"/>
			<path fill="#FFFFFF" d="M72.535,120.992H91.87c0.521,0,0.948,0.426,0.948,0.948v28.874c0,0.521-0.426,0.947-0.948,0.947H72.535
				c-0.521,0-0.948-0.427-0.948-0.947V121.94C71.587,121.418,72.014,120.992,72.535,120.992z"/>
			<path d="M72.535,120.834H91.87c0.521,0,0.948,0.426,0.948,0.947v28.875c0,0.521-0.426,0.947-0.948,0.947H72.535
				c-0.521,0-0.948-0.426-0.948-0.947v-28.875C71.587,121.26,72.014,120.834,72.535,120.834z"/>
			
				<linearGradient id="SVGID_7_" gradientUnits="userSpaceOnUse" x1="265.2031" y1="-150.5977" x2="265.2031" y2="-135.5926" gradientTransform="matrix(1 0 0 -1 -183 -14.5)">
				<stop  offset="0" style="stop-color:#000000"/>
				<stop  offset="0.07" style="stop-color:#313333"/>
				<stop  offset="1" style="stop-color:#3F4040"/>
			</linearGradient>
			<path fill="url(#SVGID_7_)" d="M72.817,121.282h18.771c0.507,0,0.921,0.413,0.921,0.92v14.049H71.897v-14.049
				C71.897,121.695,72.311,121.282,72.817,121.282z"/>
			<path fill="#636363" d="M72.817,121.282h18.771c0.507,0,0.921,0.413,0.921,0.92v0.21c0-0.506-0.414-0.92-0.921-0.92H72.817
				c-0.506,0-0.92,0.414-0.92,0.92v-0.21C71.897,121.695,72.311,121.282,72.817,121.282z"/>
			
				<linearGradient id="SVGID_8_" gradientUnits="userSpaceOnUse" x1="265.2031" y1="-150.7012" x2="265.2031" y2="-165.9204" gradientTransform="matrix(1 0 0 -1 -183 -14.5)">
				<stop  offset="0" style="stop-color:#181F1F"/>
				<stop  offset="0.04" style="stop-color:#313333"/>
				<stop  offset="0.08" style="stop-color:#4A4A4A"/>
				<stop  offset="0.14" style="stop-color:#484848"/>
				<stop  offset="0.19" style="stop-color:#3B3D3C"/>
				<stop  offset="1" style="stop-color:#464746"/>
			</linearGradient>
			<path fill="url(#SVGID_8_)" d="M72.817,151.219h18.771c0.507,0,0.921-0.414,0.921-0.92v-14.048H71.897V150.3
				C71.897,150.805,72.311,151.219,72.817,151.219z"/>
			
				<linearGradient id="SVGID_9_" gradientUnits="userSpaceOnUse" x1="268.5234" y1="-150.751" x2="268.5234" y2="-163.3012" gradientTransform="matrix(1 0 0 -1 -183 -14.5)">
				<stop  offset="0" style="stop-color:#808282"/>
				<stop  offset="0.07" style="stop-color:#D9D8D8"/>
				<stop  offset="0.1" style="stop-color:#ECEDED"/>
				<stop  offset="1" style="stop-color:#D9D8D8"/>
			</linearGradient>
			<rect x="83.167" y="136.251" fill="url(#SVGID_9_)" width="4.713" height="12.212"/>
			
				<linearGradient id="SVGID_10_" gradientUnits="userSpaceOnUse" x1="265.4805" y1="-150.751" x2="265.4805" y2="-138.1712" gradientTransform="matrix(1 0 0 -1 -183 -14.5)">
				<stop  offset="0" style="stop-color:#808282"/>
				<stop  offset="0.09" style="stop-color:#D9D8D8"/>
				<stop  offset="0.15" style="stop-color:#ECEDED"/>
				<stop  offset="1" style="stop-color:#D9D8D8"/>
			</linearGradient>
			<path fill="url(#SVGID_10_)" d="M83.167,136.251v-5.556c-1.724,1.614-3.75,2.805-6.086,3.572v-4.277
				c1.225-0.401,2.565-1.162,4.008-2.285c1.443-1.128,2.434-2.438,2.965-3.938h3.826v12.484H83.167z"/>
			<rect x="71.932" y="136.09" width="20.579" height="0.216"/>
			<rect x="71.897" y="136.251" fill="#4A4A4A" width="20.612" height="0.157"/>
			<path fill="#636363" d="M72.817,151.219h18.771c0.507,0,0.921-0.414,0.921-0.92v-0.211c0,0.506-0.414,0.921-0.921,0.921H72.817
				c-0.506,0-0.92-0.415-0.92-0.921v0.211C71.897,150.805,72.311,151.219,72.817,151.219z"/>
			<path d="M41.359,112.909h19.334c0.521,0,0.948,0.426,0.948,0.947v3.433c0,0.522-0.427,0.949-0.948,0.949H41.359
				c-0.521,0-0.947-0.427-0.947-0.949v-3.433C40.412,113.334,40.837,112.909,41.359,112.909z"/>
			<path d="M72.535,112.909H91.87c0.521,0,0.948,0.426,0.948,0.947v3.433c0,0.522-0.427,0.949-0.948,0.949H72.535
				c-0.521,0-0.948-0.427-0.948-0.949v-3.433C71.587,113.334,72.014,112.909,72.535,112.909z"/>
			
				<linearGradient id="SVGID_11_" gradientUnits="userSpaceOnUse" x1="234.0273" y1="-132.7383" x2="234.0273" y2="-127.5391" gradientTransform="matrix(1 0 0 -1 -183 -14.5)">
				<stop  offset="0" style="stop-color:#000000"/>
				<stop  offset="0.07" style="stop-color:#313333"/>
				<stop  offset="1" style="stop-color:#3F4040"/>
			</linearGradient>
			<path fill="url(#SVGID_11_)" d="M41.641,113.101h18.771c0.506,0,0.92,0.414,0.92,0.921c0,1.012,0,2.024,0,3.036
				c0,0.505-0.415,0.92-0.92,0.92H41.641c-0.506,0-0.92-0.414-0.92-0.92c0-1.012,0-2.024,0-3.036
				C40.721,113.515,41.134,113.101,41.641,113.101z"/>
			<path fill="#636363" d="M41.641,113.101h18.771c0.506,0,0.92,0.414,0.92,0.921v0.119c0-0.507-0.415-0.921-0.92-0.921H41.641
				c-0.506,0-0.92,0.414-0.92,0.921v-0.119C40.721,113.515,41.134,113.101,41.641,113.101z"/>
			
				<linearGradient id="SVGID_12_" gradientUnits="userSpaceOnUse" x1="265.2031" y1="-132.7383" x2="265.2031" y2="-127.5391" gradientTransform="matrix(1 0 0 -1 -183 -14.5)">
				<stop  offset="0" style="stop-color:#000000"/>
				<stop  offset="0.07" style="stop-color:#313333"/>
				<stop  offset="1" style="stop-color:#3F4040"/>
			</linearGradient>
			<path fill="url(#SVGID_12_)" d="M72.817,113.101h18.771c0.507,0,0.921,0.414,0.921,0.921c0,1.012,0,2.024,0,3.036
				c0,0.505-0.414,0.92-0.921,0.92H72.817c-0.506,0-0.92-0.414-0.92-0.92c0-1.012,0-2.024,0-3.036
				C71.897,113.515,72.311,113.101,72.817,113.101z"/>
			<path fill="#636363" d="M72.817,113.101h18.771c0.507,0,0.921,0.414,0.921,0.921v0.119c0-0.507-0.414-0.921-0.921-0.921H72.817
				c-0.506,0-0.92,0.414-0.92,0.921v-0.119C71.897,113.515,72.311,113.101,72.817,113.101z"/>
			
				<linearGradient id="SVGID_13_" gradientUnits="userSpaceOnUse" x1="265.2012" y1="-131.9951" x2="265.2012" y2="-128.1211" gradientTransform="matrix(1 0 0 -1 -183 -14.5)">
				<stop  offset="0" style="stop-color:#808282"/>
				<stop  offset="0.09" style="stop-color:#D9D8D8"/>
				<stop  offset="0.15" style="stop-color:#ECEDED"/>
				<stop  offset="1" style="stop-color:#D9D8D8"/>
			</linearGradient>
			<path fill="url(#SVGID_13_)" d="M74.034,117.434l-1.353-3.783h0.829l0.957,2.8l0.926-2.8h0.812l-1.355,3.783H74.034
				L74.034,117.434z M76.495,114.32v-0.67h0.725v0.67H76.495L76.495,114.32z M76.495,117.434v-2.741h0.725v2.741H76.495
				L76.495,117.434z M77.708,116.651l0.729-0.111c0.03,0.142,0.093,0.249,0.188,0.322c0.094,0.072,0.227,0.11,0.398,0.11
				c0.187,0,0.328-0.035,0.422-0.104c0.065-0.048,0.097-0.113,0.097-0.193c0-0.056-0.019-0.102-0.053-0.138
				c-0.036-0.034-0.117-0.065-0.242-0.095c-0.585-0.129-0.955-0.247-1.112-0.353c-0.217-0.148-0.325-0.354-0.325-0.617
				c0-0.237,0.093-0.438,0.281-0.599c0.188-0.162,0.479-0.243,0.872-0.243c0.375,0,0.655,0.062,0.837,0.183
				c0.183,0.123,0.308,0.304,0.376,0.543l-0.684,0.126c-0.029-0.107-0.084-0.188-0.166-0.245c-0.082-0.058-0.198-0.086-0.351-0.086
				c-0.191,0-0.327,0.026-0.41,0.08c-0.054,0.038-0.082,0.088-0.082,0.147c0,0.052,0.023,0.095,0.072,0.131
				c0.064,0.049,0.291,0.117,0.678,0.204c0.386,0.088,0.655,0.195,0.808,0.323c0.153,0.129,0.229,0.31,0.229,0.539
				c0,0.251-0.106,0.468-0.316,0.648s-0.52,0.271-0.931,0.271c-0.373,0-0.667-0.076-0.886-0.227
				C77.917,117.117,77.774,116.911,77.708,116.651L77.708,116.651z M80.903,114.32v-0.67h0.725v0.67H80.903L80.903,114.32z
				 M80.903,117.434v-2.741h0.725v2.741H80.903L80.903,117.434z M83.629,114.692v0.578h-0.495v1.104
				c0,0.224,0.003,0.354,0.014,0.392c0.009,0.037,0.031,0.066,0.064,0.091c0.034,0.023,0.074,0.037,0.122,0.037
				c0.068,0,0.165-0.024,0.292-0.07l0.063,0.563c-0.169,0.072-0.36,0.108-0.574,0.108c-0.131,0-0.249-0.021-0.354-0.065
				c-0.105-0.043-0.181-0.102-0.23-0.17c-0.05-0.069-0.083-0.164-0.102-0.283c-0.016-0.084-0.023-0.255-0.023-0.511v-1.194h-0.332
				v-0.578h0.332v-0.545l0.728-0.424v0.969L83.629,114.692L83.629,114.692z M83.964,116.024c0-0.24,0.06-0.475,0.177-0.699
				c0.119-0.225,0.287-0.397,0.506-0.516c0.218-0.119,0.46-0.179,0.729-0.179c0.414,0,0.754,0.135,1.02,0.404
				s0.397,0.609,0.397,1.021c0,0.414-0.134,0.758-0.4,1.031c-0.269,0.273-0.605,0.408-1.011,0.408c-0.252,0-0.49-0.057-0.719-0.17
				c-0.229-0.114-0.401-0.279-0.521-0.499S83.964,116.339,83.964,116.024L83.964,116.024z M84.708,116.063
				c0,0.272,0.064,0.48,0.194,0.624c0.128,0.145,0.288,0.218,0.479,0.218c0.188,0,0.348-0.072,0.475-0.218
				c0.129-0.144,0.193-0.354,0.193-0.629c0-0.269-0.064-0.476-0.193-0.619c-0.127-0.145-0.287-0.217-0.475-0.217
				c-0.19,0-0.35,0.071-0.479,0.217C84.771,115.583,84.708,115.792,84.708,116.063L84.708,116.063z M88.056,117.434H87.33v-2.741
				h0.673v0.39c0.116-0.184,0.22-0.306,0.312-0.364c0.093-0.057,0.196-0.088,0.313-0.088c0.166,0,0.324,0.046,0.478,0.138
				l-0.224,0.632c-0.122-0.078-0.235-0.117-0.341-0.117c-0.102,0-0.187,0.027-0.257,0.083c-0.071,0.056-0.125,0.157-0.167,0.304
				c-0.04,0.146-0.061,0.453-0.061,0.918V117.434L88.056,117.434z M89.163,116.651l0.728-0.111c0.031,0.142,0.093,0.249,0.188,0.322
				c0.093,0.072,0.227,0.11,0.397,0.11c0.188,0,0.329-0.035,0.423-0.104c0.064-0.048,0.096-0.113,0.096-0.193
				c0-0.056-0.018-0.102-0.052-0.138c-0.036-0.034-0.118-0.065-0.242-0.095c-0.584-0.129-0.956-0.247-1.113-0.353
				c-0.217-0.148-0.325-0.354-0.325-0.617c0-0.237,0.093-0.438,0.281-0.599c0.188-0.162,0.479-0.243,0.873-0.243
				c0.375,0,0.654,0.062,0.837,0.183c0.182,0.123,0.308,0.304,0.377,0.543l-0.684,0.126c-0.029-0.107-0.085-0.188-0.167-0.245
				c-0.082-0.058-0.198-0.086-0.35-0.086c-0.191,0-0.327,0.026-0.41,0.08c-0.056,0.038-0.083,0.088-0.083,0.147
				c0,0.052,0.024,0.095,0.072,0.131c0.065,0.049,0.29,0.117,0.677,0.204c0.386,0.088,0.656,0.195,0.809,0.323
				c0.151,0.129,0.227,0.31,0.227,0.539c0,0.251-0.105,0.468-0.315,0.648s-0.521,0.271-0.931,0.271
				c-0.374,0-0.669-0.076-0.888-0.227C89.371,117.117,89.229,116.911,89.163,116.651z"/>
			
				<linearGradient id="SVGID_14_" gradientUnits="userSpaceOnUse" x1="234.0264" y1="-131.9951" x2="234.0264" y2="-128.1211" gradientTransform="matrix(1 0 0 -1 -183 -14.5)">
				<stop  offset="0" style="stop-color:#808282"/>
				<stop  offset="0.09" style="stop-color:#D9D8D8"/>
				<stop  offset="0.15" style="stop-color:#ECEDED"/>
				<stop  offset="1" style="stop-color:#D9D8D8"/>
			</linearGradient>
			<path fill="url(#SVGID_14_)" d="M43.982,117.434v-3.783h0.765v1.488h1.497v-1.488h0.764v3.783h-0.764v-1.654h-1.497v1.654H43.982
				L43.982,117.434z M47.624,116.024c0-0.24,0.061-0.475,0.178-0.699c0.119-0.225,0.287-0.397,0.505-0.516
				c0.218-0.119,0.46-0.179,0.729-0.179c0.415,0,0.754,0.135,1.02,0.404c0.266,0.27,0.397,0.609,0.397,1.021
				c0,0.414-0.135,0.758-0.401,1.031c-0.268,0.273-0.604,0.408-1.011,0.408c-0.251,0-0.49-0.057-0.718-0.17
				c-0.228-0.114-0.402-0.279-0.521-0.499C47.685,116.606,47.624,116.339,47.624,116.024L47.624,116.024z M48.368,116.063
				c0,0.272,0.064,0.48,0.194,0.624c0.128,0.145,0.288,0.218,0.478,0.218c0.189,0,0.348-0.072,0.476-0.218
				c0.129-0.144,0.193-0.354,0.193-0.629c0-0.269-0.064-0.476-0.193-0.619c-0.127-0.145-0.286-0.217-0.476-0.217
				c-0.19,0-0.35,0.071-0.478,0.217C48.432,115.583,48.368,115.792,48.368,116.063L48.368,116.063z M50.967,114.692h0.668v0.374
				c0.239-0.291,0.524-0.436,0.854-0.436c0.175,0,0.328,0.036,0.456,0.108c0.131,0.072,0.236,0.182,0.319,0.327
				c0.12-0.146,0.25-0.255,0.39-0.327c0.139-0.072,0.288-0.108,0.447-0.108c0.201,0,0.372,0.041,0.51,0.123
				c0.14,0.081,0.244,0.201,0.312,0.359c0.05,0.117,0.075,0.307,0.075,0.568v1.752h-0.725v-1.566c0-0.272-0.025-0.447-0.075-0.527
				c-0.067-0.103-0.169-0.154-0.309-0.154c-0.103,0-0.198,0.03-0.287,0.093c-0.09,0.062-0.153,0.152-0.194,0.272
				c-0.04,0.12-0.06,0.309-0.06,0.566v1.315h-0.725v-1.501c0-0.268-0.013-0.439-0.04-0.517c-0.026-0.077-0.065-0.135-0.119-0.172
				c-0.054-0.039-0.128-0.058-0.221-0.058c-0.112,0-0.212,0.03-0.301,0.091s-0.154,0.146-0.193,0.261s-0.058,0.301-0.058,0.564
				v1.332h-0.725L50.967,114.692L50.967,114.692z M57.308,116.562l0.723,0.12c-0.093,0.266-0.24,0.467-0.441,0.605
				c-0.199,0.139-0.451,0.208-0.752,0.208c-0.477,0-0.829-0.155-1.058-0.467c-0.18-0.25-0.271-0.565-0.271-0.944
				c0-0.455,0.118-0.811,0.356-1.068c0.237-0.257,0.537-0.386,0.9-0.386c0.408,0,0.729,0.136,0.965,0.404
				c0.236,0.27,0.349,0.683,0.339,1.237h-1.817c0.006,0.216,0.063,0.383,0.175,0.502c0.112,0.119,0.252,0.18,0.419,0.18
				c0.114,0,0.209-0.032,0.286-0.093C57.21,116.799,57.269,116.699,57.308,116.562L57.308,116.562z M57.349,115.828
				c-0.005-0.211-0.059-0.37-0.162-0.479s-0.229-0.163-0.377-0.163c-0.159,0-0.29,0.058-0.392,0.173
				c-0.103,0.114-0.154,0.271-0.153,0.469L57.349,115.828L57.349,115.828z"/>
			
				<linearGradient id="SVGID_15_" gradientUnits="userSpaceOnUse" x1="249.6152" y1="-111.7109" x2="249.6152" y2="-115.4172" gradientTransform="matrix(1 0 0 -1 -183 -14.5)">
				<stop  offset="0" style="stop-color:#CACCD0"/>
				<stop  offset="1" style="stop-color:#FFFFFF"/>
			</linearGradient>
			<path fill="url(#SVGID_15_)" d="M52.668,99.3l0.888-0.638c0.047-0.025,0.096-0.036,0.151-0.037h25.816
				c0.083,0.002,0.138,0.022,0.202,0.069l0.837,0.606c-0.069-0.049-0.127-0.071-0.215-0.073H52.882
				C52.794,99.229,52.737,99.251,52.668,99.3z"/>
			<path fill="#CACCD0" d="M52.882,99.222h27.465c0.186,0,0.336,0.153,0.336,0.341v12.062c0,0.188-0.151,0.342-0.336,0.342H52.882
				c-0.186,0-0.337-0.154-0.337-0.342V99.563C52.545,99.375,52.696,99.222,52.882,99.222z"/>
			<path fill="#FFFFFF" d="M54.248,100.255h24.717c0.131,0,0.239,0.108,0.239,0.239v8.913c0,0.132-0.107,0.239-0.239,0.239H54.248
				c-0.131,0-0.238-0.107-0.238-0.239v-8.913C54.009,100.363,54.117,100.255,54.248,100.255z"/>
			<path d="M54.248,100.098h24.717c0.131,0,0.239,0.108,0.239,0.238v8.914c0,0.131-0.107,0.238-0.239,0.238H54.248
				c-0.131,0-0.238-0.107-0.238-0.238v-8.914C54.009,100.205,54.117,100.098,54.248,100.098z"/>
			
				<radialGradient id="SVGID_16_" cx="241.0488" cy="-119.3516" r="3.1134" gradientTransform="matrix(1 0 0 -1 -183 -14.5)" gradientUnits="userSpaceOnUse">
				<stop  offset="0" style="stop-color:#186C3E"/>
				<stop  offset="1" style="stop-color:#000000"/>
			</radialGradient>
			<path fill="url(#SVGID_16_)" d="M58.049,107.411c1.409,0,2.56-1.15,2.56-2.56s-1.15-2.56-2.56-2.56c-1.41,0-2.56,1.15-2.56,2.56
				S56.639,107.411,58.049,107.411z"/>
			
				<radialGradient id="SVGID_17_" cx="253.9131" cy="-119.3516" r="3.1134" gradientTransform="matrix(1 0 0 -1 -183 -14.5)" gradientUnits="userSpaceOnUse">
				<stop  offset="0" style="stop-color:#186C3E"/>
				<stop  offset="1" style="stop-color:#000000"/>
			</radialGradient>
			<path fill="url(#SVGID_17_)" d="M70.913,107.411c1.409,0,2.56-1.15,2.56-2.56s-1.15-2.56-2.56-2.56
				c-1.41,0-2.559,1.15-2.559,2.56S69.503,107.411,70.913,107.411z"/>
			
				<radialGradient id="SVGID_18_" cx="246.2861" cy="-119.3516" r="3.1134" gradientTransform="matrix(1 0 0 -1 -183 -14.5)" gradientUnits="userSpaceOnUse">
				<stop  offset="0" style="stop-color:#186C3E"/>
				<stop  offset="1" style="stop-color:#000000"/>
			</radialGradient>
			<path fill="url(#SVGID_18_)" d="M63.286,107.411c1.41,0,2.559-1.15,2.559-2.56s-1.149-2.56-2.559-2.56
				c-1.41,0-2.56,1.15-2.56,2.56S61.876,107.411,63.286,107.411z"/>
			
				<radialGradient id="SVGID_19_" cx="250.0527" cy="-118.2432" r="1.7552" gradientTransform="matrix(1 0 0 -1 -183 -14.5)" gradientUnits="userSpaceOnUse">
				<stop  offset="0" style="stop-color:#186C3E"/>
				<stop  offset="0.0333" style="stop-color:#1A683D"/>
				<stop  offset="0.5123" style="stop-color:#163526"/>
				<stop  offset="0.8444" style="stop-color:#01120C"/>
				<stop  offset="1" style="stop-color:#000000"/>
			</radialGradient>
			<path fill="url(#SVGID_19_)" d="M67.053,105.187c0.794,0,1.443-0.649,1.443-1.444c0-0.794-0.648-1.443-1.443-1.443
				s-1.444,0.648-1.444,1.443C65.609,104.538,66.258,105.187,67.053,105.187z"/>
			
				<radialGradient id="SVGID_20_" cx="250.0527" cy="-121.3545" r="1.7547" gradientTransform="matrix(1 0 0 -1 -183 -14.5)" gradientUnits="userSpaceOnUse">
				<stop  offset="0" style="stop-color:#186C3E"/>
				<stop  offset="0.0333" style="stop-color:#1A683D"/>
				<stop  offset="0.5123" style="stop-color:#163526"/>
				<stop  offset="0.8444" style="stop-color:#01120C"/>
				<stop  offset="1" style="stop-color:#000000"/>
			</radialGradient>
			<path fill="url(#SVGID_20_)" d="M67.053,108.298c0.794,0,1.443-0.647,1.443-1.442c0-0.796-0.648-1.444-1.443-1.444
				s-1.444,0.648-1.444,1.444C65.608,107.65,66.258,108.298,67.053,108.298z"/>
			
				<radialGradient id="SVGID_21_" cx="259.1504" cy="-119.3516" r="3.1132" gradientTransform="matrix(1 0 0 -1 -183 -14.5)" gradientUnits="userSpaceOnUse">
				<stop  offset="0" style="stop-color:#186C3E"/>
				<stop  offset="1" style="stop-color:#000000"/>
			</radialGradient>
			<path fill="url(#SVGID_21_)" d="M76.15,107.411c1.409,0,2.56-1.15,2.56-2.56s-1.15-2.56-2.56-2.56c-1.41,0-2.559,1.15-2.559,2.56
				S74.741,107.411,76.15,107.411z"/>
			
				<radialGradient id="SVGID_22_" cx="241.0049" cy="-119.3545" r="3.9654" gradientTransform="matrix(1 0 0 -1 -183 -14.5)" gradientUnits="userSpaceOnUse">
				<stop  offset="0" style="stop-color:#608740"/>
				<stop  offset="1" style="stop-color:#002207"/>
			</radialGradient>
			<path fill="url(#SVGID_22_)" d="M59.525,104.287c0-0.256,0-0.511,0-0.768c0.255,0,0.511,0,0.768,0c0,0.256,0,0.511,0,0.768
				C60.037,104.287,59.781,104.287,59.525,104.287L59.525,104.287z M59.525,105.23c0-0.255,0-0.511,0-0.768c0.255,0,0.511,0,0.768,0
				c0,0.256,0,0.512,0,0.768C60.037,105.23,59.781,105.23,59.525,105.23L59.525,105.23z M55.717,105.23c0-0.255,0-0.511,0-0.768
				c0.256,0,0.512,0,0.768,0c0,0.256,0,0.512,0,0.768C56.23,105.23,55.975,105.23,55.717,105.23L55.717,105.23z M55.717,108.094
				c0-0.256,0-0.512,0-0.769c0.256,0,0.512,0,0.768,0c0,0.256,0,0.513,0,0.769C56.23,108.094,55.975,108.094,55.717,108.094
				L55.717,108.094z M59.525,108.094c0-0.256,0-0.512,0-0.769c0.255,0,0.511,0,0.768,0c0,0.256,0,0.513,0,0.769
				C60.037,108.094,59.781,108.094,59.525,108.094L59.525,108.094z M59.525,102.383c0-0.256,0-0.512,0-0.768
				c0.255,0,0.511,0,0.768,0c0,0.256,0,0.512,0,0.768C60.037,102.383,59.781,102.383,59.525,102.383L59.525,102.383z
				 M55.717,102.383c0-0.256,0-0.512,0-0.768c0.256,0,0.512,0,0.768,0c0,0.256,0,0.512,0,0.768
				C56.23,102.383,55.975,102.383,55.717,102.383L55.717,102.383z M59.525,103.334c0-0.256,0-0.512,0-0.768c0.255,0,0.511,0,0.768,0
				c0,0.255,0,0.511,0,0.768C60.037,103.334,59.781,103.334,59.525,103.334L59.525,103.334z M58.573,102.383
				c0-0.256,0-0.512,0-0.768c0.255,0,0.511,0,0.768,0c0,0.256,0,0.512,0,0.768C59.084,102.383,58.829,102.383,58.573,102.383
				L58.573,102.383z M57.621,102.383c0-0.256,0-0.512,0-0.768c0.257,0,0.512,0,0.768,0c0,0.256,0,0.512,0,0.768
				C58.133,102.383,57.877,102.383,57.621,102.383L57.621,102.383z M56.669,102.383c0-0.256,0-0.512,0-0.768
				c0.256,0,0.512,0,0.768,0c0,0.256,0,0.512,0,0.768C57.181,102.383,56.925,102.383,56.669,102.383L56.669,102.383z
				 M55.717,103.334c0-0.256,0-0.512,0-0.768c0.256,0,0.512,0,0.768,0c0,0.255,0,0.511,0,0.768
				C56.23,103.334,55.974,103.334,55.717,103.334L55.717,103.334z M55.717,104.287c0-0.256,0-0.511,0-0.768c0.256,0,0.512,0,0.768,0
				c0,0.256,0,0.511,0,0.768C56.23,104.287,55.974,104.287,55.717,104.287L55.717,104.287z M59.525,107.142c0-0.256,0-0.512,0-0.768
				c0.255,0,0.511,0,0.768,0c0,0.256,0,0.511,0,0.768C60.037,107.142,59.781,107.142,59.525,107.142L59.525,107.142z M59.525,106.19
				c0-0.256,0-0.512,0-0.768c0.255,0,0.511,0,0.768,0c0,0.256,0,0.512,0,0.768C60.037,106.19,59.781,106.19,59.525,106.19
				L59.525,106.19z M58.573,105.238c0-0.256,0-0.512,0-0.768c0.255,0,0.511,0,0.768,0c0,0.255,0,0.512,0,0.768
				C59.084,105.238,58.829,105.238,58.573,105.238L58.573,105.238z M57.621,105.238c0-0.256,0-0.512,0-0.768
				c0.257,0,0.512,0,0.768,0c0,0.255,0,0.512,0,0.768C58.133,105.238,57.877,105.238,57.621,105.238L57.621,105.238z
				 M56.669,105.238c0-0.256,0-0.512,0-0.768c0.256,0,0.512,0,0.768,0c0,0.255,0,0.512,0,0.768
				C57.181,105.238,56.925,105.238,56.669,105.238L56.669,105.238z M55.717,106.19c0-0.256,0-0.512,0-0.768c0.256,0,0.512,0,0.768,0
				c0,0.256,0,0.512,0,0.768C56.23,106.19,55.974,106.19,55.717,106.19L55.717,106.19z M55.717,107.142c0-0.256,0-0.512,0-0.768
				c0.256,0,0.512,0,0.768,0c0,0.256,0,0.511,0,0.768C56.23,107.142,55.974,107.142,55.717,107.142L55.717,107.142z M56.669,108.094
				c0-0.256,0-0.512,0-0.769c0.256,0,0.512,0,0.768,0c0,0.256,0,0.513,0,0.769C57.181,108.094,56.925,108.094,56.669,108.094
				L56.669,108.094z M57.621,108.094c0-0.256,0-0.512,0-0.769c0.257,0,0.512,0,0.768,0c0,0.256,0,0.513,0,0.769
				C58.133,108.094,57.877,108.094,57.621,108.094L57.621,108.094z M58.573,108.094c0-0.256,0-0.512,0-0.769
				c0.255,0,0.511,0,0.768,0c0,0.256,0,0.513,0,0.769C59.084,108.094,58.829,108.094,58.573,108.094z"/>
			
				<radialGradient id="SVGID_23_" cx="253.8691" cy="-119.3545" r="3.9654" gradientTransform="matrix(1 0 0 -1 -183 -14.5)" gradientUnits="userSpaceOnUse">
				<stop  offset="0" style="stop-color:#608740"/>
				<stop  offset="1" style="stop-color:#002207"/>
			</radialGradient>
			<path fill="url(#SVGID_23_)" d="M72.39,104.287c0-0.256,0-0.511,0-0.768c0.256,0,0.511,0,0.768,0c0,0.256,0,0.511,0,0.768
				C72.901,104.287,72.646,104.287,72.39,104.287L72.39,104.287z M72.39,105.23c0-0.255,0-0.511,0-0.768c0.256,0,0.511,0,0.768,0
				c0,0.256,0,0.512,0,0.768C72.901,105.23,72.646,105.23,72.39,105.23L72.39,105.23z M68.582,105.23c0-0.255,0-0.511,0-0.768
				c0.256,0,0.513,0,0.769,0c0,0.256,0,0.512,0,0.768C69.095,105.23,68.839,105.23,68.582,105.23L68.582,105.23z M68.582,108.094
				c0-0.256,0-0.512,0-0.769c0.256,0,0.513,0,0.769,0c0,0.256,0,0.513,0,0.769C69.095,108.094,68.839,108.094,68.582,108.094
				L68.582,108.094z M72.39,108.094c0-0.256,0-0.512,0-0.769c0.256,0,0.511,0,0.768,0c0,0.256,0,0.513,0,0.769
				C72.901,108.094,72.646,108.094,72.39,108.094L72.39,108.094z M72.39,102.383c0-0.256,0-0.512,0-0.768c0.256,0,0.511,0,0.768,0
				c0,0.256,0,0.512,0,0.768C72.901,102.383,72.646,102.383,72.39,102.383L72.39,102.383z M68.582,102.383c0-0.256,0-0.512,0-0.768
				c0.256,0,0.513,0,0.769,0c0,0.256,0,0.512,0,0.768C69.095,102.383,68.839,102.383,68.582,102.383L68.582,102.383z M72.39,103.334
				c0-0.256,0-0.512,0-0.768c0.256,0,0.511,0,0.768,0c0,0.255,0,0.511,0,0.768C72.901,103.334,72.646,103.334,72.39,103.334
				L72.39,103.334z M71.438,102.383c0-0.256,0-0.512,0-0.768c0.256,0,0.511,0,0.767,0c0,0.256,0,0.512,0,0.768
				C71.949,102.383,71.693,102.383,71.438,102.383L71.438,102.383z M70.486,102.383c0-0.256,0-0.512,0-0.768
				c0.255,0,0.511,0,0.768,0c0,0.256,0,0.512,0,0.768C70.997,102.383,70.742,102.383,70.486,102.383L70.486,102.383z
				 M69.534,102.383c0-0.256,0-0.512,0-0.768c0.255,0,0.511,0,0.768,0c0,0.256,0,0.512,0,0.768
				C70.045,102.383,69.789,102.383,69.534,102.383L69.534,102.383z M68.582,103.334c0-0.256,0-0.512,0-0.768
				c0.256,0,0.512,0,0.769,0c0,0.255,0,0.511,0,0.768C69.094,103.334,68.839,103.334,68.582,103.334L68.582,103.334z
				 M68.582,104.287c0-0.256,0-0.511,0-0.768c0.256,0,0.512,0,0.769,0c0,0.256,0,0.511,0,0.768
				C69.094,104.287,68.839,104.287,68.582,104.287L68.582,104.287z M72.39,107.142c0-0.256,0-0.512,0-0.768c0.256,0,0.511,0,0.768,0
				c0,0.256,0,0.511,0,0.768C72.901,107.142,72.646,107.142,72.39,107.142L72.39,107.142z M72.39,106.19c0-0.256,0-0.512,0-0.768
				c0.256,0,0.511,0,0.768,0c0,0.256,0,0.512,0,0.768C72.901,106.19,72.646,106.19,72.39,106.19L72.39,106.19z M71.438,105.238
				c0-0.256,0-0.512,0-0.768c0.256,0,0.511,0,0.767,0c0,0.255,0,0.512,0,0.768C71.949,105.238,71.693,105.238,71.438,105.238
				L71.438,105.238z M70.486,105.238c0-0.256,0-0.512,0-0.768c0.255,0,0.511,0,0.768,0c0,0.255,0,0.512,0,0.768
				C70.997,105.238,70.742,105.238,70.486,105.238L70.486,105.238z M69.534,105.238c0-0.256,0-0.512,0-0.768
				c0.255,0,0.511,0,0.768,0c0,0.255,0,0.512,0,0.768C70.045,105.238,69.789,105.238,69.534,105.238L69.534,105.238z M68.582,106.19
				c0-0.256,0-0.512,0-0.768c0.256,0,0.512,0,0.769,0c0,0.256,0,0.512,0,0.768C69.094,106.19,68.839,106.19,68.582,106.19
				L68.582,106.19z M68.582,107.142c0-0.256,0-0.512,0-0.768c0.256,0,0.512,0,0.769,0c0,0.256,0,0.511,0,0.768
				C69.094,107.142,68.839,107.142,68.582,107.142L68.582,107.142z M69.534,108.094c0-0.256,0-0.512,0-0.769
				c0.255,0,0.511,0,0.768,0c0,0.256,0,0.513,0,0.769C70.045,108.094,69.789,108.094,69.534,108.094L69.534,108.094z
				 M70.486,108.094c0-0.256,0-0.512,0-0.769c0.255,0,0.511,0,0.768,0c0,0.256,0,0.513,0,0.769
				C70.997,108.094,70.742,108.094,70.486,108.094L70.486,108.094z M71.438,108.094c0-0.256,0-0.512,0-0.769
				c0.256,0,0.511,0,0.767,0c0,0.256,0,0.513,0,0.769C71.949,108.094,71.693,108.094,71.438,108.094z"/>
			
				<radialGradient id="SVGID_24_" cx="246.2246" cy="-119.3545" r="3.965" gradientTransform="matrix(1 0 0 -1 -183 -14.5)" gradientUnits="userSpaceOnUse">
				<stop  offset="0" style="stop-color:#608740"/>
				<stop  offset="1" style="stop-color:#002207"/>
			</radialGradient>
			<path fill="url(#SVGID_24_)" d="M64.744,104.287c0-0.256,0-0.511,0-0.768c0.256,0,0.512,0,0.768,0c0,0.256,0,0.511,0,0.768
				C65.256,104.287,65,104.287,64.744,104.287L64.744,104.287z M64.744,105.23c0-0.255,0-0.511,0-0.768c0.256,0,0.512,0,0.768,0
				c0,0.256,0,0.512,0,0.768C65.256,105.23,65,105.23,64.744,105.23L64.744,105.23z M60.937,105.23c0-0.255,0-0.511,0-0.768
				c0.257,0,0.512,0,0.768,0c0,0.256,0,0.512,0,0.768C61.449,105.23,61.194,105.23,60.937,105.23L60.937,105.23z M60.937,108.094
				c0-0.256,0-0.512,0-0.769c0.257,0,0.512,0,0.768,0c0,0.256,0,0.513,0,0.769C61.449,108.094,61.194,108.094,60.937,108.094
				L60.937,108.094z M64.744,108.094c0-0.256,0-0.512,0-0.769c0.256,0,0.512,0,0.768,0c0,0.256,0,0.513,0,0.769
				C65.256,108.094,65,108.094,64.744,108.094L64.744,108.094z M64.744,102.383c0-0.256,0-0.512,0-0.768c0.256,0,0.512,0,0.768,0
				c0,0.256,0,0.512,0,0.768C65.256,102.383,65,102.383,64.744,102.383L64.744,102.383z M60.937,102.383c0-0.256,0-0.512,0-0.768
				c0.257,0,0.512,0,0.768,0c0,0.256,0,0.512,0,0.768C61.449,102.383,61.194,102.383,60.937,102.383L60.937,102.383z
				 M64.744,103.334c0-0.256,0-0.512,0-0.768c0.256,0,0.512,0,0.768,0c0,0.255,0,0.511,0,0.768
				C65.256,103.334,65,103.334,64.744,103.334L64.744,103.334z M63.792,102.383c0-0.256,0-0.512,0-0.768c0.255,0,0.511,0,0.768,0
				c0,0.256,0,0.512,0,0.768C64.304,102.383,64.048,102.383,63.792,102.383L63.792,102.383z M62.841,102.383
				c0-0.256,0-0.512,0-0.768c0.255,0,0.51,0,0.768,0c0,0.256,0,0.512,0,0.768C63.352,102.383,63.097,102.383,62.841,102.383
				L62.841,102.383z M61.888,102.383c0-0.256,0-0.512,0-0.768c0.256,0,0.511,0,0.768,0c0,0.256,0,0.512,0,0.768
				C62.4,102.383,62.145,102.383,61.888,102.383L61.888,102.383z M60.937,103.334c0-0.256,0-0.512,0-0.768c0.256,0,0.512,0,0.768,0
				c0,0.255,0,0.511,0,0.768C61.449,103.334,61.193,103.334,60.937,103.334L60.937,103.334z M60.937,104.287
				c0-0.256,0-0.511,0-0.768c0.256,0,0.512,0,0.768,0c0,0.256,0,0.511,0,0.768C61.449,104.287,61.193,104.287,60.937,104.287
				L60.937,104.287z M64.744,107.142c0-0.256,0-0.512,0-0.768c0.256,0,0.512,0,0.768,0c0,0.256,0,0.511,0,0.768
				C65.256,107.142,65,107.142,64.744,107.142L64.744,107.142z M64.744,106.19c0-0.256,0-0.512,0-0.768c0.256,0,0.512,0,0.768,0
				c0,0.256,0,0.512,0,0.768C65.256,106.19,65,106.19,64.744,106.19L64.744,106.19z M63.792,105.238c0-0.256,0-0.512,0-0.768
				c0.255,0,0.511,0,0.768,0c0,0.255,0,0.512,0,0.768C64.304,105.238,64.048,105.238,63.792,105.238L63.792,105.238z
				 M62.841,105.238c0-0.256,0-0.512,0-0.768c0.255,0,0.51,0,0.768,0c0,0.255,0,0.512,0,0.768
				C63.352,105.238,63.097,105.238,62.841,105.238L62.841,105.238z M61.888,105.238c0-0.256,0-0.512,0-0.768
				c0.256,0,0.511,0,0.768,0c0,0.255,0,0.512,0,0.768C62.4,105.238,62.145,105.238,61.888,105.238L61.888,105.238z M60.937,106.19
				c0-0.256,0-0.512,0-0.768c0.256,0,0.512,0,0.768,0c0,0.256,0,0.512,0,0.768C61.449,106.19,61.193,106.19,60.937,106.19
				L60.937,106.19z M60.937,107.142c0-0.256,0-0.512,0-0.768c0.256,0,0.512,0,0.768,0c0,0.256,0,0.511,0,0.768
				C61.449,107.142,61.193,107.142,60.937,107.142L60.937,107.142z M61.888,108.094c0-0.256,0-0.512,0-0.769
				c0.256,0,0.511,0,0.768,0c0,0.256,0,0.513,0,0.769C62.4,108.094,62.145,108.094,61.888,108.094L61.888,108.094z M62.841,108.094
				c0-0.256,0-0.512,0-0.769c0.255,0,0.51,0,0.768,0c0,0.256,0,0.513,0,0.769C63.352,108.094,63.097,108.094,62.841,108.094
				L62.841,108.094z M63.792,108.094c0-0.256,0-0.512,0-0.769c0.255,0,0.511,0,0.768,0c0,0.256,0,0.513,0,0.769
				C64.304,108.094,64.048,108.094,63.792,108.094z"/>
			
				<radialGradient id="SVGID_25_" cx="259.0898" cy="-119.3545" r="3.9647" gradientTransform="matrix(1 0 0 -1 -183 -14.5)" gradientUnits="userSpaceOnUse">
				<stop  offset="0" style="stop-color:#608740"/>
				<stop  offset="1" style="stop-color:#002207"/>
			</radialGradient>
			<path fill="url(#SVGID_25_)" d="M77.608,104.287c0-0.256,0-0.511,0-0.768c0.256,0,0.512,0,0.768,0c0,0.256,0,0.511,0,0.768
				C78.121,104.287,77.864,104.287,77.608,104.287L77.608,104.287z M77.608,105.23c0-0.255,0-0.511,0-0.768c0.256,0,0.513,0,0.769,0
				c0,0.256,0,0.512,0,0.768C78.121,105.23,77.864,105.23,77.608,105.23L77.608,105.23z M73.802,105.23c0-0.255,0-0.511,0-0.768
				c0.256,0,0.512,0,0.769,0c0,0.256,0,0.512,0,0.768C74.314,105.23,74.058,105.23,73.802,105.23L73.802,105.23z M73.802,108.094
				c0-0.256,0-0.512,0-0.769c0.256,0,0.512,0,0.769,0c0,0.256,0,0.513,0,0.769C74.314,108.094,74.058,108.094,73.802,108.094
				L73.802,108.094z M77.608,108.094c0-0.256,0-0.512,0-0.769c0.256,0,0.513,0,0.769,0c0,0.256,0,0.513,0,0.769
				C78.121,108.094,77.864,108.094,77.608,108.094L77.608,108.094z M77.608,102.383c0-0.256,0-0.512,0-0.768
				c0.256,0,0.513,0,0.769,0c0,0.256,0,0.512,0,0.768C78.121,102.383,77.864,102.383,77.608,102.383L77.608,102.383z
				 M73.802,102.383c0-0.256,0-0.512,0-0.768c0.256,0,0.512,0,0.769,0c0,0.256,0,0.512,0,0.768
				C74.314,102.383,74.058,102.383,73.802,102.383L73.802,102.383z M77.608,103.334c0-0.256,0-0.512,0-0.768
				c0.256,0,0.512,0,0.768,0c0,0.255,0,0.511,0,0.768C78.121,103.334,77.864,103.334,77.608,103.334L77.608,103.334z
				 M76.656,102.383c0-0.256,0-0.512,0-0.768c0.255,0,0.512,0,0.768,0c0,0.256,0,0.512,0,0.768
				C77.169,102.383,76.913,102.383,76.656,102.383L76.656,102.383z M75.706,102.383c0-0.256,0-0.512,0-0.768c0.255,0,0.51,0,0.768,0
				c0,0.256,0,0.512,0,0.768C76.216,102.383,75.961,102.383,75.706,102.383L75.706,102.383z M74.752,102.383
				c0-0.256,0-0.512,0-0.768c0.257,0,0.512,0,0.769,0c0,0.256,0,0.512,0,0.768C75.264,102.383,75.009,102.383,74.752,102.383
				L74.752,102.383z M73.802,103.334c0-0.256,0-0.512,0-0.768c0.256,0,0.511,0,0.769,0c0,0.255,0,0.511,0,0.768
				C74.313,103.334,74.058,103.334,73.802,103.334L73.802,103.334z M73.802,104.287c0-0.256,0-0.511,0-0.768
				c0.256,0,0.511,0,0.769,0c0,0.256,0,0.511,0,0.768C74.313,104.287,74.058,104.287,73.802,104.287L73.802,104.287z
				 M77.608,107.142c0-0.256,0-0.512,0-0.768c0.256,0,0.512,0,0.768,0c0,0.256,0,0.511,0,0.768
				C78.121,107.142,77.864,107.142,77.608,107.142L77.608,107.142z M77.608,106.19c0-0.256,0-0.512,0-0.768c0.256,0,0.512,0,0.768,0
				c0,0.256,0,0.512,0,0.768C78.121,106.19,77.864,106.19,77.608,106.19L77.608,106.19z M76.656,105.238c0-0.256,0-0.512,0-0.768
				c0.255,0,0.512,0,0.768,0c0,0.255,0,0.512,0,0.768C77.169,105.238,76.913,105.238,76.656,105.238L76.656,105.238z
				 M75.706,105.238c0-0.256,0-0.512,0-0.768c0.255,0,0.51,0,0.768,0c0,0.255,0,0.512,0,0.768
				C76.216,105.238,75.961,105.238,75.706,105.238L75.706,105.238z M74.752,105.238c0-0.256,0-0.512,0-0.768
				c0.257,0,0.512,0,0.769,0c0,0.255,0,0.512,0,0.768C75.264,105.238,75.009,105.238,74.752,105.238L74.752,105.238z M73.802,106.19
				c0-0.256,0-0.512,0-0.768c0.256,0,0.511,0,0.769,0c0,0.256,0,0.512,0,0.768C74.313,106.19,74.058,106.19,73.802,106.19
				L73.802,106.19z M73.802,107.142c0-0.256,0-0.512,0-0.768c0.256,0,0.511,0,0.769,0c0,0.256,0,0.511,0,0.768
				C74.313,107.142,74.058,107.142,73.802,107.142L73.802,107.142z M74.752,108.094c0-0.256,0-0.512,0-0.769
				c0.257,0,0.512,0,0.769,0c0,0.256,0,0.513,0,0.769C75.264,108.094,75.009,108.094,74.752,108.094L74.752,108.094z
				 M75.706,108.094c0-0.256,0-0.512,0-0.769c0.255,0,0.51,0,0.768,0c0,0.256,0,0.513,0,0.769
				C76.216,108.094,75.961,108.094,75.706,108.094L75.706,108.094z M76.656,108.094c0-0.256,0-0.512,0-0.769
				c0.255,0,0.512,0,0.768,0c0,0.256,0,0.513,0,0.769C77.169,108.094,76.913,108.094,76.656,108.094z"/>
			<path fill="#B7D433" d="M72.39,104.287c0-0.256,0-0.511,0-0.768c0.256,0,0.511,0,0.768,0c0,0.256,0,0.511,0,0.768
				C72.901,104.287,72.646,104.287,72.39,104.287L72.39,104.287z M72.39,105.23c0-0.255,0-0.511,0-0.768c0.256,0,0.511,0,0.768,0
				c0,0.256,0,0.512,0,0.768C72.901,105.23,72.646,105.23,72.39,105.23L72.39,105.23z M68.582,105.23c0-0.255,0-0.511,0-0.768
				c0.256,0,0.513,0,0.769,0c0,0.256,0,0.512,0,0.768C69.095,105.23,68.839,105.23,68.582,105.23L68.582,105.23z M68.582,108.094
				c0-0.256,0-0.512,0-0.769c0.256,0,0.513,0,0.769,0c0,0.256,0,0.513,0,0.769C69.095,108.094,68.839,108.094,68.582,108.094
				L68.582,108.094z M72.39,108.094c0-0.256,0-0.512,0-0.769c0.256,0,0.511,0,0.768,0c0,0.256,0,0.513,0,0.769
				C72.901,108.094,72.646,108.094,72.39,108.094L72.39,108.094z M72.39,102.383c0-0.256,0-0.512,0-0.768c0.256,0,0.511,0,0.768,0
				c0,0.256,0,0.512,0,0.768C72.901,102.383,72.646,102.383,72.39,102.383L72.39,102.383z M68.582,102.383c0-0.256,0-0.512,0-0.768
				c0.256,0,0.513,0,0.769,0c0,0.256,0,0.512,0,0.768C69.095,102.383,68.839,102.383,68.582,102.383L68.582,102.383z M72.39,103.334
				c0-0.256,0-0.512,0-0.768c0.256,0,0.511,0,0.768,0c0,0.255,0,0.511,0,0.768C72.901,103.334,72.646,103.334,72.39,103.334
				L72.39,103.334z M71.438,102.383c0-0.256,0-0.512,0-0.768c0.256,0,0.511,0,0.767,0c0,0.256,0,0.512,0,0.768
				C71.949,102.383,71.693,102.383,71.438,102.383L71.438,102.383z M70.486,102.383c0-0.256,0-0.512,0-0.768
				c0.255,0,0.511,0,0.768,0c0,0.256,0,0.512,0,0.768C70.997,102.383,70.742,102.383,70.486,102.383L70.486,102.383z
				 M69.534,102.383c0-0.256,0-0.512,0-0.768c0.255,0,0.511,0,0.768,0c0,0.256,0,0.512,0,0.768
				C70.045,102.383,69.789,102.383,69.534,102.383L69.534,102.383z M71.438,105.238c0-0.256,0-0.512,0-0.768
				c0.256,0,0.511,0,0.767,0c0,0.255,0,0.512,0,0.768C71.949,105.238,71.693,105.238,71.438,105.238L71.438,105.238z
				 M70.486,105.238c0-0.256,0-0.512,0-0.768c0.255,0,0.511,0,0.768,0c0,0.255,0,0.512,0,0.768
				C70.997,105.238,70.742,105.238,70.486,105.238L70.486,105.238z M69.534,105.238c0-0.256,0-0.512,0-0.768
				c0.255,0,0.511,0,0.768,0c0,0.255,0,0.512,0,0.768C70.045,105.238,69.789,105.238,69.534,105.238L69.534,105.238z M68.582,106.19
				c0-0.256,0-0.512,0-0.768c0.256,0,0.512,0,0.769,0c0,0.256,0,0.512,0,0.768C69.094,106.19,68.839,106.19,68.582,106.19
				L68.582,106.19z M68.582,107.142c0-0.256,0-0.512,0-0.768c0.256,0,0.512,0,0.769,0c0,0.256,0,0.511,0,0.768
				C69.094,107.142,68.839,107.142,68.582,107.142L68.582,107.142z M69.534,108.094c0-0.256,0-0.512,0-0.769
				c0.255,0,0.511,0,0.768,0c0,0.256,0,0.513,0,0.769C70.045,108.094,69.789,108.094,69.534,108.094L69.534,108.094z
				 M70.486,108.094c0-0.256,0-0.512,0-0.769c0.255,0,0.511,0,0.768,0c0,0.256,0,0.513,0,0.769
				C70.997,108.094,70.742,108.094,70.486,108.094L70.486,108.094z M71.438,108.094c0-0.256,0-0.512,0-0.769
				c0.256,0,0.511,0,0.767,0c0,0.256,0,0.513,0,0.769C71.949,108.094,71.693,108.094,71.438,108.094z"/>
			<path fill="#B7D433" d="M59.525,104.287c0-0.256,0-0.511,0-0.768c0.255,0,0.511,0,0.768,0c0,0.256,0,0.511,0,0.768
				C60.037,104.287,59.781,104.287,59.525,104.287L59.525,104.287z M59.525,105.23c0-0.255,0-0.511,0-0.768c0.255,0,0.511,0,0.768,0
				c0,0.256,0,0.512,0,0.768C60.037,105.23,59.781,105.23,59.525,105.23L59.525,105.23z M55.717,105.23c0-0.255,0-0.511,0-0.768
				c0.256,0,0.512,0,0.768,0c0,0.256,0,0.512,0,0.768C56.23,105.23,55.975,105.23,55.717,105.23L55.717,105.23z M55.717,108.094
				c0-0.256,0-0.512,0-0.769c0.256,0,0.512,0,0.768,0c0,0.256,0,0.513,0,0.769C56.23,108.094,55.975,108.094,55.717,108.094
				L55.717,108.094z M59.525,108.094c0-0.256,0-0.512,0-0.769c0.255,0,0.511,0,0.768,0c0,0.256,0,0.513,0,0.769
				C60.037,108.094,59.781,108.094,59.525,108.094L59.525,108.094z M59.525,102.383c0-0.256,0-0.512,0-0.768
				c0.255,0,0.511,0,0.768,0c0,0.256,0,0.512,0,0.768C60.037,102.383,59.781,102.383,59.525,102.383L59.525,102.383z
				 M55.717,102.383c0-0.256,0-0.512,0-0.768c0.256,0,0.512,0,0.768,0c0,0.256,0,0.512,0,0.768
				C56.23,102.383,55.975,102.383,55.717,102.383L55.717,102.383z M59.525,103.334c0-0.256,0-0.512,0-0.768c0.255,0,0.511,0,0.768,0
				c0,0.255,0,0.511,0,0.768C60.037,103.334,59.781,103.334,59.525,103.334L59.525,103.334z M58.573,102.383
				c0-0.256,0-0.512,0-0.768c0.255,0,0.511,0,0.768,0c0,0.256,0,0.512,0,0.768C59.084,102.383,58.829,102.383,58.573,102.383
				L58.573,102.383z M57.621,102.383c0-0.256,0-0.512,0-0.768c0.257,0,0.512,0,0.768,0c0,0.256,0,0.512,0,0.768
				C58.133,102.383,57.877,102.383,57.621,102.383L57.621,102.383z M56.669,102.383c0-0.256,0-0.512,0-0.768
				c0.256,0,0.512,0,0.768,0c0,0.256,0,0.512,0,0.768C57.181,102.383,56.925,102.383,56.669,102.383L56.669,102.383z
				 M59.525,107.142c0-0.256,0-0.512,0-0.768c0.255,0,0.511,0,0.768,0c0,0.256,0,0.511,0,0.768
				C60.037,107.142,59.781,107.142,59.525,107.142L59.525,107.142z M59.525,106.19c0-0.256,0-0.512,0-0.768c0.255,0,0.511,0,0.768,0
				c0,0.256,0,0.512,0,0.768C60.037,106.19,59.781,106.19,59.525,106.19L59.525,106.19z M58.573,105.238c0-0.256,0-0.512,0-0.768
				c0.255,0,0.511,0,0.768,0c0,0.255,0,0.512,0,0.768C59.084,105.238,58.829,105.238,58.573,105.238L58.573,105.238z
				 M57.621,105.238c0-0.256,0-0.512,0-0.768c0.257,0,0.512,0,0.768,0c0,0.255,0,0.512,0,0.768
				C58.133,105.238,57.877,105.238,57.621,105.238L57.621,105.238z M56.669,105.238c0-0.256,0-0.512,0-0.768
				c0.256,0,0.512,0,0.768,0c0,0.255,0,0.512,0,0.768C57.181,105.238,56.925,105.238,56.669,105.238L56.669,105.238z
				 M56.669,108.094c0-0.256,0-0.512,0-0.769c0.256,0,0.512,0,0.768,0c0,0.256,0,0.513,0,0.769
				C57.181,108.094,56.925,108.094,56.669,108.094L56.669,108.094z M57.621,108.094c0-0.256,0-0.512,0-0.769
				c0.257,0,0.512,0,0.768,0c0,0.256,0,0.513,0,0.769C58.133,108.094,57.877,108.094,57.621,108.094L57.621,108.094z
				 M58.573,108.094c0-0.256,0-0.512,0-0.769c0.255,0,0.511,0,0.768,0c0,0.256,0,0.513,0,0.769
				C59.084,108.094,58.829,108.094,58.573,108.094z"/>
			<path fill="#B7D433" d="M77.608,104.287c0-0.256,0-0.511,0-0.768c0.256,0,0.512,0,0.768,0c0,0.256,0,0.511,0,0.768
				C78.121,104.287,77.864,104.287,77.608,104.287L77.608,104.287z M77.608,105.23c0-0.255,0-0.511,0-0.768c0.256,0,0.513,0,0.769,0
				c0,0.256,0,0.512,0,0.768C78.121,105.23,77.864,105.23,77.608,105.23L77.608,105.23z M77.608,108.094c0-0.256,0-0.512,0-0.769
				c0.256,0,0.513,0,0.769,0c0,0.256,0,0.513,0,0.769C78.121,108.094,77.864,108.094,77.608,108.094L77.608,108.094z
				 M77.608,102.383c0-0.256,0-0.512,0-0.768c0.256,0,0.513,0,0.769,0c0,0.256,0,0.512,0,0.768
				C78.121,102.383,77.864,102.383,77.608,102.383L77.608,102.383z M73.802,102.383c0-0.256,0-0.512,0-0.768
				c0.256,0,0.512,0,0.769,0c0,0.256,0,0.512,0,0.768C74.314,102.383,74.058,102.383,73.802,102.383L73.802,102.383z
				 M77.608,103.334c0-0.256,0-0.512,0-0.768c0.256,0,0.512,0,0.768,0c0,0.255,0,0.511,0,0.768
				C78.121,103.334,77.864,103.334,77.608,103.334L77.608,103.334z M76.656,102.383c0-0.256,0-0.512,0-0.768
				c0.255,0,0.512,0,0.768,0c0,0.256,0,0.512,0,0.768C77.169,102.383,76.913,102.383,76.656,102.383L76.656,102.383z
				 M75.706,102.383c0-0.256,0-0.512,0-0.768c0.255,0,0.51,0,0.768,0c0,0.256,0,0.512,0,0.768
				C76.216,102.383,75.961,102.383,75.706,102.383L75.706,102.383z M74.752,102.383c0-0.256,0-0.512,0-0.768
				c0.257,0,0.512,0,0.769,0c0,0.256,0,0.512,0,0.768C75.264,102.383,75.009,102.383,74.752,102.383L74.752,102.383z
				 M77.608,107.142c0-0.256,0-0.512,0-0.768c0.256,0,0.512,0,0.768,0c0,0.256,0,0.511,0,0.768
				C78.121,107.142,77.864,107.142,77.608,107.142L77.608,107.142z M77.608,106.19c0-0.256,0-0.512,0-0.768c0.256,0,0.512,0,0.768,0
				c0,0.256,0,0.512,0,0.768C78.121,106.19,77.864,106.19,77.608,106.19z"/>
			<path fill="#B7D433" d="M64.744,104.287c0-0.256,0-0.511,0-0.768c0.256,0,0.512,0,0.768,0c0,0.256,0,0.511,0,0.768
				C65.256,104.287,65,104.287,64.744,104.287L64.744,104.287z M64.744,105.23c0-0.255,0-0.511,0-0.768c0.256,0,0.512,0,0.768,0
				c0,0.256,0,0.512,0,0.768C65.256,105.23,65,105.23,64.744,105.23L64.744,105.23z M64.744,108.094c0-0.256,0-0.512,0-0.769
				c0.256,0,0.512,0,0.768,0c0,0.256,0,0.513,0,0.769C65.256,108.094,65,108.094,64.744,108.094L64.744,108.094z M64.744,102.383
				c0-0.256,0-0.512,0-0.768c0.256,0,0.512,0,0.768,0c0,0.256,0,0.512,0,0.768C65.256,102.383,65,102.383,64.744,102.383
				L64.744,102.383z M64.744,103.334c0-0.256,0-0.512,0-0.768c0.256,0,0.512,0,0.768,0c0,0.255,0,0.511,0,0.768
				C65.256,103.334,65,103.334,64.744,103.334L64.744,103.334z M63.792,102.383c0-0.256,0-0.512,0-0.768c0.255,0,0.511,0,0.768,0
				c0,0.256,0,0.512,0,0.768C64.304,102.383,64.048,102.383,63.792,102.383L63.792,102.383z M64.744,107.142
				c0-0.256,0-0.512,0-0.768c0.256,0,0.512,0,0.768,0c0,0.256,0,0.511,0,0.768C65.256,107.142,65,107.142,64.744,107.142
				L64.744,107.142z M64.744,106.19c0-0.256,0-0.512,0-0.768c0.256,0,0.512,0,0.768,0c0,0.256,0,0.512,0,0.768
				C65.256,106.19,65,106.19,64.744,106.19z"/>
			<path fill="#B7D433" d="M66.641,104.287c0-0.256,0-0.511,0-0.768c0.256,0,0.512,0,0.768,0c0,0.256,0,0.511,0,0.768
				C67.152,104.287,66.896,104.287,66.641,104.287L66.641,104.287z M66.627,107.142c0-0.256,0-0.512,0-0.768
				c0.257,0,0.512,0,0.768,0c0,0.256,0,0.512,0,0.768C67.139,107.142,66.884,107.142,66.627,107.142z"/>
			<path fill="#FFFFFF" d="M52.882,99.222h27.465c0.186,0,0.336,0.153,0.336,0.341v0.21c0-0.187-0.151-0.34-0.336-0.34H52.882
				c-0.186,0-0.337,0.153-0.337,0.34v-0.21C52.545,99.375,52.696,99.222,52.882,99.222z"/>
			
				<linearGradient id="SVGID_26_" gradientUnits="userSpaceOnUse" x1="249.6064" y1="-120.8604" x2="249.6064" y2="-104.8026" gradientTransform="matrix(1 0 0 -1 -183 -14.5)">
				<stop  offset="0" style="stop-color:#000000"/>
				<stop  offset="1" style="stop-color:#FFFFFF"/>
			</linearGradient>
			<path fill="url(#SVGID_26_)" d="M54.385,100.36h24.442c0.13,0,0.236,0.106,0.236,0.236v0.263c0-0.129-0.106-0.236-0.236-0.236
				H54.385c-0.129,0-0.236,0.107-0.236,0.236v-0.263C54.149,100.467,54.256,100.36,54.385,100.36z"/>
			
				<linearGradient id="SVGID_27_" gradientUnits="userSpaceOnUse" x1="249.6055" y1="-122.6816" x2="249.6055" y2="-124.0771" gradientTransform="matrix(1 0 0 -1 -183 -14.5)">
				<stop  offset="0" style="stop-color:#000000"/>
				<stop  offset="1" style="stop-color:#2F653B"/>
			</linearGradient>
			<path fill="url(#SVGID_27_)" d="M54.385,109.322h24.442c0.13,0,0.236-0.106,0.236-0.236v-0.263c0,0.129-0.106,0.235-0.236,0.235
				H54.385c-0.129,0-0.236-0.106-0.236-0.235v0.263C54.149,109.216,54.256,109.322,54.385,109.322z"/>
		</g>
		<g>
			<path fill="#0D68AA" d="M30.116,161.318c0.688,0,1.266,0.116,1.734,0.346c0.469,0.232,0.846,0.535,1.134,0.91
				c0.287,0.375,0.493,0.803,0.618,1.284s0.188,0.973,0.188,1.472c0,0.688-0.103,1.289-0.31,1.801
				c-0.206,0.513-0.494,0.932-0.862,1.257c-0.369,0.325-0.816,0.568-1.341,0.731c-0.525,0.162-1.106,0.243-1.744,0.243H28.09v5.345
				h-2.7v-13.388L30.116,161.318L30.116,161.318z M29.291,167.374c0.537,0,0.972-0.163,1.303-0.487
				c0.331-0.324,0.497-0.831,0.497-1.519c0-0.675-0.144-1.188-0.431-1.538c-0.288-0.35-0.768-0.525-1.444-0.525H28.09v4.069H29.291z
				"/>
			<path fill="#0D68AA" d="M37.522,164.617v1.351h0.038c0.263-0.487,0.581-0.878,0.956-1.172c0.375-0.293,0.831-0.44,1.369-0.44
				c0.075,0,0.153,0.003,0.234,0.01c0.081,0.006,0.159,0.016,0.234,0.027v2.476c-0.138-0.013-0.272-0.021-0.404-0.028
				c-0.131-0.006-0.266-0.01-0.403-0.01c-0.225,0-0.45,0.032-0.675,0.094c-0.225,0.063-0.431,0.166-0.619,0.31
				s-0.337,0.331-0.45,0.563c-0.112,0.231-0.169,0.515-0.169,0.853v6.056h-2.587v-10.088L37.522,164.617L37.522,164.617z"/>
			<path fill="#0D68AA" d="M41.159,167.374c0.138-0.663,0.363-1.215,0.675-1.659c0.313-0.443,0.722-0.781,1.228-1.012
				c0.507-0.232,1.128-0.348,1.865-0.348c0.775-0.013,1.419,0.091,1.932,0.31c0.512,0.219,0.918,0.553,1.218,1.002
				c0.3,0.45,0.512,1.007,0.638,1.669c0.125,0.663,0.188,1.438,0.188,2.325c0,0.863-0.068,1.626-0.206,2.288
				c-0.138,0.662-0.363,1.216-0.675,1.658c-0.313,0.445-0.722,0.772-1.229,0.985c-0.506,0.213-1.128,0.319-1.865,0.319
				c-0.774,0.012-1.419-0.085-1.931-0.292c-0.513-0.205-0.919-0.53-1.219-0.975c-0.3-0.443-0.513-1.001-0.638-1.67
				c-0.125-0.667-0.188-1.44-0.188-2.314C40.953,168.799,41.021,168.037,41.159,167.374z M43.578,171.086
				c0.025,0.438,0.084,0.813,0.178,1.125c0.094,0.313,0.234,0.557,0.422,0.731c0.188,0.176,0.437,0.263,0.75,0.263
				c0.525,0,0.888-0.274,1.088-0.825c0.199-0.55,0.299-1.455,0.299-2.719c0-1.262-0.1-2.168-0.299-2.718
				c-0.2-0.551-0.563-0.826-1.088-0.826c-0.313,0-0.562,0.088-0.75,0.263c-0.188,0.176-0.328,0.419-0.422,0.731
				c-0.093,0.313-0.153,0.688-0.178,1.125c-0.025,0.438-0.038,0.913-0.038,1.425C43.541,170.174,43.553,170.648,43.578,171.086z"/>
			<path fill="#0D68AA" d="M52.766,164.617v1.182h0.038c0.274-0.499,0.631-0.865,1.069-1.096c0.437-0.232,0.938-0.348,1.5-0.348
				c0.825,0,1.459,0.225,1.903,0.675c0.444,0.45,0.666,1.182,0.666,2.193v7.481h-2.587v-6.955c0-0.526-0.088-0.892-0.263-1.098
				s-0.456-0.309-0.844-0.309c-0.912,0-1.369,0.555-1.369,1.668v6.693H50.29v-10.088H52.766L52.766,164.617z"/>
			<path fill="#0D68AA" d="M59.534,167.374c0.138-0.663,0.363-1.215,0.675-1.659c0.313-0.443,0.722-0.781,1.228-1.012
				c0.507-0.232,1.128-0.348,1.866-0.348c0.774-0.013,1.419,0.091,1.931,0.31c0.512,0.219,0.919,0.553,1.219,1.002
				c0.3,0.45,0.512,1.007,0.638,1.669c0.125,0.663,0.187,1.438,0.187,2.325c0,0.863-0.068,1.626-0.205,2.288
				c-0.138,0.662-0.364,1.216-0.675,1.658c-0.313,0.445-0.722,0.772-1.229,0.985c-0.506,0.213-1.128,0.319-1.865,0.319
				c-0.775,0.012-1.419-0.085-1.931-0.292c-0.513-0.205-0.919-0.53-1.219-0.975c-0.3-0.443-0.513-1.001-0.638-1.67
				c-0.125-0.667-0.188-1.44-0.188-2.314C59.328,168.799,59.396,168.037,59.534,167.374z M61.953,171.086
				c0.025,0.438,0.084,0.813,0.178,1.125c0.093,0.313,0.234,0.557,0.422,0.731c0.187,0.176,0.438,0.263,0.75,0.263
				c0.525,0,0.887-0.274,1.087-0.825c0.2-0.55,0.299-1.455,0.299-2.719c0-1.262-0.1-2.168-0.299-2.718
				c-0.2-0.551-0.563-0.826-1.087-0.826c-0.313,0-0.563,0.088-0.75,0.263c-0.188,0.176-0.328,0.419-0.422,0.731
				c-0.094,0.313-0.153,0.688-0.178,1.125c-0.025,0.438-0.038,0.913-0.038,1.425C61.916,170.174,61.928,170.648,61.953,171.086z"/>
			<path fill="#0D68AA" d="M70.559,171.742c0,0.438,0.116,0.791,0.347,1.061c0.231,0.267,0.566,0.402,1.003,0.402
				c0.4,0,0.718-0.1,0.956-0.299c0.237-0.2,0.356-0.501,0.356-0.9c0-0.325-0.094-0.571-0.282-0.74
				c-0.187-0.17-0.406-0.304-0.656-0.404l-1.819-0.656c-0.713-0.25-1.25-0.603-1.612-1.059c-0.362-0.457-0.544-1.041-0.544-1.754
				c0-0.412,0.069-0.803,0.207-1.172c0.137-0.368,0.356-0.69,0.657-0.966c0.3-0.274,0.684-0.493,1.153-0.655
				c0.469-0.163,1.034-0.245,1.697-0.245c1.176,0,2.044,0.249,2.606,0.751c0.563,0.499,0.844,1.206,0.844,2.117v0.413h-2.325
				c0-0.525-0.084-0.909-0.253-1.152c-0.169-0.245-0.466-0.367-0.891-0.367c-0.326,0-0.609,0.092-0.853,0.273
				c-0.244,0.181-0.366,0.453-0.366,0.815c0,0.25,0.078,0.475,0.234,0.676c0.156,0.199,0.454,0.368,0.892,0.506l1.556,0.525
				c0.813,0.274,1.388,0.635,1.726,1.078c0.337,0.443,0.506,1.047,0.506,1.81c0,0.537-0.093,1.003-0.282,1.396
				c-0.187,0.394-0.446,0.722-0.778,0.984c-0.331,0.263-0.725,0.45-1.181,0.563c-0.457,0.112-0.959,0.169-1.509,0.169
				c-0.725,0-1.328-0.068-1.81-0.207c-0.481-0.137-0.862-0.343-1.144-0.618c-0.281-0.274-0.479-0.609-0.591-1.003
				s-0.168-0.834-0.168-1.322v-0.354h2.326v0.335H70.559z"/>
			<path fill="#0D68AA" d="M80.141,161.73v2.887h1.5v1.763h-1.5v5.457c0,0.4,0.059,0.684,0.177,0.853s0.366,0.253,0.741,0.253
				c0.1,0,0.2-0.003,0.3-0.01c0.101-0.007,0.194-0.015,0.282-0.028v1.8c-0.288,0-0.566,0.011-0.834,0.028
				c-0.27,0.02-0.554,0.027-0.854,0.027c-0.5,0-0.909-0.033-1.228-0.102c-0.32-0.068-0.563-0.206-0.731-0.412
				c-0.17-0.207-0.284-0.479-0.348-0.816c-0.063-0.338-0.093-0.763-0.093-1.275v-5.774h-1.313v-1.763h1.313v-2.888L80.141,161.73
				L80.141,161.73z"/>
			<path fill="#0D68AA" d="M85.221,161.168v2.212h-2.587v-2.212H85.221z M85.221,164.617v10.088h-2.587v-10.088H85.221z"/>
			<path fill="#0D68AA" d="M91.85,167.523c-0.032-0.236-0.088-0.452-0.17-0.646c-0.081-0.194-0.196-0.35-0.347-0.469
				c-0.15-0.118-0.351-0.178-0.6-0.178c-0.313,0-0.568,0.071-0.768,0.216c-0.2,0.144-0.351,0.356-0.451,0.638
				s-0.168,0.638-0.207,1.069c-0.037,0.431-0.056,0.939-0.056,1.527c0,0.625,0.019,1.159,0.056,1.603
				c0.039,0.444,0.106,0.81,0.207,1.097c0.1,0.288,0.241,0.498,0.422,0.629c0.181,0.132,0.415,0.196,0.703,0.196
				c0.437,0,0.756-0.188,0.956-0.562c0.199-0.376,0.3-0.976,0.3-1.801h2.475c0,1.325-0.297,2.334-0.892,3.028
				c-0.593,0.694-1.577,1.041-2.953,1.041c-0.649,0-1.216-0.078-1.697-0.234c-0.482-0.156-0.881-0.438-1.2-0.844
				s-0.56-0.95-0.721-1.631c-0.163-0.682-0.244-1.528-0.244-2.541c0-1.038,0.099-1.896,0.299-2.578s0.481-1.225,0.845-1.631
				c0.361-0.406,0.793-0.69,1.293-0.853c0.499-0.163,1.051-0.245,1.651-0.245c1.2,0,2.103,0.352,2.709,1.051
				c0.606,0.7,0.909,1.65,0.909,2.85h-2.475C91.896,168.006,91.88,167.762,91.85,167.523z"/>
			<path fill="#0D68AA" d="M95.702,167.468c0-0.587,0.094-1.078,0.281-1.472s0.44-0.713,0.759-0.956
				c0.319-0.244,0.694-0.419,1.125-0.525c0.43-0.106,0.891-0.159,1.377-0.159c0.775,0,1.4,0.075,1.875,0.225
				c0.476,0.149,0.845,0.363,1.107,0.638c0.263,0.274,0.441,0.604,0.534,0.984c0.094,0.382,0.142,0.797,0.142,1.247v5.306
				c0,0.476,0.021,0.845,0.065,1.106c0.044,0.263,0.128,0.544,0.252,0.844h-2.474c-0.088-0.162-0.154-0.334-0.197-0.515
				c-0.044-0.182-0.085-0.359-0.122-0.534h-0.038c-0.299,0.525-0.646,0.866-1.041,1.022c-0.394,0.156-0.902,0.234-1.527,0.234
				c-0.451,0-0.832-0.078-1.144-0.234s-0.562-0.372-0.75-0.647c-0.188-0.274-0.326-0.584-0.413-0.928
				c-0.088-0.344-0.132-0.685-0.132-1.022c0-0.476,0.05-0.884,0.15-1.229c0.101-0.343,0.253-0.638,0.46-0.881
				c0.206-0.243,0.469-0.447,0.788-0.609c0.318-0.162,0.703-0.307,1.152-0.431l1.463-0.395c0.388-0.099,0.656-0.236,0.806-0.411
				c0.15-0.176,0.225-0.433,0.225-0.77c0-0.387-0.091-0.69-0.272-0.909c-0.182-0.219-0.491-0.328-0.928-0.328
				c-0.4,0-0.7,0.119-0.9,0.356s-0.3,0.557-0.3,0.956v0.281h-2.325L95.702,167.468L95.702,167.468z M99.864,169.99
				c-0.2,0.081-0.381,0.141-0.543,0.178c-0.525,0.112-0.899,0.301-1.125,0.563c-0.225,0.263-0.337,0.618-0.337,1.068
				c0,0.389,0.075,0.719,0.225,0.994c0.149,0.275,0.4,0.412,0.75,0.412c0.175,0,0.356-0.028,0.544-0.084
				c0.188-0.057,0.359-0.146,0.515-0.273c0.156-0.123,0.284-0.286,0.384-0.486c0.1-0.2,0.15-0.437,0.15-0.713v-1.987
				C100.251,169.799,100.064,169.909,99.864,169.99z"/>
			<path fill="#0D68AA" d="M107.215,164.617v1.351h0.037c0.263-0.487,0.582-0.878,0.956-1.172c0.376-0.293,0.831-0.44,1.369-0.44
				c0.075,0,0.151,0.003,0.234,0.01c0.081,0.006,0.159,0.016,0.234,0.027v2.476c-0.139-0.013-0.272-0.021-0.403-0.028
				c-0.132-0.006-0.267-0.01-0.403-0.01c-0.226,0-0.45,0.032-0.676,0.094c-0.225,0.063-0.431,0.166-0.618,0.31
				s-0.338,0.331-0.45,0.563s-0.17,0.515-0.17,0.853v6.056h-2.587v-10.088L107.215,164.617L107.215,164.617z"/>
			<path fill="#0D68AA" d="M26.225,179.617v1.031h0.038c0.325-0.462,0.69-0.794,1.097-0.993c0.406-0.2,0.891-0.3,1.453-0.3
				c0.6,0,1.104,0.138,1.509,0.412c0.406,0.274,0.678,0.675,0.816,1.2h0.038c0.2-0.537,0.521-0.94,0.965-1.21
				c0.444-0.269,0.972-0.403,1.584-0.403c0.862,0,1.497,0.26,1.903,0.778c0.406,0.52,0.61,1.266,0.61,2.24v7.331H33.65v-7.049
				c0-0.426-0.078-0.751-0.234-0.976s-0.416-0.338-0.778-0.338c-0.412,0-0.741,0.137-0.984,0.412
				c-0.245,0.275-0.366,0.713-0.366,1.313v6.637H28.7v-7.05c0-0.425-0.078-0.75-0.234-0.975s-0.416-0.338-0.778-0.338
				c-0.413,0-0.74,0.137-0.984,0.412c-0.244,0.275-0.366,0.713-0.366,1.313v6.637H23.75v-10.088L26.225,179.617L26.225,179.617z"/>
			<path fill="#0D68AA" d="M37.944,182.468c0-0.587,0.094-1.078,0.281-1.472s0.441-0.713,0.759-0.956
				c0.319-0.244,0.694-0.419,1.125-0.525c0.431-0.106,0.891-0.159,1.377-0.159c0.775,0,1.4,0.075,1.875,0.225
				c0.476,0.149,0.845,0.363,1.107,0.638c0.263,0.274,0.441,0.604,0.534,0.984c0.094,0.382,0.142,0.797,0.142,1.247v5.306
				c0,0.476,0.021,0.845,0.065,1.106c0.043,0.263,0.128,0.544,0.253,0.844h-2.476c-0.087-0.162-0.153-0.334-0.196-0.515
				c-0.043-0.182-0.085-0.359-0.122-0.534h-0.038c-0.299,0.525-0.646,0.866-1.041,1.022s-0.903,0.234-1.528,0.234
				c-0.451,0-0.831-0.078-1.144-0.234s-0.563-0.372-0.75-0.647c-0.188-0.274-0.326-0.584-0.413-0.928
				c-0.087-0.344-0.131-0.685-0.131-1.022c0-0.476,0.049-0.884,0.149-1.229c0.1-0.343,0.253-0.638,0.459-0.881
				c0.206-0.243,0.469-0.447,0.788-0.609s0.703-0.307,1.153-0.431l1.463-0.395c0.388-0.099,0.656-0.236,0.806-0.411
				c0.15-0.176,0.225-0.433,0.225-0.77c0-0.387-0.091-0.69-0.272-0.909s-0.491-0.328-0.928-0.328c-0.4,0-0.7,0.119-0.9,0.356
				s-0.299,0.557-0.299,0.956v0.281h-2.326V182.468z M42.106,184.99c-0.2,0.081-0.382,0.141-0.544,0.178
				c-0.525,0.112-0.899,0.301-1.125,0.563c-0.225,0.263-0.337,0.618-0.337,1.068c0,0.389,0.075,0.719,0.225,0.994
				c0.149,0.275,0.4,0.412,0.75,0.412c0.174,0,0.355-0.028,0.543-0.084c0.188-0.057,0.359-0.146,0.515-0.273
				c0.156-0.123,0.284-0.286,0.384-0.486s0.15-0.437,0.15-0.713v-1.987C42.494,184.799,42.306,184.909,42.106,184.99z"/>
			<path fill="#0D68AA" d="M49.456,179.617v1.351h0.038c0.263-0.487,0.582-0.878,0.956-1.172c0.375-0.293,0.831-0.44,1.369-0.44
				c0.075,0,0.152,0.003,0.234,0.01c0.081,0.006,0.159,0.016,0.234,0.027v2.476c-0.138-0.013-0.272-0.021-0.404-0.028
				c-0.131-0.006-0.266-0.01-0.403-0.01c-0.225,0-0.45,0.032-0.675,0.094c-0.225,0.063-0.431,0.166-0.619,0.31
				c-0.187,0.144-0.337,0.331-0.45,0.563s-0.169,0.515-0.169,0.853v6.056H46.98v-10.088L49.456,179.617L49.456,179.617z"/>
			<path fill="#0D68AA" d="M58.034,182.523c-0.032-0.236-0.088-0.452-0.169-0.646s-0.196-0.35-0.347-0.469
				c-0.15-0.118-0.351-0.178-0.6-0.178c-0.313,0-0.569,0.071-0.769,0.216c-0.199,0.144-0.35,0.356-0.45,0.638
				s-0.168,0.638-0.206,1.069c-0.038,0.431-0.057,0.939-0.057,1.527c0,0.625,0.019,1.159,0.057,1.603
				c0.038,0.444,0.106,0.81,0.206,1.097c0.1,0.288,0.241,0.498,0.422,0.629c0.181,0.132,0.416,0.196,0.703,0.196
				c0.438,0,0.756-0.188,0.956-0.562c0.2-0.376,0.3-0.976,0.3-1.801h2.475c0,1.325-0.297,2.334-0.892,3.028
				c-0.593,0.694-1.577,1.041-2.953,1.041c-0.65,0-1.215-0.078-1.697-0.234c-0.482-0.156-0.881-0.438-1.2-0.844
				c-0.319-0.406-0.56-0.95-0.722-1.631c-0.163-0.682-0.244-1.528-0.244-2.541c0-1.038,0.099-1.896,0.299-2.578
				s0.481-1.225,0.845-1.631c0.361-0.406,0.793-0.69,1.293-0.853c0.499-0.163,1.051-0.245,1.65-0.245c1.2,0,2.103,0.352,2.709,1.051
				c0.606,0.7,0.91,1.65,0.91,2.85h-2.476C58.082,183.006,58.065,182.762,58.034,182.523z"/>
			<path fill="#0D68AA" d="M61.887,182.468c0-0.587,0.094-1.078,0.281-1.472s0.44-0.713,0.76-0.956
				c0.319-0.244,0.693-0.419,1.125-0.525c0.43-0.106,0.891-0.159,1.377-0.159c0.775,0,1.4,0.075,1.875,0.225
				c0.476,0.149,0.844,0.363,1.107,0.638c0.262,0.274,0.44,0.604,0.534,0.984c0.094,0.382,0.141,0.797,0.141,1.247v5.306
				c0,0.476,0.021,0.845,0.065,1.106c0.043,0.263,0.128,0.544,0.252,0.844h-2.475c-0.087-0.162-0.153-0.334-0.196-0.515
				c-0.044-0.182-0.085-0.359-0.122-0.534h-0.038c-0.3,0.525-0.646,0.866-1.041,1.022c-0.394,0.156-0.902,0.234-1.527,0.234
				c-0.451,0-0.832-0.078-1.144-0.234s-0.562-0.372-0.75-0.647c-0.188-0.274-0.326-0.584-0.412-0.928
				c-0.088-0.344-0.132-0.685-0.132-1.022c0-0.476,0.05-0.884,0.15-1.229c0.1-0.343,0.253-0.638,0.459-0.881
				c0.206-0.243,0.469-0.447,0.788-0.609c0.318-0.162,0.703-0.307,1.153-0.431l1.463-0.395c0.387-0.099,0.656-0.236,0.806-0.411
				c0.15-0.176,0.225-0.433,0.225-0.77c0-0.387-0.091-0.69-0.272-0.909c-0.181-0.219-0.491-0.328-0.927-0.328
				c-0.401,0-0.7,0.119-0.9,0.356c-0.2,0.237-0.299,0.557-0.299,0.956v0.281h-2.326L61.887,182.468L61.887,182.468z M66.049,184.99
				c-0.2,0.081-0.381,0.141-0.543,0.178c-0.525,0.112-0.899,0.301-1.125,0.563c-0.224,0.263-0.337,0.618-0.337,1.068
				c0,0.389,0.075,0.719,0.225,0.994s0.4,0.412,0.75,0.412c0.174,0,0.356-0.028,0.544-0.084c0.188-0.057,0.359-0.146,0.515-0.273
				c0.156-0.123,0.284-0.286,0.384-0.486c0.101-0.2,0.15-0.437,0.15-0.713v-1.987C66.437,184.799,66.25,184.909,66.049,184.99z"/>
			<path fill="#0D68AA" d="M76.062,188.637c-0.288,0.476-0.61,0.807-0.966,0.994c-0.355,0.188-0.796,0.281-1.321,0.281
				c-1.063,0-1.845-0.406-2.344-1.219c-0.5-0.813-0.75-2.156-0.75-4.031s0.25-3.228,0.75-4.059c0.499-0.832,1.281-1.248,2.344-1.248
				c0.487,0,0.902,0.101,1.246,0.3c0.344,0.2,0.653,0.501,0.928,0.899h0.039v-4.236h2.587v13.387h-2.475v-1.068H76.062
				L76.062,188.637z M73.521,187.146c0.169,0.557,0.534,0.835,1.097,0.835c0.575,0,0.947-0.278,1.115-0.835
				c0.169-0.556,0.253-1.384,0.253-2.484c0-1.1-0.084-1.927-0.253-2.483c-0.169-0.557-0.541-0.836-1.115-0.836
				c-0.563,0-0.928,0.279-1.097,0.836c-0.169,0.557-0.253,1.384-0.253,2.483C73.268,185.762,73.352,186.59,73.521,187.146z"/>
			<path fill="#0D68AA" d="M80.168,182.374c0.137-0.663,0.363-1.215,0.675-1.659c0.313-0.443,0.721-0.781,1.228-1.012
				c0.507-0.232,1.128-0.348,1.865-0.348c0.775-0.013,1.419,0.091,1.932,0.31c0.512,0.219,0.919,0.553,1.219,1.002
				c0.3,0.45,0.512,1.007,0.638,1.669c0.125,0.663,0.188,1.438,0.188,2.325c0,0.863-0.068,1.626-0.206,2.288
				s-0.363,1.216-0.675,1.658c-0.313,0.445-0.722,0.772-1.229,0.985c-0.506,0.213-1.129,0.319-1.865,0.319
				c-0.774,0.012-1.419-0.085-1.931-0.292c-0.512-0.205-0.919-0.53-1.219-0.975c-0.3-0.443-0.513-1.001-0.638-1.67
				c-0.125-0.667-0.188-1.44-0.188-2.314C79.961,183.799,80.03,183.037,80.168,182.374z M82.587,186.086
				c0.025,0.438,0.084,0.813,0.178,1.125s0.234,0.557,0.423,0.731c0.187,0.176,0.437,0.263,0.749,0.263
				c0.525,0,0.888-0.274,1.088-0.825c0.199-0.55,0.299-1.455,0.299-2.719c0-1.262-0.1-2.168-0.299-2.718
				c-0.2-0.551-0.563-0.826-1.088-0.826c-0.313,0-0.563,0.088-0.749,0.263c-0.188,0.176-0.329,0.419-0.423,0.731
				c-0.094,0.313-0.152,0.688-0.178,1.125c-0.024,0.438-0.038,0.913-0.038,1.425C82.549,185.174,82.563,185.648,82.587,186.086z"/>
			<path fill="#0D68AA" d="M91.774,179.617v1.351h0.038c0.263-0.487,0.581-0.878,0.956-1.172c0.375-0.293,0.831-0.44,1.368-0.44
				c0.075,0,0.153,0.003,0.234,0.01c0.082,0.006,0.16,0.016,0.234,0.027v2.476c-0.138-0.013-0.272-0.021-0.404-0.028
				c-0.13-0.006-0.266-0.01-0.403-0.01c-0.225,0-0.45,0.032-0.675,0.094c-0.225,0.063-0.431,0.166-0.619,0.31
				c-0.188,0.144-0.337,0.331-0.45,0.563c-0.113,0.231-0.169,0.515-0.169,0.853v6.056h-2.588v-10.088L91.774,179.617L91.774,179.617
				z"/>
			<path fill="#0D68AA" d="M97.755,185.861c0,0.301,0.022,0.591,0.066,0.873c0.042,0.28,0.115,0.531,0.215,0.749
				c0.1,0.219,0.231,0.395,0.394,0.525c0.163,0.132,0.363,0.196,0.6,0.196c0.438,0,0.756-0.156,0.956-0.469
				c0.199-0.313,0.337-0.787,0.413-1.425h2.324c-0.05,1.176-0.363,2.069-0.938,2.681c-0.575,0.613-1.481,0.92-2.719,0.92
				c-0.938,0-1.669-0.156-2.194-0.469s-0.912-0.726-1.161-1.237c-0.25-0.513-0.404-1.088-0.46-1.726
				c-0.055-0.638-0.084-1.274-0.084-1.913c0-0.674,0.048-1.324,0.141-1.949s0.282-1.182,0.562-1.669
				c0.282-0.487,0.685-0.875,1.21-1.162c0.525-0.288,1.225-0.432,2.1-0.432c0.751,0,1.366,0.121,1.847,0.366
				c0.482,0.243,0.859,0.587,1.134,1.031c0.275,0.442,0.462,0.981,0.563,1.612c0.1,0.632,0.15,1.335,0.15,2.109v0.582h-5.119
				L97.755,185.861L97.755,185.861z M100.325,182.496c-0.039-0.295-0.104-0.543-0.197-0.75c-0.093-0.206-0.224-0.362-0.394-0.469
				c-0.168-0.105-0.384-0.16-0.647-0.16s-0.479,0.061-0.647,0.179s-0.303,0.274-0.403,0.469s-0.172,0.409-0.216,0.647
				c-0.044,0.236-0.065,0.475-0.065,0.713v0.393h2.644C100.386,183.131,100.361,182.79,100.325,182.496z"/>
			<path fill="#0D68AA" d="M106.118,186.742c0,0.438,0.116,0.791,0.347,1.061c0.231,0.267,0.565,0.402,1.004,0.402
				c0.399,0,0.717-0.1,0.955-0.299c0.237-0.2,0.356-0.501,0.356-0.9c0-0.325-0.094-0.571-0.282-0.74
				c-0.187-0.17-0.404-0.304-0.655-0.404l-1.818-0.656c-0.713-0.25-1.25-0.603-1.613-1.059c-0.363-0.457-0.544-1.041-0.544-1.754
				c0-0.412,0.069-0.803,0.206-1.172c0.138-0.368,0.356-0.69,0.657-0.966c0.299-0.274,0.685-0.493,1.153-0.655
				c0.469-0.163,1.034-0.245,1.696-0.245c1.176,0,2.044,0.249,2.606,0.751c0.563,0.499,0.844,1.206,0.844,2.117v0.413h-2.324
				c0-0.525-0.085-0.909-0.254-1.152c-0.169-0.245-0.465-0.367-0.89-0.367c-0.326,0-0.61,0.092-0.854,0.273
				c-0.244,0.181-0.366,0.453-0.366,0.815c0,0.25,0.078,0.475,0.234,0.676c0.156,0.199,0.454,0.368,0.892,0.506l1.556,0.525
				c0.812,0.274,1.388,0.635,1.726,1.078s0.506,1.047,0.506,1.81c0,0.537-0.093,1.003-0.28,1.396
				c-0.188,0.394-0.447,0.722-0.779,0.984c-0.33,0.263-0.725,0.45-1.181,0.563s-0.959,0.169-1.51,0.169
				c-0.725,0-1.328-0.068-1.809-0.207c-0.482-0.137-0.863-0.343-1.144-0.618c-0.281-0.274-0.479-0.609-0.591-1.003
				s-0.168-0.834-0.168-1.322v-0.354h2.325L106.118,186.742L106.118,186.742z"/>
		</g>
	</g>
</g>
</svg>
