<?xml version="1.0" encoding="utf-8"?>
<!-- Generator: Adobe Illustrator 16.0.0, SVG Export Plug-In . SVG Version: 6.00 Build 0)  -->
<!DOCTYPE svg PUBLIC "-//W3C//DTD SVG 1.1//EN" "http://www.w3.org/Graphics/SVG/1.1/DTD/svg11.dtd">
<svg version="1.1" xmlns="http://www.w3.org/2000/svg" xmlns:xlink="http://www.w3.org/1999/xlink" x="0px" y="0px" width="212px"
	 height="212px" viewBox="0 0 212 212" enable-background="new 0 0 212 212" xml:space="preserve">
<g id="Layer_2_1_">
	<rect fill="#FFFFFF" width="212" height="212"/>
</g>
<g id="Layer_1">
	<g id="Layer_2">
		<g>
			<g>
				<g>
					<path fill="#FFFFFF" d="M54.582,118.951c19.313,0,85.396,0,104.707,0c0.174,0,0.32-0.04,0.387-0.104s0.032-0.135-0.089-0.185
						l-11.192-4.563c-0.026-0.011-0.061-0.017-0.1-0.017c-11.982,0-70.735,0-82.718,0c-0.038,0-0.072,0.006-0.099,0.017
						l-11.193,4.563c-0.121,0.05-0.154,0.12-0.089,0.185C54.263,118.911,54.41,118.951,54.582,118.951z"/>
					<path fill="#F3F4F5" d="M54.727,118.932c19.208,0,85.186,0,104.392,0c0.173,0,0.318-0.041,0.385-0.104
						c0.064-0.063,0.032-0.134-0.089-0.183l-11.131-4.537c-0.027-0.01-0.062-0.017-0.101-0.017c-11.916,0-70.604,0-82.521,0
						c-0.038,0-0.072,0.007-0.098,0.017l-11.132,4.537c-0.121,0.049-0.154,0.119-0.088,0.183
						C54.409,118.891,54.556,118.932,54.727,118.932z"/>
					<path fill="#EBECEE" d="M54.872,118.91c19.102,0,84.974,0,104.076,0c0.172,0,0.315-0.04,0.383-0.104
						c0.065-0.063,0.03-0.133-0.088-0.183l-11.07-4.508c-0.026-0.011-0.062-0.017-0.099-0.017c-11.854,0-70.475,0-82.326,0
						c-0.038,0-0.072,0.006-0.098,0.017l-11.072,4.508c-0.12,0.05-0.153,0.119-0.088,0.183
						C54.556,118.87,54.701,118.91,54.872,118.91z"/>
					<path fill="#E3E4E7" d="M55.016,118.891c18.997,0,84.763,0,103.759,0c0.172,0,0.315-0.039,0.382-0.104
						c0.065-0.063,0.03-0.133-0.089-0.182l-11.01-4.479c-0.025-0.011-0.06-0.017-0.098-0.017c-11.786,0-70.344,0-82.13,0
						c-0.038,0-0.071,0.006-0.097,0.017l-11.01,4.479c-0.119,0.049-0.152,0.119-0.087,0.182
						C54.702,118.852,54.847,118.891,55.016,118.891z"/>
					<path fill="#DBDDE1" d="M55.161,118.869c18.892,0,84.554,0,103.444,0c0.17,0,0.313-0.039,0.379-0.102
						c0.063-0.063,0.031-0.131-0.088-0.181l-10.949-4.453c-0.025-0.011-0.059-0.017-0.096-0.017c-11.723,0-70.214,0-81.936,0
						c-0.038,0-0.071,0.006-0.097,0.017l-10.95,4.453c-0.118,0.05-0.151,0.117-0.087,0.181
						C54.849,118.83,54.993,118.869,55.161,118.869z"/>
					<path fill="#D3D6DB" d="M55.306,118.85c18.787,0,84.344,0,103.129,0c0.168,0,0.312-0.039,0.377-0.103
						c0.063-0.062,0.029-0.13-0.088-0.179l-10.888-4.426c-0.026-0.011-0.06-0.017-0.097-0.017c-11.656,0-70.083,0-81.739,0
						c-0.037,0-0.07,0.006-0.096,0.017l-10.889,4.426c-0.118,0.049-0.15,0.117-0.086,0.179
						C54.995,118.811,55.138,118.85,55.306,118.85z"/>
					<path fill="#CBD0D6" d="M55.45,118.828c18.682,0,84.134,0,102.813,0c0.168,0,0.311-0.039,0.375-0.102
						c0.063-0.062,0.029-0.129-0.087-0.177l-10.827-4.397c-0.025-0.012-0.059-0.018-0.097-0.018c-11.591,0-69.952,0-81.543,0
						c-0.037,0-0.069,0.006-0.096,0.018l-10.827,4.397c-0.117,0.048-0.149,0.115-0.086,0.177
						C55.141,118.789,55.284,118.828,55.45,118.828z"/>
					<path fill="#C4C9D0" d="M55.595,118.809c18.576,0,83.922,0,102.499,0c0.166,0,0.309-0.039,0.372-0.102
						c0.063-0.061,0.03-0.128-0.086-0.176l-10.767-4.37c-0.025-0.011-0.059-0.017-0.096-0.017c-11.525,0-69.822,0-81.348,0
						c-0.037,0-0.069,0.006-0.095,0.017l-10.767,4.37c-0.116,0.048-0.148,0.115-0.085,0.176
						C55.288,118.77,55.43,118.809,55.595,118.809z"/>
					<path fill="#BDC3CB" d="M55.74,118.787c18.471,0,83.712,0,102.183,0c0.165,0,0.306-0.038,0.37-0.1
						c0.063-0.062,0.029-0.129-0.086-0.176l-10.705-4.343c-0.025-0.01-0.059-0.017-0.095-0.017c-11.46,0-69.691,0-81.151,0
						c-0.037,0-0.069,0.007-0.095,0.017l-10.706,4.343c-0.116,0.047-0.148,0.114-0.085,0.176
						C55.434,118.748,55.575,118.787,55.74,118.787z"/>
					<path fill="#B6BDC6" d="M55.884,118.766c18.366,0,83.503,0,101.868,0c0.164,0,0.305-0.037,0.367-0.098s0.029-0.128-0.084-0.174
						l-10.645-4.314c-0.027-0.011-0.059-0.017-0.096-0.017c-11.395,0-69.56,0-80.955,0c-0.037,0-0.068,0.006-0.094,0.017
						l-10.645,4.314c-0.115,0.046-0.147,0.113-0.084,0.174S55.721,118.766,55.884,118.766z"/>
					<path fill="#AFB7C1" d="M56.029,118.745c18.261,0,83.292,0,101.552,0c0.163,0,0.302-0.037,0.364-0.099
						c0.063-0.06,0.031-0.125-0.084-0.172l-10.582-4.287c-0.026-0.011-0.059-0.017-0.094-0.017c-11.33,0-69.431,0-80.761,0
						c-0.037,0-0.068,0.006-0.094,0.017l-10.584,4.287c-0.114,0.047-0.146,0.112-0.084,0.172
						C55.727,118.708,55.866,118.745,56.029,118.745z"/>
					<path fill="#A8B1BC" d="M56.174,118.725c18.156,0,83.081,0,101.236,0c0.162,0,0.301-0.037,0.363-0.097
						c0.062-0.06,0.029-0.126-0.084-0.172l-10.522-4.261c-0.024-0.01-0.058-0.016-0.093-0.016c-11.266,0-69.299,0-80.564,0
						c-0.036,0-0.067,0.006-0.093,0.016l-10.522,4.261c-0.114,0.046-0.146,0.112-0.083,0.172
						C55.874,118.688,56.012,118.725,56.174,118.725z"/>
					<path fill="#A1ACB7" d="M56.318,118.704c18.051,0,82.872,0,100.922,0c0.16,0,0.298-0.037,0.359-0.097
						c0.063-0.06,0.029-0.125-0.082-0.17l-10.463-4.232c-0.025-0.01-0.056-0.016-0.093-0.016c-11.198,0-69.168,0-80.368,0
						c-0.036,0-0.067,0.006-0.093,0.016l-10.461,4.232c-0.113,0.045-0.145,0.11-0.083,0.17
						C56.02,118.667,56.158,118.704,56.318,118.704z"/>
					<path fill="#9AA6B2" d="M56.463,118.684c17.945,0,82.661,0,100.605,0c0.16,0,0.297-0.035,0.358-0.096
						c0.062-0.059,0.029-0.124-0.081-0.169l-10.402-4.205c-0.024-0.01-0.055-0.016-0.092-0.016c-11.135,0-69.038,0-80.171,0
						c-0.036,0-0.067,0.006-0.092,0.016l-10.401,4.205c-0.112,0.045-0.144,0.11-0.083,0.169S56.303,118.684,56.463,118.684z"/>
					<path fill="#94A1AE" d="M56.608,118.663c17.84,0,82.451,0,100.291,0c0.158,0,0.295-0.036,0.356-0.095
						c0.062-0.06,0.029-0.125-0.082-0.168l-10.341-4.178c-0.023-0.011-0.055-0.017-0.091-0.017c-11.068,0-68.907,0-79.977,0
						c-0.035,0-0.066,0.006-0.092,0.017L56.333,118.4c-0.112,0.043-0.143,0.108-0.082,0.168
						C56.312,118.627,56.449,118.663,56.608,118.663z"/>
					<path fill="#8E9CAA" d="M56.753,118.643c17.735,0,82.239,0,99.976,0c0.156,0,0.293-0.035,0.354-0.095
						c0.061-0.058,0.027-0.122-0.081-0.167l-10.28-4.148c-0.023-0.01-0.055-0.017-0.09-0.017c-11.004,0-68.777,0-79.781,0
						c-0.035,0-0.066,0.007-0.091,0.017l-10.279,4.148c-0.111,0.045-0.142,0.109-0.082,0.167
						C56.459,118.605,56.595,118.643,56.753,118.643z"/>
					<path fill="#8797A5" d="M56.897,118.622c17.63,0,82.029,0,99.66,0c0.155,0,0.291-0.036,0.353-0.095
						c0.06-0.057,0.028-0.121-0.081-0.166l-10.219-4.121c-0.024-0.01-0.055-0.016-0.09-0.016c-10.938,0-68.646,0-79.585,0
						c-0.035,0-0.065,0.006-0.091,0.016l-10.218,4.121c-0.11,0.045-0.142,0.109-0.081,0.166
						C56.605,118.586,56.74,118.622,56.897,118.622z"/>
					<path fill="#808F9E" d="M56.968,118.616c17.592,0,81.962,0,99.554,0c0.155,0,0.289-0.035,0.352-0.095
						c0.061-0.058,0.027-0.121-0.081-0.164l-10.196-4.111c-0.023-0.01-0.055-0.016-0.09-0.016c-10.915,0-68.607,0-79.521,0
						c-0.035,0-0.065,0.006-0.091,0.016l-10.196,4.111c-0.11,0.043-0.141,0.106-0.081,0.164
						C56.676,118.58,56.811,118.616,56.968,118.616z"/>
					<path fill="#7A8797" d="M57.038,118.609c17.554,0,81.894,0,99.446,0c0.154,0,0.289-0.034,0.351-0.092
						c0.06-0.058,0.028-0.123-0.08-0.166l-10.175-4.101c-0.023-0.01-0.055-0.017-0.09-0.017c-10.891,0-68.567,0-79.458,0
						c-0.035,0-0.065,0.007-0.09,0.017l-10.174,4.101c-0.11,0.043-0.141,0.107-0.081,0.166
						C56.747,118.574,56.882,118.609,57.038,118.609z"/>
					<path fill="#748090" d="M57.108,118.604c17.515,0,81.824,0,99.34,0c0.155,0,0.288-0.035,0.35-0.093
						c0.06-0.058,0.028-0.12-0.08-0.165l-10.151-4.089c-0.024-0.01-0.055-0.016-0.09-0.016c-10.867,0-68.528,0-79.396,0
						c-0.035,0-0.065,0.006-0.09,0.016l-10.151,4.089c-0.11,0.045-0.141,0.107-0.081,0.165
						C56.819,118.568,56.952,118.604,57.108,118.604z"/>
					<path fill="#6E7989" d="M57.179,118.6c17.477,0,81.756,0,99.233,0c0.154,0,0.288-0.035,0.35-0.094
						c0.059-0.057,0.027-0.12-0.08-0.164l-10.131-4.078c-0.023-0.01-0.055-0.016-0.089-0.016c-10.844,0-68.489,0-79.333,0
						c-0.035,0-0.065,0.006-0.09,0.016l-10.129,4.078c-0.11,0.044-0.14,0.107-0.081,0.164C56.889,118.563,57.023,118.6,57.179,118.6
						z"/>
					<path fill="#687383" d="M57.249,118.593c17.439,0,81.688,0,99.127,0c0.153,0,0.289-0.034,0.349-0.092
						c0.061-0.058,0.028-0.121-0.08-0.164l-10.107-4.067c-0.023-0.011-0.055-0.016-0.089-0.016c-10.82,0-68.45,0-79.27,0
						c-0.035,0-0.065,0.005-0.09,0.016l-10.107,4.067c-0.109,0.043-0.14,0.106-0.08,0.164
						C56.96,118.559,57.094,118.593,57.249,118.593z"/>
					<path fill="#626C7D" d="M57.319,118.587c17.4,0,81.619,0,99.021,0c0.154,0,0.287-0.034,0.348-0.092
						c0.06-0.058,0.028-0.12-0.08-0.163l-10.086-4.059c-0.023-0.01-0.054-0.015-0.088-0.015c-10.797,0-68.411,0-79.208,0
						c-0.035,0-0.065,0.005-0.089,0.015l-10.085,4.059c-0.109,0.043-0.14,0.105-0.08,0.163
						C57.031,118.552,57.164,118.587,57.319,118.587z"/>
					<path fill="#5C6677" d="M57.39,118.581c17.362,0,81.551,0,98.915,0c0.152,0,0.285-0.034,0.346-0.092
						c0.06-0.058,0.029-0.119-0.08-0.163l-10.063-4.047c-0.023-0.01-0.054-0.014-0.089-0.014c-10.772,0-68.371,0-79.144,0
						c-0.035,0-0.065,0.004-0.089,0.014l-10.063,4.047c-0.109,0.044-0.14,0.105-0.08,0.163
						C57.103,118.546,57.235,118.581,57.39,118.581z"/>
					<path fill="#566072" d="M57.46,118.576c17.324,0,81.481,0,98.808,0c0.153,0,0.285-0.034,0.346-0.092
						c0.06-0.058,0.029-0.119-0.079-0.164l-10.041-4.034c-0.024-0.011-0.054-0.015-0.089-0.015c-10.75,0-68.331,0-79.08,0
						c-0.035,0-0.065,0.004-0.089,0.015l-10.041,4.034c-0.109,0.045-0.139,0.106-0.08,0.164
						C57.173,118.541,57.306,118.576,57.46,118.576z"/>
					<path fill="#505B6C" d="M57.53,118.57c17.286,0,81.414,0,98.701,0c0.153,0,0.285-0.035,0.346-0.092
						c0.06-0.058,0.027-0.119-0.079-0.162l-10.021-4.024c-0.023-0.01-0.054-0.017-0.088-0.017c-10.726,0-68.292,0-79.018,0
						c-0.035,0-0.065,0.007-0.089,0.017l-10.019,4.024c-0.108,0.043-0.139,0.104-0.079,0.162
						C57.244,118.535,57.376,118.57,57.53,118.57z"/>
					<path fill="#4A5567" d="M57.601,118.564c17.248,0,81.346,0,98.594,0c0.152,0,0.285-0.035,0.345-0.092
						c0.06-0.058,0.028-0.119-0.079-0.162l-9.997-4.014c-0.024-0.01-0.054-0.016-0.088-0.016c-10.702,0-68.253,0-78.955,0
						c-0.035,0-0.065,0.006-0.088,0.016l-9.997,4.014c-0.108,0.043-0.138,0.104-0.079,0.162
						C57.314,118.529,57.447,118.564,57.601,118.564z"/>
					<path fill="#455063" d="M57.671,118.559c17.209,0,81.277,0,98.487,0c0.152,0,0.283-0.035,0.344-0.092
						c0.061-0.056,0.027-0.117-0.079-0.16l-9.975-4.002c-0.024-0.011-0.054-0.017-0.089-0.017c-10.678,0-68.212,0-78.892,0
						c-0.034,0-0.064,0.006-0.088,0.017l-9.975,4.002c-0.108,0.043-0.138,0.104-0.079,0.16
						C57.386,118.523,57.518,118.559,57.671,118.559z"/>
					<path fill="#3F4B5E" d="M57.741,118.553c17.171,0,81.209,0,98.381,0c0.153,0,0.284-0.035,0.343-0.091
						c0.061-0.058,0.029-0.118-0.078-0.161l-9.953-3.992c-0.023-0.01-0.053-0.015-0.088-0.015c-10.654,0-68.174,0-78.828,0
						c-0.034,0-0.064,0.005-0.088,0.015l-9.953,3.992c-0.108,0.043-0.138,0.104-0.079,0.161
						C57.457,118.518,57.588,118.553,57.741,118.553z"/>
					<path fill="#3A4559" d="M57.812,118.547c17.133,0,81.141,0,98.274,0c0.152,0,0.283-0.035,0.344-0.091
						c0.059-0.056,0.027-0.117-0.08-0.16l-9.931-3.981c-0.024-0.01-0.053-0.015-0.088-0.015c-10.63,0-68.134,0-78.765,0
						c-0.035,0-0.065,0.005-0.088,0.015l-9.931,3.981c-0.108,0.043-0.138,0.104-0.079,0.16
						C57.527,118.512,57.659,118.547,57.812,118.547z"/>
					<path fill="#344055" d="M57.882,118.541c17.095,0,81.072,0,98.168,0c0.152,0,0.282-0.034,0.343-0.091
						c0.059-0.056,0.027-0.116-0.08-0.159l-9.908-3.971c-0.023-0.01-0.053-0.016-0.086-0.016c-10.607,0-68.096,0-78.703,0
						c-0.034,0-0.064,0.006-0.087,0.016l-9.908,3.971c-0.108,0.043-0.138,0.104-0.079,0.159
						C57.599,118.507,57.729,118.541,57.882,118.541z"/>
					<path fill="#2F3B50" d="M57.952,118.535c17.057,0,81.004,0,98.062,0c0.151,0,0.282-0.034,0.342-0.09
						c0.059-0.057,0.027-0.117-0.078-0.16l-9.887-3.959c-0.024-0.01-0.054-0.016-0.088-0.016c-10.582,0-68.056,0-78.64,0
						c-0.034,0-0.064,0.006-0.087,0.016l-9.886,3.959c-0.108,0.043-0.137,0.104-0.079,0.16
						C57.669,118.501,57.8,118.535,57.952,118.535z"/>
					<path fill="#2A364C" d="M58.022,118.529c17.019,0,80.936,0,97.955,0c0.151,0,0.281-0.034,0.34-0.09
						c0.06-0.057,0.029-0.116-0.078-0.16l-9.863-3.947c-0.023-0.01-0.053-0.016-0.087-0.016c-10.56,0-68.017,0-78.576,0
						c-0.034,0-0.064,0.006-0.087,0.016l-9.864,3.947c-0.107,0.044-0.137,0.104-0.078,0.16
						C57.74,118.495,57.871,118.529,58.022,118.529z"/>
				</g>
				
					<linearGradient id="SVGID_1_" gradientUnits="userSpaceOnUse" x1="341.4961" y1="-124.603" x2="327.162" y2="-126.1096" gradientTransform="matrix(1 0 0 -1 -200 -77)">
					<stop  offset="0" style="stop-color:#CACCD0"/>
					<stop  offset="0.5" style="stop-color:#AAA9AC"/>
					<stop  offset="1" style="stop-color:#767878"/>
				</linearGradient>
				<path fill="url(#SVGID_1_)" d="M129.094,46.516h23.939c0.295,0.006,0.494,0.064,0.725,0.191l3.012,1.681
					c-0.248-0.136-0.455-0.197-0.771-0.203h-26.904V46.516z"/>
				
					<linearGradient id="SVGID_2_" gradientUnits="userSpaceOnUse" x1="262.8232" y1="-121.7539" x2="257.3619" y2="-119.7661" gradientTransform="matrix(1 0 0 -1 -200 -77)">
					<stop  offset="0" style="stop-color:#CACCD0"/>
					<stop  offset="1" style="stop-color:#FFFFFF"/>
				</linearGradient>
				<path fill="url(#SVGID_2_)" d="M56.396,48.388l3.194-1.771c0.171-0.068,0.348-0.098,0.542-0.102h23.939v1.669H57.168
					C56.852,48.19,56.645,48.252,56.396,48.388z"/>
				<path fill="#CACCD0" d="M57.168,48.106h98.83c0.667,0,1.214,0.552,1.214,1.226v67.835c0,0.674-0.547,1.226-1.214,1.226h-98.83
					c-0.668,0-1.214-0.552-1.214-1.226V49.332C55.954,48.658,56.5,48.106,57.168,48.106z"/>
				<path fill="#CACCD0" d="M90.548,71.846h32.07c0.216,0,0.394,0.18,0.394,0.398v22.011c0,0.219-0.178,0.398-0.394,0.398h-32.07
					c-0.217,0-0.394-0.18-0.394-0.398V72.244C90.154,72.025,90.331,71.846,90.548,71.846z"/>
				<path fill="#FFFFFF" d="M57.168,48.106h98.83c0.667,0,1.214,0.552,1.214,1.226v0.254c0-0.675-0.547-1.226-1.214-1.226h-98.83
					c-0.668,0-1.214,0.551-1.214,1.226v-0.254C55.954,48.658,56.5,48.106,57.168,48.106z"/>
				<path fill="#3B3D3C" d="M106.583,84.672c1.554,0,2.821-1.268,2.821-2.821c0-1.553-1.268-2.821-2.821-2.821
					c-1.553,0-2.821,1.268-2.821,2.821C103.762,83.404,105.029,84.672,106.583,84.672z"/>
				<path fill="#3B3D3C" d="M106.583,98.201c1.554,0,2.821-1.268,2.821-2.821c0-1.553-1.268-2.821-2.821-2.821
					c-1.553,0-2.821,1.268-2.821,2.821C103.762,96.933,105.029,98.201,106.583,98.201z"/>
				<path fill="#FFFFFF" d="M66.175,64.787H97.11c0.834,0,1.517,0.682,1.517,1.517v46.199c0,0.833-0.683,1.517-1.517,1.517H66.175
					c-0.835,0-1.516-0.684-1.516-1.517V66.304C64.659,65.469,65.34,64.787,66.175,64.787z"/>
				<path d="M66.175,64.534H97.11c0.834,0,1.517,0.682,1.517,1.517v46.199c0,0.834-0.683,1.516-1.517,1.516H66.175
					c-0.835,0-1.516-0.682-1.516-1.516V66.051C64.659,65.216,65.34,64.534,66.175,64.534z"/>
				
					<linearGradient id="SVGID_3_" gradientUnits="userSpaceOnUse" x1="281.6426" y1="-165.9561" x2="281.6426" y2="-141.9463" gradientTransform="matrix(1 0 0 -1 -200 -77)">
					<stop  offset="0" style="stop-color:#000000"/>
					<stop  offset="0.07" style="stop-color:#313333"/>
					<stop  offset="1" style="stop-color:#3F4040"/>
				</linearGradient>
				<path fill="url(#SVGID_3_)" d="M66.625,65.251h30.034c0.81,0,1.473,0.662,1.473,1.472v22.479H65.153V66.723
					C65.153,65.913,65.815,65.251,66.625,65.251z"/>
				<path fill="#636363" d="M66.625,65.251h30.034c0.81,0,1.473,0.662,1.473,1.472v0.337c0-0.81-0.663-1.473-1.473-1.473H66.625
					c-0.81,0-1.472,0.663-1.472,1.473v-0.337C65.153,65.913,65.815,65.251,66.625,65.251z"/>
				
					<linearGradient id="SVGID_4_" gradientUnits="userSpaceOnUse" x1="281.6426" y1="-166.1221" x2="281.6426" y2="-190.4742" gradientTransform="matrix(1 0 0 -1 -200 -77)">
					<stop  offset="0" style="stop-color:#181F1F"/>
					<stop  offset="0.04" style="stop-color:#313333"/>
					<stop  offset="0.08" style="stop-color:#4A4A4A"/>
					<stop  offset="0.14" style="stop-color:#484848"/>
					<stop  offset="0.19" style="stop-color:#3B3D3C"/>
					<stop  offset="1" style="stop-color:#464746"/>
				</linearGradient>
				<path fill="url(#SVGID_4_)" d="M66.625,113.15h30.034c0.81,0,1.473-0.662,1.473-1.473V89.201H65.153v22.479
					C65.153,112.488,65.815,113.15,66.625,113.15z"/>
				
					<linearGradient id="SVGID_5_" gradientUnits="userSpaceOnUse" x1="281.6416" y1="-166.2012" x2="281.6416" y2="-186.2821" gradientTransform="matrix(1 0 0 -1 -200 -77)">
					<stop  offset="0" style="stop-color:#808282"/>
					<stop  offset="0.07" style="stop-color:#D9D8D8"/>
					<stop  offset="0.1" style="stop-color:#ECEDED"/>
					<stop  offset="1" style="stop-color:#D9D8D8"/>
				</linearGradient>
				<path fill="url(#SVGID_5_)" d="M94.862,101.731v7.009h-26.44c0.293-2.647,1.145-5.158,2.584-7.531
					c1.429-2.373,4.26-5.515,8.474-9.437c1.023-0.948,1.926-1.805,2.71-2.571h9.507c-0.252,0.353-0.519,0.71-0.802,1.068
					c-0.915,1.164-2.564,2.841-4.938,5.021c-2.382,2.181-3.894,3.639-4.526,4.353c-0.631,0.715-1.153,1.411-1.548,2.089
					L94.862,101.731L94.862,101.731z"/>
				
					<linearGradient id="SVGID_6_" gradientUnits="userSpaceOnUse" x1="282.0869" y1="-166.2031" x2="282.0869" y2="-146.0748" gradientTransform="matrix(1 0 0 -1 -200 -77)">
					<stop  offset="0" style="stop-color:#808282"/>
					<stop  offset="0.09" style="stop-color:#D9D8D8"/>
					<stop  offset="0.15" style="stop-color:#ECEDED"/>
					<stop  offset="1" style="stop-color:#D9D8D8"/>
				</linearGradient>
				<path fill="url(#SVGID_6_)" d="M82.189,89.201c1.828-1.789,3.009-3.08,3.548-3.869c1.035-1.557,1.558-3.096,1.558-4.617
					c0-1.677-0.449-2.968-1.355-3.876c-0.908-0.906-2.153-1.354-3.747-1.354c-1.576,0-2.822,0.476-3.757,1.419
					c-0.925,0.953-1.466,2.528-1.612,4.728l-7.513-0.751c0.449-4.15,1.851-7.128,4.215-8.941c2.363-1.805,5.313-2.712,8.858-2.712
					c3.885,0,6.936,1.053,9.152,3.143c2.218,2.098,3.326,4.699,3.326,7.814c0,1.768-0.32,3.454-0.953,5.058
					c-0.502,1.273-1.241,2.594-2.213,3.96h-9.507V89.201z"/>
				<rect x="65.209" y="88.944" width="32.926" height="0.345"/>
				<rect x="65.153" y="89.201" fill="#4A4A4A" width="32.979" height="0.252"/>
				<path fill="#636363" d="M66.625,113.15h30.034c0.81,0,1.473-0.662,1.473-1.473v-0.337c0,0.81-0.663,1.474-1.473,1.474H66.625
					c-0.81,0-1.472-0.664-1.472-1.474v0.337C65.153,112.488,65.815,113.15,66.625,113.15z"/>
				<path fill="#FFFFFF" d="M116.057,64.787h30.936c0.834,0,1.517,0.682,1.517,1.517v46.199c0,0.833-0.683,1.517-1.517,1.517
					h-30.936c-0.834,0-1.517-0.684-1.517-1.517V66.304C114.54,65.469,115.223,64.787,116.057,64.787z"/>
				<path d="M116.057,64.534h30.936c0.834,0,1.517,0.682,1.517,1.517v46.199c0,0.834-0.683,1.516-1.517,1.516h-30.936
					c-0.834,0-1.517-0.682-1.517-1.516V66.051C114.54,65.216,115.223,64.534,116.057,64.534z"/>
				
					<linearGradient id="SVGID_7_" gradientUnits="userSpaceOnUse" x1="331.5244" y1="-165.9561" x2="331.5244" y2="-141.9463" gradientTransform="matrix(1 0 0 -1 -200 -77)">
					<stop  offset="0" style="stop-color:#000000"/>
					<stop  offset="0.07" style="stop-color:#313333"/>
					<stop  offset="1" style="stop-color:#3F4040"/>
				</linearGradient>
				<path fill="url(#SVGID_7_)" d="M116.507,65.251h30.034c0.811,0,1.473,0.662,1.473,1.472v22.479h-32.979V66.723
					C115.035,65.913,115.697,65.251,116.507,65.251z"/>
				<path fill="#636363" d="M116.507,65.251h30.034c0.811,0,1.473,0.662,1.473,1.472v0.337c0-0.81-0.662-1.473-1.473-1.473h-30.034
					c-0.81,0-1.472,0.663-1.472,1.473v-0.337C115.035,65.913,115.697,65.251,116.507,65.251z"/>
				
					<linearGradient id="SVGID_8_" gradientUnits="userSpaceOnUse" x1="331.5244" y1="-166.1221" x2="331.5244" y2="-190.4742" gradientTransform="matrix(1 0 0 -1 -200 -77)">
					<stop  offset="0" style="stop-color:#181F1F"/>
					<stop  offset="0.04" style="stop-color:#313333"/>
					<stop  offset="0.08" style="stop-color:#4A4A4A"/>
					<stop  offset="0.14" style="stop-color:#484848"/>
					<stop  offset="0.19" style="stop-color:#3B3D3C"/>
					<stop  offset="1" style="stop-color:#464746"/>
				</linearGradient>
				<path fill="url(#SVGID_8_)" d="M116.507,113.15h30.034c0.811,0,1.473-0.662,1.473-1.473V89.201h-32.979v22.479
					C115.035,112.488,115.697,113.15,116.507,113.15z"/>
				
					<linearGradient id="SVGID_9_" gradientUnits="userSpaceOnUse" x1="336.8369" y1="-166.2012" x2="336.8369" y2="-186.2821" gradientTransform="matrix(1 0 0 -1 -200 -77)">
					<stop  offset="0" style="stop-color:#808282"/>
					<stop  offset="0.07" style="stop-color:#D9D8D8"/>
					<stop  offset="0.1" style="stop-color:#ECEDED"/>
					<stop  offset="1" style="stop-color:#D9D8D8"/>
				</linearGradient>
				<rect x="133.066" y="89.201" fill="url(#SVGID_9_)" width="7.541" height="19.539"/>
				
					<linearGradient id="SVGID_10_" gradientUnits="userSpaceOnUse" x1="331.9688" y1="-166.2012" x2="331.9688" y2="-146.0729" gradientTransform="matrix(1 0 0 -1 -200 -77)">
					<stop  offset="0" style="stop-color:#808282"/>
					<stop  offset="0.09" style="stop-color:#D9D8D8"/>
					<stop  offset="0.15" style="stop-color:#ECEDED"/>
					<stop  offset="1" style="stop-color:#D9D8D8"/>
				</linearGradient>
				<path fill="url(#SVGID_10_)" d="M133.066,89.201v-8.889c-2.758,2.583-6,4.488-9.737,5.716v-6.844
					c1.96-0.642,4.104-1.859,6.413-3.655c2.309-1.805,3.895-3.903,4.744-6.303h6.121v19.975H133.066z"/>
				<rect x="115.091" y="88.944" width="32.927" height="0.345"/>
				<rect x="115.035" y="89.201" fill="#4A4A4A" width="32.979" height="0.252"/>
				<path fill="#636363" d="M116.507,113.15h30.034c0.811,0,1.473-0.662,1.473-1.473v-0.337c0,0.81-0.662,1.474-1.473,1.474h-30.034
					c-0.81,0-1.472-0.664-1.472-1.474v0.337C115.035,112.488,115.697,113.15,116.507,113.15z"/>
				<path d="M66.175,51.854H97.11c0.834,0,1.517,0.682,1.517,1.516v5.493c0,0.835-0.683,1.518-1.517,1.518H66.175
					c-0.834,0-1.516-0.683-1.516-1.518V53.37C64.659,52.535,65.34,51.854,66.175,51.854z"/>
				<path d="M116.057,51.854h30.936c0.834,0,1.517,0.682,1.517,1.516v5.493c0,0.835-0.684,1.518-1.517,1.518h-30.936
					c-0.834,0-1.517-0.683-1.517-1.518V53.37C114.54,52.535,115.223,51.854,116.057,51.854z"/>
				
					<linearGradient id="SVGID_11_" gradientUnits="userSpaceOnUse" x1="281.6426" y1="-137.3809" x2="281.6426" y2="-129.0627" gradientTransform="matrix(1 0 0 -1 -200 -77)">
					<stop  offset="0" style="stop-color:#000000"/>
					<stop  offset="0.07" style="stop-color:#313333"/>
					<stop  offset="1" style="stop-color:#3F4040"/>
				</linearGradient>
				<path fill="url(#SVGID_11_)" d="M66.625,52.161h30.034c0.81,0,1.473,0.662,1.473,1.473c0,1.619,0,3.239,0,4.858
					c0,0.809-0.663,1.472-1.473,1.472H66.625c-0.81,0-1.472-0.662-1.472-1.472c0-1.619,0-3.239,0-4.858
					C65.153,52.823,65.815,52.161,66.625,52.161z"/>
				<path fill="#636363" d="M66.625,52.161h30.034c0.81,0,1.473,0.662,1.473,1.473v0.19c0-0.81-0.663-1.473-1.473-1.473H66.625
					c-0.81,0-1.472,0.663-1.472,1.473v-0.19C65.153,52.823,65.815,52.161,66.625,52.161z"/>
				
					<linearGradient id="SVGID_12_" gradientUnits="userSpaceOnUse" x1="331.5244" y1="-137.3809" x2="331.5244" y2="-129.0627" gradientTransform="matrix(1 0 0 -1 -200 -77)">
					<stop  offset="0" style="stop-color:#000000"/>
					<stop  offset="0.07" style="stop-color:#313333"/>
					<stop  offset="1" style="stop-color:#3F4040"/>
				</linearGradient>
				<path fill="url(#SVGID_12_)" d="M116.507,52.161h30.034c0.811,0,1.473,0.662,1.473,1.473c0,1.619,0,3.239,0,4.858
					c0,0.809-0.662,1.472-1.473,1.472h-30.034c-0.81,0-1.472-0.662-1.472-1.472c0-1.619,0-3.239,0-4.858
					C115.035,52.823,115.697,52.161,116.507,52.161z"/>
				<path fill="#636363" d="M116.507,52.161h30.034c0.811,0,1.473,0.662,1.473,1.473v0.19c0-0.81-0.662-1.473-1.473-1.473h-30.034
					c-0.81,0-1.472,0.663-1.472,1.473v-0.19C115.035,52.823,115.697,52.161,116.507,52.161z"/>
				
					<linearGradient id="SVGID_13_" gradientUnits="userSpaceOnUse" x1="331.5234" y1="-136.1919" x2="331.5234" y2="-129.9932" gradientTransform="matrix(1 0 0 -1 -200 -77)">
					<stop  offset="0" style="stop-color:#808282"/>
					<stop  offset="0.09" style="stop-color:#D9D8D8"/>
					<stop  offset="0.15" style="stop-color:#ECEDED"/>
					<stop  offset="1" style="stop-color:#D9D8D8"/>
				</linearGradient>
				<path fill="url(#SVGID_13_)" d="M118.455,59.094l-2.164-6.054h1.326l1.531,4.48l1.481-4.48h1.298l-2.168,6.054H118.455
					L118.455,59.094z M122.393,54.113V53.04h1.159v1.073H122.393L122.393,54.113z M122.393,59.094v-4.386h1.159v4.386H122.393
					L122.393,59.094z M124.333,57.843l1.165-0.179c0.049,0.226,0.148,0.398,0.301,0.515c0.15,0.117,0.362,0.177,0.637,0.177
					c0.299,0,0.525-0.056,0.676-0.167c0.104-0.076,0.154-0.181,0.154-0.309c0-0.089-0.029-0.162-0.084-0.22
					c-0.058-0.055-0.188-0.105-0.388-0.152c-0.937-0.206-1.528-0.395-1.78-0.564c-0.347-0.237-0.52-0.567-0.52-0.988
					c0-0.38,0.148-0.699,0.449-0.957c0.301-0.26,0.766-0.39,1.396-0.39c0.601,0,1.048,0.099,1.339,0.293
					c0.293,0.196,0.492,0.485,0.602,0.869l-1.094,0.201c-0.047-0.171-0.135-0.302-0.266-0.392c-0.131-0.092-0.316-0.138-0.561-0.138
					c-0.307,0-0.523,0.043-0.656,0.129c-0.087,0.061-0.131,0.14-0.131,0.235c0,0.083,0.037,0.152,0.115,0.21
					c0.104,0.078,0.465,0.187,1.084,0.327c0.617,0.14,1.049,0.312,1.293,0.516c0.244,0.207,0.365,0.495,0.365,0.863
					c0,0.401-0.17,0.748-0.506,1.037c-0.336,0.289-0.832,0.433-1.49,0.433c-0.597,0-1.068-0.122-1.418-0.363
					C124.667,58.588,124.439,58.258,124.333,57.843L124.333,57.843z M129.445,54.113V53.04h1.16v1.073H129.445L129.445,54.113z
					 M129.445,59.094v-4.386h1.16v4.386H129.445L129.445,59.094z M133.807,54.708v0.925h-0.793V57.4
					c0,0.358,0.006,0.567,0.022,0.626c0.015,0.06,0.049,0.107,0.103,0.146c0.055,0.038,0.119,0.059,0.195,0.059
					c0.109,0,0.264-0.038,0.468-0.112l0.101,0.9c-0.271,0.115-0.576,0.173-0.918,0.173c-0.209,0-0.397-0.035-0.565-0.104
					c-0.168-0.07-0.29-0.162-0.369-0.273s-0.133-0.262-0.163-0.452c-0.025-0.135-0.037-0.408-0.037-0.817v-1.912h-0.531v-0.925
					h0.531v-0.871l1.164-0.678v1.549L133.807,54.708L133.807,54.708z M134.343,56.839c0-0.385,0.097-0.759,0.284-1.119
					c0.189-0.359,0.459-0.636,0.809-0.825c0.349-0.19,0.736-0.286,1.166-0.286c0.662,0,1.207,0.216,1.631,0.647
					c0.425,0.431,0.637,0.976,0.637,1.633c0,0.663-0.215,1.213-0.641,1.65c-0.43,0.437-0.969,0.653-1.617,0.653
					c-0.403,0-0.785-0.09-1.15-0.272s-0.643-0.447-0.833-0.799C134.438,57.771,134.343,57.343,134.343,56.839L134.343,56.839z
					 M135.532,56.9c0,0.436,0.103,0.768,0.31,0.999c0.206,0.231,0.461,0.348,0.766,0.348c0.302,0,0.557-0.116,0.761-0.348
					c0.206-0.231,0.309-0.566,0.309-1.007c0-0.429-0.103-0.76-0.309-0.991c-0.204-0.231-0.459-0.347-0.761-0.347
					c-0.305,0-0.56,0.115-0.766,0.347C135.635,56.133,135.532,56.467,135.532,56.9L135.532,56.9z M140.889,59.094h-1.16v-4.386
					h1.076v0.624c0.186-0.295,0.352-0.489,0.498-0.583c0.148-0.092,0.314-0.141,0.502-0.141c0.266,0,0.519,0.073,0.764,0.22
					l-0.358,1.011c-0.194-0.125-0.376-0.188-0.545-0.188c-0.163,0-0.3,0.044-0.412,0.134c-0.114,0.089-0.2,0.251-0.267,0.485
					c-0.064,0.233-0.098,0.725-0.098,1.469V59.094L140.889,59.094z M142.66,57.843l1.164-0.179c0.049,0.226,0.148,0.398,0.302,0.515
					c0.149,0.117,0.362,0.177,0.636,0.177c0.301,0,0.525-0.056,0.678-0.167c0.103-0.076,0.152-0.181,0.152-0.309
					c0-0.089-0.027-0.162-0.083-0.22c-0.058-0.055-0.188-0.105-0.388-0.152c-0.936-0.206-1.529-0.395-1.78-0.564
					c-0.347-0.237-0.521-0.567-0.521-0.988c0-0.38,0.148-0.699,0.449-0.957c0.301-0.26,0.767-0.39,1.396-0.39
					c0.6,0,1.047,0.099,1.339,0.293c0.291,0.196,0.492,0.485,0.603,0.869l-1.094,0.201c-0.047-0.171-0.136-0.302-0.268-0.392
					c-0.131-0.092-0.316-0.138-0.561-0.138c-0.306,0-0.523,0.043-0.655,0.129c-0.089,0.061-0.132,0.14-0.132,0.235
					c0,0.083,0.039,0.152,0.115,0.21c0.104,0.078,0.465,0.187,1.084,0.327c0.617,0.14,1.049,0.312,1.295,0.516
					c0.241,0.207,0.362,0.495,0.362,0.863c0,0.401-0.168,0.748-0.504,1.037c-0.336,0.289-0.833,0.433-1.489,0.433
					c-0.599,0-1.07-0.122-1.421-0.363C142.994,58.588,142.768,58.258,142.66,57.843z"/>
				
					<linearGradient id="SVGID_14_" gradientUnits="userSpaceOnUse" x1="281.6416" y1="-136.1919" x2="281.6416" y2="-129.9932" gradientTransform="matrix(1 0 0 -1 -200 -77)">
					<stop  offset="0" style="stop-color:#808282"/>
					<stop  offset="0.09" style="stop-color:#D9D8D8"/>
					<stop  offset="0.15" style="stop-color:#ECEDED"/>
					<stop  offset="1" style="stop-color:#D9D8D8"/>
				</linearGradient>
				<path fill="url(#SVGID_14_)" d="M70.371,59.094V53.04h1.224v2.382h2.395V53.04h1.223v6.054H73.99v-2.647h-2.395v2.647H70.371
					L70.371,59.094z M76.198,56.839c0-0.385,0.097-0.759,0.285-1.119c0.19-0.359,0.459-0.636,0.808-0.825
					c0.348-0.19,0.736-0.286,1.167-0.286c0.663,0,1.207,0.216,1.631,0.647c0.425,0.431,0.636,0.976,0.636,1.633
					c0,0.663-0.215,1.213-0.642,1.65c-0.428,0.437-0.967,0.653-1.617,0.653c-0.402,0-0.784-0.09-1.149-0.272
					c-0.364-0.182-0.643-0.447-0.833-0.799C76.295,57.771,76.198,57.343,76.198,56.839L76.198,56.839z M77.389,56.9
					c0,0.436,0.103,0.768,0.31,0.999c0.206,0.231,0.461,0.348,0.765,0.348c0.303,0,0.557-0.116,0.761-0.348
					c0.206-0.231,0.309-0.566,0.309-1.007c0-0.429-0.103-0.76-0.309-0.991c-0.204-0.231-0.458-0.347-0.761-0.347
					c-0.304,0-0.559,0.115-0.765,0.347C77.491,56.133,77.389,56.467,77.389,56.9L77.389,56.9z M81.547,54.708h1.069v0.598
					c0.382-0.465,0.839-0.697,1.367-0.697c0.28,0,0.524,0.058,0.729,0.173c0.209,0.116,0.378,0.291,0.51,0.524
					c0.192-0.233,0.4-0.408,0.623-0.524c0.223-0.115,0.461-0.173,0.715-0.173c0.321,0,0.595,0.066,0.817,0.197
					c0.224,0.13,0.389,0.323,0.499,0.575c0.08,0.188,0.119,0.49,0.119,0.909v2.804h-1.159v-2.506c0-0.437-0.04-0.717-0.12-0.844
					c-0.107-0.164-0.271-0.247-0.494-0.247c-0.164,0-0.316,0.049-0.46,0.148c-0.143,0.099-0.245,0.244-0.31,0.437
					c-0.063,0.191-0.095,0.493-0.095,0.906v2.105h-1.16V56.69c0-0.427-0.021-0.702-0.063-0.826
					c-0.042-0.124-0.105-0.216-0.191-0.275c-0.087-0.062-0.205-0.092-0.354-0.092c-0.179,0-0.34,0.048-0.482,0.145
					s-0.246,0.235-0.308,0.418c-0.063,0.182-0.093,0.481-0.093,0.902v2.132h-1.16L81.547,54.708L81.547,54.708z M91.692,57.698
					l1.157,0.193c-0.149,0.424-0.383,0.747-0.705,0.969c-0.319,0.222-0.722,0.332-1.203,0.332c-0.763,0-1.327-0.248-1.693-0.747
					c-0.288-0.399-0.434-0.904-0.434-1.511c0-0.728,0.189-1.297,0.571-1.709c0.379-0.411,0.859-0.617,1.439-0.617
					c0.653,0,1.167,0.216,1.545,0.647c0.377,0.431,0.558,1.091,0.542,1.979h-2.908c0.009,0.345,0.102,0.612,0.28,0.803
					c0.179,0.191,0.403,0.287,0.67,0.287c0.183,0,0.334-0.05,0.458-0.147C91.536,58.078,91.63,57.918,91.692,57.698L91.692,57.698z
					 M91.759,56.525c-0.009-0.337-0.095-0.592-0.26-0.767c-0.165-0.175-0.366-0.262-0.603-0.262c-0.254,0-0.463,0.093-0.627,0.277
					c-0.165,0.183-0.247,0.435-0.245,0.751L91.759,56.525L91.759,56.525z"/>
				
					<linearGradient id="SVGID_15_" gradientUnits="userSpaceOnUse" x1="306.584" y1="-103.7363" x2="306.584" y2="-109.6684" gradientTransform="matrix(1 0 0 -1 -200 -77)">
					<stop  offset="0" style="stop-color:#CACCD0"/>
					<stop  offset="1" style="stop-color:#FFFFFF"/>
				</linearGradient>
				<path fill="url(#SVGID_15_)" d="M84.269,30.08l1.42-1.021c0.076-0.04,0.154-0.057,0.241-0.059h41.306
					c0.132,0.003,0.221,0.036,0.322,0.11l1.34,0.97c-0.11-0.078-0.203-0.114-0.344-0.117H84.611
					C84.471,29.966,84.379,30.002,84.269,30.08z"/>
				<path fill="#CACCD0" d="M84.611,29.955h43.944c0.297,0,0.538,0.245,0.538,0.546V49.8c0,0.3-0.241,0.546-0.538,0.546H84.611
					c-0.297,0-0.539-0.246-0.539-0.546V30.501C84.072,30.2,84.314,29.955,84.611,29.955z"/>
				<path fill="#FFFFFF" d="M86.796,31.609h39.547c0.21,0,0.382,0.172,0.382,0.382v14.261c0,0.21-0.172,0.383-0.382,0.383H86.796
					c-0.209,0-0.381-0.173-0.381-0.383V31.991C86.415,31.781,86.587,31.609,86.796,31.609z"/>
				<path d="M86.796,31.356h39.547c0.21,0,0.382,0.173,0.382,0.382V46c0,0.209-0.172,0.382-0.382,0.382H86.796
					c-0.209,0-0.381-0.173-0.381-0.382V31.738C86.415,31.528,86.587,31.356,86.796,31.356z"/>
				
					<radialGradient id="SVGID_16_" cx="292.8779" cy="-115.9619" r="4.9808" gradientTransform="matrix(1 0 0 -1 -200 -77)" gradientUnits="userSpaceOnUse">
					<stop  offset="0" style="stop-color:#186C3E"/>
					<stop  offset="1" style="stop-color:#000000"/>
				</radialGradient>
				<path fill="url(#SVGID_16_)" d="M92.878,43.057c2.255,0,4.095-1.84,4.095-4.095c0-2.256-1.84-4.096-4.095-4.096
					c-2.256,0-4.095,1.84-4.095,4.096C88.783,41.217,90.622,43.057,92.878,43.057z"/>
				
					<radialGradient id="SVGID_17_" cx="313.4609" cy="-115.9619" r="4.9811" gradientTransform="matrix(1 0 0 -1 -200 -77)" gradientUnits="userSpaceOnUse">
					<stop  offset="0" style="stop-color:#186C3E"/>
					<stop  offset="1" style="stop-color:#000000"/>
				</radialGradient>
				<path fill="url(#SVGID_17_)" d="M113.461,43.057c2.255,0,4.096-1.84,4.096-4.095c0-2.256-1.841-4.096-4.096-4.096
					c-2.256,0-4.095,1.84-4.095,4.096C109.366,41.217,111.205,43.057,113.461,43.057z"/>
				
					<radialGradient id="SVGID_18_" cx="301.2568" cy="-115.9619" r="4.9808" gradientTransform="matrix(1 0 0 -1 -200 -77)" gradientUnits="userSpaceOnUse">
					<stop  offset="0" style="stop-color:#186C3E"/>
					<stop  offset="1" style="stop-color:#000000"/>
				</radialGradient>
				<path fill="url(#SVGID_18_)" d="M101.258,43.057c2.255,0,4.094-1.84,4.094-4.095c0-2.256-1.839-4.096-4.094-4.096
					c-2.256,0-4.096,1.84-4.096,4.096C97.162,41.217,99.002,43.057,101.258,43.057z"/>
				
					<radialGradient id="SVGID_19_" cx="307.2832" cy="-114.189" r="2.809" gradientTransform="matrix(1 0 0 -1 -200 -77)" gradientUnits="userSpaceOnUse">
					<stop  offset="0" style="stop-color:#186C3E"/>
					<stop  offset="0.0333" style="stop-color:#1A683D"/>
					<stop  offset="0.5123" style="stop-color:#163526"/>
					<stop  offset="0.8444" style="stop-color:#01120C"/>
					<stop  offset="1" style="stop-color:#000000"/>
				</radialGradient>
				<path fill="url(#SVGID_19_)" d="M107.284,39.499c1.271,0,2.31-1.038,2.31-2.311c0-1.271-1.037-2.309-2.31-2.309
					c-1.272,0-2.311,1.037-2.311,2.309C104.974,38.461,106.012,39.499,107.284,39.499z"/>
				
					<radialGradient id="SVGID_20_" cx="307.2832" cy="-119.1675" r="2.8084" gradientTransform="matrix(1 0 0 -1 -200 -77)" gradientUnits="userSpaceOnUse">
					<stop  offset="0" style="stop-color:#186C3E"/>
					<stop  offset="0.0333" style="stop-color:#1A683D"/>
					<stop  offset="0.5123" style="stop-color:#163526"/>
					<stop  offset="0.8444" style="stop-color:#01120C"/>
					<stop  offset="1" style="stop-color:#000000"/>
				</radialGradient>
				<path fill="url(#SVGID_20_)" d="M107.284,44.477c1.271,0,2.31-1.036,2.31-2.309s-1.037-2.31-2.31-2.31
					c-1.272,0-2.311,1.037-2.311,2.31S106.012,44.477,107.284,44.477z"/>
				
					<radialGradient id="SVGID_21_" cx="321.8408" cy="-115.9619" r="4.9809" gradientTransform="matrix(1 0 0 -1 -200 -77)" gradientUnits="userSpaceOnUse">
					<stop  offset="0" style="stop-color:#186C3E"/>
					<stop  offset="1" style="stop-color:#000000"/>
				</radialGradient>
				<path fill="url(#SVGID_21_)" d="M121.841,43.057c2.255,0,4.095-1.84,4.095-4.095c0-2.256-1.84-4.096-4.095-4.096
					c-2.256,0-4.095,1.84-4.095,4.096C117.746,41.217,119.585,43.057,121.841,43.057z"/>
				
					<radialGradient id="SVGID_22_" cx="292.8086" cy="-115.9668" r="6.344" gradientTransform="matrix(1 0 0 -1 -200 -77)" gradientUnits="userSpaceOnUse">
					<stop  offset="0" style="stop-color:#608740"/>
					<stop  offset="1" style="stop-color:#002207"/>
				</radialGradient>
				<path fill="url(#SVGID_22_)" d="M95.24,38.059c0-0.409,0-0.818,0-1.228c0.409,0,0.818,0,1.229,0c0,0.409,0,0.818,0,1.228
					C96.059,38.059,95.649,38.059,95.24,38.059L95.24,38.059z M95.24,39.568c0-0.409,0-0.818,0-1.229c0.409,0,0.818,0,1.229,0
					c0,0.41,0,0.819,0,1.229C96.059,39.568,95.649,39.568,95.24,39.568L95.24,39.568z M89.148,39.568c0-0.409,0-0.818,0-1.229
					c0.41,0,0.819,0,1.229,0c0,0.41,0,0.819,0,1.229C89.968,39.568,89.559,39.568,89.148,39.568L89.148,39.568z M89.148,44.15
					c0-0.409,0-0.819,0-1.229c0.41,0,0.819,0,1.229,0c0,0.409,0,0.819,0,1.229C89.968,44.15,89.559,44.15,89.148,44.15L89.148,44.15
					z M95.24,44.15c0-0.409,0-0.819,0-1.229c0.409,0,0.818,0,1.229,0c0,0.409,0,0.819,0,1.229
					C96.059,44.15,95.649,44.15,95.24,44.15L95.24,44.15z M95.24,35.013c0-0.409,0-0.818,0-1.229c0.409,0,0.818,0,1.229,0
					c0,0.41,0,0.819,0,1.229C96.059,35.013,95.649,35.013,95.24,35.013L95.24,35.013z M89.148,35.013c0-0.409,0-0.818,0-1.229
					c0.41,0,0.819,0,1.229,0c0,0.41,0,0.819,0,1.229C89.968,35.013,89.559,35.013,89.148,35.013L89.148,35.013z M95.24,36.535
					c0-0.41,0-0.819,0-1.229c0.409,0,0.818,0,1.229,0c0,0.409,0,0.818,0,1.229C96.059,36.535,95.649,36.535,95.24,36.535
					L95.24,36.535z M93.717,35.013c0-0.409,0-0.818,0-1.229c0.409,0,0.817,0,1.229,0c0,0.41,0,0.819,0,1.229
					C94.534,35.013,94.126,35.013,93.717,35.013L93.717,35.013z M92.193,35.013c0-0.409,0-0.818,0-1.229c0.411,0,0.819,0,1.229,0
					c0,0.41,0,0.819,0,1.229C93.013,35.013,92.604,35.013,92.193,35.013L92.193,35.013z M90.67,35.013c0-0.409,0-0.818,0-1.229
					c0.41,0,0.819,0,1.229,0c0,0.41,0,0.819,0,1.229C91.489,35.013,91.08,35.013,90.67,35.013L90.67,35.013z M89.148,36.535
					c0-0.41,0-0.819,0-1.229c0.409,0,0.819,0,1.229,0c0,0.409,0,0.818,0,1.229C89.968,36.535,89.558,36.535,89.148,36.535
					L89.148,36.535z M89.148,38.059c0-0.409,0-0.818,0-1.228c0.409,0,0.819,0,1.229,0c0,0.409,0,0.818,0,1.228
					C89.968,38.059,89.558,38.059,89.148,38.059L89.148,38.059z M95.24,42.626c0-0.409,0-0.818,0-1.228c0.409,0,0.818,0,1.229,0
					c0,0.409,0,0.818,0,1.228C96.059,42.626,95.649,42.626,95.24,42.626L95.24,42.626z M95.24,41.104c0-0.409,0-0.819,0-1.229
					c0.409,0,0.818,0,1.229,0c0,0.409,0,0.819,0,1.229C96.059,41.104,95.649,41.104,95.24,41.104L95.24,41.104z M93.717,39.581
					c0-0.409,0-0.819,0-1.229c0.409,0,0.817,0,1.229,0c0,0.409,0,0.819,0,1.229C94.534,39.581,94.126,39.581,93.717,39.581
					L93.717,39.581z M92.193,39.581c0-0.409,0-0.819,0-1.229c0.411,0,0.819,0,1.229,0c0,0.409,0,0.819,0,1.229
					C93.013,39.581,92.604,39.581,92.193,39.581L92.193,39.581z M90.67,39.581c0-0.409,0-0.819,0-1.229c0.41,0,0.819,0,1.229,0
					c0,0.409,0,0.819,0,1.229C91.489,39.581,91.08,39.581,90.67,39.581L90.67,39.581z M89.148,41.104c0-0.409,0-0.819,0-1.229
					c0.409,0,0.819,0,1.229,0c0,0.409,0,0.819,0,1.229C89.968,41.104,89.558,41.104,89.148,41.104L89.148,41.104z M89.148,42.626
					c0-0.409,0-0.818,0-1.228c0.409,0,0.819,0,1.229,0c0,0.409,0,0.818,0,1.228C89.968,42.626,89.558,42.626,89.148,42.626
					L89.148,42.626z M90.67,44.15c0-0.409,0-0.819,0-1.229c0.41,0,0.819,0,1.229,0c0,0.409,0,0.819,0,1.229
					C91.489,44.15,91.08,44.15,90.67,44.15L90.67,44.15z M92.193,44.15c0-0.409,0-0.819,0-1.229c0.411,0,0.819,0,1.229,0
					c0,0.409,0,0.819,0,1.229C93.013,44.15,92.604,44.15,92.193,44.15L92.193,44.15z M93.717,44.15c0-0.409,0-0.819,0-1.229
					c0.409,0,0.817,0,1.229,0c0,0.409,0,0.819,0,1.229C94.534,44.15,94.126,44.15,93.717,44.15z"/>
				
					<radialGradient id="SVGID_23_" cx="313.3906" cy="-115.9668" r="6.3446" gradientTransform="matrix(1 0 0 -1 -200 -77)" gradientUnits="userSpaceOnUse">
					<stop  offset="0" style="stop-color:#608740"/>
					<stop  offset="1" style="stop-color:#002207"/>
				</radialGradient>
				<path fill="url(#SVGID_23_)" d="M115.823,38.059c0-0.409,0-0.818,0-1.228c0.409,0,0.817,0,1.229,0c0,0.409,0,0.818,0,1.228
					C116.643,38.059,116.232,38.059,115.823,38.059L115.823,38.059z M115.823,39.568c0-0.409,0-0.818,0-1.229
					c0.409,0,0.817,0,1.229,0c0,0.41,0,0.819,0,1.229C116.643,39.568,116.232,39.568,115.823,39.568L115.823,39.568z M109.73,39.568
					c0-0.409,0-0.818,0-1.229c0.41,0,0.82,0,1.229,0c0,0.41,0,0.819,0,1.229C110.552,39.568,110.143,39.568,109.73,39.568
					L109.73,39.568z M109.73,44.15c0-0.409,0-0.819,0-1.229c0.41,0,0.82,0,1.229,0c0,0.409,0,0.819,0,1.229
					C110.552,44.15,110.143,44.15,109.73,44.15L109.73,44.15z M115.823,44.15c0-0.409,0-0.819,0-1.229c0.409,0,0.817,0,1.229,0
					c0,0.409,0,0.819,0,1.229C116.643,44.15,116.232,44.15,115.823,44.15L115.823,44.15z M115.823,35.013c0-0.409,0-0.818,0-1.229
					c0.409,0,0.817,0,1.229,0c0,0.41,0,0.819,0,1.229C116.643,35.013,116.232,35.013,115.823,35.013L115.823,35.013z M109.73,35.013
					c0-0.409,0-0.818,0-1.229c0.41,0,0.82,0,1.229,0c0,0.41,0,0.819,0,1.229C110.552,35.013,110.143,35.013,109.73,35.013
					L109.73,35.013z M115.823,36.535c0-0.41,0-0.819,0-1.229c0.409,0,0.817,0,1.229,0c0,0.409,0,0.818,0,1.229
					C116.643,36.535,116.232,36.535,115.823,36.535L115.823,36.535z M114.3,35.013c0-0.409,0-0.818,0-1.229c0.409,0,0.818,0,1.228,0
					c0,0.41,0,0.819,0,1.229C115.118,35.013,114.709,35.013,114.3,35.013L114.3,35.013z M112.777,35.013c0-0.409,0-0.818,0-1.229
					c0.408,0,0.818,0,1.229,0c0,0.41,0,0.819,0,1.229C113.596,35.013,113.188,35.013,112.777,35.013L112.777,35.013z
					 M111.254,35.013c0-0.409,0-0.818,0-1.229c0.408,0,0.818,0,1.229,0c0,0.41,0,0.819,0,1.229
					C112.072,35.013,111.662,35.013,111.254,35.013L111.254,35.013z M109.73,36.535c0-0.41,0-0.819,0-1.229c0.41,0,0.819,0,1.229,0
					c0,0.409,0,0.818,0,1.229C110.551,36.535,110.143,36.535,109.73,36.535L109.73,36.535z M109.73,38.059c0-0.409,0-0.818,0-1.228
					c0.41,0,0.819,0,1.229,0c0,0.409,0,0.818,0,1.228C110.551,38.059,110.143,38.059,109.73,38.059L109.73,38.059z M115.823,42.626
					c0-0.409,0-0.818,0-1.228c0.409,0,0.817,0,1.229,0c0,0.409,0,0.818,0,1.228C116.643,42.626,116.232,42.626,115.823,42.626
					L115.823,42.626z M115.823,41.104c0-0.409,0-0.819,0-1.229c0.409,0,0.817,0,1.229,0c0,0.409,0,0.819,0,1.229
					C116.643,41.104,116.232,41.104,115.823,41.104L115.823,41.104z M114.3,39.581c0-0.409,0-0.819,0-1.229c0.409,0,0.818,0,1.228,0
					c0,0.409,0,0.819,0,1.229C115.118,39.581,114.709,39.581,114.3,39.581L114.3,39.581z M112.777,39.581c0-0.409,0-0.819,0-1.229
					c0.408,0,0.818,0,1.229,0c0,0.409,0,0.819,0,1.229C113.596,39.581,113.188,39.581,112.777,39.581L112.777,39.581z
					 M111.254,39.581c0-0.409,0-0.819,0-1.229c0.408,0,0.818,0,1.229,0c0,0.409,0,0.819,0,1.229
					C112.072,39.581,111.662,39.581,111.254,39.581L111.254,39.581z M109.73,41.104c0-0.409,0-0.819,0-1.229c0.41,0,0.819,0,1.229,0
					c0,0.409,0,0.819,0,1.229C110.551,41.104,110.143,41.104,109.73,41.104L109.73,41.104z M109.73,42.626c0-0.409,0-0.818,0-1.228
					c0.41,0,0.819,0,1.229,0c0,0.409,0,0.818,0,1.228C110.551,42.626,110.143,42.626,109.73,42.626L109.73,42.626z M111.254,44.15
					c0-0.409,0-0.819,0-1.229c0.408,0,0.818,0,1.229,0c0,0.409,0,0.819,0,1.229C112.072,44.15,111.662,44.15,111.254,44.15
					L111.254,44.15z M112.777,44.15c0-0.409,0-0.819,0-1.229c0.408,0,0.818,0,1.229,0c0,0.409,0,0.819,0,1.229
					C113.596,44.15,113.188,44.15,112.777,44.15L112.777,44.15z M114.3,44.15c0-0.409,0-0.819,0-1.229c0.409,0,0.818,0,1.228,0
					c0,0.409,0,0.819,0,1.229C115.118,44.15,114.709,44.15,114.3,44.15z"/>
				
					<radialGradient id="SVGID_24_" cx="301.1602" cy="-115.9668" r="6.3443" gradientTransform="matrix(1 0 0 -1 -200 -77)" gradientUnits="userSpaceOnUse">
					<stop  offset="0" style="stop-color:#608740"/>
					<stop  offset="1" style="stop-color:#002207"/>
				</radialGradient>
				<path fill="url(#SVGID_24_)" d="M103.591,38.059c0-0.409,0-0.818,0-1.228c0.409,0,0.818,0,1.229,0c0,0.409,0,0.818,0,1.228
					C104.409,38.059,104,38.059,103.591,38.059L103.591,38.059z M103.591,39.568c0-0.409,0-0.818,0-1.229c0.409,0,0.818,0,1.229,0
					c0,0.41,0,0.819,0,1.229C104.409,39.568,104,39.568,103.591,39.568L103.591,39.568z M97.499,39.568c0-0.409,0-0.818,0-1.229
					c0.411,0,0.82,0,1.229,0c0,0.41,0,0.819,0,1.229C98.319,39.568,97.91,39.568,97.499,39.568L97.499,39.568z M97.499,44.15
					c0-0.409,0-0.819,0-1.229c0.411,0,0.82,0,1.229,0c0,0.409,0,0.819,0,1.229C98.319,44.15,97.91,44.15,97.499,44.15L97.499,44.15z
					 M103.591,44.15c0-0.409,0-0.819,0-1.229c0.409,0,0.818,0,1.229,0c0,0.409,0,0.819,0,1.229
					C104.409,44.15,104,44.15,103.591,44.15L103.591,44.15z M103.591,35.013c0-0.409,0-0.818,0-1.229c0.409,0,0.818,0,1.229,0
					c0,0.41,0,0.819,0,1.229C104.409,35.013,104,35.013,103.591,35.013L103.591,35.013z M97.499,35.013c0-0.409,0-0.818,0-1.229
					c0.411,0,0.82,0,1.229,0c0,0.41,0,0.819,0,1.229C98.319,35.013,97.91,35.013,97.499,35.013L97.499,35.013z M103.591,36.535
					c0-0.41,0-0.819,0-1.229c0.409,0,0.818,0,1.229,0c0,0.409,0,0.818,0,1.229C104.409,36.535,104,36.535,103.591,36.535
					L103.591,36.535z M102.067,35.013c0-0.409,0-0.818,0-1.229c0.409,0,0.818,0,1.229,0c0,0.41,0,0.819,0,1.229
					C102.886,35.013,102.477,35.013,102.067,35.013L102.067,35.013z M100.546,35.013c0-0.409,0-0.818,0-1.229
					c0.409,0,0.817,0,1.228,0c0,0.41,0,0.819,0,1.229C101.363,35.013,100.955,35.013,100.546,35.013L100.546,35.013z M99.021,35.013
					c0-0.409,0-0.818,0-1.229c0.409,0,0.818,0,1.229,0c0,0.41,0,0.819,0,1.229C99.84,35.013,99.431,35.013,99.021,35.013
					L99.021,35.013z M97.499,36.535c0-0.41,0-0.819,0-1.229c0.41,0,0.819,0,1.229,0c0,0.409,0,0.818,0,1.229
					C98.318,36.535,97.909,36.535,97.499,36.535L97.499,36.535z M97.499,38.059c0-0.409,0-0.818,0-1.228c0.41,0,0.819,0,1.229,0
					c0,0.409,0,0.818,0,1.228C98.318,38.059,97.909,38.059,97.499,38.059L97.499,38.059z M103.591,42.626c0-0.409,0-0.818,0-1.228
					c0.409,0,0.818,0,1.229,0c0,0.409,0,0.818,0,1.228C104.409,42.626,104,42.626,103.591,42.626L103.591,42.626z M103.591,41.104
					c0-0.409,0-0.819,0-1.229c0.409,0,0.818,0,1.229,0c0,0.409,0,0.819,0,1.229C104.409,41.104,104,41.104,103.591,41.104
					L103.591,41.104z M102.067,39.581c0-0.409,0-0.819,0-1.229c0.409,0,0.818,0,1.229,0c0,0.409,0,0.819,0,1.229
					C102.886,39.581,102.477,39.581,102.067,39.581L102.067,39.581z M100.546,39.581c0-0.409,0-0.819,0-1.229
					c0.409,0,0.817,0,1.228,0c0,0.409,0,0.819,0,1.229C101.363,39.581,100.955,39.581,100.546,39.581L100.546,39.581z
					 M99.021,39.581c0-0.409,0-0.819,0-1.229c0.409,0,0.818,0,1.229,0c0,0.409,0,0.819,0,1.229
					C99.84,39.581,99.431,39.581,99.021,39.581L99.021,39.581z M97.499,41.104c0-0.409,0-0.819,0-1.229c0.41,0,0.819,0,1.229,0
					c0,0.409,0,0.819,0,1.229C98.318,41.104,97.909,41.104,97.499,41.104L97.499,41.104z M97.499,42.626c0-0.409,0-0.818,0-1.228
					c0.41,0,0.819,0,1.229,0c0,0.409,0,0.818,0,1.228C98.318,42.626,97.909,42.626,97.499,42.626L97.499,42.626z M99.021,44.15
					c0-0.409,0-0.819,0-1.229c0.409,0,0.818,0,1.229,0c0,0.409,0,0.819,0,1.229C99.84,44.15,99.431,44.15,99.021,44.15L99.021,44.15
					z M100.546,44.15c0-0.409,0-0.819,0-1.229c0.409,0,0.817,0,1.228,0c0,0.409,0,0.819,0,1.229
					C101.363,44.15,100.955,44.15,100.546,44.15L100.546,44.15z M102.067,44.15c0-0.409,0-0.819,0-1.229c0.409,0,0.818,0,1.229,0
					c0,0.409,0,0.819,0,1.229C102.886,44.15,102.477,44.15,102.067,44.15z"/>
				
					<radialGradient id="SVGID_25_" cx="321.7422" cy="-115.9668" r="6.3441" gradientTransform="matrix(1 0 0 -1 -200 -77)" gradientUnits="userSpaceOnUse">
					<stop  offset="0" style="stop-color:#608740"/>
					<stop  offset="1" style="stop-color:#002207"/>
				</radialGradient>
				<path fill="url(#SVGID_25_)" d="M124.174,38.059c0-0.409,0-0.818,0-1.228c0.409,0,0.819,0,1.229,0c0,0.409,0,0.818,0,1.228
					C124.993,38.059,124.583,38.059,124.174,38.059L124.174,38.059z M124.173,39.568c0-0.409,0-0.818,0-1.229c0.41,0,0.82,0,1.229,0
					c0,0.41,0,0.819,0,1.229C124.993,39.568,124.583,39.568,124.173,39.568L124.173,39.568z M118.083,39.568
					c0-0.409,0-0.818,0-1.229c0.409,0,0.819,0,1.229,0c0,0.41,0,0.819,0,1.229C118.902,39.568,118.492,39.568,118.083,39.568
					L118.083,39.568z M118.083,44.15c0-0.409,0-0.819,0-1.229c0.409,0,0.819,0,1.229,0c0,0.409,0,0.819,0,1.229
					C118.902,44.15,118.492,44.15,118.083,44.15L118.083,44.15z M124.173,44.15c0-0.409,0-0.819,0-1.229c0.41,0,0.82,0,1.229,0
					c0,0.409,0,0.819,0,1.229C124.993,44.15,124.583,44.15,124.173,44.15L124.173,44.15z M124.173,35.013c0-0.409,0-0.818,0-1.229
					c0.41,0,0.82,0,1.229,0c0,0.41,0,0.819,0,1.229C124.993,35.013,124.583,35.013,124.173,35.013L124.173,35.013z M118.083,35.013
					c0-0.409,0-0.818,0-1.229c0.409,0,0.819,0,1.229,0c0,0.41,0,0.819,0,1.229C118.902,35.013,118.492,35.013,118.083,35.013
					L118.083,35.013z M124.174,36.535c0-0.41,0-0.819,0-1.229c0.409,0,0.819,0,1.229,0c0,0.409,0,0.818,0,1.229
					C124.993,36.535,124.583,36.535,124.174,36.535L124.174,36.535z M122.65,35.013c0-0.409,0-0.818,0-1.229
					c0.408,0,0.818,0,1.229,0c0,0.41,0,0.819,0,1.229C123.471,35.013,123.061,35.013,122.65,35.013L122.65,35.013z M121.129,35.013
					c0-0.409,0-0.818,0-1.229c0.408,0,0.816,0,1.229,0c0,0.41,0,0.819,0,1.229C121.945,35.013,121.537,35.013,121.129,35.013
					L121.129,35.013z M119.604,35.013c0-0.409,0-0.818,0-1.229c0.41,0,0.818,0,1.229,0c0,0.41,0,0.819,0,1.229
					C120.423,35.013,120.014,35.013,119.604,35.013L119.604,35.013z M118.083,36.535c0-0.41,0-0.819,0-1.229
					c0.409,0,0.817,0,1.229,0c0,0.409,0,0.818,0,1.229C118.9,36.535,118.492,36.535,118.083,36.535L118.083,36.535z M118.083,38.059
					c0-0.409,0-0.818,0-1.228c0.409,0,0.817,0,1.229,0c0,0.409,0,0.818,0,1.228C118.9,38.059,118.492,38.059,118.083,38.059
					L118.083,38.059z M124.174,42.626c0-0.409,0-0.818,0-1.228c0.409,0,0.819,0,1.229,0c0,0.409,0,0.818,0,1.228
					C124.993,42.626,124.583,42.626,124.174,42.626L124.174,42.626z M124.174,41.104c0-0.409,0-0.819,0-1.229
					c0.409,0,0.819,0,1.229,0c0,0.409,0,0.819,0,1.229C124.993,41.104,124.583,41.104,124.174,41.104L124.174,41.104z
					 M122.65,39.581c0-0.409,0-0.819,0-1.229c0.408,0,0.818,0,1.229,0c0,0.409,0,0.819,0,1.229
					C123.471,39.581,123.061,39.581,122.65,39.581L122.65,39.581z M121.129,39.581c0-0.409,0-0.819,0-1.229c0.408,0,0.816,0,1.229,0
					c0,0.409,0,0.819,0,1.229C121.945,39.581,121.537,39.581,121.129,39.581L121.129,39.581z M119.604,39.581
					c0-0.409,0-0.819,0-1.229c0.41,0,0.818,0,1.229,0c0,0.409,0,0.819,0,1.229C120.423,39.581,120.014,39.581,119.604,39.581
					L119.604,39.581z M118.083,41.104c0-0.409,0-0.819,0-1.229c0.409,0,0.817,0,1.229,0c0,0.409,0,0.819,0,1.229
					C118.9,41.104,118.492,41.104,118.083,41.104L118.083,41.104z M118.083,42.626c0-0.409,0-0.818,0-1.228c0.409,0,0.817,0,1.229,0
					c0,0.409,0,0.818,0,1.228C118.9,42.626,118.492,42.626,118.083,42.626L118.083,42.626z M119.604,44.15c0-0.409,0-0.819,0-1.229
					c0.41,0,0.818,0,1.229,0c0,0.409,0,0.819,0,1.229C120.423,44.15,120.014,44.15,119.604,44.15L119.604,44.15z M121.129,44.15
					c0-0.409,0-0.819,0-1.229c0.408,0,0.816,0,1.229,0c0,0.409,0,0.819,0,1.229C121.945,44.15,121.537,44.15,121.129,44.15
					L121.129,44.15z M122.65,44.15c0-0.409,0-0.819,0-1.229c0.408,0,0.818,0,1.229,0c0,0.409,0,0.819,0,1.229
					C123.471,44.15,123.061,44.15,122.65,44.15z"/>
				<path fill="#B7D433" d="M115.823,38.059c0-0.409,0-0.818,0-1.228c0.409,0,0.817,0,1.229,0c0,0.409,0,0.818,0,1.228
					C116.643,38.059,116.232,38.059,115.823,38.059L115.823,38.059z M115.823,39.568c0-0.409,0-0.818,0-1.229
					c0.409,0,0.817,0,1.229,0c0,0.41,0,0.819,0,1.229C116.643,39.568,116.232,39.568,115.823,39.568L115.823,39.568z M109.73,39.568
					c0-0.409,0-0.818,0-1.229c0.41,0,0.82,0,1.229,0c0,0.41,0,0.819,0,1.229C110.552,39.568,110.143,39.568,109.73,39.568
					L109.73,39.568z M109.73,44.15c0-0.409,0-0.819,0-1.229c0.41,0,0.82,0,1.229,0c0,0.409,0,0.819,0,1.229
					C110.552,44.15,110.143,44.15,109.73,44.15L109.73,44.15z M115.823,44.15c0-0.409,0-0.819,0-1.229c0.409,0,0.817,0,1.229,0
					c0,0.409,0,0.819,0,1.229C116.643,44.15,116.232,44.15,115.823,44.15L115.823,44.15z M115.823,35.013c0-0.409,0-0.818,0-1.229
					c0.409,0,0.817,0,1.229,0c0,0.41,0,0.819,0,1.229C116.643,35.013,116.232,35.013,115.823,35.013L115.823,35.013z M109.73,35.013
					c0-0.409,0-0.818,0-1.229c0.41,0,0.82,0,1.229,0c0,0.41,0,0.819,0,1.229C110.552,35.013,110.143,35.013,109.73,35.013
					L109.73,35.013z M115.823,36.535c0-0.41,0-0.819,0-1.229c0.409,0,0.817,0,1.229,0c0,0.409,0,0.818,0,1.229
					C116.643,36.535,116.232,36.535,115.823,36.535L115.823,36.535z M114.3,35.013c0-0.409,0-0.818,0-1.229c0.409,0,0.818,0,1.228,0
					c0,0.41,0,0.819,0,1.229C115.118,35.013,114.709,35.013,114.3,35.013L114.3,35.013z M112.777,35.013c0-0.409,0-0.818,0-1.229
					c0.408,0,0.818,0,1.229,0c0,0.41,0,0.819,0,1.229C113.596,35.013,113.188,35.013,112.777,35.013L112.777,35.013z
					 M111.254,35.013c0-0.409,0-0.818,0-1.229c0.408,0,0.818,0,1.229,0c0,0.41,0,0.819,0,1.229
					C112.072,35.013,111.662,35.013,111.254,35.013L111.254,35.013z M114.3,39.581c0-0.409,0-0.819,0-1.229c0.409,0,0.818,0,1.228,0
					c0,0.409,0,0.819,0,1.229C115.118,39.581,114.709,39.581,114.3,39.581L114.3,39.581z M112.777,39.581c0-0.409,0-0.819,0-1.229
					c0.408,0,0.818,0,1.229,0c0,0.409,0,0.819,0,1.229C113.596,39.581,113.188,39.581,112.777,39.581L112.777,39.581z
					 M111.254,39.581c0-0.409,0-0.819,0-1.229c0.408,0,0.818,0,1.229,0c0,0.409,0,0.819,0,1.229
					C112.072,39.581,111.662,39.581,111.254,39.581L111.254,39.581z M109.73,41.104c0-0.409,0-0.819,0-1.229c0.41,0,0.819,0,1.229,0
					c0,0.409,0,0.819,0,1.229C110.551,41.104,110.143,41.104,109.73,41.104L109.73,41.104z M109.73,42.626c0-0.409,0-0.818,0-1.228
					c0.41,0,0.819,0,1.229,0c0,0.409,0,0.818,0,1.228C110.551,42.626,110.143,42.626,109.73,42.626L109.73,42.626z M111.254,44.15
					c0-0.409,0-0.819,0-1.229c0.408,0,0.818,0,1.229,0c0,0.409,0,0.819,0,1.229C112.072,44.15,111.662,44.15,111.254,44.15
					L111.254,44.15z M112.777,44.15c0-0.409,0-0.819,0-1.229c0.408,0,0.818,0,1.229,0c0,0.409,0,0.819,0,1.229
					C113.596,44.15,113.188,44.15,112.777,44.15L112.777,44.15z M114.3,44.15c0-0.409,0-0.819,0-1.229c0.409,0,0.818,0,1.228,0
					c0,0.409,0,0.819,0,1.229C115.118,44.15,114.709,44.15,114.3,44.15z"/>
				<path fill="#B7D433" d="M95.24,38.059c0-0.409,0-0.818,0-1.228c0.409,0,0.818,0,1.229,0c0,0.409,0,0.818,0,1.228
					C96.059,38.059,95.649,38.059,95.24,38.059L95.24,38.059z M95.24,39.568c0-0.409,0-0.818,0-1.229c0.409,0,0.818,0,1.229,0
					c0,0.41,0,0.819,0,1.229C96.059,39.568,95.649,39.568,95.24,39.568L95.24,39.568z M89.148,39.568c0-0.409,0-0.818,0-1.229
					c0.41,0,0.819,0,1.229,0c0,0.41,0,0.819,0,1.229C89.968,39.568,89.559,39.568,89.148,39.568L89.148,39.568z M89.148,44.15
					c0-0.409,0-0.819,0-1.229c0.41,0,0.819,0,1.229,0c0,0.409,0,0.819,0,1.229C89.968,44.15,89.559,44.15,89.148,44.15L89.148,44.15
					z M95.24,44.15c0-0.409,0-0.819,0-1.229c0.409,0,0.818,0,1.229,0c0,0.409,0,0.819,0,1.229
					C96.059,44.15,95.649,44.15,95.24,44.15L95.24,44.15z M95.24,35.013c0-0.409,0-0.818,0-1.229c0.409,0,0.818,0,1.229,0
					c0,0.41,0,0.819,0,1.229C96.059,35.013,95.649,35.013,95.24,35.013L95.24,35.013z M89.148,35.013c0-0.409,0-0.818,0-1.229
					c0.41,0,0.819,0,1.229,0c0,0.41,0,0.819,0,1.229C89.968,35.013,89.559,35.013,89.148,35.013L89.148,35.013z M95.24,36.535
					c0-0.41,0-0.819,0-1.229c0.409,0,0.818,0,1.229,0c0,0.409,0,0.818,0,1.229C96.059,36.535,95.649,36.535,95.24,36.535
					L95.24,36.535z M93.717,35.013c0-0.409,0-0.818,0-1.229c0.409,0,0.817,0,1.229,0c0,0.41,0,0.819,0,1.229
					C94.534,35.013,94.126,35.013,93.717,35.013L93.717,35.013z M92.193,35.013c0-0.409,0-0.818,0-1.229c0.411,0,0.819,0,1.229,0
					c0,0.41,0,0.819,0,1.229C93.013,35.013,92.604,35.013,92.193,35.013L92.193,35.013z M90.67,35.013c0-0.409,0-0.818,0-1.229
					c0.41,0,0.819,0,1.229,0c0,0.41,0,0.819,0,1.229C91.489,35.013,91.08,35.013,90.67,35.013L90.67,35.013z M95.24,42.626
					c0-0.409,0-0.818,0-1.228c0.409,0,0.818,0,1.229,0c0,0.409,0,0.818,0,1.228C96.059,42.626,95.649,42.626,95.24,42.626
					L95.24,42.626z M95.24,41.104c0-0.409,0-0.819,0-1.229c0.409,0,0.818,0,1.229,0c0,0.409,0,0.819,0,1.229
					C96.059,41.104,95.649,41.104,95.24,41.104L95.24,41.104z M93.717,39.581c0-0.409,0-0.819,0-1.229c0.409,0,0.817,0,1.229,0
					c0,0.409,0,0.819,0,1.229C94.534,39.581,94.126,39.581,93.717,39.581L93.717,39.581z M92.193,39.581c0-0.409,0-0.819,0-1.229
					c0.411,0,0.819,0,1.229,0c0,0.409,0,0.819,0,1.229C93.013,39.581,92.604,39.581,92.193,39.581L92.193,39.581z M90.67,39.581
					c0-0.409,0-0.819,0-1.229c0.41,0,0.819,0,1.229,0c0,0.409,0,0.819,0,1.229C91.489,39.581,91.08,39.581,90.67,39.581
					L90.67,39.581z M90.67,44.15c0-0.409,0-0.819,0-1.229c0.41,0,0.819,0,1.229,0c0,0.409,0,0.819,0,1.229
					C91.489,44.15,91.08,44.15,90.67,44.15L90.67,44.15z M92.193,44.15c0-0.409,0-0.819,0-1.229c0.411,0,0.819,0,1.229,0
					c0,0.409,0,0.819,0,1.229C93.013,44.15,92.604,44.15,92.193,44.15L92.193,44.15z M93.717,44.15c0-0.409,0-0.819,0-1.229
					c0.409,0,0.817,0,1.229,0c0,0.409,0,0.819,0,1.229C94.534,44.15,94.126,44.15,93.717,44.15z"/>
				<path fill="#B7D433" d="M124.174,38.059c0-0.409,0-0.818,0-1.228c0.409,0,0.819,0,1.229,0c0,0.409,0,0.818,0,1.228
					C124.993,38.059,124.583,38.059,124.174,38.059L124.174,38.059z M124.173,39.568c0-0.409,0-0.818,0-1.229c0.41,0,0.82,0,1.229,0
					c0,0.41,0,0.819,0,1.229C124.993,39.568,124.583,39.568,124.173,39.568L124.173,39.568z M124.173,44.15c0-0.409,0-0.819,0-1.229
					c0.41,0,0.82,0,1.229,0c0,0.409,0,0.819,0,1.229C124.993,44.15,124.583,44.15,124.173,44.15L124.173,44.15z M124.173,35.013
					c0-0.409,0-0.818,0-1.229c0.41,0,0.82,0,1.229,0c0,0.41,0,0.819,0,1.229C124.993,35.013,124.583,35.013,124.173,35.013
					L124.173,35.013z M118.083,35.013c0-0.409,0-0.818,0-1.229c0.409,0,0.819,0,1.229,0c0,0.41,0,0.819,0,1.229
					C118.902,35.013,118.492,35.013,118.083,35.013L118.083,35.013z M124.174,36.535c0-0.41,0-0.819,0-1.229
					c0.409,0,0.819,0,1.229,0c0,0.409,0,0.818,0,1.229C124.993,36.535,124.583,36.535,124.174,36.535L124.174,36.535z
					 M122.65,35.013c0-0.409,0-0.818,0-1.229c0.408,0,0.818,0,1.229,0c0,0.41,0,0.819,0,1.229
					C123.471,35.013,123.061,35.013,122.65,35.013L122.65,35.013z M121.129,35.013c0-0.409,0-0.818,0-1.229c0.408,0,0.816,0,1.229,0
					c0,0.41,0,0.819,0,1.229C121.945,35.013,121.537,35.013,121.129,35.013L121.129,35.013z M119.604,35.013
					c0-0.409,0-0.818,0-1.229c0.41,0,0.818,0,1.229,0c0,0.41,0,0.819,0,1.229C120.423,35.013,120.014,35.013,119.604,35.013
					L119.604,35.013z M124.174,42.626c0-0.409,0-0.818,0-1.228c0.409,0,0.819,0,1.229,0c0,0.409,0,0.818,0,1.228
					C124.993,42.626,124.583,42.626,124.174,42.626L124.174,42.626z M124.174,41.104c0-0.409,0-0.819,0-1.229
					c0.409,0,0.819,0,1.229,0c0,0.409,0,0.819,0,1.229C124.993,41.104,124.583,41.104,124.174,41.104z"/>
				<path fill="#B7D433" d="M103.591,38.059c0-0.409,0-0.818,0-1.228c0.409,0,0.818,0,1.229,0c0,0.409,0,0.818,0,1.228
					C104.409,38.059,104,38.059,103.591,38.059L103.591,38.059z M103.591,39.568c0-0.409,0-0.818,0-1.229c0.409,0,0.818,0,1.229,0
					c0,0.41,0,0.819,0,1.229C104.409,39.568,104,39.568,103.591,39.568L103.591,39.568z M103.591,44.15c0-0.409,0-0.819,0-1.229
					c0.409,0,0.818,0,1.229,0c0,0.409,0,0.819,0,1.229C104.409,44.15,104,44.15,103.591,44.15L103.591,44.15z M103.591,35.013
					c0-0.409,0-0.818,0-1.229c0.409,0,0.818,0,1.229,0c0,0.41,0,0.819,0,1.229C104.409,35.013,104,35.013,103.591,35.013
					L103.591,35.013z M103.591,36.535c0-0.41,0-0.819,0-1.229c0.409,0,0.818,0,1.229,0c0,0.409,0,0.818,0,1.229
					C104.409,36.535,104,36.535,103.591,36.535L103.591,36.535z M102.067,35.013c0-0.409,0-0.818,0-1.229c0.409,0,0.818,0,1.229,0
					c0,0.41,0,0.819,0,1.229C102.886,35.013,102.477,35.013,102.067,35.013L102.067,35.013z M103.591,42.626
					c0-0.409,0-0.818,0-1.228c0.409,0,0.818,0,1.229,0c0,0.409,0,0.818,0,1.228C104.409,42.626,104,42.626,103.591,42.626
					L103.591,42.626z M103.591,41.104c0-0.409,0-0.819,0-1.229c0.409,0,0.818,0,1.229,0c0,0.409,0,0.819,0,1.229
					C104.409,41.104,104,41.104,103.591,41.104z"/>
				<path fill="#B7D433" d="M106.625,38.059c0-0.409,0-0.818,0-1.228c0.409,0,0.818,0,1.229,0c0,0.409,0,0.818,0,1.228
					C107.443,38.059,107.034,38.059,106.625,38.059L106.625,38.059z M106.604,42.627c0-0.409,0-0.819,0-1.229
					c0.41,0,0.818,0,1.229,0c0,0.409,0,0.819,0,1.229C107.422,42.627,107.014,42.627,106.604,42.627z"/>
				<path fill="#FFFFFF" d="M84.611,29.955h43.944c0.297,0,0.538,0.245,0.538,0.546v0.336c0-0.3-0.241-0.544-0.538-0.544H84.611
					c-0.297,0-0.539,0.244-0.539,0.544v-0.336C84.072,30.2,84.314,29.955,84.611,29.955z"/>
				
					<linearGradient id="SVGID_26_" gradientUnits="userSpaceOnUse" x1="306.5703" y1="-118.3755" x2="306.5703" y2="-92.6863" gradientTransform="matrix(1 0 0 -1 -200 -77)">
					<stop  offset="0" style="stop-color:#000000"/>
					<stop  offset="1" style="stop-color:#FFFFFF"/>
				</linearGradient>
				<path fill="url(#SVGID_26_)" d="M87.016,31.777h39.107c0.208,0,0.378,0.17,0.378,0.377v0.421c0-0.207-0.17-0.378-0.378-0.378
					H87.016c-0.207,0-0.377,0.171-0.377,0.378v-0.421C86.639,31.947,86.809,31.777,87.016,31.777z"/>
				
					<linearGradient id="SVGID_27_" gradientUnits="userSpaceOnUse" x1="306.5703" y1="-121.29" x2="306.5703" y2="-123.5226" gradientTransform="matrix(1 0 0 -1 -200 -77)">
					<stop  offset="0" style="stop-color:#000000"/>
					<stop  offset="1" style="stop-color:#2F653B"/>
				</linearGradient>
				<path fill="url(#SVGID_27_)" d="M87.016,46.115h39.107c0.208,0,0.378-0.17,0.378-0.378v-0.42c0,0.207-0.17,0.377-0.378,0.377
					H87.016c-0.207,0-0.377-0.17-0.377-0.377v0.42C86.639,45.946,86.809,46.115,87.016,46.115z"/>
			</g>
			<g>
				<path fill="#0D68AA" d="M48.185,129.309c1.101,0,2.025,0.187,2.775,0.556c0.75,0.37,1.354,0.854,1.815,1.454
					c0.459,0.601,0.789,1.285,0.989,2.056c0.2,0.771,0.301,1.556,0.301,2.354c0,1.101-0.165,2.062-0.495,2.881
					c-0.33,0.82-0.791,1.49-1.38,2.011c-0.591,0.521-1.306,0.909-2.146,1.17c-0.84,0.26-1.77,0.39-2.79,0.39h-2.31v8.551h-4.32
					v-21.42h7.561V129.309z M46.865,138.998c0.859,0,1.555-0.26,2.085-0.779c0.529-0.52,0.795-1.33,0.795-2.43
					c0-1.08-0.23-1.9-0.69-2.461c-0.46-0.559-1.229-0.84-2.31-0.84h-1.8v6.51H46.865z"/>
				<path fill="#0D68AA" d="M60.035,134.588v2.16h0.061c0.42-0.779,0.93-1.404,1.529-1.875c0.601-0.469,1.33-0.705,2.19-0.705
					c0.12,0,0.244,0.006,0.375,0.016c0.13,0.01,0.255,0.025,0.375,0.045v3.961c-0.221-0.021-0.436-0.034-0.646-0.045
					s-0.425-0.016-0.645-0.016c-0.36,0-0.72,0.051-1.08,0.148c-0.36,0.102-0.69,0.267-0.99,0.496c-0.3,0.229-0.54,0.529-0.72,0.899
					c-0.18,0.37-0.271,0.824-0.271,1.365v9.688h-4.14v-16.141h3.962V134.588z"/>
				<path fill="#0D68AA" d="M65.854,138.998c0.22-1.061,0.58-1.943,1.08-2.654c0.5-0.71,1.155-1.25,1.965-1.619
					c0.811-0.371,1.805-0.557,2.985-0.557c1.239-0.02,2.27,0.146,3.09,0.496c0.819,0.35,1.47,0.885,1.95,1.604
					c0.479,0.721,0.819,1.61,1.02,2.67c0.2,1.062,0.3,2.301,0.3,3.721c0,1.381-0.109,2.601-0.329,3.66
					c-0.221,1.061-0.581,1.945-1.08,2.654c-0.501,0.711-1.155,1.235-1.966,1.575c-0.81,0.341-1.805,0.511-2.984,0.511
					c-1.24,0.02-2.271-0.136-3.09-0.466c-0.82-0.329-1.471-0.85-1.95-1.561c-0.48-0.709-0.82-1.601-1.021-2.671
					c-0.2-1.068-0.3-2.305-0.3-3.704C65.524,141.277,65.634,140.059,65.854,138.998z M69.725,144.938
					c0.04,0.701,0.135,1.301,0.285,1.801c0.149,0.5,0.375,0.891,0.675,1.17c0.3,0.281,0.7,0.42,1.2,0.42
					c0.84,0,1.42-0.439,1.74-1.32c0.319-0.879,0.479-2.328,0.479-4.35c0-2.02-0.16-3.469-0.479-4.35c-0.32-0.881-0.9-1.32-1.74-1.32
					c-0.5,0-0.9,0.141-1.2,0.42c-0.3,0.281-0.525,0.67-0.675,1.17c-0.15,0.5-0.245,1.101-0.285,1.801
					c-0.04,0.699-0.06,1.46-0.06,2.279C69.665,143.479,69.685,144.238,69.725,144.938z"/>
				<path fill="#0D68AA" d="M84.425,134.588v1.891h0.061c0.439-0.799,1.01-1.385,1.71-1.754c0.699-0.371,1.5-0.557,2.399-0.557
					c1.32,0,2.335,0.359,3.045,1.08s1.065,1.891,1.065,3.51v11.971h-4.14V139.6c0-0.842-0.141-1.426-0.421-1.756
					c-0.28-0.33-0.729-0.494-1.35-0.494c-1.46,0-2.19,0.889-2.19,2.67v10.709h-4.14v-16.141H84.425L84.425,134.588z"/>
				<path fill="#0D68AA" d="M95.255,138.998c0.22-1.061,0.58-1.943,1.08-2.654c0.5-0.71,1.155-1.25,1.965-1.619
					c0.811-0.371,1.805-0.557,2.985-0.557c1.239-0.02,2.27,0.146,3.09,0.496c0.819,0.35,1.47,0.885,1.95,1.604
					c0.479,0.721,0.819,1.61,1.021,2.67c0.199,1.062,0.299,2.301,0.299,3.721c0,1.381-0.108,2.601-0.328,3.66
					c-0.221,1.061-0.582,1.945-1.081,2.654c-0.501,0.711-1.155,1.235-1.966,1.575c-0.81,0.341-1.805,0.511-2.984,0.511
					c-1.24,0.02-2.271-0.136-3.09-0.466c-0.82-0.329-1.471-0.85-1.95-1.561c-0.48-0.709-0.82-1.601-1.021-2.671
					c-0.2-1.068-0.3-2.305-0.3-3.704C94.925,141.277,95.034,140.059,95.255,138.998z M99.125,144.938
					c0.04,0.701,0.135,1.301,0.285,1.801c0.149,0.5,0.375,0.891,0.675,1.17c0.3,0.281,0.7,0.42,1.2,0.42
					c0.84,0,1.42-0.439,1.74-1.32c0.319-0.879,0.479-2.328,0.479-4.35c0-2.02-0.16-3.469-0.479-4.35c-0.32-0.881-0.9-1.32-1.74-1.32
					c-0.5,0-0.9,0.141-1.2,0.42c-0.3,0.281-0.525,0.67-0.675,1.17c-0.15,0.5-0.245,1.101-0.285,1.801
					c-0.04,0.699-0.06,1.46-0.06,2.279C99.065,143.479,99.085,144.238,99.125,144.938z"/>
				<path fill="#0D68AA" d="M112.895,145.988c0,0.701,0.186,1.266,0.556,1.695c0.37,0.428,0.905,0.645,1.604,0.645
					c0.641,0,1.149-0.16,1.529-0.479c0.38-0.319,0.57-0.801,0.57-1.44c0-0.521-0.15-0.914-0.45-1.185
					c-0.3-0.271-0.649-0.485-1.05-0.646l-2.91-1.051c-1.141-0.398-2-0.963-2.58-1.693s-0.87-1.666-0.87-2.807
					c0-0.658,0.11-1.283,0.33-1.875c0.22-0.588,0.569-1.104,1.051-1.545c0.479-0.438,1.095-0.789,1.845-1.049
					c0.75-0.261,1.654-0.392,2.715-0.392c1.881,0,3.271,0.399,4.17,1.201c0.9,0.799,1.351,1.93,1.351,3.389v0.66h-3.72
					c0-0.84-0.135-1.455-0.405-1.844c-0.271-0.392-0.745-0.587-1.425-0.587c-0.521,0-0.975,0.146-1.364,0.437
					c-0.391,0.29-0.586,0.726-0.586,1.306c0,0.399,0.125,0.76,0.375,1.08c0.25,0.319,0.726,0.59,1.427,0.811l2.488,0.84
					c1.301,0.439,2.221,1.016,2.762,1.725c0.539,0.711,0.81,1.676,0.81,2.896c0,0.86-0.149,1.604-0.45,2.235
					c-0.3,0.629-0.715,1.154-1.245,1.574c-0.528,0.42-1.16,0.721-1.89,0.9c-0.73,0.18-1.535,0.27-2.415,0.27
					c-1.16,0-2.125-0.109-2.896-0.33c-0.771-0.22-1.38-0.549-1.83-0.989c-0.449-0.439-0.766-0.976-0.945-1.605
					c-0.18-0.629-0.27-1.334-0.27-2.114v-0.568h3.721v0.537H112.895z"/>
				<path fill="#0D68AA" d="M128.225,129.969v4.619h2.399v2.82h-2.399v8.73c0,0.641,0.094,1.094,0.284,1.364
					c0.189,0.271,0.585,0.404,1.185,0.404c0.16,0,0.32-0.005,0.48-0.015c0.16-0.011,0.311-0.024,0.45-0.045v2.879
					c-0.461,0-0.905,0.017-1.335,0.045c-0.432,0.03-0.887,0.045-1.365,0.045c-0.8,0-1.455-0.055-1.965-0.164
					c-0.512-0.109-0.9-0.329-1.17-0.659c-0.271-0.33-0.455-0.767-0.557-1.306c-0.1-0.541-0.148-1.221-0.148-2.041v-9.239h-2.102
					v-2.82h2.102v-4.619L128.225,129.969L128.225,129.969z"/>
				<path fill="#0D68AA" d="M136.354,129.068v3.539h-4.14v-3.539H136.354z M136.354,134.588v16.141h-4.14v-16.141H136.354z"/>
				<path fill="#0D68AA" d="M146.959,139.238c-0.051-0.379-0.141-0.725-0.271-1.035c-0.129-0.311-0.313-0.559-0.555-0.75
					c-0.24-0.189-0.561-0.285-0.96-0.285c-0.5,0-0.909,0.115-1.229,0.346c-0.319,0.23-0.561,0.57-0.721,1.021
					s-0.27,1.021-0.33,1.711c-0.06,0.688-0.09,1.504-0.09,2.444c0,1,0.03,1.854,0.09,2.564c0.062,0.71,0.17,1.295,0.33,1.754
					c0.16,0.461,0.385,0.797,0.676,1.006c0.289,0.211,0.664,0.314,1.125,0.314c0.699,0,1.209-0.301,1.529-0.898
					c0.319-0.602,0.48-1.561,0.48-2.881h3.96c0,2.119-0.476,3.734-1.427,4.846c-0.949,1.11-2.523,1.664-4.725,1.664
					c-1.039,0-1.945-0.125-2.715-0.375c-0.771-0.25-1.41-0.699-1.92-1.35s-0.896-1.52-1.154-2.609
					c-0.261-1.091-0.391-2.445-0.391-4.065c0-1.66,0.158-3.034,0.479-4.125s0.771-1.959,1.352-2.609
					c0.578-0.649,1.27-1.104,2.068-1.364c0.799-0.261,1.682-0.392,2.642-0.392c1.92,0,3.364,0.562,4.335,1.681
					c0.97,1.12,1.455,2.641,1.455,4.561h-3.96C147.034,140.009,147.009,139.619,146.959,139.238z"/>
				<path fill="#0D68AA" d="M153.123,139.148c0-0.939,0.15-1.726,0.45-2.355c0.3-0.629,0.704-1.141,1.215-1.529
					c0.511-0.391,1.11-0.67,1.801-0.84c0.688-0.17,1.425-0.256,2.204-0.256c1.24,0,2.24,0.121,3,0.359
					c0.762,0.24,1.352,0.582,1.771,1.021c0.42,0.44,0.705,0.965,0.854,1.574c0.15,0.611,0.227,1.275,0.227,1.996v8.488
					c0,0.762,0.033,1.352,0.104,1.771s0.205,0.869,0.404,1.35h-3.959c-0.141-0.26-0.246-0.535-0.314-0.824
					c-0.07-0.29-0.136-0.575-0.195-0.854h-0.061c-0.479,0.841-1.034,1.386-1.665,1.636c-0.63,0.25-1.444,0.375-2.444,0.375
					c-0.721,0-1.33-0.125-1.83-0.375s-0.899-0.596-1.199-1.035c-0.301-0.439-0.521-0.936-0.66-1.484
					c-0.141-0.551-0.211-1.096-0.211-1.637c0-0.76,0.08-1.414,0.24-1.965c0.16-0.549,0.405-1.021,0.735-1.41
					c0.329-0.389,0.75-0.715,1.261-0.975c0.51-0.26,1.125-0.49,1.844-0.689l2.341-0.631c0.62-0.158,1.05-0.379,1.29-0.658
					c0.24-0.281,0.359-0.691,0.359-1.23c0-0.619-0.146-1.104-0.436-1.455c-0.29-0.35-0.785-0.524-1.484-0.524
					c-0.641,0-1.119,0.19-1.439,0.569c-0.32,0.381-0.479,0.892-0.479,1.529v0.451h-3.721L153.123,139.148L153.123,139.148z
					 M159.783,143.184c-0.32,0.131-0.61,0.226-0.87,0.285c-0.84,0.18-1.438,0.48-1.8,0.9c-0.359,0.42-0.54,0.988-0.54,1.709
					c0,0.621,0.12,1.15,0.36,1.59c0.239,0.441,0.64,0.66,1.199,0.66c0.279,0,0.569-0.045,0.87-0.135
					c0.3-0.09,0.574-0.234,0.824-0.437c0.25-0.198,0.455-0.459,0.614-0.778c0.16-0.32,0.24-0.699,0.24-1.142v-3.18
					C160.402,142.879,160.104,143.055,159.783,143.184z"/>
				<path fill="#0D68AA" d="M171.543,134.588v2.16h0.061c0.42-0.779,0.931-1.404,1.529-1.875c0.602-0.469,1.33-0.705,2.19-0.705
					c0.12,0,0.243,0.006,0.375,0.016c0.13,0.01,0.255,0.025,0.375,0.045v3.961c-0.222-0.021-0.437-0.034-0.646-0.045
					c-0.211-0.011-0.426-0.016-0.646-0.016c-0.36,0-0.72,0.051-1.08,0.148c-0.36,0.102-0.69,0.267-0.99,0.496
					s-0.54,0.529-0.72,0.899s-0.271,0.824-0.271,1.365v9.688h-4.14v-16.141h3.962V134.588z"/>
				<path fill="#0D68AA" d="M41.96,158.588v1.65h0.061c0.52-0.739,1.104-1.271,1.755-1.59c0.649-0.32,1.425-0.48,2.325-0.48
					c0.96,0,1.765,0.221,2.414,0.66c0.65,0.439,1.085,1.08,1.306,1.92h0.06c0.32-0.859,0.835-1.504,1.545-1.936
					c0.71-0.43,1.555-0.646,2.535-0.646c1.38,0,2.395,0.416,3.045,1.246c0.65,0.83,0.976,2.024,0.976,3.584v11.729H53.84v-11.278
					c0-0.681-0.125-1.201-0.375-1.562c-0.25-0.359-0.665-0.539-1.245-0.539c-0.659,0-1.185,0.219-1.574,0.658
					c-0.391,0.441-0.585,1.141-0.585,2.102v10.619H45.92v-11.278c0-0.681-0.125-1.201-0.375-1.562
					c-0.25-0.359-0.665-0.539-1.245-0.539c-0.66,0-1.185,0.219-1.574,0.658c-0.391,0.441-0.586,1.141-0.586,2.102v10.619H38v-16.141
					h3.96V158.588z"/>
				<path fill="#0D68AA" d="M60.71,163.148c0-0.939,0.15-1.726,0.45-2.355c0.3-0.629,0.705-1.141,1.215-1.529
					c0.511-0.391,1.11-0.67,1.801-0.84c0.689-0.17,1.425-0.256,2.204-0.256c1.24,0,2.24,0.121,3,0.359
					c0.761,0.24,1.351,0.582,1.771,1.021c0.42,0.44,0.705,0.965,0.854,1.574c0.15,0.611,0.226,1.275,0.226,1.996v8.488
					c0,0.762,0.034,1.352,0.104,1.771s0.205,0.869,0.405,1.35h-3.96c-0.14-0.26-0.245-0.535-0.314-0.824
					c-0.07-0.29-0.136-0.575-0.195-0.854H68.21c-0.479,0.841-1.034,1.386-1.665,1.636c-0.63,0.25-1.444,0.375-2.444,0.375
					c-0.721,0-1.33-0.125-1.83-0.375s-0.9-0.596-1.2-1.035c-0.3-0.439-0.521-0.936-0.66-1.484c-0.14-0.551-0.21-1.096-0.21-1.637
					c0-0.76,0.08-1.414,0.24-1.965c0.16-0.549,0.405-1.021,0.735-1.41c0.329-0.389,0.75-0.715,1.26-0.975
					c0.51-0.26,1.125-0.49,1.845-0.689l2.34-0.631c0.62-0.158,1.05-0.379,1.29-0.658c0.24-0.281,0.36-0.691,0.36-1.23
					c0-0.619-0.146-1.104-0.436-1.455c-0.29-0.35-0.785-0.524-1.484-0.524c-0.641,0-1.12,0.19-1.44,0.569
					c-0.32,0.381-0.479,0.892-0.479,1.529v0.451H60.71V163.148z M67.37,167.184c-0.32,0.131-0.61,0.226-0.87,0.285
					c-0.84,0.18-1.439,0.48-1.8,0.9c-0.359,0.42-0.54,0.988-0.54,1.709c0,0.621,0.12,1.15,0.36,1.59c0.24,0.441,0.64,0.66,1.2,0.66
					c0.279,0,0.569-0.045,0.87-0.135c0.3-0.09,0.574-0.234,0.824-0.437c0.25-0.198,0.455-0.459,0.615-0.778
					c0.16-0.32,0.24-0.699,0.24-1.142v-3.18C67.99,166.879,67.69,167.055,67.37,167.184z"/>
				<path fill="#0D68AA" d="M79.13,158.588v2.16h0.061c0.42-0.779,0.93-1.404,1.529-1.875c0.601-0.469,1.33-0.705,2.19-0.705
					c0.12,0,0.244,0.006,0.375,0.016c0.13,0.01,0.255,0.025,0.375,0.045v3.961c-0.221-0.021-0.436-0.034-0.646-0.045
					s-0.425-0.016-0.645-0.016c-0.36,0-0.72,0.051-1.08,0.148c-0.36,0.102-0.69,0.267-0.99,0.496c-0.3,0.229-0.54,0.529-0.72,0.899
					c-0.18,0.37-0.271,0.824-0.271,1.365v9.688h-4.14v-16.141h3.962V158.588z"/>
				<path fill="#0D68AA" d="M92.854,163.238c-0.051-0.379-0.141-0.725-0.271-1.035s-0.314-0.559-0.555-0.75
					c-0.24-0.189-0.561-0.285-0.96-0.285c-0.5,0-0.91,0.115-1.23,0.346c-0.319,0.23-0.56,0.57-0.72,1.021
					c-0.16,0.45-0.27,1.021-0.33,1.711c-0.06,0.688-0.09,1.504-0.09,2.444c0,1,0.03,1.854,0.09,2.564
					c0.061,0.71,0.17,1.295,0.33,1.754c0.16,0.461,0.385,0.797,0.675,1.006c0.29,0.211,0.665,0.314,1.125,0.314
					c0.7,0,1.21-0.301,1.53-0.898c0.319-0.602,0.48-1.561,0.48-2.881h3.96c0,2.119-0.476,3.734-1.426,4.846
					c-0.95,1.11-2.524,1.664-4.725,1.664c-1.04,0-1.945-0.125-2.715-0.375c-0.771-0.25-1.41-0.699-1.92-1.35
					c-0.51-0.65-0.896-1.52-1.155-2.609c-0.26-1.091-0.39-2.445-0.39-4.065c0-1.66,0.159-3.034,0.479-4.125
					c0.32-1.091,0.77-1.959,1.351-2.609c0.579-0.649,1.27-1.104,2.069-1.364c0.799-0.261,1.681-0.392,2.641-0.392
					c1.92,0,3.364,0.562,4.335,1.681c0.97,1.12,1.455,2.641,1.455,4.561h-3.96C92.93,164.009,92.904,163.619,92.854,163.238z"/>
				<path fill="#0D68AA" d="M99.019,163.148c0-0.939,0.15-1.726,0.45-2.355c0.3-0.629,0.705-1.141,1.215-1.529
					c0.511-0.391,1.11-0.67,1.801-0.84c0.689-0.17,1.425-0.256,2.204-0.256c1.24,0,2.241,0.121,3,0.359
					c0.761,0.24,1.351,0.582,1.771,1.021c0.42,0.44,0.705,0.965,0.854,1.574c0.149,0.611,0.226,1.275,0.226,1.996v8.488
					c0,0.762,0.034,1.352,0.104,1.771c0.069,0.42,0.205,0.869,0.404,1.35h-3.96c-0.14-0.26-0.245-0.535-0.313-0.824
					c-0.07-0.29-0.137-0.575-0.195-0.854h-0.061c-0.479,0.841-1.035,1.386-1.666,1.636c-0.63,0.25-1.444,0.375-2.444,0.375
					c-0.721,0-1.33-0.125-1.83-0.375s-0.9-0.596-1.2-1.035c-0.3-0.439-0.521-0.936-0.66-1.484c-0.14-0.551-0.21-1.096-0.21-1.637
					c0-0.76,0.08-1.414,0.24-1.965c0.16-0.549,0.405-1.021,0.735-1.41c0.329-0.389,0.75-0.715,1.26-0.975
					c0.51-0.26,1.125-0.49,1.845-0.689l2.34-0.631c0.62-0.158,1.05-0.379,1.29-0.658c0.24-0.281,0.36-0.691,0.36-1.23
					c0-0.619-0.146-1.104-0.436-1.455c-0.29-0.35-0.785-0.524-1.484-0.524c-0.641,0-1.12,0.19-1.44,0.569
					c-0.32,0.381-0.479,0.892-0.479,1.529v0.451H99.02L99.019,163.148L99.019,163.148z M105.679,167.184
					c-0.32,0.131-0.61,0.226-0.87,0.285c-0.84,0.18-1.439,0.48-1.8,0.9c-0.359,0.42-0.54,0.988-0.54,1.709
					c0,0.621,0.12,1.15,0.36,1.59c0.24,0.441,0.64,0.66,1.2,0.66c0.279,0,0.569-0.045,0.87-0.135c0.3-0.09,0.574-0.234,0.824-0.437
					c0.25-0.198,0.455-0.459,0.615-0.778c0.16-0.32,0.24-0.699,0.24-1.142v-3.18C106.299,166.879,105.999,167.055,105.679,167.184z"
					/>
				<path fill="#0D68AA" d="M121.698,173.02c-0.46,0.76-0.976,1.289-1.546,1.59c-0.568,0.3-1.273,0.449-2.113,0.449
					c-1.7,0-2.951-0.649-3.75-1.949c-0.801-1.301-1.2-3.45-1.2-6.45s0.399-5.164,1.2-6.494c0.799-1.33,2.05-1.996,3.75-1.996
					c0.779,0,1.443,0.16,1.994,0.479c0.55,0.32,1.045,0.802,1.484,1.439h0.062v-6.779h4.14v21.42h-3.96v-1.709H121.698z
					 M117.634,170.633c0.271,0.891,0.854,1.336,1.755,1.336c0.92,0,1.516-0.445,1.785-1.336c0.27-0.889,0.405-2.215,0.405-3.975
					s-0.136-3.084-0.405-3.975c-0.271-0.891-0.865-1.336-1.785-1.336c-0.9,0-1.484,0.445-1.755,1.336s-0.405,2.215-0.405,3.975
					S117.363,169.744,117.634,170.633z"/>
				<path fill="#0D68AA" d="M128.27,162.998c0.219-1.061,0.58-1.943,1.08-2.654c0.5-0.71,1.154-1.25,1.965-1.619
					c0.811-0.371,1.805-0.557,2.984-0.557c1.239-0.02,2.27,0.146,3.09,0.496c0.819,0.35,1.471,0.885,1.95,1.604
					c0.479,0.721,0.819,1.61,1.021,2.67c0.199,1.062,0.3,2.301,0.3,3.721c0,1.381-0.109,2.601-0.329,3.66
					c-0.221,1.061-0.581,1.945-1.08,2.654c-0.501,0.711-1.154,1.235-1.966,1.575c-0.81,0.341-1.806,0.511-2.984,0.511
					c-1.239,0.02-2.271-0.136-3.09-0.466c-0.819-0.329-1.471-0.85-1.95-1.561c-0.48-0.709-0.82-1.601-1.021-2.671
					c-0.2-1.068-0.3-2.305-0.3-3.704C127.938,165.277,128.048,164.059,128.27,162.998z M132.139,168.938
					c0.041,0.701,0.135,1.301,0.285,1.801c0.149,0.5,0.375,0.891,0.676,1.17c0.299,0.281,0.699,0.42,1.199,0.42
					c0.84,0,1.42-0.439,1.74-1.32c0.318-0.879,0.479-2.328,0.479-4.35c0-2.02-0.16-3.469-0.479-4.35c-0.32-0.881-0.9-1.32-1.74-1.32
					c-0.5,0-0.9,0.141-1.199,0.42c-0.301,0.281-0.525,0.67-0.676,1.17s-0.244,1.101-0.285,1.801c-0.039,0.699-0.06,1.46-0.06,2.279
					C132.079,167.479,132.1,168.238,132.139,168.938z"/>
				<path fill="#0D68AA" d="M146.839,158.588v2.16h0.062c0.42-0.779,0.93-1.404,1.529-1.875c0.6-0.469,1.329-0.705,2.189-0.705
					c0.12,0,0.244,0.006,0.375,0.016c0.13,0.01,0.255,0.025,0.375,0.045v3.961c-0.221-0.021-0.436-0.034-0.646-0.045
					c-0.209-0.011-0.425-0.016-0.645-0.016c-0.36,0-0.721,0.051-1.08,0.148c-0.359,0.102-0.689,0.267-0.99,0.496
					c-0.3,0.229-0.54,0.529-0.72,0.899c-0.181,0.37-0.271,0.824-0.271,1.365v9.688h-4.141v-16.141h3.962V158.588z"/>
				<path fill="#0D68AA" d="M156.408,168.578c0,0.48,0.035,0.945,0.105,1.396c0.068,0.449,0.185,0.851,0.344,1.199
					c0.16,0.35,0.371,0.631,0.631,0.84c0.26,0.211,0.58,0.314,0.96,0.314c0.7,0,1.21-0.25,1.53-0.75
					c0.318-0.5,0.539-1.26,0.66-2.279h3.719c-0.08,1.881-0.58,3.311-1.5,4.289c-0.92,0.98-2.369,1.471-4.351,1.471
					c-1.5,0-2.67-0.25-3.51-0.75s-1.46-1.16-1.858-1.979c-0.4-0.819-0.646-1.74-0.736-2.761c-0.088-1.02-0.135-2.039-0.135-3.061
					c0-1.078,0.076-2.119,0.226-3.119s0.45-1.891,0.899-2.67c0.451-0.779,1.096-1.4,1.936-1.859c0.84-0.461,1.96-0.69,3.359-0.69
					c1.201,0,2.186,0.194,2.955,0.586c0.771,0.39,1.375,0.938,1.814,1.649c0.439,0.709,0.74,1.57,0.9,2.58
					c0.16,1.011,0.24,2.136,0.24,3.375v0.931h-8.19L156.408,168.578L156.408,168.578z M160.52,163.193
					c-0.062-0.471-0.166-0.869-0.315-1.199s-0.358-0.58-0.63-0.75c-0.27-0.17-0.615-0.256-1.035-0.256s-0.766,0.096-1.035,0.285
					s-0.484,0.439-0.645,0.75s-0.275,0.654-0.346,1.035c-0.07,0.379-0.104,0.76-0.104,1.141v0.629h4.229
					C160.618,164.209,160.578,163.664,160.52,163.193z"/>
				<path fill="#0D68AA" d="M169.789,169.988c0,0.701,0.186,1.266,0.555,1.695c0.37,0.428,0.905,0.645,1.605,0.645
					c0.64,0,1.148-0.16,1.529-0.479c0.379-0.319,0.569-0.801,0.569-1.44c0-0.521-0.149-0.914-0.45-1.185
					c-0.3-0.271-0.648-0.485-1.05-0.646l-2.909-1.051c-1.141-0.398-2-0.963-2.58-1.693s-0.871-1.666-0.871-2.807
					c0-0.658,0.11-1.283,0.33-1.875c0.221-0.588,0.57-1.104,1.051-1.545c0.479-0.438,1.096-0.789,1.846-1.049
					c0.75-0.261,1.654-0.392,2.715-0.392c1.88,0,3.27,0.399,4.17,1.201c0.9,0.799,1.35,1.93,1.35,3.389v0.66h-3.719
					c0-0.84-0.136-1.455-0.406-1.844c-0.27-0.392-0.744-0.587-1.424-0.587c-0.521,0-0.976,0.146-1.365,0.437
					c-0.391,0.29-0.586,0.726-0.586,1.306c0,0.399,0.125,0.76,0.375,1.08c0.25,0.319,0.727,0.59,1.427,0.811l2.489,0.84
					c1.299,0.439,2.221,1.016,2.761,1.725c0.54,0.711,0.81,1.676,0.81,2.896c0,0.86-0.148,1.604-0.449,2.235
					c-0.301,0.629-0.715,1.154-1.246,1.574c-0.528,0.42-1.16,0.721-1.89,0.9s-1.534,0.27-2.415,0.27c-1.16,0-2.125-0.109-2.895-0.33
					c-0.771-0.22-1.381-0.549-1.83-0.989c-0.45-0.439-0.766-0.976-0.945-1.605c-0.18-0.629-0.27-1.334-0.27-2.114v-0.568h3.72
					L169.789,169.988L169.789,169.988z"/>
			</g>
		</g>
	</g>
</g>
</svg>
