<?xml version="1.0" encoding="utf-8"?>
<!-- Generator: Adobe Illustrator 16.0.0, SVG Export Plug-In . SVG Version: 6.00 Build 0)  -->
<!DOCTYPE svg PUBLIC "-//W3C//DTD SVG 1.1//EN" "http://www.w3.org/Graphics/SVG/1.1/DTD/svg11.dtd">
<svg version="1.1" id="Layer_1" xmlns="http://www.w3.org/2000/svg" xmlns:xlink="http://www.w3.org/1999/xlink" x="0px" y="0px"
	 width="76px" height="67.25px" viewBox="23.25 0 76 67.25" enable-background="new 23.25 0 76 67.25" xml:space="preserve">
<g>
	<g>
		<path fill="#FFFFFF" d="M29.75,61.203c12.071,0,53.373,0,65.443,0c0.107,0,0.199-0.025,0.241-0.066
			c0.042-0.038,0.021-0.084-0.056-0.114l-6.995-2.853c-0.017-0.006-0.038-0.011-0.062-0.011c-7.49,0-44.209,0-51.7,0
			c-0.024,0-0.045,0.005-0.062,0.011l-6.996,2.853c-0.076,0.03-0.096,0.075-0.056,0.114C29.552,61.176,29.643,61.203,29.75,61.203z"
			/>
		<path fill="#F3F4F5" d="M29.842,61.189c12.005,0,53.24,0,65.245,0c0.108,0,0.198-0.025,0.241-0.064
			c0.041-0.039,0.02-0.084-0.057-0.115l-6.957-2.834c-0.017-0.008-0.039-0.012-0.063-0.012c-7.448,0-44.127,0-51.575,0
			c-0.024,0-0.045,0.004-0.062,0.012l-6.958,2.834c-0.076,0.031-0.096,0.076-0.055,0.115S29.735,61.189,29.842,61.189z"/>
		<path fill="#EBECEE" d="M29.932,61.176c11.939,0,53.107,0,65.048,0c0.107,0,0.197-0.024,0.239-0.064
			c0.041-0.039,0.02-0.083-0.055-0.113l-6.92-2.817c-0.016-0.007-0.039-0.011-0.062-0.011c-7.409,0-44.047,0-51.454,0
			c-0.024,0-0.045,0.004-0.062,0.011l-6.92,2.817c-0.075,0.03-0.096,0.074-0.055,0.113C29.735,61.151,29.825,61.176,29.932,61.176z"
			/>
		<path fill="#E3E4E7" d="M30.021,61.164c11.873,0,52.977,0,64.85,0c0.106,0,0.197-0.023,0.238-0.063
			c0.041-0.039,0.02-0.083-0.055-0.113l-6.881-2.8c-0.016-0.007-0.037-0.012-0.061-0.012c-7.367,0-43.965,0-51.332,0
			c-0.024,0-0.045,0.005-0.061,0.012l-6.881,2.8c-0.075,0.03-0.095,0.074-0.054,0.113C29.826,61.14,29.916,61.164,30.021,61.164z"/>
		<path fill="#DBDDE1" d="M30.113,61.15c11.808,0,52.846,0,64.653,0c0.105,0,0.195-0.023,0.237-0.063
			c0.04-0.039,0.021-0.082-0.056-0.112l-6.844-2.783c-0.016-0.007-0.035-0.011-0.06-0.011c-7.327,0-43.884,0-51.21,0
			c-0.023,0-0.044,0.004-0.061,0.011l-6.844,2.783c-0.074,0.03-0.094,0.073-0.054,0.112C29.918,61.127,30.008,61.15,30.113,61.15z"
			/>
		<path fill="#D3D6DB" d="M30.203,61.139c11.742,0,52.715,0,64.456,0c0.104,0,0.194-0.024,0.235-0.064
			c0.039-0.037,0.019-0.08-0.055-0.111l-6.806-2.767c-0.016-0.007-0.037-0.01-0.06-0.01c-7.285,0-43.802,0-51.087,0
			c-0.023,0-0.043,0.003-0.06,0.01l-6.805,2.767c-0.074,0.031-0.094,0.074-0.054,0.111C30.009,61.114,30.098,61.139,30.203,61.139z"
			/>
		<path fill="#CBD0D6" d="M30.293,61.125c11.676,0,52.584,0,64.259,0c0.104,0,0.194-0.023,0.233-0.063
			c0.039-0.038,0.019-0.081-0.055-0.109l-6.767-2.748c-0.017-0.009-0.037-0.013-0.062-0.013c-7.244,0-43.72,0-50.964,0
			c-0.023,0-0.043,0.004-0.06,0.013l-6.767,2.748c-0.073,0.028-0.093,0.071-0.054,0.109C30.1,61.101,30.19,61.125,30.293,61.125z"/>
		<path fill="#C4C9D0" d="M30.384,61.113c11.61,0,52.451,0,64.062,0c0.104,0,0.193-0.025,0.232-0.064
			c0.04-0.037,0.02-0.078-0.055-0.108l-6.729-2.731c-0.016-0.006-0.037-0.011-0.06-0.011c-7.203,0-43.638,0-50.842,0
			c-0.023,0-0.043,0.005-0.06,0.011l-6.729,2.731c-0.072,0.03-0.092,0.071-0.053,0.108C30.192,61.088,30.281,61.113,30.384,61.113z"
			/>
		<path fill="#BDC3CB" d="M30.475,61.1c11.544,0,52.32,0,63.864,0c0.103,0,0.19-0.024,0.231-0.063
			c0.039-0.039,0.018-0.08-0.055-0.109l-6.691-2.715c-0.016-0.006-0.035-0.01-0.059-0.01c-7.163,0-43.557,0-50.719,0
			c-0.023,0-0.043,0.004-0.06,0.01l-6.691,2.715c-0.072,0.029-0.092,0.07-0.053,0.109C30.283,61.075,30.371,61.1,30.475,61.1z"/>
		<path fill="#B6BDC6" d="M30.563,61.086c11.479,0,52.189,0,63.667,0c0.104,0,0.19-0.022,0.229-0.061
			c0.039-0.038,0.02-0.08-0.051-0.109l-6.653-2.695c-0.017-0.008-0.037-0.012-0.06-0.012c-7.123,0-43.476,0-50.598,0
			c-0.023,0-0.042,0.004-0.059,0.012l-6.653,2.695c-0.072,0.029-0.092,0.071-0.052,0.109C30.374,61.063,30.463,61.086,30.563,61.086
			z"/>
		<path fill="#AFB7C1" d="M30.655,61.073c11.413,0,52.057,0,63.47,0c0.102,0,0.188-0.022,0.228-0.062
			c0.04-0.037,0.021-0.078-0.053-0.107l-6.613-2.68c-0.017-0.008-0.036-0.012-0.059-0.012c-7.082,0-43.395,0-50.476,0
			c-0.023,0-0.042,0.004-0.059,0.012l-6.615,2.68c-0.071,0.029-0.091,0.07-0.052,0.107C30.467,61.049,30.554,61.073,30.655,61.073z"
			/>
		<path fill="#A8B1BC" d="M30.745,61.061c11.348,0,51.926,0,63.273,0c0.102,0,0.188-0.023,0.227-0.061s0.02-0.08-0.053-0.107
			l-6.576-2.663c-0.016-0.006-0.035-0.011-0.058-0.011c-7.041,0-43.312,0-50.353,0c-0.022,0-0.042,0.005-0.058,0.011l-6.576,2.663
			C30.5,60.92,30.479,60.963,30.519,61S30.645,61.061,30.745,61.061z"/>
		<path fill="#A1ACB7" d="M30.836,61.047c11.282,0,51.794,0,63.076,0c0.101,0,0.187-0.022,0.226-0.061
			c0.039-0.037,0.019-0.078-0.052-0.105l-6.539-2.646c-0.016-0.006-0.035-0.01-0.059-0.01c-6.998,0-43.229,0-50.229,0
			c-0.022,0-0.042,0.004-0.058,0.01l-6.538,2.646c-0.071,0.027-0.09,0.068-0.052,0.105C30.65,61.024,30.736,61.047,30.836,61.047z"
			/>
		<path fill="#9AA6B2" d="M30.926,61.035c11.216,0,51.664,0,62.879,0c0.1,0,0.186-0.021,0.225-0.061
			c0.039-0.036,0.019-0.077-0.052-0.105l-6.501-2.628c-0.016-0.006-0.033-0.01-0.058-0.01c-6.959,0-43.148,0-50.107,0
			c-0.023,0-0.042,0.004-0.058,0.01l-6.5,2.628c-0.07,0.028-0.09,0.069-0.052,0.105C30.74,61.012,30.826,61.035,30.926,61.035z"/>
		<path fill="#94A1AE" d="M31.017,61.021c11.15,0,51.532,0,62.683,0c0.099,0,0.185-0.021,0.223-0.059
			c0.039-0.037,0.02-0.078-0.051-0.105l-6.463-2.611c-0.016-0.006-0.035-0.01-0.058-0.01c-6.918,0-43.067,0-49.986,0
			c-0.022,0-0.041,0.004-0.058,0.01l-6.462,2.611c-0.07,0.027-0.089,0.068-0.051,0.105C30.832,61,30.918,61.021,31.017,61.021z"/>
		<path fill="#8E9CAA" d="M31.108,61.008c11.084,0,51.399,0,62.484,0c0.098,0,0.184-0.021,0.221-0.059
			c0.038-0.035,0.018-0.076-0.051-0.104l-6.425-2.594c-0.015-0.006-0.034-0.011-0.056-0.011c-6.879,0-42.986,0-49.863,0
			c-0.022,0-0.041,0.005-0.057,0.011l-6.424,2.594c-0.069,0.027-0.089,0.068-0.051,0.104C30.924,60.986,31.009,61.008,31.108,61.008
			z"/>
		<path fill="#8797A5" d="M31.198,60.996c11.019,0,51.268,0,62.287,0c0.098,0,0.182-0.021,0.221-0.059
			c0.037-0.036,0.019-0.076-0.051-0.104l-6.387-2.576c-0.015-0.006-0.033-0.01-0.056-0.01c-6.837,0-42.904,0-49.741,0
			c-0.022,0-0.041,0.004-0.057,0.01l-6.386,2.576c-0.069,0.027-0.089,0.067-0.051,0.104S31.1,60.996,31.198,60.996z"/>
		<path fill="#808F9E" d="M31.242,60.992c10.995,0,51.226,0,62.221,0c0.097,0,0.181-0.021,0.22-0.059
			c0.038-0.036,0.017-0.076-0.051-0.104l-6.373-2.568c-0.015-0.008-0.034-0.01-0.056-0.01c-6.822,0-42.879,0-49.701,0
			c-0.022,0-0.041,0.002-0.057,0.01l-6.372,2.568c-0.069,0.026-0.088,0.066-0.051,0.104C31.059,60.969,31.144,60.992,31.242,60.992z
			"/>
		<path fill="#7A8797" d="M31.286,60.988c10.971,0,51.183,0,62.154,0c0.098,0,0.182-0.021,0.219-0.058s0.019-0.077-0.049-0.104
			l-6.359-2.563c-0.016-0.008-0.034-0.012-0.057-0.012c-6.807,0-42.854,0-49.662,0c-0.022,0-0.041,0.004-0.056,0.012l-6.359,2.563
			c-0.069,0.026-0.088,0.067-0.051,0.104C31.103,60.967,31.188,60.988,31.286,60.988z"/>
		<path fill="#748090" d="M31.329,60.984c10.947,0,51.14,0,62.087,0c0.098,0,0.181-0.021,0.219-0.059
			c0.038-0.035,0.018-0.074-0.05-0.104l-6.345-2.556c-0.016-0.007-0.035-0.011-0.057-0.011c-6.792,0-42.83,0-49.622,0
			c-0.022,0-0.041,0.004-0.056,0.011l-6.345,2.556c-0.069,0.028-0.088,0.067-0.051,0.104C31.149,60.963,31.232,60.984,31.329,60.984
			z"/>
		<path fill="#6E7989" d="M31.374,60.982c10.923,0,51.098,0,62.021,0c0.096,0,0.18-0.021,0.219-0.059
			c0.037-0.035,0.017-0.075-0.051-0.104l-6.332-2.549c-0.015-0.007-0.033-0.01-0.056-0.01c-6.776,0-42.805,0-49.583,0
			c-0.021,0-0.041,0.003-0.056,0.01l-6.331,2.549c-0.069,0.027-0.087,0.066-0.051,0.104C31.193,60.959,31.276,60.982,31.374,60.982z
			"/>
		<path fill="#687383" d="M31.418,60.978c10.899,0,51.055,0,61.953,0c0.097,0,0.182-0.021,0.219-0.058
			c0.037-0.035,0.018-0.076-0.051-0.103l-6.316-2.543c-0.016-0.006-0.034-0.01-0.057-0.01c-6.762,0-42.78,0-49.543,0
			c-0.022,0-0.041,0.004-0.057,0.01l-6.316,2.543c-0.068,0.026-0.088,0.065-0.05,0.103C31.237,60.957,31.321,60.978,31.418,60.978z"
			/>
		<path fill="#626C7D" d="M31.461,60.975c10.875,0,51.012,0,61.888,0c0.097,0,0.179-0.021,0.218-0.059
			c0.036-0.035,0.018-0.074-0.051-0.103l-6.304-2.536c-0.015-0.006-0.034-0.009-0.056-0.009c-6.748,0-42.756,0-49.504,0
			c-0.022,0-0.041,0.003-0.055,0.009l-6.304,2.536c-0.068,0.026-0.087,0.065-0.05,0.103C31.281,60.953,31.365,60.975,31.461,60.975z
			"/>
		<path fill="#5C6677" d="M31.506,60.971c10.851,0,50.97,0,61.822,0c0.095,0,0.178-0.021,0.216-0.059s0.019-0.074-0.05-0.102
			l-6.289-2.529c-0.016-0.007-0.034-0.009-0.057-0.009c-6.732,0-42.732,0-49.465,0c-0.021,0-0.041,0.002-0.056,0.009l-6.289,2.529
			c-0.068,0.027-0.088,0.064-0.05,0.102C31.326,60.948,31.409,60.971,31.506,60.971z"/>
		<path fill="#566072" d="M31.55,60.967c10.828,0,50.926,0,61.754,0c0.097,0,0.179-0.021,0.216-0.058
			c0.037-0.036,0.018-0.073-0.049-0.103l-6.275-2.521c-0.016-0.007-0.035-0.009-0.056-0.009c-6.719,0-42.707,0-49.425,0
			c-0.022,0-0.041,0.002-0.056,0.009l-6.276,2.521c-0.068,0.027-0.086,0.066-0.05,0.103C31.37,60.945,31.453,60.967,31.55,60.967z"
			/>
		<path fill="#505B6C" d="M31.593,60.963c10.804,0,50.884,0,61.688,0c0.096,0,0.178-0.021,0.215-0.058s0.018-0.073-0.049-0.103
			l-6.264-2.514c-0.015-0.007-0.033-0.012-0.055-0.012c-6.704,0-42.683,0-49.386,0c-0.022,0-0.041,0.005-0.056,0.012l-6.262,2.514
			c-0.068,0.027-0.087,0.066-0.049,0.103C31.414,60.941,31.497,60.963,31.593,60.963z"/>
		<path fill="#4A5567" d="M31.637,60.961c10.78,0,50.841,0,61.622,0c0.095,0,0.178-0.021,0.215-0.059
			c0.038-0.035,0.019-0.074-0.049-0.102l-6.248-2.508c-0.017-0.006-0.034-0.011-0.056-0.011c-6.688,0-42.657,0-49.346,0
			c-0.022,0-0.041,0.005-0.055,0.011l-6.248,2.508c-0.067,0.027-0.086,0.065-0.049,0.102C31.458,60.938,31.541,60.961,31.637,60.961
			z"/>
		<path fill="#455063" d="M31.681,60.957c10.755,0,50.798,0,61.554,0c0.096,0,0.178-0.021,0.215-0.058
			c0.039-0.035,0.019-0.073-0.049-0.101l-6.234-2.502c-0.016-0.006-0.033-0.01-0.055-0.01c-6.675,0-42.634,0-49.308,0
			c-0.021,0-0.04,0.004-0.055,0.01l-6.234,2.502c-0.067,0.026-0.086,0.064-0.049,0.101S31.586,60.957,31.681,60.957z"/>
		<path fill="#3F4B5E" d="M31.725,60.953c10.732,0,50.755,0,61.488,0c0.096,0,0.178-0.021,0.214-0.057
			c0.038-0.036,0.019-0.074-0.049-0.102l-6.222-2.494c-0.015-0.008-0.033-0.01-0.055-0.01c-6.658,0-42.608,0-49.267,0
			c-0.021,0-0.04,0.002-0.055,0.01l-6.221,2.494c-0.068,0.026-0.086,0.064-0.05,0.102C31.548,60.931,31.629,60.953,31.725,60.953z"
			/>
		<path fill="#3A4559" d="M31.769,60.949c10.708,0,50.714,0,61.421,0c0.096,0,0.178-0.021,0.215-0.057s0.018-0.073-0.05-0.102
			l-6.206-2.488c-0.016-0.006-0.033-0.008-0.056-0.008c-6.644,0-42.584,0-49.229,0c-0.021,0-0.041,0.002-0.055,0.008l-6.207,2.488
			c-0.067,0.027-0.086,0.065-0.049,0.102C31.59,60.928,31.674,60.949,31.769,60.949z"/>
		<path fill="#344055" d="M31.813,60.945c10.685,0,50.67,0,61.355,0c0.095,0,0.176-0.021,0.214-0.057
			c0.037-0.035,0.019-0.072-0.05-0.1l-6.192-2.481c-0.015-0.007-0.032-0.011-0.054-0.011c-6.631,0-42.561,0-49.189,0
			c-0.021,0-0.041,0.004-0.055,0.011l-6.192,2.481c-0.067,0.026-0.086,0.063-0.05,0.1C31.636,60.924,31.718,60.945,31.813,60.945z"
			/>
		<path fill="#2F3B50" d="M31.857,60.941c10.66,0,50.627,0,61.289,0c0.095,0,0.177-0.021,0.214-0.057
			c0.036-0.034,0.016-0.072-0.05-0.101l-6.179-2.474c-0.016-0.008-0.034-0.01-0.055-0.01c-6.614,0-42.536,0-49.15,0
			c-0.021,0-0.04,0.002-0.054,0.01l-6.179,2.474c-0.067,0.027-0.085,0.065-0.049,0.101C31.68,60.922,31.762,60.941,31.857,60.941z"
			/>
		<path fill="#2A364C" d="M31.901,60.938c10.637,0,50.585,0,61.222,0c0.095,0,0.176-0.021,0.212-0.058
			c0.036-0.035,0.018-0.071-0.05-0.1l-6.164-2.468c-0.016-0.006-0.033-0.011-0.055-0.011c-6.6,0-42.511,0-49.11,0
			c-0.021,0-0.04,0.005-0.054,0.011l-6.165,2.468c-0.067,0.027-0.085,0.064-0.049,0.1C31.725,60.918,31.806,60.938,31.901,60.938z"
			/>
	</g>
	
		<linearGradient id="SVGID_1_" gradientUnits="userSpaceOnUse" x1="450.0723" y1="416.6094" x2="441.1131" y2="417.551" gradientTransform="matrix(1 0 0 1 -366 -400)">
		<stop  offset="0" style="stop-color:#CACCD0"/>
		<stop  offset="0.5" style="stop-color:#AAA9AC"/>
		<stop  offset="1" style="stop-color:#767878"/>
	</linearGradient>
	<path fill="url(#SVGID_1_)" d="M76.32,15.93h14.963c0.185,0.004,0.309,0.039,0.453,0.119l1.881,1.051
		c-0.154-0.085-0.285-0.123-0.481-0.127H76.32V15.93z"/>
	
		<linearGradient id="SVGID_2_" gradientUnits="userSpaceOnUse" x1="400.9023" y1="414.8301" x2="397.4893" y2="413.5877" gradientTransform="matrix(1 0 0 1 -366 -400)">
		<stop  offset="0" style="stop-color:#CACCD0"/>
		<stop  offset="1" style="stop-color:#FFFFFF"/>
	</linearGradient>
	<path fill="url(#SVGID_2_)" d="M30.885,17.1l1.996-1.106c0.107-0.043,0.218-0.062,0.339-0.063h14.962v1.043H31.367
		C31.17,16.977,31.04,17.015,30.885,17.1z"/>
	<path fill="#CACCD0" d="M31.367,16.924h61.769c0.417,0,0.758,0.345,0.758,0.766v42.396c0,0.422-0.342,0.767-0.758,0.767H31.367
		c-0.417,0-0.759-0.345-0.759-0.767V17.689C30.608,17.269,30.95,16.924,31.367,16.924z"/>
	<path fill="#CACCD0" d="M52.229,31.762h20.045c0.135,0,0.245,0.111,0.245,0.248v13.757c0,0.137-0.11,0.249-0.245,0.249H52.229
		c-0.135,0-0.246-0.112-0.246-0.249V32.01C51.983,31.873,52.094,31.762,52.229,31.762z"/>
	<path fill="#FFFFFF" d="M31.367,16.924h61.769c0.417,0,0.758,0.345,0.758,0.766v0.159c0-0.423-0.342-0.767-0.758-0.767H31.367
		c-0.417,0-0.759,0.344-0.759,0.767v-0.159C30.608,17.269,30.95,16.924,31.367,16.924z"/>
	<path fill="#3B3D3C" d="M62.25,39.777c0.972,0,1.765-0.793,1.765-1.763c0-0.972-0.792-1.765-1.765-1.765
		c-0.97,0-1.762,0.793-1.762,1.765C60.489,38.984,61.28,39.777,62.25,39.777z"/>
	<path fill="#3B3D3C" d="M62.25,48.233c0.972,0,1.765-0.793,1.765-1.765c0-0.971-0.792-1.762-1.765-1.762
		c-0.97,0-1.762,0.791-1.762,1.762C60.488,47.44,61.28,48.233,62.25,48.233z"/>
	<path fill="#FFFFFF" d="M36.996,27.35H56.33c0.521,0,0.948,0.426,0.948,0.947v28.875c0,0.521-0.427,0.947-0.948,0.947H36.996
		c-0.522,0-0.947-0.428-0.947-0.947V28.297C36.049,27.775,36.474,27.35,36.996,27.35z"/>
	<path d="M36.996,27.191H56.33c0.521,0,0.948,0.426,0.948,0.947v28.875c0,0.521-0.427,0.947-0.948,0.947H36.996
		c-0.522,0-0.947-0.426-0.947-0.947V28.139C36.049,27.617,36.474,27.191,36.996,27.191z"/>
	
		<linearGradient id="SVGID_3_" gradientUnits="userSpaceOnUse" x1="412.6631" y1="442.4551" x2="412.6631" y2="427.45" gradientTransform="matrix(1 0 0 1 -366 -400)">
		<stop  offset="0" style="stop-color:#000000"/>
		<stop  offset="0.07" style="stop-color:#313333"/>
		<stop  offset="1" style="stop-color:#3F4040"/>
	</linearGradient>
	<path fill="url(#SVGID_3_)" d="M37.278,27.64h18.771c0.506,0,0.92,0.413,0.92,0.92v14.049H36.358V28.56
		C36.358,28.053,36.771,27.64,37.278,27.64z"/>
	<path fill="#636363" d="M37.278,27.64h18.771c0.506,0,0.92,0.413,0.92,0.92v0.21c0-0.506-0.415-0.92-0.92-0.92H37.278
		c-0.506,0-0.92,0.414-0.92,0.92v-0.21C36.358,28.053,36.771,27.64,37.278,27.64z"/>
	
		<linearGradient id="SVGID_4_" gradientUnits="userSpaceOnUse" x1="412.6641" y1="442.5586" x2="412.6641" y2="457.7778" gradientTransform="matrix(1 0 0 1 -366 -400)">
		<stop  offset="0" style="stop-color:#181F1F"/>
		<stop  offset="0.04" style="stop-color:#313333"/>
		<stop  offset="0.08" style="stop-color:#4A4A4A"/>
		<stop  offset="0.14" style="stop-color:#484848"/>
		<stop  offset="0.19" style="stop-color:#3B3D3C"/>
		<stop  offset="1" style="stop-color:#464746"/>
	</linearGradient>
	<path fill="url(#SVGID_4_)" d="M37.278,57.576h18.771c0.506,0,0.92-0.414,0.92-0.92V42.608H36.358v14.049
		C36.358,57.162,36.771,57.576,37.278,57.576z"/>
	
		<linearGradient id="SVGID_5_" gradientUnits="userSpaceOnUse" x1="412.6641" y1="442.6094" x2="412.6641" y2="455.1595" gradientTransform="matrix(1 0 0 1 -366 -400)">
		<stop  offset="0" style="stop-color:#808282"/>
		<stop  offset="0.07" style="stop-color:#D9D8D8"/>
		<stop  offset="0.1" style="stop-color:#ECEDED"/>
		<stop  offset="1" style="stop-color:#D9D8D8"/>
	</linearGradient>
	<path fill="url(#SVGID_5_)" d="M54.926,50.439v4.381H38.401c0.183-1.654,0.716-3.225,1.615-4.707
		c0.893-1.482,2.663-3.447,5.296-5.898c0.64-0.592,1.204-1.127,1.694-1.605h5.942c-0.158,0.221-0.324,0.443-0.501,0.667
		c-0.572,0.728-1.603,1.774-3.086,3.14c-1.489,1.362-2.434,2.273-2.829,2.721c-0.395,0.445-0.721,0.882-0.968,1.305h9.362V50.439z"
		/>
	
		<linearGradient id="SVGID_6_" gradientUnits="userSpaceOnUse" x1="412.9395" y1="442.6094" x2="412.9395" y2="430.0295" gradientTransform="matrix(1 0 0 1 -366 -400)">
		<stop  offset="0" style="stop-color:#808282"/>
		<stop  offset="0.09" style="stop-color:#D9D8D8"/>
		<stop  offset="0.15" style="stop-color:#ECEDED"/>
		<stop  offset="1" style="stop-color:#D9D8D8"/>
	</linearGradient>
	<path fill="url(#SVGID_6_)" d="M47.005,42.608c1.143-1.118,1.881-1.925,2.217-2.419c0.647-0.973,0.974-1.936,0.974-2.885
		c0-1.049-0.281-1.855-0.847-2.424c-0.567-0.565-1.345-0.847-2.342-0.847c-0.985,0-1.764,0.298-2.348,0.888
		c-0.578,0.596-0.916,1.58-1.007,2.955l-4.696-0.47c0.28-2.594,1.157-4.454,2.634-5.588c1.477-1.129,3.321-1.694,5.536-1.694
		c2.428,0,4.335,0.657,5.72,1.965c1.386,1.311,2.079,2.937,2.079,4.883c0,1.105-0.2,2.158-0.595,3.162
		c-0.314,0.795-0.776,1.621-1.383,2.475L47.005,42.608L47.005,42.608z"/>
	<rect x="36.393" y="42.447" width="20.578" height="0.217"/>
	<rect x="36.358" y="42.608" fill="#4A4A4A" width="20.612" height="0.157"/>
	<path fill="#636363" d="M37.278,57.576h18.771c0.506,0,0.92-0.414,0.92-0.92v-0.211c0,0.506-0.415,0.921-0.92,0.921H37.278
		c-0.506,0-0.92-0.415-0.92-0.921v0.211C36.358,57.162,36.771,57.576,37.278,57.576z"/>
	<path fill="#FFFFFF" d="M68.172,27.35h19.335c0.521,0,0.948,0.426,0.948,0.947v28.875c0,0.521-0.426,0.947-0.948,0.947H68.172
		c-0.521,0-0.948-0.428-0.948-0.947V28.297C67.224,27.775,67.65,27.35,68.172,27.35z"/>
	<path d="M68.172,27.191h19.335c0.521,0,0.948,0.426,0.948,0.947v28.875c0,0.521-0.426,0.947-0.948,0.947H68.172
		c-0.521,0-0.948-0.426-0.948-0.947V28.139C67.224,27.617,67.65,27.191,68.172,27.191z"/>
	
		<linearGradient id="SVGID_7_" gradientUnits="userSpaceOnUse" x1="443.8398" y1="442.4551" x2="443.8398" y2="427.45" gradientTransform="matrix(1 0 0 1 -366 -400)">
		<stop  offset="0" style="stop-color:#000000"/>
		<stop  offset="0.07" style="stop-color:#313333"/>
		<stop  offset="1" style="stop-color:#3F4040"/>
	</linearGradient>
	<path fill="url(#SVGID_7_)" d="M68.453,27.64h18.771c0.508,0,0.921,0.413,0.921,0.92v14.049H67.533V28.56
		C67.533,28.053,67.947,27.64,68.453,27.64z"/>
	<path fill="#636363" d="M68.453,27.64h18.771c0.508,0,0.921,0.413,0.921,0.92v0.21c0-0.506-0.413-0.92-0.921-0.92H68.453
		c-0.506,0-0.92,0.414-0.92,0.92v-0.21C67.533,28.053,67.947,27.64,68.453,27.64z"/>
	
		<linearGradient id="SVGID_8_" gradientUnits="userSpaceOnUse" x1="443.8398" y1="442.5586" x2="443.8398" y2="457.7778" gradientTransform="matrix(1 0 0 1 -366 -400)">
		<stop  offset="0" style="stop-color:#181F1F"/>
		<stop  offset="0.04" style="stop-color:#313333"/>
		<stop  offset="0.08" style="stop-color:#4A4A4A"/>
		<stop  offset="0.14" style="stop-color:#484848"/>
		<stop  offset="0.19" style="stop-color:#3B3D3C"/>
		<stop  offset="1" style="stop-color:#464746"/>
	</linearGradient>
	<path fill="url(#SVGID_8_)" d="M68.453,57.576h18.771c0.508,0,0.921-0.414,0.921-0.92V42.608H67.533v14.049
		C67.533,57.162,67.947,57.576,68.453,57.576z"/>
	
		<linearGradient id="SVGID_9_" gradientUnits="userSpaceOnUse" x1="447.1602" y1="442.6084" x2="447.1602" y2="455.1586" gradientTransform="matrix(1 0 0 1 -366 -400)">
		<stop  offset="0" style="stop-color:#808282"/>
		<stop  offset="0.07" style="stop-color:#D9D8D8"/>
		<stop  offset="0.1" style="stop-color:#ECEDED"/>
		<stop  offset="1" style="stop-color:#D9D8D8"/>
	</linearGradient>
	<rect x="78.804" y="42.608" fill="url(#SVGID_9_)" width="4.713" height="12.212"/>
	
		<linearGradient id="SVGID_10_" gradientUnits="userSpaceOnUse" x1="444.1172" y1="442.6084" x2="444.1172" y2="430.0286" gradientTransform="matrix(1 0 0 1 -366 -400)">
		<stop  offset="0" style="stop-color:#808282"/>
		<stop  offset="0.09" style="stop-color:#D9D8D8"/>
		<stop  offset="0.15" style="stop-color:#ECEDED"/>
		<stop  offset="1" style="stop-color:#D9D8D8"/>
	</linearGradient>
	<path fill="url(#SVGID_10_)" d="M78.804,42.608v-5.556c-1.724,1.613-3.75,2.805-6.086,3.572v-4.277
		c1.226-0.401,2.565-1.162,4.008-2.285c1.443-1.128,2.435-2.438,2.966-3.938h3.825v12.483H78.804z"/>
	<rect x="67.568" y="42.447" width="20.58" height="0.217"/>
	<rect x="67.533" y="42.608" fill="#4A4A4A" width="20.612" height="0.157"/>
	<path fill="#636363" d="M68.453,57.576h18.771c0.508,0,0.921-0.414,0.921-0.92v-0.211c0,0.506-0.413,0.921-0.921,0.921H68.453
		c-0.506,0-0.92-0.415-0.92-0.921v0.211C67.533,57.162,67.947,57.576,68.453,57.576z"/>
	<path d="M36.996,19.267H56.33c0.521,0,0.948,0.426,0.948,0.946v3.434c0,0.521-0.427,0.949-0.948,0.949H36.996
		c-0.521,0-0.947-0.428-0.947-0.949v-3.434C36.049,19.691,36.474,19.267,36.996,19.267z"/>
	<path d="M68.172,19.267h19.335c0.521,0,0.948,0.426,0.948,0.946v3.434c0,0.521-0.428,0.949-0.948,0.949H68.172
		c-0.521,0-0.948-0.428-0.948-0.949v-3.434C67.224,19.691,67.65,19.267,68.172,19.267z"/>
	
		<linearGradient id="SVGID_11_" gradientUnits="userSpaceOnUse" x1="412.6631" y1="424.5957" x2="412.6631" y2="419.3965" gradientTransform="matrix(1 0 0 1 -366 -400)">
		<stop  offset="0" style="stop-color:#000000"/>
		<stop  offset="0.07" style="stop-color:#313333"/>
		<stop  offset="1" style="stop-color:#3F4040"/>
	</linearGradient>
	<path fill="url(#SVGID_11_)" d="M37.278,19.459h18.771c0.506,0,0.92,0.414,0.92,0.92c0,1.013,0,2.024,0,3.037
		c0,0.504-0.415,0.92-0.92,0.92H37.278c-0.506,0-0.92-0.414-0.92-0.92c0-1.013,0-2.024,0-3.037
		C36.358,19.873,36.771,19.459,37.278,19.459z"/>
	<path fill="#636363" d="M37.278,19.459h18.771c0.506,0,0.92,0.414,0.92,0.92v0.119c0-0.507-0.415-0.92-0.92-0.92H37.278
		c-0.506,0-0.92,0.413-0.92,0.92v-0.119C36.358,19.873,36.771,19.459,37.278,19.459z"/>
	
		<linearGradient id="SVGID_12_" gradientUnits="userSpaceOnUse" x1="443.8398" y1="424.5957" x2="443.8398" y2="419.3965" gradientTransform="matrix(1 0 0 1 -366 -400)">
		<stop  offset="0" style="stop-color:#000000"/>
		<stop  offset="0.07" style="stop-color:#313333"/>
		<stop  offset="1" style="stop-color:#3F4040"/>
	</linearGradient>
	<path fill="url(#SVGID_12_)" d="M68.453,19.459h18.771c0.508,0,0.921,0.414,0.921,0.92c0,1.013,0,2.024,0,3.037
		c0,0.504-0.413,0.92-0.921,0.92H68.453c-0.506,0-0.92-0.414-0.92-0.92c0-1.013,0-2.024,0-3.037
		C67.533,19.873,67.947,19.459,68.453,19.459z"/>
	<path fill="#636363" d="M68.453,19.459h18.771c0.508,0,0.921,0.414,0.921,0.92v0.119c0-0.507-0.413-0.92-0.921-0.92H68.453
		c-0.506,0-0.92,0.413-0.92,0.92v-0.119C67.533,19.873,67.947,19.459,68.453,19.459z"/>
	
		<linearGradient id="SVGID_13_" gradientUnits="userSpaceOnUse" x1="443.8389" y1="423.8525" x2="443.8389" y2="419.9785" gradientTransform="matrix(1 0 0 1 -366 -400)">
		<stop  offset="0" style="stop-color:#808282"/>
		<stop  offset="0.09" style="stop-color:#D9D8D8"/>
		<stop  offset="0.15" style="stop-color:#ECEDED"/>
		<stop  offset="1" style="stop-color:#D9D8D8"/>
	</linearGradient>
	<path fill="url(#SVGID_13_)" d="M69.671,23.791l-1.353-3.783h0.828l0.957,2.801l0.926-2.801h0.813l-1.355,3.783H69.671
		L69.671,23.791z M72.132,20.678v-0.67h0.726v0.67H72.132L72.132,20.678z M72.132,23.791v-2.74h0.726v2.74H72.132L72.132,23.791z
		 M73.345,23.008l0.729-0.11c0.029,0.142,0.092,0.249,0.188,0.321c0.094,0.072,0.227,0.111,0.398,0.111
		c0.187,0,0.328-0.035,0.422-0.104c0.064-0.048,0.097-0.113,0.097-0.193c0-0.056-0.019-0.102-0.054-0.138
		c-0.035-0.034-0.116-0.064-0.241-0.096c-0.585-0.129-0.955-0.246-1.112-0.353c-0.217-0.147-0.324-0.354-0.324-0.616
		c0-0.238,0.092-0.438,0.28-0.6c0.188-0.162,0.479-0.243,0.872-0.243c0.375,0,0.655,0.062,0.837,0.183
		c0.183,0.123,0.308,0.305,0.376,0.543l-0.684,0.127c-0.029-0.107-0.084-0.188-0.166-0.246c-0.082-0.057-0.198-0.086-0.352-0.086
		c-0.19,0-0.326,0.026-0.41,0.08c-0.053,0.039-0.082,0.088-0.082,0.147c0,0.052,0.023,0.095,0.072,0.131
		c0.064,0.05,0.291,0.117,0.678,0.204c0.387,0.088,0.656,0.195,0.809,0.323c0.152,0.129,0.229,0.31,0.229,0.539
		c0,0.251-0.105,0.468-0.315,0.647s-0.521,0.271-0.931,0.271c-0.373,0-0.668-0.076-0.887-0.227
		C73.554,23.475,73.41,23.269,73.345,23.008L73.345,23.008z M76.539,20.678v-0.67h0.726v0.67H76.539L76.539,20.678z M76.539,23.791
		v-2.74h0.726v2.74H76.539L76.539,23.791z M79.266,21.049v0.578h-0.495v1.104c0,0.224,0.003,0.354,0.015,0.392
		c0.009,0.037,0.031,0.066,0.063,0.092c0.034,0.022,0.074,0.037,0.122,0.037c0.068,0,0.165-0.024,0.292-0.07l0.063,0.563
		c-0.17,0.072-0.36,0.108-0.574,0.108c-0.131,0-0.249-0.021-0.354-0.065c-0.105-0.043-0.182-0.102-0.23-0.17
		c-0.051-0.068-0.083-0.164-0.102-0.283c-0.017-0.084-0.023-0.254-0.023-0.511v-1.194h-0.332v-0.578h0.332v-0.545l0.728-0.424v0.969
		L79.266,21.049L79.266,21.049z M79.601,22.381c0-0.239,0.06-0.475,0.177-0.698c0.119-0.226,0.287-0.397,0.506-0.517
		s0.461-0.179,0.729-0.179c0.414,0,0.754,0.136,1.021,0.404C82.299,21.66,82.43,22,82.43,22.412c0,0.414-0.134,0.758-0.4,1.031
		c-0.269,0.273-0.604,0.408-1.011,0.408c-0.252,0-0.489-0.057-0.719-0.17c-0.229-0.114-0.401-0.279-0.521-0.499
		C79.658,22.963,79.601,22.696,79.601,22.381L79.601,22.381z M80.345,22.42c0,0.272,0.063,0.48,0.194,0.625
		c0.127,0.145,0.287,0.217,0.479,0.217c0.188,0,0.348-0.071,0.475-0.217c0.129-0.145,0.193-0.354,0.193-0.629
		c0-0.27-0.064-0.477-0.193-0.619c-0.127-0.146-0.287-0.217-0.475-0.217c-0.189,0-0.35,0.07-0.479,0.217
		C80.408,21.94,80.345,22.149,80.345,22.42L80.345,22.42z M83.693,23.791h-0.727v-2.74h0.673v0.39
		c0.116-0.185,0.22-0.306,0.312-0.364c0.094-0.057,0.197-0.088,0.313-0.088c0.166,0,0.324,0.046,0.478,0.139l-0.224,0.631
		c-0.122-0.077-0.235-0.116-0.341-0.116c-0.102,0-0.188,0.026-0.257,0.083c-0.071,0.056-0.125,0.156-0.167,0.304
		c-0.04,0.146-0.061,0.453-0.061,0.918V23.791L83.693,23.791z M84.8,23.008l0.728-0.11c0.031,0.142,0.094,0.249,0.188,0.321
		c0.093,0.072,0.228,0.111,0.397,0.111c0.188,0,0.328-0.035,0.422-0.104c0.064-0.048,0.097-0.113,0.097-0.193
		c0-0.056-0.019-0.102-0.052-0.138c-0.036-0.034-0.118-0.064-0.242-0.096c-0.584-0.129-0.956-0.246-1.113-0.353
		c-0.217-0.147-0.324-0.354-0.324-0.616c0-0.238,0.092-0.438,0.28-0.6c0.188-0.162,0.479-0.243,0.873-0.243
		c0.375,0,0.653,0.062,0.837,0.183c0.182,0.123,0.309,0.305,0.377,0.543l-0.684,0.127c-0.029-0.107-0.086-0.188-0.168-0.246
		c-0.081-0.057-0.197-0.086-0.35-0.086c-0.191,0-0.326,0.026-0.41,0.08c-0.056,0.039-0.082,0.088-0.082,0.147
		c0,0.052,0.023,0.095,0.071,0.131c0.065,0.05,0.29,0.117,0.677,0.204c0.387,0.088,0.656,0.195,0.81,0.323
		c0.151,0.129,0.228,0.31,0.228,0.539c0,0.251-0.105,0.468-0.315,0.647s-0.521,0.271-0.931,0.271c-0.375,0-0.67-0.076-0.889-0.227
		C85.008,23.475,84.865,23.269,84.8,23.008z"/>
	
		<linearGradient id="SVGID_14_" gradientUnits="userSpaceOnUse" x1="412.6621" y1="423.8525" x2="412.6621" y2="419.9775" gradientTransform="matrix(1 0 0 1 -366 -400)">
		<stop  offset="0" style="stop-color:#808282"/>
		<stop  offset="0.09" style="stop-color:#D9D8D8"/>
		<stop  offset="0.15" style="stop-color:#ECEDED"/>
		<stop  offset="1" style="stop-color:#D9D8D8"/>
	</linearGradient>
	<path fill="url(#SVGID_14_)" d="M39.619,23.791v-3.783h0.765v1.488h1.497v-1.488h0.764v3.783h-0.764v-1.654h-1.497v1.654H39.619
		L39.619,23.791z M43.261,22.381c0-0.239,0.061-0.475,0.178-0.698c0.119-0.226,0.287-0.397,0.505-0.517
		c0.218-0.119,0.46-0.179,0.729-0.179c0.415,0,0.754,0.136,1.02,0.404c0.266,0.271,0.397,0.608,0.397,1.021
		c0,0.414-0.135,0.758-0.401,1.031c-0.268,0.273-0.604,0.408-1.011,0.408c-0.251,0-0.49-0.057-0.718-0.17
		c-0.228-0.114-0.402-0.279-0.521-0.499C43.322,22.963,43.261,22.696,43.261,22.381L43.261,22.381z M44.005,22.42
		c0,0.272,0.064,0.48,0.194,0.625c0.128,0.145,0.288,0.217,0.478,0.217c0.189,0,0.348-0.071,0.476-0.217
		c0.129-0.145,0.193-0.354,0.193-0.629c0-0.27-0.064-0.477-0.193-0.619c-0.127-0.146-0.286-0.217-0.476-0.217
		s-0.35,0.07-0.478,0.217C44.069,21.94,44.005,22.149,44.005,22.42L44.005,22.42z M46.604,21.049h0.668v0.375
		c0.239-0.291,0.524-0.437,0.854-0.437c0.175,0,0.328,0.036,0.456,0.108c0.131,0.072,0.236,0.182,0.319,0.326
		c0.12-0.146,0.25-0.254,0.39-0.326c0.139-0.072,0.288-0.108,0.447-0.108c0.201,0,0.372,0.041,0.51,0.123
		c0.14,0.081,0.244,0.201,0.312,0.358c0.05,0.117,0.075,0.308,0.075,0.568v1.752H49.91v-1.565c0-0.272-0.025-0.447-0.075-0.527
		c-0.067-0.103-0.169-0.153-0.309-0.153c-0.103,0-0.198,0.029-0.287,0.092c-0.09,0.063-0.153,0.152-0.194,0.272
		c-0.04,0.12-0.06,0.31-0.06,0.566v1.315H48.26v-1.502c0-0.268-0.013-0.438-0.04-0.517c-0.026-0.077-0.065-0.136-0.119-0.172
		c-0.054-0.039-0.128-0.058-0.221-0.058c-0.112,0-0.212,0.029-0.301,0.09c-0.089,0.062-0.154,0.146-0.193,0.262
		s-0.058,0.301-0.058,0.564v1.332h-0.725L46.604,21.049L46.604,21.049z M52.945,22.92l0.723,0.119
		c-0.093,0.267-0.24,0.467-0.441,0.605c-0.199,0.139-0.451,0.208-0.752,0.208c-0.477,0-0.829-0.155-1.058-0.468
		c-0.18-0.25-0.271-0.564-0.271-0.943c0-0.455,0.118-0.811,0.356-1.068c0.237-0.257,0.537-0.386,0.9-0.386
		c0.408,0,0.729,0.136,0.965,0.404c0.236,0.271,0.349,0.683,0.339,1.237h-1.817c0.006,0.215,0.063,0.383,0.175,0.502
		c0.112,0.119,0.252,0.18,0.419,0.18c0.114,0,0.209-0.032,0.286-0.094C52.847,23.156,52.906,23.057,52.945,22.92L52.945,22.92z
		 M52.986,22.186c-0.005-0.211-0.059-0.37-0.162-0.479c-0.103-0.109-0.229-0.164-0.377-0.164c-0.159,0-0.29,0.059-0.392,0.174
		c-0.103,0.113-0.154,0.271-0.153,0.469H52.986L52.986,22.186z"/>
	
		<linearGradient id="SVGID_15_" gradientUnits="userSpaceOnUse" x1="428.252" y1="403.5684" x2="428.252" y2="407.2747" gradientTransform="matrix(1 0 0 1 -366 -400)">
		<stop  offset="0" style="stop-color:#CACCD0"/>
		<stop  offset="1" style="stop-color:#FFFFFF"/>
	</linearGradient>
	<path fill="url(#SVGID_15_)" d="M48.305,5.657l0.888-0.638c0.047-0.025,0.096-0.036,0.151-0.037H75.16
		c0.082,0.002,0.138,0.021,0.201,0.068l0.838,0.606c-0.069-0.049-0.127-0.071-0.215-0.073H48.519
		C48.431,5.586,48.374,5.608,48.305,5.657z"/>
	<path fill="#CACCD0" d="M48.519,5.58h27.466c0.186,0,0.336,0.152,0.336,0.34v12.063c0,0.188-0.151,0.342-0.336,0.342H48.519
		c-0.186,0-0.337-0.154-0.337-0.342V5.92C48.182,5.732,48.333,5.58,48.519,5.58z"/>
	<path fill="#FFFFFF" d="M49.885,6.612h24.717c0.131,0,0.239,0.108,0.239,0.239v8.913c0,0.132-0.106,0.239-0.239,0.239H49.885
		c-0.131,0-0.238-0.107-0.238-0.239V6.852C49.646,6.721,49.754,6.612,49.885,6.612z"/>
	<path d="M49.885,6.455h24.717c0.131,0,0.239,0.108,0.239,0.238v8.914c0,0.131-0.106,0.238-0.239,0.238H49.885
		c-0.131,0-0.238-0.107-0.238-0.238V6.693C49.646,6.563,49.754,6.455,49.885,6.455z"/>
	
		<radialGradient id="SVGID_16_" cx="419.6855" cy="411.209" r="3.1134" gradientTransform="matrix(1 0 0 1 -366 -400)" gradientUnits="userSpaceOnUse">
		<stop  offset="0" style="stop-color:#186C3E"/>
		<stop  offset="1" style="stop-color:#000000"/>
	</radialGradient>
	<path fill="url(#SVGID_16_)" d="M53.686,13.769c1.409,0,2.56-1.15,2.56-2.56c0-1.41-1.15-2.561-2.56-2.561
		c-1.41,0-2.56,1.15-2.56,2.561C51.125,12.618,52.276,13.769,53.686,13.769z"/>
	
		<radialGradient id="SVGID_17_" cx="432.5498" cy="411.209" r="3.1134" gradientTransform="matrix(1 0 0 1 -366 -400)" gradientUnits="userSpaceOnUse">
		<stop  offset="0" style="stop-color:#186C3E"/>
		<stop  offset="1" style="stop-color:#000000"/>
	</radialGradient>
	<path fill="url(#SVGID_17_)" d="M66.55,13.769c1.409,0,2.56-1.15,2.56-2.56c0-1.41-1.149-2.561-2.56-2.561s-2.56,1.15-2.56,2.561
		C63.99,12.618,65.14,13.769,66.55,13.769z"/>
	
		<radialGradient id="SVGID_18_" cx="424.9229" cy="411.209" r="3.1134" gradientTransform="matrix(1 0 0 1 -366 -400)" gradientUnits="userSpaceOnUse">
		<stop  offset="0" style="stop-color:#186C3E"/>
		<stop  offset="1" style="stop-color:#000000"/>
	</radialGradient>
	<path fill="url(#SVGID_18_)" d="M58.923,13.769c1.41,0,2.559-1.15,2.559-2.56c0-1.41-1.149-2.561-2.559-2.561
		c-1.41,0-2.56,1.15-2.56,2.561C56.363,12.618,57.513,13.769,58.923,13.769z"/>
	
		<radialGradient id="SVGID_19_" cx="428.6895" cy="410.1016" r="1.7546" gradientTransform="matrix(1 0 0 1 -366 -400)" gradientUnits="userSpaceOnUse">
		<stop  offset="0" style="stop-color:#186C3E"/>
		<stop  offset="0.0333" style="stop-color:#1A683D"/>
		<stop  offset="0.5123" style="stop-color:#163526"/>
		<stop  offset="0.8444" style="stop-color:#01120C"/>
		<stop  offset="1" style="stop-color:#000000"/>
	</radialGradient>
	<path fill="url(#SVGID_19_)" d="M62.689,11.545c0.795,0,1.443-0.649,1.443-1.444c0-0.794-0.648-1.443-1.443-1.443
		s-1.444,0.648-1.444,1.443S61.895,11.545,62.689,11.545z"/>
	
		<radialGradient id="SVGID_20_" cx="428.6895" cy="413.2129" r="1.7541" gradientTransform="matrix(1 0 0 1 -366 -400)" gradientUnits="userSpaceOnUse">
		<stop  offset="0" style="stop-color:#186C3E"/>
		<stop  offset="0.0333" style="stop-color:#1A683D"/>
		<stop  offset="0.5123" style="stop-color:#163526"/>
		<stop  offset="0.8444" style="stop-color:#01120C"/>
		<stop  offset="1" style="stop-color:#000000"/>
	</radialGradient>
	<path fill="url(#SVGID_20_)" d="M62.689,14.655c0.795,0,1.443-0.647,1.443-1.442s-0.648-1.443-1.443-1.443
		s-1.444,0.648-1.444,1.443C61.245,14.008,61.895,14.655,62.689,14.655z"/>
	
		<radialGradient id="SVGID_21_" cx="437.7871" cy="411.209" r="3.1132" gradientTransform="matrix(1 0 0 1 -366 -400)" gradientUnits="userSpaceOnUse">
		<stop  offset="0" style="stop-color:#186C3E"/>
		<stop  offset="1" style="stop-color:#000000"/>
	</radialGradient>
	<path fill="url(#SVGID_21_)" d="M71.787,13.769c1.408,0,2.56-1.15,2.56-2.56c0-1.41-1.149-2.561-2.56-2.561s-2.56,1.15-2.56,2.561
		C69.228,12.618,70.378,13.769,71.787,13.769z"/>
	
		<radialGradient id="SVGID_22_" cx="419.6416" cy="411.2119" r="3.9654" gradientTransform="matrix(1 0 0 1 -366 -400)" gradientUnits="userSpaceOnUse">
		<stop  offset="0" style="stop-color:#608740"/>
		<stop  offset="1" style="stop-color:#002207"/>
	</radialGradient>
	<path fill="url(#SVGID_22_)" d="M55.162,10.645c0-0.256,0-0.512,0-0.768c0.255,0,0.511,0,0.768,0c0,0.256,0,0.51,0,0.768
		C55.674,10.645,55.417,10.645,55.162,10.645L55.162,10.645z M55.162,11.588c0-0.256,0-0.512,0-0.769c0.255,0,0.511,0,0.768,0
		c0,0.256,0,0.513,0,0.769C55.674,11.588,55.417,11.588,55.162,11.588L55.162,11.588z M51.354,11.588c0-0.256,0-0.512,0-0.769
		c0.256,0,0.512,0,0.768,0c0,0.256,0,0.513,0,0.769C51.867,11.588,51.612,11.588,51.354,11.588L51.354,11.588z M51.354,14.451
		c0-0.256,0-0.512,0-0.769c0.256,0,0.512,0,0.768,0c0,0.256,0,0.513,0,0.769C51.867,14.451,51.612,14.451,51.354,14.451
		L51.354,14.451z M55.162,14.451c0-0.256,0-0.512,0-0.769c0.255,0,0.511,0,0.768,0c0,0.256,0,0.513,0,0.769
		C55.674,14.451,55.417,14.451,55.162,14.451L55.162,14.451z M55.162,8.74c0-0.256,0-0.512,0-0.768c0.255,0,0.511,0,0.768,0
		c0,0.256,0,0.512,0,0.768C55.674,8.74,55.417,8.74,55.162,8.74L55.162,8.74z M51.354,8.74c0-0.256,0-0.512,0-0.768
		c0.256,0,0.512,0,0.768,0c0,0.256,0,0.512,0,0.768C51.867,8.74,51.612,8.74,51.354,8.74L51.354,8.74z M55.162,9.691
		c0-0.256,0-0.512,0-0.768c0.255,0,0.511,0,0.768,0c0,0.254,0,0.511,0,0.768C55.674,9.691,55.417,9.691,55.162,9.691L55.162,9.691z
		 M54.21,8.74c0-0.256,0-0.512,0-0.768c0.255,0,0.511,0,0.768,0c0,0.256,0,0.512,0,0.768C54.721,8.74,54.466,8.74,54.21,8.74
		L54.21,8.74z M53.258,8.74c0-0.256,0-0.512,0-0.768c0.257,0,0.512,0,0.768,0c0,0.256,0,0.512,0,0.768
		C53.77,8.74,53.514,8.74,53.258,8.74L53.258,8.74z M52.306,8.74c0-0.256,0-0.512,0-0.768c0.256,0,0.512,0,0.768,0
		c0,0.256,0,0.512,0,0.768C52.818,8.74,52.562,8.74,52.306,8.74L52.306,8.74z M51.354,9.691c0-0.256,0-0.512,0-0.768
		c0.256,0,0.512,0,0.768,0c0,0.254,0,0.511,0,0.768C51.867,9.691,51.611,9.691,51.354,9.691L51.354,9.691z M51.354,10.645
		c0-0.256,0-0.512,0-0.768c0.256,0,0.512,0,0.768,0c0,0.256,0,0.51,0,0.768C51.867,10.645,51.611,10.645,51.354,10.645
		L51.354,10.645z M55.162,13.5c0-0.257,0-0.513,0-0.769c0.255,0,0.511,0,0.768,0c0,0.256,0,0.511,0,0.769
		C55.674,13.5,55.417,13.5,55.162,13.5L55.162,13.5z M55.162,12.547c0-0.256,0-0.512,0-0.768c0.255,0,0.511,0,0.768,0
		c0,0.256,0,0.512,0,0.768C55.674,12.547,55.417,12.547,55.162,12.547L55.162,12.547z M54.21,11.596c0-0.256,0-0.512,0-0.768
		c0.255,0,0.511,0,0.768,0c0,0.254,0,0.512,0,0.768C54.721,11.596,54.466,11.596,54.21,11.596L54.21,11.596z M53.258,11.596
		c0-0.256,0-0.512,0-0.768c0.257,0,0.512,0,0.768,0c0,0.254,0,0.512,0,0.768C53.77,11.596,53.514,11.596,53.258,11.596
		L53.258,11.596z M52.306,11.596c0-0.256,0-0.512,0-0.768c0.256,0,0.512,0,0.768,0c0,0.254,0,0.512,0,0.768
		C52.818,11.596,52.562,11.596,52.306,11.596L52.306,11.596z M51.354,12.547c0-0.256,0-0.512,0-0.768c0.256,0,0.512,0,0.768,0
		c0,0.256,0,0.512,0,0.768C51.867,12.547,51.611,12.547,51.354,12.547L51.354,12.547z M51.354,13.5c0-0.257,0-0.513,0-0.769
		c0.256,0,0.512,0,0.768,0c0,0.256,0,0.511,0,0.769C51.867,13.5,51.611,13.5,51.354,13.5L51.354,13.5z M52.306,14.451
		c0-0.256,0-0.512,0-0.769c0.256,0,0.512,0,0.768,0c0,0.256,0,0.513,0,0.769C52.818,14.451,52.562,14.451,52.306,14.451
		L52.306,14.451z M53.258,14.451c0-0.256,0-0.512,0-0.769c0.257,0,0.512,0,0.768,0c0,0.256,0,0.513,0,0.769
		C53.77,14.451,53.514,14.451,53.258,14.451L53.258,14.451z M54.21,14.451c0-0.256,0-0.512,0-0.769c0.255,0,0.511,0,0.768,0
		c0,0.256,0,0.513,0,0.769C54.721,14.451,54.466,14.451,54.21,14.451z"/>
	
		<radialGradient id="SVGID_23_" cx="432.5068" cy="411.2119" r="3.9648" gradientTransform="matrix(1 0 0 1 -366 -400)" gradientUnits="userSpaceOnUse">
		<stop  offset="0" style="stop-color:#608740"/>
		<stop  offset="1" style="stop-color:#002207"/>
	</radialGradient>
	<path fill="url(#SVGID_23_)" d="M68.027,10.645c0-0.256,0-0.512,0-0.768c0.256,0,0.51,0,0.768,0c0,0.256,0,0.51,0,0.768
		C68.537,10.645,68.283,10.645,68.027,10.645L68.027,10.645z M68.027,11.588c0-0.256,0-0.512,0-0.769c0.256,0,0.51,0,0.768,0
		c0,0.256,0,0.513,0,0.769C68.537,11.588,68.283,11.588,68.027,11.588L68.027,11.588z M64.219,11.588c0-0.256,0-0.512,0-0.769
		c0.256,0,0.514,0,0.77,0c0,0.256,0,0.513,0,0.769C64.732,11.588,64.476,11.588,64.219,11.588L64.219,11.588z M64.219,14.451
		c0-0.256,0-0.512,0-0.769c0.256,0,0.514,0,0.77,0c0,0.256,0,0.513,0,0.769C64.732,14.451,64.476,14.451,64.219,14.451
		L64.219,14.451z M68.027,14.451c0-0.256,0-0.512,0-0.769c0.256,0,0.51,0,0.768,0c0,0.256,0,0.513,0,0.769
		C68.537,14.451,68.283,14.451,68.027,14.451L68.027,14.451z M68.027,8.74c0-0.256,0-0.512,0-0.768c0.256,0,0.51,0,0.768,0
		c0,0.256,0,0.512,0,0.768C68.537,8.74,68.283,8.74,68.027,8.74L68.027,8.74z M64.219,8.74c0-0.256,0-0.512,0-0.768
		c0.256,0,0.514,0,0.77,0c0,0.256,0,0.512,0,0.768C64.732,8.74,64.476,8.74,64.219,8.74L64.219,8.74z M68.027,9.691
		c0-0.256,0-0.512,0-0.768c0.256,0,0.51,0,0.768,0c0,0.254,0,0.511,0,0.768C68.537,9.691,68.283,9.691,68.027,9.691L68.027,9.691z
		 M67.074,8.74c0-0.256,0-0.512,0-0.768c0.256,0,0.512,0,0.768,0c0,0.256,0,0.512,0,0.768C67.586,8.74,67.33,8.74,67.074,8.74
		L67.074,8.74z M66.123,8.74c0-0.256,0-0.512,0-0.768c0.255,0,0.511,0,0.768,0c0,0.256,0,0.512,0,0.768
		C66.634,8.74,66.379,8.74,66.123,8.74L66.123,8.74z M65.171,8.74c0-0.256,0-0.512,0-0.768c0.255,0,0.511,0,0.768,0
		c0,0.256,0,0.512,0,0.768C65.682,8.74,65.426,8.74,65.171,8.74L65.171,8.74z M64.219,9.691c0-0.256,0-0.512,0-0.768
		c0.256,0,0.512,0,0.77,0c0,0.254,0,0.511,0,0.768C64.73,9.691,64.476,9.691,64.219,9.691L64.219,9.691z M64.219,10.645
		c0-0.256,0-0.512,0-0.768c0.256,0,0.512,0,0.77,0c0,0.256,0,0.51,0,0.768C64.73,10.645,64.476,10.645,64.219,10.645L64.219,10.645z
		 M68.027,13.5c0-0.257,0-0.513,0-0.769c0.256,0,0.51,0,0.768,0c0,0.256,0,0.511,0,0.769C68.537,13.5,68.283,13.5,68.027,13.5
		L68.027,13.5z M68.027,12.547c0-0.256,0-0.512,0-0.768c0.256,0,0.51,0,0.768,0c0,0.256,0,0.512,0,0.768
		C68.537,12.547,68.283,12.547,68.027,12.547L68.027,12.547z M67.074,11.596c0-0.256,0-0.512,0-0.768c0.256,0,0.512,0,0.768,0
		c0,0.254,0,0.512,0,0.768C67.586,11.596,67.33,11.596,67.074,11.596L67.074,11.596z M66.123,11.596c0-0.256,0-0.512,0-0.768
		c0.255,0,0.511,0,0.768,0c0,0.254,0,0.512,0,0.768C66.634,11.596,66.379,11.596,66.123,11.596L66.123,11.596z M65.171,11.596
		c0-0.256,0-0.512,0-0.768c0.255,0,0.511,0,0.768,0c0,0.254,0,0.512,0,0.768C65.682,11.596,65.426,11.596,65.171,11.596
		L65.171,11.596z M64.219,12.547c0-0.256,0-0.512,0-0.768c0.256,0,0.512,0,0.77,0c0,0.256,0,0.512,0,0.768
		C64.73,12.547,64.476,12.547,64.219,12.547L64.219,12.547z M64.219,13.5c0-0.257,0-0.513,0-0.769c0.256,0,0.512,0,0.77,0
		c0,0.256,0,0.511,0,0.769C64.73,13.5,64.476,13.5,64.219,13.5L64.219,13.5z M65.171,14.451c0-0.256,0-0.512,0-0.769
		c0.255,0,0.511,0,0.768,0c0,0.256,0,0.513,0,0.769C65.682,14.451,65.426,14.451,65.171,14.451L65.171,14.451z M66.123,14.451
		c0-0.256,0-0.512,0-0.769c0.255,0,0.511,0,0.768,0c0,0.256,0,0.513,0,0.769C66.634,14.451,66.379,14.451,66.123,14.451
		L66.123,14.451z M67.074,14.451c0-0.256,0-0.512,0-0.769c0.256,0,0.512,0,0.768,0c0,0.256,0,0.513,0,0.769
		C67.586,14.451,67.33,14.451,67.074,14.451z"/>
	
		<radialGradient id="SVGID_24_" cx="424.8613" cy="411.2119" r="3.965" gradientTransform="matrix(1 0 0 1 -366 -400)" gradientUnits="userSpaceOnUse">
		<stop  offset="0" style="stop-color:#608740"/>
		<stop  offset="1" style="stop-color:#002207"/>
	</radialGradient>
	<path fill="url(#SVGID_24_)" d="M60.381,10.645c0-0.256,0-0.512,0-0.768c0.256,0,0.512,0,0.768,0c0,0.256,0,0.51,0,0.768
		C60.893,10.645,60.637,10.645,60.381,10.645L60.381,10.645z M60.381,11.588c0-0.256,0-0.512,0-0.769c0.256,0,0.512,0,0.768,0
		c0,0.256,0,0.513,0,0.769C60.893,11.588,60.637,11.588,60.381,11.588L60.381,11.588z M56.574,11.588c0-0.256,0-0.512,0-0.769
		c0.257,0,0.512,0,0.768,0c0,0.256,0,0.513,0,0.769C57.086,11.588,56.831,11.588,56.574,11.588L56.574,11.588z M56.574,14.451
		c0-0.256,0-0.512,0-0.769c0.257,0,0.512,0,0.768,0c0,0.256,0,0.513,0,0.769C57.086,14.451,56.831,14.451,56.574,14.451
		L56.574,14.451z M60.381,14.451c0-0.256,0-0.512,0-0.769c0.256,0,0.512,0,0.768,0c0,0.256,0,0.513,0,0.769
		C60.893,14.451,60.637,14.451,60.381,14.451L60.381,14.451z M60.381,8.74c0-0.256,0-0.512,0-0.768c0.256,0,0.512,0,0.768,0
		c0,0.256,0,0.512,0,0.768C60.893,8.74,60.637,8.74,60.381,8.74L60.381,8.74z M56.574,8.74c0-0.256,0-0.512,0-0.768
		c0.257,0,0.512,0,0.768,0c0,0.256,0,0.512,0,0.768C57.086,8.74,56.831,8.74,56.574,8.74L56.574,8.74z M60.381,9.691
		c0-0.256,0-0.512,0-0.768c0.256,0,0.512,0,0.768,0c0,0.254,0,0.511,0,0.768C60.893,9.691,60.637,9.691,60.381,9.691L60.381,9.691z
		 M59.429,8.74c0-0.256,0-0.512,0-0.768c0.255,0,0.511,0,0.768,0c0,0.256,0,0.512,0,0.768C59.941,8.74,59.685,8.74,59.429,8.74
		L59.429,8.74z M58.478,8.74c0-0.256,0-0.512,0-0.768c0.255,0,0.51,0,0.768,0c0,0.256,0,0.512,0,0.768
		C58.989,8.74,58.734,8.74,58.478,8.74L58.478,8.74z M57.525,8.74c0-0.256,0-0.512,0-0.768c0.256,0,0.511,0,0.768,0
		c0,0.256,0,0.512,0,0.768C58.037,8.74,57.782,8.74,57.525,8.74L57.525,8.74z M56.574,9.691c0-0.256,0-0.512,0-0.768
		c0.256,0,0.512,0,0.768,0c0,0.254,0,0.511,0,0.768C57.086,9.691,56.83,9.691,56.574,9.691L56.574,9.691z M56.574,10.645
		c0-0.256,0-0.512,0-0.768c0.256,0,0.512,0,0.768,0c0,0.256,0,0.51,0,0.768C57.086,10.645,56.83,10.645,56.574,10.645L56.574,10.645
		z M60.381,13.5c0-0.257,0-0.513,0-0.769c0.256,0,0.512,0,0.768,0c0,0.256,0,0.511,0,0.769C60.893,13.5,60.637,13.5,60.381,13.5
		L60.381,13.5z M60.381,12.547c0-0.256,0-0.512,0-0.768c0.256,0,0.512,0,0.768,0c0,0.256,0,0.512,0,0.768
		C60.893,12.547,60.637,12.547,60.381,12.547L60.381,12.547z M59.429,11.596c0-0.256,0-0.512,0-0.768c0.255,0,0.511,0,0.768,0
		c0,0.254,0,0.512,0,0.768C59.941,11.596,59.685,11.596,59.429,11.596L59.429,11.596z M58.478,11.596c0-0.256,0-0.512,0-0.768
		c0.255,0,0.51,0,0.768,0c0,0.254,0,0.512,0,0.768C58.989,11.596,58.734,11.596,58.478,11.596L58.478,11.596z M57.525,11.596
		c0-0.256,0-0.512,0-0.768c0.256,0,0.511,0,0.768,0c0,0.254,0,0.512,0,0.768C58.037,11.596,57.782,11.596,57.525,11.596
		L57.525,11.596z M56.574,12.547c0-0.256,0-0.512,0-0.768c0.256,0,0.512,0,0.768,0c0,0.256,0,0.512,0,0.768
		C57.086,12.547,56.83,12.547,56.574,12.547L56.574,12.547z M56.574,13.5c0-0.257,0-0.513,0-0.769c0.256,0,0.512,0,0.768,0
		c0,0.256,0,0.511,0,0.769C57.086,13.5,56.83,13.5,56.574,13.5L56.574,13.5z M57.525,14.451c0-0.256,0-0.512,0-0.769
		c0.256,0,0.511,0,0.768,0c0,0.256,0,0.513,0,0.769C58.037,14.451,57.782,14.451,57.525,14.451L57.525,14.451z M58.478,14.451
		c0-0.256,0-0.512,0-0.769c0.255,0,0.51,0,0.768,0c0,0.256,0,0.513,0,0.769C58.989,14.451,58.734,14.451,58.478,14.451
		L58.478,14.451z M59.429,14.451c0-0.256,0-0.512,0-0.769c0.255,0,0.511,0,0.768,0c0,0.256,0,0.513,0,0.769
		C59.941,14.451,59.685,14.451,59.429,14.451z"/>
	
		<radialGradient id="SVGID_25_" cx="437.7266" cy="411.2119" r="3.9647" gradientTransform="matrix(1 0 0 1 -366 -400)" gradientUnits="userSpaceOnUse">
		<stop  offset="0" style="stop-color:#608740"/>
		<stop  offset="1" style="stop-color:#002207"/>
	</radialGradient>
	<path fill="url(#SVGID_25_)" d="M73.244,10.645c0-0.256,0-0.512,0-0.768c0.256,0,0.513,0,0.769,0c0,0.256,0,0.51,0,0.768
		C73.758,10.645,73.5,10.645,73.244,10.645L73.244,10.645z M73.244,11.588c0-0.256,0-0.512,0-0.769c0.256,0,0.514,0,0.77,0
		c0,0.256,0,0.513,0,0.769C73.758,11.588,73.5,11.588,73.244,11.588L73.244,11.588z M69.438,11.588c0-0.256,0-0.512,0-0.769
		c0.257,0,0.513,0,0.769,0c0,0.256,0,0.513,0,0.769C69.951,11.588,69.695,11.588,69.438,11.588L69.438,11.588z M69.438,14.451
		c0-0.256,0-0.512,0-0.769c0.257,0,0.513,0,0.769,0c0,0.256,0,0.513,0,0.769C69.951,14.451,69.695,14.451,69.438,14.451
		L69.438,14.451z M73.244,14.451c0-0.256,0-0.512,0-0.769c0.256,0,0.514,0,0.77,0c0,0.256,0,0.513,0,0.769
		C73.758,14.451,73.5,14.451,73.244,14.451L73.244,14.451z M73.244,8.74c0-0.256,0-0.512,0-0.768c0.256,0,0.514,0,0.77,0
		c0,0.256,0,0.512,0,0.768C73.758,8.74,73.5,8.74,73.244,8.74L73.244,8.74z M69.438,8.74c0-0.256,0-0.512,0-0.768
		c0.257,0,0.513,0,0.769,0c0,0.256,0,0.512,0,0.768C69.951,8.74,69.695,8.74,69.438,8.74L69.438,8.74z M73.244,9.691
		c0-0.256,0-0.512,0-0.768c0.256,0,0.513,0,0.769,0c0,0.254,0,0.511,0,0.768C73.758,9.691,73.5,9.691,73.244,9.691L73.244,9.691z
		 M72.293,8.74c0-0.256,0-0.512,0-0.768c0.255,0,0.512,0,0.768,0c0,0.256,0,0.512,0,0.768C72.806,8.74,72.55,8.74,72.293,8.74
		L72.293,8.74z M71.343,8.74c0-0.256,0-0.512,0-0.768c0.255,0,0.51,0,0.769,0c0,0.256,0,0.512,0,0.768
		C71.853,8.74,71.598,8.74,71.343,8.74L71.343,8.74z M70.389,8.74c0-0.256,0-0.512,0-0.768c0.257,0,0.512,0,0.77,0
		c0,0.256,0,0.512,0,0.768C70.9,8.74,70.646,8.74,70.389,8.74L70.389,8.74z M69.438,9.691c0-0.256,0-0.512,0-0.768
		c0.257,0,0.511,0,0.769,0c0,0.254,0,0.511,0,0.768C69.949,9.691,69.695,9.691,69.438,9.691L69.438,9.691z M69.438,10.645
		c0-0.256,0-0.512,0-0.768c0.257,0,0.511,0,0.769,0c0,0.256,0,0.51,0,0.768C69.949,10.645,69.695,10.645,69.438,10.645
		L69.438,10.645z M73.244,13.5c0-0.257,0-0.513,0-0.769c0.256,0,0.513,0,0.769,0c0,0.256,0,0.511,0,0.769
		C73.758,13.5,73.5,13.5,73.244,13.5L73.244,13.5z M73.244,12.547c0-0.256,0-0.512,0-0.768c0.256,0,0.513,0,0.769,0
		c0,0.256,0,0.512,0,0.768C73.758,12.547,73.5,12.547,73.244,12.547L73.244,12.547z M72.293,11.596c0-0.256,0-0.512,0-0.768
		c0.255,0,0.512,0,0.768,0c0,0.254,0,0.512,0,0.768C72.806,11.596,72.55,11.596,72.293,11.596L72.293,11.596z M71.343,11.596
		c0-0.256,0-0.512,0-0.768c0.255,0,0.51,0,0.769,0c0,0.254,0,0.512,0,0.768C71.853,11.596,71.598,11.596,71.343,11.596
		L71.343,11.596z M70.389,11.596c0-0.256,0-0.512,0-0.768c0.257,0,0.512,0,0.77,0c0,0.254,0,0.512,0,0.768
		C70.9,11.596,70.646,11.596,70.389,11.596L70.389,11.596z M69.438,12.547c0-0.256,0-0.512,0-0.768c0.257,0,0.511,0,0.769,0
		c0,0.256,0,0.512,0,0.768C69.949,12.547,69.695,12.547,69.438,12.547L69.438,12.547z M69.438,13.5c0-0.257,0-0.513,0-0.769
		c0.257,0,0.511,0,0.769,0c0,0.256,0,0.511,0,0.769C69.949,13.5,69.695,13.5,69.438,13.5L69.438,13.5z M70.389,14.451
		c0-0.256,0-0.512,0-0.769c0.257,0,0.512,0,0.77,0c0,0.256,0,0.513,0,0.769C70.9,14.451,70.646,14.451,70.389,14.451L70.389,14.451z
		 M71.343,14.451c0-0.256,0-0.512,0-0.769c0.255,0,0.51,0,0.769,0c0,0.256,0,0.513,0,0.769
		C71.853,14.451,71.598,14.451,71.343,14.451L71.343,14.451z M72.293,14.451c0-0.256,0-0.512,0-0.769c0.255,0,0.512,0,0.768,0
		c0,0.256,0,0.513,0,0.769C72.806,14.451,72.55,14.451,72.293,14.451z"/>
	<path fill="#B7D433" d="M68.027,10.645c0-0.256,0-0.512,0-0.768c0.256,0,0.51,0,0.768,0c0,0.256,0,0.51,0,0.768
		C68.537,10.645,68.283,10.645,68.027,10.645L68.027,10.645z M68.027,11.588c0-0.256,0-0.512,0-0.769c0.256,0,0.51,0,0.768,0
		c0,0.256,0,0.513,0,0.769C68.537,11.588,68.283,11.588,68.027,11.588L68.027,11.588z M64.219,11.588c0-0.256,0-0.512,0-0.769
		c0.256,0,0.514,0,0.77,0c0,0.256,0,0.513,0,0.769C64.732,11.588,64.476,11.588,64.219,11.588L64.219,11.588z M64.219,14.451
		c0-0.256,0-0.512,0-0.769c0.256,0,0.514,0,0.77,0c0,0.256,0,0.513,0,0.769C64.732,14.451,64.476,14.451,64.219,14.451
		L64.219,14.451z M68.027,14.451c0-0.256,0-0.512,0-0.769c0.256,0,0.51,0,0.768,0c0,0.256,0,0.513,0,0.769
		C68.537,14.451,68.283,14.451,68.027,14.451L68.027,14.451z M68.027,8.74c0-0.256,0-0.512,0-0.768c0.256,0,0.51,0,0.768,0
		c0,0.256,0,0.512,0,0.768C68.537,8.74,68.283,8.74,68.027,8.74L68.027,8.74z M64.219,8.74c0-0.256,0-0.512,0-0.768
		c0.256,0,0.514,0,0.77,0c0,0.256,0,0.512,0,0.768C64.732,8.74,64.476,8.74,64.219,8.74L64.219,8.74z M68.027,9.691
		c0-0.256,0-0.512,0-0.768c0.256,0,0.51,0,0.768,0c0,0.254,0,0.511,0,0.768C68.537,9.691,68.283,9.691,68.027,9.691L68.027,9.691z
		 M67.074,8.74c0-0.256,0-0.512,0-0.768c0.256,0,0.512,0,0.768,0c0,0.256,0,0.512,0,0.768C67.586,8.74,67.33,8.74,67.074,8.74
		L67.074,8.74z M66.123,8.74c0-0.256,0-0.512,0-0.768c0.255,0,0.511,0,0.768,0c0,0.256,0,0.512,0,0.768
		C66.634,8.74,66.379,8.74,66.123,8.74L66.123,8.74z M65.171,8.74c0-0.256,0-0.512,0-0.768c0.255,0,0.511,0,0.768,0
		c0,0.256,0,0.512,0,0.768C65.682,8.74,65.426,8.74,65.171,8.74L65.171,8.74z M67.074,11.596c0-0.256,0-0.512,0-0.768
		c0.256,0,0.512,0,0.768,0c0,0.254,0,0.512,0,0.768C67.586,11.596,67.33,11.596,67.074,11.596L67.074,11.596z M66.123,11.596
		c0-0.256,0-0.512,0-0.768c0.255,0,0.511,0,0.768,0c0,0.254,0,0.512,0,0.768C66.634,11.596,66.379,11.596,66.123,11.596
		L66.123,11.596z M65.171,11.596c0-0.256,0-0.512,0-0.768c0.255,0,0.511,0,0.768,0c0,0.254,0,0.512,0,0.768
		C65.682,11.596,65.426,11.596,65.171,11.596L65.171,11.596z M64.219,12.547c0-0.256,0-0.512,0-0.768c0.256,0,0.512,0,0.77,0
		c0,0.256,0,0.512,0,0.768C64.73,12.547,64.476,12.547,64.219,12.547L64.219,12.547z M64.219,13.5c0-0.257,0-0.513,0-0.769
		c0.256,0,0.512,0,0.77,0c0,0.256,0,0.511,0,0.769C64.73,13.5,64.476,13.5,64.219,13.5L64.219,13.5z M65.171,14.451
		c0-0.256,0-0.512,0-0.769c0.255,0,0.511,0,0.768,0c0,0.256,0,0.513,0,0.769C65.682,14.451,65.426,14.451,65.171,14.451
		L65.171,14.451z M66.123,14.451c0-0.256,0-0.512,0-0.769c0.255,0,0.511,0,0.768,0c0,0.256,0,0.513,0,0.769
		C66.634,14.451,66.379,14.451,66.123,14.451L66.123,14.451z M67.074,14.451c0-0.256,0-0.512,0-0.769c0.256,0,0.512,0,0.768,0
		c0,0.256,0,0.513,0,0.769C67.586,14.451,67.33,14.451,67.074,14.451z"/>
	<path fill="#B7D433" d="M55.162,10.645c0-0.256,0-0.512,0-0.768c0.255,0,0.511,0,0.768,0c0,0.256,0,0.51,0,0.768
		C55.674,10.645,55.417,10.645,55.162,10.645L55.162,10.645z M55.162,11.588c0-0.256,0-0.512,0-0.769c0.255,0,0.511,0,0.768,0
		c0,0.256,0,0.513,0,0.769C55.674,11.588,55.417,11.588,55.162,11.588L55.162,11.588z M51.354,11.588c0-0.256,0-0.512,0-0.769
		c0.256,0,0.512,0,0.768,0c0,0.256,0,0.513,0,0.769C51.867,11.588,51.612,11.588,51.354,11.588L51.354,11.588z M51.354,14.451
		c0-0.256,0-0.512,0-0.769c0.256,0,0.512,0,0.768,0c0,0.256,0,0.513,0,0.769C51.867,14.451,51.612,14.451,51.354,14.451
		L51.354,14.451z M55.162,14.451c0-0.256,0-0.512,0-0.769c0.255,0,0.511,0,0.768,0c0,0.256,0,0.513,0,0.769
		C55.674,14.451,55.417,14.451,55.162,14.451L55.162,14.451z M55.162,8.74c0-0.256,0-0.512,0-0.768c0.255,0,0.511,0,0.768,0
		c0,0.256,0,0.512,0,0.768C55.674,8.74,55.417,8.74,55.162,8.74L55.162,8.74z M51.354,8.74c0-0.256,0-0.512,0-0.768
		c0.256,0,0.512,0,0.768,0c0,0.256,0,0.512,0,0.768C51.867,8.74,51.612,8.74,51.354,8.74L51.354,8.74z M55.162,9.691
		c0-0.256,0-0.512,0-0.768c0.255,0,0.511,0,0.768,0c0,0.254,0,0.511,0,0.768C55.674,9.691,55.417,9.691,55.162,9.691L55.162,9.691z
		 M54.21,8.74c0-0.256,0-0.512,0-0.768c0.255,0,0.511,0,0.768,0c0,0.256,0,0.512,0,0.768C54.721,8.74,54.466,8.74,54.21,8.74
		L54.21,8.74z M53.258,8.74c0-0.256,0-0.512,0-0.768c0.257,0,0.512,0,0.768,0c0,0.256,0,0.512,0,0.768
		C53.77,8.74,53.514,8.74,53.258,8.74L53.258,8.74z M52.306,8.74c0-0.256,0-0.512,0-0.768c0.256,0,0.512,0,0.768,0
		c0,0.256,0,0.512,0,0.768C52.818,8.74,52.562,8.74,52.306,8.74L52.306,8.74z M55.162,13.5c0-0.257,0-0.513,0-0.769
		c0.255,0,0.511,0,0.768,0c0,0.256,0,0.511,0,0.769C55.674,13.5,55.417,13.5,55.162,13.5L55.162,13.5z M55.162,12.547
		c0-0.256,0-0.512,0-0.768c0.255,0,0.511,0,0.768,0c0,0.256,0,0.512,0,0.768C55.674,12.547,55.417,12.547,55.162,12.547
		L55.162,12.547z M54.21,11.596c0-0.256,0-0.512,0-0.768c0.255,0,0.511,0,0.768,0c0,0.254,0,0.512,0,0.768
		C54.721,11.596,54.466,11.596,54.21,11.596L54.21,11.596z M53.258,11.596c0-0.256,0-0.512,0-0.768c0.257,0,0.512,0,0.768,0
		c0,0.254,0,0.512,0,0.768C53.77,11.596,53.514,11.596,53.258,11.596L53.258,11.596z M52.306,11.596c0-0.256,0-0.512,0-0.768
		c0.256,0,0.512,0,0.768,0c0,0.254,0,0.512,0,0.768C52.818,11.596,52.562,11.596,52.306,11.596L52.306,11.596z M52.306,14.451
		c0-0.256,0-0.512,0-0.769c0.256,0,0.512,0,0.768,0c0,0.256,0,0.513,0,0.769C52.818,14.451,52.562,14.451,52.306,14.451
		L52.306,14.451z M53.258,14.451c0-0.256,0-0.512,0-0.769c0.257,0,0.512,0,0.768,0c0,0.256,0,0.513,0,0.769
		C53.77,14.451,53.514,14.451,53.258,14.451L53.258,14.451z M54.21,14.451c0-0.256,0-0.512,0-0.769c0.255,0,0.511,0,0.768,0
		c0,0.256,0,0.513,0,0.769C54.721,14.451,54.466,14.451,54.21,14.451z"/>
	<path fill="#B7D433" d="M73.244,10.645c0-0.256,0-0.512,0-0.768c0.256,0,0.513,0,0.769,0c0,0.256,0,0.51,0,0.768
		C73.758,10.645,73.5,10.645,73.244,10.645L73.244,10.645z M73.244,11.588c0-0.256,0-0.512,0-0.769c0.256,0,0.514,0,0.77,0
		c0,0.256,0,0.513,0,0.769C73.758,11.588,73.5,11.588,73.244,11.588L73.244,11.588z M73.244,14.451c0-0.256,0-0.512,0-0.769
		c0.256,0,0.514,0,0.77,0c0,0.256,0,0.513,0,0.769C73.758,14.451,73.5,14.451,73.244,14.451L73.244,14.451z M73.244,8.74
		c0-0.256,0-0.512,0-0.768c0.256,0,0.514,0,0.77,0c0,0.256,0,0.512,0,0.768C73.758,8.74,73.5,8.74,73.244,8.74L73.244,8.74z
		 M69.438,8.74c0-0.256,0-0.512,0-0.768c0.257,0,0.513,0,0.769,0c0,0.256,0,0.512,0,0.768C69.951,8.74,69.695,8.74,69.438,8.74
		L69.438,8.74z M73.244,9.691c0-0.256,0-0.512,0-0.768c0.256,0,0.513,0,0.769,0c0,0.254,0,0.511,0,0.768
		C73.758,9.691,73.5,9.691,73.244,9.691L73.244,9.691z M72.293,8.74c0-0.256,0-0.512,0-0.768c0.255,0,0.512,0,0.768,0
		c0,0.256,0,0.512,0,0.768C72.806,8.74,72.55,8.74,72.293,8.74L72.293,8.74z M71.343,8.74c0-0.256,0-0.512,0-0.768
		c0.255,0,0.51,0,0.769,0c0,0.256,0,0.512,0,0.768C71.853,8.74,71.598,8.74,71.343,8.74L71.343,8.74z M70.389,8.74
		c0-0.256,0-0.512,0-0.768c0.257,0,0.512,0,0.77,0c0,0.256,0,0.512,0,0.768C70.9,8.74,70.646,8.74,70.389,8.74L70.389,8.74z
		 M73.244,13.5c0-0.257,0-0.513,0-0.769c0.256,0,0.513,0,0.769,0c0,0.256,0,0.511,0,0.769C73.758,13.5,73.5,13.5,73.244,13.5
		L73.244,13.5z M73.244,12.547c0-0.256,0-0.512,0-0.768c0.256,0,0.513,0,0.769,0c0,0.256,0,0.512,0,0.768
		C73.758,12.547,73.5,12.547,73.244,12.547z"/>
	<path fill="#B7D433" d="M60.381,10.645c0-0.256,0-0.512,0-0.768c0.256,0,0.512,0,0.768,0c0,0.256,0,0.51,0,0.768
		C60.893,10.645,60.637,10.645,60.381,10.645L60.381,10.645z M60.381,11.588c0-0.256,0-0.512,0-0.769c0.256,0,0.512,0,0.768,0
		c0,0.256,0,0.513,0,0.769C60.893,11.588,60.637,11.588,60.381,11.588L60.381,11.588z M60.381,14.451c0-0.256,0-0.512,0-0.769
		c0.256,0,0.512,0,0.768,0c0,0.256,0,0.513,0,0.769C60.893,14.451,60.637,14.451,60.381,14.451L60.381,14.451z M60.381,8.74
		c0-0.256,0-0.512,0-0.768c0.256,0,0.512,0,0.768,0c0,0.256,0,0.512,0,0.768C60.893,8.74,60.637,8.74,60.381,8.74L60.381,8.74z
		 M60.381,9.691c0-0.256,0-0.512,0-0.768c0.256,0,0.512,0,0.768,0c0,0.254,0,0.511,0,0.768C60.893,9.691,60.637,9.691,60.381,9.691
		L60.381,9.691z M59.429,8.74c0-0.256,0-0.512,0-0.768c0.255,0,0.511,0,0.768,0c0,0.256,0,0.512,0,0.768
		C59.941,8.74,59.685,8.74,59.429,8.74L59.429,8.74z M60.381,13.5c0-0.257,0-0.513,0-0.769c0.256,0,0.512,0,0.768,0
		c0,0.256,0,0.511,0,0.769C60.893,13.5,60.637,13.5,60.381,13.5L60.381,13.5z M60.381,12.547c0-0.256,0-0.512,0-0.768
		c0.256,0,0.512,0,0.768,0c0,0.256,0,0.512,0,0.768C60.893,12.547,60.637,12.547,60.381,12.547z"/>
	<path fill="#B7D433" d="M62.277,10.645c0-0.256,0-0.512,0-0.768c0.256,0,0.512,0,0.769,0c0,0.256,0,0.51,0,0.768
		C62.789,10.645,62.533,10.645,62.277,10.645L62.277,10.645z M62.264,13.5c0-0.257,0-0.513,0-0.769c0.257,0,0.512,0,0.768,0
		c0,0.256,0,0.512,0,0.769C62.775,13.5,62.521,13.5,62.264,13.5z"/>
	<path fill="#FFFFFF" d="M48.519,5.58h27.466c0.186,0,0.336,0.152,0.336,0.34v0.211c0-0.188-0.151-0.34-0.336-0.34H48.519
		c-0.186,0-0.337,0.152-0.337,0.34V5.92C48.182,5.732,48.333,5.58,48.519,5.58z"/>
	
		<linearGradient id="SVGID_26_" gradientUnits="userSpaceOnUse" x1="428.2422" y1="412.7285" x2="428.2422" y2="396.6393" gradientTransform="matrix(1 0 0 1 -366 -400)">
		<stop  offset="0" style="stop-color:#000000"/>
		<stop  offset="1" style="stop-color:#FFFFFF"/>
	</linearGradient>
	<path fill="url(#SVGID_26_)" d="M50.021,6.717h24.442c0.13,0,0.235,0.106,0.235,0.236v0.264c0-0.129-0.105-0.236-0.235-0.236
		H50.021c-0.129,0-0.236,0.107-0.236,0.236V6.953C49.786,6.824,49.893,6.717,50.021,6.717z"/>
	
		<linearGradient id="SVGID_27_" gradientUnits="userSpaceOnUse" x1="428.2422" y1="414.5381" x2="428.2422" y2="415.9363" gradientTransform="matrix(1 0 0 1 -366 -400)">
		<stop  offset="0" style="stop-color:#000000"/>
		<stop  offset="1" style="stop-color:#2F653B"/>
	</linearGradient>
	<path fill="url(#SVGID_27_)" d="M50.021,15.68h24.442c0.13,0,0.235-0.106,0.235-0.236v-0.263c0,0.129-0.105,0.235-0.235,0.235
		H50.021c-0.129,0-0.236-0.106-0.236-0.235v0.263C49.786,15.573,49.893,15.68,50.021,15.68z"/>
</g>
</svg>
