<?xml version="1.0" encoding="utf-8"?>
<!-- Generated by IcoMoon.io -->
<!DOCTYPE svg PUBLIC "-//W3C//DTD SVG 1.1//EN" "http://www.w3.org/Graphics/SVG/1.1/DTD/svg11.dtd">
<svg version="1.1" xmlns="http://www.w3.org/2000/svg" xmlns:xlink="http://www.w3.org/1999/xlink" width="34" height="34" viewBox="0 0 34 34">
<g>
</g>
	<path d="M28.688 0h-25.5c-1.753 0-3.188 1.434-3.188 3.188v27.625c0 1.753 1.434 3.188 3.188 3.188h25.5c1.753 0 3.188-1.434 3.188-3.188v-27.625c0-1.753-1.434-3.188-3.188-3.188zM27.625 29.75h-23.375v-25.5h23.375v25.5zM8.5 19.125h14.875v2.125h-14.875zM8.5 23.375h14.875v2.125h-14.875zM10.625 9.563c0-1.76 1.427-3.188 3.188-3.188s3.188 1.427 3.188 3.188c0 1.76-1.427 3.188-3.188 3.188-1.76 0-3.188-1.427-3.188-3.188zM15.938 12.75h-4.25c-1.753 0-3.188 0.956-3.188 2.125v2.125h10.625v-2.125c0-1.169-1.434-2.125-3.188-2.125z" fill="#7d7d7d" />
</svg>
