<?xml version="1.0" encoding="utf-8"?>
<!-- Generated by IcoMoon.io -->
<!DOCTYPE svg PUBLIC "-//W3C//DTD SVG 1.1//EN" "http://www.w3.org/Graphics/SVG/1.1/DTD/svg11.dtd">
<svg version="1.1" xmlns="http://www.w3.org/2000/svg" xmlns:xlink="http://www.w3.org/1999/xlink" width="34" height="34" viewBox="0 0 34 34">
<g>
</g>
	<path d="M29.826 26.296l-6.424-6.424c0.969-1.593 1.527-3.46 1.527-5.46 0-5.807-5.034-10.841-10.843-10.841-5.807 0-10.516 4.709-10.516 10.516 0 5.809 5.032 10.843 10.841 10.843 1.931 0 3.74-0.524 5.296-1.433l6.458 6.46c0.634 0.632 1.657 0.632 2.288 0l1.603-1.601c0.631-0.632 0.401-1.428-0.23-2.059zM6.807 14.086c0-4.021 3.259-7.281 7.279-7.281 4.022 0 7.606 3.584 7.606 7.606s-3.259 7.281-7.281 7.281-7.604-3.584-7.604-7.606z" fill="#7d7d7d" />
</svg>
