<?xml version="1.0" encoding="utf-8"?>
<!-- Generator: Adobe Illustrator 16.0.0, SVG Export Plug-In . SVG Version: 6.00 Build 0)  -->
<!DOCTYPE svg PUBLIC "-//W3C//DTD SVG 1.1//EN" "http://www.w3.org/Graphics/SVG/1.1/DTD/svg11.dtd">
<svg version="1.1" id="Layer_1" xmlns="http://www.w3.org/2000/svg" xmlns:xlink="http://www.w3.org/1999/xlink" x="0px" y="0px"
	 width="131.5px" height="131.5px" viewBox="0 80.5 131.5 131.5" enable-background="new 0 80.5 131.5 131.5" xml:space="preserve">
<g>
	<g id="Layer_1_2_">
		<rect y="79.5" opacity="0.76" fill="#FFFFFF" enable-background="new    " width="132.5" height="132.5"/>
	</g>
	<g id="Layer_2">
		<g>
			<g>
				<path fill="#0D68AA" d="M38.187,169.73c0,0.337,0.021,0.647,0.065,0.928c0.043,0.282,0.124,0.525,0.244,0.731
					c0.118,0.206,0.281,0.37,0.488,0.488c0.206,0.118,0.465,0.178,0.778,0.178c0.325,0,0.587-0.06,0.788-0.178
					c0.199-0.118,0.359-0.282,0.478-0.488c0.12-0.206,0.2-0.449,0.245-0.731c0.043-0.28,0.065-0.591,0.065-0.928v-9.337h2.7v9.337
					c0,0.85-0.119,1.553-0.356,2.109c-0.238,0.557-0.556,0.998-0.957,1.322c-0.4,0.324-0.856,0.543-1.368,0.655
					c-0.512,0.114-1.043,0.17-1.594,0.17c-0.551,0-1.081-0.05-1.594-0.15c-0.513-0.1-0.969-0.303-1.368-0.609
					c-0.401-0.306-0.719-0.741-0.956-1.304c-0.238-0.563-0.356-1.293-0.356-2.193v-9.337h2.7L38.187,169.73L38.187,169.73z"/>
				<path fill="#0D68AA" d="M48.142,163.693v1.182h0.038c0.274-0.501,0.632-0.865,1.069-1.098c0.437-0.23,0.938-0.347,1.5-0.347
					c0.825,0,1.459,0.225,1.903,0.675c0.444,0.451,0.666,1.182,0.666,2.193v7.482h-2.587v-6.957c0-0.525-0.088-0.89-0.263-1.096
					c-0.175-0.207-0.456-0.311-0.844-0.311c-0.913,0-1.369,0.557-1.369,1.669v6.694h-2.588v-10.088H48.142z"/>
				<path fill="#0D68AA" d="M57.723,160.243v2.212h-2.587v-2.212H57.723z M57.723,163.693v10.088h-2.587v-10.088H57.723z"/>
				<path fill="#0D68AA" d="M62.018,163.693v1.35h0.038c0.263-0.486,0.581-0.877,0.956-1.172c0.375-0.293,0.831-0.44,1.369-0.44
					c0.075,0,0.152,0.004,0.234,0.01c0.082,0.006,0.16,0.016,0.234,0.028v2.475c-0.138-0.013-0.272-0.021-0.404-0.028
					s-0.266-0.009-0.403-0.009c-0.225,0-0.45,0.03-0.675,0.093c-0.226,0.063-0.432,0.166-0.619,0.31s-0.337,0.331-0.45,0.563
					c-0.112,0.23-0.169,0.516-0.169,0.853v6.056h-2.587v-10.088h2.476V163.693z"/>
				<path fill="#0D68AA" d="M67.68,170.818c0,0.438,0.116,0.791,0.347,1.06c0.231,0.268,0.565,0.403,1.003,0.403
					c0.4,0,0.718-0.101,0.956-0.301c0.237-0.199,0.356-0.499,0.356-0.899c0-0.325-0.093-0.572-0.282-0.741
					c-0.187-0.168-0.405-0.303-0.656-0.402l-1.818-0.657c-0.713-0.249-1.25-0.603-1.613-1.059c-0.363-0.456-0.544-1.041-0.544-1.754
					c0-0.413,0.069-0.802,0.207-1.172c0.137-0.368,0.356-0.69,0.657-0.966c0.299-0.274,0.685-0.493,1.153-0.655
					c0.469-0.163,1.034-0.245,1.696-0.245c1.175,0,2.044,0.25,2.606,0.749c0.563,0.501,0.844,1.208,0.844,2.12v0.412h-2.325
					c0-0.524-0.084-0.909-0.253-1.154c-0.169-0.242-0.465-0.364-0.89-0.364c-0.326,0-0.61,0.091-0.853,0.272
					c-0.244,0.181-0.366,0.453-0.366,0.816c0,0.249,0.078,0.475,0.234,0.675c0.156,0.199,0.454,0.368,0.892,0.505l1.556,0.526
					c0.812,0.274,1.388,0.634,1.726,1.078c0.337,0.443,0.506,1.046,0.506,1.81c0,0.537-0.093,1.003-0.281,1.396
					s-0.447,0.723-0.779,0.984c-0.33,0.263-0.725,0.449-1.181,0.562c-0.456,0.114-0.958,0.17-1.509,0.17
					c-0.725,0-1.328-0.069-1.809-0.206c-0.482-0.139-0.863-0.345-1.144-0.619s-0.479-0.609-0.591-1.004
					c-0.112-0.393-0.168-0.833-0.168-1.321v-0.356h2.325L67.68,170.818L67.68,170.818z"/>
				<path fill="#0D68AA" d="M76.323,169.938c0,0.3,0.021,0.59,0.065,0.871c0.043,0.282,0.116,0.532,0.216,0.751
					c0.1,0.218,0.231,0.393,0.393,0.524c0.163,0.131,0.362,0.197,0.601,0.197c0.437,0,0.756-0.156,0.956-0.469
					c0.199-0.313,0.338-0.788,0.412-1.425h2.326c-0.05,1.174-0.363,2.067-0.938,2.681c-0.575,0.612-1.482,0.919-2.72,0.919
					c-0.938,0-1.668-0.156-2.194-0.469c-0.524-0.313-0.912-0.726-1.162-1.237c-0.25-0.513-0.403-1.088-0.459-1.726
					c-0.056-0.637-0.084-1.275-0.084-1.913c0-0.675,0.046-1.324,0.141-1.949c0.094-0.625,0.28-1.182,0.563-1.668
					c0.281-0.488,0.684-0.876,1.209-1.164c0.525-0.287,1.225-0.43,2.101-0.43c0.749,0,1.365,0.121,1.847,0.366
					c0.481,0.243,0.859,0.586,1.133,1.029c0.275,0.444,0.462,0.981,0.562,1.612c0.101,0.633,0.15,1.336,0.15,2.109v0.582h-5.118
					L76.323,169.938L76.323,169.938z M78.892,166.571c-0.038-0.295-0.103-0.544-0.196-0.751c-0.093-0.206-0.225-0.361-0.394-0.469
					c-0.169-0.104-0.384-0.158-0.647-0.158c-0.262,0-0.478,0.06-0.647,0.178c-0.169,0.118-0.302,0.274-0.403,0.469
					c-0.1,0.194-0.171,0.409-0.215,0.647c-0.044,0.237-0.066,0.475-0.066,0.712v0.395h2.644
					C78.954,167.206,78.929,166.865,78.892,166.571z"/>
				<path fill="#0D68AA" d="M87.273,166.543c0-0.586,0.093-1.077,0.281-1.471c0.188-0.395,0.44-0.714,0.759-0.955
					c0.32-0.245,0.694-0.42,1.125-0.526c0.431-0.105,0.891-0.159,1.378-0.159c0.775,0,1.4,0.074,1.875,0.224
					c0.475,0.15,0.844,0.362,1.107,0.639c0.262,0.274,0.44,0.603,0.534,0.983c0.094,0.381,0.141,0.797,0.141,1.246v5.307
					c0,0.477,0.021,0.845,0.065,1.106c0.044,0.263,0.128,0.544,0.253,0.845h-2.475c-0.087-0.163-0.153-0.335-0.196-0.517
					c-0.044-0.181-0.085-0.358-0.122-0.534H91.96c-0.3,0.525-0.646,0.866-1.041,1.022c-0.394,0.156-0.902,0.234-1.527,0.234
					c-0.451,0-0.832-0.078-1.144-0.234s-0.563-0.373-0.75-0.647s-0.325-0.585-0.413-0.929c-0.087-0.343-0.131-0.684-0.131-1.021
					c0-0.475,0.05-0.884,0.15-1.228s0.253-0.639,0.459-0.882s0.469-0.446,0.787-0.609c0.319-0.163,0.703-0.306,1.154-0.431
					l1.462-0.395c0.388-0.1,0.657-0.236,0.806-0.412c0.15-0.175,0.225-0.432,0.225-0.769c0-0.389-0.091-0.69-0.272-0.909
					c-0.182-0.219-0.49-0.328-0.927-0.328c-0.401,0-0.701,0.118-0.9,0.356c-0.2,0.237-0.299,0.556-0.299,0.955v0.281h-2.326V166.543
					L87.273,166.543z M91.435,169.065c-0.2,0.081-0.381,0.141-0.544,0.179c-0.525,0.111-0.9,0.299-1.125,0.561
					c-0.224,0.263-0.337,0.619-0.337,1.07c0,0.387,0.075,0.719,0.225,0.993c0.15,0.274,0.4,0.413,0.751,0.413
					c0.174,0,0.355-0.028,0.543-0.085c0.188-0.056,0.359-0.146,0.515-0.272c0.156-0.124,0.285-0.287,0.384-0.486
					c0.101-0.2,0.15-0.438,0.15-0.714v-1.987C91.822,168.875,91.635,168.983,91.435,169.065z"/>
				<path fill="#0D68AA" d="M36.752,187.6c-0.274,0.5-0.631,0.856-1.069,1.069c-0.438,0.212-0.938,0.318-1.5,0.318
					c-0.825,0-1.46-0.216-1.903-0.647c-0.444-0.43-0.666-1.153-0.666-2.165v-7.481h2.587v6.957c0,0.524,0.088,0.89,0.263,1.096
					c0.174,0.206,0.456,0.311,0.844,0.311c0.912,0,1.369-0.557,1.369-1.669v-6.694h2.587v10.088h-2.475V187.6H36.752z"/>
				<path fill="#0D68AA" d="M43.464,178.693v1.182h0.038c0.274-0.501,0.631-0.865,1.069-1.098c0.437-0.23,0.938-0.347,1.499-0.347
					c0.825,0,1.459,0.225,1.903,0.675c0.444,0.451,0.666,1.182,0.666,2.193v7.482h-2.588v-6.957c0-0.525-0.088-0.89-0.263-1.096
					c-0.175-0.207-0.456-0.311-0.844-0.311c-0.913,0-1.369,0.557-1.369,1.669v6.694h-2.587v-10.088H43.464z"/>
				<path fill="#0D68AA" d="M50.346,181.543c0-0.586,0.094-1.077,0.281-1.471c0.188-0.395,0.44-0.714,0.759-0.955
					c0.319-0.245,0.694-0.42,1.125-0.526c0.431-0.105,0.891-0.159,1.378-0.159c0.774,0,1.399,0.074,1.875,0.224
					c0.475,0.15,0.844,0.362,1.106,0.639c0.263,0.274,0.441,0.603,0.534,0.983c0.094,0.381,0.141,0.797,0.141,1.246v5.307
					c0,0.477,0.021,0.845,0.065,1.106c0.044,0.263,0.128,0.544,0.253,0.845H55.39c-0.088-0.163-0.153-0.335-0.196-0.517
					c-0.044-0.181-0.085-0.358-0.122-0.534h-0.038c-0.299,0.525-0.646,0.866-1.041,1.022s-0.903,0.234-1.528,0.234
					c-0.45,0-0.831-0.078-1.144-0.234s-0.563-0.373-0.75-0.647s-0.326-0.585-0.413-0.929c-0.087-0.343-0.131-0.684-0.131-1.021
					c0-0.475,0.05-0.884,0.15-1.228c0.1-0.344,0.253-0.639,0.459-0.882s0.469-0.446,0.788-0.609s0.703-0.306,1.153-0.431
					l1.462-0.395c0.388-0.1,0.656-0.236,0.806-0.412c0.15-0.175,0.225-0.432,0.225-0.769c0-0.389-0.091-0.69-0.272-0.909
					s-0.491-0.328-0.928-0.328c-0.4,0-0.7,0.118-0.9,0.356c-0.2,0.237-0.299,0.556-0.299,0.955v0.281h-2.326L50.346,181.543
					L50.346,181.543z M54.508,184.065c-0.2,0.081-0.381,0.141-0.543,0.179c-0.525,0.111-0.899,0.299-1.125,0.561
					c-0.224,0.263-0.337,0.619-0.337,1.07c0,0.387,0.075,0.719,0.225,0.993c0.15,0.274,0.4,0.413,0.75,0.413
					c0.174,0,0.355-0.028,0.543-0.085c0.188-0.056,0.359-0.146,0.515-0.272c0.156-0.124,0.284-0.287,0.384-0.486
					c0.1-0.2,0.15-0.438,0.15-0.714v-1.987C54.896,183.875,54.708,183.983,54.508,184.065z"/>
				<path fill="#0D68AA" d="M66.357,178.693v1.069h0.038c0.287-0.476,0.609-0.817,0.965-1.023c0.356-0.205,0.796-0.309,1.322-0.309
					c1.063,0,1.844,0.416,2.344,1.246c0.5,0.833,0.75,2.186,0.75,4.061s-0.25,3.219-0.75,4.03c-0.5,0.813-1.281,1.22-2.344,1.22
					c-0.487,0-0.903-0.092-1.246-0.272c-0.344-0.181-0.654-0.472-0.928-0.873H66.47v4.182h-2.588v-13.332h2.475V178.693z
					 M66.723,186.221c0.169,0.557,0.541,0.836,1.116,0.836c0.562,0,0.928-0.279,1.097-0.836c0.17-0.555,0.253-1.384,0.253-2.483
					c0-1.101-0.085-1.929-0.253-2.484c-0.168-0.558-0.533-0.836-1.097-0.836c-0.575,0-0.947,0.278-1.116,0.836
					c-0.169,0.556-0.253,1.384-0.253,2.484C66.47,184.837,66.554,185.666,66.723,186.221z"/>
				<path fill="#0D68AA" d="M73.126,181.449c0.138-0.662,0.363-1.216,0.675-1.658c0.313-0.445,0.721-0.781,1.228-1.014
					c0.507-0.23,1.128-0.347,1.866-0.347c0.775-0.013,1.418,0.091,1.931,0.309c0.512,0.22,0.919,0.555,1.219,1.004
					c0.299,0.45,0.512,1.006,0.638,1.669c0.125,0.662,0.188,1.438,0.188,2.325c0,0.861-0.068,1.624-0.206,2.287
					s-0.362,1.216-0.675,1.658c-0.313,0.445-0.722,0.773-1.229,0.985c-0.506,0.213-1.128,0.319-1.865,0.319
					c-0.775,0.013-1.419-0.085-1.931-0.291c-0.513-0.206-0.919-0.532-1.219-0.976c-0.299-0.443-0.513-1-0.638-1.669
					c-0.125-0.669-0.188-1.44-0.188-2.315C72.92,182.874,72.988,182.112,73.126,181.449z M75.545,185.162
					c0.025,0.438,0.084,0.813,0.178,1.125c0.093,0.313,0.234,0.558,0.422,0.731c0.188,0.175,0.438,0.263,0.75,0.263
					c0.525,0,0.888-0.273,1.087-0.825c0.199-0.549,0.299-1.456,0.299-2.719s-0.1-2.169-0.299-2.719
					c-0.2-0.551-0.563-0.825-1.087-0.825c-0.313,0-0.563,0.089-0.75,0.263c-0.188,0.175-0.329,0.419-0.422,0.731
					c-0.094,0.313-0.153,0.688-0.178,1.126c-0.025,0.437-0.037,0.911-0.037,1.424S75.52,184.725,75.545,185.162z"/>
				<path fill="#0D68AA" d="M84.939,175.394v13.388h-2.588v-13.388H84.939z"/>
				<path fill="#0D68AA" d="M89.438,175.394v13.388h-2.587v-13.388H89.438z"/>
				<path fill="#0D68AA" d="M91.238,181.543c0-0.586,0.094-1.077,0.282-1.471c0.187-0.395,0.441-0.714,0.76-0.955
					c0.319-0.245,0.693-0.42,1.125-0.526c0.431-0.105,0.891-0.159,1.377-0.159c0.775,0,1.4,0.074,1.875,0.224
					c0.477,0.15,0.845,0.362,1.107,0.639c0.263,0.274,0.44,0.603,0.533,0.983c0.094,0.381,0.142,0.797,0.142,1.246v5.307
					c0,0.477,0.021,0.845,0.065,1.106c0.044,0.263,0.128,0.544,0.253,0.845h-2.475c-0.087-0.163-0.153-0.335-0.197-0.517
					c-0.043-0.181-0.084-0.358-0.121-0.534h-0.039c-0.299,0.525-0.646,0.866-1.04,1.022s-0.903,0.234-1.528,0.234
					c-0.451,0-0.831-0.078-1.144-0.234s-0.563-0.373-0.75-0.647s-0.326-0.585-0.413-0.929c-0.087-0.343-0.13-0.684-0.13-1.021
					c0-0.475,0.049-0.884,0.149-1.228s0.253-0.639,0.459-0.882c0.205-0.243,0.469-0.446,0.788-0.609s0.703-0.306,1.153-0.431
					l1.463-0.395c0.387-0.1,0.656-0.236,0.806-0.412c0.15-0.175,0.226-0.432,0.226-0.769c0-0.389-0.091-0.69-0.273-0.909
					c-0.181-0.219-0.491-0.328-0.927-0.328c-0.401,0-0.7,0.118-0.9,0.356c-0.2,0.237-0.299,0.556-0.299,0.955v0.281h-2.325v-0.243
					H91.238z M95.401,184.065c-0.2,0.081-0.381,0.141-0.544,0.179c-0.525,0.111-0.899,0.299-1.125,0.561
					c-0.225,0.263-0.338,0.619-0.338,1.07c0,0.387,0.075,0.719,0.226,0.993c0.15,0.274,0.399,0.413,0.75,0.413
					c0.175,0,0.355-0.028,0.543-0.085c0.188-0.056,0.359-0.146,0.516-0.272c0.156-0.124,0.284-0.287,0.384-0.486
					c0.1-0.2,0.15-0.438,0.15-0.714v-1.987C95.789,183.875,95.601,183.983,95.401,184.065z"/>
			</g>
			<g>
				<g>
					<path fill="#FFFFFF" d="M66.847,153.435c24.399,0,44.301-1.963,44.301-4.369c0-2.405-19.901-4.368-44.301-4.368
						c-24.401,0-44.303,1.963-44.303,4.368C22.543,151.472,42.445,153.435,66.847,153.435z"/>
					<path fill="#FAFBFB" d="M66.847,153.322c23.886,0,43.368-1.926,43.368-4.286s-19.482-4.285-43.368-4.285
						c-23.888,0-43.371,1.925-43.371,4.285S42.958,153.322,66.847,153.322z"/>
					<path fill="#F6F7F8" d="M66.847,153.21c23.373,0,42.436-1.888,42.436-4.203s-19.063-4.203-42.436-4.203
						c-23.374,0-42.437,1.888-42.437,4.203S43.473,153.21,66.847,153.21z"/>
					<path fill="#F3F4F5" d="M66.847,153.098c22.859,0,41.503-1.852,41.503-4.12c0-2.27-18.644-4.12-41.503-4.12
						c-22.861,0-41.505,1.851-41.505,4.12C25.341,151.246,43.985,153.098,66.847,153.098z"/>
					<path fill="#F0F2F3" d="M66.847,152.984c22.345,0,40.571-1.813,40.571-4.036c0-2.224-18.226-4.037-40.571-4.037
						c-22.347,0-40.573,1.813-40.573,4.037C26.274,151.171,44.5,152.984,66.847,152.984z"/>
					<path fill="#EDEFF1" d="M66.847,152.871c21.833,0,39.638-1.775,39.638-3.952s-17.806-3.953-39.638-3.953
						c-21.833,0-39.64,1.776-39.64,3.953S45.013,152.871,66.847,152.871z"/>
					<path fill="#EAEDEF" d="M66.847,152.76c21.317,0,38.706-1.738,38.706-3.87c0-2.133-17.388-3.87-38.706-3.87
						c-21.32,0-38.708,1.737-38.708,3.87C28.139,151.021,45.527,152.76,66.847,152.76z"/>
					<path fill="#E8EAED" d="M66.847,152.646c20.805,0,37.773-1.701,37.773-3.787c0-2.085-16.968-3.787-37.773-3.787
						c-20.806,0-37.775,1.702-37.775,3.787C29.072,150.945,46.041,152.646,66.847,152.646z"/>
					<path fill="#E5E8EB" d="M66.847,152.533c20.291,0,36.841-1.664,36.841-3.703c0-2.04-16.55-3.704-36.841-3.704
						c-20.292,0-36.842,1.664-36.842,3.704C30.004,150.869,46.554,152.533,66.847,152.533z"/>
					<path fill="#E2E6E9" d="M66.847,152.421c19.778,0,35.908-1.626,35.908-3.62c0-1.995-16.131-3.621-35.908-3.621
						c-19.778,0-35.91,1.626-35.91,3.621C30.937,150.795,47.068,152.421,66.847,152.421z"/>
					<path fill="#DFE3E7" d="M66.847,152.309c19.264,0,34.976-1.589,34.976-3.537s-15.711-3.538-34.976-3.538
						c-19.266,0-34.977,1.59-34.977,3.538S47.581,152.309,66.847,152.309z"/>
					<path fill="#DCE1E5" d="M66.847,152.196c18.75,0,34.044-1.553,34.044-3.454c0-1.903-15.294-3.455-34.044-3.455
						c-18.751,0-34.045,1.552-34.045,3.455C32.802,150.644,48.095,152.196,66.847,152.196z"/>
					<path fill="#D9DFE3" d="M66.847,152.083c18.237,0,33.112-1.514,33.112-3.37c0-1.857-14.875-3.372-33.112-3.372
						c-18.238,0-33.112,1.515-33.112,3.372C33.734,150.569,48.609,152.083,66.847,152.083z"/>
					<path fill="#D7DDE1" d="M66.847,151.971c17.723,0,32.178-1.477,32.178-3.287c0-1.812-14.455-3.289-32.178-3.289
						c-17.724,0-32.18,1.477-32.18,3.289C34.667,150.494,49.123,151.971,66.847,151.971z"/>
					<path fill="#D4DBE0" d="M66.847,151.858c17.21,0,31.247-1.439,31.247-3.204c0-1.767-14.037-3.206-31.247-3.206
						c-17.21,0-31.247,1.439-31.247,3.206C35.6,150.419,49.636,151.858,66.847,151.858z"/>
					<path fill="#D1D9DE" d="M66.847,151.746c16.696,0,30.314-1.402,30.314-3.123c0-1.719-13.618-3.12-30.314-3.12
						c-16.696,0-30.314,1.401-30.314,3.12C36.532,150.344,50.15,151.746,66.847,151.746z"/>
					<path fill="#CED6DC" d="M66.847,151.633c16.183,0,29.381-1.365,29.381-3.039c0-1.673-13.198-3.037-29.381-3.037
						c-16.184,0-29.382,1.364-29.382,3.037C37.464,150.268,50.664,151.633,66.847,151.633z"/>
				</g>
				<g>
					<g>
						
							<linearGradient id="SVGID_1_" gradientUnits="userSpaceOnUse" x1="226.541" y1="-162.9404" x2="226.541" y2="-140.1738" gradientTransform="matrix(1 0 0 -1 -183 -14.5)">
							<stop  offset="0" style="stop-color:#FFFFFF"/>
							<stop  offset="1" style="stop-color:#817E7E"/>
						</linearGradient>
						<path fill="url(#SVGID_1_)" d="M49.143,133.787l0.654-7.574l-1.137-0.539c0,0.781-4.311,3.355-5.104,3.355
							c-0.941,0-5.101-2.623-5.101-3.355l-1.171,0.539l0.689,7.574l1.813,5.356l3.011,9.297h1.522l3.008-9.297L49.143,133.787z"/>
						
							<linearGradient id="SVGID_2_" gradientUnits="userSpaceOnUse" x1="226.5938" y1="-144.9956" x2="226.4612" y2="-164.1116" gradientTransform="matrix(1 0 0 -1 -183 -14.5)">
							<stop  offset="0" style="stop-color:#A11D21"/>
							<stop  offset="0.0296" style="stop-color:#A61E22"/>
							<stop  offset="0.1735" style="stop-color:#BA1F24"/>
							<stop  offset="0.3433" style="stop-color:#C91F26"/>
							<stop  offset="0.5616" style="stop-color:#D21F26"/>
							<stop  offset="1" style="stop-color:#D51F26"/>
						</linearGradient>
						<path fill="url(#SVGID_2_)" d="M57.71,128.977c-0.582-0.055-5.309-1.822-6.259-1.953l-1.654-0.811l-6.244,5.591l-6.269-5.591
							l-1.712,0.822c-0.914,0.124-5.602,1.888-6.166,1.94c-3.994,0.374-4.402,2.216-4.402,6.717c0,1.734,2.135,4.796,2.401,6.511
							c0.687,4.412,2.318,6.237,6.33,6.237H53.38c4.013,0,5.547-1.87,6.332-6.237c0.307-1.707,2.401-4.776,2.401-6.511
							C62.111,131.377,61.705,129.35,57.71,128.977z"/>
					</g>
					<g>
						
							<radialGradient id="SVGID_3_" cx="226.5566" cy="-128.5298" r="9.8406" gradientTransform="matrix(1 0 0 -1 -183 -14.5)" gradientUnits="userSpaceOnUse">
							<stop  offset="0" style="stop-color:#F7E4CF"/>
							<stop  offset="0.0993" style="stop-color:#F7E2CA"/>
							<stop  offset="0.2281" style="stop-color:#F5DABC"/>
							<stop  offset="0.3732" style="stop-color:#F1CDA4"/>
							<stop  offset="0.529" style="stop-color:#EDBC86"/>
							<stop  offset="0.6373" style="stop-color:#E9AF6F"/>
							<stop  offset="0.7005" style="stop-color:#DDA56A"/>
							<stop  offset="0.789" style="stop-color:#C48F5F"/>
							<stop  offset="0.8924" style="stop-color:#9F704E"/>
							<stop  offset="1" style="stop-color:#754E3A"/>
						</radialGradient>
						<path fill="url(#SVGID_3_)" d="M43.556,102.983c-6.16,0-8.465,3.129-8.465,8.702c0,2.041,0.574,2.612,0.791,4.252
							c0.106,0.808,0.363,2.496,0.762,3.065c1.153,1.647,1.818,3.096,2.646,4.163c0.921,1.19,2.044,1.91,4.268,1.91
							c2.219,0,3.344-0.669,4.272-1.846c0.825-1.046,1.496-2.491,2.64-4.228c0.536-0.811,0.812-2.863,0.935-4.055
							c0.144-1.393,0.618-1.619,0.618-3.263C52.021,106.112,49.715,102.983,43.556,102.983z"/>
						
							<linearGradient id="SVGID_4_" gradientUnits="userSpaceOnUse" x1="226.5566" y1="-143.5283" x2="226.5566" y2="-137.668" gradientTransform="matrix(1 0 0 -1 -183 -14.5)">
							<stop  offset="0" style="stop-color:#F0C89B"/>
							<stop  offset="0.0719" style="stop-color:#EFC596"/>
							<stop  offset="0.1711" style="stop-color:#EDBD87"/>
							<stop  offset="0.2863" style="stop-color:#EAB071"/>
							<stop  offset="0.4126" style="stop-color:#E59F51"/>
							<stop  offset="0.4559" style="stop-color:#E39844"/>
							<stop  offset="1" style="stop-color:#6E4631"/>
						</linearGradient>
						<path fill="url(#SVGID_4_)" d="M47.736,124.869c0-0.888,0.042-1.357,0.092-1.637c-0.929,1.176-2.054,1.843-4.272,1.843
							c-2.223,0-3.346-0.718-4.266-1.907c0.033,0.34,0.06,0.854,0.06,1.633c0,0.603-0.036,0.872-0.895,0.872
							c0,0.733,4.16,3.355,5.101,3.355c0.792,0,5.103-2.573,5.103-3.355C48.013,125.673,47.736,125.453,47.736,124.869z"/>
						
							<linearGradient id="SVGID_5_" gradientUnits="userSpaceOnUse" x1="216.7998" y1="-122.0474" x2="231.625" y2="-122.0474" gradientTransform="matrix(1 0 0 -1 -183 -14.5)">
							<stop  offset="0" style="stop-color:#000000"/>
							<stop  offset="1" style="stop-color:#706D6D"/>
						</linearGradient>
						<path fill="url(#SVGID_5_)" d="M48.372,104.005c-1.543,1.397-2.435,1.259-4.001,1.263c-1.841,0.006-1.295-0.444-2.117,1.033
							c0.01-0.754-0.578,0.56-0.667-0.146c-1.17,0.143-1.3-0.57-1.974,0.383c-0.097-0.669-0.609,0.138-0.56-0.52
							c-1.241,0.498-2.898,0.076-2.898,3.227c0,1.167,0.296,2.151-0.301,2.633c-0.715,0.574,0.065,3.313,0.027,4.06
							c-0.895,0-0.976-1.556-1.04-2.406c-0.101-1.328-0.731-1.14-0.857-2.466c-0.21-2.186-0.371-3.194,0.277-5.292
							c0.686-2.221,1.323-3.929,3.386-4.949c1.548-0.765,3.734-2.068,5.306-1.549c1.087,0.356,3.354,0.61,4.402,1.145
							c0.843,0.431,1.059,0.519,1.123,0.752c0.057,0.207-0.003,0.525,0.144,1.288C48.654,102.627,48.443,103.94,48.372,104.005z"/>
						
							<linearGradient id="SVGID_6_" gradientUnits="userSpaceOnUse" x1="231.3711" y1="-122.3838" x2="236.3398" y2="-122.3838" gradientTransform="matrix(1 0 0 -1 -183 -14.5)">
							<stop  offset="0" style="stop-color:#000000"/>
							<stop  offset="1" style="stop-color:#706D6D"/>
						</linearGradient>
						<path fill="url(#SVGID_6_)" d="M52.737,105.672c-0.151-0.809-1.201-2.798-1.538-3.128c-0.407-0.401-0.745-1.383-1.047-1.611
							c-0.25-0.191-1.458-0.161-1.674,0.239c0.057,0.207-0.004,0.524,0.144,1.288c0.032,0.167-0.179,1.479-0.25,1.544
							c0.08,0.308,0.299,0.848,0.642,0.994c0.784,0.333,1.003,0.378,0.755,1.159c0.207-0.316,0.327-0.309,0.363-0.507
							c0.379,0.623,0.653,1.307,0.632,1.699c-0.027,0.511-0.122,1.033-0.006,1.523c0.104,0.448,0.237,0.896,0.541,2.143
							c0.114,0.466,0.324,0.436,0.27,0.904c-0.114,0.982-0.196,2.03-0.166,3.028c0.46,0,0.808-0.409,0.845-0.703
							c0.057-0.464,0.227-1.183,0.499-1.823c0.146-0.349,0.596-1.657,0.595-2.57C53.339,107.799,52.846,106.255,52.737,105.672z"/>
					</g>
				</g>
				<g>
					<g>
						<path fill="#FFFFFF" d="M93.672,133.787l0.654-7.574l-1.137-0.539c0,0.781-4.311,3.355-5.104,3.355
							c-0.941,0-5.102-2.623-5.102-3.355l-1.17,0.539l0.689,7.574l1.813,5.356l3.011,9.297h1.523l3.008-9.297L93.672,133.787z"/>
						
							<linearGradient id="SVGID_7_" gradientUnits="userSpaceOnUse" x1="271.123" y1="-144.9951" x2="270.9905" y2="-164.1111" gradientTransform="matrix(1 0 0 -1 -183 -14.5)">
							<stop  offset="0" style="stop-color:#A29639"/>
							<stop  offset="0.3374" style="stop-color:#A2CD3A"/>
						</linearGradient>
						<path fill="url(#SVGID_7_)" d="M102.24,128.977c-0.583-0.055-5.309-1.822-6.259-1.953l-1.655-0.811l-6.243,5.591l-6.27-5.591
							l-1.712,0.822c-0.914,0.124-5.603,1.888-6.167,1.94c-3.994,0.374-4.402,2.216-4.402,6.717c0,1.734,2.135,4.796,2.401,6.511
							c0.687,4.412,2.318,6.237,6.331,6.237h19.644c4.014,0,5.547-1.87,6.332-6.237c0.306-1.707,2.401-4.776,2.401-6.511
							C106.641,131.377,106.234,129.35,102.24,128.977z"/>
					</g>
					<g>
						
							<radialGradient id="SVGID_8_" cx="271.0859" cy="-128.5298" r="9.8411" gradientTransform="matrix(1 0 0 -1 -183 -14.5)" gradientUnits="userSpaceOnUse">
							<stop  offset="0" style="stop-color:#F7E4CF"/>
							<stop  offset="0.0993" style="stop-color:#F7E2CA"/>
							<stop  offset="0.2281" style="stop-color:#F5DABC"/>
							<stop  offset="0.3732" style="stop-color:#F1CDA4"/>
							<stop  offset="0.529" style="stop-color:#EDBC86"/>
							<stop  offset="0.6373" style="stop-color:#E9AF6F"/>
							<stop  offset="0.7005" style="stop-color:#DDA56A"/>
							<stop  offset="0.789" style="stop-color:#C48F5F"/>
							<stop  offset="0.8924" style="stop-color:#9F704E"/>
							<stop  offset="1" style="stop-color:#754E3A"/>
						</radialGradient>
						<path fill="url(#SVGID_8_)" d="M88.086,102.983c-6.16,0-8.466,3.129-8.466,8.702c0,2.041,0.575,2.612,0.791,4.252
							c0.107,0.808,0.363,2.496,0.762,3.065c1.154,1.647,1.818,3.096,2.646,4.163c0.921,1.19,2.045,1.91,4.268,1.91
							c2.219,0,3.344-0.669,4.272-1.846c0.825-1.046,1.496-2.491,2.641-4.228c0.536-0.811,0.812-2.863,0.934-4.055
							c0.144-1.393,0.619-1.619,0.619-3.263C96.552,106.112,94.244,102.983,88.086,102.983z"/>
						
							<linearGradient id="SVGID_9_" gradientUnits="userSpaceOnUse" x1="271.0859" y1="-143.5283" x2="271.0859" y2="-137.668" gradientTransform="matrix(1 0 0 -1 -183 -14.5)">
							<stop  offset="0" style="stop-color:#F0C89B"/>
							<stop  offset="0.0719" style="stop-color:#EFC596"/>
							<stop  offset="0.1711" style="stop-color:#EDBD87"/>
							<stop  offset="0.2863" style="stop-color:#EAB071"/>
							<stop  offset="0.4126" style="stop-color:#E59F51"/>
							<stop  offset="0.4559" style="stop-color:#E39844"/>
							<stop  offset="1" style="stop-color:#6E4631"/>
						</linearGradient>
						<path fill="url(#SVGID_9_)" d="M92.266,124.869c0-0.888,0.043-1.357,0.092-1.637c-0.929,1.176-2.054,1.843-4.271,1.843
							c-2.224,0-3.346-0.718-4.267-1.907c0.033,0.34,0.06,0.854,0.06,1.633c0,0.603-0.036,0.872-0.895,0.872
							c0,0.733,4.16,3.355,5.102,3.355c0.792,0,5.103-2.573,5.103-3.355C92.543,125.673,92.266,125.453,92.266,124.869z"/>
						
							<linearGradient id="SVGID_10_" gradientUnits="userSpaceOnUse" x1="261.3291" y1="-122.0474" x2="276.1543" y2="-122.0474" gradientTransform="matrix(1 0 0 -1 -183 -14.5)">
							<stop  offset="0" style="stop-color:#000000"/>
							<stop  offset="1" style="stop-color:#706D6D"/>
						</linearGradient>
						<path fill="url(#SVGID_10_)" d="M92.901,104.005c-1.543,1.397-2.435,1.259-4,1.263c-1.841,0.006-1.295-0.444-2.118,1.033
							c0.01-0.754-0.578,0.56-0.666-0.146c-1.171,0.143-1.3-0.57-1.975,0.383c-0.096-0.669-0.609,0.138-0.56-0.52
							c-1.24,0.498-2.898,0.076-2.898,3.227c0,1.167,0.297,2.151-0.301,2.633c-0.714,0.574,0.065,3.313,0.028,4.06
							c-0.895,0-0.975-1.556-1.039-2.406c-0.102-1.328-0.732-1.14-0.858-2.466c-0.21-2.186-0.37-3.194,0.276-5.292
							c0.687-2.221,1.323-3.929,3.387-4.949c1.548-0.765,3.734-2.068,5.306-1.549c1.087,0.356,3.354,0.61,4.402,1.145
							c0.842,0.431,1.059,0.519,1.123,0.752c0.056,0.207-0.004,0.525,0.144,1.288C93.183,102.627,92.973,103.94,92.901,104.005z"/>
						
							<linearGradient id="SVGID_11_" gradientUnits="userSpaceOnUse" x1="275.9004" y1="-122.3838" x2="280.8691" y2="-122.3838" gradientTransform="matrix(1 0 0 -1 -183 -14.5)">
							<stop  offset="0" style="stop-color:#000000"/>
							<stop  offset="1" style="stop-color:#706D6D"/>
						</linearGradient>
						<path fill="url(#SVGID_11_)" d="M97.266,105.672c-0.151-0.809-1.201-2.798-1.538-3.128c-0.407-0.401-0.745-1.383-1.046-1.611
							c-0.25-0.191-1.459-0.161-1.675,0.239c0.057,0.207-0.003,0.524,0.144,1.288c0.032,0.167-0.179,1.479-0.25,1.544
							c0.079,0.308,0.3,0.848,0.642,0.994c0.784,0.333,1.004,0.378,0.755,1.159c0.207-0.316,0.327-0.309,0.363-0.507
							c0.379,0.623,0.653,1.307,0.632,1.699c-0.027,0.511-0.121,1.033-0.006,1.523c0.104,0.448,0.237,0.896,0.542,2.143
							c0.113,0.466,0.323,0.436,0.27,0.904c-0.114,0.982-0.197,2.03-0.166,3.028c0.461,0,0.808-0.409,0.845-0.703
							c0.058-0.464,0.227-1.183,0.499-1.823c0.146-0.349,0.596-1.657,0.595-2.57C97.869,107.799,97.375,106.255,97.266,105.672z"/>
					</g>
				</g>
				<path d="M80.645,128.977c-0.582-0.055-5.308-1.822-6.259-1.953l-1.654-0.811l-1.138-0.539c-0.646,0-0.924-0.221-0.924-0.805
					c0-0.888,0.043-1.356,0.092-1.637c-0.929,1.177-2.053,1.844-4.272,1.844c2.22,0,3.344-0.669,4.273-1.846
					c0.824-1.046,1.496-2.491,2.64-4.228c0.537-0.811,0.812-2.863,0.935-4.055c0.459,0,0.807-0.409,0.844-0.702
					c0.058-0.464,0.226-1.184,0.499-1.823c0.147-0.349,0.596-1.657,0.595-2.57c-0.001-2.053-0.494-3.597-0.604-4.18
					c-0.151-0.809-1.202-2.798-1.539-3.128c-0.406-0.401-0.744-1.382-1.046-1.611c-0.25-0.191-1.459-0.16-1.675,0.239
					c-0.064-0.233-0.279-0.321-1.123-0.752c-1.048-0.535-3.315-0.789-4.402-1.145c-1.572-0.519-3.757,0.785-5.306,1.549
					c-2.063,1.02-2.7,2.728-3.385,4.949c-0.648,2.097-0.487,3.106-0.278,5.292c0.126,1.326,0.757,1.138,0.858,2.466
					c0.064,0.85,0.145,2.406,1.04,2.406c0.107,0.808,0.363,2.496,0.763,3.065c1.152,1.647,1.817,3.096,2.645,4.163
					c0.104,0.137,0.213,0.264,0.324,0.386c-0.111-0.122-0.218-0.249-0.322-0.383c0.032,0.339,0.059,0.854,0.059,1.633
					c0,0.602-0.035,0.872-0.895,0.872l-1.17,0.539l-1.713,0.822c-0.914,0.124-5.602,1.888-6.166,1.94
					c-3.994,0.374-4.402,2.216-4.402,6.717c0,1.734,2.136,4.796,2.401,6.511c0.687,4.412,2.319,6.237,6.331,6.237h19.645
					c4.013,0,5.547-1.87,6.331-6.237c0.308-1.707,2.402-4.776,2.402-6.511C85.045,131.377,84.639,129.35,80.645,128.977z"/>
			</g>
		</g>
	</g>
</g>
</svg>
