<?xml version="1.0" encoding="utf-8"?>
<!-- Generator: Adobe Illustrator 16.0.0, SVG Export Plug-In . SVG Version: 6.00 Build 0)  -->
<!DOCTYPE svg PUBLIC "-//W3C//DTD SVG 1.1//EN" "http://www.w3.org/Graphics/SVG/1.1/DTD/svg11.dtd">
<svg version="1.1" xmlns="http://www.w3.org/2000/svg" xmlns:xlink="http://www.w3.org/1999/xlink" x="0px" y="0px" width="212px"
	 height="212px" viewBox="0 0 212 212" enable-background="new 0 0 212 212" xml:space="preserve">
<g id="Layer_2_1_">
	<rect x="1.5" fill="#FFFFFF" width="212" height="212"/>
</g>
<g id="Layer_1">
	<g id="Layer_2">
		<g>
			<g>
				<path fill="#0D68AA" d="M61.098,144.369c0,0.539,0.035,1.035,0.105,1.484c0.069,0.451,0.199,0.84,0.39,1.17
					c0.189,0.33,0.45,0.592,0.78,0.781c0.33,0.188,0.745,0.284,1.245,0.284c0.52,0,0.939-0.096,1.26-0.284
					c0.319-0.189,0.574-0.451,0.765-0.781s0.32-0.719,0.391-1.17c0.069-0.449,0.104-0.945,0.104-1.484V129.43h4.32v14.939
					c0,1.359-0.19,2.484-0.57,3.375c-0.38,0.891-0.89,1.596-1.53,2.115s-1.37,0.869-2.189,1.049c-0.82,0.182-1.67,0.271-2.55,0.271
					c-0.881,0-1.73-0.08-2.551-0.24c-0.821-0.16-1.55-0.484-2.189-0.976c-0.641-0.489-1.15-1.187-1.53-2.086
					c-0.38-0.899-0.569-2.069-0.569-3.51V129.43h4.319L61.098,144.369L61.098,144.369z"/>
				<path fill="#0D68AA" d="M77.027,134.709v1.891h0.061c0.439-0.801,1.01-1.385,1.71-1.756c0.699-0.369,1.5-0.555,2.399-0.555
					c1.32,0,2.335,0.359,3.045,1.08s1.065,1.891,1.065,3.51v11.971h-4.14v-11.131c0-0.84-0.141-1.424-0.421-1.754
					c-0.28-0.33-0.729-0.496-1.35-0.496c-1.46,0-2.19,0.891-2.19,2.67v10.711h-4.14v-16.141H77.027z"/>
				<path fill="#0D68AA" d="M92.357,129.189v3.539h-4.14v-3.539H92.357z M92.357,134.709v16.141h-4.14v-16.141H92.357z"/>
				<path fill="#0D68AA" d="M99.228,134.709v2.16h0.061c0.42-0.779,0.93-1.404,1.529-1.875c0.601-0.469,1.33-0.705,2.19-0.705
					c0.12,0,0.244,0.006,0.375,0.016c0.13,0.01,0.255,0.025,0.375,0.045v3.959c-0.221-0.02-0.436-0.033-0.646-0.045
					c-0.21-0.01-0.425-0.014-0.645-0.014c-0.36,0-0.72,0.049-1.08,0.148c-0.36,0.102-0.69,0.266-0.99,0.496
					c-0.3,0.229-0.54,0.528-0.72,0.899c-0.18,0.369-0.271,0.824-0.271,1.363v9.69h-4.14v-16.141h3.962V134.709z"/>
				<path fill="#0D68AA" d="M108.287,146.109c0,0.699,0.186,1.266,0.555,1.695c0.37,0.428,0.905,0.645,1.605,0.645
					c0.64,0,1.148-0.16,1.529-0.48c0.379-0.318,0.569-0.799,0.569-1.438c0-0.521-0.149-0.916-0.45-1.187
					c-0.3-0.27-0.648-0.484-1.05-0.645l-2.909-1.051c-1.141-0.398-2-0.965-2.581-1.693c-0.58-0.73-0.87-1.666-0.87-2.807
					c0-0.66,0.11-1.283,0.33-1.875c0.22-0.59,0.57-1.104,1.051-1.545c0.479-0.439,1.095-0.789,1.845-1.049
					c0.75-0.261,1.654-0.392,2.715-0.392c1.88,0,3.27,0.399,4.17,1.198c0.9,0.802,1.35,1.933,1.35,3.392v0.66h-3.72
					c0-0.84-0.135-1.455-0.405-1.847c-0.27-0.389-0.744-0.584-1.424-0.584c-0.521,0-0.976,0.146-1.365,0.437
					c-0.391,0.289-0.586,0.726-0.586,1.306c0,0.399,0.125,0.76,0.375,1.08c0.25,0.319,0.727,0.59,1.427,0.809l2.489,0.842
					c1.299,0.439,2.221,1.014,2.761,1.725c0.54,0.709,0.81,1.674,0.81,2.896c0,0.858-0.148,1.604-0.449,2.233
					c-0.301,0.631-0.716,1.156-1.246,1.576c-0.528,0.42-1.16,0.719-1.89,0.898c-0.729,0.182-1.534,0.271-2.415,0.271
					c-1.16,0-2.125-0.111-2.895-0.33c-0.771-0.222-1.38-0.552-1.83-0.99c-0.45-0.439-0.766-0.976-0.945-1.605
					c-0.18-0.629-0.27-1.334-0.27-2.115v-0.57h3.72L108.287,146.109L108.287,146.109z"/>
				<path fill="#0D68AA" d="M122.116,144.699c0,0.48,0.034,0.945,0.104,1.395c0.069,0.451,0.186,0.852,0.346,1.201
					s0.369,0.629,0.629,0.84c0.261,0.209,0.58,0.314,0.961,0.314c0.699,0,1.21-0.25,1.529-0.75s0.541-1.26,0.66-2.279h3.721
					c-0.08,1.879-0.58,3.309-1.5,4.289s-2.371,1.471-4.352,1.471c-1.5,0-2.67-0.25-3.51-0.75s-1.46-1.16-1.859-1.979
					c-0.4-0.82-0.646-1.74-0.734-2.761c-0.09-1.02-0.135-2.041-0.135-3.061c0-1.08,0.074-2.119,0.225-3.119s0.449-1.891,0.9-2.67
					c0.449-0.781,1.094-1.4,1.935-1.861c0.84-0.459,1.96-0.688,3.36-0.688c1.199,0,2.185,0.194,2.955,0.586
					c0.77,0.39,1.375,0.938,1.813,1.647c0.44,0.711,0.739,1.57,0.899,2.58c0.16,1.013,0.24,2.138,0.24,3.375v0.931h-8.189
					L122.116,144.699L122.116,144.699z M126.227,139.314c-0.061-0.472-0.164-0.871-0.314-1.201c-0.148-0.33-0.359-0.578-0.63-0.75
					c-0.271-0.168-0.615-0.254-1.035-0.254s-0.765,0.096-1.035,0.285c-0.271,0.188-0.483,0.438-0.646,0.75
					c-0.16,0.311-0.274,0.653-0.344,1.035c-0.07,0.379-0.105,0.76-0.105,1.139v0.631h4.23
					C126.326,140.33,126.286,139.785,126.227,139.314z"/>
				<path fill="#0D68AA" d="M139.637,139.27c0-0.938,0.149-1.725,0.449-2.354c0.301-0.63,0.705-1.142,1.215-1.529
					c0.512-0.391,1.11-0.67,1.801-0.84c0.689-0.17,1.426-0.256,2.205-0.256c1.239,0,2.239,0.119,3,0.358
					c0.76,0.24,1.351,0.58,1.771,1.021c0.42,0.439,0.705,0.965,0.854,1.574s0.226,1.275,0.226,1.994v8.49
					c0,0.762,0.034,1.352,0.104,1.771c0.07,0.419,0.205,0.869,0.405,1.351h-3.96c-0.14-0.261-0.245-0.535-0.313-0.826
					c-0.07-0.289-0.137-0.574-0.195-0.854h-0.062c-0.479,0.84-1.034,1.386-1.665,1.636c-0.63,0.25-1.443,0.375-2.443,0.375
					c-0.721,0-1.33-0.125-1.83-0.375s-0.9-0.597-1.2-1.035c-0.3-0.439-0.521-0.937-0.66-1.486c-0.14-0.549-0.21-1.094-0.21-1.635
					c0-0.76,0.08-1.414,0.24-1.965c0.16-0.55,0.404-1.021,0.734-1.41s0.75-0.715,1.26-0.976c0.511-0.26,1.125-0.489,1.846-0.688
					l2.34-0.631c0.62-0.16,1.051-0.379,1.29-0.66c0.24-0.279,0.36-0.689,0.36-1.229c0-0.621-0.146-1.104-0.437-1.455
					c-0.29-0.35-0.784-0.524-1.483-0.524c-0.642,0-1.121,0.188-1.44,0.57c-0.319,0.379-0.479,0.889-0.479,1.528v0.449h-3.721V139.27
					L139.637,139.27z M146.296,143.305c-0.319,0.129-0.61,0.225-0.87,0.285c-0.84,0.18-1.439,0.479-1.8,0.898
					c-0.358,0.42-0.54,0.99-0.54,1.711c0,0.619,0.12,1.15,0.359,1.59c0.24,0.439,0.641,0.66,1.201,0.66
					c0.278,0,0.568-0.045,0.869-0.135s0.574-0.234,0.824-0.437c0.25-0.198,0.455-0.459,0.615-0.778c0.16-0.32,0.24-0.701,0.24-1.142
					v-3.181C146.916,143,146.616,143.174,146.296,143.305z"/>
				<path fill="#0D68AA" d="M58.803,172.959c-0.439,0.801-1.01,1.371-1.71,1.711c-0.7,0.34-1.5,0.51-2.399,0.51
					c-1.32,0-2.336-0.346-3.045-1.035c-0.711-0.688-1.065-1.846-1.065-3.465v-11.971h4.14v11.131c0,0.84,0.141,1.424,0.421,1.754
					c0.279,0.33,0.729,0.496,1.35,0.496c1.46,0,2.19-0.891,2.19-2.67v-10.711h4.14v16.141h-3.96v-1.891H58.803z"/>
				<path fill="#0D68AA" d="M69.543,158.709v1.891h0.061c0.439-0.801,1.01-1.385,1.71-1.756c0.699-0.369,1.5-0.555,2.399-0.555
					c1.32,0,2.335,0.359,3.045,1.08s1.065,1.891,1.065,3.51v11.971h-4.14v-11.131c0-0.84-0.141-1.424-0.421-1.754
					c-0.28-0.33-0.729-0.496-1.35-0.496c-1.46,0-2.19,0.891-2.19,2.67v10.711h-4.14v-16.141H69.543z"/>
				<path fill="#0D68AA" d="M80.553,163.27c0-0.938,0.15-1.725,0.45-2.354c0.3-0.63,0.705-1.142,1.215-1.529
					c0.511-0.391,1.11-0.67,1.801-0.84c0.689-0.17,1.425-0.256,2.204-0.256c1.24,0,2.24,0.119,3,0.358
					c0.761,0.24,1.351,0.58,1.771,1.021c0.42,0.439,0.705,0.965,0.854,1.574c0.15,0.609,0.226,1.275,0.226,1.994v8.49
					c0,0.762,0.034,1.352,0.104,1.771c0.07,0.419,0.205,0.869,0.405,1.351h-3.96c-0.14-0.261-0.245-0.535-0.314-0.826
					c-0.07-0.289-0.136-0.574-0.195-0.854h-0.061c-0.479,0.84-1.034,1.386-1.665,1.636c-0.63,0.25-1.444,0.375-2.444,0.375
					c-0.721,0-1.33-0.125-1.83-0.375s-0.9-0.597-1.2-1.035c-0.3-0.439-0.521-0.937-0.66-1.486c-0.14-0.549-0.21-1.094-0.21-1.635
					c0-0.76,0.08-1.414,0.24-1.965c0.16-0.55,0.405-1.021,0.735-1.41c0.329-0.39,0.75-0.715,1.26-0.976
					c0.51-0.26,1.125-0.489,1.845-0.688l2.34-0.631c0.62-0.16,1.05-0.379,1.29-0.66c0.24-0.279,0.36-0.689,0.36-1.229
					c0-0.621-0.146-1.104-0.436-1.455c-0.29-0.35-0.785-0.524-1.484-0.524c-0.641,0-1.12,0.188-1.44,0.57
					c-0.32,0.379-0.479,0.889-0.479,1.528v0.449h-3.721L80.553,163.27L80.553,163.27z M87.213,167.305
					c-0.32,0.129-0.61,0.225-0.87,0.285c-0.84,0.18-1.439,0.479-1.8,0.898c-0.359,0.42-0.54,0.99-0.54,1.711
					c0,0.619,0.12,1.15,0.36,1.59c0.24,0.439,0.64,0.66,1.2,0.66c0.279,0,0.569-0.045,0.87-0.135c0.3-0.09,0.574-0.234,0.824-0.437
					c0.25-0.198,0.455-0.459,0.615-0.778c0.16-0.32,0.24-0.701,0.24-1.142v-3.181C87.833,167,87.533,167.174,87.213,167.305z"/>
				<path fill="#0D68AA" d="M106.172,158.709v1.711h0.061c0.458-0.76,0.975-1.307,1.544-1.637c0.57-0.328,1.274-0.494,2.115-0.494
					c1.699,0,2.949,0.666,3.75,1.994c0.799,1.332,1.199,3.496,1.199,6.496s-0.4,5.15-1.199,6.449
					c-0.801,1.301-2.051,1.951-3.75,1.951c-0.779,0-1.445-0.146-1.994-0.437c-0.551-0.289-1.047-0.754-1.485-1.396h-0.061v6.689
					h-4.14v-21.33h3.96V158.709z M106.757,170.754c0.271,0.891,0.865,1.336,1.785,1.336c0.899,0,1.485-0.445,1.755-1.336
					c0.271-0.889,0.405-2.215,0.405-3.975s-0.136-3.086-0.405-3.975c-0.27-0.892-0.854-1.337-1.755-1.337
					c-0.92,0-1.515,0.445-1.785,1.337c-0.27,0.889-0.405,2.215-0.405,3.975S106.487,169.865,106.757,170.754z"/>
				<path fill="#0D68AA" d="M117.002,163.119c0.221-1.061,0.58-1.945,1.08-2.654c0.5-0.711,1.154-1.25,1.965-1.621
					c0.811-0.369,1.805-0.555,2.985-0.555c1.239-0.02,2.27,0.145,3.09,0.494c0.819,0.352,1.47,0.887,1.95,1.605
					c0.479,0.721,0.818,1.61,1.02,2.67c0.2,1.061,0.301,2.301,0.301,3.721c0,1.379-0.109,2.6-0.33,3.66s-0.58,1.944-1.08,2.653
					c-0.5,0.712-1.154,1.236-1.965,1.576s-1.806,0.511-2.984,0.511c-1.24,0.02-2.271-0.136-3.09-0.466
					c-0.82-0.33-1.471-0.85-1.95-1.562c-0.479-0.709-0.82-1.6-1.021-2.67c-0.201-1.069-0.301-2.305-0.301-3.705
					C116.672,165.398,116.781,164.18,117.002,163.119z M120.872,169.059c0.04,0.701,0.135,1.301,0.285,1.801
					c0.149,0.5,0.375,0.892,0.675,1.17c0.3,0.279,0.7,0.421,1.2,0.421c0.84,0,1.42-0.439,1.739-1.32
					c0.319-0.879,0.479-2.33,0.479-4.351c0-2.02-0.16-3.471-0.479-4.35c-0.319-0.881-0.899-1.32-1.739-1.32
					c-0.5,0-0.9,0.142-1.2,0.42c-0.3,0.279-0.525,0.671-0.675,1.171c-0.15,0.5-0.245,1.1-0.285,1.801
					c-0.04,0.699-0.06,1.459-0.06,2.278C120.813,167.6,120.832,168.359,120.872,169.059z"/>
				<path fill="#0D68AA" d="M135.902,153.43v21.42h-4.141v-21.42H135.902z"/>
				<path fill="#0D68AA" d="M143.102,153.43v21.42h-4.14v-21.42H143.102z"/>
				<path fill="#0D68AA" d="M145.98,163.27c0-0.938,0.15-1.725,0.451-2.354c0.299-0.63,0.705-1.142,1.215-1.529
					c0.511-0.391,1.109-0.67,1.801-0.84c0.688-0.17,1.425-0.256,2.203-0.256c1.24,0,2.24,0.119,3,0.358
					c0.762,0.24,1.352,0.58,1.771,1.021c0.42,0.439,0.705,0.965,0.854,1.574c0.15,0.609,0.227,1.275,0.227,1.994v8.49
					c0,0.762,0.034,1.352,0.104,1.771c0.07,0.419,0.205,0.869,0.405,1.351h-3.96c-0.14-0.261-0.244-0.535-0.314-0.826
					c-0.069-0.289-0.135-0.574-0.194-0.854h-0.062c-0.479,0.84-1.033,1.386-1.664,1.636s-1.444,0.375-2.444,0.375
					c-0.722,0-1.33-0.125-1.83-0.375s-0.899-0.597-1.2-1.035c-0.3-0.439-0.521-0.937-0.66-1.486
					c-0.14-0.549-0.209-1.094-0.209-1.635c0-0.76,0.079-1.414,0.239-1.965c0.16-0.55,0.405-1.021,0.735-1.41
					c0.328-0.39,0.75-0.715,1.26-0.976c0.51-0.26,1.125-0.489,1.845-0.688l2.341-0.631c0.619-0.16,1.049-0.379,1.289-0.66
					c0.24-0.279,0.36-0.689,0.36-1.229c0-0.621-0.146-1.104-0.437-1.455c-0.289-0.35-0.785-0.524-1.483-0.524
					c-0.642,0-1.12,0.188-1.44,0.57c-0.32,0.379-0.479,0.889-0.479,1.528v0.449h-3.721v-0.388H145.98z M152.643,167.305
					c-0.32,0.129-0.61,0.225-0.871,0.285c-0.84,0.18-1.438,0.479-1.799,0.898c-0.359,0.42-0.541,0.99-0.541,1.711
					c0,0.619,0.12,1.15,0.36,1.59s0.64,0.66,1.2,0.66c0.279,0,0.568-0.045,0.869-0.135s0.574-0.234,0.824-0.437
					c0.25-0.198,0.455-0.459,0.615-0.778c0.16-0.32,0.24-0.701,0.24-1.142v-3.181C153.262,167,152.962,167.174,152.643,167.305z"/>
			</g>
			<g>
				<g>
					<path fill="#FFFFFF" d="M106.955,118.295c39.039,0,70.881-3.141,70.881-6.99c0-3.849-31.842-6.99-70.881-6.99
						c-39.043,0-70.885,3.141-70.885,6.99C36.07,115.154,67.912,118.295,106.955,118.295z"/>
					<path fill="#FAFBFB" d="M106.955,118.115c38.218,0,69.389-3.08,69.389-6.857s-31.171-6.857-69.389-6.857
						c-38.221,0-69.393,3.08-69.393,6.857S68.734,118.115,106.955,118.115z"/>
					<path fill="#F6F7F8" d="M106.955,117.936c37.396,0,67.896-3.021,67.896-6.725s-30.502-6.725-67.896-6.725
						c-37.399,0-67.9,3.021-67.9,6.725S69.556,117.936,106.955,117.936z"/>
					<path fill="#F3F4F5" d="M106.955,117.756c36.574,0,66.404-2.963,66.404-6.592c0-3.631-29.83-6.592-66.404-6.592
						c-36.578,0-66.409,2.961-66.409,6.592C40.546,114.793,70.377,117.756,106.955,117.756z"/>
					<path fill="#F0F2F3" d="M106.955,117.574c35.752,0,64.913-2.9,64.913-6.457c0-3.559-29.161-6.459-64.913-6.459
						c-35.756,0-64.917,2.9-64.917,6.459C42.039,114.674,71.199,117.574,106.955,117.574z"/>
					<path fill="#EDEFF1" d="M106.955,117.395c34.932,0,63.421-2.842,63.421-6.324c0-3.483-28.489-6.325-63.421-6.325
						c-34.934,0-63.424,2.842-63.424,6.325C43.531,114.553,72.021,117.395,106.955,117.395z"/>
					<path fill="#EAEDEF" d="M106.955,117.215c34.107,0,61.93-2.781,61.93-6.191c0-3.412-27.82-6.192-61.93-6.192
						c-34.112,0-61.933,2.78-61.933,6.192C45.022,114.434,72.843,117.215,106.955,117.215z"/>
					<path fill="#E8EAED" d="M106.955,117.035c33.287,0,60.438-2.723,60.438-6.061c0-3.336-27.149-6.06-60.438-6.06
						c-33.29,0-60.44,2.724-60.44,6.06C46.515,114.313,73.665,117.035,106.955,117.035z"/>
					<path fill="#E5E8EB" d="M106.955,116.854c32.465,0,58.945-2.662,58.945-5.926s-26.48-5.926-58.945-5.926
						c-32.468,0-58.948,2.662-58.948,5.926S74.487,116.854,106.955,116.854z"/>
					<path fill="#E2E6E9" d="M106.955,116.674c31.645,0,57.453-2.602,57.453-5.793s-25.811-5.793-57.453-5.793
						c-31.646,0-57.456,2.602-57.456,5.793S75.309,116.674,106.955,116.674z"/>
					<path fill="#DFE3E7" d="M106.955,116.494c30.822,0,55.961-2.543,55.961-5.66s-25.139-5.66-55.961-5.66
						c-30.825,0-55.964,2.543-55.964,5.66S76.13,116.494,106.955,116.494z"/>
					<path fill="#DCE1E5" d="M106.955,116.314c30,0,54.47-2.484,54.47-5.527c0-3.045-24.47-5.527-54.47-5.527
						c-30.003,0-54.472,2.482-54.472,5.527C52.483,113.83,76.952,116.314,106.955,116.314z"/>
					<path fill="#D9DFE3" d="M106.955,116.133c29.179,0,52.979-2.422,52.979-5.393s-23.8-5.395-52.979-5.395
						c-29.181,0-52.98,2.424-52.98,5.395S77.774,116.133,106.955,116.133z"/>
					<path fill="#D7DDE1" d="M106.955,115.953c28.355,0,51.484-2.363,51.484-5.26c0-2.898-23.129-5.262-51.484-5.262
						c-28.359,0-51.488,2.363-51.488,5.262C55.467,113.59,78.596,115.953,106.955,115.953z"/>
					<path fill="#D4DBE0" d="M106.955,115.773c27.535,0,49.994-2.303,49.994-5.127c0-2.826-22.459-5.129-49.994-5.129
						c-27.537,0-49.996,2.303-49.996,5.129C56.959,113.471,79.418,115.773,106.955,115.773z"/>
					<path fill="#D1D9DE" d="M106.955,115.594c26.713,0,48.502-2.244,48.502-4.996c0-2.75-21.789-4.994-48.502-4.994
						c-26.715,0-48.504,2.244-48.504,4.994C58.451,113.35,80.24,115.594,106.955,115.594z"/>
					<path fill="#CED6DC" d="M106.955,115.412c25.893,0,47.01-2.184,47.01-4.861c0-2.677-21.117-4.861-47.01-4.861
						c-25.894,0-47.012,2.184-47.012,4.861C59.943,113.229,81.062,115.412,106.955,115.412z"/>
				</g>
				<g>
					<g>
						
							<linearGradient id="SVGID_1_" gradientUnits="userSpaceOnUse" x1="269.666" y1="-187.3047" x2="269.666" y2="-150.8779" gradientTransform="matrix(1 0 0 -1 -200 -77)">
							<stop  offset="0" style="stop-color:#FFFFFF"/>
							<stop  offset="1" style="stop-color:#817E7E"/>
						</linearGradient>
						<path fill="url(#SVGID_1_)" d="M78.629,86.859l1.047-12.119l-1.82-0.862c0,1.251-6.897,5.368-8.165,5.368
							c-1.506,0-8.162-4.195-8.162-5.368l-1.873,0.862l1.102,12.119l2.9,8.57l4.817,14.875h2.436l4.813-14.875L78.629,86.859z"/>
						
							<linearGradient id="SVGID_2_" gradientUnits="userSpaceOnUse" x1="269.749" y1="-158.5918" x2="269.5369" y2="-189.1782" gradientTransform="matrix(1 0 0 -1 -200 -77)">
							<stop  offset="0" style="stop-color:#A11D21"/>
							<stop  offset="0.0296" style="stop-color:#A61E22"/>
							<stop  offset="0.1735" style="stop-color:#BA1F24"/>
							<stop  offset="0.3433" style="stop-color:#C91F26"/>
							<stop  offset="0.5616" style="stop-color:#D21F26"/>
							<stop  offset="1" style="stop-color:#D51F26"/>
						</linearGradient>
						<path fill="url(#SVGID_2_)" d="M92.337,79.162c-0.931-0.088-8.494-2.916-10.015-3.124l-2.646-1.298l-9.99,8.946l-10.03-8.946
							l-2.74,1.316c-1.462,0.199-8.964,3.021-9.866,3.105c-6.391,0.599-7.044,3.546-7.044,10.747c0,2.774,3.416,7.674,3.842,10.417
							c1.099,7.059,3.71,9.979,10.128,9.979h31.432c6.421,0,8.875-2.992,10.13-9.979c0.491-2.731,3.842-7.643,3.842-10.417
							C99.378,83.004,98.728,79.76,92.337,79.162z"/>
					</g>
					<g>
						
							<radialGradient id="SVGID_3_" cx="269.6895" cy="-132.2476" r="15.7456" gradientTransform="matrix(1 0 0 -1 -200 -77)" gradientUnits="userSpaceOnUse">
							<stop  offset="0" style="stop-color:#F7E4CF"/>
							<stop  offset="0.0993" style="stop-color:#F7E2CA"/>
							<stop  offset="0.2281" style="stop-color:#F5DABC"/>
							<stop  offset="0.3732" style="stop-color:#F1CDA4"/>
							<stop  offset="0.529" style="stop-color:#EDBC86"/>
							<stop  offset="0.6373" style="stop-color:#E9AF6F"/>
							<stop  offset="0.7005" style="stop-color:#DDA56A"/>
							<stop  offset="0.789" style="stop-color:#C48F5F"/>
							<stop  offset="0.8924" style="stop-color:#9F704E"/>
							<stop  offset="1" style="stop-color:#754E3A"/>
						</radialGradient>
						<path fill="url(#SVGID_3_)" d="M69.69,37.573c-9.856,0-13.545,5.007-13.545,13.924c0,3.266,0.919,4.18,1.265,6.804
							c0.17,1.291,0.58,3.992,1.219,4.904c1.845,2.636,2.909,4.952,4.233,6.661c1.473,1.905,3.27,3.056,6.828,3.056
							c3.55,0,5.35-1.07,6.836-2.953c1.319-1.673,2.393-3.986,4.224-6.764c0.858-1.298,1.299-4.582,1.495-6.487
							c0.23-2.229,0.989-2.592,0.989-5.221C83.234,42.58,79.544,37.573,69.69,37.573z"/>
						
							<linearGradient id="SVGID_4_" gradientUnits="userSpaceOnUse" x1="269.6914" y1="-156.2451" x2="269.6914" y2="-146.8691" gradientTransform="matrix(1 0 0 -1 -200 -77)">
							<stop  offset="0" style="stop-color:#F0C89B"/>
							<stop  offset="0.0719" style="stop-color:#EFC596"/>
							<stop  offset="0.1711" style="stop-color:#EDBD87"/>
							<stop  offset="0.2863" style="stop-color:#EAB071"/>
							<stop  offset="0.4126" style="stop-color:#E59F51"/>
							<stop  offset="0.4559" style="stop-color:#E39844"/>
							<stop  offset="1" style="stop-color:#6E4631"/>
						</linearGradient>
						<path fill="url(#SVGID_4_)" d="M76.378,72.59c0-1.42,0.068-2.171,0.147-2.619c-1.486,1.882-3.286,2.95-6.835,2.95
							c-3.557,0-5.353-1.149-6.826-3.052c0.053,0.543,0.095,1.367,0.095,2.613c0,0.963-0.057,1.395-1.431,1.395
							c0,1.173,6.656,5.368,8.162,5.368c1.268,0,8.165-4.117,8.165-5.368C76.821,73.877,76.378,73.525,76.378,72.59z"/>
						
							<linearGradient id="SVGID_5_" gradientUnits="userSpaceOnUse" x1="254.0801" y1="-121.876" x2="277.7998" y2="-121.876" gradientTransform="matrix(1 0 0 -1 -200 -77)">
							<stop  offset="0" style="stop-color:#000000"/>
							<stop  offset="1" style="stop-color:#706D6D"/>
						</linearGradient>
						<path fill="url(#SVGID_5_)" d="M77.395,39.208c-2.468,2.235-3.896,2.014-6.401,2.021c-2.945,0.01-2.072-0.711-3.388,1.653
							c0.016-1.207-0.925,0.896-1.066-0.234c-1.872,0.229-2.08-0.913-3.158,0.613c-0.155-1.071-0.975,0.22-0.896-0.832
							c-1.985,0.796-4.638,0.122-4.638,5.164c0,1.866,0.474,3.442-0.481,4.212c-1.144,0.919,0.104,5.3,0.044,6.496
							c-1.432,0-1.562-2.49-1.664-3.851c-0.162-2.126-1.17-1.824-1.372-3.945c-0.336-3.497-0.593-5.111,0.443-8.467
							c1.098-3.553,2.117-6.286,5.417-7.918c2.478-1.224,5.975-3.309,8.49-2.479c1.739,0.57,5.367,0.976,7.043,1.832
							c1.348,0.689,1.694,0.831,1.797,1.204c0.091,0.33-0.006,0.839,0.23,2.061C77.846,37.003,77.509,39.104,77.395,39.208z"/>
						
							<linearGradient id="SVGID_6_" gradientUnits="userSpaceOnUse" x1="277.3945" y1="-122.4141" x2="285.3428" y2="-122.4141" gradientTransform="matrix(1 0 0 -1 -200 -77)">
							<stop  offset="0" style="stop-color:#000000"/>
							<stop  offset="1" style="stop-color:#706D6D"/>
						</linearGradient>
						<path fill="url(#SVGID_6_)" d="M84.379,41.876c-0.242-1.295-1.922-4.477-2.461-5.006c-0.652-0.642-1.192-2.212-1.676-2.577
							c-0.399-0.306-2.333-0.257-2.678,0.383c0.091,0.33-0.006,0.839,0.23,2.061c0.051,0.267-0.286,2.367-0.4,2.471
							c0.127,0.492,0.478,1.356,1.026,1.59c1.255,0.533,1.606,0.605,1.208,1.854c0.331-0.507,0.524-0.494,0.581-0.811
							c0.607,0.996,1.046,2.09,1.011,2.718c-0.043,0.817-0.194,1.653-0.01,2.438c0.167,0.717,0.38,1.434,0.865,3.429
							c0.182,0.745,0.519,0.695,0.432,1.445c-0.182,1.573-0.314,3.249-0.265,4.846c0.737,0,1.293-0.655,1.352-1.124
							c0.091-0.743,0.362-1.894,0.797-2.917c0.235-0.559,0.954-2.652,0.952-4.113C85.343,45.279,84.554,42.808,84.379,41.876z"/>
					</g>
				</g>
				<g>
					<g>
						<path fill="#FFFFFF" d="M149.876,86.859l1.047-12.119l-1.819-0.862c0,1.251-6.897,5.368-8.166,5.368
							c-1.506,0-8.162-4.195-8.162-5.368l-1.873,0.862l1.103,12.119l2.899,8.57l4.818,14.875h2.437l4.813-14.875L149.876,86.859z"/>
						
							<linearGradient id="SVGID_7_" gradientUnits="userSpaceOnUse" x1="340.9961" y1="-158.5913" x2="340.784" y2="-189.1777" gradientTransform="matrix(1 0 0 -1 -200 -77)">
							<stop  offset="0" style="stop-color:#A29639"/>
							<stop  offset="0.3374" style="stop-color:#A2CD3A"/>
						</linearGradient>
						<path fill="url(#SVGID_7_)" d="M163.584,79.162c-0.932-0.088-8.493-2.916-10.014-3.124l-2.647-1.298l-9.989,8.946
							l-10.031-8.946l-2.739,1.316c-1.462,0.199-8.964,3.021-9.866,3.105c-6.391,0.599-7.044,3.546-7.044,10.747
							c0,2.774,3.416,7.674,3.843,10.417c1.098,7.059,3.709,9.979,10.129,9.979h31.43c6.422,0,8.875-2.992,10.131-9.979
							c0.49-2.731,3.842-7.643,3.842-10.417C170.625,83.004,169.975,79.76,163.584,79.162z"/>
					</g>
					<g>
						
							<radialGradient id="SVGID_8_" cx="340.9375" cy="-132.2476" r="15.7456" gradientTransform="matrix(1 0 0 -1 -200 -77)" gradientUnits="userSpaceOnUse">
							<stop  offset="0" style="stop-color:#F7E4CF"/>
							<stop  offset="0.0993" style="stop-color:#F7E2CA"/>
							<stop  offset="0.2281" style="stop-color:#F5DABC"/>
							<stop  offset="0.3732" style="stop-color:#F1CDA4"/>
							<stop  offset="0.529" style="stop-color:#EDBC86"/>
							<stop  offset="0.6373" style="stop-color:#E9AF6F"/>
							<stop  offset="0.7005" style="stop-color:#DDA56A"/>
							<stop  offset="0.789" style="stop-color:#C48F5F"/>
							<stop  offset="0.8924" style="stop-color:#9F704E"/>
							<stop  offset="1" style="stop-color:#754E3A"/>
						</radialGradient>
						<path fill="url(#SVGID_8_)" d="M140.938,37.573c-9.855,0-13.545,5.007-13.545,13.924c0,3.266,0.92,4.18,1.266,6.804
							c0.171,1.291,0.58,3.992,1.219,4.904c1.846,2.636,2.909,4.952,4.232,6.661c1.474,1.905,3.271,3.056,6.828,3.056
							c3.551,0,5.351-1.07,6.836-2.953c1.319-1.673,2.394-3.986,4.225-6.764c0.857-1.298,1.299-4.582,1.495-6.487
							c0.229-2.229,0.989-2.592,0.989-5.221C154.482,42.58,150.791,37.573,140.938,37.573z"/>
						
							<linearGradient id="SVGID_9_" gradientUnits="userSpaceOnUse" x1="340.9385" y1="-156.2451" x2="340.9385" y2="-146.8691" gradientTransform="matrix(1 0 0 -1 -200 -77)">
							<stop  offset="0" style="stop-color:#F0C89B"/>
							<stop  offset="0.0719" style="stop-color:#EFC596"/>
							<stop  offset="0.1711" style="stop-color:#EDBD87"/>
							<stop  offset="0.2863" style="stop-color:#EAB071"/>
							<stop  offset="0.4126" style="stop-color:#E59F51"/>
							<stop  offset="0.4559" style="stop-color:#E39844"/>
							<stop  offset="1" style="stop-color:#6E4631"/>
						</linearGradient>
						<path fill="url(#SVGID_9_)" d="M147.625,72.59c0-1.42,0.068-2.171,0.146-2.619c-1.485,1.882-3.285,2.95-6.834,2.95
							c-3.558,0-5.354-1.149-6.826-3.052c0.053,0.543,0.095,1.367,0.095,2.613c0,0.963-0.058,1.395-1.431,1.395
							c0,1.173,6.656,5.368,8.162,5.368c1.268,0,8.164-4.117,8.164-5.368C148.068,73.877,147.625,73.525,147.625,72.59z"/>
						
							<linearGradient id="SVGID_10_" gradientUnits="userSpaceOnUse" x1="325.3271" y1="-121.876" x2="349.0469" y2="-121.876" gradientTransform="matrix(1 0 0 -1 -200 -77)">
							<stop  offset="0" style="stop-color:#000000"/>
							<stop  offset="1" style="stop-color:#706D6D"/>
						</linearGradient>
						<path fill="url(#SVGID_10_)" d="M148.643,39.208c-2.469,2.235-3.896,2.014-6.401,2.021c-2.945,0.01-2.072-0.711-3.388,1.653
							c0.016-1.207-0.926,0.896-1.065-0.234c-1.873,0.229-2.08-0.913-3.159,0.613c-0.154-1.071-0.975,0.22-0.896-0.832
							c-1.983,0.796-4.637,0.122-4.637,5.164c0,1.866,0.475,3.442-0.482,4.212c-1.143,0.919,0.104,5.3,0.045,6.496
							c-1.432,0-1.561-2.49-1.663-3.851c-0.162-2.126-1.171-1.824-1.373-3.945c-0.336-3.497-0.593-5.111,0.442-8.467
							c1.099-3.553,2.117-6.286,5.418-7.918c2.478-1.224,5.975-3.309,8.49-2.479c1.739,0.57,5.366,0.976,7.043,1.832
							c1.348,0.689,1.693,0.831,1.797,1.204c0.09,0.33-0.006,0.839,0.229,2.061C149.093,37.003,148.756,39.104,148.643,39.208z"/>
						
							<linearGradient id="SVGID_11_" gradientUnits="userSpaceOnUse" x1="348.6406" y1="-122.4141" x2="356.5908" y2="-122.4141" gradientTransform="matrix(1 0 0 -1 -200 -77)">
							<stop  offset="0" style="stop-color:#000000"/>
							<stop  offset="1" style="stop-color:#706D6D"/>
						</linearGradient>
						<path fill="url(#SVGID_11_)" d="M155.626,41.876c-0.241-1.295-1.922-4.477-2.461-5.006c-0.651-0.642-1.192-2.212-1.675-2.577
							c-0.4-0.306-2.334-0.257-2.68,0.383c0.092,0.33-0.004,0.839,0.23,2.061c0.051,0.267-0.286,2.367-0.4,2.471
							c0.127,0.492,0.479,1.356,1.026,1.59c1.255,0.533,1.606,0.605,1.209,1.854c0.33-0.507,0.522-0.494,0.58-0.811
							c0.606,0.996,1.046,2.09,1.011,2.718c-0.043,0.817-0.193,1.653-0.01,2.438c0.167,0.717,0.38,1.434,0.866,3.429
							c0.182,0.745,0.518,0.695,0.432,1.445c-0.183,1.573-0.315,3.249-0.266,4.846c0.737,0,1.293-0.655,1.352-1.124
							c0.093-0.743,0.362-1.894,0.798-2.917c0.234-0.559,0.953-2.652,0.952-4.113C156.59,45.279,155.801,42.808,155.626,41.876z"/>
					</g>
				</g>
				<path d="M129.031,79.162c-0.932-0.088-8.493-2.916-10.014-3.124l-2.647-1.298l-1.82-0.862c-1.032,0-1.478-0.353-1.478-1.287
					c0-1.42,0.068-2.171,0.146-2.619c-1.486,1.882-3.285,2.95-6.835,2.95c3.552,0,5.351-1.07,6.837-2.953
					c1.318-1.673,2.393-3.986,4.223-6.764c0.859-1.298,1.3-4.582,1.496-6.487c0.734-0.001,1.291-0.655,1.35-1.124
					c0.092-0.743,0.361-1.894,0.798-2.917c0.235-0.559,0.953-2.652,0.952-4.113c-0.002-3.284-0.79-5.755-0.966-6.687
					c-0.241-1.295-1.923-4.477-2.462-5.006c-0.65-0.642-1.191-2.212-1.674-2.577c-0.4-0.306-2.334-0.257-2.68,0.383
					c-0.104-0.373-0.447-0.515-1.796-1.204c-1.677-0.856-5.304-1.262-7.044-1.832c-2.515-0.829-6.012,1.256-8.489,2.479
					c-3.301,1.632-4.32,4.365-5.417,7.918c-1.037,3.355-0.779,4.97-0.444,8.467c0.202,2.121,1.211,1.819,1.373,3.945
					c0.103,1.36,0.231,3.851,1.663,3.851c0.171,1.291,0.58,3.992,1.22,4.904c1.844,2.636,2.908,4.952,4.232,6.661
					c0.167,0.218,0.341,0.421,0.519,0.617c-0.177-0.196-0.349-0.398-0.516-0.613c0.052,0.543,0.094,1.367,0.094,2.613
					c0,0.963-0.056,1.395-1.431,1.395L96.35,74.74l-2.741,1.316c-1.462,0.199-8.964,3.021-9.866,3.105
					c-6.39,0.599-7.044,3.546-7.044,10.747c0,2.774,3.417,7.674,3.842,10.417c1.099,7.059,3.711,9.979,10.129,9.979h31.432
					c6.42,0,8.875-2.992,10.129-9.979c0.492-2.731,3.843-7.643,3.843-10.417C136.072,83.004,135.423,79.76,129.031,79.162z"/>
			</g>
		</g>
	</g>
</g>
</svg>
