<?xml version="1.0" encoding="utf-8"?>
<!-- Generated by IcoMoon.io -->
<!DOCTYPE svg PUBLIC "-//W3C//DTD SVG 1.1//EN" "http://www.w3.org/Graphics/SVG/1.1/DTD/svg11.dtd">
<svg version="1.1" xmlns="http://www.w3.org/2000/svg" xmlns:xlink="http://www.w3.org/1999/xlink" width="34" height="34" viewBox="0 0 34 34">
<g>
</g>
	<path d="M33.054 30.107c-0.214-0.141-4.088-2.683-9.853-3.93 2.114-2.679 3.472-6.281 4.049-8.68 0.801-3.324 0.49-9.826-2.702-13.878-1.866-2.368-4.476-3.619-7.549-3.619-3.073 0-5.683 1.252-7.548 3.619-3.192 4.051-3.502 10.554-2.702 13.877 0.577 2.398 1.934 6.001 4.049 8.68-5.764 1.247-9.639 3.789-9.851 3.93-0.779 0.518-1.127 1.488-0.855 2.382 0.27 0.898 1.098 1.512 2.033 1.512h29.75c0.936 0 1.762-0.614 2.034-1.511 0.273-0.895-0.075-1.864-0.854-2.382zM21.534 24.86l-0.346 0.44c-2.534 2.911-5.838 2.911-8.371 0l-0.347-0.44c-2.959-3.75-4.427-8.709-3.795-13.441 0.579-4.546 3.184-9.295 8.327-9.295 5.142 0 7.749 4.749 8.328 9.296 0.63 4.733-0.833 9.688-3.794 13.44zM2.125 31.875c0.147-0.098 3.746-2.459 9.123-3.621l2.639-0.571c0.942 0.618 1.976 1.004 3.113 1.004 1.138 0 2.171-0.386 3.113-1.004l2.639 0.571c5.334 1.154 8.921 3.488 9.123 3.621h-29.75z" fill="#7d7d7d" />
</svg>
