<?xml version="1.0" encoding="utf-8"?>
<!-- Generator: Adobe Illustrator 15.0.0, SVG Export Plug-In . SVG Version: 6.00 Build 0)  -->
<!DOCTYPE svg PUBLIC "-//W3C//DTD SVG 1.1//EN" "http://www.w3.org/Graphics/SVG/1.1/DTD/svg11.dtd">
<svg version="1.1" id="Layer_1" xmlns="http://www.w3.org/2000/svg" xmlns:xlink="http://www.w3.org/1999/xlink" x="0px" y="0px"
	 width="121.739px" height="65.218px" viewBox="0 0 121.739 65.218" enable-background="new 0 0 121.739 65.218"
	 xml:space="preserve">
<g>
	<rect x="12.019" y="4.643" fill-rule="evenodd" clip-rule="evenodd" fill="#231F20" width="99.774" height="52.885"/>
	<g>
		<rect x="12.899" y="5.522" fill-rule="evenodd" clip-rule="evenodd" fill="#FFFFFF" width="98.014" height="51.131"/>
		<rect x="12.899" y="5.522" fill-rule="evenodd" clip-rule="evenodd" fill="#008F41" width="49.007" height="51.131"/>
		<path fill-rule="evenodd" clip-rule="evenodd" fill="#D8E1E7" d="M100.252,5.522h-11.28l3.728,0.322L85.09,6.5l7.609,0.66
			L85.09,7.814l7.609,0.66l-7.606,0.654l7.606,0.666l-7.606,0.654l7.606,0.655l-7.606,0.66l7.606,0.659l-7.606,0.66l7.606,0.654
			l-7.606,0.661l7.606,0.654l-7.606,0.658l7.606,0.655l-7.606,0.66l7.606,0.655l-7.606,0.66l7.606,0.659l-7.606,0.654l7.606,0.66
			l-7.606,0.655l7.606,0.66l-7.606,0.66l7.606,0.655l-7.606,0.659l7.606,0.654l-7.606,0.66l7.606,0.66l-7.606,0.659l7.606,0.655
			l-7.606,0.66l7.606,0.655l-7.606,0.66l7.606,0.654l-7.606,0.659l7.606,0.655l-7.606,0.66l7.606,0.66l-7.606,0.655l7.606,0.659
			l-7.606,0.66l7.609,0.654l-7.609,0.66l7.606,0.655l-7.609,0.659l7.609,0.654l-7.609,0.661l7.609,0.66l-7.606,0.654l7.606,0.659
			l-7.606,0.654l7.606,0.66l-7.606,0.66l7.606,0.655l-7.606,0.66l7.606,0.653l-7.606,0.66l7.606,0.66l-7.606,0.655l7.606,0.66
			l-7.606,0.654l7.606,0.66l-7.606,0.66l7.606,0.654l-7.606,0.66l7.606,0.655l-7.606,0.659l7.606,0.654l-7.606,0.66l7.606,0.661
			l-7.606,0.66l7.606,0.653l-7.606,0.655l7.606,0.66l-7.606,0.66l1.77,0.153h15.5l1.768-0.153l-7.607-0.66l7.607-0.66l-7.607-0.655
			l7.607-0.653l-7.607-0.66l7.607-0.661l-7.607-0.66l7.607-0.654l-7.607-0.655l7.61-0.659l-7.61-0.66l7.607-0.654l-7.607-0.66
			l7.607-0.66l-7.607-0.654l7.607-0.66l-7.607-0.655l7.607-0.66l-7.607-0.66l7.607-0.653l-7.607-0.66l7.61-0.655l-7.61-0.66
			l7.607-0.66l-7.607-0.654l7.607-0.659l-7.607-0.654l7.61-0.66l-7.61-0.661l7.61-0.654l-7.61-0.659l7.607-0.655l-7.607-0.66
			l7.607-0.654l-7.607-0.66l7.607-0.659l-7.607-0.655l7.607-0.66l-7.607-0.66l7.61-0.655l-7.61-0.659l7.607-0.654l-7.607-0.66
			l7.61-0.655l-7.61-0.66l7.61-0.655l-7.61-0.659l7.607-0.66l-7.607-0.66l7.61-0.654l-7.61-0.659l7.607-0.655l-7.607-0.66
			l7.607-0.66l-7.607-0.655l7.607-0.66l-7.607-0.654l7.61-0.659l-7.61-0.66l7.61-0.655l-7.61-0.66l7.607-0.655l-7.607-0.658
			l7.607-0.654l-7.607-0.661l7.607-0.654l-7.607-0.66l7.61-0.659l-7.61-0.66l7.607-0.655l-7.607-0.654l7.607-0.666l-7.607-0.654
			l7.61-0.66l-7.61-0.654l7.607-0.66l-7.607-0.655L100.252,5.522L100.252,5.522z M67.546,5.522h-5.64v51.131h7.75l1.771-0.153
			l-7.607-0.66l7.607-0.66l-7.607-0.655l7.607-0.653l-7.607-0.66l7.607-0.661l-7.607-0.66l7.607-0.654l-7.607-0.655l7.607-0.659
			l-7.607-0.66l7.607-0.654l-7.607-0.66l7.607-0.66l-7.607-0.654l7.607-0.66l-7.607-0.655l7.607-0.66l-7.607-0.66l7.607-0.653
			l-7.607-0.66l7.607-0.655l-7.607-0.66l7.607-0.66l-7.607-0.654l7.607-0.659l-7.607-0.654l7.607-0.66l-7.607-0.661l7.607-0.654
			l-7.607-0.659l7.607-0.655l-7.609-0.66l7.609-0.654l-7.607-0.66l7.607-0.659l-7.607-0.655l7.607-0.66l-7.607-0.66l7.607-0.655
			l-7.607-0.659l7.607-0.654l-7.607-0.66l7.607-0.655l-7.607-0.66l7.607-0.655l-7.609-0.659l7.609-0.66l-7.607-0.66l7.607-0.654
			l-7.607-0.659l7.607-0.655l-7.607-0.66l7.607-0.66l-7.607-0.655l7.607-0.66l-7.607-0.654l7.607-0.659l-7.609-0.66l7.609-0.655
			l-7.607-0.66l7.607-0.655l-7.607-0.658l7.607-0.654l-7.609-0.661l7.609-0.654l-7.607-0.66l7.607-0.659l-7.607-0.66l7.607-0.655
			l-7.607-0.654l7.607-0.666l-7.607-0.654l7.607-0.66L63.819,7.16l7.607-0.66l-7.607-0.655L67.546,5.522z"/>
		<path fill-rule="evenodd" clip-rule="evenodd" fill="#007F3E" d="M61.906,5.522v51.131h-7.75l-1.77-0.153l7.606-0.66l-7.606-0.66
			l7.606-0.655l-7.606-0.653l7.606-0.66l-7.606-0.661l7.606-0.66l-7.606-0.654l7.606-0.659l-7.606-0.655l7.606-0.66l-7.606-0.654
			l7.606-0.66l-7.606-0.66l7.606-0.654l-7.606-0.66l7.606-0.655l-7.606-0.66l7.606-0.66l-7.606-0.653l7.606-0.66l-7.606-0.655
			l7.606-0.66l-7.606-0.66l7.606-0.654l-7.606-0.659l7.606-0.654l-7.606-0.66l7.606-0.661l-7.606-0.654l7.606-0.659l-7.606-0.655
			l7.609-0.66l-7.609-0.654l7.606-0.66l-7.606-0.659l7.606-0.655l-7.606-0.66l7.606-0.66l-7.606-0.655l7.606-0.659l-7.606-0.654
			l7.606-0.66l-7.606-0.655l7.606-0.66l-7.606-0.655l7.606-0.659l-7.606-0.66l7.606-0.66l-7.606-0.654l7.606-0.659l-7.606-0.655
			l7.606-0.66l-7.606-0.66l7.606-0.655l-7.606-0.66l7.606-0.654l-7.606-0.659l7.606-0.66l-7.606-0.655l7.606-0.66l-7.606-0.655
			l7.606-0.658l-7.606-0.654l7.606-0.661l-7.606-0.654l7.606-0.66l-7.606-0.659l7.606-0.66l-7.606-0.655l7.606-0.654l-7.606-0.666
			l7.606-0.654l-7.606-0.66l7.606-0.654L52.386,6.5l7.606-0.655l-3.727-0.322H61.906L61.906,5.522z M34.839,5.522h-11.28l3.73,0.322
			L19.679,6.5l7.61,0.66l-7.61,0.654l7.61,0.66l-7.607,0.654l7.607,0.666l-7.607,0.654l7.607,0.655l-7.607,0.66l7.607,0.659
			l-7.607,0.66l7.607,0.654l-7.607,0.661l7.607,0.654l-7.607,0.658l7.607,0.655l-7.607,0.66l7.607,0.655l-7.607,0.66l7.607,0.659
			l-7.607,0.654l7.607,0.66l-7.607,0.655l7.607,0.66l-7.607,0.66l7.607,0.655l-7.607,0.659l7.607,0.654l-7.607,0.66l7.607,0.66
			l-7.607,0.659l7.607,0.655l-7.607,0.66l7.607,0.655l-7.607,0.66l7.607,0.654l-7.607,0.659l7.607,0.655l-7.607,0.66l7.607,0.66
			l-7.607,0.655l7.607,0.659l-7.607,0.66l7.607,0.654l-7.607,0.66l7.607,0.655l-7.61,0.659l7.61,0.654l-7.61,0.661l7.61,0.66
			l-7.607,0.654l7.607,0.659l-7.607,0.654l7.607,0.66l-7.607,0.66l7.607,0.655l-7.607,0.66l7.607,0.653l-7.607,0.66l7.607,0.66
			l-7.607,0.655l7.607,0.66l-7.607,0.654l7.607,0.66l-7.607,0.66l7.607,0.654l-7.607,0.66l7.607,0.655l-7.607,0.659l7.607,0.654
			l-7.607,0.66l7.607,0.661l-7.607,0.66l7.607,0.653l-7.607,0.655l7.607,0.66l-7.607,0.66l1.767,0.153h15.5L38.72,56.5l-7.607-0.66
			l7.607-0.66l-7.607-0.655l7.607-0.653l-7.607-0.66l7.607-0.661l-7.607-0.66l7.607-0.654l-7.607-0.655l7.607-0.659l-7.607-0.66
			l7.607-0.654l-7.607-0.66l7.607-0.66l-7.607-0.654l7.607-0.66l-7.607-0.655l7.607-0.66l-7.607-0.66l7.607-0.653l-7.607-0.66
			l7.607-0.655l-7.607-0.66l7.607-0.66l-7.607-0.654l7.607-0.659l-7.607-0.654l7.607-0.66l-7.607-0.661l7.607-0.654l-7.607-0.659
			l7.607-0.655l-7.607-0.66l7.607-0.654l-7.607-0.66l7.607-0.659l-7.607-0.655l7.607-0.66l-7.607-0.66l7.607-0.655l-7.607-0.659
			l7.607-0.654l-7.607-0.66l7.607-0.655l-7.607-0.66l7.607-0.655l-7.607-0.659l7.607-0.66l-7.607-0.66l7.607-0.654l-7.607-0.659
			l7.607-0.655l-7.607-0.66l7.607-0.66l-7.607-0.655l7.607-0.66l-7.607-0.654l7.607-0.659l-7.607-0.66l7.607-0.655l-7.607-0.66
			l7.607-0.655l-7.607-0.658l7.607-0.654l-7.607-0.661l7.607-0.654l-7.607-0.66l7.607-0.659l-7.607-0.66l7.607-0.655l-7.607-0.654
			l7.607-0.666l-7.607-0.654l7.607-0.66L31.113,7.16L38.72,6.5l-7.607-0.655L34.839,5.522z"/>
		<path fill-rule="evenodd" clip-rule="evenodd" fill="#C7161D" d="M63.628,17.068c3.46,0,6.77,1.269,9.348,3.576l0.293,0.261
			l-0.479,0.619l-0.325-0.215c-1.923-1.273-4.159-1.939-6.462-1.939c-6.471,0-11.719,5.244-11.719,11.715
			c0,6.472,5.249,11.721,11.719,11.721c2.305,0,4.541-0.671,6.462-1.939l0.327-0.215l0.477,0.614l-0.293,0.261
			c-2.578,2.312-5.888,3.575-9.348,3.575c-7.738,0-14.017-6.276-14.017-14.017C49.611,23.351,55.89,17.068,63.628,17.068
			L63.628,17.068z M70.966,28.466L70.966,28.466l-0.809-5.725l-2.69,5.116l-5.691-0.998l4.034,4.139l-2.711,5.106l5.188-2.559
			l4.018,4.159l-0.831-5.725l5.191-2.538L70.966,28.466z"/>
		<path fill-rule="evenodd" clip-rule="evenodd" fill="#B21217" d="M63.628,17.068c1.073,0,2.131,0.123,3.158,0.358l-2.969,0.256
			l5.168,0.45c0.268,0.107,0.527,0.229,0.785,0.354l-5.951,0.516l7.607,0.654l-2.118,0.185c-1.067-0.312-2.177-0.471-3.306-0.471
			c-1.441,0-2.82,0.256-4.097,0.732c-0.977,0.367-1.896,0.858-2.729,1.458L53.8,21.095c0.092-0.087,0.187-0.179,0.282-0.267
			l5.911-0.512l-4.809-0.414c0.256-0.193,0.517-0.378,0.783-0.552l4.025-0.349l-3.005-0.261c0.745-0.398,1.527-0.737,2.345-0.997
			l0.66-0.062l-0.374-0.03c0.739-0.221,1.504-0.379,2.287-0.476C62.471,17.104,63.044,17.068,63.628,17.068L63.628,17.068z
			 M58.959,21.725c-0.422,0.316-0.821,0.659-1.194,1.032l-5.07-0.439l0.046-0.057L58.959,21.725L58.959,21.725z M57.358,23.177
			c-0.235,0.256-0.46,0.521-0.67,0.804l-4.302-0.374L57.358,23.177L57.358,23.177z M56.253,24.588
			c-0.138,0.205-0.27,0.415-0.396,0.635l-3.471-0.302L56.253,24.588L56.253,24.588z M55.458,25.975
			c-0.082,0.164-0.161,0.338-0.232,0.512l-2.839-0.246L55.458,25.975L55.458,25.975z M54.898,27.335
			c-0.046,0.139-0.092,0.282-0.133,0.426l-2.378-0.205L54.898,27.335L54.898,27.335z M54.532,28.687
			c-0.025,0.117-0.048,0.24-0.069,0.363l-2.077-0.179L54.532,28.687L54.532,28.687z M54.335,30.017
			c-0.011,0.111-0.021,0.221-0.026,0.332l-1.923-0.164L54.335,30.017L54.335,30.017z M54.287,31.336
			c0.002,0.107,0.007,0.221,0.013,0.328L52.386,31.5L54.287,31.336L54.287,31.336z M54.389,32.641
			c0.016,0.118,0.033,0.235,0.051,0.354l-2.054-0.179L54.389,32.641L54.389,32.641z M54.637,33.94
			c0.031,0.132,0.067,0.266,0.104,0.397l-2.355-0.203L54.637,33.94L54.637,33.94z M55.036,35.219
			c0.062,0.158,0.123,0.317,0.19,0.477l-2.839-0.246L55.036,35.219L55.036,35.219z M55.604,36.487
			c0.103,0.194,0.21,0.39,0.322,0.583l-3.54-0.307L55.604,36.487L55.604,36.487z M56.353,37.736c0.177,0.25,0.358,0.496,0.55,0.73
			l-4.517-0.388L56.353,37.736L56.353,37.736z M57.333,38.968c0.299,0.328,0.619,0.645,0.954,0.937l-5.9-0.511L57.333,38.968
			L57.333,38.968z M58.604,40.171c0.979,0.803,2.095,1.448,3.302,1.897c0.713,0.266,1.458,0.466,2.228,0.589l-0.314,0.025
			l6.742,0.583c-0.107,0.061-0.215,0.123-0.322,0.179l-6.42,0.552l4.287,0.374c-1.43,0.481-2.939,0.731-4.479,0.731
			c-0.584,0-1.157-0.035-1.722-0.107c-1.192-0.143-2.335-0.439-3.415-0.864l1.501-0.134l-2.256-0.194
			c-0.512-0.234-1.002-0.5-1.479-0.798l3.734-0.321l-4.813-0.414c-0.184-0.144-0.368-0.286-0.547-0.437l5.361-0.465l-6.456-0.557
			l-0.173-0.185L58.604,40.171L58.604,40.171z M61.906,26.992l-0.131-0.133l0.131,0.026l5.561,0.972l0.327-0.618l3.037,0.265
			l0.014,0.103l-7.025,0.604l7.607,0.66l-7.096,0.613L61.906,26.992L61.906,26.992z M69.833,42.165l1.594-0.138l-0.998-0.087
			C70.231,42.017,70.032,42.095,69.833,42.165L69.833,42.165z M71.397,36.764h0.029l-0.037-0.005L71.397,36.764L71.397,36.764z
			 M70.222,35.551l1.205-0.102l-1.422-0.123L70.222,35.551L70.222,35.551z M65.474,34.933l-1.656-0.144l2.363-0.204l1.564-0.772
			l-3.279-0.282l-1.367,2.574L65.474,34.933L65.474,34.933z M69.047,34.338l2.38-0.203l-2.812-0.247L69.047,34.338L69.047,34.338z
			 M64.528,33.412l6.898-0.597l-6.293-0.543L64.528,33.412L64.528,33.412z M65.263,32.032l6.164-0.532l-5.625-0.486L65.263,32.032
			L65.263,32.032z M65.513,30.696l5.914-0.512l-7.002-0.603L65.513,30.696L65.513,30.696z M68.173,26.522l2.488-0.215l-0.018-0.139
			l-2.189-0.188L68.173,26.522L68.173,26.522z M68.899,25.141l1.578-0.138l-0.023-0.168l-1.336-0.113L68.899,25.141L68.899,25.141z
			 M69.62,23.765l0.676-0.061l-0.031-0.194l-0.486-0.047L69.62,23.765z"/>
	</g>
</g>
</svg>
