<?xml version="1.0" encoding="utf-8"?>
<!-- Generator: Adobe Illustrator 15.0.0, SVG Export Plug-In . SVG Version: 6.00 Build 0)  -->
<!DOCTYPE svg PUBLIC "-//W3C//DTD SVG 1.1//EN" "http://www.w3.org/Graphics/SVG/1.1/DTD/svg11.dtd">
<svg version="1.1" id="Layer_1" xmlns="http://www.w3.org/2000/svg" xmlns:xlink="http://www.w3.org/1999/xlink" x="0px" y="0px"
	 width="121.739px" height="65.218px" viewBox="0 0 121.739 65.218" enable-background="new 0 0 121.739 65.218"
	 xml:space="preserve">
<g>
	<rect x="12.371" y="4.396" fill-rule="evenodd" clip-rule="evenodd" fill="#231F20" width="99.753" height="52.874"/>
	<g>
		<rect x="13.25" y="5.276" fill-rule="evenodd" clip-rule="evenodd" fill="#034693" width="97.994" height="51.116"/>
		<path fill-rule="evenodd" clip-rule="evenodd" fill="#003375" d="M98.044,56.393h-6.195l-6.42-0.558l7.607-0.659l-7.607-0.66
			l7.607-0.658l-7.607-0.662l7.607-0.657l-7.607-0.657l7.607-0.663l-7.607-0.657l7.607-0.66l-7.607-0.654l7.607-0.665l-7.607-0.655
			l7.607-0.66l-7.607-0.659l7.607-0.66l-7.607-0.656l7.607-0.66l-7.607-0.659l7.607-0.66l-7.607-0.661l7.607-0.66l-7.607-0.657
			l7.607-0.659l-7.607-0.657l7.607-0.66l-7.607-0.66l7.607-0.659l-7.607-0.658l7.607-0.66l-7.607-0.66l7.607-0.659l-7.607-0.657
			l7.607-0.66l-7.607-0.66l7.607-0.658l-7.607-0.659l7.607-0.66l-7.607-0.66l7.607-0.657l-7.607-0.659l7.607-0.66l-7.607-0.656
			l7.607-0.661l-7.607-0.656l7.607-0.66l-7.607-0.663l7.607-0.657l-7.607-0.659l7.607-0.657l-7.607-0.66l7.607-0.66l-7.607-0.66
			l7.607-0.657l-7.607-0.66l7.607-0.66l-7.607-0.657l7.607-0.659l-7.607-0.66l7.607-0.66l-7.607-0.658l7.607-0.659l-7.607-0.662
			l7.607-0.658l-7.607-0.657l7.607-0.66l-7.607-0.659l7.607-0.66l-7.607-0.657l7.607-0.662l-7.607-0.654l7.607-0.66l-7.607-0.66
			l7.607-0.657l-7.607-0.662l7.607-0.657l-7.607-0.663l5.312-0.457h8.412l5.311,0.457l-7.604,0.663l7.604,0.657l-7.604,0.662
			l7.604,0.657l-7.604,0.66l7.604,0.66l-7.604,0.654l7.604,0.662l-7.604,0.657l7.604,0.66l-7.604,0.659l7.604,0.66l-7.604,0.657
			l7.604,0.658l-7.604,0.662l7.604,0.659l-7.604,0.658l7.604,0.66l-7.604,0.66l7.604,0.659l-7.604,0.657l7.604,0.66l-7.604,0.66
			l7.604,0.657l-7.604,0.66l7.604,0.66l-7.604,0.66l7.604,0.657l-7.604,0.659l7.604,0.657l-7.604,0.663l7.604,0.66l-7.604,0.656
			l7.604,0.661l-7.604,0.656l7.604,0.66l-7.604,0.659l7.604,0.657l-7.604,0.66l7.604,0.66l-7.604,0.659l7.604,0.658l-7.604,0.663
			l7.604,0.657l-7.604,0.657l7.604,0.659l-7.604,0.66l7.604,0.66l-7.604,0.658l7.604,0.659l-7.604,0.66l7.604,0.66l-7.604,0.657
			l7.604,0.659l-7.604,0.657l7.604,0.66l-7.604,0.661l7.604,0.66l-7.604,0.661l7.604,0.658l-7.604,0.656l7.604,0.66l-7.604,0.657
			l7.604,0.662l-7.604,0.655l7.604,0.665L96.859,49.9l7.604,0.66l-7.604,0.657l7.604,0.663l-7.604,0.657l7.604,0.657l-7.604,0.662
			l7.604,0.658l-7.604,0.66l7.604,0.659L98.044,56.393L98.044,56.393z M65.345,56.393H59.15l-6.42-0.558l7.606-0.659l-7.606-0.66
			l7.606-0.658l-7.606-0.662l7.606-0.657l-7.606-0.657l7.606-0.663l-7.606-0.657l7.606-0.66l-7.606-0.654l7.606-0.665l-7.606-0.655
			l7.606-0.66l-7.606-0.659l7.606-0.66L52.73,45.29l7.606-0.66l-7.606-0.659l7.606-0.66l-7.606-0.661l7.606-0.66l-7.606-0.657
			l7.606-0.659l-7.606-0.657l7.606-0.66l-7.606-0.66l7.606-0.659l-7.606-0.658l7.606-0.66l-7.606-0.66l7.606-0.659l-7.606-0.657
			l7.606-0.66l-7.606-0.66l7.606-0.658l-7.606-0.659l7.606-0.66l-7.606-0.66l7.606-0.657l-7.606-0.659l7.606-0.66L52.73,28.15
			l7.606-0.661l-7.606-0.656l7.606-0.66L52.73,25.51l7.606-0.657l-7.606-0.659l7.606-0.657l-7.606-0.66l7.606-0.66l-7.606-0.66
			l7.606-0.657l-7.606-0.66l7.606-0.66l-7.606-0.657l7.606-0.659l-7.606-0.66l7.606-0.66l-7.606-0.658l7.606-0.659l-7.606-0.662
			l7.606-0.658l-7.606-0.657l7.606-0.66l-7.606-0.659l7.606-0.66L52.73,11.01l7.606-0.662L52.73,9.693l7.606-0.66l-7.606-0.66
			l7.606-0.657L52.73,7.054l7.606-0.657L52.73,5.733l5.312-0.457h8.413l5.31,0.457l-7.604,0.663l7.604,0.657l-7.604,0.662
			l7.604,0.657l-7.606,0.66l7.606,0.66l-7.604,0.654l7.604,0.662l-7.604,0.657l7.604,0.66l-7.604,0.659l7.604,0.66l-7.604,0.657
			l7.604,0.658l-7.604,0.662l7.604,0.659l-7.604,0.658l7.604,0.66l-7.606,0.66l7.606,0.659l-7.604,0.657l7.604,0.66l-7.604,0.66
			l7.604,0.657l-7.604,0.66l7.604,0.66l-7.604,0.66l7.604,0.657l-7.604,0.659l7.604,0.657l-7.604,0.663l7.604,0.66l-7.604,0.656
			l7.604,0.661l-7.604,0.656l7.604,0.66l-7.604,0.659l7.604,0.657l-7.604,0.66l7.604,0.66l-7.604,0.659l7.604,0.658l-7.604,0.663
			l7.604,0.657l-7.604,0.657l7.604,0.659l-7.604,0.66l7.604,0.66l-7.604,0.658l7.604,0.659l-7.604,0.66l7.604,0.66l-7.604,0.657
			l7.604,0.659l-7.604,0.657l7.604,0.66l-7.604,0.661l7.604,0.66l-7.604,0.661l7.604,0.658l-7.604,0.656l7.604,0.66l-7.604,0.657
			l7.604,0.662l-7.604,0.655l7.604,0.665L64.161,49.9l7.604,0.66l-7.604,0.657l7.604,0.663l-7.604,0.657l7.604,0.657l-7.604,0.662
			l7.604,0.658l-7.604,0.66l7.604,0.659L65.345,56.393L65.345,56.393z M32.646,56.393h-6.195l-6.42-0.558l7.607-0.659l-7.607-0.66
			l7.607-0.658l-7.607-0.662l7.607-0.657l-7.607-0.657l7.607-0.663l-7.607-0.657l7.607-0.66l-7.607-0.654l7.607-0.665l-7.607-0.655
			l7.607-0.66l-7.607-0.659l7.607-0.66l-7.607-0.656l7.607-0.66l-7.607-0.659l7.607-0.66l-7.607-0.661l7.607-0.66l-7.607-0.657
			l7.607-0.659l-7.607-0.657l7.607-0.66l-7.607-0.66l7.607-0.659l-7.607-0.658l7.607-0.66l-7.607-0.66l7.607-0.659l-7.607-0.657
			l7.607-0.66l-7.607-0.66l7.607-0.658l-7.607-0.659l7.607-0.66l-7.607-0.66l7.607-0.657l-7.607-0.659l7.607-0.66l-7.607-0.656
			l7.607-0.661l-7.607-0.656l7.607-0.66l-7.607-0.663l7.607-0.657l-7.607-0.659l7.607-0.657l-7.607-0.66l7.607-0.66l-7.607-0.66
			l7.607-0.657l-7.607-0.66l7.607-0.66l-7.607-0.657l7.607-0.659l-7.607-0.66l7.607-0.66l-7.607-0.658l7.607-0.659l-7.607-0.662
			l7.607-0.658l-7.607-0.657l7.607-0.66l-7.607-0.659l7.607-0.66l-7.607-0.657l7.607-0.662l-7.607-0.654l7.607-0.66l-7.607-0.66
			l7.607-0.657l-7.607-0.662l7.607-0.657l-7.607-0.663l5.31-0.457h8.415l5.31,0.457l-7.607,0.663l7.607,0.657l-7.607,0.662
			l7.607,0.657l-7.607,0.66l7.607,0.66l-7.607,0.654l7.607,0.662l-7.607,0.657l7.607,0.66l-7.607,0.659l7.607,0.66l-7.607,0.657
			l7.607,0.658l-7.607,0.662l7.607,0.659l-7.607,0.658l7.607,0.66l-7.607,0.66l7.607,0.659l-7.607,0.657l7.607,0.66l-7.607,0.66
			l7.607,0.657l-7.607,0.66l7.607,0.66l-7.607,0.66l7.607,0.657l-7.607,0.659l7.607,0.657l-7.607,0.663l7.607,0.66l-7.607,0.656
			l7.607,0.661l-7.607,0.656l7.607,0.66l-7.607,0.659l7.607,0.657l-7.607,0.66l7.607,0.66l-7.607,0.659l7.607,0.658l-7.607,0.663
			l7.607,0.657l-7.607,0.657l7.607,0.659l-7.607,0.66l7.607,0.66l-7.607,0.658l7.607,0.659l-7.607,0.66l7.607,0.66l-7.607,0.657
			l7.607,0.659l-7.607,0.657l7.607,0.66l-7.607,0.661l7.607,0.66l-7.607,0.661l7.607,0.658l-7.607,0.656l7.607,0.66l-7.607,0.657
			l7.607,0.662l-7.607,0.655l7.607,0.665L31.459,49.9l7.607,0.66l-7.607,0.657l7.607,0.663l-7.607,0.657l7.607,0.657l-7.607,0.662
			l7.607,0.658l-7.607,0.66l7.607,0.659L32.646,56.393z"/>
		<path fill-rule="evenodd" clip-rule="evenodd" fill="#FFFFFF" d="M84.671,10.79l0.551,1.857l1.787-0.728l-1.103,1.589l1.681,0.951
			l-1.926,0.127l0.31,1.909l-1.3-1.433l-1.299,1.433l0.307-1.909l-1.926-0.127l1.683-0.951l-1.104-1.589l1.791,0.728L84.671,10.79
			L84.671,10.79z M95.496,20.865l0.552,1.856l1.789-0.726l-1.104,1.591l1.682,0.949l-1.926,0.125l0.307,1.912l-1.3-1.434
			l-1.297,1.434l0.307-1.912l-1.927-0.125l1.684-0.949l-1.105-1.591l1.791,0.726L95.496,20.865L95.496,20.865z M89.454,29.925
			l0.477,1.476l1.547-0.002l-1.256,0.91l0.48,1.479l-1.248-0.915l-1.253,0.915l0.48-1.479l-1.253-0.91l1.547,0.002L89.454,29.925
			L89.454,29.925z M84.671,42.952l0.551,1.855l1.787-0.726l-1.103,1.588l1.681,0.951l-1.926,0.127l0.31,1.909l-1.3-1.431
			l-1.299,1.431l0.307-1.909l-1.926-0.127l1.683-0.951l-1.104-1.588l1.791,0.726L84.671,42.952L84.671,42.952z M36.713,35.945
			l1.222,4.127l3.978-1.615l-2.454,3.53l3.737,2.115l-4.282,0.276l0.686,4.248l-2.887-3.184l-2.886,3.184l0.686-4.248l-4.282-0.276
			l3.737-2.115l-2.453-3.53l3.978,1.615L36.713,35.945L36.713,35.945z M72.716,23.934l0.548,1.858l1.79-0.728l-1.104,1.59
			l1.683,0.95l-1.926,0.125l0.307,1.914l-1.297-1.436l-1.299,1.436l0.307-1.914l-1.926-0.125l1.681-0.95l-1.103-1.59l1.787,0.728
			L72.716,23.934L72.716,23.934z M56.505,29.479L40.36,21.315v8.164h-7.814v-8.183h-0.642l-16.181,8.183H13.25V27.15l11.575-5.854
			H13.25v-7.838h11.575L13.25,7.605V5.276h2.474l16.181,8.183h0.642V5.276h7.814v8.163l16.145-8.163h3.151v1.987l-12.251,6.195
			h12.251v7.838H47.405l12.251,6.195v1.987H56.505z"/>
		<path fill-rule="evenodd" clip-rule="evenodd" fill="#D8E1E7" d="M85.901,12.37l0.258-0.104l0.65-0.057l-0.156,0.225L85.901,12.37
			L85.901,12.37z M86.053,13.591l0.226,0.128l-0.85-0.072L86.053,13.591L86.053,13.591z M85.718,14.936l0.008,0.052l-0.297-0.025
			L85.718,14.936L85.718,14.936z M85.927,16.24l0.016,0.088l-0.139-0.014l-0.053-0.06L85.927,16.24L85.927,16.24z M97.637,22.282
			l-0.419-0.036l-1.17,0.476l-0.552-1.856l-0.548,1.856l-1.791-0.726l1.105,1.591l-1.684,0.949l1.927,0.125l-0.307,1.912
			l1.297-1.434l1.3,1.434l-0.307-1.912l1.926-0.125l-1.682-0.949L97.637,22.282L97.637,22.282z M97.411,22.17l0.426-0.174
			l-0.101,0.143L97.411,22.17L97.411,22.17z M89.612,30.424l-0.329,0.027l-0.21,0.651l0.78,0.064L89.612,30.424L89.612,30.424z
			 M91.193,31.605l-3.11,0.268l0.599,0.436l-0.022,0.074l1.635,0.142l-0.072-0.216L91.193,31.605L91.193,31.605z M90.442,32.986
			L89.7,33.051l1.002,0.736L90.442,32.986L90.442,32.986z M89.14,33.099l-0.734,0.064l-0.164,0.501l0.113,0.011L89.14,33.099
			L89.14,33.099z M86.96,44.103l0.033,0.003l0.016-0.023L86.96,44.103L86.96,44.103z M86.218,45.22l-0.789,0.07l0.7,0.058
			L86.218,45.22L86.218,45.22z M87.277,46.448l-1.849,0.158l1.023,0.09l1.135-0.075L87.277,46.448L87.277,46.448z M85.846,47.891
			l-0.417,0.035l0.43,0.036L85.846,47.891L85.846,47.891z M33.869,48.374l0.204-0.018l0.729-0.803l-0.79-0.067L33.869,48.374
			L33.869,48.374z M38.971,47.932l0.095-0.006l-0.112-0.011L38.971,47.932L38.971,47.932z M34.086,47.036l1.284-0.109l0.538-0.594
			l-1.686-0.146L34.086,47.036L34.086,47.036z M37.864,46.712l1.202-0.105l-1.407-0.123L37.864,46.712L37.864,46.712z
			 M34.301,45.701l2.363-0.205l0.049-0.053l0.043,0.045l2.304-0.198l0,0l-4.629-0.402L34.301,45.701L34.301,45.701z M34.421,44.374
			l4.645-0.403l-7.456-0.648l-1.378,0.78L34.421,44.374L34.421,44.374z M31.664,43.291l7.402-0.642l-5.433-0.47L31.664,43.291
			L31.664,43.291z M33.828,41.785l5.238-0.453l-5.908-0.511L33.828,41.785L33.828,41.785z M32.966,40.545l6.1-0.529l-0.816-0.072
			l-0.314,0.129l-0.046-0.16l-2.292-0.198l-0.105,0.358l-1.148-0.467l-2.162-0.187L32.966,40.545L32.966,40.545z M32.101,39.302
			l1.228-0.107l-1.813-0.737L32.101,39.302L32.101,39.302z M35.818,38.977l1.749-0.151l-0.079-0.266l-1.509-0.133L35.818,38.977
			L35.818,38.977z M36.217,37.624l0.969-0.085l-0.1-0.335l-0.726-0.062L36.217,37.624L36.217,37.624z M36.618,36.271l0.187-0.015
			l-0.092-0.311L36.618,36.271L36.618,36.271z M38.908,29.479l0.158-0.013l-6.52-0.564v0.577H38.908L38.908,29.479z M32.546,28.715
			l6.52-0.564l-6.52-0.566V28.715L32.546,28.715z M32.546,27.397l6.52-0.564l-6.52-0.565V27.397L32.546,27.397z M32.546,26.078
			l6.52-0.568l-6.52-0.562V26.078L32.546,26.078z M32.546,24.76l6.52-0.566l-6.52-0.565V24.76L32.546,24.76z M32.546,23.44
			l6.52-0.564l-6.52-0.566V23.44L32.546,23.44z M32.546,22.123v-0.826h-0.642l-4.402,2.226l-6.044-0.524l0.591-0.296l5.589-0.486
			l-3.954-0.343l1.141-0.576h-1.791l4.604-0.398l-7.607-0.66l7.607-0.66l-7.607-0.657l7.607-0.659l-7.607-0.66l7.607-0.66
			l-7.607-0.658l7.607-0.659l-7.607-0.662l7.607-0.658l-7.607-0.657l2.167-0.188h2.627l-0.384-0.195l3.197-0.277l-4.517-0.39
			l-0.905-0.459l5.422-0.471l-7.607-0.657l6.003-0.521l5.87,2.971h0.642v-0.377l6.52,0.564l-7.607,0.657l7.607,0.658l-7.607,0.662
			l7.607,0.659l-7.607,0.658l7.607,0.66l-7.607,0.66l7.607,0.659l-7.607,0.657l7.607,0.66l-7.607,0.66l7.607,0.657L32.546,22.123
			L32.546,22.123z M32.546,12.893l6.52-0.565l-6.52-0.562V12.893L32.546,12.893z M32.546,11.575l6.52-0.565l-6.52-0.565V11.575
			L32.546,11.575z M32.546,10.256l6.52-0.562l-6.52-0.568V10.256L32.546,10.256z M32.546,8.936l6.52-0.562l-6.52-0.565V8.936
			L32.546,8.936z M32.546,7.62l6.52-0.566l-6.52-0.563V7.62L32.546,7.62z M32.546,6.301l6.52-0.567l-5.31-0.457h-1.209V6.301
			L32.546,6.301z M21.583,8.24l-1.552,0.133l2.194,0.189L21.583,8.24L21.583,8.24z M23.809,9.366l-3.778,0.327l5.338,0.46
			L23.809,9.366L23.809,9.366z M27.446,23.551l-7.415,0.643l5.246,0.454L27.446,23.551L27.446,23.551z M24.303,25.143l-4.271,0.367
			l3.023,0.264L24.303,25.143L24.303,25.143z M21.154,26.732l-1.123,0.101l0.793,0.068L21.154,26.732L21.154,26.732z M55.93,29.188
			l3.727-0.322v0.614h-3.151L55.93,29.188L55.93,29.188z M59.656,28.748l-5.548-0.48l-0.404-0.202l5.952-0.518V28.748L59.656,28.748
			z M59.508,27.418l-6.778-0.585l4.796-0.417L59.508,27.418L59.508,27.418z M56.359,25.827L52.73,25.51l2.568-0.22L56.359,25.827
			L56.359,25.827z M53.216,24.236l-0.486-0.043l0.343-0.029L53.216,24.236L53.216,24.236z M55.733,21.297l3.923-0.339v0.339H55.733
			L55.733,21.297z M59.656,20.84l-6.926-0.602l6.926-0.601V20.84L59.656,20.84z M59.656,19.52l-6.926-0.599l6.926-0.601V19.52
			L59.656,19.52z M59.656,18.2l-6.926-0.599l6.926-0.599V18.2L59.656,18.2z M59.656,16.883l-6.926-0.6l6.926-0.6V16.883
			L59.656,16.883z M59.656,15.565l-6.926-0.604l6.926-0.599V15.565L59.656,15.565z M59.656,14.246l-6.926-0.6l2.166-0.188h4.76
			V14.246L59.656,14.246z M54.543,9.849L52.73,9.693l2.562-0.226L54.543,9.849L54.543,9.849z M56.769,8.724L52.73,8.373l5.706-0.493
			L56.769,8.724L56.769,8.724z M58.991,7.598L52.95,7.074l0.092-0.047l6.614-0.573v0.81L58.991,7.598L58.991,7.598z M59.656,6.337
			l-4.481-0.389l1.013-0.512l1.854-0.16h1.614V6.337L59.656,6.337z M70.616,25.409l0.777,0.07l0.131,0.051L70.747,25.6
			L70.616,25.409L70.616,25.409z M71.245,26.786l0.52,0.047l-0.706,0.061L71.245,26.786L71.245,26.786z M71.657,28.14l0.107,0.011
			l-0.109,0.007L71.657,28.14L71.657,28.14z M71.448,29.439l0.141,0.013l-0.029,0.032l-0.12,0.011L71.448,29.439z"/>
		<path fill-rule="evenodd" clip-rule="evenodd" fill="#EC1C24" d="M57.559,5.276l-16.14,8.183h2.32l15.917-8.065V5.276H57.559
			L57.559,5.276z M59.656,15.069v4.618H38.754v9.792h-4.602v-9.792H13.25v-4.618h20.902V5.276h4.602v9.793H59.656L59.656,15.069z
			 M13.25,7.079l12.58,6.38h2.474L13.25,5.825V7.079L13.25,7.079z M13.25,29.479h1.312l16.18-8.183h-2.266L13.25,28.998V29.479
			L13.25,29.479z M59.656,27.968l-13.188-6.671h-2.859l16.047,8.116V27.968z"/>
		<path fill-rule="evenodd" clip-rule="evenodd" fill="#C3161C" d="M57.462,5.324l-1.382,0.7l1.985,0.174l1.591-0.805V5.276h-1.614
			L57.462,5.324L57.462,5.324z M54.323,6.915l-0.465,0.234l1.987,0.174l1.287-0.651L54.323,6.915L54.323,6.915z M53.625,8.449
			l0.368-0.187l-1.263,0.11L53.625,8.449L53.625,8.449z M38.754,29.439l-4.602-0.399v0.439h4.602V29.439L38.754,29.439z
			 M34.152,28.574l4.602-0.399v-0.053l-4.602-0.399V28.574L34.152,28.574z M34.152,27.257l4.602-0.399v-0.054l-4.602-0.398V27.257
			L34.152,27.257z M34.152,25.938l4.602-0.4v-0.053l-4.602-0.399V25.938L34.152,25.938z M34.152,24.619l4.602-0.397v-0.058
			l-4.602-0.396V24.619L34.152,24.619z M34.152,23.3l4.602-0.398v-0.054l-4.602-0.397V23.3L34.152,23.3z M34.152,21.982l4.602-0.398
			v-0.055l-4.602-0.398V21.982L34.152,21.982z M34.152,20.666l4.602-0.399V20.21l-4.602-0.398V20.666L34.152,20.666z M32.729,19.688
			l-1.27-0.109l7.607-0.657l-7.607-0.659l7.607-0.66l-7.607-0.66l7.607-0.658l-7.607-0.659l7.295-0.637v-0.053l-4.602-0.397v0.532
			H21.259l6.379,0.555l-7.607,0.659l7.607,0.658l-7.607,0.66l7.607,0.66l-7.607,0.659l7.607,0.657l-1.269,0.109H32.729
			L32.729,19.688z M34.152,14.072l4.602-0.4v-0.053l-4.602-0.398V14.072L34.152,14.072z M34.152,12.754l4.602-0.398v-0.053
			l-4.602-0.4V12.754L34.152,12.754z M34.152,11.435l4.602-0.397v-0.053l-4.602-0.401V11.435L34.152,11.435z M34.152,10.117
			l4.602-0.399V9.665l-4.602-0.402V10.117L34.152,10.117z M34.152,8.798l4.602-0.4V8.345l-4.602-0.397V8.798L34.152,8.798z
			 M34.152,7.479l4.602-0.4V7.027l-4.602-0.399V7.479L34.152,7.479z M34.152,6.16l4.602-0.398V5.708l-4.602-0.399V6.16L34.152,6.16z
			 M20.75,9.629l-0.719,0.064l1.016,0.087L20.75,9.629L20.75,9.629z M22.97,10.757l-2.11,0.182l0.343,0.174l2.979,0.258
			L22.97,10.757L22.97,10.757z M25.19,11.88l-2.11,0.185l1.258,0.636l2.979,0.259L25.19,11.88L25.19,11.88z M27.413,13.008
			L25.3,13.189l0.529,0.27h2.474L27.413,13.008L27.413,13.008z M26.801,22.144l0.837,0.072l-1.182,0.102l-1.881,0.952l1.935,0.168
			l4.232-2.141h-2.266L26.801,22.144L26.801,22.144z M26.047,23.674l-2.737,0.235l-0.958,0.485l1.933,0.17L26.047,23.674
			L26.047,23.674z M22.901,25.262l-2.732,0.237l-0.041,0.021l1.934,0.166L22.901,25.262L22.901,25.262z M58.73,28.945l0.926-0.08
			v0.548L58.73,28.945L58.73,28.945z M59.656,28.748l-1.589-0.138l-1.56-0.788l2.442-0.213l0.706,0.358V28.748L59.656,28.748z
			 M58.375,27.321l-3.448-0.299l-0.642-0.326l2.44-0.212L58.375,27.321L58.375,27.321z M55.226,25.728L52.73,25.51l1.767-0.15
			L55.226,25.728L55.226,25.728z M59.068,19.688l0.588-0.05v0.05H59.068L59.068,19.688z M59.656,19.52l-6.926-0.599l6.926-0.601
			V19.52L59.656,19.52z M59.656,18.2l-6.926-0.599l6.926-0.599V18.2L59.656,18.2z M59.656,16.883l-6.926-0.6l6.926-0.6V16.883
			L59.656,16.883z M59.656,15.565l-5.699-0.496h5.699V15.565z"/>
	</g>
</g>
</svg>
