<?xml version="1.0" encoding="utf-8"?>
<!-- Generator: Adobe Illustrator 15.0.0, SVG Export Plug-In . SVG Version: 6.00 Build 0)  -->
<!DOCTYPE svg PUBLIC "-//W3C//DTD SVG 1.1//EN" "http://www.w3.org/Graphics/SVG/1.1/DTD/svg11.dtd">
<svg version="1.1" id="Layer_1" xmlns="http://www.w3.org/2000/svg" xmlns:xlink="http://www.w3.org/1999/xlink" x="0px" y="0px"
	 width="121.739px" height="65.218px" viewBox="0 0 121.739 65.218" enable-background="new 0 0 121.739 65.218"
	 xml:space="preserve">
<g>
	<rect x="12.371" y="5.059" fill-rule="evenodd" clip-rule="evenodd" fill="#231F20" width="99.753" height="52.875"/>
	<g>
		<rect x="13.25" y="5.936" fill-rule="evenodd" clip-rule="evenodd" fill="#FFFFFF" width="97.994" height="25.561"/>
		<path fill-rule="evenodd" clip-rule="evenodd" fill="#D8E1E7" d="M25.351,5.936h8.395l5.32,0.461l-7.607,0.661l7.607,0.655
			l-7.607,0.665l7.607,0.655l-7.607,0.66l7.607,0.659l-7.607,0.657l7.607,0.663l-7.607,0.658l7.607,0.659l-7.607,0.66l7.607,0.657
			l-7.607,0.66l7.607,0.655l-7.607,0.661l7.607,0.663l-7.607,0.657l7.607,0.659l-7.607,0.658l7.607,0.66l-7.607,0.66l7.607,0.659
			l-7.607,0.66l7.607,0.656l-7.607,0.66l7.607,0.659l-7.607,0.658l7.607,0.66l-7.607,0.66l7.607,0.657l-7.607,0.662l7.607,0.657
			l-7.607,0.66l7.607,0.658l-7.607,0.66l7.607,0.659l-7.607,0.66l7.607,0.657l-0.547,0.049h-17.94l-0.547-0.049l7.607-0.657
			l-7.607-0.66l7.607-0.659l-7.607-0.66l7.607-0.658l-7.607-0.66l7.607-0.657l-7.607-0.662l7.607-0.657l-7.607-0.66l7.607-0.66
			l-7.607-0.658l7.607-0.659l-7.607-0.66l7.607-0.656l-7.607-0.66l7.607-0.659l-7.607-0.66l7.607-0.66l-7.607-0.658l7.607-0.659
			l-7.607-0.657l7.607-0.663l-7.607-0.661l7.607-0.655l-7.607-0.66l7.607-0.657l-7.607-0.66l7.607-0.659l-7.607-0.658l7.607-0.663
			l-7.607-0.657l7.607-0.659l-7.607-0.66l7.607-0.655l-7.607-0.665l7.607-0.655l-7.607-0.661L25.351,5.936L25.351,5.936z
			 M58.052,5.936h8.392l5.32,0.461l-7.604,0.661l7.604,0.655l-7.604,0.665l7.604,0.655l-7.606,0.66l7.606,0.659l-7.604,0.657
			l7.604,0.663l-7.604,0.658l7.604,0.659l-7.604,0.66l7.604,0.657l-7.604,0.66l7.604,0.655l-7.604,0.661l7.604,0.663l-7.604,0.657
			l7.604,0.659l-7.606,0.658l7.606,0.66l-7.604,0.66l7.604,0.659l-7.604,0.66l7.604,0.656l-7.604,0.66l7.604,0.659l-7.604,0.658
			l7.604,0.66l-7.604,0.66l7.604,0.657l-7.604,0.662l7.604,0.657l-7.604,0.66l7.604,0.658l-7.604,0.66l7.604,0.659l-7.604,0.66
			l7.604,0.657l-0.547,0.049H53.277l-0.547-0.049l7.606-0.657l-7.606-0.66l7.606-0.659l-7.606-0.66l7.606-0.658l-7.606-0.66
			l7.606-0.657l-7.606-0.662l7.606-0.657l-7.606-0.66l7.606-0.66l-7.606-0.658l7.606-0.659l-7.606-0.66l7.606-0.656l-7.606-0.66
			l7.606-0.659l-7.606-0.66l7.606-0.66l-7.606-0.658l7.606-0.659l-7.606-0.657l7.606-0.663l-7.606-0.661l7.606-0.655l-7.606-0.66
			l7.606-0.657l-7.606-0.66l7.606-0.659l-7.606-0.658l7.606-0.663l-7.606-0.657l7.606-0.659l-7.606-0.66l7.606-0.655L52.73,7.713
			l7.606-0.655L52.73,6.396L58.052,5.936L58.052,5.936z M90.751,5.936h8.393l5.32,0.461l-7.604,0.661l7.604,0.655l-7.604,0.665
			l7.604,0.655l-7.604,0.66l7.604,0.659l-7.604,0.657l7.604,0.663l-7.604,0.658l7.604,0.659l-7.604,0.66l7.604,0.657l-7.604,0.66
			l7.604,0.655l-7.604,0.661l7.604,0.663l-7.604,0.657l7.604,0.659l-7.604,0.658l7.604,0.66l-7.604,0.66l7.604,0.659l-7.604,0.66
			l7.604,0.656l-7.604,0.66l7.604,0.659l-7.604,0.658l7.604,0.66l-7.604,0.66l7.604,0.657l-7.604,0.662l7.604,0.657l-7.604,0.66
			l7.604,0.658l-7.604,0.66l7.604,0.659l-7.604,0.66l7.604,0.657l-0.548,0.049H85.979l-0.55-0.049l7.607-0.657l-7.607-0.66
			l7.607-0.659l-7.607-0.66l7.607-0.658l-7.607-0.66l7.607-0.657l-7.607-0.662l7.607-0.657l-7.607-0.66l7.607-0.66l-7.607-0.658
			l7.607-0.659l-7.607-0.66l7.607-0.656l-7.607-0.66l7.607-0.659l-7.607-0.66l7.607-0.66l-7.607-0.658l7.607-0.659l-7.607-0.657
			l7.607-0.663l-7.607-0.661l7.607-0.655l-7.607-0.66l7.607-0.657l-7.607-0.66l7.607-0.659l-7.607-0.658l7.607-0.663l-7.607-0.657
			l7.607-0.659l-7.607-0.66l7.607-0.655l-7.607-0.665l7.607-0.655l-7.607-0.661L90.751,5.936z"/>
		<rect x="13.25" y="5.936" fill-rule="evenodd" clip-rule="evenodd" fill="#034693" width="25.56" height="25.561"/>
		<polygon fill-rule="evenodd" clip-rule="evenodd" fill="#002D6C" points="20.579,31.496 38.519,31.496 38.81,31.471 38.81,31.425 
			31.459,30.79 38.81,30.15 38.81,30.106 31.459,29.471 38.81,28.833 38.81,28.789 31.459,28.152 38.81,27.516 38.81,27.47 
			31.459,26.835 38.81,26.196 38.81,26.149 31.459,25.516 38.81,24.878 38.81,24.832 31.459,24.195 38.81,23.559 38.81,23.516 
			31.459,22.878 38.81,22.241 38.81,22.196 31.459,21.562 38.81,20.923 38.81,20.878 31.459,20.242 38.81,19.604 38.81,19.562 
			31.459,18.922 38.81,18.285 38.81,18.241 31.459,17.604 38.81,16.968 38.81,16.925 31.459,16.284 38.81,15.646 38.81,15.602 
			31.459,14.968 38.81,14.33 38.81,14.287 31.459,13.65 38.81,13.014 38.81,12.967 31.459,12.331 38.81,11.696 38.81,11.65 
			31.459,11.01 38.81,10.376 38.81,10.332 31.459,9.693 38.81,9.057 38.81,9.012 31.459,8.378 38.81,7.738 38.81,7.692 
			31.459,7.058 38.81,6.419 38.81,6.376 33.746,5.936 25.351,5.936 20.031,6.396 27.638,7.058 20.031,7.713 27.638,8.378 
			20.031,9.033 27.638,9.693 20.031,10.353 27.638,11.01 20.031,11.673 27.638,12.331 20.031,12.99 27.638,13.65 20.031,14.308 
			27.638,14.968 20.031,15.623 27.638,16.284 20.031,16.947 27.638,17.604 20.031,18.264 27.638,18.922 20.031,19.582 
			27.638,20.242 20.031,20.901 27.638,21.562 20.031,22.218 27.638,22.878 20.031,23.537 27.638,24.195 20.031,24.855 
			27.638,25.516 20.031,26.173 27.638,26.835 20.031,27.492 27.638,28.152 20.031,28.811 27.638,29.471 20.031,30.13 27.638,30.79 
			20.031,31.447 		"/>
		<rect x="13.25" y="31.496" fill-rule="evenodd" clip-rule="evenodd" fill="#EC1C24" width="97.994" height="25.56"/>
		<path fill-rule="evenodd" clip-rule="evenodd" fill="#FFFFFF" d="M26.093,12.658l1.476,4.575l4.811-0.008
			c0.028,0,0.051,0.019,0.062,0.044c0.01,0.028,0,0.057-0.023,0.074l-3.895,2.818l1.494,4.57c0.008,0.028,0,0.057-0.023,0.072
			c-0.023,0.018-0.053,0.018-0.077,0l-3.885-2.835l-3.888,2.835c-0.023,0.018-0.051,0.018-0.074,0
			c-0.022-0.016-0.033-0.044-0.022-0.072l1.493-4.57l-3.898-2.818c-0.02-0.018-0.031-0.046-0.023-0.074
			c0.008-0.025,0.033-0.044,0.062-0.044l4.812,0.008l1.478-4.575c0.008-0.029,0.031-0.047,0.062-0.047
			C26.06,12.611,26.083,12.629,26.093,12.658z"/>
		<path fill-rule="evenodd" clip-rule="evenodd" fill="#C3161C" d="M98.033,57.056h-6.175l-6.43-0.56l7.607-0.658l-7.607-0.66
			l7.607-0.656l-7.607-0.663l7.607-0.657l-7.607-0.657l7.607-0.662l-7.607-0.657l7.607-0.66l-7.607-0.658l7.607-0.662l-7.607-0.657
			l7.607-0.66l-7.607-0.657l7.607-0.66l-7.607-0.657l7.607-0.662l-7.607-0.658l7.607-0.66l-7.607-0.659l7.607-0.66l-7.607-0.66
			l7.607-0.657l-7.607-0.657l7.607-0.659l-7.607-0.661l7.607-0.659l-7.607-0.659l7.607-0.66l-7.607-0.657l7.607-0.66l-7.607-0.657
			l7.607-0.659l-7.607-0.661l7.607-0.66l-7.607-0.66l7.607-0.656l-7.058-0.611h17.938l-7.057,0.611l7.604,0.656l-7.604,0.66
			l7.604,0.66l-7.604,0.661l7.604,0.659l-7.604,0.657l7.604,0.66l-7.604,0.657l7.604,0.66l-7.604,0.659l7.604,0.659l-7.604,0.661
			l7.604,0.659l-7.604,0.657l7.604,0.657l-7.604,0.66l7.604,0.66l-7.604,0.659l7.604,0.66l-7.604,0.66l7.604,0.66l-7.604,0.657
			l7.604,0.66l-7.604,0.657l7.604,0.66l-7.604,0.657l7.604,0.662l-7.604,0.658l7.604,0.66l-7.604,0.657l7.604,0.659l-7.604,0.66
			l7.604,0.657l-7.604,0.663l7.604,0.656l-7.604,0.66l7.604,0.658L98.033,57.056L98.033,57.056z M65.335,57.056H59.16l-6.43-0.56
			l7.606-0.658l-7.606-0.66l7.606-0.656l-7.606-0.663l7.606-0.657l-7.606-0.657l7.606-0.662l-7.606-0.657l7.606-0.66l-7.606-0.658
			l7.606-0.662l-7.606-0.657l7.606-0.66L52.73,47.27l7.606-0.66l-7.606-0.657l7.606-0.662l-7.606-0.658l7.606-0.66l-7.606-0.659
			l7.606-0.66l-7.606-0.66l7.606-0.657l-7.606-0.657l7.606-0.659l-7.606-0.661l7.606-0.659l-7.606-0.659l7.606-0.66l-7.606-0.657
			l7.606-0.66l-7.606-0.657l7.606-0.659l-7.606-0.661l7.606-0.66l-7.606-0.66l7.606-0.656l-7.06-0.611h17.941l-7.057,0.611
			l7.604,0.656l-7.604,0.66l7.604,0.66l-7.604,0.661l7.604,0.659l-7.604,0.657l7.604,0.66l-7.604,0.657l7.604,0.66l-7.604,0.659
			l7.604,0.659l-7.604,0.661l7.604,0.659l-7.604,0.657l7.604,0.657l-7.604,0.66l7.604,0.66l-7.604,0.659l7.604,0.66l-7.604,0.66
			l7.604,0.66l-7.604,0.657l7.604,0.66l-7.604,0.657l7.604,0.66l-7.604,0.657l7.604,0.662l-7.604,0.658l7.604,0.66l-7.604,0.657
			l7.604,0.659l-7.604,0.66l7.604,0.657l-7.604,0.663l7.604,0.656l-7.604,0.66l7.604,0.658L65.335,57.056L65.335,57.056z
			 M32.636,57.056h-6.175l-6.43-0.56l7.607-0.658l-7.607-0.66l7.607-0.656l-7.607-0.663l7.607-0.657l-7.607-0.657l7.607-0.662
			l-7.607-0.657l7.607-0.66l-7.607-0.658l7.607-0.662l-7.607-0.657l7.607-0.66l-7.607-0.657l7.607-0.66l-7.607-0.657l7.607-0.662
			l-7.607-0.658l7.607-0.66l-7.607-0.659l7.607-0.66l-7.607-0.66l7.607-0.657l-7.607-0.657l7.607-0.659l-7.607-0.661l7.607-0.659
			l-7.607-0.659l7.607-0.66l-7.607-0.657l7.607-0.66l-7.607-0.657l7.607-0.659l-7.607-0.661l7.607-0.66l-7.607-0.66l7.607-0.656
			l-7.06-0.611h17.94l-7.06,0.611l7.607,0.656l-7.607,0.66l7.607,0.66l-7.607,0.661l7.607,0.659l-7.607,0.657l7.607,0.66
			l-7.607,0.657l7.607,0.66l-7.607,0.659l7.607,0.659l-7.607,0.661l7.607,0.659l-7.607,0.657l7.607,0.657l-7.607,0.66l7.607,0.66
			l-7.607,0.659l7.607,0.66l-7.607,0.66l7.607,0.66l-7.607,0.657l7.607,0.66l-7.607,0.657l7.607,0.66l-7.607,0.657l7.607,0.662
			l-7.607,0.658l7.607,0.66l-7.607,0.657l7.607,0.659l-7.607,0.66l7.607,0.657l-7.607,0.663l7.607,0.656l-7.607,0.66l7.607,0.658
			L32.636,57.056z"/>
		<path fill-rule="evenodd" clip-rule="evenodd" fill="#D8E1E7" d="M26.09,12.655l0.284,0.886l-0.67-0.06l0.266-0.826
			c0.01-0.028,0.033-0.041,0.062-0.041C26.057,12.614,26.08,12.627,26.09,12.655L26.09,12.655z M26.446,13.753l0.368,1.143
			l-1.524-0.133l0.302-0.937L26.446,13.753L26.446,13.753z M26.857,15.034l0.395,1.217l-2.376-0.207l0.279-0.861L26.857,15.034
			L26.857,15.034z M27.272,16.318l0.297,0.918l4.811-0.011c0.031,0,0.051,0.019,0.062,0.047c0.01,0.025-0.002,0.054-0.023,0.071
			l-0.278,0.202l-0.681,0.059l0.535,0.045L28.52,20.16l1.499,4.572c0.005,0.025,0,0.057-0.028,0.075
			c-0.021,0.018-0.054,0.018-0.074,0l-2.604-1.901l0.325-0.028l-0.415-0.035l-1.192-0.873l-0.941,0.687l-2.305-0.197l0.161-0.493
			l4.691-0.404l-4.43-0.387l0.184-0.565l4.246-0.367l-4.528-0.395l-0.66-0.476l5.188-0.45l-6.604-0.57l-0.212-0.156l6.817-0.591
			l-4.282-0.371l1.136,0.003l0.225-0.698L27.272,16.318L27.272,16.318z M24.402,23.157l-1.9,0.167l-0.133,0.416l1.105,0.096
			L24.402,23.157L24.402,23.157z M22.354,24.654l-0.294,0.025l-0.018,0.053c-0.005,0.025,0,0.057,0.028,0.075
			c0.021,0.018,0.054,0.018,0.074,0L22.354,24.654z"/>
	</g>
</g>
</svg>
