<?xml version="1.0" encoding="utf-8"?>
<!-- Generator: Adobe Illustrator 15.0.0, SVG Export Plug-In . SVG Version: 6.00 Build 0)  -->
<!DOCTYPE svg PUBLIC "-//W3C//DTD SVG 1.1//EN" "http://www.w3.org/Graphics/SVG/1.1/DTD/svg11.dtd">
<svg version="1.1" id="Layer_1" xmlns="http://www.w3.org/2000/svg" xmlns:xlink="http://www.w3.org/1999/xlink" x="0px" y="0px"
	 width="121.739px" height="65.218px" viewBox="0 0 121.739 65.218" enable-background="new 0 0 121.739 65.218"
	 xml:space="preserve">
<g>
	<rect x="12.374" y="4.666" fill-rule="evenodd" clip-rule="evenodd" fill="#231F20" width="99.75" height="52.877"/>
	<g>
		<g>
			<rect x="13.25" y="5.548" fill-rule="evenodd" clip-rule="evenodd" fill="#FFCA05" width="97.994" height="25.935"/>
			<rect x="13.25" y="31.482" fill-rule="evenodd" clip-rule="evenodd" fill="#0071BB" width="97.994" height="12.591"/>
			<rect x="13.25" y="44.073" fill-rule="evenodd" clip-rule="evenodd" fill="#EC1C24" width="97.994" height="12.594"/>
		</g>
		<path fill-rule="evenodd" clip-rule="evenodd" fill="#00579B" d="M24.924,31.482h9.249l-2.714,0.235l7.607,0.658l-7.607,0.658
			l7.607,0.66l-7.607,0.663l7.607,0.655l-7.607,0.66l7.607,0.659l-7.607,0.66l7.607,0.657l-7.607,0.657l7.607,0.661l-7.607,0.66
			l7.607,0.66l-7.607,0.66l7.607,0.659l-7.607,0.654l7.607,0.66l-7.607,0.66l5.666,0.491h-15.15l5.663-0.491l-7.607-0.66l7.607-0.66
			l-7.607-0.654l7.607-0.659l-7.607-0.66l7.607-0.66l-7.607-0.66l7.607-0.661l-7.607-0.657l7.607-0.657l-7.607-0.66l7.607-0.659
			l-7.607-0.66l7.607-0.658l-7.607-0.66l7.607-0.66l-7.607-0.658l7.607-0.658L24.924,31.482L24.924,31.482z M57.623,31.482h9.251
			l-2.713,0.235l7.604,0.658l-7.604,0.658l7.604,0.66l-7.604,0.663l7.604,0.655l-7.604,0.66l7.604,0.659l-7.604,0.66l7.604,0.657
			l-7.604,0.657l7.604,0.661l-7.604,0.66l7.604,0.66l-7.604,0.66l7.604,0.659l-7.604,0.654l7.604,0.66l-7.604,0.66l5.662,0.491
			H54.674l5.663-0.491l-7.606-0.66l7.606-0.66l-7.606-0.654l7.606-0.659l-7.606-0.66l7.606-0.66l-7.606-0.66l7.606-0.661
			l-7.606-0.657l7.606-0.657l-7.606-0.66l7.606-0.659l-7.606-0.66l7.606-0.658l-7.606-0.66l7.606-0.66l-7.606-0.658l7.606-0.658
			L57.623,31.482L57.623,31.482z M90.321,31.482h9.252l-2.714,0.235l7.604,0.658l-7.604,0.658l7.604,0.66l-7.604,0.663l7.604,0.655
			l-7.604,0.66l7.604,0.659l-7.604,0.66l7.604,0.657l-7.604,0.657l7.604,0.661l-7.604,0.66l7.604,0.66l-7.604,0.66l7.604,0.659
			l-7.604,0.654l7.604,0.66l-7.604,0.66l5.663,0.491h-15.15l5.664-0.491l-7.607-0.66l7.607-0.66l-7.607-0.654l7.607-0.659
			l-7.607-0.66l7.607-0.66l-7.607-0.66l7.607-0.661l-7.607-0.657l7.607-0.657l-7.607-0.66l7.607-0.659l-7.607-0.66l7.607-0.658
			l-7.607-0.66l7.607-0.66l-7.607-0.658l7.607-0.658L90.321,31.482z"/>
		<path fill-rule="evenodd" clip-rule="evenodd" fill="#EBAC13" d="M24.924,31.482h9.249l4.893-0.425l-7.607-0.659l7.607-0.657
			l-7.607-0.66l7.607-0.657l-7.607-0.66l7.607-0.659l-7.607-0.66l7.607-0.66l-7.607-0.657l7.607-0.661l-7.607-0.656l7.607-0.66
			l-7.607-0.66l7.607-0.66l-7.607-0.656l7.607-0.663l-7.607-0.66l7.607-0.657l-7.607-0.659l7.607-0.658l-7.607-0.66l7.607-0.66
			l-7.607-0.659l7.607-0.663l-7.607-0.654l7.607-0.66l-7.607-0.657l7.607-0.659l-7.607-0.66l7.607-0.657l-7.607-0.663l7.607-0.656
			l-7.607-0.66l7.607-0.658l-7.607-0.66l7.607-0.659l-7.607-0.66l7.607-0.66l-5.31-0.459h-8.415l-5.31,0.459l7.607,0.66l-7.607,0.66
			l7.607,0.659l-7.607,0.66l7.607,0.658l-7.607,0.66l7.607,0.656l-7.607,0.663l7.607,0.657l-7.607,0.66l7.607,0.659l-7.607,0.657
			l7.607,0.66l-7.607,0.654l7.607,0.663l-7.607,0.659l7.607,0.66l-7.607,0.66l7.607,0.658l-7.607,0.659l7.607,0.657l-7.607,0.66
			l7.607,0.663l-7.607,0.656l7.607,0.66l-7.607,0.66l7.607,0.66l-7.607,0.656l7.607,0.661l-7.607,0.657l7.607,0.66l-7.607,0.66
			l7.607,0.659l-7.607,0.66l7.607,0.657l-7.607,0.66l7.607,0.657l-7.607,0.659L24.924,31.482L24.924,31.482z M57.623,31.482h9.251
			l4.891-0.425l-7.604-0.659l7.604-0.657l-7.604-0.66l7.604-0.657l-7.604-0.66l7.604-0.659l-7.604-0.66l7.604-0.66l-7.604-0.657
			l7.604-0.661l-7.604-0.656l7.604-0.66l-7.604-0.66l7.604-0.66l-7.604-0.656l7.604-0.663l-7.604-0.66l7.604-0.657l-7.606-0.659
			l7.606-0.658l-7.604-0.66l7.604-0.66l-7.604-0.659l7.604-0.663l-7.604-0.654l7.604-0.66l-7.604-0.657l7.604-0.659l-7.604-0.66
			l7.604-0.657l-7.604-0.663l7.604-0.656l-7.606-0.66l7.606-0.658l-7.604-0.66l7.604-0.659l-7.604-0.66l7.604-0.66l-5.31-0.459
			h-8.413L52.73,6.007l7.606,0.66l-7.606,0.66l7.606,0.659l-7.606,0.66l7.606,0.658l-7.606,0.66l7.606,0.656l-7.606,0.663
			l7.606,0.657l-7.606,0.66l7.606,0.659l-7.606,0.657l7.606,0.66l-7.606,0.654l7.606,0.663l-7.606,0.659l7.606,0.66l-7.606,0.66
			l7.606,0.658l-7.606,0.659l7.606,0.657l-7.606,0.66l7.606,0.663l-7.606,0.656l7.606,0.66l-7.606,0.66l7.606,0.66l-7.606,0.656
			l7.606,0.661l-7.606,0.657l7.606,0.66l-7.606,0.66l7.606,0.659l-7.606,0.66l7.606,0.657l-7.606,0.66l7.606,0.657l-7.606,0.659
			L57.623,31.482L57.623,31.482z M90.321,31.482h9.252l4.891-0.425l-7.604-0.659l7.604-0.657l-7.604-0.66l7.604-0.657l-7.604-0.66
			l7.604-0.659l-7.604-0.66l7.604-0.66l-7.604-0.657l7.604-0.661l-7.604-0.656l7.604-0.66l-7.604-0.66l7.604-0.66l-7.604-0.656
			l7.604-0.663l-7.604-0.66l7.604-0.657l-7.604-0.659l7.604-0.658l-7.604-0.66l7.604-0.66l-7.604-0.659l7.604-0.663l-7.604-0.654
			l7.604-0.66l-7.604-0.657l7.604-0.659l-7.604-0.66l7.604-0.657l-7.604-0.663l7.604-0.656l-7.604-0.66l7.604-0.658l-7.604-0.66
			l7.604-0.659l-7.604-0.66l7.604-0.66l-5.311-0.459h-8.412l-5.312,0.459l7.607,0.66l-7.605,0.66l7.605,0.659l-7.607,0.66
			l7.607,0.658l-7.607,0.66l7.607,0.656l-7.607,0.663l7.607,0.657l-7.607,0.66l7.607,0.659l-7.607,0.657l7.607,0.66l-7.607,0.654
			l7.607,0.663l-7.607,0.659l7.607,0.66l-7.607,0.66l7.607,0.658l-7.607,0.659l7.607,0.657l-7.607,0.66l7.607,0.663l-7.607,0.656
			l7.607,0.66l-7.607,0.66l7.607,0.66l-7.607,0.656l7.607,0.661l-7.607,0.657l7.607,0.66l-7.607,0.66l7.607,0.659l-7.607,0.66
			l7.607,0.657l-7.607,0.66l7.607,0.657l-7.607,0.659L90.321,31.482z"/>
		<path fill-rule="evenodd" clip-rule="evenodd" fill="#C3161C" d="M26.451,56.667h6.195l6.42-0.557l-7.607-0.66l7.607-0.659
			l-7.607-0.66l7.607-0.66l-7.607-0.66l7.607-0.654l-7.607-0.665l7.607-0.655l-7.607-0.66l7.607-0.659l-7.607-0.66l7.607-0.66
			l-7.607-0.66l7.607-0.655l-7.607-0.659l7.607-0.66l-7.607-0.66l7.607-0.659l-1.941-0.169h-15.15l-1.944,0.169l7.607,0.659
			l-7.607,0.66l7.607,0.66l-7.607,0.659l7.607,0.655l-7.607,0.66l7.607,0.66l-7.607,0.66l7.607,0.659l-7.607,0.66l7.607,0.655
			l-7.607,0.665l7.607,0.654l-7.607,0.66l7.607,0.66l-7.607,0.66l7.607,0.659l-7.607,0.66L26.451,56.667L26.451,56.667z
			 M59.15,56.667h6.195l6.42-0.557l-7.604-0.66l7.604-0.659l-7.604-0.66l7.604-0.66l-7.604-0.66l7.604-0.654l-7.604-0.665
			l7.604-0.655l-7.604-0.66l7.604-0.659l-7.604-0.66l7.604-0.66l-7.604-0.66l7.604-0.655l-7.604-0.659l7.604-0.66l-7.604-0.66
			l7.604-0.659l-1.941-0.169H54.674l-1.944,0.169l7.606,0.659l-7.606,0.66l7.606,0.66l-7.606,0.659l7.606,0.655l-7.606,0.66
			l7.606,0.66l-7.606,0.66l7.606,0.659l-7.606,0.66l7.606,0.655l-7.606,0.665l7.606,0.654l-7.606,0.66l7.606,0.66l-7.606,0.66
			l7.606,0.659l-7.606,0.66L59.15,56.667L59.15,56.667z M91.849,56.667h6.195l6.42-0.557l-7.604-0.66l7.604-0.659l-7.604-0.66
			l7.604-0.66l-7.604-0.66l7.604-0.654l-7.604-0.665l7.604-0.655l-7.604-0.66l7.604-0.659l-7.604-0.66l7.604-0.66l-7.604-0.66
			l7.604-0.655l-7.604-0.659l7.604-0.66l-7.604-0.66l7.604-0.659l-1.941-0.169h-15.15l-1.943,0.169l7.607,0.659l-7.607,0.66
			l7.607,0.66l-7.607,0.659l7.607,0.655l-7.607,0.66l7.607,0.66l-7.607,0.66l7.607,0.659l-7.607,0.66l7.607,0.655l-7.607,0.665
			l7.607,0.654l-7.607,0.66l7.607,0.66l-7.607,0.66l7.607,0.659l-7.607,0.66L91.849,56.667z"/>
	</g>
</g>
</svg>
