<?xml version="1.0" encoding="utf-8"?>
<!-- Generator: Adobe Illustrator 15.0.0, SVG Export Plug-In . SVG Version: 6.00 Build 0)  -->
<!DOCTYPE svg PUBLIC "-//W3C//DTD SVG 1.1//EN" "http://www.w3.org/Graphics/SVG/1.1/DTD/svg11.dtd">
<svg version="1.1" id="Layer_1" xmlns="http://www.w3.org/2000/svg" xmlns:xlink="http://www.w3.org/1999/xlink" x="0px" y="0px"
	 width="121.739px" height="65.218px" viewBox="0 0 121.739 65.218" enable-background="new 0 0 121.739 65.218"
	 xml:space="preserve">
<g>
	<rect x="12.374" y="4.29" fill-rule="evenodd" clip-rule="evenodd" fill="#231F20" width="99.75" height="52.874"/>
	<g>
		<rect x="13.25" y="5.17" fill-rule="evenodd" clip-rule="evenodd" fill="#FFFFFF" width="97.997" height="17.035"/>
		<rect x="13.25" y="5.17" fill-rule="evenodd" clip-rule="evenodd" fill="#FFFFFF" width="97.997" height="8.518"/>
		<rect x="13.25" y="22.205" fill-rule="evenodd" clip-rule="evenodd" fill="#EC1C24" width="97.997" height="17.039"/>
		<path fill-rule="evenodd" clip-rule="evenodd" fill="#D8E1E7" d="M102.249,22.205H87.644l5.393-0.466l-7.607-0.655l7.607-0.659
			l-7.607-0.654l7.607-0.66l-7.607-0.655l7.607-0.66l-7.607-0.66l7.607-0.653l-7.607-0.655l7.607-0.66l-7.607-0.66l7.607-0.655
			l-7.607-0.659l7.607-0.66l-7.607-0.654l7.607-0.66l-7.607-0.655l7.607-0.66l-7.607-0.654l7.607-0.66l-7.607-0.66l7.607-0.654
			l-7.607-0.66l7.607-0.655l-7.607-0.659l1.506-0.128h16.025l1.504,0.128l-7.604,0.659l7.604,0.655l-7.604,0.66l7.604,0.654
			l-7.604,0.66l7.604,0.66l-7.604,0.654l7.604,0.66l-7.604,0.655l7.604,0.66l-7.604,0.654l7.604,0.66l-7.604,0.654l7.604,0.66
			l-7.604,0.66l7.604,0.66l-7.604,0.655l7.604,0.653l-7.604,0.66l7.604,0.66l-7.604,0.655l7.604,0.66l-7.604,0.654l7.604,0.659
			l-7.604,0.655L102.249,22.205L102.249,22.205z M36.851,22.205H22.247l5.392-0.466l-7.607-0.655l7.607-0.659l-7.607-0.654
			l7.607-0.66l-7.607-0.655l7.607-0.66l-7.607-0.66l7.607-0.653l-7.607-0.655l7.607-0.66l-7.607-0.66l7.607-0.655l-7.607-0.659
			l7.607-0.66l-7.607-0.654l7.607-0.66l-7.607-0.655l7.607-0.66l-7.607-0.654l7.607-0.66l-7.607-0.66l7.607-0.654l-7.607-0.66
			l7.607-0.655l-7.607-0.659l1.504-0.128h16.027l1.504,0.128l-7.607,0.659l7.607,0.655l-7.607,0.66l7.607,0.654l-7.607,0.66
			l7.607,0.66l-7.607,0.654l7.607,0.66l-7.607,0.655l7.607,0.66l-7.607,0.654l7.607,0.66l-7.607,0.654l7.607,0.66l-7.607,0.66
			l7.607,0.66l-7.607,0.655l7.607,0.653l-7.607,0.66l7.607,0.66l-7.607,0.655l7.607,0.66l-7.607,0.654l7.607,0.659l-7.607,0.655
			L36.851,22.205L36.851,22.205z M69.55,22.205H54.947l5.389-0.466l-7.606-0.655l7.606-0.659l-7.606-0.654l7.606-0.66l-7.606-0.655
			l7.606-0.66l-7.606-0.66l7.606-0.653l-7.606-0.655l7.606-0.66l-7.606-0.66l7.606-0.655l-7.606-0.659l7.606-0.66l-7.606-0.654
			l7.606-0.66l-7.606-0.655l7.606-0.66L52.73,9.247l7.606-0.66l-7.606-0.66l7.606-0.654l-7.606-0.66l7.606-0.655L52.73,5.298
			l1.504-0.128h16.027l1.504,0.128l-7.604,0.659l7.604,0.655l-7.604,0.66l7.604,0.654l-7.604,0.66l7.604,0.66l-7.604,0.654
			l7.604,0.66l-7.604,0.655l7.605,0.66l-7.605,0.654l7.604,0.66l-7.604,0.654l7.604,0.66l-7.604,0.66l7.605,0.66l-7.605,0.655
			l7.604,0.653l-7.604,0.66l7.604,0.66l-7.604,0.655l7.604,0.66l-7.604,0.654l7.604,0.659l-7.604,0.655L69.55,22.205z"/>
		<path fill-rule="evenodd" clip-rule="evenodd" fill="#C3161C" d="M102.249,22.205H87.644l-2.215,0.194l7.607,0.655l-7.607,0.66
			l7.607,0.658l-7.607,0.655l7.607,0.66l-7.607,0.66l7.607,0.654l-7.607,0.659l7.607,0.655l-7.607,0.66l7.607,0.655l-7.607,0.66
			l7.607,0.654l-7.607,0.659l7.607,0.655l-7.607,0.66l7.607,0.66l-7.607,0.654l7.607,0.66l-7.607,0.654l7.607,0.66l-7.607,0.66
			l7.607,0.655l-7.607,0.659l7.607,0.654l-4.674,0.404h13.17l-4.673-0.404l7.604-0.654l-7.604-0.659l7.606-0.655l-7.606-0.66
			l7.604-0.66l-7.604-0.654l7.604-0.66l-7.604-0.654l7.604-0.66l-7.604-0.66l7.604-0.655l-7.604-0.659l7.604-0.654l-7.604-0.66
			l7.604-0.655l-7.604-0.66l7.604-0.655l-7.604-0.659l7.604-0.654l-7.604-0.66l7.604-0.66l-7.604-0.655l7.604-0.658l-7.604-0.66
			l7.604-0.655L102.249,22.205L102.249,22.205z M36.851,22.205H22.247l-2.215,0.194l7.607,0.655l-7.607,0.66l7.607,0.658
			l-7.607,0.655l7.607,0.66l-7.607,0.66l7.607,0.654l-7.607,0.659l7.607,0.655l-7.607,0.66l7.607,0.655l-7.607,0.66l7.607,0.654
			l-7.607,0.659l7.607,0.655l-7.607,0.66l7.607,0.66l-7.607,0.654l7.607,0.66l-7.607,0.654l7.607,0.66l-7.607,0.66l7.607,0.655
			l-7.607,0.659l7.607,0.654l-4.673,0.404h13.167l-4.673-0.404l7.607-0.654l-7.607-0.659l7.607-0.655l-7.607-0.66l7.607-0.66
			l-7.607-0.654l7.607-0.66l-7.607-0.654l7.607-0.66l-7.607-0.66l7.607-0.655l-7.607-0.659l7.607-0.654l-7.607-0.66l7.607-0.655
			l-7.607-0.66l7.607-0.655l-7.607-0.659l7.607-0.654l-7.607-0.66l7.607-0.66l-7.607-0.655l7.607-0.658l-7.607-0.66l7.607-0.655
			L36.851,22.205L36.851,22.205z M69.55,22.205H54.947l-2.217,0.194l7.606,0.655l-7.606,0.66l7.606,0.658l-7.606,0.655l7.606,0.66
			l-7.606,0.66l7.606,0.654l-7.606,0.659l7.606,0.655l-7.606,0.66l7.606,0.655l-7.606,0.66l7.606,0.654l-7.606,0.659l7.606,0.655
			l-7.606,0.66l7.606,0.66l-7.606,0.654l7.606,0.66l-7.606,0.654l7.606,0.66l-7.606,0.66l7.606,0.655l-7.606,0.659l7.606,0.654
			l-4.673,0.404h13.167l-4.67-0.404l7.604-0.654l-7.604-0.659l7.605-0.655l-7.605-0.66l7.604-0.66l-7.604-0.654l7.605-0.66
			l-7.605-0.654l7.604-0.66l-7.604-0.66l7.605-0.655l-7.605-0.659l7.604-0.654l-7.604-0.66l7.604-0.655l-7.604-0.66l7.604-0.655
			l-7.604-0.659l7.604-0.654l-7.604-0.66l7.604-0.66l-7.604-0.655l7.605-0.658l-7.605-0.66l7.604-0.655L69.55,22.205z"/>
		<rect x="13.25" y="5.17" fill-rule="evenodd" clip-rule="evenodd" fill="#034693" width="97.997" height="8.518"/>
		<path fill-rule="evenodd" clip-rule="evenodd" fill="#003375" d="M91.161,13.688l-5.732-0.496l7.607-0.66l-7.607-0.654l7.607-0.66
			l-7.607-0.655l7.607-0.66l-7.607-0.654l7.607-0.66l-7.607-0.66l7.607-0.654l-7.607-0.66l7.607-0.655l-7.607-0.659l1.506-0.128
			h16.025l1.504,0.128l-7.604,0.659l7.604,0.655l-7.604,0.66l7.604,0.654l-7.604,0.66l7.604,0.66l-7.604,0.654l7.604,0.66
			l-7.604,0.655l7.604,0.66l-7.604,0.654l7.604,0.66l-5.75,0.496H91.161L91.161,13.688z M66.015,13.688h-7.553l-5.732-0.496
			l7.606-0.66l-7.606-0.654l7.606-0.66l-7.606-0.655l7.606-0.66L52.73,9.247l7.606-0.66l-7.606-0.66l7.606-0.654l-7.606-0.66
			l7.606-0.655L52.73,5.298l1.504-0.128h16.027l1.504,0.128l-7.604,0.659l7.604,0.655l-7.604,0.66l7.604,0.654l-7.604,0.66
			l7.604,0.66l-7.604,0.654l7.604,0.66l-7.604,0.655l7.605,0.66l-7.605,0.654l7.604,0.66L66.015,13.688L66.015,13.688z
			 M33.316,13.688h-7.553l-5.732-0.496l7.607-0.66l-7.607-0.654l7.607-0.66l-7.607-0.655l7.607-0.66l-7.607-0.654l7.607-0.66
			l-7.607-0.66l7.607-0.654l-7.607-0.66l7.607-0.655l-7.607-0.659l1.504-0.128h16.027l1.504,0.128l-7.607,0.659l7.607,0.655
			l-7.607,0.66l7.607,0.654l-7.607,0.66l7.607,0.66l-7.607,0.654l7.607,0.66l-7.607,0.655l7.607,0.66l-7.607,0.654l7.607,0.66
			L33.316,13.688z"/>
		<rect x="13.25" y="39.244" fill-rule="evenodd" clip-rule="evenodd" fill="#FFFFFF" width="97.997" height="17.04"/>
		<rect x="13.25" y="47.767" fill-rule="evenodd" clip-rule="evenodd" fill="#FFFFFF" width="97.997" height="8.518"/>
		<path fill-rule="evenodd" clip-rule="evenodd" fill="#D8E1E7" d="M102.249,39.244H87.644l5.393,0.472l-7.607,0.655l7.607,0.654
			l-7.607,0.658l7.607,0.655l-7.607,0.66l7.607,0.66l-7.607,0.66l7.607,0.655l-7.607,0.654l7.607,0.659l-7.607,0.655l7.607,0.66
			l-7.607,0.66l7.607,0.659l-7.607,0.655l7.607,0.654l-7.607,0.66l7.607,0.66l-7.607,0.655l7.607,0.659l-7.607,0.66l7.607,0.655
			l-7.607,0.66l7.607,0.654l-7.607,0.659l1.506,0.128h16.025l1.504-0.128l-7.604-0.659l7.604-0.654l-7.604-0.66l7.604-0.655
			l-7.604-0.66l7.604-0.659l-7.604-0.655l7.604-0.66l-7.604-0.66l7.604-0.654l-7.604-0.655l7.604-0.659l-7.604-0.66l7.604-0.66
			l-7.604-0.655l7.604-0.659l-7.604-0.654l7.604-0.655l-7.604-0.66l7.604-0.66l-7.604-0.66l7.604-0.655l-7.604-0.658l7.604-0.654
			l-7.604-0.655L102.249,39.244L102.249,39.244z M36.851,39.244H22.247l5.392,0.472l-7.607,0.655l7.607,0.654l-7.607,0.658
			l7.607,0.655l-7.607,0.66l7.607,0.66l-7.607,0.66l7.607,0.655l-7.607,0.654l7.607,0.659l-7.607,0.655l7.607,0.66l-7.607,0.66
			l7.607,0.659l-7.607,0.655l7.607,0.654l-7.607,0.66l7.607,0.66l-7.607,0.655l7.607,0.659l-7.607,0.66l7.607,0.655l-7.607,0.66
			l7.607,0.654l-7.607,0.659l1.504,0.128h16.027l1.504-0.128l-7.607-0.659l7.607-0.654l-7.607-0.66l7.607-0.655l-7.607-0.66
			l7.607-0.659l-7.607-0.655l7.607-0.66l-7.607-0.66l7.607-0.654l-7.607-0.655l7.607-0.659l-7.607-0.66l7.607-0.66l-7.607-0.655
			l7.607-0.659l-7.607-0.654l7.607-0.655l-7.607-0.66l7.607-0.66l-7.607-0.66l7.607-0.655l-7.607-0.658l7.607-0.654l-7.607-0.655
			L36.851,39.244L36.851,39.244z M69.55,39.244H54.947l5.389,0.472l-7.606,0.655l7.606,0.654l-7.606,0.658l7.606,0.655l-7.606,0.66
			l7.606,0.66l-7.606,0.66l7.606,0.655l-7.606,0.654l7.606,0.659l-7.606,0.655l7.606,0.66l-7.606,0.66l7.606,0.659l-7.606,0.655
			l7.606,0.654l-7.606,0.66l7.606,0.66l-7.606,0.655l7.606,0.659l-7.606,0.66l7.606,0.655l-7.606,0.66l7.606,0.654l-7.606,0.659
			l1.504,0.128h16.027l1.504-0.128l-7.604-0.659l7.604-0.654l-7.604-0.66l7.604-0.655l-7.604-0.66l7.604-0.659l-7.604-0.655
			l7.604-0.66l-7.604-0.66l7.605-0.654l-7.605-0.655l7.604-0.659l-7.604-0.66l7.604-0.66l-7.604-0.655l7.605-0.659l-7.605-0.654
			l7.604-0.655l-7.604-0.66l7.604-0.66l-7.604-0.66l7.604-0.655l-7.604-0.658l7.604-0.654l-7.604-0.655L69.55,39.244z"/>
		<rect x="13.25" y="47.767" fill-rule="evenodd" clip-rule="evenodd" fill="#034693" width="97.997" height="8.518"/>
		<path fill-rule="evenodd" clip-rule="evenodd" fill="#003375" d="M91.161,47.767l-5.732,0.497l7.607,0.659l-7.607,0.655
			l7.607,0.654l-7.607,0.66l7.607,0.66l-7.607,0.655l7.607,0.659l-7.607,0.66l7.607,0.655l-7.607,0.66l7.607,0.654l-7.607,0.659
			l1.506,0.128h16.025l1.504-0.128l-7.604-0.659l7.604-0.654l-7.604-0.66l7.604-0.655l-7.604-0.66l7.604-0.659l-7.604-0.655
			l7.604-0.66l-7.604-0.66l7.604-0.654l-7.604-0.655l7.604-0.659l-5.75-0.497H91.161L91.161,47.767z M66.015,47.767h-7.553
			l-5.732,0.497l7.606,0.659l-7.606,0.655l7.606,0.654l-7.606,0.66l7.606,0.66l-7.606,0.655l7.606,0.659l-7.606,0.66l7.606,0.655
			l-7.606,0.66l7.606,0.654l-7.606,0.659l1.504,0.128h16.027l1.504-0.128l-7.604-0.659l7.604-0.654l-7.604-0.66l7.604-0.655
			l-7.604-0.66l7.604-0.659l-7.604-0.655l7.604-0.66l-7.604-0.66l7.605-0.654l-7.605-0.655l7.604-0.659L66.015,47.767L66.015,47.767
			z M33.316,47.767h-7.553l-5.732,0.497l7.607,0.659l-7.607,0.655l7.607,0.654l-7.607,0.66l7.607,0.66l-7.607,0.655l7.607,0.659
			l-7.607,0.66l7.607,0.655l-7.607,0.66l7.607,0.654l-7.607,0.659l1.504,0.128h16.027l1.504-0.128l-7.607-0.659l7.607-0.654
			l-7.607-0.66l7.607-0.655l-7.607-0.66l7.607-0.659l-7.607-0.655l7.607-0.66l-7.607-0.66l7.607-0.654l-7.607-0.655l7.607-0.659
			L33.316,47.767z"/>
		<ellipse fill-rule="evenodd" clip-rule="evenodd" fill="#FFFFFF" cx="38.293" cy="30.728" rx="6.559" ry="7.781"/>
		<path fill-rule="evenodd" clip-rule="evenodd" fill="#DBDCDD" d="M37.027,38.36c-0.442-0.104-0.872-0.257-1.281-0.461l3.32,0.286
			L37.027,38.36L37.027,38.36z M34.715,37.244c-0.317-0.245-0.616-0.521-0.895-0.828l5.246,0.455L34.715,37.244L34.715,37.244z
			 M33.5,36.032c-0.25-0.312-0.476-0.655-0.68-1.019l6.246,0.537L33.5,36.032L33.5,36.032z M32.7,34.789
			c-0.187-0.363-0.351-0.747-0.489-1.146l6.855,0.593L32.7,34.789L32.7,34.789z M32.17,33.521c-0.128-0.394-0.23-0.804-0.302-1.223
			l7.198,0.624L32.17,33.521L32.17,33.521z M31.858,32.23c-0.069-0.408-0.107-0.828-0.12-1.258l7.328,0.634L31.858,32.23
			L31.858,32.23z M31.735,30.926v-0.198c0-0.363,0.021-0.717,0.062-1.064l7.269,0.63L31.735,30.926L31.735,30.926z M31.802,29.602
			c0.051-0.419,0.133-0.833,0.24-1.232l7.023,0.608L31.802,29.602L31.802,29.602z M32.071,28.267
			c0.115-0.409,0.256-0.799,0.422-1.171l6.573,0.566L32.071,28.267L32.071,28.267z M32.58,26.906
			c0.179-0.379,0.384-0.731,0.614-1.07l5.873,0.513L32.58,26.906L32.58,26.906z M33.424,25.52c0.248-0.327,0.52-0.635,0.813-0.905
			l4.829,0.414L33.424,25.52L33.424,25.52z M34.887,24.076c0.343-0.244,0.708-0.46,1.089-0.628l3.09,0.267L34.887,24.076z"/>
		<g>
			<path fill-rule="evenodd" clip-rule="evenodd" fill="#CEECFB" d="M34.247,31.131c2.226,0,5.364,0,7.589,0
				c-1.205-2.654,0.988-1.539-1.314-3.643c-1.545,0-3.087,0-4.632,0C34.319,29.499,35.452,30.742,34.247,31.131z"/>
			<path fill-rule="evenodd" clip-rule="evenodd" fill="#009D45" d="M38.54,27.06c0.918-0.139,2.583,0.885,2.818,1.515
				c0.182,0.476,0.353,0.977-0.153,0.261c-0.578-0.814-1.468-1.361-2.742-1.505C38.063,27.284,38.332,27.096,38.54,27.06z"/>
			<path fill-rule="evenodd" clip-rule="evenodd" fill="#AA4D11" d="M38.59,26.594c0.839-0.127,2.642,0.788,2.944,1.586
				c0.039,0.107,0.31,0.589,0.167,0.675c-0.154,0.092-0.399-0.342-0.456-0.429c-0.631-0.891-1.688-1.218-2.726-1.335
				C38.007,27.034,38.197,26.655,38.59,26.594z"/>
			<path fill-rule="evenodd" clip-rule="evenodd" fill="#0079C0" d="M34.38,30.922c2.635,0,5.27,0,7.907,0
				c-0.302,1.611,0.539,3.699-3.083,4.768c-0.642,0-1.284,0-1.926,0C34.6,35.116,34.096,33.086,34.38,30.922z"/>
			<path fill-rule="evenodd" clip-rule="evenodd" fill="#A1CD57" d="M42.407,31.812c-0.138,0.28-1.094,0.051-1.144-0.271
				c-0.079-0.506-0.351-2.491-0.683-0.737c-0.097,0.517-0.038,1.034-0.596,0.332c-0.33-0.408-0.529-2.005-0.836-1.187
				c-0.133,0.358-0.42,1.115-0.481,1.352c-0.293,1.146-0.913-0.271-1.161-1.074c-0.256-0.829-0.455-0.769-0.739,0.106
				c-0.392,1.203-1.548,1.98-2.655,1.98c0.135,0.158,0.289,0.532,0.501,0.532l7.322,0.005c0.54,0,0.558-0.665,0.558-1.038
				C42.463,31.812,42.427,31.807,42.407,31.812z"/>
			<path fill-rule="evenodd" clip-rule="evenodd" fill="#009259" d="M34.373,32.846c0.793,0,7.587,0.148,7.875-0.104
				c-2.91-1.146-2.719,0.216-4.568-0.193C36.02,32.181,35.211,32.604,34.373,32.846z"/>
			<path fill-rule="evenodd" clip-rule="evenodd" fill="#4AAA60" d="M42.322,31.889c-0.348,0.153-1.143-0.062-1.197-0.373
				c-0.031-0.175-0.161-0.951-0.284-1.136c-0.189,0.302,0.123,0.89-0.051,1.171c-0.097,0.159-0.532,0.056-0.89-0.332
				c-0.188-0.21-0.699-2.026-0.622-0.614c0.021,0.343,0.248,0.368,0.121,0.808c-1.76,1.372-1.796-0.618-1.934-1.012
				c-0.022-0.067-0.146-0.41-0.228-0.436c-0.442,0.127-0.151,0.686-0.112,0.896c0.143,0.817-1.354,1.345-2.661,1.391
				c0.092,0.123,0.208,0.267,0.284,0.267c0.215,0,1.263-0.472,2.116-0.528c0.58-0.04,0.8,0.414,1.204,0.486
				c0.404,0.066,1-0.25,1.021-0.267c0.852-0.634,1.941,0.313,2.801,0.313C42.25,32.523,42.312,32.165,42.322,31.889z"/>
			<path fill-rule="evenodd" clip-rule="evenodd" fill="#E39F15" d="M38.606,26.707c0.92-0.139,2.583,0.885,2.818,1.514
				c0.182,0.477,0.42,0.854-0.087,0.138c-0.578-0.813-1.535-1.237-2.806-1.38C38.132,26.932,38.398,26.737,38.606,26.707z"/>
			<path fill-rule="evenodd" clip-rule="evenodd" fill="#AA4D11" d="M38.56,36.313c-0.051-0.542,1.325-0.788,2.333-1.592
				c2.151-1.707-0.015-3.438,0.435-5.565c0.092-0.43-0.297-0.92-0.417-1.13c-0.005-0.011,0.947-0.297,1.325,0.062
				c0.156,0.148-0.217,0.234-0.097,0.419c0.197,0.302,0.496,0.645,0.742,0.901c0.678,0.694,0.171,0.214-0.473,0.316
				c-0.914,0.144-0.77,1.131,0.23,0.988c0.578-0.083,1.18,0.143,1.243,1.027c0.095,1.243-0.399,2.03-1.005,2.623
				c-0.54,0.528-1.269,0.922-2.039,1.403c-0.302,0.193-0.519,0.383-0.703,0.608h-1.53C38.57,36.345,38.555,36.323,38.56,36.313
				L38.56,36.313z M38.028,36.313c0.048-0.542-1.33-0.788-2.335-1.592c-2.151-1.707,0.016-3.438-0.435-5.565
				c-0.092-0.43,0.296-0.92,0.417-1.13c0.007-0.011-0.946-0.297-1.325,0.062c-0.156,0.148,0.218,0.234,0.098,0.419
				c-0.195,0.302-0.497,0.645-0.742,0.901c-0.675,0.694-0.171,0.214,0.478,0.316c0.911,0.144,0.763,1.131-0.235,0.988
				c-0.575-0.083-1.179,0.143-1.243,1.027c-0.095,1.243,0.401,2.03,1.004,2.623c0.541,0.528,1.27,0.922,2.04,1.403
				c0.304,0.193,0.519,0.383,0.703,0.608h1.53C38.018,36.345,38.033,36.323,38.028,36.313z"/>
			<path fill-rule="evenodd" clip-rule="evenodd" fill="#E39F15" d="M38.672,35.782c0.141,0.138,0.795,0.557,0.966,0.572
				c0.325-0.507,0.606-0.835,1.139-1.151c0.665-0.394,1.453-0.787,2.021-1.31c0.711-0.655,1.046-1.391,0.97-2.368
				c-0.054-0.664-0.483-0.951-1.116-0.865c-1.141,0.154-1.337-0.997-0.266-1.156c0.251-0.035,0.402,0.006,0.561,0.036
				c-0.059-0.056-0.121-0.112-0.146-0.143c-0.266-0.256-0.547-0.558-0.757-0.859c-0.135-0.195,0.039-0.286,0.105-0.384
				c-0.212-0.174-0.744-0.148-1.059-0.072c0.202,0.308,0.438,0.645,0.351,1.028c-0.443,1.97,1.749,3.638-0.479,5.301
				c-0.488,0.367-1.034,0.598-1.583,0.854C39.225,35.337,38.69,35.562,38.672,35.782z"/>
			<path fill-rule="evenodd" clip-rule="evenodd" fill="#D28517" d="M41.521,28.829c0.092,0.067,0.43,0.23,0.537,0.256l0.241,0.062
				l-0.202,0.144c-0.491,0.353-0.678,1.259-0.074,1.452c0.721,0.23,1.188-0.184,1.355,0.886c0.133,0.875-0.34,1.733-0.941,2.333
				c-0.865,0.863-2.077,1.345-3.269,1.523l-0.717,0.108l0.645-0.322c0.077-0.042,0.154-0.078,0.233-0.113
				c0.537-0.251,1.084-0.481,1.562-0.839c2.154-1.612-0.018-3.223,0.435-5.233c0.013-0.051,0.015-0.103,0.013-0.152l-0.013-0.241
				L41.521,28.829z"/>
			<path fill="#568EA6" d="M36.966,25.371c-0.31,0.062-0.144,0.287,0.061,0.308c0.568,0.071,1.23,0.035,1.213,0.409
				c-0.023,0.485-1.491,0.096-2.1,0.188l0.02,0.017c0.74,0.686-0.821,0.388-1.179,0.628c-0.051,0.031,0.041-0.117,0.007-0.168
				c-0.036-0.052-0.184-0.042-0.13-0.077c0.269-0.18,0.816-0.194,1.116-0.199c-0.251-0.236-0.118-0.399,0.146-0.45
				c0.539-0.103,1.69,0.103,1.678,0.035c0.072-0.065-0.465-0.052-0.844-0.102c-0.511-0.067-0.644-0.558-0.237-0.742
				c0.803-0.363,2.468-0.363,3.204,0c0.402,0.194,0.277,0.675-0.235,0.742c-0.378,0.05-0.916,0.036-0.847,0.102
				c-0.013,0.067,1.141-0.138,1.681-0.035c0.263,0.051,0.396,0.214,0.146,0.45c0.299,0.005,0.844,0.02,1.115,0.199
				c0.053,0.035-0.098,0.025-0.133,0.077c-0.033,0.051,0.059,0.199,0.01,0.168c-0.358-0.24-1.917,0.058-1.181-0.628l0.021-0.017
				c-0.607-0.093-2.078,0.297-2.098-0.188c-0.018-0.374,0.645-0.338,1.212-0.409c0.205-0.021,0.371-0.246,0.062-0.308
				C38.964,25.232,37.69,25.232,36.966,25.371z"/>
			<path fill="#6DCEF5" d="M36.966,25.182c-0.31,0.062-0.144,0.287,0.061,0.308c0.568,0.07,1.23,0.035,1.213,0.409
				c-0.023,0.486-1.491,0.098-2.1,0.189l0.02,0.021c0.74,0.681-0.821,0.383-1.179,0.624c-0.051,0.03,0.041-0.117,0.007-0.17
				c-0.036-0.051-0.184-0.04-0.13-0.076c0.269-0.179,0.816-0.193,1.116-0.193c-0.251-0.241-0.118-0.4,0.146-0.457
				c0.539-0.102,1.69,0.104,1.678,0.036c0.072-0.065-0.465-0.05-0.844-0.097c-0.511-0.072-0.644-0.563-0.237-0.747
				c0.803-0.362,2.468-0.362,3.204,0c0.402,0.2,0.277,0.675-0.235,0.747c-0.378,0.047-0.916,0.031-0.847,0.097
				c-0.013,0.067,1.141-0.138,1.681-0.036c0.263,0.057,0.396,0.216,0.146,0.457c0.299,0,0.844,0.015,1.115,0.193
				c0.053,0.036-0.098,0.025-0.133,0.076c-0.033,0.053,0.059,0.2,0.01,0.17c-0.358-0.241-1.917,0.057-1.181-0.624l0.021-0.021
				c-0.607-0.092-2.078,0.297-2.098-0.189c-0.018-0.374,0.645-0.339,1.212-0.409c0.205-0.021,0.371-0.246,0.062-0.308
				C38.964,25.044,37.69,25.044,36.966,25.182z"/>
			<polygon fill-rule="evenodd" clip-rule="evenodd" fill="#A1460E" points="36.872,33.54 37.746,33.986 37.963,33.986 37.963,32.4 
				38.048,32.4 38.048,33.986 38.549,33.98 38.549,32.4 38.631,32.4 38.631,33.98 39.133,33.98 39.133,32.4 39.217,32.4 
				39.217,33.98 39.48,33.977 39.342,34.318 37.733,34.299 			"/>
			<path fill-rule="evenodd" clip-rule="evenodd" fill="#FFFFFF" d="M38.235,32.349L38.099,32.4l-0.123,0.051l-0.048,0.092
				l0.271,0.046v0.246l-0.386-0.066l-0.089,0.179l0.48,0.081v0.303l-0.529-0.087v-0.2l-0.379,0.753l-0.376-0.226l0.847-0.91v-0.143
				l0.118,0.02l0.084-0.092l-0.003-0.098l0.003-0.107l0.133,0.057L38.235,32.349L38.235,32.349z M38.25,32.942l0.529,0.086v0.303
				l-0.529-0.087V32.942L38.25,32.942z M37.562,33.337v0.413l0.731,0.123v-0.097l0.576,0.097v-0.092l0.55,0.092v-0.378l-0.667-0.112
				v0.056l-0.614-0.102v0.097L37.562,33.337L37.562,33.337z M38.342,32.519l0.432,0.07v0.246l-0.432-0.072V32.519L38.342,32.519z
				 M38.81,32.349L38.677,32.4l-0.133,0.057v-0.108v-0.107l0.133,0.057L38.81,32.349L38.81,32.349z M38.94,32.636l0.395,0.065v0.226
				L38.94,32.86V32.636L38.94,32.636z M39.365,32.482l-0.12,0.051l-0.123,0.046v-0.097v-0.099l0.123,0.052L39.365,32.482
				L39.365,32.482z M38.856,33.024l0.483,0.082v0.276l-0.483-0.082V33.024z"/>
			<path fill-rule="evenodd" clip-rule="evenodd" fill="#009D45" d="M38.046,27.06c-0.918-0.139-2.581,0.885-2.819,1.515
				c-0.182,0.476-0.351,0.977,0.156,0.261c0.576-0.814,1.466-1.361,2.739-1.505C38.521,27.284,38.255,27.096,38.046,27.06z"/>
			<path fill-rule="evenodd" clip-rule="evenodd" fill="#AA4D11" d="M37.997,26.594c-0.844-0.127-2.645,0.788-2.944,1.586
				c-0.041,0.107-0.312,0.589-0.169,0.675c0.156,0.092,0.396-0.342,0.458-0.429c0.629-0.891,1.686-1.218,2.727-1.335
				C38.58,27.034,38.391,26.655,37.997,26.594z"/>
			<path fill-rule="evenodd" clip-rule="evenodd" fill="#E39F15" d="M37.979,26.707c-0.918-0.139-2.583,0.885-2.819,1.514
				c-0.181,0.477-0.419,0.854,0.087,0.138c0.578-0.813,1.535-1.237,2.808-1.38C38.452,26.932,38.186,26.737,37.979,26.707z"/>
			<path fill-rule="evenodd" clip-rule="evenodd" fill="#E39F15" d="M37.913,35.782c-0.141,0.138-0.795,0.557-0.967,0.572
				c-0.325-0.507-0.606-0.835-1.138-1.151c-0.665-0.394-1.453-0.787-2.021-1.31c-0.711-0.655-1.046-1.391-0.967-2.368
				c0.051-0.664,0.481-0.951,1.113-0.865c1.141,0.154,1.338-0.997,0.266-1.156c-0.25-0.035-0.401,0.006-0.56,0.036
				c0.062-0.056,0.12-0.112,0.148-0.143c0.266-0.256,0.544-0.558,0.757-0.859c0.133-0.195-0.041-0.286-0.107-0.384
				c0.212-0.174,0.747-0.148,1.059-0.072c-0.203,0.308-0.438,0.645-0.351,1.028c0.443,1.97-1.749,3.638,0.479,5.301
				c0.491,0.367,1.036,0.598,1.583,0.854C37.36,35.337,37.895,35.562,37.913,35.782z"/>
			<path fill-rule="evenodd" clip-rule="evenodd" fill="#D28517" d="M35.066,28.829c-0.095,0.067-0.433,0.23-0.538,0.256
				l-0.243,0.062l0.202,0.144c0.491,0.353,0.68,1.259,0.074,1.452c-0.719,0.23-1.189-0.184-1.353,0.886
				c-0.136,0.875,0.337,1.733,0.938,2.333c0.867,0.863,2.077,1.345,3.271,1.523l0.716,0.108l-0.647-0.322
				c-0.077-0.042-0.153-0.078-0.233-0.113c-0.537-0.251-1.084-0.481-1.562-0.839c-2.153-1.612,0.018-3.223-0.435-5.233
				c-0.013-0.051-0.016-0.103-0.013-0.152l0.015-0.241L35.066,28.829z"/>
			<path fill-rule="evenodd" clip-rule="evenodd" fill="#AA4D11" d="M39.015,35.612c0.023,0,0.043-0.005,0.064-0.005
				c0.207,0,0.458,0.117,0.491,0.338c0.194,0.01,0.35,0.174,0.35,0.373c0,0.21-0.168,0.379-0.373,0.379h-2.456
				c-0.207,0-0.374-0.169-0.374-0.379c0-0.204,0.167-0.373,0.374-0.373h0.021c0.03-0.221,0.281-0.338,0.488-0.338
				c0.021,0,0.041,0.005,0.064,0.005c0.184-0.143,0.445-0.204,0.675-0.204S38.831,35.47,39.015,35.612z"/>
			<path fill-rule="evenodd" clip-rule="evenodd" fill="#E39F15" d="M38.34,35.525c0.268,0,0.501,0.082,0.642,0.21
				c0.031-0.011,0.063-0.011,0.097-0.011c0.209,0,0.378,0.123,0.378,0.271c0,0.021-0.005,0.041-0.013,0.062h0.103
				c0.14,0,0.258,0.117,0.258,0.261l0,0c0,0.144-0.118,0.262-0.258,0.262h-2.456c-0.143,0-0.258-0.118-0.258-0.262l0,0
				c0-0.144,0.115-0.261,0.258-0.261h0.144c-0.008-0.021-0.014-0.041-0.014-0.062c0-0.148,0.169-0.271,0.379-0.271
				c0.033,0,0.066,0,0.1,0.011C37.838,35.607,38.074,35.525,38.34,35.525z"/>
			<path fill-rule="evenodd" clip-rule="evenodd" fill="#AA4D11" d="M39.071,36.697h-1.535l-0.021-0.092
				c-0.013-0.047-0.018-0.093-0.018-0.139c0-0.424,0.412-0.695,0.806-0.695c0.395,0,0.806,0.271,0.806,0.695
				c0,0.046-0.007,0.092-0.018,0.139L39.071,36.697z"/>
			<path fill-rule="evenodd" clip-rule="evenodd" fill="#E39F15" d="M38.979,36.58h-1.353c-0.007-0.036-0.013-0.078-0.013-0.113
				c0-0.317,0.31-0.578,0.69-0.578c0.382,0,0.691,0.261,0.691,0.578C38.995,36.502,38.989,36.544,38.979,36.58z"/>
			<path fill-rule="evenodd" clip-rule="evenodd" fill="#AA4D11" d="M37.861,27.325c-0.007,0-0.013,0-0.018,0
				c-0.192,0-0.338-0.153-0.364-0.338c-0.174-0.02-0.26-0.215-0.26-0.372c0-0.17,0.097-0.379,0.289-0.379h1.622
				c0.192,0,0.287,0.209,0.287,0.379c0,0.147-0.077,0.332-0.232,0.367c-0.021,0.184-0.169,0.343-0.363,0.343
				c-0.005,0-0.011,0-0.016,0c-0.123,0.128-0.294,0.199-0.473,0.199S37.981,27.453,37.861,27.325z"/>
			<path fill-rule="evenodd" clip-rule="evenodd" fill="#E39F15" d="M38.332,27.407c0.177,0,0.333-0.082,0.425-0.21
				c0.021,0.005,0.043,0.011,0.064,0.011c0.138,0,0.25-0.123,0.25-0.271c0-0.02-0.002-0.046-0.008-0.066h0.066
				c0.095,0,0.171-0.112,0.171-0.255l0,0c0-0.144-0.077-0.262-0.171-0.262h-1.622c-0.095,0-0.171,0.118-0.171,0.262l0,0
				c0,0.143,0.076,0.255,0.171,0.255h0.095c-0.005,0.021-0.01,0.047-0.01,0.066c0,0.148,0.113,0.271,0.251,0.271
				c0.023,0,0.046-0.006,0.066-0.011C38.002,27.325,38.155,27.407,38.332,27.407z"/>
			<path fill-rule="evenodd" clip-rule="evenodd" fill="#DBDCDD" d="M36.82,27.494c-0.501,0.215-0.972,0.9-1.506,0.927
				c-0.164,0.005-0.368-0.148-0.532-0.138c-0.274,0.081-0.612,0.597-0.74,1.001c0.22-0.193,0.491-0.46,0.722-0.373
				c0.092,0.031,0.585,0.103,0.673,0.103c0.567-0.021,1.002-0.701,1.491-0.932c0.537-0.25,2.246-0.25,2.78,0
				c0.489,0.23,0.926,0.911,1.491,0.932c0.087,0,0.583-0.071,0.675-0.103c0.228-0.087,0.499,0.18,0.722,0.373
				c-0.128-0.404-0.466-0.92-0.742-1.001c-0.164-0.011-0.368,0.143-0.532,0.138c-0.532-0.026-1.002-0.712-1.504-0.927
				C39.153,27.208,37.483,27.208,36.82,27.494z"/>
			<path fill-rule="evenodd" clip-rule="evenodd" fill="#F1F1F2" d="M36.82,27.494c-0.501,0.215-0.972,0.9-1.506,0.927
				c-0.161,0.005-0.368-0.148-0.532-0.138c-0.213,0.06-0.466,0.387-0.627,0.72c0.197-0.174,0.417-0.348,0.606-0.271
				c0.095,0.03,0.591,0.103,0.678,0.097c0.562-0.015,1-0.695,1.488-0.926c0.537-0.251,2.246-0.251,2.78,0
				c0.489,0.23,0.926,0.911,1.491,0.926c0.087,0.006,0.581-0.066,0.675-0.097c0.192-0.077,0.41,0.097,0.606,0.271
				c-0.161-0.333-0.412-0.66-0.627-0.72c-0.161-0.011-0.368,0.143-0.529,0.138c-0.535-0.026-1.005-0.712-1.507-0.927
				C39.153,27.202,37.483,27.202,36.82,27.494z"/>
			<path fill-rule="evenodd" clip-rule="evenodd" fill="#FFCE01" d="M35.879,30.185c0.328,0,0.596,0.266,0.596,0.589
				c0,0.051-0.008,0.097-0.021,0.148h-1.154c-0.013-0.052-0.021-0.098-0.021-0.148C35.28,30.45,35.546,30.185,35.879,30.185z"/>
			<path fill-rule="evenodd" clip-rule="evenodd" fill="#FFFFFF" d="M35.876,29.142l0.056,0.179h0.187l-0.151,0.107l0.059,0.179
				l-0.151-0.111l-0.151,0.111l0.057-0.179l-0.148-0.107h0.184L35.876,29.142L35.876,29.142z M39.153,28.532l-0.056,0.18H38.91
				l0.15,0.106l-0.056,0.175l0.148-0.107l0.151,0.107l-0.059-0.175l0.151-0.106h-0.187L39.153,28.532L39.153,28.532z M39.956,28.748
				L39.9,28.922h-0.185l0.148,0.112l-0.056,0.174l0.148-0.108l0.151,0.108l-0.056-0.174l0.15-0.112h-0.187L39.956,28.748
				L39.956,28.748z M40.762,29.142l-0.059,0.179h-0.184l0.151,0.107l-0.059,0.179l0.151-0.111l0.15,0.111l-0.059-0.179l0.151-0.107
				h-0.187L40.762,29.142L40.762,29.142z M38.299,28.445l0.059,0.179h0.187l-0.151,0.108l0.059,0.179l-0.153-0.113l-0.148,0.113
				l0.057-0.179l-0.149-0.108h0.185L38.299,28.445L38.299,28.445z M37.485,28.532l0.057,0.18h0.187l-0.151,0.106l0.057,0.175
				l-0.148-0.107l-0.151,0.107l0.057-0.175l-0.151-0.106h0.187L37.485,28.532L37.485,28.532z M36.68,28.748l0.059,0.174h0.184
				l-0.148,0.112l0.056,0.174L36.68,29.1l-0.151,0.108l0.059-0.174l-0.151-0.112h0.187L36.68,28.748z"/>
		</g>
	</g>
</g>
</svg>
