<?xml version="1.0" encoding="utf-8"?>
<!-- Generator: Adobe Illustrator 15.0.0, SVG Export Plug-In . SVG Version: 6.00 Build 0)  -->
<!DOCTYPE svg PUBLIC "-//W3C//DTD SVG 1.1//EN" "http://www.w3.org/Graphics/SVG/1.1/DTD/svg11.dtd">
<svg version="1.1" id="Layer_1" xmlns="http://www.w3.org/2000/svg" xmlns:xlink="http://www.w3.org/1999/xlink" x="0px" y="0px"
	 width="121.739px" height="65.218px" viewBox="0 0 121.739 65.218" enable-background="new 0 0 121.739 65.218"
	 xml:space="preserve">
<g>
	<rect x="12.374" y="4.624" fill-rule="evenodd" clip-rule="evenodd" fill="#231F20" width="99.75" height="52.88"/>
	<rect x="13.25" y="5.504" fill-rule="evenodd" clip-rule="evenodd" fill="#FFFFFF" width="97.994" height="51.119"/>
	<path fill-rule="evenodd" clip-rule="evenodd" fill="#D8E1E7" d="M35.188,5.504H23.911l3.727,0.323l-7.607,0.659l7.607,0.655
		l-7.607,0.659l7.607,0.655l-7.607,0.66l7.607,0.659l-7.607,0.654l7.607,0.66l-7.607,0.655l7.607,0.66l-7.607,0.659l7.607,0.655
		l-7.607,0.66l7.607,0.654l-7.607,0.655l7.607,0.66l-7.607,0.66l7.607,0.654l-7.607,0.66l7.607,0.66l-7.607,0.654l7.607,0.655
		l-7.607,0.659l7.607,0.66l-7.607,0.654l7.607,0.661l-7.607,0.66l7.607,0.653l-7.607,0.655l7.607,0.66l-7.607,0.66l7.607,0.66
		l-7.607,0.655l7.607,0.659l-7.607,0.653l7.607,0.66l-7.607,0.655l7.607,0.66l-7.607,0.654l7.607,0.659l-7.607,0.661l7.607,0.654
		l-7.607,0.66l7.607,0.655l-7.607,0.659l7.607,0.66l-7.607,0.654l7.607,0.655l-7.607,0.66l7.607,0.659l-7.607,0.655l7.607,0.66
		l-7.607,0.654l7.607,0.66l-7.607,0.66l7.607,0.654l-7.607,0.66l7.607,0.655l-7.607,0.66l7.607,0.654l-7.607,0.659l7.607,0.66
		l-7.607,0.655l7.607,0.66l-7.607,0.655l7.607,0.654l-7.607,0.659l7.607,0.66l-7.607,0.66l7.607,0.655l-7.607,0.66l7.607,0.654
		l-7.607,0.659l7.607,0.654l-7.607,0.66l7.607,0.661l-7.607,0.654l1.77,0.152h15.495l1.77-0.152l-7.607-0.654l7.607-0.661
		l-7.607-0.66l7.607-0.654l-7.607-0.659l7.607-0.654l-7.607-0.66l7.607-0.655l-7.607-0.66l7.607-0.66l-7.607-0.659l7.607-0.654
		l-7.607-0.655l7.607-0.66l-7.607-0.655l7.607-0.66l-7.607-0.659l7.607-0.654l-7.607-0.66l7.607-0.655l-7.607-0.66l7.607-0.654
		l-7.607-0.66l7.607-0.66l-7.607-0.654l7.607-0.66l-7.607-0.655l7.607-0.659l-7.607-0.66l7.607-0.655l-7.607-0.654l7.607-0.66
		l-7.607-0.659l7.607-0.655l-7.607-0.66l7.607-0.654l-7.607-0.661l7.607-0.659l-7.607-0.654l7.607-0.66l-7.607-0.655l7.607-0.66
		l-7.607-0.653l7.607-0.659l-7.607-0.655l7.607-0.66l-7.607-0.66l7.607-0.66l-7.607-0.655l7.607-0.653l-7.607-0.66l7.607-0.661
		l-7.607-0.654l7.607-0.66l-7.607-0.659l7.607-0.655l-7.607-0.654l7.607-0.66l-7.607-0.66l7.607-0.654l-7.607-0.66l7.607-0.66
		l-7.607-0.655l7.607-0.654l-7.607-0.66l7.607-0.655l-7.607-0.659l7.607-0.66l-7.607-0.655l7.607-0.66l-7.607-0.654l7.607-0.659
		l-7.607-0.66l7.607-0.655l-7.607-0.659l7.607-0.655l-7.607-0.659L35.188,5.504L35.188,5.504z M100.585,5.504H89.31l3.727,0.323
		l-7.607,0.659l7.607,0.655l-7.607,0.659l7.607,0.655l-7.607,0.66l7.607,0.659l-7.607,0.654l7.607,0.66l-7.607,0.655l7.607,0.66
		l-7.607,0.659l7.607,0.655l-7.607,0.66l7.607,0.654l-7.607,0.655l7.607,0.66l-7.607,0.66l7.607,0.654l-7.607,0.66l7.607,0.66
		l-7.607,0.654l7.607,0.655l-7.607,0.659l7.607,0.66l-7.607,0.654l7.607,0.661l-7.605,0.66l7.605,0.653l-7.607,0.655l7.607,0.66
		l-7.607,0.66l7.607,0.66l-7.607,0.655l7.607,0.659l-7.607,0.653l7.607,0.66l-7.607,0.655l7.607,0.66l-7.607,0.654l7.607,0.659
		l-7.607,0.661l7.607,0.654l-7.607,0.66l7.607,0.655l-7.607,0.659l7.607,0.66l-7.607,0.654l7.607,0.655l-7.607,0.66l7.607,0.659
		l-7.607,0.655l7.607,0.66l-7.607,0.654l7.607,0.66l-7.607,0.66l7.607,0.654l-7.607,0.66l7.607,0.655l-7.607,0.66l7.607,0.654
		l-7.607,0.659l7.607,0.66l-7.607,0.655l7.607,0.66l-7.607,0.655l7.607,0.654l-7.607,0.659l7.607,0.66l-7.607,0.66l7.607,0.655
		l-7.607,0.66l7.607,0.654l-7.607,0.659l7.607,0.654l-7.607,0.66l7.607,0.661l-7.607,0.654l1.77,0.152h15.496l1.77-0.152
		l-7.604-0.654l7.604-0.661l-7.604-0.66l7.604-0.654l-7.604-0.659l7.604-0.654l-7.604-0.66l7.604-0.655l-7.604-0.66l7.604-0.66
		l-7.604-0.659l7.604-0.654l-7.604-0.655l7.604-0.66l-7.604-0.655l7.604-0.66l-7.604-0.659l7.604-0.654l-7.604-0.66l7.604-0.655
		l-7.604-0.66l7.604-0.654l-7.604-0.66l7.604-0.66l-7.604-0.654l7.604-0.66l-7.604-0.655l7.604-0.659l-7.604-0.66l7.604-0.655
		l-7.604-0.654l7.604-0.66l-7.604-0.659l7.604-0.655l-7.604-0.66l7.604-0.654l-7.604-0.661l7.604-0.659l-7.604-0.654l7.604-0.66
		l-7.604-0.655l7.604-0.66l-7.604-0.653l7.604-0.659l-7.604-0.655l7.604-0.66l-7.604-0.66l7.604-0.66l-7.604-0.655l7.604-0.653
		l-7.604-0.66l7.604-0.661l-7.604-0.654l7.604-0.66l-7.604-0.659l7.604-0.655l-7.604-0.654l7.604-0.66l-7.604-0.66l7.604-0.654
		l-7.604-0.66l7.604-0.66l-7.604-0.655l7.604-0.654l-7.604-0.66l7.604-0.655l-7.604-0.659l7.604-0.66l-7.604-0.655l7.604-0.66
		l-7.604-0.654l7.604-0.659l-7.604-0.66l7.606-0.655l-7.606-0.659l7.604-0.655l-7.604-0.659L100.585,5.504L100.585,5.504z
		 M67.888,5.504H56.61l3.727,0.323L52.73,6.486l7.606,0.655L52.73,7.801l7.606,0.655l-7.606,0.66l7.606,0.659L52.73,10.43
		l7.606,0.66l-7.606,0.655l7.606,0.66l-7.606,0.659l7.606,0.655l-7.606,0.66l7.606,0.654l-7.606,0.655l7.606,0.66l-7.606,0.66
		l7.606,0.654l-7.606,0.66l7.606,0.66l-7.606,0.654l7.606,0.655l-7.606,0.659l7.606,0.66l-7.606,0.654l7.606,0.661l-7.606,0.66
		l7.606,0.653l-7.606,0.655l7.606,0.66l-7.606,0.66l7.606,0.66l-7.606,0.655l7.606,0.659l-7.606,0.653l7.606,0.66l-7.606,0.655
		l7.606,0.66l-7.606,0.654l7.606,0.659l-7.606,0.661l7.606,0.654l-7.606,0.66l7.606,0.655l-7.606,0.659l7.606,0.66l-7.606,0.654
		l7.606,0.655l-7.606,0.66l7.606,0.659l-7.606,0.655l7.606,0.66l-7.606,0.654l7.606,0.66l-7.606,0.66l7.606,0.654l-7.606,0.66
		l7.606,0.655l-7.606,0.66l7.606,0.654l-7.606,0.659l7.606,0.66l-7.606,0.655l7.606,0.66l-7.606,0.655l7.606,0.654l-7.606,0.659
		l7.606,0.66l-7.606,0.66l7.606,0.655l-7.606,0.66l7.606,0.654l-7.606,0.659l7.606,0.654l-7.606,0.66l7.606,0.661l-7.606,0.654
		l1.77,0.152h15.497l1.768-0.152l-7.604-0.654l7.604-0.661l-7.604-0.66l7.604-0.654l-7.604-0.659l7.604-0.654l-7.604-0.66
		l7.604-0.655l-7.604-0.66l7.605-0.66l-7.605-0.659l7.604-0.654l-7.604-0.655l7.604-0.66l-7.604-0.655l7.604-0.66l-7.604-0.659
		l7.604-0.654l-7.604-0.66l7.604-0.655l-7.604-0.66l7.605-0.654l-7.605-0.66l7.604-0.66l-7.604-0.654l7.604-0.66l-7.604-0.655
		l7.605-0.659l-7.605-0.66l7.605-0.655l-7.605-0.654l7.604-0.66l-7.606-0.659l7.606-0.655l-7.604-0.66l7.604-0.654l-7.604-0.661
		l7.604-0.659l-7.604-0.654l7.605-0.66l-7.605-0.655l7.604-0.66l-7.604-0.653l7.605-0.659l-7.605-0.655l7.605-0.66l-7.608-0.66
		l7.606-0.66l-7.604-0.655l7.605-0.653l-7.605-0.66l7.604-0.661l-7.604-0.654l7.604-0.66l-7.604-0.659l7.604-0.655l-7.604-0.654
		l7.605-0.66l-7.608-0.66l7.608-0.654l-7.605-0.66l7.604-0.66l-7.604-0.655l7.604-0.654l-7.606-0.66l7.606-0.655l-7.604-0.659
		l7.605-0.66l-7.605-0.655l7.604-0.66l-7.604-0.654l7.604-0.659l-7.604-0.66l7.605-0.655l-7.605-0.659l7.604-0.655l-7.604-0.659
		L67.888,5.504z"/>
	<polygon fill-rule="evenodd" clip-rule="evenodd" fill="#EC1C24" points="68.524,5.504 55.973,5.504 55.973,24.789 13.253,24.789 
		13.253,37.344 55.973,37.344 55.973,56.623 68.524,56.623 68.524,37.344 111.244,37.344 111.244,24.789 68.524,24.789 	"/>
	<path fill-rule="evenodd" clip-rule="evenodd" fill="#B01117" d="M67.888,5.504H56.61l3.727,0.323l-4.363,0.378v0.558l4.363,0.379
		L55.973,7.52v0.563l4.363,0.373l-4.363,0.378v0.563l4.363,0.378l-4.363,0.374v0.562l4.363,0.378l-4.363,0.375v0.562l4.363,0.378
		l-4.363,0.379v0.558l4.363,0.378l-4.363,0.379v0.558l4.363,0.378l-4.363,0.379v0.558l4.363,0.379l-4.363,0.379v0.562l4.363,0.374
		l-4.363,0.379v0.562l4.363,0.379l-4.363,0.373v0.562l4.363,0.374l-4.363,0.379v0.562l4.363,0.379l-4.363,0.379v0.558l4.363,0.379
		l-4.363,0.377v0.558l4.363,0.379l-4.363,0.379v0.168h-1.944l-1.299,0.108l7.606,0.66l-7.606,0.66l7.606,0.66l-7.606,0.655
		l7.606,0.659l-7.606,0.653l7.606,0.66l-7.606,0.655l7.606,0.66l-7.606,0.654l7.606,0.659l-7.606,0.661l7.606,0.654l-7.606,0.66
		l7.606,0.655l-7.606,0.659l7.606,0.66l-7.606,0.654l7.606,0.655l-4.363,0.379v0.562l4.363,0.379l-4.363,0.38v0.557l4.363,0.379
		l-4.363,0.378v0.558l4.363,0.379l-4.363,0.379v0.557l4.363,0.379l-4.363,0.38V43.6l4.363,0.374l-4.363,0.378v0.559l4.363,0.378
		l-4.363,0.379v0.562l4.363,0.378l-4.363,0.375v0.562l4.363,0.379l-4.363,0.372v0.563l4.363,0.374l-4.363,0.378v0.563l4.363,0.378
		l-4.363,0.378v0.559l4.363,0.379l-4.363,0.378v0.562l4.363,0.374l-4.363,0.378v0.563l4.363,0.372l-4.363,0.379v0.563l4.363,0.379
		l-4.363,0.373v0.434h12.551v-0.434l-4.363-0.373l4.363-0.379v-0.563l-4.363-0.379l4.363-0.372V53.56l-4.363-0.378l4.363-0.374
		v-0.562l-4.363-0.378l4.363-0.379V50.93l-4.363-0.378l4.363-0.378V49.61l-4.363-0.378l4.363-0.374v-0.563l-4.363-0.372l4.363-0.379
		v-0.562l-4.363-0.375l4.363-0.378v-0.562l-4.363-0.379l4.363-0.378v-0.559l-4.363-0.378l4.363-0.374v-0.562l-4.363-0.38
		l4.363-0.379v-0.557l-4.363-0.379l4.363-0.379v-0.558l-4.363-0.378l4.363-0.379v-0.557l-4.363-0.38l4.363-0.379v-0.562
		l-4.363-0.379l7.605-0.655l-7.605-0.654l7.604-0.66l-7.606-0.659l7.606-0.655l-7.604-0.66l7.604-0.654l-7.604-0.661l7.604-0.659
		l-7.604-0.654l7.605-0.66l-7.605-0.655l7.604-0.66l-7.604-0.653l7.605-0.659l-7.605-0.655l7.605-0.66l-7.608-0.66l7.606-0.66
		l-1.297-0.108h-1.943v-0.168l-4.363-0.379l4.363-0.379v-0.558l-4.363-0.377l4.363-0.379v-0.558l-4.363-0.379l4.363-0.379v-0.562
		l-4.363-0.379l4.363-0.374v-0.562l-4.363-0.373l4.363-0.379v-0.562l-4.366-0.379l4.366-0.374v-0.562l-4.363-0.379l4.363-0.379
		v-0.558l-4.363-0.379l4.363-0.378v-0.558l-4.366-0.379l4.366-0.378v-0.558l-4.363-0.379l4.363-0.378v-0.562l-4.363-0.375
		l4.363-0.378v-0.562l-4.363-0.374l4.363-0.378V8.834l-4.363-0.378l4.363-0.373V7.52l-4.363-0.378l4.363-0.379V6.205l-4.363-0.378
		L67.888,5.504L67.888,5.504z M86.728,24.789l-1.299,0.108l7.607,0.66l-7.607,0.66l7.607,0.66l-7.607,0.655l7.607,0.659
		l-7.607,0.653l7.607,0.66l-7.607,0.655l7.607,0.66l-7.607,0.654l7.607,0.659l-7.607,0.661l7.607,0.654l-7.607,0.66l7.607,0.655
		l-7.607,0.659l7.607,0.66l-7.607,0.654l6.965,0.604h5.107l6.963-0.604l-7.604-0.654l7.604-0.66l-7.604-0.659l7.604-0.655
		l-7.604-0.66l7.604-0.654l-7.604-0.661l7.604-0.659l-7.604-0.654l7.604-0.66l-7.604-0.655l7.604-0.66l-7.604-0.653l7.604-0.659
		l-7.604-0.655l7.604-0.66l-7.604-0.66l7.604-0.66l-1.297-0.108H86.728L86.728,24.789z M21.33,24.789l-1.299,0.108l7.607,0.66
		l-7.607,0.66l7.607,0.66l-7.607,0.655l7.607,0.659l-7.607,0.653l7.607,0.66l-7.607,0.655l7.607,0.66l-7.607,0.654l7.607,0.659
		l-7.607,0.661l7.607,0.654l-7.607,0.66l7.607,0.655l-7.607,0.659l7.607,0.66l-7.607,0.654l6.965,0.604h5.108l6.962-0.604
		l-7.607-0.654l7.607-0.66l-7.607-0.659l7.607-0.655l-7.607-0.66l7.607-0.654l-7.607-0.661l7.607-0.659l-7.607-0.654l7.607-0.66
		l-7.607-0.655l7.607-0.66l-7.607-0.653l7.607-0.659l-7.607-0.655l7.607-0.66l-7.607-0.66l7.607-0.66l-1.296-0.108H21.33z"/>
</g>
</svg>
