<?xml version="1.0" encoding="utf-8"?>
<!-- Generator: Adobe Illustrator 15.0.0, SVG Export Plug-In . SVG Version: 6.00 Build 0)  -->
<!DOCTYPE svg PUBLIC "-//W3C//DTD SVG 1.1//EN" "http://www.w3.org/Graphics/SVG/1.1/DTD/svg11.dtd">
<svg version="1.1" id="Layer_1" xmlns="http://www.w3.org/2000/svg" xmlns:xlink="http://www.w3.org/1999/xlink" x="0px" y="0px"
	 width="121.739px" height="65.218px" viewBox="0 0 121.739 65.218" enable-background="new 0 0 121.739 65.218"
	 xml:space="preserve">
<g>
	<rect x="12.371" y="4.385" fill-rule="evenodd" clip-rule="evenodd" fill="#231F20" width="99.753" height="52.875"/>
	<g>
		<rect x="13.25" y="5.261" fill-rule="evenodd" clip-rule="evenodd" fill="#C5161D" width="97.997" height="51.117"/>
		<path fill-rule="evenodd" clip-rule="evenodd" fill="#A30D11" d="M26.451,56.378h6.195l6.42-0.557l-7.607-0.657l7.607-0.659
			l-7.607-0.657l7.607-0.663l-7.607-0.658l7.607-0.656l-7.607-0.663l7.607-0.657l-7.607-0.66l7.607-0.657l-7.607-0.659l7.607-0.66
			l-7.607-0.66l7.607-0.658l-7.607-0.659l7.607-0.657l-7.607-0.66l7.607-0.66L31.459,43.3l7.607-0.66l-7.607-0.66l7.607-0.66
			l-7.607-0.657l7.607-0.657l-7.607-0.66l7.607-0.66l-7.607-0.66l7.607-0.659l-7.607-0.66l7.607-0.655l-7.607-0.663l7.607-0.656
			l-7.607-0.66l7.607-0.66l-7.607-0.66l7.607-0.656l-7.607-0.66l7.607-0.66l-7.607-0.658l7.607-0.66l-7.607-0.659l7.607-0.66
			l-7.607-0.657l7.607-0.66l-7.607-0.657l7.607-0.661l-7.607-0.659l7.607-0.66l-7.607-0.658l7.607-0.66l-7.607-0.657l7.607-0.66
			l-7.607-0.658l7.607-0.659l-7.607-0.66l7.607-0.66l-7.607-0.659l7.607-0.66l-7.607-0.657l7.607-0.657l-7.607-0.663l7.607-0.659
			l-7.607-0.657l7.607-0.661l-7.607-0.66l7.607-0.654l-7.607-0.662l7.607-0.657l-7.607-0.66l7.607-0.66L31.459,9.02l7.607-0.66
			l-7.607-0.654l7.607-0.664l-7.607-0.655l7.607-0.663l-5.31-0.462h-8.412l-5.312,0.462l7.607,0.663l-7.607,0.655l7.607,0.664
			l-7.607,0.654l7.607,0.66l-7.607,0.659l7.607,0.66l-7.607,0.66l7.607,0.657l-7.607,0.662l7.607,0.654l-7.607,0.66l7.607,0.661
			l-7.607,0.657l7.607,0.659l-7.607,0.663l7.607,0.657l-7.607,0.657l7.607,0.66l-7.607,0.659l7.607,0.66l-7.607,0.66l7.607,0.659
			l-7.607,0.658l7.607,0.66l-7.607,0.657l7.607,0.66l-7.607,0.658l7.607,0.66L20.031,25.5l7.607,0.661l-7.607,0.657l7.607,0.66
			l-7.607,0.657l7.607,0.66l-7.607,0.659l7.607,0.66l-7.607,0.658l7.607,0.66l-7.607,0.66l7.607,0.656l-7.607,0.66l7.607,0.66
			l-7.607,0.66l7.607,0.656l-7.607,0.663l7.607,0.655l-7.607,0.66l7.607,0.659l-7.607,0.66l7.607,0.66l-7.607,0.66l7.607,0.657
			l-7.607,0.657l7.607,0.66l-7.607,0.66l7.607,0.66l-7.607,0.658l7.607,0.66l-7.607,0.66l7.607,0.657l-7.607,0.659l7.607,0.658
			l-7.607,0.66l7.607,0.66l-7.607,0.659l7.607,0.657l-7.607,0.66l7.607,0.657l-7.607,0.663l7.607,0.656l-7.607,0.658l7.607,0.663
			l-7.607,0.657l7.607,0.659l-7.607,0.657L26.451,56.378L26.451,56.378z M59.15,56.378h6.195l6.422-0.557l-7.605-0.657l7.604-0.659
			l-7.604-0.657l7.604-0.663l-7.604-0.658l7.604-0.656l-7.604-0.663l7.604-0.657l-7.604-0.66l7.604-0.657l-7.604-0.659l7.604-0.66
			l-7.604-0.66l7.604-0.658l-7.604-0.659l7.605-0.657l-7.605-0.66l7.604-0.66L64.161,43.3l7.604-0.66l-7.604-0.66l7.605-0.66
			l-7.605-0.657l7.604-0.657l-7.604-0.66l7.604-0.66l-7.604-0.66l7.604-0.659l-7.604-0.66l7.604-0.655l-7.604-0.663l7.604-0.656
			l-7.604-0.66l7.605-0.66l-7.605-0.66l7.604-0.656l-7.604-0.66l7.604-0.66l-7.604-0.658l7.604-0.66l-7.604-0.659l7.604-0.66
			l-7.604-0.657l7.604-0.66l-7.604-0.657l7.605-0.661l-7.605-0.659l7.604-0.66l-7.604-0.658l7.604-0.66l-7.604-0.657l7.605-0.66
			l-7.605-0.658l7.605-0.659l-7.605-0.66l7.604-0.66l-7.604-0.659l7.604-0.66l-7.604-0.657l7.604-0.657l-7.604-0.663l7.604-0.659
			l-7.604-0.657l7.605-0.661l-7.605-0.66l7.604-0.654l-7.604-0.662l7.605-0.657l-7.605-0.66l7.605-0.66L64.161,9.02l7.604-0.66
			l-7.604-0.654l7.605-0.664l-7.605-0.655l7.604-0.663l-5.31-0.462h-8.413L52.73,5.723l7.606,0.663L52.73,7.041l7.606,0.664
			L52.73,8.359l7.606,0.66L52.73,9.679l7.606,0.66l-7.606,0.66l7.606,0.657l-7.606,0.662l7.606,0.654l-7.606,0.66l7.606,0.661
			l-7.606,0.657l7.606,0.659l-7.606,0.663l7.606,0.657l-7.606,0.657l7.606,0.66l-7.606,0.659l7.606,0.66l-7.606,0.66l7.606,0.659
			l-7.606,0.658l7.606,0.66l-7.606,0.657l7.606,0.66l-7.606,0.658l7.606,0.66L52.73,25.5l7.606,0.661l-7.606,0.657l7.606,0.66
			l-7.606,0.657l7.606,0.66l-7.606,0.659l7.606,0.66l-7.606,0.658l7.606,0.66l-7.606,0.66l7.606,0.656l-7.606,0.66l7.606,0.66
			l-7.606,0.66l7.606,0.656L52.73,36.05l7.606,0.655l-7.606,0.66l7.606,0.659l-7.606,0.66l7.606,0.66l-7.606,0.66l7.606,0.657
			l-7.606,0.657l7.606,0.66l-7.606,0.66l7.606,0.66l-7.606,0.658l7.606,0.66l-7.606,0.66l7.606,0.657l-7.606,0.659l7.606,0.658
			l-7.606,0.66l7.606,0.66l-7.606,0.659l7.606,0.657l-7.606,0.66l7.606,0.657L52.73,51.87l7.606,0.656l-7.606,0.658l7.606,0.663
			l-7.606,0.657l7.606,0.659l-7.606,0.657L59.15,56.378L59.15,56.378z M91.851,56.378h6.195l6.42-0.557l-7.606-0.657l7.604-0.659
			l-7.604-0.657l7.604-0.663l-7.604-0.658l7.604-0.656l-7.604-0.663l7.604-0.657l-7.604-0.66l7.604-0.657l-7.604-0.659l7.604-0.66
			l-7.604-0.66l7.604-0.658l-7.604-0.659l7.606-0.657l-7.606-0.66l7.604-0.66L96.859,43.3l7.604-0.66l-7.604-0.66l7.606-0.66
			l-7.606-0.657l7.604-0.657l-7.604-0.66l7.604-0.66l-7.604-0.66l7.604-0.659l-7.604-0.66l7.604-0.655l-7.604-0.663l7.604-0.656
			l-7.604-0.66l7.606-0.66l-7.606-0.66l7.604-0.656l-7.604-0.66l7.604-0.66l-7.604-0.658l7.604-0.66l-7.604-0.659l7.604-0.66
			l-7.604-0.657l7.604-0.66l-7.604-0.657l7.606-0.661l-7.606-0.659l7.604-0.66l-7.604-0.658l7.604-0.66l-7.604-0.657l7.606-0.66
			l-7.606-0.658l7.606-0.659l-7.606-0.66l7.604-0.66l-7.604-0.659l7.604-0.66l-7.604-0.657l7.604-0.657l-7.604-0.663l7.604-0.659
			l-7.604-0.657l7.606-0.661l-7.606-0.66l7.604-0.654l-7.604-0.662l7.606-0.657l-7.606-0.66l7.606-0.66L96.859,9.02l7.604-0.66
			l-7.604-0.654l7.606-0.664l-7.606-0.655l7.604-0.663l-5.311-0.462h-8.412l-5.312,0.462l7.607,0.663l-7.605,0.655l7.605,0.664
			l-7.607,0.654l7.607,0.66l-7.607,0.659l7.607,0.66l-7.607,0.66l7.607,0.657l-7.607,0.662l7.607,0.654l-7.607,0.66l7.607,0.661
			l-7.607,0.657l7.607,0.659l-7.607,0.663l7.607,0.657l-7.607,0.657l7.607,0.66l-7.607,0.659l7.607,0.66l-7.607,0.66l7.607,0.659
			l-7.607,0.658l7.607,0.66l-7.607,0.657l7.607,0.66l-7.607,0.658l7.607,0.66L85.429,25.5l7.607,0.661l-7.607,0.657l7.607,0.66
			l-7.607,0.657l7.607,0.66l-7.607,0.659l7.607,0.66l-7.607,0.658l7.607,0.66l-7.607,0.66l7.607,0.656l-7.607,0.66l7.607,0.66
			l-7.607,0.66l7.607,0.656l-7.607,0.663l7.607,0.655l-7.607,0.66l7.607,0.659l-7.607,0.66l7.607,0.66l-7.607,0.66l7.607,0.657
			l-7.607,0.657l7.607,0.66l-7.607,0.66l7.607,0.66l-7.607,0.658l7.607,0.66l-7.607,0.66l7.607,0.657l-7.607,0.659l7.607,0.658
			l-7.607,0.66l7.607,0.66l-7.607,0.659l7.607,0.657l-7.607,0.66l7.607,0.657l-7.607,0.663l7.607,0.656l-7.607,0.658l7.607,0.663
			l-7.607,0.657l7.607,0.659l-7.607,0.657L91.851,56.378z"/>
		<rect x="13.25" y="18.104" fill-rule="evenodd" clip-rule="evenodd" fill="#FFD224" width="97.997" height="25.435"/>
		<path fill-rule="evenodd" clip-rule="evenodd" fill="#EBAC13" d="M24.865,43.539h9.369L31.459,43.3l7.607-0.66l-7.607-0.66
			l7.607-0.66l-7.607-0.657l7.607-0.657l-7.607-0.66l7.607-0.66l-7.607-0.66l7.607-0.659l-7.607-0.66l7.607-0.655l-7.607-0.663
			l7.607-0.656l-7.607-0.66l7.607-0.66l-7.607-0.66l7.607-0.656l-7.607-0.66l7.607-0.66l-7.607-0.658l7.607-0.66l-7.607-0.659
			l7.607-0.66l-7.607-0.657l7.607-0.66l-7.607-0.657l7.607-0.661l-7.607-0.659l7.607-0.66l-7.607-0.658l7.607-0.66l-7.607-0.657
			l7.607-0.66l-7.607-0.658l7.607-0.659l-7.607-0.66l7.607-0.66l-7.607-0.659l1.658-0.144h-7.133l1.655,0.144l-7.607,0.659
			l7.607,0.66l-7.607,0.66l7.607,0.659l-7.607,0.658l7.607,0.66l-7.607,0.657l7.607,0.66l-7.607,0.658l7.607,0.66L20.031,25.5
			l7.607,0.661l-7.607,0.657l7.607,0.66l-7.607,0.657l7.607,0.66l-7.607,0.659l7.607,0.66l-7.607,0.658l7.607,0.66l-7.607,0.66
			l7.607,0.656l-7.607,0.66l7.607,0.66l-7.607,0.66l7.607,0.656l-7.607,0.663l7.607,0.655l-7.607,0.66l7.607,0.659l-7.607,0.66
			l7.607,0.66l-7.607,0.66l7.607,0.657l-7.607,0.657l7.607,0.66l-7.607,0.66l7.607,0.66L24.865,43.539L24.865,43.539z
			 M57.563,43.539h9.369L64.161,43.3l7.604-0.66l-7.604-0.66l7.605-0.66l-7.605-0.657l7.604-0.657l-7.604-0.66l7.604-0.66
			l-7.604-0.66l7.604-0.659l-7.604-0.66l7.604-0.655l-7.604-0.663l7.604-0.656l-7.604-0.66l7.605-0.66l-7.605-0.66l7.604-0.656
			l-7.604-0.66l7.604-0.66l-7.604-0.658l7.604-0.66l-7.604-0.659l7.604-0.66l-7.604-0.657l7.604-0.66l-7.604-0.657l7.605-0.661
			l-7.605-0.659l7.604-0.66l-7.604-0.658l7.604-0.66l-7.604-0.657l7.605-0.66l-7.605-0.658l7.605-0.659l-7.605-0.66l7.604-0.66
			l-7.604-0.659l1.654-0.144h-7.133l1.654,0.144l-7.606,0.659l7.606,0.66l-7.606,0.66l7.606,0.659l-7.606,0.658l7.606,0.66
			l-7.606,0.657l7.606,0.66l-7.606,0.658l7.606,0.66L52.73,25.5l7.606,0.661l-7.606,0.657l7.606,0.66l-7.606,0.657l7.606,0.66
			l-7.606,0.659l7.606,0.66l-7.606,0.658l7.606,0.66l-7.606,0.66l7.606,0.656l-7.606,0.66l7.606,0.66l-7.606,0.66l7.606,0.656
			L52.73,36.05l7.606,0.655l-7.606,0.66l7.606,0.659l-7.606,0.66l7.606,0.66l-7.606,0.66l7.606,0.657l-7.606,0.657l7.606,0.66
			l-7.606,0.66l7.606,0.66L57.563,43.539L57.563,43.539z M90.263,43.539h9.369L96.859,43.3l7.604-0.66l-7.604-0.66l7.606-0.66
			l-7.606-0.657l7.604-0.657l-7.604-0.66l7.604-0.66l-7.604-0.66l7.604-0.659l-7.604-0.66l7.604-0.655l-7.604-0.663l7.604-0.656
			l-7.604-0.66l7.606-0.66l-7.606-0.66l7.604-0.656l-7.604-0.66l7.604-0.66l-7.604-0.658l7.604-0.66l-7.604-0.659l7.604-0.66
			l-7.604-0.657l7.604-0.66l-7.604-0.657l7.606-0.661l-7.606-0.659l7.604-0.66l-7.604-0.658l7.604-0.66l-7.604-0.657l7.606-0.66
			l-7.606-0.658l7.606-0.659l-7.606-0.66l7.604-0.66l-7.604-0.659l1.655-0.144H91.38l1.656,0.144l-7.607,0.659l7.607,0.66
			l-7.607,0.66l7.607,0.659l-7.607,0.658l7.607,0.66l-7.607,0.657l7.607,0.66l-7.607,0.658l7.607,0.66L85.429,25.5l7.607,0.661
			l-7.607,0.657l7.607,0.66l-7.607,0.657l7.607,0.66l-7.607,0.659l7.607,0.66l-7.607,0.658l7.607,0.66l-7.607,0.66l7.607,0.656
			l-7.607,0.66l7.607,0.66l-7.607,0.66l7.607,0.656l-7.607,0.663l7.607,0.655l-7.607,0.66l7.607,0.659l-7.607,0.66l7.607,0.66
			l-7.607,0.66l7.607,0.657l-7.607,0.657l7.607,0.66l-7.607,0.66l7.607,0.66L90.263,43.539z"/>
		<path fill-rule="evenodd" clip-rule="evenodd" fill="#F1F1F2" d="M22.873,29.123h1.732v8.014h-1.732V29.123L22.873,29.123z
			 M25.267,39.8l-0.765-0.169L23.74,39.8l-0.768-0.169L22.21,39.8v-0.103v-0.102v-0.103V39.39l0.762-0.169l0.768,0.169l0.762-0.169
			l0.765,0.169v0.104v0.103v0.102V39.8L25.267,39.8z M40.519,39.8l-0.763-0.169L38.992,39.8l-0.765-0.169L37.462,39.8v-0.103v-0.102
			v-0.103V39.39l0.765-0.169l0.765,0.169l0.764-0.169l0.763,0.169v0.104v0.103v0.102V39.8L40.519,39.8z M39.856,29.123h-1.731v8.014
			h1.731V29.123L39.856,29.123z M36.401,27.696H26.323v9.08c-0.025,0.609,0.2,1.166,0.609,1.515c2.56,1.986,7.233,1.457,8.839,0.004
			c0.451-0.404,0.645-0.831,0.63-1.519V27.696z"/>
		<path fill-rule="evenodd" clip-rule="evenodd" fill="#E2E3E4" d="M23.852,29.123h0.752v0.729l-1.732-0.151v-0.493L23.852,29.123
			L23.852,29.123z M24.604,30.377v0.793l-1.732-0.148v-0.494L24.604,30.377L24.604,30.377z M24.604,31.696v0.793l-1.732-0.15v-0.493
			L24.604,31.696L24.604,31.696z M24.604,33.014v0.794l-1.732-0.152v-0.49L24.604,33.014L24.604,33.014z M24.604,34.333v0.791
			l-1.732-0.149v-0.49L24.604,34.333L24.604,34.333z M24.604,35.651v0.792l-1.732-0.148v-0.494L24.604,35.651L24.604,35.651z
			 M24.604,36.971v0.166h-1.732v-0.018L24.604,36.971L24.604,36.971z M32.876,39.468l-1.417-0.123l2.891-0.252
			c0.524-0.191,0.977-0.429,1.314-0.705l-4.205-0.363l4.813-0.417c0.057-0.144,0.095-0.299,0.113-0.476l-4.927-0.427l4.942-0.426
			v-0.462l-4.942-0.431l4.942-0.427v-0.461l-4.942-0.429l4.942-0.427V33.18l-4.942-0.43l4.942-0.427V31.86l-4.942-0.427l4.942-0.428
			v-0.462l-4.942-0.429l4.942-0.429v-0.461l-4.942-0.43l4.942-0.427v-0.463l-2.417-0.21h-7.661v0.985l1.315,0.114l-1.315,0.113
			v1.092l1.315,0.114l-1.315,0.113v1.09l1.315,0.115l-1.315,0.114v1.09l1.315,0.112l-1.315,0.115v1.091l1.315,0.114l-1.315,0.112
			v1.093l1.315,0.111l-1.315,0.116v1.089l1.315,0.113l-1.317,0.114c-0.008,0.418,0.097,0.804,0.299,1.117l1.018,0.088l-0.896,0.077
			c0.059,0.069,0.123,0.132,0.19,0.189C28.513,39.519,30.902,39.784,32.876,39.468L32.876,39.468z M38.125,36.129l0.941-0.079
			l-0.941-0.085V36.129L38.125,36.129z M38.125,34.812l0.941-0.081l-0.941-0.083V34.812L38.125,34.812z M38.125,33.492l0.941-0.082
			l-0.941-0.082V33.492L38.125,33.492z M38.125,32.173l0.941-0.079l-0.941-0.083V32.173L38.125,32.173z M38.125,30.855l0.941-0.082
			l-0.941-0.082V30.855L38.125,30.855z M38.125,29.538l0.941-0.083l-0.941-0.081V29.538L38.125,29.538z M25.267,39.549l-1.911,0.166
			L23.74,39.8l0.762-0.169l0.765,0.169v-0.103v-0.102V39.549z"/>
		<path fill-rule="evenodd" clip-rule="evenodd" fill="#A60E13" d="M31.257,26.638h-0.005h-0.007c-1.844,0-3.34,0.209-3.34,0.468
			c0,0.258,1.496,0.468,3.34,0.468h0.007h0.005c1.844,0,3.34-0.21,3.34-0.468C34.598,26.847,33.101,26.638,31.257,26.638
			L31.257,26.638z M33.068,33.382h3.331c0,2.455,0,0.938,0,3.397c0.038,2.859-4.995,2.908-4.993,0v-1.535
			C32.291,35.206,33.007,34.397,33.068,33.382L33.068,33.382z M30.84,35.159v3.037c-0.164,0.166-0.355,0.304-0.565,0.417v-3.791
			C30.441,34.974,30.63,35.089,30.84,35.159L30.84,35.159z M26.323,27.696v5.686h0.565v4.873c0.164,0.158,0.354,0.291,0.563,0.394
			v-5.267h0.57v5.477c0.182,0.046,0.369,0.077,0.561,0.089v-5.565h0.565v5.559c0.192-0.019,0.384-0.052,0.568-0.105v-4.896
			c-0.059-0.174-0.095-0.365-0.105-0.561h-0.003c-0.005-0.046-0.005-0.092-0.005-0.138c0-1.11,0.778-2.008,1.737-2.008h0.064v-3.537
			H26.323L26.323,27.696z M31.403,38.166c-0.115,0.101-0.185,0.249-0.185,0.413c0,0.166,0.069,0.312,0.185,0.412
			c0.112-0.101,0.186-0.246,0.186-0.412C31.589,38.415,31.516,38.267,31.403,38.166L31.403,38.166z M23.743,27.408H23.74h-0.003
			c-0.586,0-1.061,0.064-1.061,0.147c0,0.082,0.475,0.148,1.061,0.148h0.003h0.002c0.585,0,1.062-0.066,1.062-0.148
			C24.804,27.473,24.328,27.408,23.743,27.408L23.743,27.408z M36.406,31.957c0.274-0.189,0.734-0.389,1.276-0.523
			c0.762-0.192,1.69-0.266,2.494-0.026c1.084,0.325,0.343,0.466-0.32,0.545v0.652c1.952-0.202,2.363-1.532,0.164-2.019
			c-1.123-0.247-2.637-0.127-3.614,0.317V31.957L36.406,31.957z M38.125,32.215v0.915c-0.107,0.219,2.105,0.675,2.56,1.089
			c0.745,0.672,0.016,1.376-0.69,1.218c0.296-0.289,0.642-0.387,0.32-0.671c-0.717-0.58-2.803-0.838-2.862-1.905
			C37.434,32.535,37.716,32.341,38.125,32.215L38.125,32.215z M38.995,27.408L38.995,27.408h-0.005
			c-0.583,0-1.061,0.064-1.061,0.147c0,0.082,0.478,0.148,1.061,0.148h0.005l0,0c0.588,0,1.062-0.066,1.062-0.148
			C40.056,27.473,39.583,27.408,38.995,27.408L38.995,27.408z M38.989,26.358c0.358,0,0.676,0.064,0.896,0.169
			c0.059-0.034,0.128-0.049,0.194-0.049c0.233,0,0.425,0.187,0.425,0.42c0,0.234-0.192,0.427-0.425,0.427c-0.673,0-1.504,0-2.177,0
			c-0.233,0-0.425-0.192-0.425-0.427c0-0.233,0.192-0.42,0.425-0.42c0.066,0,0.136,0.015,0.2,0.049
			C38.314,26.423,38.636,26.358,38.989,26.358L38.989,26.358z M26.323,31.957c-0.274-0.189-0.734-0.389-1.279-0.523
			c-0.76-0.192-1.688-0.266-2.491-0.026c-1.085,0.325-0.343,0.466,0.319,0.545v0.652c-1.952-0.202-2.363-1.532-0.166-2.019
			c1.125-0.247,2.639-0.127,3.616,0.317V31.957L26.323,31.957z M24.604,32.215v0.915c0.107,0.219-2.105,0.675-2.561,1.089
			c-0.744,0.672-0.015,1.376,0.688,1.218c-0.294-0.289-0.64-0.387-0.317-0.671c0.716-0.58,2.803-0.838,2.862-1.905
			C25.295,32.535,25.014,32.341,24.604,32.215L24.604,32.215z M23.737,26.358c0.355,0,0.675,0.064,0.893,0.169
			c0.061-0.034,0.127-0.049,0.197-0.049c0.232,0,0.424,0.187,0.424,0.42c0,0.234-0.192,0.427-0.424,0.427c-0.673,0-1.504,0-2.177,0
			c-0.235,0-0.424-0.192-0.424-0.427c0-0.233,0.189-0.42,0.424-0.42c0.067,0,0.136,0.015,0.2,0.049
			C23.062,26.423,23.382,26.358,23.737,26.358L23.737,26.358z M31.245,23.351c1.123,0,2.128,0.204,2.803,0.529
			c0.187-0.103,0.399-0.156,0.624-0.156c0.731,0,1.327,0.594,1.327,1.325s-0.596,1.324-1.327,1.324c-2.125,0-4.729,0-6.854,0
			c-0.732,0-1.325-0.593-1.325-1.324s0.593-1.325,1.325-1.325c0.225,0,0.44,0.054,0.624,0.156
			C29.119,23.555,30.124,23.351,31.245,23.351z"/>
		<path fill-rule="evenodd" clip-rule="evenodd" fill="#DD80AF" d="M32.974,29.397c-0.185-0.15-0.082-0.279-0.2-0.468
			c-0.087-0.142-0.182,0.065-0.112,0.141c0.03,0.032-0.049-0.013-0.087-0.016c-0.146-0.015-0.173,0.143-0.036,0.159
			c0.056,0.004,0.238-0.014,0.148,0.093c-0.046,0.06-0.153-0.001-0.169,0.027c-0.046,0.089,0.059,0.127,0.192,0.147
			c0.176,0.028,0.013,0.161,0.1,0.22c0.086,0.062,0.025,0.112,0.077,0.223c0.051,0.116,0.337-0.021,0.399,0.006
			c0.08,0.032,0.031,0.191-0.097,0.149c-0.197-0.091-0.312,0.003-0.363,0c-0.21-0.004-0.468,0-0.481,0.195
			c-0.012,0.191,0.243-0.143,0.128,0.015c-0.13,0.174,0.079,0.252,0.112,0.128c0.018-0.071,0.098-0.053,0.087-0.04
			c-0.015,0.029-0.143,0.146,0.011,0.175c0.146,0.024,0.071-0.14,0.141-0.218c0.023-0.028,0.156-0.095,0.237-0.014
			c0.197,0.2,0.494-0.123,0.52-0.092c0.103,0.115,0.008,0.215,0.069,0.351c0.034,0.085-0.268,0.155-0.347,0.181
			c-0.588,0.189,0.424,0.758,0.059,0.771c-0.177,0.004-0.438-0.207-0.54-0.12c-0.02,0.021,0.087,0.031,0.064,0.074
			c-0.008,0.018-0.294,0.097-0.09,0.146c0.053,0.014,0.077-0.022,0.138,0.016c0.021,0.013-0.031,0.164,0.153,0.062
			c0.092-0.054,0.223,0.071,0.228,0.074c0.181,0.02,0.376,0.062,0.386-0.194c0.002-0.116,0.046-0.1,0.064-0.162
			c0.084-0.271,0.23-0.03,0.179,0.247c-0.087,0.332,0.534,0.125,0.335,0.408c-0.067,0.096-0.097,0.202-0.226,0.23
			c-0.046,0.011-0.245,0.15,0.056,0.174c-0.054-0.018,0.082,0.259,0.218,0.071c0.084-0.114,0.241,0.085,0.121-0.253
			c-0.059-0.158,0.225-0.243,0.24-0.394c0.036-0.351-0.087-0.188-0.118-0.315c-0.056-0.24,0.103-0.501,0.614-0.634
			c0.338-0.089,0.353-0.777,0.195-1.016c-0.182-0.273-0.1-0.319-0.059-0.591c0.002-0.025,0.296-0.187,0.325-0.31
			c0.064-0.278,0.092-0.36,0.002-0.394c-0.089-0.033-0.32,0.113-0.394,0.223c-0.069,0.097,0.033,0.291-0.007,0.386
			c-0.082,0.187-0.146,0.312-0.005,0.69c0.107,0.29,0.24,0.566-0.08,0.837c-0.071,0.06-0.212,0.054-0.314,0.063
			c-0.456,0.046-0.42-0.749-0.356-0.902c0.016-0.039,0.092-0.201,0.095-0.279c0.005-0.275-0.115-0.701-0.123-0.734
			c-0.036-0.131-0.09-0.391-0.476-0.391c-0.077,0-0.138,0.068-0.199,0.079c-0.059,0.01-0.075-0.011-0.154,0
			c-0.1,0.013-0.22-0.019-0.209,0.046c0.016,0.106,0.066,0.273,0.192,0.241c0.084-0.025,0.074,0.015,0.063,0.058
			c-0.01,0.044-0.031,0.12-0.092,0.109c-0.036-0.006-0.089-0.094-0.118-0.111c-0.138,0.179-0.026,0.095,0.123,0.24
			c0.031,0.028-0.059,0.087-0.02,0.115c0.097,0.077-0.016,0.095-0.188,0.182c-0.109,0.057-0.146,0.128-0.284,0.003
			C32.995,29.404,33.076,29.402,32.974,29.397z"/>
		<path fill-rule="evenodd" clip-rule="evenodd" fill="#EC1C24" d="M31.339,31.233c0.959,0,1.733,0.897,1.733,2.008
			c0,1.105-0.774,2.006-1.733,2.006s-1.734-0.9-1.734-2.006C29.605,32.131,30.38,31.233,31.339,31.233z"/>
		<path fill-rule="evenodd" clip-rule="evenodd" fill="#00835F" d="M32.508,38.863c-0.046,0.148-0.181,0.287-0.394,0.368
			c-0.209,0.085-0.453,0.093-0.667,0.043c0.046-0.147,0.182-0.283,0.392-0.365C32.05,38.827,32.293,38.815,32.508,38.863
			L32.508,38.863z M31.339,31.674c-0.808,0-1.297,0.829-1.297,1.567c0,0.734,0.486,1.566,1.297,1.566
			c0.808,0,1.294-0.83,1.294-1.566C32.633,32.503,32.147,31.674,31.339,31.674L31.339,31.674z M30.298,38.863
			c0.046,0.148,0.184,0.287,0.395,0.368c0.212,0.082,0.455,0.093,0.67,0.043c-0.046-0.147-0.184-0.283-0.395-0.365
			C30.756,38.827,30.513,38.815,30.298,38.863z"/>
		<path fill-rule="evenodd" clip-rule="evenodd" fill="#0094D9" d="M25.267,40.198l-0.765-0.168l-0.762,0.168l-0.768-0.168
			l-0.762,0.168V40.1v-0.105v-0.103v-0.103l0.762-0.165l0.768,0.165l0.762-0.165l0.765,0.165v0.103v0.103V40.1V40.198L25.267,40.198
			z M29.001,30.203h0.496v0.874h-0.496V30.203L29.001,30.203z M28.331,31.367h0.811v1.139h-0.811V31.367L28.331,31.367z
			 M27.976,30.203h0.497v0.874h-0.497V30.203L27.976,30.203z M40.519,40.198l-0.763-0.168l-0.764,0.168l-0.765-0.168l-0.765,0.168
			V40.1v-0.105v-0.103v-0.103l0.765-0.165l0.765,0.165l0.764-0.165l0.763,0.165v0.103v0.103V40.1V40.198L40.519,40.198z
			 M40.519,39.39l-0.763-0.169l-0.764,0.169l-0.765-0.169l-0.765,0.169v-0.102v-0.103v-0.103v-0.102l0.765-0.169l0.765,0.169
			l0.764-0.169l0.763,0.169v0.102v0.103v0.103V39.39L40.519,39.39z M25.267,39.39l-0.765-0.169L23.74,39.39l-0.768-0.169
			L22.21,39.39v-0.102v-0.103v-0.103v-0.102l0.762-0.169l0.768,0.169l0.762-0.169l0.765,0.169v0.102v0.103v0.103V39.39z"/>
		<path fill-rule="evenodd" clip-rule="evenodd" fill="#8F0508" d="M31.257,26.638h-0.005h-0.007c-1.844,0-3.34,0.209-3.34,0.468
			c0,0.258,1.496,0.468,3.34,0.468h0.007h0.005c0.355,0,0.698-0.01,1.021-0.025l-0.819-0.069l3.042-0.264
			c0.064-0.036,0.097-0.072,0.097-0.109C34.598,26.847,33.101,26.638,31.257,26.638L31.257,26.638z M35.641,38.388l-3.813-0.333
			C32.674,39.117,34.577,39.219,35.641,38.388L35.641,38.388z M31.781,37.996l4.461-0.387c0.062-0.148,0.107-0.306,0.133-0.478
			l-4.916-0.427l4.939-0.426v-0.462l-4.939-0.431l4.939-0.427v-0.461l-3.535-0.306c-0.284,0.605-0.829,1.022-1.458,1.051v1.535
			C31.403,37.267,31.546,37.671,31.781,37.996L31.781,37.996z M32.963,33.942l3.435-0.299v-0.262h-3.331
			C33.055,33.579,33.02,33.766,32.963,33.942L32.963,33.942z M37.815,33.518l0.896-0.076c-0.084-0.028-0.161-0.057-0.23-0.082
			l-0.882-0.077C37.657,33.367,37.731,33.446,37.815,33.518L37.815,33.518z M36.539,31.873l-0.133-0.013v0.097
			C36.447,31.929,36.49,31.901,36.539,31.873L36.539,31.873z M36.406,31.006l2.66-0.232l-1.79-0.156
			c-0.315,0.074-0.612,0.169-0.87,0.286V31.006L36.406,31.006z M37.48,26.957l1.586-0.139l-1.529-0.13
			c-0.039,0.062-0.059,0.132-0.059,0.21C37.478,26.919,37.478,26.937,37.48,26.957L37.48,26.957z M33.925,26.373l-2.466-0.212
			l4.315-0.376c0.11-0.163,0.182-0.35,0.21-0.552l-4.525-0.393l4.399-0.38c-0.133-0.266-0.353-0.483-0.624-0.611l-0.913-0.08
			c-0.097,0.028-0.186,0.064-0.273,0.11c-0.128-0.061-0.266-0.118-0.415-0.169l-2.174-0.188l1.008-0.087
			c-0.384-0.055-0.793-0.085-1.223-0.085c-1.121,0-2.125,0.204-2.804,0.529c-0.184-0.103-0.399-0.156-0.624-0.156
			c-0.627,0-1.151,0.438-1.29,1.021l1.11,0.097l-1.141,0.101c-0.005,0.036-0.005,0.071-0.005,0.107c0,0.434,0.207,0.816,0.527,1.057
			l0.619,0.056l-0.476,0.041c0.194,0.11,0.417,0.171,0.655,0.171H33.925L33.925,26.373z M24.392,26.443l-2.059,0.179
			c-0.067,0.071-0.108,0.168-0.108,0.276c0,0.038,0.005,0.076,0.016,0.112l2.816,0.246c0.118-0.078,0.194-0.21,0.194-0.358
			c0-0.233-0.192-0.42-0.424-0.42c-0.069,0-0.136,0.015-0.197,0.049C24.559,26.493,24.482,26.466,24.392,26.443L24.392,26.443z
			 M26.323,28.682v-0.985h5.08v3.537h-0.064c-0.959,0-1.737,0.897-1.737,2.008c0,0.046,0,0.092,0.005,0.138h0.003
			c0.01,0.195,0.046,0.387,0.105,0.561v4.896c-0.185,0.054-0.376,0.087-0.568,0.105v-5.559h-0.565v5.565
			c-0.192-0.012-0.379-0.043-0.561-0.089v-5.477h-0.57v0.673l-0.563-0.052v-0.621h-0.565v-0.517l1.315-0.115l-1.315-0.112v-1.09
			l1.315-0.114l-1.315-0.115v-1.09l1.315-0.113l-1.315-0.114v-1.092l1.315-0.113L26.323,28.682L26.323,28.682z M21.763,30.924
			l4.561,0.395v-0.415c-0.978-0.444-2.491-0.564-3.616-0.317C22.307,30.676,21.995,30.791,21.763,30.924L21.763,30.924z
			 M26.323,31.548l-0.706,0.062c0.292,0.107,0.535,0.23,0.706,0.348V31.548L26.323,31.548z M22.428,31.886l-1.067,0.092
			c0.072,0.089,0.169,0.177,0.289,0.254l1.223,0.107v-0.387C22.719,31.932,22.563,31.911,22.428,31.886L22.428,31.886z
			 M24.604,32.489l0.57,0.049c-0.115-0.146-0.32-0.245-0.57-0.323V32.489L24.604,32.489z M25.267,32.955l-0.663,0.059v0.116
			c0.062,0.127-0.645,0.329-1.345,0.562l1.243,0.108C24.896,33.581,25.203,33.318,25.267,32.955L25.267,32.955z M27.451,34.085
			l-0.563,0.05v1.188l0.563,0.049V34.085L27.451,34.085z M22.909,34.479l-1.133,0.098c-0.041,0.104-0.051,0.207-0.039,0.302
			l0.558,0.046c0.016-0.046,0.052-0.098,0.121-0.159C22.543,34.661,22.714,34.569,22.909,34.479L22.909,34.479z M27.451,35.405
			l-0.563,0.048v1.188l0.563,0.049V35.405L27.451,35.405z M27.451,36.723l-0.563,0.049v1.187l0.563,0.049V36.723L27.451,36.723z
			 M27.451,38.04l-0.563,0.048v0.167c0.164,0.158,0.354,0.291,0.563,0.394V38.04L27.451,38.04z M30.84,35.159
			c-0.21-0.07-0.399-0.186-0.565-0.337v3.791c0.21-0.113,0.402-0.251,0.565-0.417V35.159L30.84,35.159z M31.403,38.166
			c-0.115,0.101-0.185,0.249-0.185,0.413c0,0.166,0.069,0.312,0.185,0.412c0.112-0.101,0.186-0.246,0.186-0.412
			C31.589,38.415,31.516,38.267,31.403,38.166z"/>
		<path fill-rule="evenodd" clip-rule="evenodd" fill="#F290BB" d="M32.974,29.397c-0.185-0.15-0.082-0.279-0.2-0.468l-0.015-0.021
			l-0.085-0.006c-0.038,0.036-0.053,0.123-0.012,0.167c0.03,0.032-0.049-0.013-0.087-0.016c-0.146-0.014-0.173,0.143-0.036,0.159
			c0.056,0.004,0.238-0.014,0.148,0.096c-0.046,0.057-0.153-0.004-0.169,0.024c-0.046,0.089,0.059,0.127,0.192,0.147
			c0.176,0.026,0.013,0.161,0.1,0.22c0.086,0.062,0.025,0.109,0.077,0.223c0.051,0.116,0.337-0.021,0.399,0.006
			c0.013,0.004,0.021,0.012,0.028,0.025l1.214-0.105c0.025-0.064,0.054-0.135,0.057-0.182c0.002-0.191-0.057-0.454-0.092-0.608
			l-0.819-0.072c-0.01,0.044-0.033,0.1-0.087,0.089c-0.034-0.006-0.082-0.081-0.11-0.106h-0.01c-0.133,0.174-0.023,0.09,0.125,0.238
			c0.031,0.025-0.059,0.084-0.023,0.112c0.1,0.077-0.013,0.095-0.185,0.182c-0.109,0.06-0.146,0.128-0.284,0.003
			C32.995,29.404,33.076,29.402,32.974,29.397L32.974,29.397z M32.37,30.193c-0.016,0.022-0.023,0.05-0.026,0.081
			c-0.012,0.191,0.243-0.143,0.128,0.015c-0.128,0.174,0.079,0.252,0.112,0.128c0.018-0.071,0.095-0.053,0.087-0.038
			c-0.015,0.027-0.143,0.144,0.011,0.173c0.146,0.024,0.071-0.14,0.141-0.218c0.023-0.028,0.156-0.093,0.237-0.014
			c0.128,0.131,0.297,0.039,0.407-0.031L32.37,30.193L32.37,30.193z M33.621,30.303l0.837,0.072c0.025,0.247,0.127,0.5,0.389,0.475
			c0.102-0.01,0.243-0.004,0.314-0.063c0.131-0.11,0.184-0.224,0.197-0.333l0.113,0.01c-0.018,0.229-0.105,0.447-0.287,0.497
			c-0.184,0.049-0.327,0.112-0.424,0.189l-1.461,0.125c-0.151-0.182-0.327-0.406,0.003-0.515c0.079-0.025,0.381-0.096,0.347-0.179
			C33.603,30.471,33.646,30.387,33.621,30.303L33.621,30.303z M32.759,31.545c-0.046,0.028-0.067,0.062,0.036,0.085
			c0.053,0.014,0.077-0.022,0.138,0.016c0.021,0.013-0.031,0.164,0.153,0.062c0.092-0.054,0.223,0.071,0.228,0.074
			c0.171,0.018,0.353,0.056,0.381-0.154L32.759,31.545L32.759,31.545z M33.945,31.648l-0.002,0.023
			c-0.087,0.332,0.534,0.125,0.335,0.408c-0.067,0.096-0.097,0.202-0.226,0.23c-0.046,0.011-0.245,0.15,0.056,0.174
			c-0.015-0.005-0.018,0.011-0.007,0.038l0.386-0.033c0.005-0.025-0.005-0.076-0.041-0.187c-0.059-0.158,0.225-0.243,0.24-0.394
			c0.01-0.103,0.005-0.162-0.005-0.198L33.945,31.648L33.945,31.648z M35.288,29.783c-0.056-0.148,0-0.22,0.031-0.43
			c0.002-0.02,0.156-0.106,0.25-0.202l-0.325-0.028c0.01,0.052,0.015,0.101,0,0.136c-0.069,0.159-0.128,0.271-0.057,0.532
			L35.288,29.783L35.288,29.783z M34.155,28.563c-0.048-0.013-0.102-0.021-0.168-0.021c-0.043,0-0.084,0.022-0.123,0.046
			L34.155,28.563z"/>
		<path fill-rule="evenodd" clip-rule="evenodd" fill="#D71921" d="M31.339,31.233c0.235,0,0.46,0.054,0.665,0.15l-0.545,0.05
			l0.742,0.064c0.368,0.244,0.652,0.644,0.788,1.119l-1.53,0.133l1.586,0.139c0.018,0.112,0.028,0.232,0.028,0.353
			c0,0.247-0.038,0.481-0.109,0.701l-1.504,0.128l1.404,0.123c-0.294,0.626-0.867,1.054-1.524,1.054c-0.959,0-1.737-0.9-1.737-2.006
			C29.602,32.131,30.38,31.233,31.339,31.233z"/>
		<path fill-rule="evenodd" clip-rule="evenodd" fill="#00764B" d="M32.508,38.863c-0.046,0.148-0.181,0.287-0.394,0.368
			c-0.209,0.085-0.453,0.093-0.667,0.043c0.046-0.147,0.182-0.283,0.392-0.365C32.05,38.827,32.293,38.815,32.508,38.863
			L32.508,38.863z M32.388,34.152l-0.929-0.082l1.016-0.087c0.104-0.235,0.158-0.495,0.158-0.742c0-0.133-0.015-0.263-0.043-0.394
			l-1.131-0.098l1.075-0.092c-0.179-0.532-0.599-0.984-1.194-0.984c-0.808,0-1.297,0.829-1.297,1.567
			c0,0.734,0.486,1.566,1.297,1.566C31.807,34.808,32.168,34.53,32.388,34.152L32.388,34.152z M30.298,38.863
			c0.046,0.148,0.184,0.287,0.395,0.368c0.212,0.082,0.455,0.093,0.67,0.043c-0.046-0.147-0.184-0.283-0.395-0.365
			C30.756,38.827,30.513,38.815,30.298,38.863z"/>
		<path fill-rule="evenodd" clip-rule="evenodd" fill="#0094D9" d="M25.267,40.198l-0.765-0.168l-0.762,0.168l-0.768-0.168
			l-0.74,0.162H22.21V40.1v-0.105v-0.103v-0.076l1.174-0.103l0.356,0.076l0.762-0.165l0.765,0.165v0.103v0.103V40.1V40.198
			L25.267,40.198z M37.462,40.143l0.427-0.036l0.337-0.076l0.146,0.033l0.692-0.059l-1.604-0.142v0.028v0.103V40.1V40.143
			L37.462,40.143z M22.563,38.904l2.704,0.235v-0.057v-0.102l-0.765-0.169l-0.762,0.169l-0.768-0.169L22.563,38.904L22.563,38.904z
			 M29.001,30.203h0.496v0.874h-0.496V30.203L29.001,30.203z M28.331,31.367h0.811v1.139h-0.811V31.367L28.331,31.367z
			 M27.976,30.203h0.497v0.874h-0.497V30.203z"/>
		<path fill-rule="evenodd" clip-rule="evenodd" fill="#E7901A" d="M38.805,25.673h0.153v-0.204h0.089v0.204h0.149v0.126h-0.149
			v0.206h-0.089v-0.206h-0.153V25.673L38.805,25.673z M30.669,21.191h0.468v-0.644h0.286v0.644h0.468v0.395h-0.468v0.645h-0.286
			v-0.645h-0.468V21.191L30.669,21.191z M31.252,26.611h0.005c0.325,0,3.049,0.046,3.34,0.425v-0.535
			c-0.558-0.345-1.949-0.501-3.346-0.504c-1.396,0.003-2.791,0.159-3.348,0.504v0.535c0.291-0.379,3.018-0.425,3.34-0.425H31.252
			L31.252,26.611z M26.799,25.373c0.593,0.796,1.489,1,1.062-0.316l0.299-0.134c0.368,0.876,1.353,1.254,1.235-0.127l0.32-0.085
			c0.34,0.87,1.35,1.123,1.363-0.008v-0.065v-0.011h0.003V24.62l0.164,0.004l0.166-0.004v0.007l0,0v0.021v0.056
			c0.013,1.131,1.023,0.878,1.366,0.008l0.32,0.085c-0.12,1.381,0.867,1.003,1.233,0.127l0.302,0.134
			c-0.427,1.316,0.469,1.112,1.059,0.316l0.269,0.19c-0.473,0.639-1.732,1.296-1.762,0.082c-0.535,0.551-1.228,0.434-1.407-0.292
			c-0.511,0.642-1.225,0.537-1.544-0.014c-0.32,0.551-1.034,0.655-1.545,0.014c-0.176,0.726-0.87,0.843-1.407,0.292
			c-0.028,1.214-1.287,0.557-1.763-0.082L26.799,25.373L26.799,25.373z M31.27,22.432c0.192,0,0.348,0.525,0.348,1.172
			c0,0.645-0.156,0.982-0.348,0.982c-0.194,0-0.35-0.338-0.35-0.982C30.92,22.957,31.076,22.432,31.27,22.432L31.27,22.432z
			 M35.068,22.759c-0.345,0-0.657,0.132-0.893,0.349C34.334,23.038,34.511,23,34.697,23c0.729,0,1.32,0.593,1.32,1.32
			c0,0.386-0.164,0.73-0.427,0.975c0.471-0.202,0.801-0.671,0.801-1.216C36.391,23.354,35.797,22.759,35.068,22.759L35.068,22.759z
			 M32.776,22.279c-0.345,0-0.657,0.13-0.893,0.348c0.159-0.069,0.335-0.107,0.521-0.107c0.729,0,1.32,0.59,1.32,1.32
			c0,0.386-0.164,0.73-0.427,0.972c0.468-0.202,0.798-0.668,0.798-1.213C34.096,22.87,33.505,22.279,32.776,22.279L32.776,22.279z
			 M29.71,22.279c-0.729,0-1.32,0.591-1.32,1.319c0,0.545,0.327,1.011,0.798,1.213c-0.264-0.241-0.427-0.586-0.427-0.972
			c0-0.73,0.591-1.32,1.32-1.32c0.187,0,0.361,0.038,0.525,0.107C30.367,22.409,30.055,22.279,29.71,22.279L29.71,22.279z
			 M27.418,22.759c-0.729,0-1.323,0.595-1.323,1.32c0,0.545,0.33,1.014,0.8,1.216c-0.263-0.244-0.427-0.589-0.427-0.975
			c0-0.728,0.591-1.32,1.32-1.32c0.187,0,0.36,0.038,0.521,0.107C28.075,22.891,27.763,22.759,27.418,22.759L27.418,22.759z
			 M23.553,25.673h0.151v-0.204h0.089v0.204h0.151v0.126h-0.151v0.206h-0.089v-0.206h-0.151V25.673L23.553,25.673z M23.74,27.399
			h0.002c0.105,0,0.969,0.01,1.062,0.13v-0.168c-0.177-0.107-0.622-0.159-1.064-0.159c-0.445,0-0.888,0.052-1.064,0.159v0.168
			c0.092-0.12,0.959-0.13,1.061-0.13H23.74L23.74,27.399z M22.323,27.003c0.189,0.257,0.471,0.322,0.338-0.099l0.097-0.042
			c0.112,0.276,0.433,0.399,0.392-0.044l0.1-0.025c0.112,0.276,0.435,0.355,0.437-0.003v-0.024l0,0l0,0l0,0h0.051h0.054l0,0l0,0
			v0.008v0.017c0.002,0.358,0.327,0.279,0.435,0.003l0.1,0.025c-0.033,0.443,0.279,0.32,0.394,0.044l0.094,0.042
			c-0.133,0.421,0.148,0.355,0.34,0.099l0.084,0.062c-0.154,0.202-0.55,0.414-0.56,0.028c-0.172,0.174-0.394,0.133-0.447-0.099
			c-0.164,0.206-0.392,0.176-0.494-0.001c-0.102,0.177-0.327,0.207-0.491,0.001c-0.053,0.231-0.276,0.272-0.445,0.099
			c-0.013,0.386-0.412,0.174-0.565-0.028L22.323,27.003L22.323,27.003z M23.745,26.067c0.064,0,0.112,0.168,0.112,0.373
			c0,0.204-0.048,0.312-0.112,0.312c-0.061,0-0.11-0.108-0.11-0.312C23.635,26.235,23.684,26.067,23.745,26.067L23.745,26.067z
			 M24.955,26.171c-0.11,0-0.21,0.042-0.287,0.111c0.052-0.021,0.11-0.03,0.172-0.03c0.23,0,0.417,0.186,0.417,0.416
			c0,0.125-0.054,0.233-0.135,0.309c0.148-0.063,0.255-0.211,0.255-0.385C25.377,26.358,25.188,26.171,24.955,26.171L24.955,26.171z
			 M24.226,26.018c-0.11,0-0.21,0.042-0.287,0.111c0.054-0.021,0.108-0.033,0.169-0.033c0.23,0,0.42,0.187,0.42,0.419
			c0,0.124-0.054,0.235-0.138,0.312c0.154-0.066,0.256-0.215,0.256-0.389C24.646,26.207,24.458,26.018,24.226,26.018L24.226,26.018z
			 M23.249,26.018c-0.232,0-0.42,0.189-0.42,0.42c0,0.174,0.103,0.322,0.256,0.389c-0.084-0.076-0.138-0.188-0.138-0.312
			c0-0.232,0.189-0.419,0.422-0.419c0.059,0,0.115,0.012,0.166,0.033C23.458,26.06,23.361,26.018,23.249,26.018L23.249,26.018z
			 M22.52,26.171c-0.23,0-0.42,0.188-0.42,0.421c0,0.174,0.105,0.321,0.253,0.385c-0.079-0.075-0.135-0.184-0.135-0.309
			c0-0.23,0.187-0.416,0.419-0.416c0.062,0,0.115,0.009,0.172,0.03C22.732,26.213,22.63,26.171,22.52,26.171L22.52,26.171z
			 M34.912,28.653l-0.031-0.047c-0.189,0.141-0.345,0.064-0.181-0.148l0,0v-0.003l-0.049-0.033v0.004
			c-0.182,0.237-0.271,0.063-0.202-0.121l-0.054-0.013c-0.185,0.27-0.266,0.1-0.195-0.1l-0.059-0.003L34.135,28.2
			c-0.057,0.098-0.07,0.197-0.054,0.283c0.304,0.016,0.407,0.246,0.435,0.354l0.002,0.025C34.656,28.867,34.8,28.806,34.912,28.653
			L34.912,28.653z M32.225,35.84h1.473l-1.156-1.156c0.039-0.04,0.074-0.084,0.11-0.13l1.166,1.166v-1.66h-0.896
			c0.021-0.057,0.042-0.112,0.059-0.174h2.686h0.084v0.088v3.37v0.031l-0.023,0.026c-0.604,0.67-1.212,1.027-1.824,1.038
			c-0.613,0.01-1.225-0.326-1.831-1.041l-0.021-0.023v-0.031v-2.276c0.061-0.03,0.118-0.066,0.172-0.103V35.84L32.225,35.84z
			 M33.989,34.06v1.586l1.583-1.586H33.989L33.989,34.06z M35.58,34.293l-1.547,1.547h1.547V34.293L35.58,34.293z M35.58,36.011
			h-1.471l1.387,1.388l0.084-0.09V36.011L35.58,36.011z M35.375,37.519l-1.386-1.388v2.131
			C34.447,38.228,34.91,37.973,35.375,37.519L35.375,37.519z M33.817,38.265v-2.209l-1.432,1.435
			C32.863,37.994,33.342,38.247,33.817,38.265L33.817,38.265z M32.27,37.365l1.351-1.354h-1.396v1.302L32.27,37.365L32.27,37.365z
			 M22.476,27.896h2.522v0.812h-2.522V27.896L22.476,27.896z M40.25,27.896h-2.519v0.812h2.519V27.896L40.25,27.896z M39.897,28.837
			h-1.813v0.207h1.813V28.837L39.897,28.837z M39.782,37.25h-1.583v0.508h1.583V37.25L39.782,37.25z M40.25,37.876h-2.519v0.813
			h2.519V37.876L40.25,37.876z M22.476,37.876h2.522v0.813h-2.522V37.876L22.476,37.876z M22.947,37.25h1.581v0.508h-1.581V37.25
			L22.947,37.25z M22.832,28.837h1.813v0.207h-1.813V28.837L22.832,28.837z M38.995,27.399L38.995,27.399
			c0.104,0,0.972,0.01,1.064,0.13v-0.168c-0.179-0.107-0.622-0.159-1.064-0.159c-0.445,0-0.89,0.052-1.064,0.159v0.168
			c0.092-0.12,0.959-0.13,1.059-0.13H38.995L38.995,27.399z M37.577,27.003c0.19,0.257,0.471,0.322,0.338-0.099l0.095-0.042
			c0.115,0.276,0.432,0.399,0.394-0.044l0.1-0.025c0.11,0.276,0.432,0.355,0.435-0.003v-0.024l0,0l0,0l0,0h0.051h0.056l0,0l0,0
			v0.008v0.017c0.002,0.358,0.325,0.279,0.433,0.003l0.1,0.025c-0.034,0.443,0.281,0.32,0.394,0.044l0.097,0.042
			c-0.136,0.421,0.148,0.355,0.337,0.099l0.087,0.062c-0.153,0.202-0.553,0.414-0.563,0.028c-0.172,0.174-0.394,0.133-0.445-0.099
			c-0.167,0.206-0.394,0.176-0.497-0.001c-0.1,0.177-0.328,0.207-0.491,0.001c-0.054,0.231-0.276,0.272-0.445,0.099
			c-0.01,0.386-0.409,0.174-0.563-0.028L37.577,27.003L37.577,27.003z M39,26.067c0.061,0,0.109,0.168,0.109,0.373
			c0,0.204-0.049,0.312-0.109,0.312c-0.062,0-0.11-0.108-0.11-0.312C38.89,26.235,38.938,26.067,39,26.067L39,26.067z
			 M40.207,26.171c-0.108,0-0.21,0.042-0.287,0.111c0.054-0.021,0.11-0.03,0.172-0.03c0.233,0,0.417,0.186,0.417,0.416
			c0,0.125-0.054,0.233-0.136,0.309c0.151-0.063,0.256-0.211,0.256-0.385C40.629,26.358,40.439,26.171,40.207,26.171L40.207,26.171z
			 M39.478,26.018c-0.11,0-0.208,0.042-0.284,0.111c0.051-0.021,0.107-0.033,0.167-0.033c0.232,0,0.422,0.187,0.422,0.419
			c0,0.124-0.054,0.235-0.138,0.312c0.151-0.066,0.253-0.215,0.253-0.389C39.897,26.207,39.713,26.018,39.478,26.018L39.478,26.018z
			 M38.503,26.018c-0.235,0-0.419,0.189-0.419,0.42c0,0.174,0.102,0.322,0.253,0.389c-0.084-0.076-0.138-0.188-0.138-0.312
			c0-0.232,0.192-0.419,0.422-0.419c0.062,0,0.115,0.012,0.169,0.033C38.713,26.06,38.613,26.018,38.503,26.018L38.503,26.018z
			 M37.774,26.171c-0.232,0-0.419,0.188-0.419,0.421c0,0.174,0.105,0.321,0.253,0.385c-0.082-0.075-0.135-0.184-0.135-0.309
			c0-0.23,0.187-0.416,0.417-0.416c0.062,0,0.117,0.009,0.171,0.03C37.984,26.213,37.885,26.171,37.774,26.171z"/>
		<path fill-rule="evenodd" clip-rule="evenodd" fill="#CD7B17" d="M38.958,25.51v-0.019l0.089,0.005v0.005L38.958,25.51
			L38.958,25.51z M39.02,38.689l0.046-0.005l-1.335-0.116v0.121H39.02L39.02,38.689z M34.562,38.293l-0.479-0.041l-0.094,0.01
			v-0.021l-0.172-0.012v0.035c-0.133-0.005-0.266-0.027-0.399-0.071l-0.499-0.044c0.327,0.2,0.654,0.294,0.984,0.29
			C34.125,38.434,34.345,38.385,34.562,38.293L34.562,38.293z M32.605,37.925l0.251-0.02c-0.159-0.114-0.315-0.252-0.471-0.415
			l0.645-0.647l-0.22-0.021l-0.541,0.543l-0.045-0.053v-0.541l-0.172-0.014v0.586v0.031l0.021,0.023
			C32.25,37.605,32.426,37.781,32.605,37.925L32.605,37.925z M33.817,37.819l0.172-0.015v-0.88l-0.172-0.016V37.819L33.817,37.819z
			 M35.176,37.702l0.284-0.025c0.092-0.085,0.179-0.177,0.269-0.275l0.023-0.026v-0.031v-0.266l-0.171-0.015v0.245l-0.084,0.09
			l-0.376-0.374l-0.263-0.023l0.519,0.518C35.309,37.584,35.242,37.646,35.176,37.702L35.176,37.702z M38.199,37.44l0.867-0.075
			l-0.867-0.075V37.44L38.199,37.44z M32.053,36.653l0.172-0.013v-0.63h1.396l-0.555,0.557l0.264-0.021l0.488-0.49v0.447
			l0.172-0.017v-0.355l0.325,0.328l0.222-0.02l-0.427-0.429h1.471v0.341l0.171-0.016v-0.574l-0.171-0.017v0.095h-1.547l0.209-0.21
			l-0.22-0.021l-0.033,0.036v-0.038l-0.172-0.015v0.127l-0.141-0.138l-0.264-0.022l0.284,0.28h-1.473v-0.387l-0.172-0.012V36.653
			L32.053,36.653z M32.053,35.336l0.172-0.013v-0.358c-0.054,0.036-0.111,0.072-0.172,0.103V35.336L32.053,35.336z M33.101,35.247
			l0.223-0.021l-0.672-0.673c-0.036,0.046-0.072,0.09-0.11,0.13L33.101,35.247L33.101,35.247z M33.817,35.185l0.172-0.015v-0.88
			l-0.172-0.015V35.185L33.817,35.185z M34.508,35.124l0.264-0.022l0.685-0.684l-0.223-0.021L34.508,35.124L34.508,35.124z
			 M35.58,35.031l0.171-0.015v-0.573l-0.171-0.015V35.031L35.58,35.031z M32.966,33.942l0.614-0.057h-0.599L32.966,33.942
			L32.966,33.942z M34.311,28.551l0.167-0.015c-0.054-0.021-0.069-0.123-0.028-0.231l-0.054-0.013c-0.185,0.27-0.266,0.1-0.195-0.1
			l-0.059-0.003L34.135,28.2c-0.057,0.098-0.07,0.197-0.054,0.283C34.176,28.489,34.252,28.512,34.311,28.551L34.311,28.551z
			 M34.539,28.53l0.12-0.011c0.011-0.021,0.023-0.041,0.042-0.062l0,0v-0.003l-0.049-0.033v0.004
			C34.608,28.48,34.569,28.515,34.539,28.53L34.539,28.53z M37.731,28.254l1.335-0.118l-1.335-0.114V28.254L37.731,28.254z
			 M37.56,26.949h0.022c-0.064-0.072-0.105-0.163-0.11-0.269l-0.11-0.008C37.386,26.79,37.46,26.891,37.56,26.949L37.56,26.949z
			 M37.92,26.919l0.113-0.011l-0.023-0.046l-0.095,0.042L37.92,26.919L37.92,26.919z M38.406,26.877l0.133-0.012
			c-0.013-0.023-0.026-0.047-0.036-0.072l-0.1,0.025L38.406,26.877L38.406,26.877z M38.936,26.831l0.11-0.011v-0.002l-0.107-0.009
			L38.936,26.831L38.936,26.831z M38.276,26.75l-0.057-0.005c0.034,0.033,0.074,0.061,0.118,0.081
			C38.314,26.804,38.293,26.778,38.276,26.75L38.276,26.75z M34.444,26.418l-2.985-0.257l1.205-0.107
			c-0.448-0.036-0.931-0.057-1.412-0.057c-1.396,0.003-2.791,0.159-3.348,0.504v0.535c0.291-0.379,3.018-0.425,3.34-0.425h0.007
			h0.005c0.325,0,3.049,0.046,3.34,0.425v-0.535C34.552,26.473,34.5,26.445,34.444,26.418L34.444,26.418z M33.441,25.987
			c-0.299-0.02-0.555-0.235-0.652-0.634c-0.511,0.642-1.225,0.537-1.544-0.014c-0.32,0.551-1.034,0.655-1.545,0.014
			c-0.176,0.726-0.87,0.843-1.407,0.292c-0.018,0.759-0.515,0.787-1.003,0.544l0.348-0.028l-0.476-0.04
			c-0.245-0.148-0.478-0.354-0.632-0.558l0.269-0.19c0.593,0.796,1.489,1,1.062-0.316l0.299-0.134
			c0.368,0.876,1.353,1.254,1.235-0.127l0.32-0.085c0.34,0.87,1.35,1.123,1.363-0.008v-0.065v-0.011h0.003V24.62l0.164,0.004
			l0.166-0.004v0.007l0,0v0.021v0.056c0.011,1.021,0.836,0.917,1.251,0.244l0.424,0.035c-0.016,1.082,0.778,0.816,1.167,0.1
			l0.361,0.033c-0.12,0.395-0.115,0.642-0.033,0.775l-0.348,0.031c-0.021-0.081-0.034-0.17-0.036-0.276
			c-0.169,0.173-0.351,0.281-0.53,0.322L33.441,25.987L33.441,25.987z M35.234,25.831l0.53-0.046
			c0.074-0.071,0.138-0.146,0.194-0.222l-0.269-0.19C35.546,25.565,35.388,25.721,35.234,25.831L35.234,25.831z M35.751,25.213
			l-0.072-0.008c-0.03,0.03-0.059,0.062-0.089,0.09C35.644,25.27,35.7,25.244,35.751,25.213L35.751,25.213z M32.769,24.729
			l0.056-0.006l-0.049-0.013L32.769,24.729L32.769,24.729z M33.431,24.674l0.136-0.014c0.284-0.213,0.481-0.537,0.522-0.908
			l-0.369-0.033c0.005,0.041,0.005,0.079,0.005,0.121C33.725,24.156,33.618,24.443,33.431,24.674L33.431,24.674z M36.012,24.447
			l0.335-0.03c0.028-0.107,0.044-0.22,0.044-0.338c0-0.044-0.002-0.086-0.007-0.13l-0.43-0.039c0.043,0.131,0.064,0.268,0.064,0.41
			C36.017,24.362,36.017,24.407,36.012,24.447L36.012,24.447z M31.618,23.537l-0.159-0.015l0.159-0.013
			c-0.013-0.603-0.166-1.078-0.348-1.078c-0.194,0-0.35,0.525-0.35,1.172c0,0.645,0.156,0.982,0.35,0.982
			c0.192,0,0.348-0.338,0.348-0.982V23.537L31.618,23.537z M33.626,23.336l0.438-0.039c-0.103-0.435-0.422-0.79-0.84-0.938
			L32.549,22.3c-0.253,0.043-0.484,0.158-0.666,0.327c0.159-0.069,0.335-0.107,0.521-0.107
			C32.953,22.52,33.426,22.857,33.626,23.336L33.626,23.336z M35.367,23.185l0.62-0.054c-0.241-0.229-0.562-0.372-0.918-0.372
			c-0.345,0-0.657,0.132-0.893,0.349C34.334,23.038,34.511,23,34.697,23C34.943,23,35.173,23.066,35.367,23.185L35.367,23.185z
			 M26.282,23.404l0.517,0.046c0.24-0.276,0.593-0.45,0.99-0.45c0.187,0,0.36,0.038,0.521,0.107
			c-0.235-0.217-0.547-0.349-0.892-0.349C26.935,22.759,26.515,23.021,26.282,23.404L26.282,23.404z M26.681,23.606l-0.511,0.043
			c-0.046,0.136-0.074,0.279-0.074,0.43c0,0.236,0.064,0.455,0.169,0.645l0.276,0.023c-0.046-0.133-0.071-0.275-0.071-0.427
			C26.469,24.059,26.546,23.813,26.681,23.606L26.681,23.606z M26.618,24.929l-0.197,0.021c0.13,0.147,0.292,0.266,0.476,0.346
			C26.784,25.188,26.689,25.066,26.618,24.929L26.618,24.929z M23.704,25.818l0.089,0.009v-0.028h0.151v-0.126h-0.151v-0.204h-0.089
			v0.204h-0.151v0.126h0.151V25.818L23.704,25.818z M25.311,26.361l-0.169,0.015c0.071,0.078,0.115,0.179,0.115,0.292
			c0,0.125-0.054,0.233-0.135,0.309c0.148-0.063,0.255-0.211,0.255-0.385C25.377,26.507,25.351,26.428,25.311,26.361L25.311,26.361z
			 M24.646,26.42l-0.123,0.011c0.005,0.028,0.005,0.056,0.005,0.084c0,0.124-0.054,0.235-0.138,0.312
			c0.154-0.066,0.256-0.215,0.256-0.389V26.42L24.646,26.42z M23.857,26.489l-0.22,0.018c0.01,0.161,0.056,0.246,0.107,0.246
			C23.804,26.753,23.85,26.663,23.857,26.489L23.857,26.489z M22.949,26.565l-0.094,0.011c0.035,0.109,0.12,0.202,0.229,0.25
			C23.014,26.76,22.962,26.668,22.949,26.565L22.949,26.565z M22.22,26.629l-0.117,0.01c0.02,0.151,0.117,0.28,0.25,0.338
			c-0.079-0.075-0.135-0.184-0.135-0.309L22.22,26.629L22.22,26.629z M22.305,27.016l0.033,0.003l-0.015-0.016L22.305,27.016
			L22.305,27.016z M22.696,27.052l0.223,0.018c-0.062-0.044-0.125-0.114-0.161-0.207l-0.097,0.042
			C22.681,26.962,22.691,27.011,22.696,27.052L22.696,27.052z M23.093,27.085c0.043-0.038,0.069-0.12,0.057-0.267l0.1-0.025
			c0.112,0.276,0.435,0.355,0.437-0.003v-0.024l0,0l0,0l0,0h0.051h0.054l0,0l0,0v0.008v0.017c0.002,0.358,0.327,0.279,0.435,0.003
			l0.1,0.025c-0.033,0.443,0.279,0.32,0.394,0.044l0.094,0.042c-0.133,0.421,0.148,0.355,0.34,0.099l0.084,0.062
			c-0.051,0.068-0.133,0.141-0.22,0.188l-0.312-0.026c-0.016-0.033-0.028-0.077-0.028-0.133c-0.172,0.174-0.394,0.133-0.447-0.099
			c-0.164,0.206-0.392,0.176-0.494-0.001c-0.038,0.068-0.097,0.115-0.167,0.135l-0.184-0.017c-0.049-0.024-0.098-0.06-0.141-0.117
			c-0.01,0.039-0.023,0.073-0.038,0.102L23.093,27.085L23.093,27.085z M22.834,27.896l-0.358,0.031v0.422l2.522,0.217v-0.67H22.834
			L22.834,27.896z M22.947,37.617l1.581,0.136V37.25h-1.581V37.617L22.947,37.617z M24.998,38.252l-2.522,0.22v0.218h2.522V38.252
			L24.998,38.252z M30.669,21.191h0.468v-0.644h0.286v0.644h0.468v0.395h-0.468v0.645h-0.286v-0.645h-0.468V21.191L30.669,21.191z
			 M29.71,22.279c-0.729,0-1.32,0.591-1.32,1.319c0,0.545,0.327,1.011,0.798,1.213c-0.264-0.241-0.427-0.586-0.427-0.972
			c0-0.73,0.591-1.32,1.32-1.32c0.187,0,0.361,0.038,0.525,0.107C30.367,22.409,30.055,22.279,29.71,22.279z"/>
		<path fill-rule="evenodd" clip-rule="evenodd" fill="#FFCE01" d="M29.001,30.203h0.496v0.874h-0.496V30.203L29.001,30.203z
			 M31.403,38.138c0.245,0,0.445,0.199,0.445,0.441c0,0.248-0.2,0.446-0.445,0.446c-0.246,0-0.445-0.198-0.445-0.446
			C30.958,38.337,31.157,38.138,31.403,38.138L31.403,38.138z M32.303,32.638c-0.041-0.01-0.202-0.018-0.314,0.051v-0.021
			c0-0.19-0.051-0.347-0.115-0.347s-0.115,0.156-0.115,0.347v0.021c-0.11-0.068-0.273-0.061-0.314-0.051
			c-0.064,0.014,0.148,0.023,0.194,0.245c0.1,0.484,0.374,0.484,0.471,0C32.152,32.661,32.367,32.651,32.303,32.638L32.303,32.638z
			 M31.769,33.551c0.064,0.013-0.151,0.023-0.194,0.246c-0.1,0.483-0.371,0.483-0.474,0c-0.043-0.223-0.255-0.233-0.194-0.246
			c0.043-0.008,0.205-0.016,0.317,0.055v-0.021c0-0.194,0.051-0.351,0.115-0.351s0.115,0.156,0.115,0.351v0.021
			C31.567,33.535,31.725,33.543,31.769,33.551L31.769,33.551z M31.234,32.638c-0.041-0.01-0.204-0.018-0.314,0.051v-0.021
			c0-0.19-0.051-0.347-0.116-0.347c-0.063,0-0.115,0.156-0.115,0.347v0.021c-0.11-0.068-0.273-0.061-0.317-0.051
			c-0.061,0.014,0.151,0.023,0.194,0.245c0.1,0.484,0.374,0.484,0.473,0C31.083,32.661,31.298,32.651,31.234,32.638L31.234,32.638z
			 M30.84,38.196c0.737-0.753,0.563-1.763,0.563-2.949l-0.563-0.085V38.196L30.84,38.196z M30.275,34.824v3.789
			c-0.176,0.093-0.363,0.168-0.56,0.222v-4.893C29.827,34.293,30.024,34.598,30.275,34.824L30.275,34.824z M26.888,33.382v4.873
			c-0.979-0.695-0.565-3.548-0.565-4.873H26.888L26.888,33.382z M28.021,33.382v5.477c-0.202-0.049-0.392-0.118-0.57-0.21v-5.267
			H28.021L28.021,33.382z M29.147,33.382v5.559c-0.189,0.021-0.378,0.021-0.565,0.007v-5.565H29.147L29.147,33.382z M28.282,29.259
			h0.136v-0.222h-0.844v0.222h0.138v0.363h-0.207v0.829h0.207v1.103h-0.468v0.952h1.087v-1.139h0.811v1.139h0.583
			c0.107-0.318,0.281-0.595,0.504-0.806v-0.146h-0.391v-1.103h0.209v-0.829h-0.209v-0.363h0.122v-0.222h-0.844v0.222h0.151v0.363
			H29.06v-0.957h0.148v-0.222h-0.844v0.222h0.125v0.957h-0.207V29.259L28.282,29.259z M27.976,30.203h0.497v0.874h-0.497V30.203z"/>
		<path fill-rule="evenodd" clip-rule="evenodd" fill="#FCB813" d="M29.001,30.203h0.496v0.874h-0.496V30.203L29.001,30.203z
			 M31.469,34.073l-0.01-0.003h0.01c0.042-0.06,0.08-0.151,0.105-0.273c0.043-0.223,0.259-0.233,0.194-0.246
			c-0.043-0.008-0.202-0.016-0.314,0.055v-0.021c0-0.194-0.051-0.351-0.115-0.351s-0.115,0.156-0.115,0.351v0.021
			c-0.113-0.07-0.274-0.062-0.317-0.055c-0.061,0.013,0.151,0.023,0.194,0.246C31.178,34.157,31.347,34.25,31.469,34.073
			L31.469,34.073z M32.132,32.809c-0.011,0.021-0.019,0.047-0.023,0.074c-0.097,0.484-0.371,0.484-0.471,0
			c-0.01-0.05-0.031-0.092-0.053-0.122L32.132,32.809L32.132,32.809z M31.569,32.743l0.672-0.06c0.054-0.035,0.095-0.04,0.062-0.046
			c-0.041-0.01-0.202-0.018-0.314,0.051v-0.021c0-0.19-0.051-0.347-0.115-0.347s-0.115,0.156-0.115,0.347v0.021
			c-0.11-0.068-0.273-0.061-0.314-0.051C31.398,32.648,31.495,32.654,31.569,32.743L31.569,32.743z M27.505,30.104l0.133,0.012
			l-0.133,0.011v0.325h0.207v1.103h-0.468v0.952h1.087v-1.139h0.811v1.139h0.583c0.107-0.318,0.281-0.595,0.504-0.806v-0.146h-0.391
			v-1.103h0.209v-0.829h-0.209v-0.363h0.122v-0.222h-0.844v0.222h0.151v0.363H29.06v-0.957h0.148v-0.222h-0.844v0.222h0.125v0.957
			h-0.207v-0.363h0.136v-0.222h-0.844v0.222h0.138v0.363h-0.207V30.104L27.505,30.104z M26.308,33.956l0.58,0.047v-0.621h-0.565
			C26.323,33.551,26.318,33.743,26.308,33.956L26.308,33.956z M27.451,34.055l0.187,0.016l-0.187,0.015v1.287l0.187,0.015
			l-0.187,0.019v1.284l0.187,0.016l-0.187,0.018v1.284l0.187,0.018l-0.187,0.016v0.608c0.179,0.092,0.369,0.161,0.57,0.21v-5.477
			h-0.57V34.055L27.451,34.055z M26.888,34.135l-0.59,0.051c-0.018,0.338-0.039,0.705-0.051,1.081l0.642,0.057V34.135L26.888,34.135
			z M26.888,35.453l-0.647,0.057c-0.007,0.366-0.002,0.735,0.023,1.077l0.624,0.054V35.453L26.888,35.453z M26.888,36.771
			l-0.601,0.051c0.051,0.439,0.148,0.829,0.317,1.113l0.283,0.022V36.771L26.888,36.771z M26.888,38.088l-0.164,0.016
			c0.049,0.057,0.105,0.107,0.164,0.151V38.088L26.888,38.088z M31.403,38.138c0.245,0,0.445,0.199,0.445,0.441
			c0,0.248-0.2,0.446-0.445,0.446c-0.246,0-0.445-0.198-0.445-0.446C30.958,38.337,31.157,38.138,31.403,38.138L31.403,38.138z
			 M31.234,32.638c0.064,0.014-0.151,0.023-0.194,0.245c-0.1,0.484-0.373,0.484-0.473,0c-0.043-0.222-0.255-0.231-0.194-0.245
			c0.044-0.01,0.207-0.018,0.317,0.051v-0.021c0-0.19,0.051-0.347,0.115-0.347c0.064,0,0.116,0.156,0.116,0.347v0.021
			C31.03,32.62,31.193,32.628,31.234,32.638L31.234,32.638z M30.84,38.196c0.737-0.753,0.563-1.763,0.563-2.949l-0.563-0.085V38.196
			L30.84,38.196z M30.275,34.824v3.789c-0.176,0.093-0.363,0.168-0.56,0.222v-4.893C29.827,34.293,30.024,34.598,30.275,34.824
			L30.275,34.824z M29.147,33.382v5.559c-0.189,0.021-0.378,0.021-0.565,0.007v-5.565H29.147L29.147,33.382z M27.976,30.203h0.497
			v0.874h-0.497V30.203z"/>
	</g>
</g>
</svg>
