<?xml version="1.0" encoding="utf-8"?>
<!-- Generator: Adobe Illustrator 15.0.0, SVG Export Plug-In . SVG Version: 6.00 Build 0)  -->
<!DOCTYPE svg PUBLIC "-//W3C//DTD SVG 1.1//EN" "http://www.w3.org/Graphics/SVG/1.1/DTD/svg11.dtd">
<svg version="1.1" id="Layer_1" xmlns="http://www.w3.org/2000/svg" xmlns:xlink="http://www.w3.org/1999/xlink" x="0px" y="0px"
	 width="121.739px" height="65.218px" viewBox="0 0 121.739 65.218" enable-background="new 0 0 121.739 65.218"
	 xml:space="preserve">
<g>
	<rect x="12.374" y="5.003" fill-rule="evenodd" clip-rule="evenodd" fill="#231F20" width="99.75" height="52.879"/>
	<g>
		<rect x="13.25" y="5.883" fill-rule="evenodd" clip-rule="evenodd" fill="#0067B3" width="97.997" height="51.12"/>
		<path fill-rule="evenodd" clip-rule="evenodd" fill="#004589" d="M25.891,5.883h7.315l5.86,0.507l-7.607,0.66l7.607,0.654
			l-7.607,0.659l7.607,0.655l-7.607,0.66l7.607,0.66l-7.607,0.654l7.607,0.659l-7.607,0.654l7.607,0.66l-7.607,0.655l7.607,0.66
			l-7.607,0.655l7.607,0.659l-7.607,0.654l7.607,0.666l-7.607,0.654l7.607,0.655l-7.607,0.659l7.607,0.655l-7.607,0.665l7.607,0.649
			l-7.607,0.66l7.607,0.66l-7.607,0.654l7.607,0.66l-7.607,0.655l7.607,0.66l-7.607,0.66l7.607,0.653l-7.607,0.66l7.607,0.655
			l-7.607,0.66l7.607,0.654l-7.607,0.661l7.607,0.653l-7.607,0.66l7.607,0.659l-7.607,0.655l7.607,0.66l-7.607,0.659l7.607,0.655
			l-7.607,0.66l7.607,0.654l-7.607,0.66l7.607,0.655l-7.607,0.659l7.607,0.655l-7.607,0.66l7.607,0.654l-7.607,0.66l7.607,0.659
			l-7.607,0.655l7.607,0.66l-7.607,0.66l7.607,0.655l-7.607,0.659l7.607,0.654l-7.607,0.66l7.607,0.655l-7.607,0.66l7.607,0.654
			l-7.607,0.66l7.607,0.66l-7.607,0.66l7.607,0.654l-7.607,0.66l7.607,0.654l-7.607,0.654l7.607,0.66l-7.607,0.661l7.607,0.654
			l-7.607,0.66l7.607,0.659l-7.607,0.655l7.607,0.659l-7.215,0.625h-4.604l-7.215-0.625l7.607-0.659l-7.607-0.655l7.607-0.659
			l-7.607-0.66l7.607-0.654l-7.607-0.661l7.607-0.66l-7.607-0.654l7.607-0.654l-7.607-0.66l7.607-0.654l-7.607-0.66l7.607-0.66
			l-7.607-0.66l7.607-0.654l-7.607-0.66l7.607-0.655l-7.607-0.66l7.607-0.654l-7.607-0.659l7.607-0.655l-7.607-0.66l7.607-0.66
			l-7.607-0.655l7.607-0.659l-7.607-0.66l7.607-0.654l-7.607-0.66l7.607-0.655l-7.607-0.659l7.607-0.655l-7.607-0.66l7.607-0.654
			l-7.607-0.66l7.607-0.655l-7.607-0.659l7.607-0.66l-7.607-0.655l7.607-0.659l-7.607-0.66l7.607-0.653l-7.607-0.661l7.607-0.654
			l-7.607-0.66l7.607-0.655l-7.607-0.66l7.607-0.653l-7.607-0.66l7.607-0.66l-7.607-0.655l7.607-0.66l-7.607-0.654l7.607-0.66
			l-7.607-0.66l7.607-0.649l-7.607-0.665l7.607-0.655l-7.607-0.659l7.607-0.655l-7.607-0.654l7.607-0.666l-7.607-0.654l7.607-0.659
			l-7.607-0.655l7.607-0.66l-7.607-0.655l7.607-0.66l-7.607-0.654l7.607-0.659l-7.607-0.654l7.607-0.66l-7.607-0.66l7.607-0.655
			l-7.607-0.659l7.607-0.654l-7.607-0.66L25.891,5.883L25.891,5.883z M58.59,5.883h7.317l5.857,0.507l-7.604,0.66l7.604,0.654
			l-7.606,0.659l7.606,0.655l-7.604,0.66l7.604,0.66l-7.604,0.654l7.604,0.659l-7.604,0.654l7.604,0.66l-7.606,0.655l7.606,0.66
			l-7.604,0.655l7.604,0.659l-7.604,0.654l7.604,0.666l-7.604,0.654l7.604,0.655l-7.604,0.659l7.604,0.655l-7.604,0.665l7.604,0.649
			l-7.604,0.66l7.604,0.66l-7.604,0.654l7.604,0.66l-7.604,0.655l7.604,0.66l-7.604,0.66l7.604,0.653l-7.604,0.66l7.604,0.655
			l-7.604,0.66l7.604,0.654l-7.604,0.661l7.604,0.653l-7.604,0.66l7.604,0.659l-7.604,0.655l7.604,0.66l-7.604,0.659l7.604,0.655
			l-7.604,0.66l7.604,0.654l-7.604,0.66l7.604,0.655l-7.604,0.659l7.604,0.655l-7.604,0.66l7.604,0.654l-7.604,0.66l7.604,0.659
			l-7.604,0.655l7.604,0.66l-7.604,0.66l7.604,0.655l-7.604,0.659l7.604,0.654l-7.604,0.66l7.604,0.655l-7.604,0.66l7.604,0.654
			l-7.604,0.66l7.604,0.66l-7.604,0.66l7.604,0.654l-7.604,0.66l7.604,0.654l-7.604,0.654l7.604,0.66l-7.604,0.661l7.605,0.654
			l-7.605,0.66l7.604,0.659l-7.604,0.655l7.604,0.659l-7.213,0.625h-4.606l-7.215-0.625l7.606-0.659l-7.606-0.655l7.606-0.659
			l-7.606-0.66l7.606-0.654l-7.606-0.661l7.606-0.66l-7.606-0.654l7.606-0.654L52.73,49.8l7.606-0.654l-7.606-0.66l7.606-0.66
			l-7.606-0.66l7.606-0.654l-7.606-0.66l7.606-0.655l-7.606-0.66l7.606-0.654l-7.606-0.659l7.606-0.655l-7.606-0.66l7.606-0.66
			l-7.606-0.655l7.606-0.659l-7.606-0.66l7.606-0.654l-7.606-0.66l7.606-0.655l-7.606-0.659l7.606-0.655l-7.606-0.66l7.606-0.654
			l-7.606-0.66l7.606-0.655l-7.606-0.659l7.606-0.66l-7.606-0.655l7.606-0.659l-7.606-0.66l7.606-0.653l-7.606-0.661l7.606-0.654
			l-7.606-0.66l7.606-0.655l-7.606-0.66l7.606-0.653l-7.606-0.66l7.606-0.66L52.73,23.49l7.606-0.66l-7.606-0.654l7.606-0.66
			l-7.606-0.66l7.606-0.649l-7.606-0.665l7.606-0.655l-7.606-0.659l7.606-0.655l-7.606-0.654l7.606-0.666l-7.606-0.654l7.606-0.659
			l-7.606-0.655l7.606-0.66l-7.606-0.655l7.606-0.66l-7.606-0.654l7.606-0.659l-7.606-0.654l7.606-0.66l-7.606-0.66l7.606-0.655
			L52.73,7.704l7.606-0.654L52.73,6.39L58.59,5.883L58.59,5.883z M91.288,5.883h7.318l5.857,0.507l-7.604,0.66l7.604,0.654
			l-7.604,0.659l7.604,0.655l-7.604,0.66l7.604,0.66l-7.604,0.654l7.604,0.659l-7.604,0.654l7.604,0.66l-7.604,0.655l7.604,0.66
			l-7.604,0.655l7.604,0.659l-7.604,0.654l7.604,0.666l-7.604,0.654l7.604,0.655l-7.604,0.659l7.604,0.655l-7.604,0.665l7.604,0.649
			l-7.604,0.66l7.604,0.66l-7.604,0.654l7.604,0.66l-7.604,0.655l7.604,0.66l-7.604,0.66l7.604,0.653l-7.604,0.66l7.604,0.655
			l-7.604,0.66l7.604,0.654l-7.604,0.661l7.604,0.653l-7.604,0.66l7.604,0.659l-7.604,0.655l7.604,0.66l-7.604,0.659l7.604,0.655
			l-7.604,0.66l7.604,0.654l-7.604,0.66l7.604,0.655l-7.604,0.659l7.604,0.655l-7.604,0.66l7.604,0.654l-7.604,0.66l7.604,0.659
			l-7.604,0.655l7.604,0.66l-7.604,0.66l7.604,0.655l-7.604,0.659l7.604,0.654l-7.604,0.66l7.604,0.655l-7.604,0.66l7.604,0.654
			l-7.604,0.66l7.604,0.66l-7.604,0.66l7.604,0.654l-7.604,0.66l7.604,0.654l-7.604,0.654l7.604,0.66l-7.604,0.661l7.606,0.654
			l-7.606,0.66l7.604,0.659l-7.604,0.655l7.604,0.659l-7.213,0.625h-4.607l-7.215-0.625l7.607-0.659l-7.607-0.655l7.607-0.659
			l-7.607-0.66l7.607-0.654l-7.607-0.661l7.607-0.66l-7.607-0.654l7.607-0.654l-7.607-0.66l7.607-0.654l-7.607-0.66l7.607-0.66
			l-7.607-0.66l7.607-0.654l-7.607-0.66l7.607-0.655l-7.607-0.66l7.607-0.654l-7.607-0.659l7.607-0.655l-7.607-0.66l7.607-0.66
			l-7.607-0.655l7.607-0.659l-7.607-0.66l7.607-0.654l-7.607-0.66l7.607-0.655l-7.607-0.659l7.607-0.655l-7.607-0.66l7.607-0.654
			l-7.607-0.66l7.607-0.655l-7.607-0.659l7.607-0.66l-7.607-0.655l7.607-0.659l-7.607-0.66l7.607-0.653l-7.607-0.661l7.607-0.654
			l-7.607-0.66l7.607-0.655l-7.607-0.66l7.607-0.653l-7.607-0.66l7.607-0.66l-7.607-0.655l7.607-0.66l-7.607-0.654l7.607-0.66
			l-7.607-0.66l7.607-0.649l-7.607-0.665l7.607-0.655l-7.607-0.659l7.607-0.655l-7.607-0.654l7.607-0.666l-7.607-0.654l7.607-0.659
			l-7.607-0.655l7.607-0.66l-7.607-0.655l7.607-0.66l-7.607-0.654l7.607-0.659l-7.607-0.654l7.607-0.66l-7.605-0.66l7.605-0.655
			l-7.607-0.659l7.607-0.654l-7.607-0.66L91.288,5.883z"/>
		<path fill-rule="evenodd" clip-rule="evenodd" fill="#FFFFFF" d="M13.25,51.323h97.997v-5.683H13.25V51.323L13.25,51.323z
			 M41.685,17.244v5.678h69.562v5.68H41.573v-5.68H30.244v11.362h81.003v5.679H13.25v-5.679h11.329V22.922H13.25v-5.678h11.329
			V5.883h5.666v11.361h11.329v-5.679h69.674v5.679H41.685z"/>
		<path fill-rule="evenodd" clip-rule="evenodd" fill="#D8E1E7" d="M22.42,51.323h14.256l2.389-0.209l-7.607-0.654l7.607-0.66
			l-7.607-0.654l7.607-0.66l-7.607-0.66l7.607-0.66l-7.607-0.654l7.607-0.66l-2.442-0.21H22.476l-2.445,0.21l7.607,0.66
			l-7.607,0.654l7.607,0.66l-7.607,0.66l7.607,0.66L20.031,49.8l7.607,0.66l-7.607,0.654L22.42,51.323L22.42,51.323z M55.119,51.323
			h14.257l2.389-0.209l-7.604-0.654l7.604-0.66l-7.604-0.654l7.604-0.66l-7.604-0.66l7.604-0.66l-7.604-0.654l7.604-0.66
			l-2.443-0.21H55.175l-2.445,0.21l7.606,0.66l-7.606,0.654l7.606,0.66l-7.606,0.66l7.606,0.66L52.73,49.8l7.606,0.66l-7.606,0.654
			L55.119,51.323L55.119,51.323z M87.817,51.323h14.258l2.389-0.209l-7.604-0.654l7.604-0.66l-7.604-0.654l7.604-0.66l-7.604-0.66
			l7.604-0.66l-7.604-0.654l7.604-0.66l-2.443-0.21H87.874l-2.445,0.21l7.607,0.66l-7.607,0.654l7.607,0.66l-7.607,0.66l7.607,0.66
			L85.429,49.8l7.607,0.66l-7.607,0.654L87.817,51.323L87.817,51.323z M25.886,5.883l-1.307,0.112v0.788l3.06,0.267l-3.06,0.26
			v0.787l3.06,0.267l-3.06,0.266v0.783l3.06,0.267l-3.06,0.266v0.783l3.06,0.266l-3.06,0.267v0.781l3.06,0.266l-3.06,0.267v0.788
			l3.06,0.261l-3.06,0.267v0.787l3.06,0.262l-3.06,0.267v0.787l3.06,0.26l-3.06,0.267v0.727H23.85l3.788,0.327l-7.607,0.655
			l7.607,0.659l-7.607,0.655l7.607,0.665l-7.607,0.649l7.607,0.66l-7.607,0.66l7.607,0.654l-3.06,0.266v0.788l3.06,0.262
			l-3.06,0.266v0.788l3.06,0.267l-3.06,0.26v0.787l3.06,0.267l-3.06,0.266v0.783l3.06,0.267l-3.06,0.266v0.782l3.06,0.268
			l-3.06,0.266v0.787l3.06,0.261l-3.06,0.266v0.788l3.06,0.261l-3.06,0.267v0.787l3.06,0.266l-3.06,0.263v0.664h-1.44l4.5,0.389
			l-7.607,0.654l7.607,0.66l-7.607,0.655l7.607,0.659l-7.607,0.655l7.607,0.66l-7.607,0.654l7.607,0.66l-0.333,0.031h4.487
			l-0.333-0.031l7.607-0.66l-7.607-0.654l7.607-0.66l-7.607-0.655l7.607-0.659l-7.607-0.655l7.607-0.66l-7.607-0.654l4.5-0.389
			h-5.714V22.922h2.276l-1.062-0.092l7.607-0.654l-7.607-0.66l7.607-0.66l-7.607-0.649l7.607-0.665l-7.607-0.655l7.607-0.659
			l-7.607-0.655l3.791-0.327h-5.006V5.883H25.886L25.886,5.883z M53.743,11.565l-1.013,0.087l7.606,0.654l-7.606,0.66l7.606,0.655
			l-7.606,0.66l7.606,0.655l-7.606,0.659l7.606,0.654l-7.606,0.666l3.819,0.327h11.399l3.816-0.327l-7.604-0.666l7.604-0.654
			l-7.604-0.659l7.604-0.655l-7.606-0.66l7.606-0.655l-7.604-0.66l7.604-0.654l-1.01-0.087H53.743L53.743,11.565z M59.288,22.922
			L52.73,23.49l7.606,0.655l-7.606,0.66l7.606,0.66l-7.606,0.653l7.606,0.66l-7.606,0.655l7.606,0.66l-5.893,0.507h15.61
			l-5.893-0.507l7.604-0.66l-7.604-0.655l7.604-0.66l-7.604-0.653l7.604-0.66l-7.604-0.66l7.604-0.655l-6.545-0.568H59.288
			L59.288,22.922z M55.84,34.284l4.496,0.389l-7.606,0.654l7.606,0.66l-7.606,0.655l7.606,0.659l-7.606,0.655l7.606,0.66
			l-7.606,0.654l7.606,0.66l-0.33,0.031h4.484l-0.33-0.031l7.604-0.66l-7.604-0.654l7.604-0.66l-7.604-0.655l7.604-0.659
			l-7.604-0.655l7.604-0.66l-7.604-0.654l4.496-0.389H55.84L55.84,34.284z M86.441,11.565l-1.013,0.087l7.607,0.654l-7.607,0.66
			l7.607,0.655l-7.607,0.66l7.607,0.655l-7.607,0.659l7.607,0.654l-7.607,0.666l3.818,0.327h11.4l3.816-0.327l-7.604-0.666
			l7.604-0.654l-7.604-0.659l7.604-0.655l-7.604-0.66l7.604-0.655l-7.604-0.66l7.604-0.654l-1.011-0.087H86.441L86.441,11.565z
			 M91.989,22.922l-6.561,0.568l7.607,0.655l-7.607,0.66l7.607,0.66l-7.607,0.653l7.607,0.66l-7.607,0.655l7.607,0.66l-5.895,0.507
			h15.611l-5.894-0.507l7.604-0.66l-7.604-0.655l7.604-0.66l-7.604-0.653l7.604-0.66l-7.604-0.66l7.604-0.655l-6.543-0.568H91.989
			L91.989,22.922z M88.538,34.284l4.498,0.389l-7.607,0.654l7.607,0.66l-7.607,0.655l7.607,0.659l-7.607,0.655l7.607,0.66
			l-7.607,0.654l7.607,0.66l-0.33,0.031h4.482l-0.329-0.031l7.604-0.66l-7.604-0.654l7.604-0.66l-7.604-0.655l7.604-0.659
			l-7.604-0.655l7.604-0.66l-7.604-0.654l4.496-0.389H88.538z"/>
	</g>
</g>
</svg>
