<?xml version="1.0" encoding="utf-8"?>
<!-- Generator: Adobe Illustrator 15.0.0, SVG Export Plug-In . SVG Version: 6.00 Build 0)  -->
<!DOCTYPE svg PUBLIC "-//W3C//DTD SVG 1.1//EN" "http://www.w3.org/Graphics/SVG/1.1/DTD/svg11.dtd">
<svg version="1.1" id="Layer_1" xmlns="http://www.w3.org/2000/svg" xmlns:xlink="http://www.w3.org/1999/xlink" x="0px" y="0px"
	 width="121.739px" height="65.218px" viewBox="0 0 121.739 65.218" enable-background="new 0 0 121.739 65.218"
	 xml:space="preserve">
<g>
	<rect x="12.019" y="4.579" fill-rule="evenodd" clip-rule="evenodd" fill="#231F20" width="99.774" height="52.888"/>
	<g>
		<rect x="12.899" y="22.501" fill-rule="evenodd" clip-rule="evenodd" fill="#FFFFFF" width="98.014" height="17.042"/>
		<path fill-rule="evenodd" clip-rule="evenodd" fill="#D8E1E7" d="M27.261,39.543h3.875l7.583-0.655l-7.607-0.661l7.607-0.657
			l-7.607-0.66l7.607-0.66l-7.607-0.66l7.607-0.659l-7.607-0.655l7.607-0.662l-7.607-0.66l7.607-0.657l-7.607-0.66l7.607-0.66
			l-7.607-0.66l7.607-0.659l-7.607-0.657l7.607-0.66l-7.607-0.658l7.607-0.659l-7.607-0.659l7.607-0.663l-7.607-0.657l7.607-0.66
			l-7.607-0.657l7.607-0.66l-6.481-0.562h-6.077l-6.482,0.562l7.61,0.66l-7.61,0.657l7.61,0.66l-7.61,0.657l7.61,0.663l-7.61,0.659
			l7.61,0.659l-7.61,0.658l7.61,0.657l-7.61,0.66l7.61,0.659l-7.61,0.66l7.61,0.66l-7.61,0.66l7.61,0.657l-7.61,0.66l7.61,0.66
			l-7.61,0.657l7.61,0.659l-7.61,0.66l7.61,0.66l-7.61,0.66l7.61,0.657l-7.61,0.661L27.261,39.543L27.261,39.543z M59.967,39.543
			h3.878l7.582-0.655l-7.607-0.661l7.607-0.657l-7.607-0.66l7.607-0.66l-7.607-0.66l7.607-0.659l-7.607-0.655l7.607-0.662
			l-7.607-0.66l7.607-0.657l-7.607-0.66l7.607-0.66l-7.607-0.66l7.607-0.659l-7.607-0.657l7.607-0.66l-7.607-0.658l7.607-0.659
			l-7.607-0.659l7.607-0.663l-7.607-0.657l7.607-0.66l-7.607-0.657l7.607-0.66l-6.482-0.562h-6.077l-6.481,0.562l7.606,0.66
			l-7.606,0.657l7.606,0.66l-7.606,0.657l7.606,0.663l-7.606,0.659l7.606,0.659l-7.606,0.658l7.606,0.657l-7.606,0.66l7.606,0.659
			l-7.606,0.66l7.606,0.66l-7.606,0.66l7.606,0.657l-7.606,0.66l7.606,0.66l-7.606,0.657l7.606,0.659l-7.606,0.66l7.606,0.66
			l-7.606,0.66l7.606,0.657l-7.606,0.661L59.967,39.543L59.967,39.543z M92.674,39.543h3.874l7.582-0.655l-7.607-0.661l7.607-0.657
			l-7.607-0.66l7.607-0.66l-7.607-0.66l7.607-0.659l-7.607-0.655l7.61-0.662l-7.61-0.66l7.607-0.657l-7.607-0.66l7.607-0.66
			l-7.607-0.66l7.607-0.659l-7.607-0.657l7.607-0.66l-7.607-0.658l7.607-0.659l-7.607-0.659l7.61-0.663l-7.61-0.657l7.607-0.66
			l-7.607-0.657l7.607-0.66l-6.479-0.562h-6.08l-6.479,0.562l7.606,0.66l-7.606,0.657l7.606,0.66l-7.606,0.657l7.606,0.663
			l-7.606,0.659l7.606,0.659l-7.606,0.658l7.606,0.657l-7.606,0.66l7.606,0.659l-7.606,0.66l7.606,0.66l-7.606,0.66l7.606,0.657
			l-7.606,0.66l7.606,0.66l-7.606,0.657l7.606,0.659l-7.606,0.66l7.606,0.66l-7.606,0.66l7.606,0.657l-7.606,0.661L92.674,39.543z"
			/>
		<path fill-rule="evenodd" clip-rule="evenodd" fill="#0091D4" d="M12.899,39.543h98.014v17.043H12.899V39.543L12.899,39.543z
			 M61.906,28.862l0.534,1.655l1.736-0.003l-1.406,1.018l0.54,1.653l-1.404-1.023l-1.404,1.023l0.54-1.653l-1.41-1.018l1.74,0.003
			L61.906,28.862L61.906,28.862z M74.49,24.398l0.534,1.655l1.737-0.006l-1.407,1.021l0.54,1.652l-1.404-1.025l-1.403,1.025
			l0.539-1.652l-1.407-1.021l1.739,0.006L74.49,24.398L74.49,24.398z M74.49,33.329l0.534,1.654l1.737-0.004l-1.407,1.019
			l0.54,1.652l-1.404-1.023l-1.403,1.023l0.539-1.652l-1.407-1.019l1.739,0.004L74.49,33.329L74.49,33.329z M49.322,33.329
			l0.532,1.654l1.74-0.004l-1.41,1.019l0.542,1.652l-1.404-1.023l-1.407,1.023l0.542-1.652l-1.409-1.019l1.74,0.004L49.322,33.329
			L49.322,33.329z M49.322,24.398l0.532,1.655l1.74-0.006l-1.41,1.021l0.542,1.652l-1.404-1.025l-1.407,1.025l0.542-1.652
			l-1.409-1.021l1.74,0.006L49.322,24.398L49.322,24.398z M12.899,5.458h98.014v17.042H12.899V5.458z"/>
		<path fill-rule="evenodd" clip-rule="evenodd" fill="#0077BF" d="M27.261,39.543h3.875l-0.023,0.004l7.607,0.66l-7.607,0.659
			l7.607,0.656l-7.607,0.66l7.607,0.66l-7.607,0.66l7.607,0.659l-7.607,0.66l7.607,0.66l-7.607,0.658L38.72,46.8l-7.607,0.657
			l7.607,0.66l-7.607,0.66l7.607,0.662l-7.607,0.657l7.607,0.657l-7.607,0.658l7.607,0.662l-7.607,0.657l7.607,0.66l-7.607,0.663
			l7.607,0.657l-7.607,0.659l7.607,0.657l-6.427,0.558h-6.185l-6.429-0.558l7.61-0.657l-7.61-0.659l7.61-0.657l-7.61-0.663
			l7.61-0.66l-7.61-0.655l7.61-0.664l-7.61-0.658l7.61-0.657l-7.61-0.657l7.61-0.662l-7.61-0.66l7.61-0.66l-7.61-0.657l7.61-0.659
			l-7.61-0.658l7.61-0.662l-7.61-0.658l7.61-0.659l-7.61-0.66l7.61-0.66l-7.61-0.66l7.61-0.656l-7.61-0.659l7.61-0.66L27.261,39.543
			L27.261,39.543z M59.967,39.543h3.878l-0.025,0.004l7.607,0.66l-7.607,0.659l7.607,0.656l-7.607,0.66l7.607,0.66l-7.607,0.66
			l7.607,0.659l-7.607,0.66l7.607,0.66l-7.607,0.658l7.607,0.659l-7.607,0.657l7.607,0.66l-7.607,0.66l7.607,0.662l-7.607,0.657
			l7.607,0.657l-7.607,0.658l7.607,0.662l-7.607,0.657l7.607,0.66l-7.607,0.663l7.607,0.657l-7.607,0.659l7.607,0.657l-6.429,0.558
			h-6.187l-6.425-0.558l7.606-0.657l-7.606-0.659l7.606-0.657l-7.606-0.663l7.606-0.66l-7.606-0.655l7.606-0.664l-7.606-0.658
			l7.606-0.657l-7.606-0.657l7.606-0.662l-7.606-0.66l7.606-0.66L52.386,46.8l7.606-0.659l-7.606-0.658l7.606-0.662l-7.606-0.658
			l7.606-0.659l-7.606-0.66l7.606-0.66l-7.606-0.66l7.606-0.656l-7.606-0.659l7.606-0.66L59.967,39.543L59.967,39.543z
			 M92.674,39.543h3.874l-0.025,0.004l7.607,0.66l-7.607,0.659l7.61,0.656l-7.61,0.66l7.607,0.66l-7.607,0.66l7.607,0.659
			l-7.607,0.66l7.61,0.66l-7.61,0.658l7.607,0.659l-7.607,0.657l7.607,0.66l-7.607,0.66l7.607,0.662l-7.607,0.657l7.607,0.657
			l-7.607,0.658l7.607,0.662l-7.607,0.657l7.607,0.66l-7.607,0.663l7.607,0.657l-7.607,0.659l7.61,0.657l-6.429,0.558h-6.184
			l-6.428-0.558l7.606-0.657l-7.606-0.659l7.606-0.657l-7.606-0.663l7.606-0.66l-7.606-0.655l7.606-0.664l-7.606-0.658l7.606-0.657
			l-7.606-0.657l7.606-0.662l-7.606-0.66l7.606-0.66L85.093,46.8l7.606-0.659l-7.606-0.658l7.606-0.662l-7.606-0.658l7.606-0.659
			l-7.606-0.66l7.606-0.66l-7.606-0.66l7.606-0.656l-7.606-0.659l7.606-0.66L92.674,39.543L92.674,39.543z M97.651,22.501
			l-1.129-0.098l7.61-0.66l-7.61-0.656l7.61-0.662l-7.61-0.658l7.607-0.66l-7.607-0.659l7.607-0.66l-7.607-0.657l7.607-0.66
			l-7.607-0.659l7.607-0.663l-7.607-0.657l7.61-0.658l-7.61-0.66l7.607-0.656l-7.607-0.663l7.61-0.657l-7.61-0.66l7.61-0.659
			l-7.61-0.66l7.607-0.66l-7.607-0.659l7.61-0.66l-7.61-0.66l7.607-0.66l-5.311-0.459h-8.414l-5.312,0.459l7.606,0.66l-7.606,0.66
			l7.606,0.66l-7.606,0.659l7.606,0.66l-7.606,0.66l7.606,0.659l-7.606,0.66l7.606,0.657l-7.606,0.663l7.606,0.656l-7.606,0.66
			l7.606,0.658l-7.606,0.657l7.606,0.663l-7.606,0.659l7.606,0.66l-7.606,0.657l7.609,0.66l-7.609,0.659l7.606,0.66l-7.609,0.658
			l7.609,0.662l-7.609,0.656l7.609,0.66l-1.128,0.098H97.651L97.651,22.501z M32.238,22.501l-1.125-0.098l7.607-0.66l-7.607-0.656
			l7.607-0.662l-7.607-0.658l7.607-0.66l-7.609-0.659l7.609-0.66l-7.607-0.657l7.607-0.66l-7.607-0.659l7.607-0.663l-7.607-0.657
			l7.607-0.658l-7.607-0.66l7.607-0.656l-7.607-0.663l7.607-0.657l-7.607-0.66l7.607-0.659l-7.609-0.66l7.609-0.66l-7.607-0.659
			l7.607-0.66l-7.607-0.66l7.607-0.66l-5.312-0.459h-8.415l-5.313,0.459l7.61,0.66l-7.607,0.66l7.607,0.66l-7.61,0.659l7.61,0.66
			l-7.61,0.66l7.61,0.659l-7.61,0.66l7.61,0.657l-7.61,0.663l7.61,0.656l-7.61,0.66l7.61,0.658l-7.61,0.657l7.61,0.663l-7.61,0.659
			l7.61,0.66l-7.61,0.657l7.61,0.66l-7.61,0.659l7.61,0.66l-7.61,0.658l7.61,0.662l-7.61,0.656l7.61,0.66l-1.128,0.098H32.238
			L32.238,22.501z M58.867,22.501l1.125-0.098l-7.606-0.66l7.606-0.656l-7.606-0.662l7.606-0.658l-7.606-0.66l7.609-0.659
			l-7.609-0.66l7.606-0.657l-7.606-0.66l7.606-0.659l-7.606-0.663l7.606-0.657l-7.606-0.658l7.606-0.66l-7.606-0.656l7.606-0.663
			l-7.606-0.657l7.606-0.66l-7.606-0.659l7.606-0.66l-7.606-0.66l7.606-0.659l-7.606-0.66l7.606-0.66l-7.606-0.66l5.312-0.459h8.415
			l5.313,0.459l-7.607,0.66l7.607,0.66l-7.607,0.66l7.607,0.659l-7.609,0.66l7.609,0.66l-7.607,0.659l7.607,0.66l-7.607,0.657
			l7.607,0.663l-7.607,0.656l7.607,0.66l-7.607,0.658l7.607,0.657l-7.607,0.663l7.607,0.659l-7.607,0.66l7.607,0.657l-7.609,0.66
			l7.609,0.659l-7.607,0.66l7.607,0.658l-7.607,0.662l7.607,0.656l-7.607,0.66l1.125,0.098H58.867L58.867,22.501z M61.906,28.862
			l0.534,1.655l1.736-0.003l-1.406,1.018l0.54,1.653l-1.404-1.023l-1.404,1.023l0.54-1.653l-1.41-1.018l1.74,0.003L61.906,28.862z"
			/>
	</g>
</g>
</svg>
