<?xml version="1.0" encoding="utf-8"?>
<!-- Generator: Adobe Illustrator 15.0.0, SVG Export Plug-In . SVG Version: 6.00 Build 0)  -->
<!DOCTYPE svg PUBLIC "-//W3C//DTD SVG 1.1//EN" "http://www.w3.org/Graphics/SVG/1.1/DTD/svg11.dtd">
<svg version="1.1" id="Layer_1" xmlns="http://www.w3.org/2000/svg" xmlns:xlink="http://www.w3.org/1999/xlink" x="0px" y="0px"
	 width="121.739px" height="65.218px" viewBox="0 0 121.739 65.218" enable-background="new 0 0 121.739 65.218"
	 xml:space="preserve">
<g>
	<rect x="12.019" y="4.483" fill-rule="evenodd" clip-rule="evenodd" fill="#231F20" width="99.774" height="52.887"/>
	<g>
		<rect x="12.899" y="5.363" fill-rule="evenodd" clip-rule="evenodd" fill="#0DB04B" width="98.014" height="17.042"/>
		<path fill-rule="evenodd" clip-rule="evenodd" fill="#00954E" d="M92.431,5.363h4.363l-0.271,0.023l7.61,0.66l-7.61,0.654
			l7.61,0.657l-7.61,0.656l7.607,0.66l-7.607,0.657l7.61,0.66l-7.61,0.658l7.607,0.653l-6.908,0.6l6.908,0.701l-0.107,0.01
			l0.107,0.008l-7.499,0.646l7.499,0.649l-0.105,0.011l0.105,0.011l-6.906,0.698l6.909,0.596l-7.61,0.66l7.61,0.657l-7.61,0.657
			l7.607,0.66l-7.607,0.654l7.61,0.66l-7.61,0.658l7.61,0.656l-7.61,0.66l7.607,0.657l-6.852,0.591h-5.334l-6.852-0.591l7.606-0.657
			l-7.606-0.66l7.606-0.656l-7.606-0.658l7.606-0.66l-7.606-0.654l7.606-0.66l-7.609-0.657l7.609-0.657l-7.606-0.66l6.908-0.596
			l-6.908-0.698l0.107-0.011l-0.107-0.011l7.502-0.649l-7.502-0.646l0.107-0.008l-0.107-0.01l6.908-0.701l-6.908-0.6l7.606-0.653
			L85.09,9.992l7.609-0.66l-7.606-0.657l7.606-0.66l-7.606-0.656l7.606-0.657l-7.606-0.654l7.606-0.66L92.431,5.363L92.431,5.363z
			 M27.018,5.363h4.364l-0.269,0.023l7.607,0.66l-7.607,0.654l7.607,0.657l-7.607,0.656l7.607,0.66l-7.607,0.657l7.607,0.66
			l-7.607,0.658l7.607,0.653l-6.911,0.6l6.911,0.701l-0.107,0.01l0.107,0.008l-7.499,0.646l7.499,0.649l-0.107,0.011l0.107,0.011
			l-6.908,0.698l6.908,0.596l-7.607,0.66l7.607,0.657l-7.609,0.657l7.609,0.66l-7.607,0.654l7.607,0.66l-7.607,0.658l7.607,0.656
			l-7.609,0.66l7.609,0.657l-6.852,0.591h-5.336l-6.85-0.591l7.607-0.657l-7.61-0.66l7.61-0.656l-7.61-0.658l7.61-0.66l-7.61-0.654
			l7.61-0.66l-7.61-0.657l7.61-0.657l-7.61-0.66l6.909-0.596l-6.909-0.698l0.108-0.011l-0.108-0.011l7.502-0.649l-7.502-0.646
			l0.108-0.008l-0.105-0.01l6.909-0.701l-6.912-0.6l7.61-0.653l-7.61-0.658l7.61-0.66l-7.61-0.657l7.61-0.66l-7.61-0.656l7.61-0.657
			l-7.61-0.654l7.61-0.66L27.018,5.363L27.018,5.363z M59.725,5.363h4.363l-0.269,0.023l7.607,0.66l-7.607,0.654l7.607,0.657
			l-7.607,0.656l7.607,0.66l-7.607,0.657l7.607,0.66l-7.607,0.658l7.607,0.653l-6.912,0.6l6.912,0.701l-0.107,0.01l0.107,0.008
			l-7.502,0.646l7.502,0.649l-0.107,0.011l0.107,0.011l-6.909,0.698l6.909,0.596l-7.607,0.66l7.607,0.657l-7.609,0.657l7.609,0.66
			l-7.607,0.654l7.607,0.66l-7.607,0.658l7.607,0.656l-7.609,0.66l7.609,0.657l-6.855,0.591h-5.33l-6.855-0.591l7.606-0.657
			l-7.606-0.66l7.606-0.656l-7.606-0.658l7.606-0.66l-7.606-0.654l7.606-0.66l-7.606-0.657l7.606-0.657l-7.606-0.66l6.908-0.596
			l-6.908-0.698l0.107-0.011l-0.107-0.011l7.499-0.649l-7.499-0.646l0.107-0.008l-0.107-0.01l6.911-0.701l-6.911-0.6l7.606-0.653
			l-7.606-0.658l7.606-0.66l-7.606-0.657l7.606-0.66l-7.606-0.656l7.606-0.657l-7.606-0.654l7.606-0.66L59.725,5.363z"/>
		<rect x="12.899" y="39.448" fill-rule="evenodd" clip-rule="evenodd" fill="#EC1C24" width="98.014" height="17.042"/>
		<path fill-rule="evenodd" clip-rule="evenodd" fill="#C3161C" d="M91.229,39.448h6.766l-1.472,0.128l7.607,0.657l-7.607,0.66
			l7.61,0.656l-7.61,0.658l7.607,0.657l-7.607,0.657l7.607,0.66l-7.607,0.657l7.61,0.657l-7.61,0.655l7.607,0.66l-7.607,0.66
			l7.607,0.654l-7.607,0.659l7.607,0.658l-7.607,0.657l7.607,0.657l-7.607,0.658l7.607,0.659l-7.607,0.654l7.61,0.662l-7.61,0.657
			l7.607,0.655l-7.607,0.659l7.607,0.657l-5.422,0.469h-8.193l-5.422-0.469l7.606-0.657l-7.606-0.659l7.606-0.655l-7.606-0.657
			l7.606-0.662l-7.606-0.654l7.606-0.659l-7.606-0.658l7.606-0.657l-7.606-0.657l7.606-0.658l-7.606-0.659l7.606-0.654l-7.606-0.66
			l7.606-0.66l-7.606-0.655l7.606-0.657l-7.606-0.657l7.606-0.66l-7.606-0.657l7.606-0.657l-7.606-0.658l7.606-0.656l-7.606-0.66
			l7.606-0.657L91.229,39.448L91.229,39.448z M25.818,39.448h6.763l-1.468,0.128l7.607,0.657l-7.607,0.66l7.607,0.656l-7.607,0.658
			l7.607,0.657l-7.607,0.657l7.607,0.66l-7.607,0.657l7.607,0.657l-7.607,0.655l7.607,0.66l-7.607,0.66l7.607,0.654l-7.607,0.659
			l7.607,0.658l-7.607,0.657l7.607,0.657l-7.607,0.658l7.607,0.659l-7.607,0.654l7.607,0.662l-7.607,0.657l7.607,0.655l-7.607,0.659
			l7.607,0.657l-5.425,0.469h-8.19l-5.425-0.469l7.61-0.657l-7.61-0.659l7.61-0.655l-7.61-0.657l7.61-0.662l-7.61-0.654l7.61-0.659
			l-7.61-0.658l7.61-0.657l-7.61-0.657l7.61-0.658l-7.61-0.659l7.61-0.654l-7.61-0.66l7.61-0.66l-7.61-0.655l7.61-0.657l-7.61-0.657
			l7.61-0.66l-7.61-0.657l7.61-0.657l-7.61-0.658l7.61-0.656l-7.61-0.66l7.61-0.657L25.818,39.448L25.818,39.448z M58.524,39.448
			h6.764l-1.469,0.128l7.607,0.657l-7.607,0.66l7.607,0.656l-7.607,0.658l7.607,0.657l-7.607,0.657l7.607,0.66l-7.607,0.657
			l7.607,0.657l-7.607,0.655l7.607,0.66l-7.607,0.66l7.607,0.654l-7.607,0.659l7.607,0.658l-7.607,0.657l7.607,0.657l-7.607,0.658
			l7.607,0.659l-7.607,0.654l7.607,0.662l-7.607,0.657l7.607,0.655l-7.607,0.659l7.607,0.657l-5.424,0.469h-8.195l-5.422-0.469
			l7.606-0.657l-7.606-0.659l7.606-0.655l-7.606-0.657l7.606-0.662l-7.606-0.654l7.606-0.659l-7.606-0.658l7.606-0.657l-7.606-0.657
			l7.606-0.658l-7.606-0.659l7.606-0.654l-7.606-0.66l7.606-0.66l-7.606-0.655l7.606-0.657l-7.606-0.657l7.606-0.66l-7.606-0.657
			l7.606-0.657l-7.606-0.658l7.606-0.656l-7.606-0.66l7.606-0.657L58.524,39.448z"/>
		<path fill-rule="evenodd" clip-rule="evenodd" fill="#FFFFFF" d="M49.066,40.265h5.566v0.405h-5.566V40.265L49.066,40.265z
			 M12.899,39.448h1.1v0.411h3.84v-0.411h0.483v0.411h3.839v-0.411h0.619v0.411h3.839v-0.411h0.484v0.411h3.836v-0.411h0.622v0.411
			h3.837v-0.411h0.483v0.411h3.84v-0.411h0.619v0.411h3.836v-0.411h0.486v0.411h3.837v-0.411h0.622v0.411h3.837v-0.411h0.483v0.411
			h3.84v-0.411H57.9v0.411h3.837v-0.411h0.483v0.411h3.837v-0.411h0.621v0.411h3.84v-0.411h0.482v0.411h3.838v-0.411h0.619v0.411
			h3.838v-0.411h0.484v0.411h3.836v-0.411h0.622v0.411h3.839v-0.411h0.48v0.411h3.84v-0.411h0.621v0.411h3.837v-0.411h0.483v0.411
			h3.837v-0.411h0.526v0.411h3.84v-0.411h0.482v0.411h3.84v-0.411h1.049V22.405h-1.049v-0.45h-3.84v0.45h-0.482v-0.45h-3.84v0.45
			h-0.523v-0.45h-3.84v0.45h-0.483v-0.45h-3.837v0.45h-0.621v-0.45h-3.837v0.45h-0.483v-0.45h-3.839v0.45h-0.622v-0.45H79.78v0.45
			h-0.484v-0.45h-3.838v0.45h-0.619v-0.45h-3.838v0.45h-0.486v-0.45h-3.836v0.45h-0.621v-0.45h-3.837v0.45h-0.483v-0.45h-3.839v0.45
			h-0.619v-0.45h-3.84v0.45h-0.483v-0.45H49.12v0.45h-0.622v-0.45h-3.837v0.45h-0.486v-0.45h-3.836v0.45H39.72v-0.45h-3.837v0.45
			h-0.486v-0.45h-3.837v0.45h-0.622v-0.45h-3.836v0.45h-0.484v-0.45h-3.839v0.45h-0.619v-0.45h-3.839v0.45h-0.483v-0.45h-3.84v0.45
			h-1.1V39.448L12.899,39.448z M102.534,21.032h0.449v0.438h-0.449V21.032L102.534,21.032z M105.179,20.65v0.364h-1.305v-0.348
			v-0.456h-0.45h-1.305h-0.45v0.456v0.803h0.45v-0.803h1.305v0.348v0.455h0.45h1.305h0.45v-0.455V20.65v-0.439h-0.45h-0.842v0.439
			H105.179L105.179,20.65z M109.414,21.47h-0.399h-0.449l0,0h-0.396l0,0h-0.45v-0.455v-0.348h-1.305v0.365h0.841v0.438h-1.289
			v-0.438v-0.821h0.448h1.305v-0.818h0.45v1.274v0.348h0.396v-1.622h0.449v1.622h0.399v-1.622h0.45v2.077h-0.08H109.414
			L109.414,21.47z M101.651,19.393v0.403h5.568v-0.403H101.651L101.651,19.393z M93.848,21.032h0.45v0.438h-0.45V21.032
			L93.848,21.032z M96.492,20.65v0.364h-1.304v-0.348v-0.456h-0.451h-1.305h-0.449v0.456v0.803h0.449v-0.803h1.305v0.348v0.455
			h0.451h1.304h0.45v-0.455V20.65v-0.439h-0.45h-0.841v0.439H96.492L96.492,20.65z M100.728,21.47h-0.398H99.88l0,0h-0.398l0,0
			h-0.449v-0.455v-0.348h-1.305v0.365h0.842v0.438h-1.291v-0.438v-0.821h0.449h1.305v-0.818h0.449v1.274v0.348h0.398v-1.622h0.449
			v1.622h0.398v-1.622h0.451v2.077h-0.08H100.728L100.728,21.47z M85.067,21.032h0.452v0.438h-0.452V21.032L85.067,21.032z
			 M87.712,20.65v0.364h-1.305v-0.348v-0.456h-0.45h-1.305h-0.45v0.456v0.803h0.45v-0.803h1.305v0.348v0.455h0.45h1.305h0.449
			v-0.455V20.65v-0.439h-0.449H86.87v0.439H87.712L87.712,20.65z M91.947,21.47h-0.396h-0.45l0,0h-0.398l0,0h-0.447v-0.455v-0.348
			h-1.308v0.365h0.841l0.003,0.438h-1.292v-0.438v-0.821h0.448h1.308v-0.818h0.447v1.274v0.348h0.398v-1.622h0.45v1.622h0.396
			v-1.622h0.45v2.077H92.32H91.947L91.947,21.47z M84.187,19.393v0.403h5.566v-0.403H84.187L84.187,19.393z M76.288,21.032h0.45
			v0.438h-0.45V21.032L76.288,21.032z M78.933,20.65v0.364h-1.307v-0.348v-0.456h-0.447h-1.305h-0.45v0.456v0.803h0.45v-0.803h1.305
			v0.348v0.455h0.447h1.307h0.448v-0.455V20.65v-0.439h-0.448h-0.842v0.439H78.933L78.933,20.65z M83.169,21.47h-0.398h-0.448l0,0
			h-0.399l0,0h-0.449v-0.455v-0.348h-1.305v0.365h0.841v0.438h-1.292v-0.438v-0.821h0.451h1.305v-0.818h0.449v1.274v0.348h0.399
			v-1.622h0.448v1.622h0.398v-1.622h0.447v2.077H83.54H83.169L83.169,21.47z M75.406,19.393v0.403h5.565v-0.403H75.406
			L75.406,19.393z M67.507,21.032h0.451v0.438h-0.451V21.032L67.507,21.032z M70.152,20.65v0.364h-1.304v-0.348v-0.456h-0.451
			h-1.305h-0.449v0.456v0.803h0.449v-0.803h1.305v0.348v0.455h0.451h1.304h0.45v-0.455V20.65v-0.439h-0.45h-0.841v0.439H70.152
			L70.152,20.65z M74.388,21.47h-0.396h-0.45l0,0h-0.396l0,0h-0.451v-0.455v-0.348H71.39v0.365h0.84v0.438H70.94v-0.438v-0.821
			h0.449h1.305v-0.818h0.451v1.274v0.348h0.396v-1.622h0.45v1.622h0.396v-1.622h0.451v2.077h-0.078H74.388L74.388,21.47z
			 M66.628,19.393v0.403h5.565v-0.403H66.628L66.628,19.393z M58.729,21.032h0.45v0.438h-0.45V21.032L58.729,21.032z M61.374,20.65
			v0.364h-1.305v-0.348v-0.456h-0.45h-1.304h-0.45v0.456v0.803h0.45v-0.803h1.304v0.348v0.455h0.45h1.305h0.451v-0.455V20.65v-0.439
			h-0.451h-0.841v0.439H61.374L61.374,20.65z M65.61,21.47h-0.4h-0.449l0,0h-0.396l0,0h-0.451v-0.455v-0.348h-1.304v0.365h0.842
			v0.438h-1.289v-0.438v-0.821h0.447h1.304v-0.818h0.451v1.274v0.348h0.396v-1.622h0.449v1.622h0.4v-1.622h0.447v2.077H65.98H65.61
			L65.61,21.47z M57.847,19.393v0.403h5.565v-0.403H57.847L57.847,19.393z M92.965,19.393v0.403h5.568v-0.403H92.965L92.965,19.393z
			 M49.948,21.032h0.451v0.438h-0.451V21.032L49.948,21.032z M52.593,20.65v0.364h-1.305v-0.348v-0.456h-0.45h-1.305h-0.45v0.456
			v0.803h0.45v-0.803h1.305v0.348v0.455h0.45h1.305h0.45v-0.455V20.65v-0.439h-0.45h-0.842v0.439H52.593L52.593,20.65z
			 M56.829,21.47h-0.396h-0.449l0,0h-0.4l0,0h-0.45v-0.455v-0.348h-1.305v0.365h0.844v0.438h-1.292v-0.438v-0.821h0.448h1.305
			v-0.818h0.45v1.274v0.348h0.4v-1.622h0.449v1.622h0.396v-1.622h0.451v2.077h-0.08H56.829L56.829,21.47z M41.17,21.032h0.45v0.438
			h-0.45V21.032L41.17,21.032z M43.814,20.65v0.364h-1.307v-0.348v-0.456h-0.447h-1.307h-0.448v0.456v0.803h0.448v-0.803h1.307
			v0.348v0.455h0.447h1.307h0.448v-0.455V20.65v-0.439h-0.448h-0.841v0.439H43.814L43.814,20.65z M48.048,21.47h-0.396h-0.45l0,0
			h-0.396l0,0h-0.451v-0.455v-0.348H45.05v0.365h0.841v0.438H44.6v-0.438v-0.821h0.45h1.304v-0.818h0.451v1.274v0.348h0.396v-1.622
			h0.45v1.622h0.396v-1.622h0.45v2.077h-0.077H48.048L48.048,21.47z M40.288,19.393v0.403h5.566v-0.403H40.288L40.288,19.393z
			 M32.389,21.032h0.451v0.438h-0.451V21.032L32.389,21.032z M35.034,20.65v0.364h-1.305v-0.348v-0.456h-0.45h-1.304h-0.451v0.456
			v0.803h0.451v-0.803h1.304v0.348v0.455h0.45h1.305h0.45v-0.455V20.65v-0.439h-0.45h-0.841v0.439H35.034L35.034,20.65z
			 M39.27,21.47h-0.399h-0.448l0,0h-0.398l0,0h-0.448v-0.455v-0.348h-1.304v0.365h0.839v0.438h-1.29v-0.438v-0.821h0.451h1.304
			v-0.818h0.448v1.274v0.348h0.398v-1.622h0.448v1.622h0.399v-1.622h0.451v2.077h-0.08H39.27L39.27,21.47z M31.509,19.393v0.403
			h5.566v-0.403H31.509L31.509,19.393z M23.611,21.032h0.45v0.438h-0.45V21.032L23.611,21.032z M26.256,20.65v0.364h-1.304v-0.348
			v-0.456h-0.451h-1.305h-0.45v0.456v0.803h0.45v-0.803h1.305v0.348v0.455h0.451h1.304h0.448v-0.455V20.65v-0.439h-0.448h-0.842
			v0.439H26.256L26.256,20.65z M30.492,21.47h-0.399h-0.45l0,0h-0.396l0,0h-0.451v-0.455v-0.348h-1.304v0.365h0.842v0.438h-1.292
			v-0.438v-0.821h0.45h1.304v-0.818h0.451v1.274v0.348h0.396v-1.622h0.45v1.622h0.399v-1.622h0.447v2.077h-0.077H30.492
			L30.492,21.47z M22.729,19.393v0.403h5.565v-0.403H22.729L22.729,19.393z M14.83,21.032h0.45v0.438h-0.45V21.032L14.83,21.032z
			 M17.475,20.65v0.364H16.17v-0.348v-0.456h-0.45h-1.305h-0.45v0.456v0.803h0.45v-0.803h1.305v0.348v0.455h0.45h1.304h0.451v-0.455
			V20.65v-0.439h-0.451h-0.841v0.439H17.475L17.475,20.65z M21.71,21.47h-0.396h-0.45l0,0h-0.399l0,0h-0.45v-0.455v-0.348H18.71
			v0.365h0.844v0.438h-1.292v-0.438v-0.821h0.448h1.304v-0.818h0.45v1.274v0.348h0.399v-1.622h0.45v1.622h0.396v-1.622h0.451v2.077
			h-0.079H21.71L21.71,21.47z M13.947,19.393v0.403h5.568v-0.403H13.947L13.947,19.393z M49.066,19.393v0.403h5.566v-0.403H49.066
			L49.066,19.393z M13.947,40.265h5.568v0.405h-5.568V40.265L13.947,40.265z M21.71,42.347h0.372h0.079v-2.082H21.71v1.624h-0.396
			v-1.624h-0.45v1.624h-0.399v-0.346v-1.278h-0.45v0.82H18.71h-0.448v0.821v0.44h1.289v-0.44H18.71v-0.363h1.304v0.346v0.458h0.45
			l0,0h0.399l0,0h0.45H21.71L21.71,42.347z M17.475,41.524h-0.841v-0.439h0.841h0.451v0.439v0.364v0.458h-0.451H16.17h-0.45v-0.458
			v-0.346h-1.305v0.804h-0.45v-0.804v-0.458h0.45h1.305h0.45v0.458v0.346h1.304V41.524L17.475,41.524z M14.83,41.906v0.44h0.45
			v-0.44H14.83L14.83,41.906z M22.729,40.265h5.568v0.405h-5.568V40.265L22.729,40.265z M30.492,42.347h0.371h0.077v-2.082h-0.447
			v1.624h-0.399v-1.624h-0.45v1.624h-0.396v-0.346v-1.278h-0.451v0.82h-1.304h-0.45v0.821v0.44h1.292v-0.44h-0.842v-0.363h1.304
			v0.346v0.458h0.451l0,0h0.396l0,0h0.45H30.492L30.492,42.347z M26.256,41.524h-0.842v-0.439h0.842h0.448v0.439v0.364v0.458h-0.448
			h-1.307h-0.448v-0.458v-0.346h-1.305v0.804h-0.45v-0.804v-0.458h0.45h1.305h0.448v0.458v0.346h1.307V41.524L26.256,41.524z
			 M23.611,41.906v0.44h0.45v-0.44H23.611L23.611,41.906z M31.509,40.265h5.566v0.405h-5.566V40.265L31.509,40.265z M39.27,42.347
			h0.371h0.08v-2.082H39.27v1.624h-0.399v-1.624h-0.448v1.624h-0.398v-0.346v-1.278h-0.448v0.82h-1.304h-0.451v0.821v0.44h1.29
			v-0.44h-0.839v-0.363h1.304v0.346v0.458h0.448l0,0h0.398l0,0h0.448H39.27L39.27,42.347z M35.034,41.524h-0.841v-0.439h0.841h0.45
			v0.439v0.364v0.458h-0.45h-1.305h-0.45v-0.458v-0.346h-1.304v0.804h-0.451v-0.804v-0.458h0.451h1.304h0.45v0.458v0.346h1.305
			V41.524L35.034,41.524z M32.389,41.906v0.44h0.451v-0.44H32.389L32.389,41.906z M40.288,40.265h5.566v0.405h-5.566V40.265
			L40.288,40.265z M48.05,42.347h0.371H48.5v-2.082h-0.45v1.624h-0.398v-1.624h-0.45v1.624h-0.396v-0.346v-1.278h-0.451v0.82H45.05
			H44.6v0.821v0.44h1.292v-0.44H45.05v-0.363h1.304v0.346v0.458h0.451l0,0h0.396l0,0h0.45H48.05L48.05,42.347z M43.814,41.524
			h-0.841v-0.439h0.841h0.451v0.439v0.364v0.458h-0.451h-1.307h-0.45v-0.458v-0.346h-1.302v0.804h-0.45v-0.804v-0.458h0.45h1.302
			h0.45v0.458v0.346h1.307V41.524L43.814,41.524z M41.167,41.906v0.44h0.453v-0.44H41.167L41.167,41.906z M56.829,42.347h0.371h0.08
			v-2.082h-0.451v1.624h-0.396v-1.624h-0.449v1.624h-0.4v-0.346v-1.278h-0.45v0.82h-1.305h-0.448v0.821v0.44h1.292v-0.44h-0.844
			v-0.363h1.305v0.346v0.458h0.45l0,0h0.4l0,0h0.449H56.829L56.829,42.347z M52.593,41.524h-0.842v-0.439h0.842h0.45v0.439v0.364
			v0.458h-0.45h-1.305h-0.45v-0.458v-0.346h-1.305v0.804h-0.45v-0.804v-0.458h0.45h1.305h0.45v0.458v0.346h1.305V41.524
			L52.593,41.524z M49.948,41.906v0.44h0.451v-0.44H49.948L49.948,41.906z M92.965,40.265h5.568v0.405h-5.568V40.265L92.965,40.265z
			 M57.847,40.265h5.565v0.405h-5.565V40.265L57.847,40.265z M65.61,42.347h0.37h0.077v-2.082H65.61v1.624h-0.4v-1.624h-0.447v1.624
			h-0.398v-0.346v-1.278h-0.451v0.82h-1.304h-0.447v0.821v0.44h1.289v-0.44h-0.842v-0.363h1.304v0.346v0.458h0.451l0,0h0.398l0,0
			h0.447H65.61L65.61,42.347z M61.374,41.524h-0.841v-0.439h0.841h0.448v0.439v0.364v0.458h-0.448h-1.305h-0.45v-0.458v-0.346
			h-1.304v0.804h-0.45v-0.804v-0.458h0.45h1.304h0.45v0.458v0.346h1.305V41.524L61.374,41.524z M58.729,41.906v0.44h0.45v-0.44
			H58.729L58.729,41.906z M66.628,40.265h5.565v0.405h-5.565V40.265L66.628,40.265z M74.388,42.347h0.373h0.078v-2.082h-0.451v1.624
			h-0.396v-1.624h-0.45v1.624h-0.396v-0.346v-1.278h-0.451v0.82h-1.307H70.94v0.821v0.44h1.289v-0.44h-0.842v-0.363h1.307v0.346
			v0.458h0.451l0,0h0.396l0,0h0.45H74.388L74.388,42.347z M70.152,41.524h-0.841v-0.439h0.841h0.45v0.439v0.364v0.458h-0.45h-1.304
			h-0.451v-0.458v-0.346h-1.305v0.804h-0.449v-0.804v-0.458h0.449h1.305h0.451v0.458v0.346h1.304V41.524L70.152,41.524z
			 M67.507,41.906v0.44h0.451v-0.44H67.507L67.507,41.906z M75.406,40.265h5.565v0.405h-5.565V40.265L75.406,40.265z M83.169,42.347
			h0.371h0.076v-2.082h-0.447v1.624h-0.396v-1.624h-0.45v1.624h-0.399v-0.346v-1.278h-0.449v0.82h-1.305h-0.451v0.821v0.44h1.292
			v-0.44h-0.841v-0.363h1.305v0.346v0.458h0.449l0,0h0.399l0,0h0.45H83.169L83.169,42.347z M78.933,41.524h-0.842v-0.439h0.842
			h0.448v0.439v0.364v0.458h-0.448h-1.307h-0.447v-0.458v-0.346h-1.305v0.804h-0.45v-0.804v-0.458h0.45h1.305h0.447v0.458v0.346
			h1.307V41.524L78.933,41.524z M76.288,41.906v0.44h0.45v-0.44H76.288L76.288,41.906z M84.185,40.265h5.568v0.405h-5.568V40.265
			L84.185,40.265z M91.947,42.347h0.373h0.077v-2.082h-0.45v1.624h-0.396v-1.624h-0.45v1.624h-0.396v-0.346v-1.278h-0.449v0.82
			h-1.308h-0.448v0.821v0.44h1.292l-0.003-0.44h-0.841v-0.363h1.308v0.346v0.458h0.449l0,0h0.396l0,0h0.45H91.947L91.947,42.347z
			 M87.712,41.524H86.87v-0.439h0.842h0.449v0.439v0.364v0.458h-0.449h-1.305h-0.45v-0.458v-0.346h-1.305v0.804h-0.45v-0.804v-0.458
			h0.45h1.305h0.45v0.458v0.346h1.305V41.524L87.712,41.524z M85.067,41.906v0.44h0.452v-0.44H85.067L85.067,41.906z
			 M100.728,42.347h0.371h0.077v-2.082h-0.448v1.624h-0.398v-1.624H99.88v1.624h-0.398v-0.346v-1.278h-0.449v0.82h-1.305h-0.449
			v0.821v0.44h1.291v-0.44h-0.842v-0.363h1.305v0.346v0.458h0.449l0,0h0.398l0,0h0.449H100.728L100.728,42.347z M96.492,41.524
			h-0.841v-0.439h0.841h0.448v0.439v0.364v0.458h-0.448h-1.304h-0.451v-0.458v-0.346h-1.305v0.804h-0.449v-0.804v-0.458h0.449h1.305
			h0.451v0.458v0.346h1.304V41.524L96.492,41.524z M93.848,41.906v0.44h0.45v-0.44H93.848L93.848,41.906z M101.651,40.265h5.568
			v0.405h-5.568V40.265L101.651,40.265z M109.414,42.347h0.37h0.08v-2.082h-0.45v1.624h-0.399v-1.624h-0.447v1.624h-0.398v-0.346
			v-1.278h-0.45v0.82h-1.302h-0.451v0.821v0.44h1.289v-0.44h-0.838v-0.363h1.302v0.346v0.458h0.45l0,0h0.398l0,0h0.447H109.414
			L109.414,42.347z M105.179,41.524h-0.842v-0.439h0.842h0.45v0.439v0.364v0.458h-0.45h-1.305h-0.45v-0.458v-0.346h-1.305v0.804
			h-0.45v-0.804v-0.458h0.45h1.305h0.45v0.458v0.346h1.305V41.524L105.179,41.524z M102.534,41.906v0.44h0.449v-0.44H102.534z"/>
		<path fill-rule="evenodd" clip-rule="evenodd" fill="#D8E1E7" d="M87.504,19.393l2.249,0.193v-0.193H87.504L87.504,19.393z
			 M22.091,19.393l0.069,0.005v-0.005H22.091L22.091,19.393z M22.729,19.446l4.059,0.35h1.506v-0.403h-5.565V19.446L22.729,19.446z
			 M22.998,20.211l-0.251,0.023v0.433v0.096l0.45,0.039v-0.135h1.305v0.249l0.451,0.036v-0.285v-0.456h-0.451h-1.305H22.998
			L22.998,20.211z M22.161,20.282l-0.451,0.041v0.351l0.451,0.039V20.282L22.161,20.282z M21.314,20.356l-0.45,0.039V20.6
			l0.45,0.041V20.356L21.314,20.356z M20.464,20.431l-0.785,0.066l0.785,0.069V20.431L20.464,20.431z M25.647,21.015l1.057,0.092
			v-0.092V20.65v-0.439h-0.448h-0.842v0.439h0.842v0.364H25.647L25.647,21.015z M27.041,21.135v-0.103v-0.821h0.45h1.304v-0.818
			h0.451v1.274v0.348h0.396v-1.622h0.45v1.622h0.399v-1.622h0.447v2.077h-0.077h-0.371h-0.399h-0.45l0,0h-0.396l0,0h-0.451v-0.455
			v-0.348h-1.304v0.365h0.842v0.438h-1.292v-0.292l0.248-0.021L27.041,21.135L27.041,21.135z M26.704,21.208l-2.203,0.189v0.072
			h0.451h1.304h0.448V21.208L26.704,21.208z M24.061,21.434L23.65,21.47h0.411V21.434L24.061,21.434z M21.327,21.955l0.834,0.072
			v-0.072H21.327L21.327,21.955z M22.779,22.08v-0.125h3.839v0.45h0.484v-0.45h3.836v0.45h0.622v-0.45h3.837v0.146l-4.285,0.369
			l7.607,0.66l-7.607,0.656l7.607,0.66l-7.607,0.655l7.607,0.66l-7.609,0.657l7.609,0.658l-7.607,0.656l7.607,0.657l-7.607,0.659
			l7.607,0.655l-7.607,0.66l7.607,0.659l-7.607,0.655l7.607,0.66l-7.607,0.657l7.607,0.657l-7.607,0.657l7.607,0.657l-7.607,0.66
			l7.607,0.657l-7.607,0.658l7.607,0.657l-7.607,0.656l7.607,0.66l-7.159,0.619v-0.089h-0.622v0.411h-3.836v-0.269l0.187-0.015
			l-0.187-0.017v-0.111h-0.484v0.068l-6.939-0.599l7.61-0.66l-7.61-0.656l7.61-0.657l-7.61-0.658l7.61-0.657l-7.61-0.66l7.61-0.657
			l-7.61-0.657l7.61-0.657l-7.61-0.657l7.61-0.66l-7.61-0.655l7.61-0.659l-7.61-0.66l7.61-0.655l-7.61-0.659l7.61-0.657l-7.61-0.656
			l7.61-0.658l-7.61-0.657l7.61-0.66l-7.61-0.655l7.61-0.66l-7.61-0.656l7.61-0.66L22.779,22.08L22.779,22.08z M26.619,39.633
			L24,39.859h2.619V39.633L26.619,39.633z M20.041,40.265l0.424,0.036v-0.036H20.041L20.041,40.265z M20.864,40.335l0.45,0.039
			v-0.109h-0.45V40.335L20.864,40.335z M21.71,40.41l0.451,0.039v-0.185H21.71V40.41L21.71,40.41z M22.729,40.496l2.008,0.174h3.56
			v-0.405h-5.568V40.496L22.729,40.496z M24.949,41.096l-2.203,0.188v0.259v0.271l0.45,0.038v-0.309h1.305v0.346v0.078l2.203,0.189
			v-0.268v-0.364v-0.439h-0.448h-0.842v0.439h0.842v0.364h-1.307v-0.346V41.096L24.949,41.096z M22.161,41.336l-0.451,0.038v0.351
			l0.451,0.038V41.336L22.161,41.336z M21.314,41.41l-0.45,0.036v0.206l0.45,0.039V41.41L21.314,41.41z M20.464,41.481l-0.703,0.062
			h0.253v0.035l0.45,0.039v-0.074V41.481L20.464,41.481z M23.8,41.906h0.261v0.021L23.8,41.906L23.8,41.906z M27.041,42.185v-0.278
			v-0.821h0.45h1.304v-0.82h0.451v1.278v0.346h0.396v-1.624h0.45v1.624h0.399v-1.624h0.447v2.082h-0.077h-0.371h-0.399h-0.45l0,0
			h-0.396l0,0h-0.451v-0.458v-0.346h-1.304v0.363h0.842v0.44h-1.292v-0.118l0.248-0.021L27.041,42.185L27.041,42.185z
			 M26.704,42.259l-1.016,0.088h0.568h0.448V42.259L26.704,42.259z M32.711,42.347l-0.322-0.029v0.029H32.711L32.711,42.347z
			 M31.975,42.282l-0.451-0.038v0.103h0.451V42.282L31.975,42.282z M31.524,42.172l0.451-0.041v-0.588h1.304v0.346v0.13l1.514-0.13
			h-1.064v-0.346v-0.425l-0.378-0.033h-0.072h-1.304h-0.451v0.458V42.172L31.524,42.172z M32.389,42.096v-0.189h0.451v0.15
			L32.389,42.096L32.389,42.096z M35.034,41.868v-0.344h-0.841v-0.365l1.292,0.11v0.255v0.305L35.034,41.868L35.034,41.868z
			 M35.821,41.798l0.451-0.038v-0.217h1.304v0.104l0.448-0.038v-0.066v-0.055l-2.203-0.19V41.798L35.821,41.798z M38.423,41.574
			l0.297-0.024l-0.297-0.028V41.574L38.423,41.574z M33.668,40.67l3.407-0.294v-0.111h-5.566v0.405H33.668L33.668,40.67z
			 M37.576,40.335l0.448-0.04v-0.03h-0.448V40.335L37.576,40.335z M34.392,39.859l-2.832-0.245v0.245H34.392L34.392,39.859z
			 M35.883,22.058l1.192-0.103h-1.192V22.058L35.883,22.058z M34.75,21.47l-1.471-0.125v0.125h0.45H34.75L34.75,21.47z
			 M32.84,21.306l-0.451-0.039v0.203h0.451V21.306L32.84,21.306z M31.975,21.231l-0.451-0.038v0.276h0.451V21.231L31.975,21.231z
			 M31.524,21.121l0.451-0.041v-0.413h1.304v0.302l0.45-0.039v-0.263v-0.456h-0.45h-1.304h-0.451v0.456V21.121L31.524,21.121z
			 M32.389,21.045v-0.013h0.169L32.389,21.045L32.389,21.045z M35.034,20.817l0.45-0.039V20.65v-0.432l-0.079-0.008h-0.371h-0.841
			v0.439h0.841V20.817L35.034,20.817z M35.821,20.748l0.451-0.038v-0.043h0.486l1.267-0.109v-0.12l-2.203-0.191V20.748
			L35.821,20.748z M38.423,20.523l0.297-0.026l-0.297-0.025V20.523L38.423,20.523z M31.611,19.796l4.696-0.403h-4.798v0.403H31.611
			L31.611,19.796z M52.747,40.265h1.885v0.163L52.747,40.265L52.747,40.265z M55.133,19.42l0.45,0.038v-0.065h-0.45V19.42
			L55.133,19.42z M55.983,19.494l0.449,0.039v-0.141h-0.449V19.494L55.983,19.494z M56.829,19.566l0.451,0.038v-0.212h-0.451V19.566
			L56.829,19.566z M57.847,19.653l1.647,0.143h3.918v-0.403h-5.565V19.653L57.847,19.653z M57.279,20.075l-0.451,0.038v0.771
			l0.451,0.038V20.075L57.279,20.075z M56.432,20.146l-0.449,0.042v0.621l0.449,0.039V20.146L56.432,20.146z M55.583,20.222
			l-2.202,0.19v0.172l0.964,0.083h0.788v0.067l0.45,0.039v-0.106V20.222L55.583,20.222z M53.043,20.44l-0.657,0.057l0.657,0.057
			V20.44L53.043,20.44z M57.865,20.973l0.45,0.039v-0.345h1.304v0.348v0.109l0.374,0.033l-0.374,0.031v0.281h0.45h1.305h0.451
			v-0.455V20.65v-0.439h-0.451h-0.841v0.439h0.841v0.364h-1.305v-0.348v-0.456h-0.45h-1.304h-0.45v0.456V20.973L57.865,20.973z
			 M58.729,21.048v-0.016h0.45v0.054L58.729,21.048L58.729,21.048z M59.179,21.229v0.241h-0.45v-0.205L59.179,21.229L59.179,21.229z
			 M58.315,21.3v0.17h-0.45v-0.128L58.315,21.3L58.315,21.3z M57.279,21.393l-0.924,0.077h0.077h0.396h0.371h0.08V21.393
			L57.279,21.393z M54.033,21.955l3.246,0.281v-0.281H54.033L54.033,21.955z M57.898,22.29v-0.335h3.839v0.45h0.483v-0.45h3.837
			v0.322l-2.238,0.192l7.607,0.66l-7.607,0.656l7.607,0.66l-7.607,0.655l7.607,0.66l-7.609,0.657l7.609,0.658l-7.607,0.656
			l7.607,0.657l-7.607,0.659l7.607,0.655l-7.607,0.66l7.607,0.659l-7.607,0.655l7.607,0.66l-7.607,0.657l7.607,0.657l-7.607,0.657
			l7.607,0.657l-7.607,0.66l7.607,0.657l-7.607,0.658l7.607,0.657l-7.607,0.656l7.607,0.66l-7.607,0.658l2.238,0.193v0.09h-3.837
			v-0.411h-0.483v0.411H57.9v-0.102l2.092-0.182l-7.606-0.658l7.606-0.66l-7.606-0.656l7.606-0.657l-7.606-0.658l7.606-0.657
			l-7.606-0.66l7.606-0.657l-7.606-0.657l7.606-0.657l-7.606-0.657l7.606-0.66l-7.606-0.655l7.606-0.659l-7.606-0.66l7.606-0.655
			l-7.606-0.659l7.606-0.657l-7.606-0.656l7.606-0.658l-7.606-0.657l7.606-0.66l-7.606-0.655l7.606-0.66l-7.606-0.656l7.606-0.66
			L57.898,22.29L57.898,22.29z M57.279,39.809l-0.573,0.051h0.573V39.809L57.279,39.809z M55.133,40.472l0.45,0.037v-0.244h-0.45
			V40.472L55.133,40.472z M55.983,40.545l0.449,0.039v-0.319h-0.449V40.545L55.983,40.545z M56.829,40.617l0.451,0.041v-0.394
			h-0.451V40.617L56.829,40.617z M57.279,41.127l-0.451,0.036v0.726h-0.396V41.2l-0.449,0.038v0.622l1.296,0.111V41.127
			L57.279,41.127z M55.583,41.272l-2.202,0.191v0.171l0.448,0.041v-0.133h1.305v0.244l0.45,0.037v-0.281V41.272L55.583,41.272z
			 M53.043,41.491l-0.45,0.039v0.038l0.45,0.038v-0.082V41.491L53.043,41.491z M57.865,42.023l0.45,0.039v-0.52h1.304v0.346v0.285
			l0.374,0.034l-0.374,0.03v0.108h0.45h1.305h0.448v-0.458v-0.364v-0.439h-0.448h-0.841v0.439h0.841v0.364h-1.305v-0.346v-0.458
			h-0.45h-1.304h-0.45v0.458V42.023L57.865,42.023z M58.729,42.099v-0.192h0.45v0.23L58.729,42.099L58.729,42.099z M59.179,42.276
			v0.07h-0.45v-0.031L59.179,42.276L59.179,42.276z M65.418,42.347l-1.505-0.131v0.131h0.451l0,0h0.398l0,0h0.447H65.418
			L65.418,42.347z M63.913,42.198v-0.31v-0.346h-1.304v0.363h0.842v0.44h-1.289v-0.44v-0.821h0.447h1.304v-0.188l0.451,0.042v0.604
			v0.346h0.398v-0.917l0.447,0.041v0.876h0.4v-0.843l0.447,0.039v0.929L63.913,42.198L63.913,42.198z M66.644,41.962l0.449-0.037
			v-0.382h1.305v0.269l0.451-0.038v-0.23v-0.218l-2.205-0.189v0.407V41.962L66.644,41.962z M70.152,41.66l0.45-0.04v-0.096v-0.046
			l-1.291-0.112v0.158h0.841V41.66L70.152,41.66z M70.94,41.592l0.447-0.039v-0.007l-0.447-0.039V41.592L70.94,41.592z
			 M63.913,40.883l0.451-0.039v-0.579h-0.451V40.883L63.913,40.883z M64.763,40.811l0.447-0.04v-0.506h-0.447V40.811L64.763,40.811z
			 M65.61,40.737l0.447-0.039v-0.434H65.61V40.737L65.61,40.737z M66.628,40.648l4.45-0.384h-4.45V40.648L66.628,40.648z
			 M67.099,39.859l-0.42-0.035v0.035H67.099L67.099,39.859z M66.679,22.224l3.1-0.269h-3.1V22.224L66.679,22.224z M67.093,21.438
			L66.644,21.4v0.069h0.449V21.438L67.093,21.438z M66.058,21.35l-2.145-0.185v0.305h0.451l0,0h0.396l0,0h0.449h0.4h0.37h0.077
			V21.35L66.058,21.35z M63.913,21.146v-0.132v-0.348h-1.304v0.365h0.842v0.438h-1.289v-0.438v-0.821h0.447h1.304v-0.363
			l0.451,0.041v0.778v0.348h0.396v-1.092l0.449,0.038v1.054h0.248L63.913,21.146L63.913,21.146z M65.61,21.001l0.447-0.038v-0.929
			l-0.447-0.038V21.001L65.61,21.001z M66.644,20.911l0.449-0.037v-0.207h1.305v0.094l0.451-0.038v-0.056v-0.393l-0.737-0.063
			h-1.019h-0.449v0.456V20.911L66.644,20.911z M69.669,20.65l0.934-0.082v-0.143l-1.291-0.109v0.334H69.669L69.669,20.65z
			 M70.94,20.538l0.486-0.041l-0.486-0.041V20.538L70.94,20.538z M63.913,19.832l0.451-0.041v-0.398h-0.451V19.832L63.913,19.832z
			 M64.761,19.758l0.449-0.037v-0.328h-0.449V19.758L64.761,19.758z M65.61,19.685l0.447-0.036v-0.256H65.61V19.685L65.61,19.685z
			 M66.628,19.597l2.387-0.204h-2.387V19.597L66.628,19.597z M57.847,40.265h5.565v0.405h-5.565V40.265L57.847,40.265z
			 M90.255,19.628l0.447,0.04v-0.275h-0.447V19.628L90.255,19.628z M91.101,19.702l0.45,0.038v-0.348h-0.45V19.702L91.101,19.702z
			 M91.947,19.776l0.45,0.037v-0.421h-0.45V19.776L91.947,19.776z M92.397,19.866l-0.45,0.038v1.11h-0.396v-1.075l-0.45,0.039v1.036
			H91.06l1.338,0.117V19.866L92.397,19.866z M90.702,20.012l-0.447,0.04v0.159h-1.308h-0.448v0.583l0.448,0.038v-0.165h1.308v0.277
			l0.447,0.039v-0.316V20.012L90.702,20.012z M88.161,20.231l-1.291,0.113v0.306h0.842v0.074l0.449,0.038V20.65V20.231
			L88.161,20.231z M86.407,20.385l-1.314,0.112l1.314,0.115V20.385L86.407,20.385z M92.397,21.183l-2.143,0.185v0.103h0.447l0,0
			h0.398l0,0h0.45h0.396h0.373h0.077V21.183L92.397,21.183z M89.791,21.408l-0.729,0.062h0.729V21.408L89.791,21.408z
			 M86.739,21.955l1.338,0.117v-0.117H86.739L86.739,21.955z M88.561,22.114v-0.159h3.837v0.45h0.621v-0.45h3.837v0.45h0.423
			l-0.756,0.064l7.607,0.66l-7.607,0.656l7.61,0.66l-7.61,0.655l7.607,0.66l-7.607,0.657l7.607,0.658l-7.607,0.656l7.61,0.657
			l-7.61,0.659l7.607,0.655l-7.607,0.66l7.607,0.659l-7.607,0.655l7.607,0.66l-7.607,0.657l7.607,0.657l-7.607,0.657l7.607,0.657
			l-7.607,0.66l7.607,0.657l-7.607,0.658l7.607,0.657l-7.607,0.656l7.607,0.66l-6.791,0.586v-0.056h-0.483v0.1l-0.333,0.028
			l0.333,0.028v0.255h-3.837v-0.411h-0.621v0.1l-7.305-0.63l7.606-0.66l-7.606-0.656l7.606-0.657l-7.606-0.658l7.606-0.657
			l-7.606-0.66l7.606-0.657l-7.606-0.657l7.606-0.657l-7.606-0.657l7.606-0.66l-7.606-0.655l7.606-0.659l-7.606-0.66l7.606-0.655
			l-7.606-0.659l7.606-0.657l-7.606-0.656l7.606-0.658l-7.606-0.657l7.606-0.66l-7.606-0.655l7.606-0.66l-7.606-0.656l7.606-0.66
			L88.561,22.114L88.561,22.114z M92.397,39.602l-2.984,0.258h2.984V39.602L92.397,39.602z M85.453,40.265l4.3,0.373v-0.373H85.453
			L85.453,40.265z M90.255,40.681l0.449,0.038v-0.454h-0.449V40.681L90.255,40.681z M91.101,40.755l0.45,0.036v-0.526h-0.45V40.755
			L91.101,40.755z M91.947,40.826l0.45,0.038v-0.6h-0.45V40.826L91.947,40.826z M92.397,40.919l-0.45,0.038v0.932h-0.396v-0.899
			l-0.45,0.039v0.86h-0.396v-0.346v-0.479l-2.205,0.189v0.59l0.448,0.039v-0.34h1.308v0.346v0.106l2.143,0.187V40.919L92.397,40.919
			z M88.161,41.284l-1.291,0.11v0.13h0.842v0.252l0.449,0.037v-0.289V41.284L88.161,41.284z M86.407,41.436l-1.233,0.107h0.783
			v0.082l0.45,0.038v-0.12V41.436L86.407,41.436z M89.226,41.906h0.562v0.048L89.226,41.906L89.226,41.906z M92.397,42.233
			l-1.297,0.113l0,0l0,0h0.45h0.396h0.373h0.077V42.233L92.397,42.233z M98.124,42.347l-0.846-0.075v0.075H98.124L98.124,42.347z
			 M96.94,42.244l-0.418-0.036l0.418-0.036v-0.283v-0.364v-0.439h-0.448h-0.841v0.439h0.841v0.364h-1.304v-0.346v-0.458h-0.451
			h-1.305h-0.449v0.458v0.804h0.449v-0.804h1.305v0.346v0.458h0.451h1.304h0.448V42.244L96.94,42.244z M97.278,42.141l1.291-0.109
			v-0.125h-0.842v-0.363h1.305v0.346v0.102l1.297-0.112V41.22l-0.449-0.037v0.706h-0.398v-0.346v-0.396l-0.718-0.062h-1.036h-0.449
			v0.821V42.141L97.278,42.141z M100.728,41.844l0.448-0.04v-0.51l-0.448-0.04V41.844L100.728,41.844z M101.669,41.763l0.45-0.04
			v-0.18h1.305v0.066l0.45-0.038v-0.028v-0.016l-2.205-0.191v0.207V41.763L101.669,41.763z M99.032,40.673l0.449-0.035v-0.373
			h-0.449V40.673L99.032,40.673z M99.88,40.602l0.449-0.038v-0.299H99.88V40.602L99.88,40.602z M100.728,40.53l0.448-0.042v-0.224
			h-0.448V40.53L100.728,40.53z M101.651,40.449l2.133-0.185h-2.133V40.449L101.651,40.449z M99.805,39.859l-2.466-0.214v0.214
			H99.805L99.805,39.859z M97.339,22.399l3.84-0.332v-0.112h-3.84V22.399L97.339,22.399z M101.702,22.022l0.783-0.067h-0.783V22.022
			L101.702,22.022z M100.163,21.47l-1.131-0.097v0.097h0.449l0,0h0.398l0,0H100.163L100.163,21.47z M98.569,21.334l-1.291-0.112
			v0.248h1.291V21.334L98.569,21.334z M96.942,21.193l-0.42-0.036l0.42-0.036v-0.106V20.65v-0.439h-0.45h-0.841v0.439h0.841v0.364
			h-1.304v-0.348v-0.456h-0.451h-1.305h-0.449v0.456v0.803h0.449v-0.803h1.305v0.348v0.455h0.451h1.304h0.45V21.193L96.942,21.193z
			 M97.278,21.09l0.682-0.058h-0.232v-0.365h1.305v0.272l0.449-0.038v-0.234v-0.571l-0.449-0.038v0.153h-1.305h-0.449v0.821V21.09
			L97.278,21.09z M99.88,20.866l0.449-0.039V20.17l-0.449-0.038V20.866L99.88,20.866z M100.728,20.791l0.451-0.038v-0.512
			l-0.451-0.038V20.791L100.728,20.791z M101.669,20.713l0.45-0.041v-0.005h0.052l1.703-0.146v-0.047l-2.205-0.188v0.382V20.713
			L101.669,20.713z M97.022,19.796l1.511-0.13v-0.273h-5.568v0.403H97.022L97.022,19.796z M99.032,19.622l0.449-0.038v-0.191h-0.449
			V19.622L99.032,19.622z M99.88,19.551l0.449-0.04v-0.118H99.88V19.551L99.88,19.551z M100.728,19.477l0.451-0.039v-0.045h-0.451
			V19.477L100.728,19.477z M101.651,19.397l0.068-0.005h-0.068V19.397L101.651,19.397z M93.848,21.032h0.45v0.438h-0.45V21.032
			L93.848,21.032z M92.965,40.265h5.568v0.405h-5.568V40.265L92.965,40.265z M93.848,41.906h0.45v0.44h-0.45V41.906z"/>
		<path fill-rule="evenodd" clip-rule="evenodd" fill="#EC1C24" d="M63.428,25.117c0.019,0.076,0.028,0.161,0.028,0.245
			c0,0.59-0.479,1.072-1.072,1.072c-0.207,0-0.404-0.062-0.568-0.164c-0.166,0.102-0.361,0.164-0.57,0.164
			c-0.592,0-1.069-0.482-1.069-1.072c0-0.084,0.007-0.169,0.025-0.245c0.112,0.471,0.537,0.823,1.044,0.823
			c0.209,0,0.404-0.062,0.57-0.164c0.164,0.103,0.361,0.164,0.568,0.164C62.892,25.94,63.315,25.588,63.428,25.117L63.428,25.117z
			 M61.906,26.509l0.805,0.552l-0.258,7.694c2.752-2.037,2.624-5.788,1.37-7.832c2.527,1.711,2.475,6.824-1.078,8.602
			c0.645,0.261,1.387,0.452,2.238,0.552c-0.967,0.116-1.824,0.074-2.571-0.084l-0.002,0.006l-0.504,0.742l-0.507-0.742v-0.006
			c-0.747,0.158-1.604,0.2-2.571,0.084c0.852-0.1,1.594-0.291,2.238-0.552c-3.553-1.777-3.606-6.891-1.08-8.602
			c-1.253,2.044-1.381,5.795,1.372,7.832L61.1,27.061L61.906,26.509L61.906,26.509z M65.53,34.534
			c1.322-0.642,2.189-2.11,2.098-3.818c-0.115-2.128-1.681-3.886-3.594-4.131c1.447,0.896,2.476,2.547,2.578,4.438
			C66.687,32.381,66.271,33.614,65.53,34.534L65.53,34.534z M58.281,34.534c-0.739-0.92-1.156-2.153-1.082-3.512
			c0.103-1.891,1.131-3.542,2.576-4.438c-1.911,0.245-3.476,2.003-3.591,4.131C56.092,32.424,56.959,33.893,58.281,34.534z"/>
	</g>
</g>
</svg>
