<?xml version="1.0" encoding="utf-8"?>
<!-- Generator: Adobe Illustrator 15.0.0, SVG Export Plug-In . SVG Version: 6.00 Build 0)  -->
<!DOCTYPE svg PUBLIC "-//W3C//DTD SVG 1.1//EN" "http://www.w3.org/Graphics/SVG/1.1/DTD/svg11.dtd">
<svg version="1.1" id="Layer_1" xmlns="http://www.w3.org/2000/svg" xmlns:xlink="http://www.w3.org/1999/xlink" x="0px" y="0px"
	 width="121.739px" height="65.218px" viewBox="0 0 121.739 65.218" enable-background="new 0 0 121.739 65.218"
	 xml:space="preserve">
<g>
	<rect x="12.374" y="4.963" fill-rule="evenodd" clip-rule="evenodd" fill="#231F20" width="99.75" height="52.875"/>
	<g>
		<rect x="78.581" y="5.844" fill-rule="evenodd" clip-rule="evenodd" fill="#EC1C24" width="32.663" height="51.12"/>
		<rect x="45.916" y="5.844" fill-rule="evenodd" clip-rule="evenodd" fill="#FFFFFF" width="32.665" height="51.12"/>
		<rect x="13.253" y="5.844" fill-rule="evenodd" clip-rule="evenodd" fill="#0DB04B" width="32.663" height="51.12"/>
		<polygon fill-rule="evenodd" clip-rule="evenodd" fill="#00954E" points="27.119,56.964 31.979,56.964 39.066,56.346 
			31.459,55.69 39.066,55.03 31.459,54.376 39.066,53.715 31.459,53.061 39.066,52.401 31.459,51.741 39.066,51.086 31.459,50.426 
			39.066,49.771 31.459,49.111 39.066,48.457 31.459,47.797 39.066,47.142 31.459,46.481 39.066,45.827 31.459,45.168 
			39.066,44.508 31.459,43.853 39.066,43.192 31.459,42.532 39.066,41.877 31.459,41.224 39.066,40.563 31.459,39.903 
			39.066,39.248 31.459,38.588 39.066,37.934 31.459,37.273 39.066,36.619 31.459,35.96 39.066,35.299 31.459,34.645 39.066,33.985 
			31.459,33.325 39.066,32.67 31.459,32.01 39.066,31.355 31.459,30.696 39.066,30.041 31.459,29.381 39.066,28.726 31.459,28.065 
			39.066,27.411 31.459,26.752 39.066,26.092 31.459,25.437 39.066,24.776 31.459,24.121 39.066,23.462 31.459,22.808 
			39.066,22.147 31.459,21.492 39.066,20.832 31.459,20.173 39.066,19.518 31.459,18.857 39.066,18.197 31.459,17.543 
			39.066,16.883 31.459,16.229 39.066,15.563 31.459,14.908 39.066,14.253 31.459,13.593 39.066,12.939 31.459,12.279 
			39.066,11.624 31.459,10.965 39.066,10.31 31.459,9.649 39.066,8.99 31.459,8.336 39.066,7.676 31.459,7.021 39.066,6.36 
			33.091,5.844 26.009,5.844 20.031,6.36 27.638,7.021 20.031,7.676 27.638,8.336 20.031,8.99 27.638,9.649 20.031,10.31 
			27.638,10.965 20.031,11.624 27.638,12.279 20.031,12.939 27.638,13.593 20.031,14.253 27.638,14.908 20.031,15.563 
			27.638,16.229 20.031,16.883 27.638,17.543 20.031,18.197 27.638,18.857 20.031,19.518 27.638,20.173 20.031,20.832 
			27.638,21.492 20.031,22.147 27.638,22.808 20.031,23.462 27.638,24.121 20.031,24.776 27.638,25.437 20.031,26.092 
			27.638,26.752 20.031,27.411 27.638,28.065 20.031,28.726 27.638,29.381 20.031,30.041 27.638,30.696 20.031,31.355 27.638,32.01 
			20.031,32.67 27.638,33.325 20.031,33.985 27.638,34.645 20.031,35.299 27.638,35.96 20.031,36.619 27.638,37.273 20.031,37.934 
			27.638,38.588 20.031,39.248 27.638,39.903 20.031,40.563 27.638,41.224 20.031,41.877 27.638,42.532 20.031,43.192 
			27.638,43.853 20.031,44.508 27.638,45.168 20.031,45.827 27.638,46.481 20.031,47.142 27.638,47.797 20.031,48.457 
			27.638,49.111 20.031,49.771 27.638,50.426 20.031,51.086 27.638,51.741 20.031,52.405 27.638,53.061 20.031,53.715 
			27.638,54.376 20.031,55.03 27.638,55.69 20.031,56.346 		"/>
		<polygon fill-rule="evenodd" clip-rule="evenodd" fill="#D8E1E7" points="64.677,56.964 59.82,56.964 52.73,56.346 60.336,55.69 
			52.73,55.03 60.336,54.376 52.73,53.715 60.336,53.061 52.73,52.405 60.336,51.741 52.73,51.086 60.336,50.426 52.73,49.771 
			60.336,49.111 52.73,48.457 60.336,47.797 52.73,47.142 60.336,46.481 52.73,45.827 60.336,45.168 52.73,44.508 60.336,43.853 
			52.73,43.192 60.336,42.532 52.73,41.877 60.336,41.224 52.73,40.563 60.336,39.903 52.73,39.248 60.336,38.588 52.73,37.934 
			60.336,37.273 52.73,36.619 60.336,35.96 52.73,35.299 60.336,34.645 52.73,33.985 60.336,33.325 52.73,32.67 60.336,32.01 
			52.73,31.355 60.336,30.696 52.73,30.041 60.336,29.381 52.73,28.726 60.336,28.065 52.73,27.411 60.336,26.752 52.73,26.092 
			60.336,25.437 52.73,24.776 60.336,24.121 52.73,23.462 60.336,22.808 52.73,22.147 60.336,21.492 52.73,20.832 60.336,20.173 
			52.73,19.518 60.336,18.857 52.73,18.197 60.336,17.543 52.73,16.883 60.336,16.229 52.73,15.563 60.336,14.908 52.73,14.253 
			60.336,13.593 52.73,12.939 60.336,12.279 52.73,11.624 60.336,10.965 52.73,10.31 60.336,9.649 52.73,8.99 60.336,8.336 
			52.73,7.676 60.336,7.021 52.73,6.36 58.707,5.844 65.79,5.844 71.765,6.36 64.161,7.021 71.767,7.676 64.161,8.336 71.765,8.99 
			64.158,9.649 71.767,10.31 64.161,10.965 71.767,11.624 64.161,12.279 71.765,12.939 64.161,13.593 71.767,14.253 64.161,14.908 
			71.765,15.563 64.161,16.229 71.765,16.883 64.161,17.543 71.765,18.197 64.158,18.857 71.765,19.518 64.161,20.173 
			71.767,20.832 64.161,21.492 71.767,22.147 64.161,22.808 71.765,23.462 64.161,24.121 71.765,24.776 64.161,25.437 
			71.767,26.092 64.161,26.752 71.765,27.411 64.161,28.065 71.765,28.726 64.161,29.381 71.765,30.041 64.161,30.696 
			71.765,31.355 64.161,32.01 71.765,32.67 64.161,33.325 71.767,33.985 64.161,34.645 71.765,35.299 64.161,35.96 71.765,36.619 
			64.161,37.273 71.765,37.934 64.161,38.588 71.765,39.248 64.161,39.903 71.765,40.563 64.161,41.224 71.767,41.877 
			64.161,42.532 71.765,43.192 64.161,43.853 71.765,44.508 64.161,45.168 71.767,45.827 64.161,46.481 71.765,47.142 
			64.161,47.797 71.765,48.457 64.161,49.111 71.765,49.771 64.161,50.426 71.765,51.086 64.161,51.741 71.765,52.401 
			64.161,53.061 71.765,53.715 64.161,54.376 71.765,55.03 64.161,55.69 71.767,56.346 		"/>
		<polygon fill-rule="evenodd" clip-rule="evenodd" fill="#C3161C" points="92.519,56.964 97.376,56.964 104.464,56.346 
			96.859,55.69 104.464,55.03 96.859,54.376 104.464,53.715 96.859,53.061 104.464,52.401 96.859,51.741 104.464,51.086 
			96.859,50.426 104.464,49.771 96.859,49.111 104.464,48.457 96.859,47.797 104.464,47.142 96.859,46.481 104.464,45.827 
			96.859,45.168 104.464,44.508 96.859,43.853 104.464,43.192 96.859,42.532 104.464,41.877 96.859,41.224 104.464,40.563 
			96.859,39.903 104.464,39.248 96.859,38.588 104.464,37.934 96.859,37.273 104.464,36.619 96.859,35.96 104.464,35.299 
			96.859,34.645 104.464,33.985 96.859,33.325 104.464,32.67 96.859,32.01 104.464,31.355 96.859,30.696 104.464,30.041 
			96.859,29.381 104.464,28.726 96.859,28.065 104.464,27.411 96.859,26.752 104.464,26.092 96.859,25.437 104.464,24.776 
			96.859,24.121 104.464,23.462 96.859,22.808 104.464,22.147 96.859,21.492 104.464,20.832 96.859,20.173 104.464,19.518 
			96.859,18.857 104.464,18.197 96.859,17.543 104.464,16.883 96.859,16.229 104.464,15.563 96.859,14.908 104.464,14.253 
			96.859,13.593 104.464,12.939 96.859,12.279 104.464,11.624 96.859,10.965 104.464,10.31 96.859,9.649 104.464,8.99 96.859,8.336 
			104.464,7.676 96.859,7.021 104.464,6.36 98.489,5.844 91.406,5.844 85.429,6.36 93.036,7.021 85.431,7.676 93.036,8.336 
			85.429,8.99 93.036,9.649 85.429,10.31 93.036,10.965 85.429,11.624 93.036,12.279 85.429,12.939 93.036,13.593 85.429,14.253 
			93.036,14.908 85.429,15.563 93.036,16.229 85.429,16.883 93.036,17.543 85.429,18.197 93.036,18.857 85.429,19.518 
			93.036,20.173 85.429,20.832 93.036,21.492 85.429,22.147 93.036,22.808 85.429,23.462 93.036,24.121 85.429,24.776 
			93.036,25.437 85.429,26.092 93.036,26.752 85.429,27.411 93.036,28.065 85.429,28.726 93.036,29.381 85.429,30.041 
			93.036,30.696 85.429,31.355 93.036,32.01 85.429,32.67 93.036,33.325 85.429,33.985 93.036,34.645 85.429,35.299 93.036,35.96 
			85.429,36.619 93.036,37.273 85.429,37.934 93.036,38.588 85.429,39.248 93.036,39.903 85.429,40.563 93.036,41.224 
			85.429,41.877 93.036,42.532 85.429,43.192 93.036,43.853 85.429,44.508 93.036,45.168 85.429,45.827 93.036,46.481 
			85.429,47.142 93.036,47.797 85.429,48.457 93.036,49.111 85.429,49.771 93.036,50.426 85.429,51.086 93.036,51.741 
			85.429,52.405 93.036,53.061 85.429,53.715 93.036,54.376 85.429,55.03 93.036,55.69 85.429,56.346 		"/>
	</g>
</g>
</svg>
