<?xml version="1.0" encoding="utf-8"?>
<!-- Generator: Adobe Illustrator 15.0.0, SVG Export Plug-In . SVG Version: 6.00 Build 0)  -->
<!DOCTYPE svg PUBLIC "-//W3C//DTD SVG 1.1//EN" "http://www.w3.org/Graphics/SVG/1.1/DTD/svg11.dtd">
<svg version="1.1" id="Layer_1" xmlns="http://www.w3.org/2000/svg" xmlns:xlink="http://www.w3.org/1999/xlink" x="0px" y="0px"
	 width="121.739px" height="65.218px" viewBox="0 0 121.739 65.218" enable-background="new 0 0 121.739 65.218"
	 xml:space="preserve">
<g>
	<rect x="12.371" y="4.773" fill-rule="evenodd" clip-rule="evenodd" fill="#231F20" width="99.753" height="52.875"/>
	<g>
		<rect x="78.579" y="5.651" fill-rule="evenodd" clip-rule="evenodd" fill="#EC1C24" width="32.665" height="51.121"/>
		<rect x="45.916" y="5.651" fill-rule="evenodd" clip-rule="evenodd" fill="#FFFFFF" width="32.663" height="51.121"/>
		<rect x="13.25" y="5.651" fill-rule="evenodd" clip-rule="evenodd" fill="#0DB04B" width="32.666" height="51.121"/>
		<polygon fill-rule="evenodd" clip-rule="evenodd" fill="#00954E" points="27.119,56.771 31.976,56.771 39.066,56.157 
			31.459,55.497 39.066,54.842 31.459,54.182 39.066,53.521 31.459,52.867 39.066,52.211 31.459,51.551 39.066,50.896 
			31.459,50.238 39.066,49.581 31.459,48.922 39.066,48.264 31.459,47.604 39.066,46.949 31.459,46.289 39.066,45.635 
			31.459,44.977 39.066,44.316 31.459,43.659 39.066,43 31.459,42.342 39.066,41.686 31.459,41.03 39.066,40.373 31.459,39.713 
			39.066,39.055 31.459,38.396 39.066,37.74 31.459,37.081 39.066,36.426 31.459,35.767 39.066,35.109 31.459,34.454 39.066,33.795 
			31.459,33.137 39.066,32.477 31.459,31.822 39.066,31.162 31.459,30.505 39.066,29.847 31.459,29.19 39.066,28.533 31.459,27.875 
			39.066,27.219 31.459,26.561 39.066,25.898 31.459,25.244 39.066,24.586 31.459,23.929 39.066,23.271 31.459,22.614 
			39.066,21.955 31.459,21.299 39.066,20.639 31.459,19.979 39.066,19.325 31.459,18.665 39.066,18.007 31.459,17.35 39.066,16.692 
			31.459,16.035 39.066,15.375 31.459,14.721 39.066,14.061 31.459,13.406 39.066,12.749 31.459,12.089 39.066,11.432 
			31.459,10.771 39.066,10.117 31.459,9.457 39.066,8.802 31.459,8.145 39.066,7.485 31.459,6.828 39.066,6.167 33.091,5.651 
			26.006,5.651 20.031,6.167 27.638,6.828 20.031,7.485 27.638,8.145 20.031,8.802 27.638,9.457 20.031,10.117 27.638,10.771 
			20.031,11.432 27.638,12.089 20.031,12.749 27.638,13.406 20.031,14.061 27.638,14.721 20.031,15.375 27.638,16.035 
			20.031,16.692 27.638,17.35 20.031,18.007 27.638,18.665 20.031,19.325 27.638,19.979 20.031,20.639 27.638,21.299 20.031,21.955 
			27.638,22.614 20.031,23.271 27.638,23.929 20.031,24.586 27.638,25.244 20.031,25.898 27.638,26.561 20.031,27.219 
			27.638,27.875 20.031,28.533 27.638,29.188 20.031,29.847 27.638,30.505 20.031,31.162 27.638,31.822 20.031,32.477 
			27.638,33.137 20.031,33.795 27.638,34.451 20.031,35.109 27.638,35.767 20.031,36.426 27.638,37.081 20.031,37.74 27.638,38.396 
			20.031,39.055 27.638,39.713 20.031,40.373 27.638,41.03 20.031,41.686 27.638,42.342 20.031,43 27.638,43.659 20.031,44.316 
			27.638,44.975 20.031,45.635 27.638,46.289 20.031,46.949 27.638,47.604 20.031,48.264 27.638,48.922 20.031,49.581 
			27.638,50.238 20.031,50.896 27.638,51.551 20.031,52.213 27.638,52.867 20.031,53.521 27.638,54.182 20.031,54.842 
			27.638,55.497 20.031,56.157 		"/>
		<polygon fill-rule="evenodd" clip-rule="evenodd" fill="#D8E1E7" points="64.677,56.771 59.817,56.771 52.73,56.157 
			60.336,55.497 52.73,54.842 60.336,54.182 52.73,53.521 60.336,52.867 52.73,52.213 60.336,51.551 52.73,50.896 60.336,50.238 
			52.73,49.581 60.336,48.922 52.73,48.264 60.336,47.604 52.73,46.949 60.336,46.289 52.73,45.635 60.336,44.975 52.73,44.316 
			60.336,43.659 52.73,43 60.336,42.342 52.73,41.686 60.336,41.03 52.73,40.373 60.336,39.713 52.73,39.055 60.336,38.396 
			52.73,37.74 60.336,37.081 52.73,36.426 60.336,35.767 52.73,35.109 60.336,34.451 52.73,33.795 60.336,33.137 52.73,32.477 
			60.336,31.822 52.73,31.162 60.336,30.505 52.73,29.847 60.336,29.188 52.73,28.533 60.336,27.875 52.73,27.219 60.336,26.561 
			52.73,25.898 60.336,25.244 52.73,24.586 60.336,23.929 52.73,23.271 60.336,22.614 52.73,21.955 60.336,21.299 52.73,20.639 
			60.336,19.979 52.73,19.325 60.336,18.665 52.73,18.007 60.336,17.35 52.73,16.692 60.336,16.035 52.73,15.375 60.336,14.721 
			52.73,14.061 60.336,13.406 52.73,12.749 60.336,12.089 52.73,11.432 60.336,10.771 52.73,10.117 60.336,9.457 52.73,8.802 
			60.336,8.145 52.73,7.485 60.336,6.828 52.73,6.167 58.705,5.651 65.788,5.651 71.765,6.167 64.158,6.828 71.765,7.485 
			64.158,8.145 71.765,8.802 64.158,9.457 71.765,10.117 64.158,10.771 71.765,11.432 64.158,12.089 71.765,12.749 64.158,13.406 
			71.765,14.061 64.158,14.721 71.765,15.375 64.158,16.035 71.765,16.692 64.158,17.35 71.765,18.007 64.158,18.665 71.765,19.325 
			64.158,19.979 71.765,20.639 64.158,21.299 71.765,21.955 64.158,22.614 71.765,23.271 64.158,23.929 71.765,24.586 
			64.158,25.244 71.765,25.898 64.158,26.561 71.765,27.219 64.158,27.875 71.765,28.533 64.158,29.19 71.765,29.847 64.158,30.505 
			71.765,31.162 64.158,31.822 71.765,32.477 64.158,33.137 71.765,33.795 64.158,34.454 71.765,35.109 64.158,35.767 
			71.765,36.426 64.158,37.081 71.765,37.74 64.158,38.396 71.765,39.055 64.158,39.713 71.765,40.373 64.158,41.03 71.765,41.686 
			64.158,42.342 71.765,43 64.158,43.659 71.765,44.316 64.158,44.977 71.765,45.635 64.158,46.289 71.765,46.949 64.158,47.604 
			71.765,48.264 64.158,48.922 71.765,49.581 64.158,50.238 71.765,50.896 64.158,51.551 71.765,52.211 64.158,52.867 
			71.765,53.521 64.158,54.182 71.765,54.842 64.158,55.497 71.765,56.157 		"/>
		<polygon fill-rule="evenodd" clip-rule="evenodd" fill="#C3161C" points="92.519,56.771 97.376,56.771 104.464,56.157 
			96.859,55.497 104.464,54.842 96.859,54.182 104.464,53.521 96.859,52.867 104.464,52.211 96.859,51.551 104.464,50.896 
			96.859,50.238 104.464,49.581 96.859,48.922 104.464,48.264 96.859,47.604 104.464,46.949 96.859,46.289 104.464,45.635 
			96.859,44.977 104.464,44.316 96.859,43.659 104.464,43 96.859,42.342 104.464,41.686 96.859,41.03 104.464,40.373 96.859,39.713 
			104.464,39.055 96.859,38.396 104.464,37.74 96.859,37.081 104.464,36.426 96.859,35.767 104.464,35.109 96.859,34.454 
			104.464,33.795 96.859,33.137 104.464,32.477 96.859,31.822 104.464,31.162 96.859,30.505 104.464,29.847 96.859,29.19 
			104.464,28.533 96.859,27.875 104.464,27.219 96.859,26.561 104.464,25.898 96.859,25.244 104.464,24.586 96.859,23.929 
			104.464,23.271 96.859,22.614 104.464,21.955 96.859,21.299 104.464,20.639 96.859,19.979 104.464,19.325 96.856,18.665 
			104.464,18.007 96.859,17.35 104.464,16.692 96.859,16.035 104.464,15.375 96.859,14.721 104.464,14.061 96.859,13.406 
			104.464,12.749 96.859,12.089 104.464,11.432 96.859,10.771 104.464,10.117 96.856,9.457 104.464,8.802 96.859,8.145 
			104.464,7.485 96.859,6.828 104.464,6.167 98.489,5.651 91.406,5.651 85.429,6.167 93.036,6.828 85.429,7.485 93.036,8.145 
			85.429,8.802 93.036,9.457 85.429,10.117 93.036,10.771 85.429,11.432 93.036,12.089 85.429,12.749 93.036,13.406 85.429,14.061 
			93.036,14.721 85.429,15.375 93.036,16.035 85.429,16.692 93.036,17.35 85.429,18.007 93.036,18.665 85.429,19.325 93.036,19.979 
			85.429,20.639 93.036,21.299 85.429,21.955 93.036,22.614 85.429,23.271 93.036,23.929 85.429,24.586 93.036,25.244 
			85.429,25.898 93.036,26.561 85.429,27.219 93.036,27.875 85.429,28.533 93.036,29.188 85.429,29.847 93.036,30.505 
			85.429,31.162 93.036,31.822 85.429,32.477 93.036,33.137 85.429,33.795 93.036,34.451 85.429,35.109 93.036,35.767 
			85.429,36.426 93.036,37.081 85.429,37.74 93.036,38.396 85.429,39.055 93.036,39.713 85.429,40.373 93.036,41.03 85.429,41.686 
			93.036,42.342 85.429,43 93.036,43.659 85.429,44.316 93.036,44.975 85.429,45.635 93.036,46.289 85.429,46.949 93.036,47.604 
			85.429,48.264 93.036,48.922 85.429,49.581 93.036,50.238 85.429,50.896 93.036,51.551 85.429,52.213 93.036,52.867 
			85.429,53.521 93.036,54.182 85.429,54.842 93.036,55.497 85.429,56.157 		"/>
		<g>
			<path fill-rule="evenodd" clip-rule="evenodd" fill="#00835F" d="M55.789,32.838c0.501-0.144,1.1,0.449,1.312,0.798
				c0.422,0.688,0.771,0.21,1.502,0.384c0.988,0.232,0.529,1.021,1.545,0.493c0.588-0.307,1.36-0.307,1.905,0.087
				c0.622,0.451-0.038,0.66,0.834,0.484c0.698-0.144,2.515-0.717,2.79,0.362c0.09,0.345-0.035,0.515,0.415,0.011
				c1.276-1.44,2.384-0.627,1.903,0.209c-0.522,0.903-0.717,1.408-1.953,0.775c-0.262-0.136-0.516-0.271-0.771-0.266
				c-0.657,0.016-1.041,0.394-1.646,0.394c-0.019,0.471-0.397,0.847-0.862,0.847c-0.479,0-0.868-0.394-0.868-0.879
				c0-0.197,0.064-0.382,0.172-0.525c-0.125,0.069-0.274,0.188-0.369,0.195c-0.959,0.061-1.704-0.814-2.258-0.494
				c-0.673,0.386-1.883-0.016-2.269-0.622c-0.445-0.692,0.097-0.637-0.639-0.599C56.065,34.516,54.692,33.748,55.789,32.838z"/>
			<path fill-rule="evenodd" clip-rule="evenodd" fill="#EAA87D" d="M63.802,33.535L64.22,33.5l0.148,0.891
				c0.281-0.003,0.512,0.143,0.726,0.133c0.228-0.006,0.499,0.701-0.122,0.514c-0.251-0.074-0.527-0.135-0.783-0.131
				c-0.033,0-0.066,0.004-0.103,0.006c-0.133,0.133-0.245,0.291-0.286,0.455c-0.123,0.471-0.291,0.573-0.389,0.021
				c-0.016-0.09-0.01-0.174,0.013-0.261c-0.107,0.066-0.2,0.148-0.263,0.24c-0.074,0.107,0.092,0.344,0.018,0.391
				c-0.203,0.131-0.535-0.242-0.458-0.506c0.144-0.494,0.612-0.709,1.233-0.82L63.802,33.535z"/>
			<path fill="#009756" d="M58.286,25.39c-0.092,0.033,0.002,0.158-0.11,0.168c-0.115,0.013-0.438-0.087-0.511-0.031
				c-0.187,0.146-0.443-0.002-0.53,0.182c-0.23,0.479-0.048,1.006,0.931,1.171c1.412,0.241,1.463,0.918,0.392,1.832
				c-1.696,1.438,0.217,1.458,1.089,1.708c2.611,0.752-1.593,4.533-2.64,1.66c-0.506-1.391-1.195-0.486-0.873-1.908
				c0.08-0.358,0.148-0.662-0.051-1.054v0.003c-0.169-0.292-1.09-0.374-1.264-0.153c-0.133-0.512,0.586-0.608,1.256-0.419
				c1.269,0.355,0.296,2.074,0.706,2.264c0.749,0.342,0.76,1.241,1.026,1.557l0,0l0.015,0.016c0.788,0.839,3.473-1.435,1.084-1.529
				c-0.869-0.066-1.836-0.143-1.788-1.249c0.054-1.223,2.512-1.915,0.911-2.189c-1.748-0.296-1.878-1.586-0.898-2.445
				c0.55-0.486,0.734-0.604,1.279-0.245l-0.609,0.535L58.286,25.39z"/>
			<path fill="#A60E13" d="M58.114,26.891c1.305,0.235,1.396,0.861,0.473,1.704C58.95,27.891,59.196,27.294,58.114,26.891z"/>
			<path fill="#A60E13" d="M58.157,28.988c-1.135,1.164,0.576,1.199,1.389,1.432c0.724,0.21,0.923,0.65,0.811,1.118
				c-0.199-0.169-0.373-0.537-0.583-0.67c-0.665-0.422-1.765-0.179-2.151-0.954C57.457,29.576,57.789,29.216,58.157,28.988z"/>
			<path fill-rule="evenodd" clip-rule="evenodd" fill="#EAA87D" d="M60.332,32.047l0.263,0.351l-0.598,0.138
				c0.484,0.328,0.465,0.652,0.328,0.852c-0.477,0.697-0.335-0.059-0.354-0.174c-0.023-0.163-0.12-0.337-0.276-0.482v0.005
				c-0.253-0.087-0.647-0.144-0.913-0.022c-0.443,0.204-0.629,0.135-0.261-0.287c0.02-0.023,0.041-0.043,0.063-0.062
				c-0.056,0.005-0.113,0.019-0.161,0.036c-0.458,0.171-0.637,0.09-0.238-0.307c0.386-0.382,1.164-0.067,1.486,0.076L60.332,32.047z
				"/>
			<path fill-rule="evenodd" clip-rule="evenodd" fill="#943A07" d="M64.478,33.377l0.885,0.818l3.223-0.49l-2.994-2.01
				c-1.123-0.755-0.985-0.801-1.137-2.042c-0.205-1.676,1.443,0.562,1.537,1.176c0.183,0,0.074-0.005,0.233,0.054
				c-0.077-0.55-0.112-0.921-0.062-0.928c0.059-0.008,0.215,0.447,0.395,1.103c0.112,0.074,0.223,0.163,0.327,0.258
				c-0.005-0.742,0.007-1.273,0.069-1.273c0.074,0,0.197,0.721,0.294,1.653c0.079,0.092,0.156,0.186,0.235,0.284
				c-0.016-1.083-0.021-1.977,0.061-1.977c0.093,0,0.274,1.212,0.369,2.522c0.089,0.106,0.179,0.215,0.271,0.314
				c-0.021-1.466-0.056-2.975,0.05-2.975c0.114,0,0.357,1.816,0.416,3.405c0.088,0.061,0.176,0.115,0.266,0.156
				c-0.012-1.617-0.074-3.54,0.044-3.54c0.12,0,0.386,2.01,0.427,3.649c0.133,0.002,0.092,0.082,0.241,0.033
				c0.634-4.727-0.663-9.592-6.745-10.656c-1.215-0.212-2.092,0.806-1.747,0.949c1.069,0.445,1.716,1.307,1.629,2.294
				c-0.476-0.759-2.128-2.225-3.13-1.695c-0.34,0.181-1.189,0.678-1.322,1.028c-0.062,0.169,0.077,0.33,0.077,0.537
				c0.468,0.727,0.885,0.704,1.228,0.571c0.023-0.008,0.046-0.018,0.069-0.028c0.353-0.187,0.652-0.405,0.868-0.627
				c-0.077,0.187-0.25,0.391-0.501,0.578c0.079,0.079,0.125,0.284,0.125,0.726c-1.335,1.256-0.328,2.888,0.059,3.448
				c0.107,0.156,0.353,0.379,0.647,0.629c-0.428,0.238-0.717,0.573-0.717,0.879c0,0.456,0.627,0.681,1.397,0.504
				c0.232-0.054,0.453-0.138,0.647-0.243c0.442,0.52,1.054,1.576,1.542,1.497c0.271-0.044,0.551-0.182,0.629-0.312
				C64.419,33.582,64.45,33.49,64.478,33.377z"/>
			<path fill-rule="evenodd" clip-rule="evenodd" fill="#EAA87D" d="M58.308,27.456c0.202,0,0.128-0.351,0.084-0.279
				c-0.34-0.205,0.039-0.517,0.271-0.509c-0.402,0.458,0.36,0.118,0.465,0.105c0.721-0.082,0.908-0.783-0.072-0.732
				c-0.279,0.016-0.294-0.455-0.663-0.203C57.861,26.21,57.354,27.195,58.308,27.456z"/>
			<path fill-rule="evenodd" clip-rule="evenodd" fill="#EAA87D" d="M54.193,36.943c0.125,0,0.229,0.079,0.268,0.189h0.488v0.176
				h-0.488c-0.039,0.107-0.144,0.187-0.268,0.187c-0.159,0-0.287-0.122-0.287-0.276C53.906,37.065,54.034,36.943,54.193,36.943z"/>
			<path fill-rule="evenodd" clip-rule="evenodd" fill="#EAA87D" d="M55.211,36.329c0.015,0.122-0.046,0.24-0.151,0.291l0.064,0.483
				l-0.174,0.023l-0.066-0.483c-0.11-0.023-0.202-0.117-0.22-0.243c-0.021-0.153,0.084-0.297,0.235-0.317
				S55.19,36.173,55.211,36.329z"/>
			<path fill-rule="evenodd" clip-rule="evenodd" fill="#EAA87D" d="M52.64,33.699c0.108,0.066,0.156,0.189,0.131,0.302l0.412,0.259
				l-0.095,0.15l-0.412-0.261c-0.089,0.071-0.222,0.082-0.327,0.019c-0.136-0.084-0.177-0.259-0.095-0.387
				C52.333,33.653,52.507,33.615,52.64,33.699z"/>
			<path fill-rule="evenodd" clip-rule="evenodd" fill="#EAA87D" d="M53.873,33.726c-0.051,0.112-0.166,0.177-0.281,0.165
				l-0.202,0.443l-0.161-0.072l0.202-0.444c-0.084-0.079-0.113-0.208-0.059-0.322c0.064-0.144,0.229-0.208,0.368-0.146
				C53.881,33.414,53.94,33.579,53.873,33.726z"/>
			<path fill-rule="evenodd" clip-rule="evenodd" fill="#EAA87D" d="M57.093,39.562c0.118-0.052,0.245-0.019,0.322,0.066
				l0.451-0.189l0.066,0.164l-0.447,0.189c0.007,0.115-0.059,0.229-0.176,0.275c-0.144,0.062-0.31,0-0.369-0.143
				C56.881,39.787,56.95,39.623,57.093,39.562z"/>
			<path fill-rule="evenodd" clip-rule="evenodd" fill="#EAA87D" d="M57.932,38.475c0.064,0.107,0.051,0.238-0.023,0.328
				l0.248,0.419l-0.153,0.09l-0.248-0.42c-0.113,0.023-0.233-0.028-0.299-0.138c-0.08-0.133-0.036-0.307,0.094-0.384
				C57.682,38.293,57.853,38.34,57.932,38.475z"/>
			<path fill="#0DB04B" d="M52.985,33.106l0.016,0.073c0.087,0.358,0.192,0.693,0.317,1.031c0.483-0.055,1.238,1.515,0.926,1.857
				c0.225,0.348,0.476,0.68,0.742,0.99c0.238-0.121,0.716,0.104,1.115,0.539c0.302,0.322,0.481,0.681,0.494,0.936
				c0.43,0.308,0.88,0.571,1.343,0.783c0.11-0.262,0.67-0.299,1.266-0.084c0.476,0.168,0.832,0.45,0.913,0.693
				c0.258,0.027,0.517,0.038,0.772,0.03c0.371-0.011,0.739-0.06,1.1-0.144l0.036,0.151c-0.372,0.087-0.75,0.136-1.13,0.146
				c-0.253,0.008-0.512,0-0.765-0.025c-0.003,0.01-0.005,0.021-0.007,0.031c-0.098,0.268-0.665,0.312-1.271,0.096
				c-0.496-0.179-0.865-0.479-0.923-0.73c-0.468-0.21-0.923-0.471-1.356-0.772c-0.015,0.035-0.035,0.069-0.063,0.095
				c-0.21,0.193-0.734-0.028-1.171-0.499c-0.389-0.423-0.576-0.9-0.46-1.136c-0.276-0.322-0.535-0.662-0.768-1.023
				c-0.255,0.052-0.672-0.235-0.995-0.7c-0.133-0.194-0.468-1.019,0.013-1.29c-0.105-0.301-0.197-0.607-0.271-0.926
				c-0.043,0.029-0.089,0.041-0.135,0.041c-0.289,0-0.481-0.521-0.522-1.16c-0.039-0.627,0.205-0.336,0.299-0.546
				c0.095-0.212,0.08-0.616,0.223-0.616c0.161,0,0.207,0.471,0.302,0.727c0.074,0.201,0.248-0.161,0.217,0.436
				C53.218,32.533,53.136,32.904,52.985,33.106z"/>
			<path fill-rule="evenodd" clip-rule="evenodd" fill="#0088CF" d="M57.17,36.5c-0.788-0.435,0.322-0.733,1.08-0.078
				c0.47,0.406,0.486,0.007,0.727-0.236c0.192-0.191,0.813,0.801,1.299,0.906c1.42,0.309,3.019,0.289,4.431,0.201
				c0.1-0.005,0.406-0.125,0.711-0.223c0.966-0.307,0.875,0.282,0.158,0.514c-0.333,0.111-0.637,0.142-0.349,0.274
				c1.001,0.468,0.238,0.537-0.171,0.515c-0.361-0.021-0.324-0.377-0.627,0c-0.15,0.184-0.299,0.42-0.383,0.501
				c-0.469,0.468-2.185,0.614-3.011,0.31c-0.54-0.199-0.46-0.617-0.76-0.617c-0.319,0-1.54,0.408-1.652,0.09
				c-0.112-0.322,0.121-0.394,0.443-0.441c0.232-0.037,0.486-0.064,0.52-0.164c0.197-0.565-0.918-0.448-1.571-0.402
				c-0.202,0.016-0.542,0.023-0.739-0.092c-0.281-0.166,0.028-0.586,0.317-0.436c0.172,0.09,0.358,0.042,0.379,0.019
				C58.155,36.95,57.334,36.59,57.17,36.5z"/>
			<path fill-rule="evenodd" clip-rule="evenodd" fill="#F26F21" d="M60.649,36.814h3.576c0.138,0,0.256,0.115,0.256,0.256v1.52
				c0,0.139-0.118,0.254-0.256,0.254h-3.576c-0.144,0-0.256-0.115-0.256-0.254v-1.52C60.393,36.93,60.505,36.814,60.649,36.814z"/>
			<path fill-rule="evenodd" clip-rule="evenodd" fill="#F1B653" d="M70.302,36.943c-0.123,0-0.23,0.079-0.269,0.189h-0.485v0.176
				h0.485c0.038,0.107,0.146,0.187,0.269,0.187c0.158,0,0.287-0.122,0.287-0.276C70.589,37.065,70.46,36.943,70.302,36.943z"/>
			<path fill-rule="evenodd" clip-rule="evenodd" fill="#F1B653" d="M69.284,36.329c-0.016,0.122,0.046,0.24,0.15,0.291
				l-0.063,0.483l0.174,0.023l0.066-0.483c0.112-0.023,0.204-0.117,0.22-0.243c0.021-0.153-0.084-0.297-0.234-0.317
				C69.444,36.062,69.304,36.173,69.284,36.329z"/>
			<path fill-rule="evenodd" clip-rule="evenodd" fill="#F1B653" d="M71.854,33.699c-0.105,0.066-0.156,0.189-0.128,0.302
				l-0.415,0.259l0.096,0.15l0.414-0.261c0.09,0.071,0.22,0.082,0.327,0.019c0.133-0.084,0.175-0.259,0.095-0.387
				C72.161,33.653,71.987,33.615,71.854,33.699z"/>
			<path fill-rule="evenodd" clip-rule="evenodd" fill="#F1B653" d="M70.621,33.726c0.052,0.112,0.167,0.177,0.281,0.165
				l0.202,0.443l0.161-0.072l-0.202-0.444c0.085-0.079,0.113-0.208,0.06-0.322c-0.064-0.144-0.23-0.208-0.368-0.146
				C70.616,33.414,70.558,33.579,70.621,33.726z"/>
			<path fill-rule="evenodd" clip-rule="evenodd" fill="#F1B653" d="M67.401,39.562c-0.117-0.052-0.246-0.019-0.322,0.066
				l-0.45-0.189l-0.067,0.164l0.448,0.189c-0.007,0.115,0.06,0.229,0.174,0.275c0.146,0.062,0.312,0,0.371-0.143
				C67.616,39.787,67.544,39.623,67.401,39.562z"/>
			<path fill-rule="evenodd" clip-rule="evenodd" fill="#F1B653" d="M66.562,38.475c-0.062,0.107-0.051,0.238,0.026,0.328
				l-0.251,0.419l0.154,0.09l0.248-0.42c0.112,0.023,0.234-0.028,0.299-0.138c0.079-0.133,0.039-0.307-0.094-0.384
				C66.812,38.293,66.642,38.34,66.562,38.475z"/>
			<path fill="#0DB04B" d="M71.509,33.106l-0.015,0.073c-0.085,0.358-0.19,0.693-0.317,1.031c-0.483-0.055-1.238,1.515-0.926,1.857
				c-0.225,0.348-0.477,0.68-0.742,0.99c-0.238-0.121-0.713,0.104-1.115,0.539c-0.302,0.322-0.48,0.681-0.494,0.936
				c-0.427,0.308-0.877,0.571-1.342,0.783c-0.107-0.262-0.671-0.299-1.264-0.084c-0.477,0.168-0.834,0.45-0.916,0.693
				c-0.256,0.027-0.517,0.038-0.772,0.03c-0.368-0.011-0.737-0.06-1.1-0.144l-0.036,0.151c0.371,0.087,0.75,0.136,1.131,0.146
				c0.256,0.008,0.512,0,0.768-0.025c0,0.01,0.002,0.021,0.008,0.031c0.094,0.268,0.664,0.312,1.268,0.096
				c0.5-0.179,0.865-0.479,0.924-0.73c0.468-0.21,0.924-0.471,1.355-0.772c0.016,0.035,0.035,0.069,0.064,0.095
				c0.209,0.193,0.734-0.028,1.171-0.499c0.392-0.423,0.578-0.9,0.46-1.136c0.276-0.322,0.535-0.662,0.768-1.023
				c0.259,0.052,0.673-0.235,0.995-0.7c0.134-0.194,0.468-1.019-0.013-1.29c0.105-0.301,0.197-0.607,0.271-0.926
				c0.043,0.029,0.09,0.041,0.138,0.041c0.286,0,0.478-0.521,0.52-1.16c0.041-0.627-0.205-0.336-0.299-0.546
				c-0.095-0.212-0.077-0.616-0.221-0.616c-0.163,0-0.207,0.471-0.304,0.727c-0.074,0.201-0.246-0.161-0.217,0.436
				C71.276,32.533,71.358,32.904,71.509,33.106z"/>
			<polygon fill-rule="evenodd" clip-rule="evenodd" fill="#8BC53F" points="62.017,40.163 62.874,40.419 61.851,41.327 
				60.997,41.071 			"/>
			<polygon fill-rule="evenodd" clip-rule="evenodd" fill="#DBDCDD" points="62.301,40.248 62.874,40.419 61.851,41.327 
				61.278,41.155 			"/>
			<polygon fill-rule="evenodd" clip-rule="evenodd" fill="#EC1C24" points="62.603,40.338 62.874,40.419 61.851,41.327 
				61.582,41.245 			"/>
			<polygon fill-rule="evenodd" clip-rule="evenodd" fill="#8BC53F" points="62.854,40.163 61.997,40.419 63.021,41.327 
				63.876,41.071 			"/>
			<polygon fill-rule="evenodd" clip-rule="evenodd" fill="#DBDCDD" points="62.572,40.248 61.997,40.419 63.021,41.327 
				63.593,41.155 			"/>
			<polygon fill-rule="evenodd" clip-rule="evenodd" fill="#EC1C24" points="62.268,40.338 61.997,40.419 63.021,41.327 
				63.288,41.245 			"/>
			<rect x="61.69" y="39.385" fill-rule="evenodd" clip-rule="evenodd" fill="#8BC53F" width="1.491" height="1.162"/>
			<rect x="62.184" y="39.385" fill-rule="evenodd" clip-rule="evenodd" fill="#DBDCDD" width="0.997" height="1.162"/>
			<rect x="62.71" y="39.385" fill-rule="evenodd" clip-rule="evenodd" fill="#EC1C24" width="0.471" height="1.162"/>
			<path fill-rule="evenodd" clip-rule="evenodd" fill="#EC1C24" d="M68.944,34.359c0.14,0.117-0.08,0.439-0.151,0.673
				c-0.046,0.141,0.117,0.185,0.005,0.31c-0.307,0.34-0.736,0.449-0.963,0.246c-0.225-0.202-0.16-0.658,0.145-0.982
				c0.153-0.162,0.319,0.133,0.493,0.086C68.647,34.648,68.831,34.265,68.944,34.359z"/>
			<ellipse fill-rule="evenodd" clip-rule="evenodd" fill="#FFCE01" cx="57.037" cy="36.097" rx="0.465" ry="0.335"/>
			<ellipse fill-rule="evenodd" clip-rule="evenodd" fill="#FFCE01" cx="66.261" cy="37.15" rx="0.468" ry="0.335"/>
			<ellipse fill-rule="evenodd" clip-rule="evenodd" fill="#9CBDCD" cx="65.675" cy="38.185" rx="0.371" ry="0.265"/>
			<ellipse fill-rule="evenodd" clip-rule="evenodd" fill="#AA4D11" cx="58.797" cy="38.529" rx="0.371" ry="0.266"/>
			<path fill-rule="evenodd" clip-rule="evenodd" fill="#EC1C24" d="M59.871,33.786c0.127,0.046,0.056,0.325,0.062,0.507
				c0.005,0.107,0.13,0.098,0.082,0.215c-0.127,0.314-0.401,0.502-0.608,0.414c-0.21-0.084-0.279-0.42-0.146-0.721
				c0.066-0.154,0.252,0.01,0.365-0.064C59.736,34.062,59.769,33.748,59.871,33.786z"/>
			<path fill-rule="evenodd" clip-rule="evenodd" fill="#EC1C24" d="M55.083,32.075c0.164-0.114,0.442,0.202,0.667,0.346
				c0.135,0.085,0.228-0.077,0.332,0.079c0.274,0.417,0.271,0.902-0.007,1.088c-0.277,0.181-0.739-0.014-0.998-0.428
				c-0.131-0.207,0.225-0.3,0.228-0.496C55.308,32.467,54.952,32.168,55.083,32.075z"/>
			<path fill-rule="evenodd" clip-rule="evenodd" fill="#D1181F" d="M69.114,29.234c0-2.308-3.386-5.612-5.693-5.556
				C65.849,24.315,68.204,26.571,69.114,29.234z"/>
			<path fill-rule="evenodd" clip-rule="evenodd" fill="#D1181F" d="M61.135,31.134c-0.885-0.41-1.553-2.292-1.123-3.167
				C59.825,29.012,60.275,30.313,61.135,31.134z"/>
			<ellipse fill-rule="evenodd" clip-rule="evenodd" fill="#FFFFFF" cx="60.963" cy="34.965" rx="0.087" ry="0.119"/>
			<ellipse fill-rule="evenodd" clip-rule="evenodd" fill="#FFFFFF" cx="59.892" cy="35.221" rx="0.089" ry="0.119"/>
			<ellipse fill-rule="evenodd" clip-rule="evenodd" fill="#FFFFFF" cx="58.231" cy="34.63" rx="0.089" ry="0.118"/>
			<ellipse fill-rule="evenodd" clip-rule="evenodd" fill="#FFFFFF" cx="58.408" cy="35.191" rx="0.09" ry="0.118"/>
			<path fill-rule="evenodd" clip-rule="evenodd" fill="#FFFFFF" d="M56.669,33.781c0.048,0,0.089,0.054,0.089,0.121
				c0,0.062-0.041,0.117-0.089,0.117c-0.049,0-0.087-0.055-0.087-0.117C56.582,33.835,56.62,33.781,56.669,33.781z"/>
			<ellipse fill-rule="evenodd" clip-rule="evenodd" fill="#FFFFFF" cx="61.984" cy="35.417" rx="0.089" ry="0.119"/>
			<ellipse fill-rule="evenodd" clip-rule="evenodd" fill="#FFFFFF" cx="62.938" cy="36.392" rx="0.091" ry="0.119"/>
			<ellipse fill-rule="evenodd" clip-rule="evenodd" fill="#FFFFFF" cx="64.767" cy="35.664" rx="0.088" ry="0.117"/>
			<ellipse fill-rule="evenodd" clip-rule="evenodd" fill="#FFFFFF" cx="67.095" cy="36.098" rx="0.086" ry="0.119"/>
			<ellipse fill-rule="evenodd" clip-rule="evenodd" fill="#FFFFFF" cx="66.396" cy="35.733" rx="0.09" ry="0.118"/>
			<ellipse fill-rule="evenodd" clip-rule="evenodd" fill="#FFFFFF" cx="67.251" cy="35.082" rx="0.089" ry="0.119"/>
		</g>
	</g>
</g>
</svg>
