<?xml version="1.0" encoding="utf-8"?>
<!-- Generator: Adobe Illustrator 15.0.0, SVG Export Plug-In . SVG Version: 6.00 Build 0)  -->
<!DOCTYPE svg PUBLIC "-//W3C//DTD SVG 1.1//EN" "http://www.w3.org/Graphics/SVG/1.1/DTD/svg11.dtd">
<svg version="1.1" id="Layer_1" xmlns="http://www.w3.org/2000/svg" xmlns:xlink="http://www.w3.org/1999/xlink" x="0px" y="0px"
	 width="121.739px" height="65.218px" viewBox="0 0 121.739 65.218" enable-background="new 0 0 121.739 65.218"
	 xml:space="preserve">
<g>
	<rect x="12.019" y="4.835" fill-rule="evenodd" clip-rule="evenodd" fill="#231F20" width="99.774" height="52.888"/>
	<g>
		<rect x="78.24" y="5.716" fill-rule="evenodd" clip-rule="evenodd" fill="#0DB04B" width="32.673" height="51.13"/>
		<rect x="45.569" y="5.716" fill-rule="evenodd" clip-rule="evenodd" fill="#FFFFFF" width="32.671" height="51.13"/>
		<rect x="12.899" y="5.716" fill-rule="evenodd" clip-rule="evenodd" fill="#0DB04B" width="32.67" height="51.13"/>
		<polygon fill-rule="evenodd" clip-rule="evenodd" fill="#00954E" points="26.77,56.846 31.629,56.846 38.72,56.231 31.113,55.571 
			38.72,54.914 31.113,54.258 38.72,53.598 31.113,52.942 38.72,52.285 31.113,51.625 38.72,50.968 31.113,50.311 38.72,49.656 
			31.113,48.993 38.72,48.338 31.113,47.678 38.72,47.021 31.113,46.364 38.72,45.706 31.113,45.049 38.72,44.389 31.113,43.729 
			38.72,43.071 31.113,42.414 38.72,41.757 31.113,41.1 38.72,40.442 31.113,39.785 38.72,39.128 31.113,38.468 38.72,37.81 
			31.113,37.152 38.72,36.496 31.113,35.836 38.72,35.178 31.113,34.523 38.72,33.863 31.113,33.207 38.72,32.55 31.113,31.893 
			38.72,31.231 31.113,30.574 38.72,29.917 31.113,29.261 38.72,28.603 31.113,27.942 38.72,27.285 31.113,26.628 38.72,25.968 
			31.113,25.313 38.72,24.653 31.113,23.996 38.72,23.338 31.113,22.682 38.72,22.024 31.113,21.364 38.72,20.706 31.113,20.049 
			38.72,19.392 31.11,18.732 38.72,18.074 31.113,17.417 38.72,16.76 31.113,16.102 38.72,15.439 31.113,14.785 38.72,14.128 
			31.113,13.47 38.72,12.813 31.113,12.154 38.72,11.499 31.113,10.836 38.72,10.182 31.11,9.521 38.72,8.864 31.113,8.21 
			38.72,7.55 31.113,6.892 38.72,6.231 32.742,5.716 25.657,5.716 19.679,6.231 27.289,6.892 19.682,7.55 27.289,8.21 19.679,8.864 
			27.289,9.521 19.679,10.182 27.289,10.836 19.679,11.499 27.289,12.154 19.679,12.813 27.289,13.47 19.679,14.128 27.289,14.785 
			19.679,15.439 27.289,16.102 19.679,16.76 27.289,17.417 19.679,18.074 27.289,18.732 19.679,19.392 27.289,20.049 19.679,20.706 
			27.289,21.364 19.679,22.024 27.289,22.682 19.679,23.338 27.289,23.996 19.679,24.653 27.289,25.313 19.679,25.968 
			27.289,26.628 19.679,27.285 27.289,27.942 19.679,28.603 27.289,29.258 19.679,29.917 27.289,30.574 19.679,31.231 
			27.289,31.893 19.679,32.55 27.289,33.207 19.679,33.863 27.289,34.521 19.679,35.178 27.289,35.836 19.679,36.496 27.289,37.152 
			19.679,37.81 27.289,38.468 19.679,39.128 27.289,39.785 19.679,40.442 27.289,41.1 19.679,41.757 27.289,42.414 19.679,43.071 
			27.289,43.729 19.679,44.389 27.289,45.046 19.679,45.706 27.289,46.364 19.679,47.021 27.289,47.678 19.679,48.338 
			27.289,48.993 19.679,49.656 27.289,50.311 19.679,50.968 27.289,51.625 19.679,52.288 27.289,52.942 19.679,53.598 
			27.289,54.258 19.679,54.914 27.289,55.571 19.679,56.231 		"/>
		<polygon fill-rule="evenodd" clip-rule="evenodd" fill="#D8E1E7" points="64.336,56.846 59.476,56.846 52.386,56.231 
			59.993,55.571 52.386,54.914 59.993,54.258 52.386,53.598 59.993,52.942 52.386,52.288 59.993,51.625 52.386,50.968 
			59.993,50.311 52.386,49.656 59.993,48.993 52.386,48.338 59.993,47.678 52.386,47.021 59.993,46.364 52.386,45.706 
			59.993,45.046 52.386,44.389 59.993,43.729 52.386,43.071 59.993,42.414 52.386,41.757 59.993,41.1 52.386,40.442 59.993,39.785 
			52.386,39.128 59.993,38.468 52.386,37.81 59.993,37.152 52.386,36.496 59.993,35.836 52.386,35.178 59.993,34.521 52.386,33.863 
			59.993,33.207 52.386,32.55 59.993,31.893 52.386,31.231 59.993,30.574 52.386,29.917 59.993,29.258 52.386,28.603 59.993,27.942 
			52.386,27.285 59.993,26.628 52.386,25.968 59.993,25.313 52.386,24.653 59.993,23.996 52.386,23.338 59.993,22.682 
			52.386,22.024 59.993,21.364 52.386,20.706 59.993,20.049 52.386,19.392 59.995,18.732 52.386,18.074 59.993,17.417 52.386,16.76 
			59.993,16.102 52.386,15.439 59.993,14.785 52.386,14.128 59.993,13.47 52.386,12.813 59.993,12.154 52.386,11.499 59.993,10.836 
			52.386,10.182 59.993,9.521 52.386,8.864 59.993,8.21 52.386,7.55 59.993,6.892 52.386,6.231 58.363,5.716 65.448,5.716 
			71.427,6.231 63.819,6.892 71.427,7.55 63.819,8.21 71.427,8.864 63.817,9.521 71.427,10.182 63.819,10.836 71.427,11.499 
			63.819,12.154 71.427,12.813 63.819,13.47 71.427,14.128 63.819,14.785 71.427,15.439 63.819,16.102 71.427,16.76 63.819,17.417 
			71.427,18.074 63.817,18.732 71.427,19.392 63.819,20.049 71.427,20.706 63.819,21.364 71.427,22.024 63.819,22.682 
			71.427,23.338 63.819,23.996 71.427,24.653 63.819,25.313 71.427,25.968 63.819,26.628 71.427,27.285 63.819,27.942 
			71.427,28.603 63.819,29.261 71.427,29.917 63.819,30.574 71.427,31.231 63.819,31.893 71.427,32.55 63.819,33.207 71.427,33.863 
			63.819,34.523 71.427,35.178 63.819,35.836 71.427,36.496 63.819,37.152 71.427,37.81 63.819,38.468 71.427,39.128 63.819,39.785 
			71.427,40.442 63.819,41.1 71.427,41.757 63.819,42.414 71.427,43.071 63.819,43.729 71.427,44.389 63.819,45.049 71.427,45.706 
			63.819,46.364 71.427,47.021 63.819,47.678 71.427,48.338 63.819,48.993 71.427,49.656 63.819,50.311 71.427,50.968 
			63.819,51.625 71.427,52.285 63.819,52.942 71.427,53.598 63.819,54.258 71.427,54.914 63.819,55.571 71.427,56.231 		"/>
		<polygon fill-rule="evenodd" clip-rule="evenodd" fill="#00954E" points="92.183,56.846 97.042,56.846 104.133,56.231 
			96.522,55.571 104.13,54.914 96.522,54.258 104.13,53.598 96.522,52.942 104.13,52.285 96.522,51.625 104.13,50.968 
			96.522,50.311 104.13,49.656 96.522,48.993 104.13,48.338 96.522,47.678 104.13,47.021 96.522,46.364 104.133,45.706 
			96.522,45.049 104.13,44.389 96.522,43.729 104.13,43.071 96.522,42.414 104.133,41.757 96.522,41.1 104.13,40.442 96.522,39.785 
			104.13,39.128 96.522,38.468 104.13,37.81 96.522,37.152 104.13,36.496 96.522,35.836 104.13,35.178 96.522,34.523 
			104.133,33.863 96.522,33.207 104.13,32.55 96.522,31.893 104.13,31.231 96.522,30.574 104.13,29.917 96.522,29.261 
			104.13,28.603 96.522,27.942 104.13,27.285 96.522,26.628 104.133,25.968 96.522,25.313 104.13,24.653 96.522,23.996 
			104.13,23.338 96.522,22.682 104.133,22.024 96.522,21.364 104.133,20.706 96.522,20.049 104.13,19.392 96.522,18.732 
			104.13,18.074 96.522,17.417 104.13,16.76 96.522,16.102 104.13,15.439 96.522,14.785 104.133,14.128 96.522,13.47 104.13,12.813 
			96.522,12.154 104.133,11.499 96.522,10.836 104.133,10.182 96.522,9.521 104.13,8.864 96.522,8.21 104.133,7.55 96.522,6.892 
			104.13,6.231 98.155,5.716 91.07,5.716 85.093,6.231 92.699,6.892 85.093,7.55 92.699,8.21 85.093,8.864 92.699,9.521 
			85.093,10.182 92.699,10.836 85.093,11.499 92.699,12.154 85.093,12.813 92.699,13.47 85.093,14.128 92.699,14.785 85.093,15.439 
			92.699,16.102 85.093,16.76 92.699,17.417 85.093,18.074 92.702,18.732 85.093,19.392 92.699,20.049 85.09,20.706 92.699,21.364 
			85.09,22.024 92.699,22.682 85.093,23.338 92.699,23.996 85.093,24.653 92.699,25.313 85.093,25.968 92.699,26.628 85.093,27.285 
			92.699,27.942 85.093,28.603 92.699,29.258 85.093,29.917 92.699,30.574 85.093,31.231 92.699,31.893 85.093,32.55 92.699,33.207 
			85.093,33.863 92.699,34.521 85.093,35.178 92.699,35.836 85.093,36.496 92.699,37.152 85.093,37.81 92.699,38.468 85.093,39.128 
			92.699,39.785 85.093,40.442 92.699,41.1 85.093,41.757 92.699,42.414 85.093,43.071 92.699,43.729 85.093,44.389 92.699,45.046 
			85.093,45.706 92.699,46.364 85.093,47.021 92.699,47.678 85.093,48.338 92.699,48.993 85.093,49.656 92.699,50.311 
			85.093,50.968 92.699,51.625 85.093,52.288 92.699,52.942 85.093,53.598 92.699,54.258 85.093,54.914 92.699,55.571 
			85.093,56.231 		"/>
	</g>
</g>
</svg>
