<?xml version="1.0" encoding="utf-8"?>
<!-- Generator: Adobe Illustrator 15.0.0, SVG Export Plug-In . SVG Version: 6.00 Build 0)  -->
<!DOCTYPE svg PUBLIC "-//W3C//DTD SVG 1.1//EN" "http://www.w3.org/Graphics/SVG/1.1/DTD/svg11.dtd">
<svg version="1.1" id="Layer_1" xmlns="http://www.w3.org/2000/svg" xmlns:xlink="http://www.w3.org/1999/xlink" x="0px" y="0px"
	 width="121.739px" height="65.218px" viewBox="0 0 121.739 65.218" enable-background="new 0 0 121.739 65.218"
	 xml:space="preserve">
<g>
	<rect x="12.019" y="4.387" fill-rule="evenodd" clip-rule="evenodd" fill="#231F20" width="99.774" height="52.884"/>
	<g>
		<rect x="12.899" y="5.266" fill-rule="evenodd" clip-rule="evenodd" fill="#EC1C24" width="98.014" height="51.131"/>
		<path fill-rule="evenodd" clip-rule="evenodd" fill="#D31920" d="M56.043,56.396h11.725l3.658-0.318l-7.607-0.659l7.607-0.654
			l-7.607-0.66l7.607-0.66l-7.607-0.655l7.607-0.659l-7.607-0.66l7.607-0.655l-7.607-0.654l7.607-0.66l-7.607-0.659l7.607-0.659
			l-7.607-0.655l7.607-0.66l-7.607-0.655l7.607-0.66l-7.607-0.659l7.607-0.654l-7.607-0.66l7.607-0.655l-7.607-0.66l7.607-0.655
			l-7.607-0.659l7.607-0.66l-7.607-0.654l7.607-0.66l-7.607-0.655l7.607-0.659l-7.607-0.66l7.607-0.655l-7.607-0.66l7.607-0.654
			l-7.607-0.659l7.607-0.655l-7.607-0.66l7.607-0.66l-7.607-0.66l7.607-0.655l-7.607-0.659l7.607-0.654l-7.607-0.66l7.607-0.655
			l-7.607-0.66l7.607-0.659l-7.607-0.655l7.607-0.66l-7.607-0.654l7.607-0.66l-7.607-0.658l7.607-0.655l-7.607-0.66l7.607-0.655
			l-7.607-0.66l7.607-0.654l-7.607-0.659l7.607-0.66l-7.607-0.655l7.607-0.66l-7.607-0.66l7.607-0.654l-6.909-0.598l6.909-0.702
			l-0.107-0.01l0.107-0.005l-7.5-0.649l7.5-0.65l-0.107-0.01l0.107-0.011l-6.912-0.695l6.912-0.599l-7.607-0.66l7.607-0.655
			l-7.607-0.659l7.607-0.654l-7.607-0.661l7.607-0.66l-7.607-0.654l7.607-0.659l-7.607-0.66L71.427,6.1l-7.607-0.654l2.046-0.18
			h-7.906l2.033,0.174L52.386,6.1l7.606,0.655l-7.606,0.66l7.606,0.659l-7.606,0.654l7.606,0.66l-7.606,0.661l7.606,0.654
			l-7.606,0.659l7.606,0.655l-7.606,0.66l6.911,0.599l-6.911,0.695l0.107,0.011l-0.107,0.01l7.499,0.65l-7.499,0.649l0.107,0.005
			l-0.107,0.01l6.908,0.702l-6.908,0.598l7.606,0.654l-7.606,0.66l7.606,0.66l-7.606,0.655l7.606,0.66l-7.606,0.659l7.606,0.654
			l-7.606,0.66l7.606,0.655l-7.606,0.66l7.606,0.655L52.386,24.5l7.606,0.66l-7.606,0.654l7.606,0.66l-7.606,0.655l7.606,0.659
			l-7.606,0.66l7.606,0.655l-7.606,0.66l7.606,0.654l-7.606,0.659l7.606,0.655l-7.606,0.66l7.606,0.66l-7.606,0.66l7.606,0.655
			l-7.606,0.659l7.606,0.654l-7.606,0.66l7.606,0.655l-7.606,0.66l7.606,0.659l-7.606,0.655l7.606,0.66l-7.606,0.654l7.606,0.66
			l-7.606,0.659l7.606,0.655l-7.606,0.66l7.606,0.655l-7.606,0.66l7.606,0.659l-7.606,0.654l7.606,0.66l-7.606,0.655l7.606,0.66
			l-7.606,0.655l7.606,0.659L52.386,49.5l7.606,0.66l-7.606,0.654l7.606,0.655l-7.606,0.66l7.606,0.659l-7.606,0.655l7.606,0.66
			l-7.606,0.66l7.606,0.654l-7.606,0.659L56.043,56.396L56.043,56.396z M88.747,56.396h11.728l3.655-0.318l-7.607-0.659l7.61-0.654
			l-7.61-0.66l7.607-0.66l-7.607-0.655l7.607-0.659l-7.607-0.66l7.607-0.655l-7.607-0.654l7.607-0.66l-7.607-0.659l7.607-0.659
			l-7.607-0.655l7.61-0.66l-7.61-0.655l7.607-0.66l-7.607-0.659l7.607-0.654l-7.607-0.66l7.61-0.655l-7.61-0.66l7.607-0.655
			l-7.607-0.659l7.607-0.66l-7.607-0.654l7.607-0.66l-7.607-0.655l7.607-0.659l-7.607-0.66l7.607-0.655l-7.607-0.66l7.607-0.654
			l-7.607-0.659l7.607-0.655l-7.607-0.66l7.607-0.66l-7.607-0.66l7.607-0.655l-7.607-0.659l7.61-0.654l-7.61-0.66l7.607-0.655
			l-7.607-0.66l7.607-0.659l-7.607-0.655l7.61-0.66l-7.61-0.654l7.607-0.66l-7.607-0.658l7.607-0.655l-7.607-0.66l7.61-0.655
			l-7.61-0.66l7.61-0.654l-7.61-0.659l7.607-0.66l-7.607-0.655l7.61-0.66l-7.61-0.66l7.61-0.654l-6.909-0.598l6.906-0.702
			l-0.105-0.01l0.105-0.005l-7.499-0.649l7.499-0.65l-0.107-0.01l0.107-0.011l-6.908-0.695l6.908-0.599l-7.607-0.66l7.61-0.655
			l-7.61-0.659l7.607-0.654l-7.607-0.661l7.61-0.66l-7.61-0.654l7.61-0.659l-7.61-0.66L104.13,6.1l-7.607-0.654l2.05-0.18h-7.907
			l2.034,0.174L85.093,6.1l7.606,0.655l-7.606,0.66l7.606,0.659l-7.606,0.654l7.606,0.66l-7.606,0.661l7.606,0.654l-7.609,0.659
			l7.609,0.655l-7.606,0.66l6.908,0.599l-6.908,0.695l0.107,0.011l-0.107,0.01l7.502,0.65l-7.502,0.649l0.107,0.005l-0.107,0.01
			l6.908,0.702l-6.908,0.598l7.606,0.654l-7.609,0.66l7.609,0.66l-7.606,0.655l7.606,0.66l-7.606,0.659l7.606,0.654l-7.606,0.66
			l7.606,0.655l-7.606,0.66l7.606,0.655L85.093,24.5l7.606,0.66l-7.606,0.654l7.606,0.66l-7.606,0.655l7.606,0.659l-7.606,0.66
			l7.606,0.655l-7.606,0.66l7.606,0.654l-7.606,0.659l7.606,0.655l-7.606,0.66l7.606,0.66l-7.606,0.66l7.606,0.655l-7.606,0.659
			l7.606,0.654l-7.606,0.66l7.606,0.655l-7.606,0.66l7.606,0.659l-7.606,0.655l7.606,0.66l-7.606,0.654l7.606,0.66l-7.606,0.659
			l7.606,0.655l-7.606,0.66l7.606,0.655l-7.606,0.66l7.606,0.659l-7.606,0.654l7.606,0.66l-7.606,0.655l7.606,0.66l-7.606,0.655
			l7.606,0.659L85.093,49.5l7.606,0.66l-7.606,0.654l7.606,0.655l-7.606,0.66l7.606,0.659l-7.606,0.655l7.606,0.66l-7.606,0.66
			l7.606,0.654l-7.606,0.659L88.747,56.396z"/>
		<rect x="12.899" y="5.266" fill-rule="evenodd" clip-rule="evenodd" fill="#00A551" width="36.433" height="51.131"/>
		<polygon fill-rule="evenodd" clip-rule="evenodd" fill="#008E4B" points="35.06,56.396 23.342,56.396 19.682,56.078 
			27.289,55.419 19.682,54.765 27.289,54.104 19.682,53.444 27.289,52.789 19.682,52.13 27.289,51.47 19.682,50.814 27.289,50.16 
			19.682,49.5 27.289,48.841 19.682,48.182 27.289,47.526 19.682,46.866 27.289,46.211 19.682,45.551 27.289,44.896 19.682,44.237 
			27.289,43.577 19.682,42.922 27.289,42.262 19.682,41.606 27.289,40.947 19.682,40.287 27.289,39.633 19.682,38.973 
			27.289,38.317 19.682,37.658 27.289,36.998 19.682,36.343 27.289,35.683 19.682,35.028 27.289,34.369 19.682,33.714 
			27.289,33.054 19.682,32.394 27.289,31.733 19.682,31.078 27.289,30.419 19.682,29.765 27.289,29.104 19.682,28.449 
			27.289,27.789 19.682,27.13 27.289,26.475 19.682,25.814 27.289,25.16 19.682,24.5 27.289,23.842 19.682,23.187 27.289,22.526 
			19.682,21.871 27.289,21.211 19.682,20.557 27.289,19.897 19.682,19.237 27.289,18.582 19.679,17.922 27.289,17.262 
			19.682,16.607 26.588,16.01 19.682,15.308 19.787,15.298 19.682,15.293 27.181,14.644 19.682,13.993 19.787,13.983 19.682,13.973 
			26.591,13.277 19.682,12.679 27.289,12.019 19.679,11.363 27.289,10.704 19.682,10.05 27.289,9.389 19.682,8.729 27.289,8.074 
			19.682,7.415 27.289,6.755 19.682,6.1 27.289,5.439 25.253,5.266 33.159,5.266 31.113,5.445 38.72,6.1 31.113,6.755 38.72,7.415 
			31.113,8.074 38.72,8.729 31.113,9.389 38.72,10.05 31.113,10.704 38.72,11.363 31.113,12.019 38.72,12.679 31.809,13.277 
			38.72,13.973 38.612,13.983 38.72,13.993 31.221,14.644 38.72,15.293 38.612,15.298 38.72,15.308 31.812,16.01 38.72,16.607 
			31.113,17.262 38.72,17.922 31.113,18.582 38.72,19.237 31.113,19.897 38.72,20.557 31.113,21.211 38.72,21.871 31.113,22.526 
			38.72,23.187 31.113,23.842 38.72,24.5 31.113,25.16 38.72,25.814 31.113,26.475 38.72,27.13 31.113,27.789 38.72,28.449 
			31.113,29.104 38.72,29.765 31.113,30.419 38.72,31.078 31.113,31.733 38.72,32.394 31.113,33.054 38.72,33.714 31.113,34.369 
			38.72,35.028 31.113,35.683 38.72,36.343 31.113,36.998 38.72,37.658 31.113,38.317 38.72,38.973 31.113,39.633 38.72,40.287 
			31.113,40.947 38.72,41.606 31.113,42.262 38.72,42.922 31.113,43.577 38.72,44.237 31.113,44.892 38.72,45.551 31.113,46.211 
			38.72,46.866 31.113,47.526 38.72,48.182 31.113,48.841 38.72,49.5 31.113,50.16 38.72,50.814 31.113,51.47 38.72,52.13 
			31.113,52.789 38.72,53.444 31.113,54.104 38.72,54.765 31.113,55.419 38.72,56.078 		"/>
		<g>
			<path fill="#FFE200" d="M49.348,19.81c3.044,0,5.801,1.233,7.795,3.229c1.993,1.994,3.229,4.747,3.229,7.791
				c0,3.043-1.235,5.8-3.229,7.796c-1.995,1.995-4.751,3.228-7.795,3.228c-6.088,0-11.022-4.937-11.022-11.023
				C38.326,24.741,43.26,19.81,49.348,19.81L49.348,19.81z M50.068,20.986v2.343c2.164-0.041,4.338,0.22,6.525,0.804
				c-0.087-0.093-0.176-0.189-0.269-0.277C54.698,22.229,52.503,21.165,50.068,20.986L50.068,20.986z M50.068,24.48v2.829
				c2.875-0.148,5.768,0.04,8.671,0.49c-0.241-0.747-0.565-1.453-0.964-2.107C55.187,24.823,52.617,24.43,50.068,24.48L50.068,24.48
				z M50.068,28.465v1.79c0.64,0.328,1.264,0.66,1.862,1.003c1.772-0.793,3.553-1.627,5.356-2.501
				C54.87,28.449,52.462,28.337,50.068,28.465L50.068,28.465z M50.068,31.55v0.332c0.051,0.036,0.1,0.083,0.138,0.133l0.401-0.173
				C50.432,31.744,50.25,31.646,50.068,31.55L50.068,31.55z M50.068,33.334v4.288c2.098,0.005,4.231-0.266,6.451-0.858
				c-0.86-1.582-2.548-2.953-4.658-4.211c-0.581,0.256-1.159,0.512-1.737,0.757l0,0h-0.003L50.068,33.334L50.068,33.334z
				 M50.068,38.772v1.898c2.302-0.169,4.387-1.126,5.982-2.599C54.002,38.553,52.021,38.778,50.068,38.772L50.068,38.772z
				 M48.628,40.671v-1.943c-2.184-0.129-4.338-0.542-6.515-1.192C43.764,39.315,46.061,40.487,48.628,40.671L48.628,40.671z
				 M48.628,37.575v-3.631c-2.074,0.864-4.156,1.683-6.274,2.461C44.457,37.039,46.534,37.443,48.628,37.575L48.628,37.575z
				 M48.628,31.943v-1.12c-1.176-0.573-2.407-1.136-3.645-1.693c-1.527,0.322-3.048,0.758-4.563,1.325
				c1.261,0.706,2.573,1.166,3.919,1.402C45.725,32.103,47.158,32.117,48.628,31.943L48.628,31.943z M48.628,29.545v-0.972
				c-0.547,0.056-1.097,0.117-1.642,0.198C47.542,29.028,48.089,29.283,48.628,29.545L48.628,29.545z M48.628,27.417v-2.86
				c-2.374,0.205-4.739,0.782-7.09,1.719c1.123,0.537,2.278,1.06,3.435,1.581l0.146,0.067
				C46.288,27.693,47.458,27.523,48.628,27.417L48.628,27.417z M48.628,23.4v-2.414c-3.028,0.22-5.681,1.806-7.338,4.149
				C43.721,24.188,46.168,23.601,48.628,23.4L48.628,23.4z M59.075,29.166c-2.013,0.997-3.988,1.934-5.942,2.819
				c1.979,1.263,3.57,2.659,4.435,4.302c1.041-1.565,1.647-3.438,1.647-5.458C59.215,30.266,59.167,29.709,59.075,29.166
				L59.075,29.166z M40.792,35.745c2.243-0.804,4.438-1.647,6.614-2.543c-1.107,0.046-2.197-0.016-3.267-0.205
				c-1.606-0.287-3.159-0.854-4.646-1.749C39.561,32.88,40.024,34.409,40.792,35.745L40.792,35.745z M39.566,29.55
				c1.228-0.48,2.46-0.88,3.696-1.202c-1.015-0.461-2.021-0.926-2.985-1.401C39.927,27.765,39.684,28.634,39.566,29.55z"/>
			<path fill-rule="evenodd" clip-rule="evenodd" fill="#FFFFFF" d="M55.867,23.836h-0.202l0,0H55.46l0,0h-0.202h-0.003h-0.202l0,0
				h-0.202h-0.002h-0.202l0,0h-0.206l0,0h-0.204l0,0h-0.202l0,0h-0.204l0,0h-0.206l0,0h-0.202l0,0H53.22l0,0h-0.204l0,0h-0.203l0,0
				h-0.205l0,0h-0.202l0,0h-0.205l0,0h-0.205l0,0h-0.205l0,0H51.59h-0.002h-0.202l0,0h-0.203h-0.003h-0.201l0,0h-0.205l0,0H50.57
				l0,0h-0.203l0,0h-0.204l0,0h-0.202l0,0h-0.205l0,0h-0.205l0,0h-0.204l0,0h-0.202l0,0h-0.202h-0.002h-0.203l0,0h-0.204l0,0H48.33
				l0,0h-0.205l0,0h-0.202H47.92h-0.202l0,0h-0.202l0,0h-0.205l0,0h-0.205l0,0h-0.202l0,0H46.7l0,0h-0.205l0,0h-0.203l0,0h-0.205
				l0,0h-0.202h-0.002h-0.202l0,0h-0.205l0,0h-0.202h-0.003h-0.202l0,0h-0.205l0,0h-0.205l0,0h-0.202h-0.002h-0.202l0,0h-0.202l0,0
				h-0.205l0,0h-0.205l0,0h-0.204l0,0h-0.202h-0.002h-0.202l0,0h-0.205l0,0c0,5.069,0,4.757,0,9.831l0.003,0.006
				c0.745,3.55,3.622,5.402,6.518,5.377c2.898,0.025,5.775-1.827,6.52-5.377v-0.006C55.867,28.593,55.867,28.905,55.867,23.836
				L55.867,23.836z"/>
			<path fill-rule="evenodd" clip-rule="evenodd" fill="#EC1C24" d="M55.635,24.065H43.061c0,3.192,0,6.385,0,9.571
				c0.649,3.07,3.13,5.209,6.29,5.178c3.153,0.031,5.629-2.103,6.287-5.172C55.637,30.45,55.637,27.258,55.635,24.065z"/>
			<path fill-rule="evenodd" clip-rule="evenodd" fill="#FFFFFF" d="M53.547,26.157h-8.4c0,2.416,0,4.83,0,7.244
				c0.502,1.985,2.083,3.346,4.18,3.326h0.044c2.097,0.02,3.676-1.341,4.177-3.326C53.547,30.987,53.547,28.573,53.547,26.157z"/>
			<path fill-rule="evenodd" clip-rule="evenodd" fill="#034EA1" d="M48.759,30.705h0.296v0.298h-0.296V30.705L48.759,30.705z
				 M49.199,31.125h0.297v0.297h-0.297V31.125L49.199,31.125z M48.759,31.54h0.296v0.297h-0.296V31.54L48.759,31.54z M49.639,31.54
				h0.3v0.297h-0.3V31.54L49.639,31.54z M49.639,30.705h0.3v0.298h-0.3V30.705L49.639,30.705z M50.255,30.343h-1.813
				c-0.003,0.501-0.003,1.003-0.003,1.505c0.11,0.414,0.453,0.694,0.903,0.688h0.013c0.45,0.006,0.791-0.274,0.903-0.688
				C50.258,31.346,50.258,30.844,50.255,30.343z"/>
			<path fill-rule="evenodd" clip-rule="evenodd" fill="#034EA1" d="M48.759,27.575h0.296v0.297h-0.296V27.575L48.759,27.575z
				 M49.199,27.989h0.297v0.302h-0.297V27.989L49.199,27.989z M48.759,28.41h0.296v0.296h-0.296V28.41L48.759,28.41z M49.639,28.41
				h0.3v0.296h-0.3V28.41L49.639,28.41z M49.639,27.575h0.3v0.297h-0.3V27.575L49.639,27.575z M50.255,27.212h-1.813
				c-0.003,0.507-0.003,1.003-0.003,1.504c0.11,0.414,0.453,0.695,0.903,0.69h0.013c0.45,0.005,0.791-0.276,0.903-0.69
				C50.258,28.215,50.258,27.719,50.255,27.212z"/>
			<path fill-rule="evenodd" clip-rule="evenodd" fill="#034EA1" d="M48.759,33.939h0.296v0.296h-0.296V33.939L48.759,33.939z
				 M49.199,34.353h0.297v0.303h-0.297V34.353L49.199,34.353z M48.759,34.773h0.296v0.296h-0.296V34.773L48.759,34.773z
				 M49.639,34.773h0.3v0.296h-0.3V34.773L49.639,34.773z M49.639,33.939h0.3v0.296h-0.3V33.939L49.639,33.939z M50.255,33.575
				h-1.813c-0.003,0.507-0.003,1.003-0.003,1.505c0.11,0.414,0.453,0.695,0.903,0.69h0.013c0.45,0.005,0.791-0.276,0.903-0.69
				C50.258,34.578,50.258,34.082,50.255,33.575z"/>
			<path fill-rule="evenodd" clip-rule="evenodd" fill="#034EA1" d="M46.211,30.705h0.297v0.298h-0.297V30.705L46.211,30.705z
				 M46.651,31.125h0.297v0.297h-0.297V31.125L46.651,31.125z M46.211,31.54h0.297v0.297h-0.297V31.54L46.211,31.54z M47.094,31.54
				h0.297v0.297h-0.297V31.54L47.094,31.54z M47.094,30.705h0.297v0.298h-0.297V30.705L47.094,30.705z M47.71,30.343h-1.816
				c0,0.501,0,1.003,0,1.505c0.108,0.414,0.451,0.694,0.9,0.688h0.013c0.453,0.006,0.793-0.274,0.903-0.688
				C47.71,31.346,47.71,30.844,47.71,30.343z"/>
			<path fill-rule="evenodd" clip-rule="evenodd" fill="#034EA1" d="M51.271,30.705h0.297v0.298h-0.297V30.705L51.271,30.705z
				 M51.713,31.125h0.297v0.297h-0.297V31.125L51.713,31.125z M51.271,31.54h0.297v0.297h-0.297V31.54L51.271,31.54z M52.153,31.54
				h0.299v0.297h-0.299V31.54L52.153,31.54z M52.153,30.705h0.299v0.298h-0.299V30.705L52.153,30.705z M52.77,30.343h-1.816
				c0,0.501,0,1.003,0,1.505c0.11,0.414,0.45,0.694,0.903,0.688h0.01c0.453,0.006,0.793-0.274,0.903-0.688
				C52.77,31.346,52.77,30.844,52.77,30.343z"/>
			<path fill-rule="evenodd" clip-rule="evenodd" fill="#FFCA05" d="M49.713,24.731h0.371v0.316h0.144v0.189h-0.12v0.583h0.12v0.188
				H49.48v-0.535h-0.266v0.535H48.47V25.82h0.12v-0.583h-0.12v-0.189h0.141v-0.316h0.373v0.316h0.19v-0.537h0.368v0.537h0.171
				V24.731L49.713,24.731z M49.644,24.444v0.179h0.509v-0.179H49.644L49.644,24.444z M49.102,24.229h0.509v0.175h-0.509V24.229
				L49.102,24.229z M48.544,24.444v0.179h0.506v-0.179H48.544z"/>
			<path fill-rule="evenodd" clip-rule="evenodd" fill="#FFCA05" d="M54.926,24.731h0.371v0.316h0.143v0.189h-0.12v0.583h0.12v0.188
				h-0.747v-0.535h-0.266v0.535h-0.744V25.82h0.12v-0.583h-0.12v-0.189h0.14v-0.316h0.374v0.316h0.189v-0.537h0.368v0.537h0.172
				V24.731L54.926,24.731z M54.856,24.444v0.179h0.509v-0.179H54.856L54.856,24.444z M54.314,24.229h0.509v0.175h-0.509V24.229
				L54.314,24.229z M53.757,24.444v0.179h0.506v-0.179H53.757z"/>
			<path fill-rule="evenodd" clip-rule="evenodd" fill="#FFCA05" d="M44.519,24.731h0.368v0.316h0.144v0.189h-0.118v0.583h0.118
				v0.188h-0.744v-0.535h-0.267v0.535h-0.744V25.82h0.118v-0.583h-0.118v-0.189h0.14v-0.316h0.371v0.316h0.189v-0.537h0.371v0.537
				h0.172V24.731L44.519,24.731z M44.45,24.444v0.179h0.508v-0.179H44.45L44.45,24.444z M43.907,24.229h0.509v0.175h-0.509V24.229
				L43.907,24.229z M43.347,24.444v0.179h0.509v-0.179H43.347z"/>
			<path fill-rule="evenodd" clip-rule="evenodd" fill="#FFCA05" d="M54.926,30.143h0.371v0.312h0.143v0.194h-0.12v0.583h0.12v0.189
				h-0.747v-0.536h-0.266v0.536h-0.744v-0.189h0.12v-0.583h-0.12v-0.194h0.14v-0.312h0.374v0.312h0.189v-0.532h0.368v0.532h0.172
				V30.143L54.926,30.143z M54.856,29.857v0.179h0.509v-0.179H54.856L54.856,29.857z M54.314,29.637h0.509v0.179h-0.509V29.637
				L54.314,29.637z M53.757,29.857v0.179h0.506v-0.179H53.757z"/>
			<path fill-rule="evenodd" clip-rule="evenodd" fill="#FFCA05" d="M44.519,30.143h0.368v0.312h0.144v0.194h-0.118v0.583h0.118
				v0.189h-0.744v-0.536h-0.267v0.536h-0.744v-0.189h0.118v-0.583h-0.118v-0.194h0.14v-0.312h0.371v0.312h0.189v-0.532h0.371v0.532
				h0.172V30.143L44.519,30.143z M44.45,29.857v0.179h0.508v-0.179H44.45L44.45,29.857z M43.907,29.637h0.509v0.179h-0.509V29.637
				L43.907,29.637z M43.347,29.857v0.179h0.509v-0.179H43.347z"/>
			<path fill-rule="evenodd" clip-rule="evenodd" fill="#FFCA05" d="M45.001,35.019l0.279-0.24l0.205,0.235l0.107-0.093l0.128,0.138
				l-0.092,0.082l0.386,0.441l0.089-0.083l0.125,0.144l-0.56,0.49l-0.356-0.403l-0.202,0.174l0.358,0.409l-0.561,0.49l-0.125-0.143
				l0.09-0.081l-0.387-0.44l-0.089,0.082l-0.125-0.144l0.108-0.092l-0.208-0.24l0.279-0.241l0.205,0.235l0.143-0.128l-0.35-0.398
				l0.278-0.246l0.35,0.404l0.131-0.111L45.001,35.019L45.001,35.019z M44.761,34.849l0.116,0.134l0.383-0.333l-0.118-0.132
				L44.761,34.849L44.761,34.849z M44.209,35.044l0.115,0.133l0.384-0.338l-0.118-0.128L44.209,35.044L44.209,35.044z
				 M43.932,35.576l0.115,0.133l0.384-0.332l-0.118-0.134L43.932,35.576z"/>
			<path fill-rule="evenodd" clip-rule="evenodd" fill="#FFCA05" d="M53.634,35.019l-0.279-0.24l-0.207,0.235l-0.107-0.093
				l-0.126,0.138l0.09,0.082l-0.384,0.441l-0.092-0.083l-0.123,0.144l0.56,0.49l0.356-0.403l0.2,0.174l-0.355,0.409l0.56,0.49
				l0.125-0.143l-0.09-0.081l0.384-0.44l0.092,0.082l0.125-0.144l-0.11-0.092l0.21-0.24l-0.278-0.241l-0.208,0.235l-0.144-0.128
				l0.354-0.398l-0.279-0.246l-0.351,0.404l-0.13-0.111L53.634,35.019L53.634,35.019z M53.875,34.849l-0.117,0.134l-0.382-0.333
				l0.115-0.132L53.875,34.849L53.875,34.849z M54.424,35.044l-0.115,0.133l-0.381-0.338l0.115-0.128L54.424,35.044L54.424,35.044z
				 M54.704,35.576l-0.118,0.133l-0.381-0.332l0.115-0.134L54.704,35.576z"/>
		</g>
	</g>
</g>
</svg>
