<?xml version="1.0" encoding="utf-8"?>
<!-- Generator: Adobe Illustrator 15.0.0, SVG Export Plug-In . SVG Version: 6.00 Build 0)  -->
<!DOCTYPE svg PUBLIC "-//W3C//DTD SVG 1.1//EN" "http://www.w3.org/Graphics/SVG/1.1/DTD/svg11.dtd">
<svg version="1.1" id="Layer_1" xmlns="http://www.w3.org/2000/svg" xmlns:xlink="http://www.w3.org/1999/xlink" x="0px" y="0px"
	 width="121.739px" height="65.218px" viewBox="0 0 121.739 65.218" enable-background="new 0 0 121.739 65.218"
	 xml:space="preserve">
<g>
	<rect x="12.019" y="4.775" fill-rule="evenodd" clip-rule="evenodd" fill="#231F20" width="99.774" height="52.888"/>
	<g>
		<rect x="12.899" y="39.741" fill-rule="evenodd" clip-rule="evenodd" fill="#8DD7F7" width="98.014" height="17.045"/>
		<rect x="12.899" y="22.701" fill-rule="evenodd" clip-rule="evenodd" fill="#FFFFFF" width="98.014" height="17.04"/>
		<rect x="12.899" y="5.655" fill-rule="evenodd" clip-rule="evenodd" fill="#8DD7F7" width="98.014" height="17.046"/>
		<path fill-rule="evenodd" clip-rule="evenodd" fill="#69C7F0" d="M27.264,39.741h3.875l-0.026,0.004l7.607,0.66l-7.607,0.658
			l7.607,0.657l-7.607,0.66l7.607,0.659l-7.607,0.66l7.607,0.66l-7.607,0.66l7.607,0.659l-7.607,0.657L38.72,47l-7.607,0.655
			l7.607,0.659l-7.607,0.66l7.607,0.663l-7.607,0.657l7.607,0.659l-7.607,0.656l7.607,0.664l-7.607,0.656l7.607,0.658l-7.607,0.662
			l7.607,0.657l-7.607,0.66l7.607,0.66l-6.427,0.558h-6.185l-6.426-0.558l7.607-0.66l-7.607-0.66l7.607-0.657l-7.607-0.662
			l7.607-0.658l-7.607-0.656l7.607-0.664l-7.607-0.656l7.607-0.659l-7.607-0.657l7.607-0.663l-7.607-0.66l7.607-0.659L19.682,47
			l7.607-0.663l-7.607-0.657l7.607-0.659l-7.607-0.66l7.607-0.66l-7.607-0.66l7.607-0.659l-7.607-0.66l7.607-0.657l-7.607-0.658
			l7.607-0.66L27.264,39.741L27.264,39.741z M59.967,39.741h3.878l-0.025,0.004l7.607,0.66l-7.607,0.658l7.607,0.657l-7.607,0.66
			l7.607,0.659l-7.607,0.66l7.607,0.66l-7.607,0.66l7.607,0.659l-7.607,0.657L71.427,47l-7.607,0.655l7.607,0.659l-7.607,0.66
			l7.607,0.663l-7.607,0.657l7.607,0.659l-7.607,0.656l7.607,0.664l-7.607,0.656l7.607,0.658l-7.607,0.662l7.607,0.657l-7.607,0.66
			l7.607,0.66l-6.429,0.558h-6.184l-6.428-0.558l7.606-0.66l-7.606-0.66l7.606-0.657l-7.606-0.662l7.606-0.658l-7.606-0.656
			l7.606-0.664l-7.606-0.656l7.606-0.659l-7.606-0.657l7.606-0.663l-7.606-0.66l7.606-0.659L52.386,47l7.606-0.663l-7.606-0.657
			l7.606-0.659l-7.606-0.66l7.606-0.66l-7.606-0.66l7.606-0.659l-7.606-0.66l7.606-0.657l-7.606-0.658l7.606-0.66L59.967,39.741
			L59.967,39.741z M92.676,39.741h3.872l-0.025,0.004l7.61,0.66l-7.61,0.658l7.61,0.657l-7.61,0.66l7.61,0.659l-7.61,0.66l7.61,0.66
			l-7.61,0.66l7.61,0.659l-7.61,0.657l7.61,0.663l-7.61,0.655l7.61,0.659l-7.61,0.66l7.61,0.663l-7.61,0.657l7.607,0.659
			l-7.607,0.656l7.607,0.664l-7.607,0.656l7.61,0.658l-7.61,0.662l7.61,0.657l-7.61,0.66l7.61,0.66l-6.429,0.558h-6.184
			l-6.428-0.558l7.606-0.66l-7.606-0.66l7.606-0.657l-7.606-0.662l7.606-0.658l-7.606-0.656l7.606-0.664l-7.606-0.656l7.606-0.659
			l-7.606-0.657l7.606-0.663l-7.606-0.66l7.606-0.659L85.093,47l7.606-0.663l-7.606-0.657l7.606-0.659l-7.606-0.66l7.606-0.66
			l-7.606-0.66l7.606-0.659l-7.606-0.66l7.606-0.657l-7.606-0.658l7.606-0.66L92.676,39.741z"/>
		<path fill-rule="evenodd" clip-rule="evenodd" fill="#D8E1E7" d="M27.264,39.741h3.875l7.581-0.655l-7.607-0.663l7.607-0.657
			l-7.607-0.66l7.607-0.656l-7.607-0.663l7.607-0.656l-7.607-0.659l7.607-0.661l-7.607-0.66l7.607-0.657l-7.607-0.66l7.607-0.659
			l-7.607-0.66l7.607-0.66l-7.607-0.657l7.607-0.659l-7.607-0.658l7.607-0.66l-7.607-0.66l7.607-0.66l-7.607-0.656l7.607-0.663
			l-7.607-0.657l7.607-0.66l-6.481-0.56h-6.077l-6.479,0.56l7.607,0.66l-7.607,0.657l7.607,0.663l-7.607,0.656l7.607,0.66
			l-7.607,0.66l7.607,0.66l-7.607,0.658l7.607,0.656l-7.607,0.66l7.607,0.66l-7.607,0.66l7.607,0.659l-7.607,0.66l7.607,0.657
			l-7.607,0.66l7.607,0.659l-7.607,0.661l7.607,0.656l-7.607,0.663l7.607,0.656l-7.607,0.66l7.607,0.657l-7.607,0.663L27.264,39.741
			L27.264,39.741z M59.967,39.741h3.878l7.582-0.655l-7.607-0.663l7.607-0.657l-7.607-0.66l7.607-0.656l-7.607-0.663l7.607-0.656
			l-7.607-0.659l7.607-0.661l-7.607-0.66l7.607-0.657l-7.607-0.66l7.607-0.659l-7.607-0.66l7.607-0.66l-7.607-0.657l7.607-0.659
			l-7.607-0.658l7.607-0.66l-7.607-0.66l7.607-0.66l-7.607-0.656l7.607-0.663l-7.607-0.657l7.607-0.66l-6.482-0.56h-6.077
			l-6.481,0.56l7.606,0.66l-7.606,0.657l7.606,0.663l-7.606,0.656l7.606,0.66l-7.606,0.66l7.606,0.66l-7.606,0.658l7.606,0.656
			l-7.606,0.66l7.606,0.66l-7.606,0.66l7.606,0.659l-7.606,0.66l7.606,0.657l-7.606,0.66l7.606,0.659l-7.606,0.661l7.606,0.656
			l-7.606,0.663l7.606,0.656l-7.606,0.66l7.606,0.657l-7.606,0.663L59.967,39.741L59.967,39.741z M92.676,39.741h3.872l7.585-0.655
			l-7.61-0.663l7.61-0.657l-7.61-0.66l7.61-0.656l-7.61-0.663l7.61-0.656l-7.61-0.659l7.61-0.661l-7.61-0.66l7.607-0.657
			l-7.607-0.66l7.61-0.659l-7.61-0.66l7.61-0.66l-7.61-0.657l7.61-0.659l-7.61-0.658l7.61-0.66l-7.61-0.66l7.61-0.66l-7.61-0.656
			l7.61-0.663l-7.61-0.657l7.61-0.66l-6.481-0.56h-6.077l-6.481,0.56l7.606,0.66l-7.606,0.657l7.606,0.663l-7.606,0.656l7.606,0.66
			l-7.606,0.66l7.606,0.66l-7.606,0.658l7.606,0.656l-7.606,0.66l7.606,0.66l-7.606,0.66l7.606,0.659l-7.606,0.66l7.606,0.657
			l-7.606,0.66l7.606,0.659l-7.606,0.661l7.606,0.656l-7.606,0.663l7.606,0.656l-7.606,0.66l7.606,0.657l-7.606,0.663L92.676,39.741
			z"/>
		<path fill-rule="evenodd" clip-rule="evenodd" fill="#69C7F0" d="M24.992,5.655h8.415l5.312,0.461l-7.607,0.659l7.607,0.66
			l-7.607,0.66l7.607,0.66l-7.607,0.659l7.607,0.66l-7.607,0.658l7.607,0.662l-7.607,0.655l7.607,0.662l-7.607,0.657l7.607,0.66
			l-7.607,0.659l7.607,0.655l-7.607,0.663l7.607,0.66l-7.607,0.659l7.607,0.657l-7.607,0.66l7.607,0.659l-7.607,0.66l7.607,0.659
			l-7.607,0.66l7.607,0.66l-7.607,0.658l1.125,0.1h-6.077l1.128-0.1l-7.61-0.658l7.61-0.66l-7.61-0.66l7.61-0.659l-7.607-0.66
			l7.607-0.659l-7.607-0.66l7.607-0.657l-7.607-0.659l7.607-0.66l-7.607-0.663l7.607-0.655l-7.607-0.659l7.607-0.66l-7.607-0.657
			l7.607-0.662l-7.607-0.655l7.607-0.662l-7.607-0.658l7.607-0.66l-7.607-0.659l7.607-0.66l-7.607-0.66l7.607-0.66l-7.607-0.659
			L24.992,5.655L24.992,5.655z M57.698,5.655h8.415l5.313,0.461l-7.607,0.659l7.607,0.66l-7.607,0.66l7.607,0.66l-7.607,0.659
			l7.607,0.66l-7.607,0.658l7.607,0.662l-7.607,0.655l7.607,0.662l-7.607,0.657l7.607,0.66l-7.607,0.659l7.607,0.655l-7.607,0.663
			l7.607,0.66l-7.607,0.659l7.607,0.657l-7.607,0.66l7.607,0.659l-7.607,0.66l7.607,0.659l-7.607,0.66l7.607,0.66l-7.607,0.658
			l1.125,0.1h-6.077l1.125-0.1l-7.606-0.658l7.606-0.66l-7.606-0.66l7.606-0.659l-7.606-0.66l7.609-0.659l-7.609-0.66l7.606-0.657
			l-7.606-0.659l7.606-0.66l-7.606-0.663l7.606-0.655l-7.606-0.659l7.606-0.66l-7.606-0.657l7.606-0.662l-7.606-0.655l7.606-0.662
			l-7.606-0.658l7.606-0.66l-7.606-0.659l7.606-0.66l-7.606-0.66l7.606-0.66l-7.606-0.659L57.698,5.655L57.698,5.655z M90.405,5.655
			h8.414l5.313,0.461l-7.61,0.659l7.61,0.66l-7.61,0.66l7.61,0.66l-7.61,0.659l7.61,0.66l-7.61,0.658l7.61,0.662l-7.61,0.655
			l7.607,0.662l-7.607,0.657l7.61,0.66l-7.61,0.659l7.61,0.655l-7.61,0.663l7.607,0.66l-7.607,0.659l7.61,0.657l-7.61,0.66
			l7.61,0.659l-7.61,0.66l7.61,0.659l-7.61,0.66l7.61,0.66l-7.61,0.658l1.129,0.1h-6.077l1.125-0.1l-7.606-0.658l7.606-0.66
			l-7.606-0.66l7.606-0.659l-7.606-0.66l7.609-0.659l-7.609-0.66l7.606-0.657l-7.606-0.659l7.606-0.66l-7.606-0.663l7.606-0.655
			l-7.606-0.659l7.606-0.66l-7.606-0.657l7.606-0.662l-7.606-0.655l7.606-0.662l-7.606-0.658l7.606-0.66l-7.606-0.659l7.606-0.66
			l-7.606-0.66l7.606-0.66l-7.606-0.659L90.405,5.655z"/>
		<polygon fill-rule="evenodd" clip-rule="evenodd" fill="#C97B16" points="62.19,27.891 62.487,26.189 63.205,23.724 
			63.333,23.755 62.862,26.256 62.729,28.206 64.521,24.077 64.646,24.123 63.279,28.407 64.423,26.901 65.753,24.66 65.868,24.721 
			64.751,27.096 63.884,28.537 66.868,25.453 66.968,25.54 64.239,29.004 67.822,26.433 67.903,26.535 64.599,29.455 68.582,27.565 
			68.646,27.681 64.873,29.965 69.132,28.816 69.173,28.941 65.2,30.459 66.868,30.203 69.451,30.149 69.462,30.282 66.923,30.583 
			65.028,31.08 69.521,31.51 69.513,31.641 65.001,31.666 66.761,32.305 69.345,32.86 69.323,32.991 66.673,32.679 65.111,32.298 
			68.938,34.167 68.884,34.288 64.747,32.764 68.3,35.375 68.229,35.484 64.429,33.244 67.459,36.451 67.366,36.546 64.029,33.664 
			66.438,37.357 66.331,37.433 63.561,34.003 65.272,38.067 65.151,38.124 63.087,34.341 63.551,36.042 63.993,38.561 
			63.866,38.592 63.18,36.145 62.479,34.333 62.655,38.815 62.522,38.827 61.906,34.46 61.29,38.827 61.159,38.815 61.328,34.465 
			60.793,36.249 59.942,38.595 59.813,38.557 60.422,36.147 60.796,34.213 58.66,38.124 58.542,38.067 60.251,34.003 57.481,37.433 
			57.376,37.357 59.842,33.574 58.315,34.702 56.453,36.546 56.355,36.456 58.051,34.424 59.241,33.328 55.583,35.484 
			55.511,35.375 59.064,32.764 54.929,34.288 54.875,34.167 58.714,32.29 57.087,32.679 54.488,32.991 54.468,32.86 57.003,32.305 
			58.803,31.666 54.299,31.641 54.294,31.51 58.506,31.105 56.937,30.93 54.345,30.271 54.371,30.141 56.987,30.552 58.865,30.556 
			54.642,28.941 54.683,28.816 59.008,29.983 57.512,28.978 55.167,27.683 55.226,27.565 57.693,28.643 59.156,29.404 
			55.908,26.535 55.992,26.433 59.573,29.004 56.844,25.54 56.944,25.453 60.011,28.622 57.941,24.727 58.057,24.66 60.507,28.328 
			59.167,24.123 59.292,24.077 61.085,28.21 60.962,26.216 60.476,23.755 60.607,23.724 61.341,26.146 61.625,27.867 61.839,23.616 
			61.972,23.616 		"/>
		<polygon fill-rule="evenodd" clip-rule="evenodd" fill="#FCB813" points="61.906,23.686 62.029,26.098 62.151,28.512 
			62.553,26.205 63.254,23.806 62.794,26.252 62.632,28.602 63.595,26.384 64.558,24.167 63.823,26.468 63.091,28.773 
			64.479,26.937 65.778,24.752 64.688,27.062 63.513,29.023 65.19,27.288 66.873,25.547 65.377,27.448 63.881,29.346 65.845,27.938 
			67.81,26.527 65.996,28.128 64.185,29.729 66.369,28.691 68.554,27.655 66.484,28.909 64.417,30.159 66.751,29.53 69.086,28.901 
			66.827,29.763 64.568,30.625 66.873,30.271 69.386,30.221 66.907,30.516 64.633,31.111 67.04,31.342 69.446,31.571 67.028,31.587 
			64.612,31.599 66.743,32.371 69.265,32.914 66.688,32.609 64.505,32.077 66.677,33.14 68.849,34.2 66.579,33.364 64.311,32.527 
			66.259,33.961 68.206,35.393 66.124,34.165 64.04,32.938 65.702,34.691 67.362,36.449 65.532,34.871 63.702,33.29 65.021,35.315 
			66.344,37.342 64.824,35.459 63.308,33.576 64.243,35.807 65.181,38.035 64.024,35.912 62.865,33.791 63.481,36.058 
			63.913,38.511 63.247,36.121 62.395,33.919 62.489,36.336 62.581,38.751 62.244,36.357 61.906,33.965 61.568,36.357 
			61.231,38.751 61.323,36.336 61.42,33.919 60.727,36.227 59.898,38.511 60.491,36.159 60.947,33.791 59.788,35.912 58.632,38.035 
			59.569,35.807 60.504,33.576 58.987,35.459 57.471,37.342 58.791,35.315 60.11,33.29 58.269,34.65 56.451,36.449 58.101,34.471 
			59.77,32.938 57.688,34.165 55.606,35.393 57.553,33.961 59.501,32.527 57.233,33.361 54.964,34.2 57.138,33.14 59.31,32.077 
			57.077,32.609 54.547,32.914 57.023,32.371 59.2,31.599 56.783,31.587 54.366,31.571 56.77,31.342 59.179,31.111 56.952,30.86 
			54.424,30.221 56.985,30.619 59.244,30.625 56.985,29.763 54.726,28.901 57.062,29.53 59.395,30.159 57.545,28.92 55.258,27.655 
			57.663,28.704 59.627,29.729 57.816,28.128 56.005,26.527 57.967,27.938 59.931,29.346 58.435,27.448 56.939,25.547 58.62,27.288 
			60.299,29.023 59.169,26.888 58.033,24.752 59.379,26.763 60.722,28.773 59.987,26.468 59.253,24.167 60.218,26.384 61.18,28.602 
			61.031,26.202 60.558,23.806 61.271,26.159 61.661,28.512 61.783,26.098 		"/>
		<path fill-rule="evenodd" clip-rule="evenodd" fill="#C97B16" d="M61.906,28.489c-1.507,0-2.729,1.223-2.729,2.729
			c0,1.507,1.22,2.729,2.729,2.729c1.506,0,2.729-1.223,2.729-2.729C64.636,29.71,63.412,28.489,61.906,28.489L61.906,28.489z
			 M61.906,28.346c1.586,0,2.875,1.287,2.875,2.872c0,1.587-1.289,2.873-2.875,2.873s-2.873-1.286-2.873-2.873
			C59.034,29.633,60.32,28.346,61.906,28.346z"/>
	</g>
</g>
</svg>
