<?xml version="1.0" encoding="utf-8"?>
<!-- Generator: Adobe Illustrator 15.0.0, SVG Export Plug-In . SVG Version: 6.00 Build 0)  -->
<!DOCTYPE svg PUBLIC "-//W3C//DTD SVG 1.1//EN" "http://www.w3.org/Graphics/SVG/1.1/DTD/svg11.dtd">
<svg version="1.1" id="Layer_1" xmlns="http://www.w3.org/2000/svg" xmlns:xlink="http://www.w3.org/1999/xlink" x="0px" y="0px"
	 width="121.739px" height="65.218px" viewBox="0 0 121.739 65.218" enable-background="new 0 0 121.739 65.218"
	 xml:space="preserve">
<g>
	<rect x="12.019" y="4.293" fill-rule="evenodd" clip-rule="evenodd" fill="#231F20" width="99.774" height="52.885"/>
	<g>
		<rect x="78.24" y="5.173" fill-rule="evenodd" clip-rule="evenodd" fill="#EC1C24" width="32.673" height="51.125"/>
		<rect x="45.569" y="5.173" fill-rule="evenodd" clip-rule="evenodd" fill="#FFCA05" width="32.671" height="51.125"/>
		<rect x="12.899" y="5.173" fill-rule="evenodd" clip-rule="evenodd" fill="#494D51" width="32.67" height="51.125"/>
		<polygon fill-rule="evenodd" clip-rule="evenodd" fill="#231F20" points="26.77,56.298 31.629,56.298 38.72,55.685 31.113,55.029 
			38.72,54.369 31.113,53.715 38.72,53.055 31.113,52.395 38.72,51.74 31.113,51.08 38.72,50.425 31.113,49.765 38.72,49.111 
			31.113,48.446 38.72,47.791 31.113,47.131 38.72,46.477 31.113,45.816 38.72,45.162 31.113,44.502 38.72,43.842 31.113,43.188 
			38.72,42.526 31.113,41.867 38.72,41.213 31.113,40.558 38.72,39.897 31.113,39.237 38.72,38.583 31.113,37.924 38.72,37.263 
			31.113,36.608 38.72,35.948 31.113,35.293 38.72,34.634 31.113,33.979 38.72,33.319 31.113,32.659 38.72,32.004 31.113,31.344 
			38.72,30.689 31.113,30.029 38.72,29.369 31.113,28.715 38.72,28.055 31.113,27.4 38.72,26.74 31.113,26.085 38.72,25.426 
			31.113,24.766 38.72,24.106 31.113,23.451 38.72,22.791 31.113,22.137 38.72,21.477 31.113,20.821 38.72,20.162 31.113,19.502 
			38.72,18.847 31.113,18.187 38.72,17.527 31.113,16.873 38.72,16.213 31.113,15.558 38.72,14.897 31.113,14.237 38.72,13.583 
			31.113,12.923 38.72,12.269 31.113,11.608 38.72,10.953 31.113,10.293 38.72,9.634 31.113,8.979 38.72,8.318 31.113,7.664 
			38.72,7.004 31.113,6.345 38.72,5.689 32.742,5.173 25.657,5.173 19.682,5.689 27.289,6.345 19.682,7.004 27.289,7.664 
			19.682,8.318 27.289,8.979 19.682,9.634 27.289,10.293 19.682,10.953 27.289,11.608 19.682,12.269 27.289,12.923 19.682,13.583 
			27.289,14.237 19.682,14.897 27.289,15.558 19.682,16.213 27.289,16.873 19.682,17.527 27.289,18.187 19.682,18.847 
			27.289,19.502 19.679,20.162 27.289,20.821 19.679,21.477 27.289,22.137 19.682,22.791 27.289,23.451 19.682,24.106 
			27.289,24.766 19.682,25.426 27.289,26.085 19.682,26.74 27.289,27.4 19.682,28.055 27.289,28.709 19.682,29.369 27.289,30.029 
			19.682,30.689 27.289,31.344 19.682,32.004 27.289,32.659 19.682,33.319 27.289,33.974 19.682,34.634 27.289,35.293 
			19.682,35.948 27.289,36.608 19.682,37.263 27.289,37.924 19.682,38.583 27.289,39.237 19.682,39.897 27.289,40.558 
			19.682,41.213 27.289,41.867 19.682,42.526 27.289,43.188 19.682,43.842 27.289,44.502 19.682,45.162 27.289,45.816 
			19.682,46.477 27.289,47.131 19.682,47.791 27.289,48.446 19.682,49.111 27.289,49.765 19.682,50.425 27.289,51.08 19.682,51.74 
			27.289,52.395 19.682,53.055 27.289,53.715 19.682,54.369 27.289,55.029 19.682,55.685 		"/>
		<polygon fill-rule="evenodd" clip-rule="evenodd" fill="#EBAC13" points="64.336,56.298 59.476,56.298 52.386,55.685 
			59.993,55.029 52.386,54.369 59.993,53.715 52.386,53.055 59.993,52.395 52.386,51.74 59.993,51.08 52.386,50.425 59.993,49.765 
			52.386,49.111 59.993,48.446 52.386,47.791 59.993,47.131 52.386,46.477 59.993,45.816 52.386,45.162 59.993,44.502 
			52.386,43.842 59.993,43.188 52.386,42.526 59.993,41.867 52.386,41.213 59.993,40.558 52.386,39.897 59.993,39.237 
			52.386,38.583 59.993,37.924 52.386,37.263 59.993,36.608 52.386,35.948 59.993,35.293 52.386,34.634 59.993,33.974 
			52.386,33.319 59.993,32.659 52.386,32.004 59.993,31.344 52.386,30.689 59.993,30.029 52.386,29.369 59.993,28.709 
			52.386,28.055 59.993,27.4 52.386,26.74 59.993,26.085 52.386,25.426 59.993,24.766 52.386,24.106 59.993,23.451 52.386,22.791 
			59.993,22.137 52.386,21.477 59.993,20.821 52.386,20.162 59.993,19.502 52.386,18.847 59.995,18.187 52.386,17.527 
			59.993,16.873 52.386,16.213 59.993,15.558 52.386,14.897 59.993,14.237 52.386,13.583 59.993,12.923 52.386,12.269 
			59.993,11.608 52.386,10.953 59.993,10.293 52.386,9.634 59.993,8.979 52.386,8.318 59.993,7.664 52.386,7.004 59.993,6.345 
			52.386,5.689 58.363,5.173 65.448,5.173 71.427,5.689 63.819,6.345 71.427,7.004 63.819,7.664 71.427,8.318 63.817,8.979 
			71.427,9.634 63.819,10.293 71.427,10.953 63.819,11.608 71.427,12.269 63.819,12.923 71.427,13.583 63.819,14.237 71.427,14.897 
			63.819,15.558 71.427,16.213 63.819,16.873 71.427,17.527 63.817,18.187 71.427,18.847 63.819,19.502 71.427,20.162 
			63.819,20.821 71.427,21.477 63.819,22.137 71.427,22.791 63.819,23.451 71.427,24.106 63.819,24.766 71.427,25.426 
			63.819,26.085 71.427,26.74 63.819,27.4 71.427,28.055 63.819,28.715 71.427,29.369 63.819,30.029 71.427,30.689 63.819,31.344 
			71.427,32.004 63.819,32.659 71.427,33.319 63.819,33.979 71.427,34.634 63.819,35.293 71.427,35.948 63.819,36.608 
			71.427,37.263 63.819,37.924 71.427,38.583 63.819,39.237 71.427,39.897 63.819,40.558 71.427,41.213 63.819,41.867 
			71.427,42.526 63.819,43.188 71.427,43.842 63.819,44.502 71.427,45.162 63.819,45.816 71.427,46.477 63.819,47.131 
			71.427,47.791 63.819,48.446 71.427,49.111 63.819,49.765 71.427,50.425 63.819,51.08 71.427,51.74 63.819,52.395 71.427,53.055 
			63.819,53.715 71.427,54.369 63.819,55.029 71.427,55.685 		"/>
		<polygon fill-rule="evenodd" clip-rule="evenodd" fill="#C3161C" points="92.183,56.298 97.042,56.298 104.133,55.685 
			96.522,55.029 104.13,54.369 96.522,53.715 104.13,53.055 96.522,52.395 104.13,51.74 96.522,51.08 104.13,50.425 96.522,49.765 
			104.13,49.111 96.522,48.446 104.13,47.791 96.522,47.131 104.13,46.477 96.522,45.816 104.133,45.162 96.522,44.502 
			104.13,43.842 96.522,43.188 104.13,42.526 96.522,41.867 104.133,41.213 96.522,40.558 104.13,39.897 96.522,39.237 
			104.13,38.583 96.522,37.924 104.13,37.263 96.522,36.608 104.13,35.948 96.522,35.293 104.13,34.634 96.522,33.979 
			104.133,33.319 96.522,32.659 104.13,32.004 96.522,31.344 104.13,30.689 96.522,30.029 104.13,29.369 96.522,28.715 
			104.13,28.055 96.522,27.4 104.13,26.74 96.522,26.085 104.133,25.426 96.522,24.766 104.13,24.106 96.522,23.451 104.13,22.791 
			96.522,22.137 104.133,21.477 96.522,20.821 104.133,20.162 96.522,19.502 104.13,18.847 96.522,18.187 104.13,17.527 
			96.522,16.873 104.13,16.213 96.522,15.558 104.13,14.897 96.522,14.237 104.133,13.583 96.522,12.923 104.13,12.269 
			96.522,11.608 104.133,10.953 96.522,10.293 104.133,9.634 96.522,8.979 104.13,8.318 96.522,7.664 104.133,7.004 96.522,6.345 
			104.13,5.689 98.155,5.173 91.07,5.173 85.093,5.689 92.699,6.345 85.093,7.004 92.699,7.664 85.093,8.318 92.699,8.979 
			85.093,9.634 92.699,10.293 85.093,10.953 92.699,11.608 85.093,12.269 92.699,12.923 85.093,13.583 92.699,14.237 85.093,14.897 
			92.699,15.558 85.093,16.213 92.699,16.873 85.093,17.527 92.702,18.187 85.093,18.847 92.699,19.502 85.09,20.162 92.699,20.821 
			85.09,21.477 92.699,22.137 85.093,22.791 92.699,23.451 85.093,24.106 92.699,24.766 85.093,25.426 92.699,26.085 85.093,26.74 
			92.699,27.4 85.093,28.055 92.699,28.709 85.093,29.369 92.699,30.029 85.093,30.689 92.699,31.344 85.093,32.004 92.699,32.659 
			85.093,33.319 92.699,33.974 85.093,34.634 92.699,35.293 85.093,35.948 92.699,36.608 85.093,37.263 92.699,37.924 
			85.093,38.583 92.699,39.237 85.093,39.897 92.699,40.558 85.093,41.213 92.699,41.867 85.093,42.526 92.699,43.188 
			85.093,43.842 92.699,44.502 85.093,45.162 92.699,45.816 85.093,46.477 92.699,47.131 85.093,47.791 92.699,48.446 
			85.093,49.111 92.699,49.765 85.093,50.425 92.699,51.08 85.093,51.74 92.699,52.395 85.093,53.055 92.699,53.715 85.093,54.369 
			92.699,55.029 85.093,55.685 		"/>
	</g>
</g>
</svg>
