<?xml version="1.0" encoding="utf-8"?>
<!-- Generator: Adobe Illustrator 15.0.0, SVG Export Plug-In . SVG Version: 6.00 Build 0)  -->
<!DOCTYPE svg PUBLIC "-//W3C//DTD SVG 1.1//EN" "http://www.w3.org/Graphics/SVG/1.1/DTD/svg11.dtd">
<svg version="1.1" id="Layer_1" xmlns="http://www.w3.org/2000/svg" xmlns:xlink="http://www.w3.org/1999/xlink" x="0px" y="0px"
	 width="121.739px" height="65.218px" viewBox="0 0 121.739 65.218" enable-background="new 0 0 121.739 65.218"
	 xml:space="preserve">
<g>
	<rect x="12.019" y="5.129" fill-rule="evenodd" clip-rule="evenodd" fill="#231F20" width="99.774" height="52.887"/>
	<g>
		<rect x="12.899" y="6.008" fill-rule="evenodd" clip-rule="evenodd" fill="#034EA1" width="98.014" height="51.128"/>
		<path fill-rule="evenodd" clip-rule="evenodd" fill="#003375" d="M26.108,57.136h6.185l6.427-0.558l-7.607-0.657l7.607-0.66
			l-7.607-0.657l7.607-0.663l-7.607-0.656l7.607-0.66l-7.607-0.66l7.607-0.66l-7.607-0.656l7.607-0.658l-7.607-0.665l7.607-0.655
			l-7.607-0.662l7.607-0.657l-7.607-0.66l7.607-0.66l-7.607-0.657l7.607-0.662l-7.607-0.66l7.607-0.66l-7.607-0.657l7.607-0.66
			l-7.607-0.657l7.607-0.66l-7.607-0.66l7.607-0.658l-7.607-0.66l7.607-0.657l-7.607-0.66l7.607-0.658l-7.607-0.659l7.607-0.66
			l-7.607-0.657l7.607-0.662l-7.607-0.66l7.607-0.66l-7.607-0.657l7.607-0.66l-7.607-0.659l7.607-0.66l-7.607-0.658l7.607-0.66
			l-7.607-0.659l7.607-0.66l-7.607-0.657l7.607-0.663l-7.607-0.654l7.607-0.662l-7.607-0.657l7.607-0.66l-7.607-0.659l7.607-0.66
			l-7.607-0.657l7.607-0.663l-7.607-0.657l7.607-0.659l-7.609-0.66l7.609-0.66l-7.607-0.658l7.607-0.659l-7.607-0.66l7.607-0.663
			l-7.607-0.657l7.607-0.656l-7.607-0.66l7.607-0.658l-7.607-0.662l7.607-0.657l-7.607-0.66l7.607-0.66l-7.609-0.66l7.609-0.659
			l-7.607-0.657l7.607-0.66l-7.607-0.659l7.607-0.66l-5.312-0.461h-8.415l-5.313,0.461l7.61,0.66l-7.607,0.659l7.607,0.66
			l-7.61,0.657l7.61,0.659l-7.61,0.66l7.61,0.66l-7.61,0.66l7.61,0.657l-7.61,0.662l7.61,0.658l-7.61,0.66l7.61,0.656l-7.61,0.657
			l7.61,0.663l-7.61,0.66l7.61,0.659l-7.61,0.658l7.61,0.66l-7.61,0.66l7.61,0.659l-7.61,0.657l7.61,0.663l-7.61,0.657l7.61,0.66
			l-7.61,0.659l7.61,0.66l-7.61,0.657l7.61,0.662l-7.61,0.654l7.61,0.663l-7.61,0.657l7.61,0.66l-7.61,0.659l7.61,0.657l-7.61,0.661
			l7.61,0.66l-7.61,0.659l7.61,0.66l-7.61,0.657l7.61,0.66l-7.61,0.66l7.61,0.659l-7.61,0.66l7.61,0.66l-7.61,0.659l7.61,0.658
			l-7.61,0.66l7.61,0.657l-7.61,0.66l7.61,0.658l-7.61,0.66l7.61,0.66l-7.61,0.657l7.61,0.66l-7.61,0.657l7.61,0.66l-7.61,0.66
			l7.61,0.66l-7.61,0.659l7.61,0.66l-7.61,0.66l7.61,0.657l-7.61,0.662l7.61,0.655l-7.61,0.665l7.61,0.658l-7.61,0.656l7.61,0.66
			l-7.61,0.663l7.61,0.657l-7.61,0.656l7.61,0.663l-7.61,0.657l7.61,0.66l-7.61,0.657L26.108,57.136L26.108,57.136z M58.812,57.136
			h6.187l6.429-0.558l-7.607-0.657l7.607-0.66l-7.607-0.657l7.607-0.663l-7.607-0.656l7.607-0.66l-7.607-0.66l7.607-0.66
			l-7.607-0.656l7.607-0.658l-7.607-0.665l7.607-0.655l-7.607-0.662l7.607-0.657l-7.607-0.66l7.607-0.66l-7.607-0.657l7.607-0.662
			l-7.607-0.66l7.607-0.66l-7.607-0.657l7.607-0.66l-7.607-0.657l7.607-0.66l-7.607-0.66l7.607-0.658l-7.607-0.66l7.607-0.657
			l-7.607-0.66l7.607-0.658l-7.607-0.659l7.607-0.66l-7.607-0.657l7.607-0.662l-7.607-0.66l7.607-0.66l-7.607-0.657l7.607-0.66
			l-7.607-0.659l7.607-0.66l-7.607-0.658l7.607-0.66l-7.607-0.659l7.607-0.66l-7.607-0.657l7.607-0.663l-7.607-0.654l7.607-0.662
			l-7.607-0.657l7.607-0.66l-7.607-0.659l7.607-0.66l-7.607-0.657l7.607-0.663l-7.607-0.657l7.607-0.659l-7.609-0.66l7.609-0.66
			l-7.607-0.658l7.607-0.659l-7.607-0.66l7.607-0.663l-7.607-0.657l7.607-0.656l-7.607-0.66l7.607-0.658l-7.607-0.662l7.607-0.657
			l-7.607-0.66l7.607-0.66l-7.609-0.66l7.609-0.659l-7.607-0.657l7.607-0.66l-7.607-0.659l7.607-0.66l-5.313-0.461h-8.415
			l-5.312,0.461l7.606,0.66l-7.606,0.659l7.606,0.66l-7.606,0.657l7.606,0.659l-7.606,0.66l7.606,0.66l-7.606,0.66l7.606,0.657
			l-7.606,0.662l7.606,0.658l-7.606,0.66l7.606,0.656l-7.606,0.657l7.606,0.663l-7.606,0.66l7.606,0.659l-7.606,0.658l7.609,0.66
			l-7.609,0.66l7.606,0.659l-7.606,0.657l7.606,0.663l-7.606,0.657l7.606,0.66l-7.606,0.659l7.606,0.66l-7.606,0.657l7.606,0.662
			l-7.606,0.654l7.606,0.663l-7.606,0.657l7.606,0.66l-7.606,0.659l7.606,0.657l-7.606,0.661l7.606,0.66l-7.606,0.659l7.606,0.66
			l-7.606,0.657l7.606,0.66l-7.606,0.66l7.606,0.659l-7.606,0.66l7.606,0.66l-7.606,0.659l7.606,0.658l-7.606,0.66l7.606,0.657
			l-7.606,0.66l7.606,0.658l-7.606,0.66l7.606,0.66l-7.606,0.657l7.606,0.66l-7.606,0.657l7.606,0.66l-7.606,0.66l7.606,0.66
			l-7.606,0.659l7.606,0.66l-7.606,0.66l7.606,0.657l-7.606,0.662l7.606,0.655l-7.606,0.665l7.606,0.658l-7.606,0.656l7.606,0.66
			l-7.606,0.663l7.606,0.657l-7.606,0.656l7.606,0.663l-7.606,0.657l7.606,0.66l-7.606,0.657L58.812,57.136L58.812,57.136z
			 M91.521,57.136h6.184l6.429-0.558l-7.61-0.657l7.607-0.66l-7.607-0.657l7.607-0.663l-7.607-0.656l7.607-0.66l-7.607-0.66
			l7.607-0.66l-7.607-0.656l7.607-0.658l-7.607-0.665l7.607-0.655l-7.607-0.662l7.607-0.657l-7.607-0.66l7.61-0.66l-7.61-0.657
			l7.607-0.662l-7.607-0.66l7.607-0.66l-7.607-0.657l7.61-0.66l-7.61-0.657l7.607-0.66l-7.607-0.66l7.607-0.658l-7.607-0.66
			l7.607-0.657l-7.607-0.66l7.607-0.658l-7.607-0.659l7.607-0.66l-7.607-0.657l7.61-0.662l-7.61-0.66l7.607-0.66l-7.607-0.657
			l7.607-0.66l-7.607-0.659l7.607-0.66l-7.607-0.658l7.607-0.66l-7.607-0.659l7.607-0.66l-7.607-0.657l7.61-0.663l-7.61-0.654
			l7.607-0.662l-7.607-0.657l7.607-0.66l-7.607-0.659l7.61-0.66l-7.61-0.657l7.61-0.663l-7.61-0.657l7.607-0.659l-7.607-0.66
			l7.607-0.66l-7.607-0.658l7.607-0.659l-7.607-0.66l7.607-0.663l-7.607-0.657l7.61-0.656l-7.61-0.66l7.607-0.658l-7.607-0.662
			l7.61-0.657l-7.61-0.66l7.61-0.66l-7.61-0.66l7.607-0.659l-7.607-0.657l7.61-0.66l-7.61-0.659l7.607-0.66l-5.311-0.461h-8.414
			l-5.312,0.461l7.606,0.66l-7.606,0.659l7.606,0.66l-7.606,0.657l7.606,0.659l-7.606,0.66l7.606,0.66l-7.606,0.66l7.606,0.657
			l-7.606,0.662l7.606,0.658l-7.606,0.66l7.606,0.656l-7.606,0.657l7.606,0.663l-7.606,0.66l7.606,0.659l-7.606,0.658l7.609,0.66
			l-7.609,0.66l7.606,0.659l-7.609,0.657l7.609,0.663l-7.609,0.657l7.609,0.66l-7.606,0.659l7.606,0.66l-7.606,0.657l7.606,0.662
			l-7.606,0.654l7.606,0.663l-7.606,0.657l7.606,0.66l-7.606,0.659l7.606,0.657l-7.606,0.661l7.606,0.66l-7.606,0.659l7.606,0.66
			l-7.606,0.657l7.606,0.66l-7.606,0.66l7.606,0.659l-7.606,0.66l7.606,0.66l-7.606,0.659l7.606,0.658l-7.606,0.66l7.606,0.657
			l-7.606,0.66l7.606,0.658l-7.606,0.66l7.606,0.66l-7.606,0.657l7.606,0.66l-7.606,0.657l7.606,0.66l-7.606,0.66l7.606,0.66
			l-7.606,0.659l7.606,0.66l-7.606,0.66l7.606,0.657l-7.606,0.662l7.606,0.655l-7.606,0.665l7.606,0.658l-7.606,0.656l7.606,0.66
			l-7.606,0.663l7.606,0.657l-7.606,0.656l7.606,0.663l-7.606,0.657l7.606,0.66l-7.606,0.657L91.521,57.136z"/>
		<path fill-rule="evenodd" clip-rule="evenodd" fill="#FFFFFF" d="M45.849,19.694l1.066,3.305l3.466-0.011l-2.808,2.037
			l1.079,3.299l-2.803-2.046l-2.801,2.046l1.077-3.299l-2.811-2.037l3.471,0.011L45.849,19.694L45.849,19.694z M77.665,51.866
			l1.063,3.308l3.471-0.011l-2.724,1.973h-3.622l-2.724-1.973l3.471,0.011L77.665,51.866L77.665,51.866z M71.321,45.424
			l-1.066,3.305l-3.469-0.006l2.811,2.031l-1.078,3.3l2.803-2.046l2.801,2.046l-1.08-3.3l2.812-2.031l-3.469,0.006L71.321,45.424
			L71.321,45.424z M64.976,39.067l1.066,3.306l3.469-0.011l-2.812,2.035l1.077,3.297l-2.801-2.044l-2.801,2.044l1.076-3.297
			l-2.808-2.035l3.468,0.011L64.976,39.067L64.976,39.067z M58.545,32.624l-1.064,3.303l-3.468-0.006l2.809,2.034l-1.077,3.297
			l2.801-2.044l2.803,2.044l-1.079-3.297l2.811-2.034l-3.466,0.006L58.545,32.624L58.545,32.624z M52.107,26.225l-1.067,3.302
			l-3.468-0.005l2.811,2.033l-1.08,3.3l2.804-2.049l2.8,2.049l-1.079-3.3l2.811-2.033l-3.468,0.005L52.107,26.225L52.107,26.225z
			 M28.302,6.008l1.059,3.243l-2.804-2.046l-2.801,2.046l1.062-3.243H28.302L28.302,6.008z M32.99,7.064l-1.067,3.305l-3.468-0.008
			l2.811,2.036l-1.08,3.297l2.803-2.047l2.801,2.047l-1.08-3.297l2.814-2.036l-3.471,0.008L32.99,7.064L32.99,7.064z M39.332,13.421
			l-1.064,3.305l-3.469-0.005l2.811,2.032l-1.079,3.298l2.801-2.044l2.803,2.044l-1.08-3.298l2.812-2.032L40.4,16.726L39.332,13.421
			z"/>
		<polygon fill-rule="evenodd" clip-rule="evenodd" fill="#FFCA05" points="86.864,6.008 86.864,57.136 35.612,6.008 		"/>
		<path fill-rule="evenodd" clip-rule="evenodd" fill="#D8E1E7" d="M36.83,21.141l1.08-0.096l0.174-0.128l-1.149-0.097L36.83,21.141
			L36.83,21.141z M37.274,19.782l1.446-0.125l-1.366-0.118L37.274,19.782L37.274,19.782z M37.213,18.467l1.506-0.13l-1.916-0.164
			L37.213,18.467L37.213,18.467z M35.586,17.291l3.134-0.271l-3.443-0.299h-0.479L35.586,17.291L35.586,17.291z M38.597,15.707
			l0.123-0.011l-0.118-0.009L38.597,15.707L38.597,15.707z M35.704,15.437L35.4,15.411l0.392,0.283L35.704,15.437L35.704,15.437z
			 M34.492,14.748l0.962-0.085l-0.192-0.58l-1.905-0.166L34.492,14.748L34.492,14.748z M32.701,13.86l-2.514,1.834l1.071-3.279
			l3.561,0.311l0.214,0.656l-3.921,0.341L32.701,13.86L32.701,13.86z M31.258,12.39l3.929-0.338l0.757-0.546l-4.832-0.421
			l6.146-0.531l0.267-0.192l-3.471,0.008l-0.115-0.358l-1.85-0.158l-0.167,0.517l-3.468-0.008L31.258,12.39L31.258,12.39z
			 M32.146,9.676l1.639-0.141l-0.284-0.88l-0.998-0.086L32.146,9.676L32.146,9.676z M32.583,8.323l0.788-0.072l-0.307-0.952
			l-0.146-0.014L32.583,8.323L32.583,8.323z M24.992,6.008l-0.179,0.016l-0.284,0.867l2.76,0.238l-2.921,0.253l-0.258,0.79
			l1.005,0.087l1.442-1.054l2.804,2.046l-1.059-3.243H24.992L24.992,6.008z M24.526,8.689l-0.77,0.562l0.167-0.511L24.526,8.689
			L24.526,8.689z M55.995,41.068l-0.187-0.016l0.199-0.612l0.959-0.081L55.995,41.068L55.995,41.068z M59.788,40.113l1.56,1.139
			l-1.079-3.297l2.811-2.034l-3.466,0.006l-0.337-1.045l-1.501,0.132l-0.292,0.907l2.509,0.221l-5.07,0.439l0.691,0.496l4.379,0.382
			l-3.443,0.299l0.271,0.197l-0.174,0.531l3.345,0.29l-3.54,0.307l-0.226,0.685l1.382,0.121l0.936-0.681l1.189,0.867l0.258,0.02
			L59.788,40.113L59.788,40.113z M59.233,34.755l-1.338-0.115l0.317-0.984l0.65-0.057L59.233,34.755L59.233,34.755z M54.749,34.367
			l-0.575-0.053l-0.379-0.275l0.824-0.072L54.749,34.367L54.749,34.367z M58.796,33.399l-0.486-0.043l0.235-0.732L58.796,33.399
			L58.796,33.399z M54.305,33.011l-1.918-0.169l1.813-0.156L54.305,33.011L54.305,33.011z M53.862,31.652l-1.476-0.128l1.688-0.146
			l-0.246,0.177L53.862,31.652L53.862,31.652z M55.34,30.463l-2.954-0.258l3.757-0.325L55.34,30.463L55.34,30.463z M52.982,28.939
			l-0.596-0.053l0.562-0.048L52.982,28.939L52.982,28.939z M52.544,27.582l-0.158-0.015l0.148-0.011L52.544,27.582L52.544,27.582z
			 M65.267,39.971l-0.598,0.051l0.307-0.954L65.267,39.971L65.267,39.971z M64.622,40.167l0.729,0.062l0.33,1.025l-1.449,0.126
			L64.622,40.167L64.622,40.167z M64.208,41.449l1.58,0.135l0.254,0.789l2.014-0.008l-4.236,0.367l4.627,0.402l-0.811,0.585
			l-3.816,0.33l2.998,0.261l-0.118,0.087l0.229,0.704l-3.109,0.271l3.289,0.284l0.24,0.726l-1.223,0.108l-1.15-0.84l-2.801,2.044
			l1.076-3.297l-2.808-2.035l3.468,0.011L64.208,41.449L64.208,41.449z M71.132,46.004l0.295,0.025l-0.312,0.028L71.132,46.004
			L71.132,46.004z M66.745,46.942l0.994,0.724h0.029l-0.215-0.651L66.745,46.942L66.745,46.942z M70.72,47.288l0.707,0.062
			l-0.748,0.064L70.72,47.288L70.72,47.288z M70.306,48.572l1.121,0.097l-4.213,0.364l-0.428-0.311l3.469,0.006L70.306,48.572
			L70.306,48.572z M68.142,49.702l3.285,0.287l-2.578,0.223L68.142,49.702L68.142,49.702z M69.472,51.135l1.955,0.169l-2.067,0.179
			L69.472,51.135L69.472,51.135z M69.052,52.419l1.525,0.13l-0.23,0.167l-1.433,0.126L69.052,52.419L69.052,52.419z M68.633,53.698
			l0.333,0.03l-0.447,0.325L68.633,53.698z"/>
		<path fill-rule="evenodd" clip-rule="evenodd" fill="#EBAC13" d="M86.864,6.314v0.308l-1.771-0.153L86.864,6.314L86.864,6.314z
			 M86.864,7.632v0.31l-1.771-0.153L86.864,7.632L86.864,7.632z M86.864,8.955v0.303l-1.771-0.152L86.864,8.955L86.864,8.955z
			 M86.864,10.271v0.308l-1.771-0.154L86.864,10.271L86.864,10.271z M86.864,11.592v0.307l-1.771-0.153L86.864,11.592L86.864,11.592
			z M86.864,12.911v0.308l-1.771-0.154L86.864,12.911L86.864,12.911z M86.864,14.229v0.304l-1.771-0.15L86.864,14.229L86.864,14.229
			z M86.864,15.543v0.308l-1.771-0.154L86.864,15.543L86.864,15.543z M86.864,16.866v0.307l-1.771-0.153L86.864,16.866
			L86.864,16.866z M86.864,18.183v0.311l-1.771-0.156L86.864,18.183L86.864,18.183z M86.864,19.503v0.308l-1.771-0.153
			L86.864,19.503L86.864,19.503z M86.864,20.82v0.307l-1.774-0.153L86.864,20.82L86.864,20.82z M86.864,22.14v0.308l-1.774-0.153
			L86.864,22.14L86.864,22.14z M86.864,23.459v0.308l-1.771-0.153L86.864,23.459L86.864,23.459z M86.864,24.776v0.311l-1.771-0.156
			L86.864,24.776L86.864,24.776z M86.864,26.095V26.4l-1.771-0.153L86.864,26.095L86.864,26.095z M86.864,27.417v0.307l-1.771-0.156
			L86.864,27.417L86.864,27.417z M86.864,28.734v0.306l-1.771-0.153L86.864,28.734L86.864,28.734z M86.864,30.051v0.311
			l-1.771-0.156L86.864,30.051L86.864,30.051z M86.864,31.371v0.307l-1.771-0.153L86.864,31.371L86.864,31.371z M86.864,32.688
			v0.307l-1.771-0.153L86.864,32.688L86.864,32.688z M86.864,34.009v0.306l-1.771-0.152L86.864,34.009L86.864,34.009z
			 M86.864,35.328v0.307l-1.771-0.153L86.864,35.328L86.864,35.328z M86.864,36.648v0.304l-1.771-0.151L86.864,36.648L86.864,36.648
			z M86.864,37.963v0.307l-1.771-0.15L86.864,37.963L86.864,37.963z M86.864,39.283v0.306l-1.771-0.152L86.864,39.283L86.864,39.283
			z M86.864,40.602v0.308l-1.771-0.154L86.864,40.602L86.864,40.602z M86.864,41.919v0.308l-1.771-0.154L86.864,41.919
			L86.864,41.919z M86.864,43.236v0.307l-1.771-0.153L86.864,43.236L86.864,43.236z M86.864,44.557v0.307l-1.771-0.153
			L86.864,44.557L86.864,44.557z M86.864,45.876v0.307l-1.771-0.153L86.864,45.876L86.864,45.876z M86.864,47.196v0.307
			l-1.771-0.153L86.864,47.196L86.864,47.196z M86.864,48.516v0.305l-1.771-0.151L86.864,48.516L86.864,48.516z M86.864,49.833
			v0.308l-1.771-0.151L86.864,49.833L86.864,49.833z M86.864,51.151v0.306l-1.771-0.153L86.864,51.151L86.864,51.151z
			 M86.864,52.471v0.31l-1.771-0.153L86.864,52.471L86.864,52.471z M86.864,53.788v0.307l-1.771-0.154L86.864,53.788L86.864,53.788z
			 M86.864,55.107v0.308l-1.771-0.154L86.864,55.107L86.864,55.107z M86.864,56.425v0.307l-0.445-0.035l-0.211-0.216L86.864,56.425
			L86.864,56.425z M70.521,40.834l-0.168-0.171l1.074,0.092L70.521,40.834L70.521,40.834z M69.306,39.62l-0.404-0.404l2.525,0.221
			L69.306,39.62L69.306,39.62z M68.088,38.407l-0.634-0.634l3.973,0.346L68.088,38.407L68.088,38.407z M66.873,37.192l-0.867-0.861
			l5.421,0.47L66.873,37.192L66.873,37.192z M65.655,35.98l-1.094-1.093l6.865,0.594L65.655,35.98L65.655,35.98z M64.443,34.768
			l-5.172-5.159l0.721-0.064l-0.862-0.072l-1.077-1.075l1.938-0.169l-2.307-0.2l-0.846-0.843l3.153-0.274l-3.755-0.328l-0.616-0.613
			l4.371-0.376l-5.202-0.452l-0.384-0.383l5.586-0.484l-6.65-0.578l-0.153-0.153l6.803-0.588l-7.606-0.66l7.606-0.657l-7.606-0.663
			l7.606-0.657l-7.606-0.659l7.609-0.66l-7.609-0.66l7.606-0.658l-7.606-0.659l7.606-0.66l-7.606-0.663l7.606-0.657l-7.606-0.656
			l7.606-0.66l-7.606-0.658l7.606-0.662l-7.606-0.657l7.606-0.66l-7.606-0.66l7.606-0.66l-7.606-0.659l7.606-0.657l-7.606-0.66
			l7.606-0.659l-7.606-0.66l5.312-0.461h8.415l5.313,0.461l-7.607,0.66l7.607,0.659l-7.607,0.66l7.607,0.657l-7.609,0.659
			l7.609,0.66l-7.607,0.66l7.607,0.66l-7.607,0.657l7.607,0.662l-7.607,0.658l7.607,0.66l-7.607,0.656l7.607,0.657l-7.607,0.663
			l7.607,0.66l-7.607,0.659l7.607,0.658l-7.609,0.66l7.609,0.66l-7.607,0.659l7.607,0.657l-7.607,0.663l7.607,0.657l-7.607,0.66
			l7.607,0.659l-7.607,0.66l7.607,0.657l-7.607,0.662l7.607,0.654l-7.607,0.663l7.607,0.657l-7.607,0.66l7.607,0.659l-7.607,0.66
			l7.607,0.658l-7.607,0.66l7.607,0.659l-7.607,0.66l7.607,0.657l-7.607,0.66l7.607,0.66L64.443,34.768L64.443,34.768z
			 M37.502,7.893l-0.23-0.23l1.448,0.126L37.502,7.893L37.502,7.893z M36.288,6.681l-0.466-0.463l2.898,0.251L36.288,6.681z"/>
	</g>
</g>
</svg>
