<?xml version="1.0" encoding="utf-8"?>
<!-- Generator: Adobe Illustrator 15.0.0, SVG Export Plug-In . SVG Version: 6.00 Build 0)  -->
<!DOCTYPE svg PUBLIC "-//W3C//DTD SVG 1.1//EN" "http://www.w3.org/Graphics/SVG/1.1/DTD/svg11.dtd">
<svg version="1.1" id="Layer_1" xmlns="http://www.w3.org/2000/svg" xmlns:xlink="http://www.w3.org/1999/xlink" x="0px" y="0px"
	 width="121.739px" height="65.218px" viewBox="0 0 121.739 65.218" enable-background="new 0 0 121.739 65.218"
	 xml:space="preserve">
<g>
	<rect x="12.371" y="5.097" fill-rule="evenodd" clip-rule="evenodd" fill="#231F20" width="99.753" height="52.877"/>
	<g>
		<rect x="13.25" y="5.977" fill-rule="evenodd" clip-rule="evenodd" fill="#00A85D" width="97.994" height="51.12"/>
		<polygon fill-rule="evenodd" clip-rule="evenodd" fill="#009455" points="90.977,57.097 98.919,57.097 96.859,56.918 
			104.464,56.26 96.859,55.601 104.464,54.943 96.859,54.285 104.464,53.628 96.859,52.971 104.464,52.313 96.859,51.654 
			104.464,50.999 96.856,50.337 104.464,49.682 96.859,49.024 104.464,48.367 96.859,47.71 104.464,47.05 96.856,46.393 
			104.464,45.735 96.859,45.078 104.464,44.42 96.859,43.766 104.464,43.104 96.859,42.445 104.464,41.791 96.859,41.131 
			104.464,40.475 96.859,39.814 104.464,39.162 96.859,38.502 104.464,37.842 96.859,37.188 104.464,36.527 96.859,35.872 
			104.464,35.213 96.859,34.555 104.464,33.897 96.859,33.238 104.464,32.58 96.859,31.923 104.464,31.269 96.859,30.608 
			104.464,29.951 96.859,29.293 104.464,28.636 96.859,27.976 104.464,27.321 96.859,26.661 104.464,26.004 96.859,25.347 
			104.464,24.688 96.859,24.03 104.464,23.373 96.859,22.718 104.464,22.061 96.859,21.4 104.464,20.743 96.859,20.086 
			104.464,19.426 96.859,18.769 104.464,18.111 96.859,17.454 104.464,16.797 96.859,16.136 104.464,15.482 96.859,14.822 
			104.464,14.165 96.859,13.507 104.464,12.85 96.859,12.192 104.464,11.535 96.859,10.875 104.464,10.221 96.859,9.561 
			104.464,8.903 96.859,8.246 104.464,7.588 96.859,6.931 104.464,6.273 101.062,5.977 88.833,5.977 85.429,6.273 93.036,6.931 
			85.429,7.588 93.036,8.246 85.429,8.903 93.036,9.561 85.429,10.221 93.036,10.875 85.429,11.535 93.036,12.192 85.429,12.85 
			93.036,13.507 85.429,14.165 93.036,14.822 85.429,15.482 93.036,16.136 85.429,16.797 93.036,17.454 85.429,18.111 
			93.036,18.769 85.429,19.426 93.036,20.086 85.429,20.743 93.036,21.4 85.429,22.061 93.036,22.718 85.429,23.373 93.036,24.03 
			85.429,24.688 93.036,25.347 85.429,26.004 93.036,26.661 85.429,27.321 93.036,27.976 85.429,28.636 93.036,29.293 
			85.429,29.951 93.036,30.608 85.429,31.269 93.036,31.923 85.429,32.58 93.036,33.238 85.429,33.897 93.036,34.555 85.429,35.213 
			93.036,35.872 85.429,36.527 93.036,37.188 85.429,37.842 93.036,38.502 85.429,39.162 93.036,39.814 85.429,40.475 
			93.036,41.131 85.429,41.791 93.036,42.445 85.429,43.104 93.036,43.766 85.429,44.42 93.036,45.078 85.429,45.735 93.036,46.393 
			85.429,47.05 93.036,47.71 85.429,48.367 93.036,49.024 85.429,49.682 93.036,50.337 85.429,50.999 93.036,51.654 85.429,52.313 
			93.036,52.971 85.429,53.628 93.036,54.285 85.429,54.943 93.036,55.601 85.429,56.26 93.036,56.918 		"/>
		<polygon fill-rule="evenodd" clip-rule="evenodd" fill="#009455" points="25.579,57.097 33.518,57.097 31.459,56.918 
			39.066,56.26 31.459,55.601 39.066,54.943 31.459,54.285 39.066,53.628 31.459,52.971 39.066,52.313 31.459,51.654 39.066,50.999 
			31.459,50.337 39.066,49.682 31.459,49.024 39.066,48.367 31.459,47.71 39.066,47.05 31.459,46.393 39.066,45.735 31.459,45.078 
			39.066,44.42 31.459,43.766 39.066,43.104 31.459,42.445 39.066,41.791 31.459,41.131 39.066,40.475 31.459,39.814 39.066,39.162 
			31.459,38.502 39.066,37.842 31.459,37.188 39.066,36.527 31.459,35.872 39.066,35.213 31.459,34.555 39.066,33.897 
			31.459,33.238 39.066,32.58 31.459,31.923 39.066,31.269 31.459,30.608 39.066,29.951 31.459,29.293 39.066,28.636 31.459,27.976 
			39.066,27.321 31.459,26.661 39.066,26.004 31.459,25.347 39.066,24.688 31.459,24.03 39.066,23.373 31.459,22.718 39.066,22.061 
			31.459,21.4 39.066,20.743 31.459,20.086 39.066,19.426 31.459,18.769 39.066,18.111 31.459,17.454 39.066,16.797 31.459,16.136 
			39.066,15.482 31.459,14.822 39.066,14.165 31.459,13.507 39.066,12.85 31.459,12.192 39.066,11.535 31.459,10.875 39.066,10.221 
			31.459,9.561 39.066,8.903 31.459,8.246 39.066,7.588 31.459,6.931 39.066,6.273 35.662,5.977 23.435,5.977 20.031,6.273 
			27.638,6.931 20.031,7.588 27.638,8.246 20.031,8.903 27.638,9.561 20.031,10.221 27.638,10.875 20.031,11.535 27.638,12.192 
			20.031,12.85 27.638,13.507 20.031,14.165 27.638,14.822 20.031,15.482 27.638,16.136 20.031,16.797 27.638,17.454 20.031,18.111 
			27.638,18.769 20.031,19.426 27.638,20.086 20.031,20.743 27.638,21.4 20.031,22.061 27.638,22.718 20.031,23.373 27.638,24.03 
			20.031,24.688 27.638,25.347 20.031,26.004 27.638,26.661 20.031,27.321 27.638,27.976 20.031,28.636 27.638,29.293 
			20.031,29.951 27.638,30.608 20.031,31.269 27.638,31.923 20.031,32.58 27.638,33.238 20.031,33.897 27.638,34.555 20.031,35.213 
			27.638,35.872 20.031,36.527 27.638,37.188 20.031,37.842 27.638,38.502 20.031,39.162 27.638,39.814 20.031,40.475 
			27.638,41.131 20.031,41.791 27.638,42.445 20.031,43.104 27.638,43.766 20.031,44.42 27.638,45.078 20.031,45.735 27.638,46.393 
			20.031,47.05 27.638,47.71 20.031,48.367 27.638,49.024 20.031,49.682 27.638,50.337 20.031,50.999 27.638,51.654 20.031,52.313 
			27.638,52.971 20.031,53.628 27.638,54.285 20.031,54.943 27.638,55.601 20.031,56.26 27.638,56.918 		"/>
		<polygon fill-rule="evenodd" clip-rule="evenodd" fill="#009455" points="58.278,57.097 66.217,57.097 64.158,56.918 
			71.765,56.26 64.158,55.601 71.765,54.943 64.158,54.285 71.765,53.628 64.158,52.971 71.765,52.313 64.158,51.654 71.765,50.999 
			64.158,50.337 71.765,49.682 64.158,49.024 71.765,48.367 64.158,47.71 71.765,47.05 64.158,46.393 71.765,45.735 64.158,45.078 
			71.765,44.42 64.158,43.766 71.765,43.104 64.158,42.445 71.765,41.791 64.158,41.131 71.765,40.475 64.158,39.814 71.765,39.162 
			64.158,38.502 71.765,37.842 64.158,37.188 71.765,36.527 64.158,35.872 71.765,35.213 64.158,34.555 71.765,33.897 
			64.158,33.238 71.765,32.58 64.158,31.923 71.765,31.269 64.158,30.608 71.765,29.951 64.158,29.293 71.765,28.636 64.158,27.976 
			71.765,27.321 64.158,26.661 71.765,26.004 64.158,25.347 71.765,24.688 64.158,24.03 71.765,23.373 64.158,22.718 71.765,22.061 
			64.158,21.4 71.765,20.743 64.158,20.086 71.765,19.426 64.158,18.769 71.765,18.111 64.158,17.454 71.765,16.797 64.158,16.136 
			71.765,15.482 64.158,14.822 71.765,14.165 64.158,13.507 71.765,12.85 64.158,12.192 71.765,11.535 64.158,10.875 71.765,10.221 
			64.158,9.561 71.765,8.903 64.158,8.246 71.765,7.588 64.158,6.931 71.765,6.273 68.36,5.977 56.134,5.977 52.73,6.273 
			60.336,6.931 52.73,7.588 60.336,8.246 52.73,8.903 60.336,9.561 52.73,10.221 60.336,10.875 52.73,11.535 60.336,12.192 
			52.73,12.85 60.336,13.507 52.73,14.165 60.336,14.822 52.73,15.482 60.336,16.136 52.73,16.797 60.336,17.454 52.73,18.111 
			60.336,18.769 52.73,19.426 60.336,20.086 52.73,20.743 60.336,21.4 52.73,22.061 60.336,22.718 52.73,23.373 60.336,24.03 
			52.73,24.688 60.336,25.347 52.73,26.004 60.336,26.661 52.73,27.321 60.336,27.976 52.73,28.636 60.336,29.293 52.73,29.951 
			60.336,30.608 52.73,31.269 60.336,31.923 52.73,32.58 60.336,33.238 52.73,33.897 60.336,34.555 52.73,35.213 60.336,35.872 
			52.73,36.527 60.336,37.188 52.73,37.842 60.336,38.502 52.73,39.162 60.336,39.814 52.73,40.475 60.336,41.131 52.73,41.791 
			60.336,42.445 52.73,43.104 60.336,43.766 52.73,44.42 60.336,45.078 52.73,45.735 60.336,46.393 52.73,47.05 60.336,47.71 
			52.73,48.367 60.336,49.024 52.73,49.682 60.336,50.337 52.73,50.999 60.336,51.654 52.73,52.313 60.336,52.971 52.73,53.628 
			60.336,54.285 52.73,54.943 60.336,55.601 52.73,56.26 60.336,56.918 		"/>
		<polygon fill-rule="evenodd" clip-rule="evenodd" fill="#FFE200" points="62.247,13.206 80.676,22.373 99.103,31.537 
			80.676,40.701 62.247,49.868 43.821,40.701 25.392,31.537 43.821,22.373 		"/>
		<polygon fill-rule="evenodd" clip-rule="evenodd" fill="#F1B212" points="62.247,13.206 65.302,14.725 64.158,14.822 
			65.782,14.965 67.555,15.845 64.158,16.136 68.981,16.556 69.806,16.966 64.158,17.454 71.765,18.111 64.158,18.769 
			71.765,19.426 64.158,20.086 71.765,20.743 64.158,21.4 71.765,22.061 64.158,22.718 71.765,23.373 64.158,24.03 71.765,24.688 
			64.158,25.347 71.765,26.004 64.158,26.661 71.765,27.321 64.158,27.976 71.765,28.636 64.158,29.293 71.765,29.951 
			64.158,30.608 71.765,31.269 64.158,31.923 71.765,32.58 64.158,33.238 71.765,33.897 64.158,34.555 71.765,35.213 64.158,35.872 
			71.765,36.527 64.158,37.188 71.765,37.842 64.158,38.502 71.765,39.162 64.158,39.814 71.765,40.475 64.158,41.131 
			71.765,41.791 64.158,42.445 71.765,43.104 64.158,43.766 71.765,44.42 64.158,45.078 70.733,45.648 70.302,45.863 64.158,46.393 
			68.481,46.768 67.1,47.454 64.158,47.71 66.229,47.889 62.247,49.868 58.265,47.889 60.336,47.71 57.395,47.454 56.014,46.768 
			60.336,46.393 54.193,45.863 53.761,45.648 60.336,45.078 52.73,44.42 60.336,43.766 52.73,43.104 60.336,42.445 52.73,41.791 
			60.336,41.131 52.73,40.475 60.336,39.814 52.73,39.162 60.336,38.502 52.73,37.842 60.336,37.188 52.73,36.527 60.336,35.872 
			52.73,35.213 60.336,34.555 52.73,33.897 60.336,33.238 52.73,32.58 60.336,31.923 52.73,31.269 60.336,30.608 52.73,29.951 
			60.336,29.293 52.73,28.636 60.336,27.976 52.73,27.321 60.336,26.661 52.73,26.004 60.336,25.347 52.73,24.688 60.336,24.03 
			52.73,23.373 60.336,22.718 52.73,22.061 60.336,21.4 52.73,20.743 60.336,20.086 52.73,19.426 60.336,18.769 52.73,18.111 
			60.336,17.454 54.689,16.966 55.513,16.556 60.336,16.136 56.939,15.845 58.712,14.965 60.336,14.822 59.193,14.725 		"/>
		<path fill-rule="evenodd" clip-rule="evenodd" fill="#034EA1" d="M61.817,19.648c6.178,0,11.186,5.021,11.186,11.21
			c0,6.188-5.008,11.208-11.186,11.208c-6.177,0-11.185-5.021-11.185-11.208C50.632,24.669,55.641,19.648,61.817,19.648z"/>
		<path fill-rule="evenodd" clip-rule="evenodd" fill="#FFFFFF" d="M72.433,34.404c-5.775-4.515-12.078-7.543-20.849-8.073
			c0.215-0.491,0.465-0.961,0.747-1.412c6.962-0.205,17.053,4.486,20.493,7.954C72.729,33.396,72.599,33.908,72.433,34.404z"/>
		<polygon fill-rule="evenodd" clip-rule="evenodd" fill="#FFFFFF" points="67.171,27.674 67.307,28.091 67.744,28.091 
			67.391,28.348 67.526,28.765 67.171,28.506 66.817,28.765 66.954,28.348 66.601,28.091 67.038,28.091 		"/>
		<polygon fill-rule="evenodd" clip-rule="evenodd" fill="#FFFFFF" points="65.739,30.803 65.82,31.059 66.089,31.059 
			65.872,31.217 65.956,31.473 65.739,31.314 65.519,31.473 65.603,31.217 65.386,31.059 65.654,31.059 		"/>
		<polygon fill-rule="evenodd" clip-rule="evenodd" fill="#FFFFFF" points="70.972,34.057 71.054,34.314 71.322,34.314 
			71.104,34.474 71.189,34.729 70.972,34.57 70.752,34.729 70.837,34.474 70.618,34.314 70.888,34.314 		"/>
		<polygon fill-rule="evenodd" clip-rule="evenodd" fill="#FFFFFF" points="69.197,34.312 69.281,34.568 69.55,34.568 
			69.332,34.727 69.417,34.982 69.197,34.824 68.981,34.982 69.063,34.727 68.847,34.568 69.114,34.568 		"/>
		<polygon fill-rule="evenodd" clip-rule="evenodd" fill="#FFFFFF" points="69.409,36.172 69.493,36.43 69.762,36.43 69.545,36.588 
			69.627,36.845 69.409,36.686 69.192,36.845 69.276,36.588 69.06,36.43 69.327,36.43 		"/>
		<polygon fill-rule="evenodd" clip-rule="evenodd" fill="#FFFFFF" points="68.271,36.806 68.353,37.064 68.621,37.064 
			68.403,37.221 68.487,37.479 68.271,37.32 68.051,37.479 68.136,37.221 67.918,37.064 68.187,37.064 		"/>
		<polygon fill-rule="evenodd" clip-rule="evenodd" fill="#FFFFFF" points="66.245,36.681 66.327,36.937 66.596,36.937 
			66.378,37.096 66.462,37.351 66.245,37.192 66.025,37.351 66.11,37.096 65.892,36.937 66.161,36.937 		"/>
		<polygon fill-rule="evenodd" clip-rule="evenodd" fill="#FFFFFF" points="63.933,33.295 64.015,33.553 64.283,33.55 
			64.065,33.711 64.147,33.967 63.933,33.809 63.713,33.967 63.798,33.711 63.58,33.55 63.849,33.553 		"/>
		<polygon fill-rule="evenodd" clip-rule="evenodd" fill="#FFFFFF" points="62.749,34.606 62.833,34.864 63.102,34.861 
			62.884,35.021 62.966,35.279 62.749,35.117 62.531,35.279 62.615,35.021 62.398,34.861 62.667,34.864 		"/>
		<polygon fill-rule="evenodd" clip-rule="evenodd" fill="#FFFFFF" points="64.353,36.297 64.437,36.556 64.706,36.553 
			64.487,36.712 64.572,36.969 64.353,36.809 64.135,36.969 64.22,36.712 64.002,36.553 64.271,36.556 		"/>
		<polygon fill-rule="evenodd" clip-rule="evenodd" fill="#FFFFFF" points="59.754,36.129 59.835,36.385 60.106,36.385 
			59.887,36.543 59.971,36.799 59.754,36.639 59.536,36.799 59.621,36.543 59.4,36.385 59.671,36.385 		"/>
		<polygon fill-rule="evenodd" clip-rule="evenodd" fill="#FFFFFF" points="65.112,34.65 65.196,34.905 65.465,34.905 
			65.247,35.064 65.329,35.319 65.112,35.161 64.896,35.319 64.979,35.064 64.762,34.905 65.03,34.905 		"/>
		<polygon fill-rule="evenodd" clip-rule="evenodd" fill="#FFFFFF" points="70.085,35.115 70.169,35.371 70.438,35.371 
			70.22,35.529 70.302,35.785 70.085,35.627 69.866,35.785 69.948,35.529 69.731,35.371 70.003,35.371 		"/>
		<polygon fill-rule="evenodd" clip-rule="evenodd" fill="#FFFFFF" points="67.847,38.668 67.931,38.924 68.199,38.924 
			67.981,39.082 68.066,39.338 67.847,39.18 67.632,39.338 67.714,39.082 67.495,38.924 67.765,38.924 		"/>
		<polygon fill-rule="evenodd" clip-rule="evenodd" fill="#FFFFFF" points="67.384,37.44 67.465,37.699 67.736,37.699 
			67.519,37.857 67.601,38.113 67.384,37.954 67.166,38.113 67.251,37.857 67.03,37.699 67.302,37.699 		"/>
		<polygon fill-rule="evenodd" clip-rule="evenodd" fill="#FFFFFF" points="52.42,26.938 52.502,27.194 52.771,27.194 
			52.553,27.353 52.638,27.61 52.42,27.449 52.203,27.61 52.285,27.353 52.067,27.194 52.336,27.194 		"/>
		<polygon fill-rule="evenodd" clip-rule="evenodd" fill="#FFFFFF" points="57.694,35.649 57.779,35.906 58.047,35.906 
			57.83,36.064 57.912,36.32 57.694,36.162 57.477,36.32 57.561,36.064 57.344,35.906 57.613,35.906 		"/>
		<polygon fill-rule="evenodd" clip-rule="evenodd" fill="#FFFFFF" points="59.72,31.209 59.805,31.465 60.073,31.465 
			59.856,31.624 59.938,31.88 59.72,31.721 59.503,31.88 59.587,31.624 59.37,31.465 59.638,31.465 		"/>
		<polygon fill-rule="evenodd" clip-rule="evenodd" fill="#FFFFFF" points="58.127,34.506 58.208,34.763 58.477,34.763 
			58.26,34.921 58.342,35.176 58.127,35.018 57.907,35.176 57.991,34.921 57.774,34.763 58.042,34.763 		"/>
		<polygon fill-rule="evenodd" clip-rule="evenodd" fill="#FFFFFF" points="65.417,40.215 65.501,40.475 65.77,40.472 65.552,40.63 
			65.637,40.889 65.417,40.727 65.202,40.889 65.284,40.63 65.065,40.472 65.335,40.475 		"/>
		<polygon fill-rule="evenodd" clip-rule="evenodd" fill="#FFFFFF" points="52.292,33.832 52.377,34.088 52.646,34.088 
			52.428,34.246 52.51,34.502 52.292,34.342 52.075,34.502 52.159,34.246 51.941,34.088 52.21,34.088 		"/>
		<polygon fill-rule="evenodd" clip-rule="evenodd" fill="#FFFFFF" points="54.571,32.815 54.653,33.074 54.924,33.071 
			54.705,33.23 54.791,33.488 54.571,33.328 54.354,33.488 54.438,33.23 54.218,33.071 54.49,33.074 		"/>
		<path fill-rule="evenodd" clip-rule="evenodd" fill="#F1B212" d="M38.217,37.916l-0.356-0.177l1.205,0.103L38.217,37.916
			L38.217,37.916z M35.966,36.795l-1.304-0.646l4.404,0.379L35.966,36.795L35.966,36.795z M33.712,35.676l-7.328-3.646l1.254-0.107
			l-1.775-0.153l-0.472-0.232l1.789-0.89l0.458-0.039l-0.322-0.027l5.072-2.522l6.678,0.578l-7.607,0.657l7.607,0.658l-7.607,0.657
			l7.607,0.661l-7.607,0.654l7.607,0.657l-7.607,0.658l7.607,0.659l-7.607,0.657l7.607,0.658L33.712,35.676L33.712,35.676z
			 M32.779,27.864l1.862-0.928l4.425,0.385L32.779,27.864L32.779,27.864z M35.981,26.271l0.913-0.455l2.171,0.189L35.981,26.271z"/>
		<path fill-rule="evenodd" clip-rule="evenodd" fill="#FFFFFF" d="M70.147,32.721c-0.152-0.107-0.309-0.215-0.465-0.319
			l2.082,0.179L70.147,32.721L70.147,32.721z M68.376,31.56c-0.381-0.235-0.766-0.466-1.154-0.686l3.535,0.307l0.22,0.153
			L68.376,31.56L68.376,31.56z M66.394,30.414c-2.91-1.562-6.069-2.742-9.663-3.44l3.606-0.312l-7.606-0.657l5.128-0.442
			c2.346,0.54,4.752,1.379,6.973,2.355l-0.673,0.059l0.994,0.088c0.694,0.312,1.364,0.637,2.009,0.969l-3.003,0.26l4.151,0.358
			c0.307,0.174,0.605,0.345,0.895,0.522L66.394,30.414z"/>
		<path fill-rule="evenodd" clip-rule="evenodd" fill="#FFFFFF" d="M67.171,27.674l0.016,0.041l-0.028,0.003L67.171,27.674
			L67.171,27.674z M67.504,28.265l-0.113,0.083l0.136,0.417l-0.355-0.259l-0.354,0.259l0.137-0.417l-0.202-0.146L67.504,28.265z"/>
		<polygon fill-rule="evenodd" clip-rule="evenodd" fill="#FFFFFF" points="65.739,30.803 65.82,31.059 66.089,31.059 
			65.872,31.217 65.956,31.473 65.739,31.314 65.519,31.473 65.603,31.217 65.386,31.059 65.654,31.059 		"/>
		<polygon fill-rule="evenodd" clip-rule="evenodd" fill="#FFFFFF" points="68.995,34.973 68.981,34.982 68.984,34.973 		"/>
		<polygon fill-rule="evenodd" clip-rule="evenodd" fill="#FFFFFF" points="69.46,36.327 69.491,36.43 69.76,36.43 69.545,36.588 
			69.585,36.717 69.468,36.727 69.409,36.686 69.337,36.736 69.223,36.747 69.276,36.588 69.06,36.43 69.327,36.43 69.36,36.32 		
			"/>
		<polygon fill-rule="evenodd" clip-rule="evenodd" fill="#FFFFFF" points="68.271,36.806 68.276,36.829 68.261,36.831 		"/>
		<path fill-rule="evenodd" clip-rule="evenodd" fill="#FFFFFF" d="M66.245,36.681l0.082,0.256h0.269l-0.06,0.043l-0.521,0.044
			l-0.123-0.087h0.271L66.245,36.681L66.245,36.681z M66.032,37.346l-0.007,0.005l0.003-0.005H66.032z"/>
		<polygon fill-rule="evenodd" clip-rule="evenodd" fill="#FFFFFF" points="63.933,33.295 64.015,33.553 64.283,33.55 
			64.065,33.708 64.147,33.967 63.933,33.809 63.713,33.967 63.798,33.708 63.58,33.55 63.849,33.553 		"/>
		<polygon fill-rule="evenodd" clip-rule="evenodd" fill="#FFFFFF" points="62.749,34.606 62.833,34.864 63.102,34.861 
			62.884,35.021 62.966,35.279 62.749,35.117 62.531,35.279 62.615,35.021 62.398,34.861 62.667,34.864 		"/>
		<polygon fill-rule="evenodd" clip-rule="evenodd" fill="#FFFFFF" points="64.353,36.297 64.437,36.556 64.706,36.553 
			64.487,36.712 64.569,36.969 64.353,36.809 64.135,36.969 64.22,36.712 64.002,36.553 64.271,36.556 		"/>
		<polygon fill-rule="evenodd" clip-rule="evenodd" fill="#FFFFFF" points="59.754,36.129 59.835,36.387 60.106,36.385 
			59.887,36.543 59.971,36.799 59.754,36.639 59.536,36.799 59.621,36.543 59.4,36.385 59.671,36.387 		"/>
		<polygon fill-rule="evenodd" clip-rule="evenodd" fill="#FFFFFF" points="65.112,34.647 65.196,34.905 65.465,34.905 
			65.247,35.064 65.329,35.319 65.112,35.161 64.896,35.319 64.979,35.064 64.762,34.905 65.03,34.905 		"/>
		<path fill-rule="evenodd" clip-rule="evenodd" fill="#FFFFFF" d="M70.085,35.115l0.074,0.234l-0.154,0.014L70.085,35.115
			L70.085,35.115z M69.752,35.387l-0.021-0.016h0.184L69.752,35.387z"/>
		<polygon fill-rule="evenodd" clip-rule="evenodd" fill="#FFFFFF" points="67.897,38.824 67.931,38.924 68.199,38.924 
			67.981,39.082 68.066,39.338 67.847,39.18 67.632,39.338 67.714,39.082 67.495,38.924 67.765,38.924 67.8,38.816 		"/>
		<polygon fill-rule="evenodd" clip-rule="evenodd" fill="#FFFFFF" points="67.391,37.463 67.465,37.699 67.736,37.699 
			67.519,37.857 67.601,38.113 67.384,37.954 67.166,38.113 67.251,37.857 67.03,37.699 67.302,37.699 67.376,37.463 		"/>
		<polygon fill-rule="evenodd" clip-rule="evenodd" fill="#FFFFFF" points="57.835,36.088 57.912,36.32 57.694,36.162 57.477,36.32 
			57.544,36.113 		"/>
		<polygon fill-rule="evenodd" clip-rule="evenodd" fill="#FFFFFF" points="59.72,31.209 59.805,31.465 60.073,31.465 
			59.856,31.624 59.938,31.883 59.72,31.721 59.539,31.854 59.513,31.852 59.587,31.624 59.37,31.465 59.638,31.465 		"/>
		<polygon fill-rule="evenodd" clip-rule="evenodd" fill="#FFFFFF" points="58.201,34.74 58.208,34.763 58.477,34.763 58.26,34.921 
			58.342,35.176 58.127,35.018 57.907,35.176 57.991,34.921 57.789,34.775 57.935,34.763 58.042,34.763 58.045,34.752 		"/>
		<polygon fill-rule="evenodd" clip-rule="evenodd" fill="#FFFFFF" points="65.417,40.215 65.501,40.475 65.77,40.472 65.552,40.63 
			65.637,40.889 65.417,40.727 65.202,40.889 65.284,40.63 65.065,40.472 65.335,40.475 		"/>
		<path fill-rule="evenodd" clip-rule="evenodd" fill="#F1B212" d="M87.603,25.815l0.913,0.455l-3.087-0.266L87.603,25.815
			L87.603,25.815z M89.856,26.936l1.861,0.928l-6.289-0.542L89.856,26.936L89.856,26.936z M92.106,28.056l5.072,2.525l-0.319,0.027
			l0.455,0.039l1.788,0.89l-0.469,0.232l-1.774,0.153l1.251,0.107l-7.328,3.646l-5.354-0.463l7.607-0.658l-7.607-0.657l7.607-0.659
			l-7.607-0.658l7.607-0.657l-7.607-0.654l7.607-0.661l-7.607-0.657l7.607-0.658l-7.607-0.657L92.106,28.056L92.106,28.056z
			 M89.833,36.148l-1.303,0.646l-3.102-0.268L89.833,36.148L89.833,36.148z M86.636,37.739l-0.357,0.177l-0.85-0.074L86.636,37.739z
			"/>
	</g>
</g>
</svg>
