<?xml version="1.0" encoding="utf-8"?>
<!-- Generator: Adobe Illustrator 15.0.0, SVG Export Plug-In . SVG Version: 6.00 Build 0)  -->
<!DOCTYPE svg PUBLIC "-//W3C//DTD SVG 1.1//EN" "http://www.w3.org/Graphics/SVG/1.1/DTD/svg11.dtd">
<svg version="1.1" id="Layer_1" xmlns="http://www.w3.org/2000/svg" xmlns:xlink="http://www.w3.org/1999/xlink" x="0px" y="0px"
	 width="121.739px" height="65.218px" viewBox="0 0 121.739 65.218" enable-background="new 0 0 121.739 65.218"
	 xml:space="preserve">
<g>
	<rect x="12.374" y="4.342" fill-rule="evenodd" clip-rule="evenodd" fill="#231F20" width="99.75" height="52.875"/>
	<g>
		<rect x="78.581" y="5.222" fill-rule="evenodd" clip-rule="evenodd" fill="#0DB04B" width="32.663" height="51.12"/>
		<rect x="45.916" y="5.222" fill-rule="evenodd" clip-rule="evenodd" fill="#FFFFFF" width="32.665" height="51.12"/>
		<rect x="13.253" y="5.222" fill-rule="evenodd" clip-rule="evenodd" fill="#F5871F" width="32.663" height="51.12"/>
		<polygon fill-rule="evenodd" clip-rule="evenodd" fill="#F05F22" points="27.119,56.336 31.979,56.336 39.066,55.723 
			31.459,55.068 39.066,54.408 31.459,53.754 39.066,53.094 31.459,52.438 39.066,51.778 31.459,51.118 39.066,50.464 
			31.459,49.805 39.066,49.149 31.459,48.489 39.066,47.834 31.459,47.174 39.066,46.52 31.459,45.86 39.066,45.205 31.459,44.545 
			39.066,43.885 31.459,43.229 39.066,42.57 31.459,41.91 39.066,41.256 31.459,40.596 39.066,39.94 31.459,39.281 39.066,38.626 
			31.459,37.967 39.066,37.312 31.459,36.652 39.066,35.997 31.459,35.338 39.066,34.678 31.459,34.022 39.066,33.362 
			31.459,32.702 39.066,32.049 31.459,31.394 39.066,30.733 31.459,30.073 39.066,29.419 31.459,28.758 39.066,28.104 
			31.459,27.444 39.066,26.789 31.459,26.129 39.066,25.469 31.459,24.814 39.066,24.154 31.459,23.5 39.066,22.84 31.459,22.18 
			39.066,21.524 31.459,20.871 39.066,20.211 31.459,19.551 39.066,18.896 31.459,18.235 39.066,17.576 31.459,16.921 
			39.066,16.262 31.459,15.606 39.066,14.946 31.459,14.287 39.066,13.633 31.459,12.973 39.066,12.317 31.459,11.657 
			39.066,11.003 31.459,10.343 39.066,9.688 31.459,9.028 39.066,8.368 31.459,7.713 39.066,7.054 31.459,6.399 39.066,5.739 
			33.091,5.222 26.006,5.222 20.031,5.739 27.638,6.399 20.031,7.054 27.638,7.713 20.031,8.368 27.638,9.028 20.031,9.688 
			27.638,10.343 20.031,11.003 27.638,11.657 20.031,12.317 27.638,12.973 20.031,13.633 27.638,14.287 20.031,14.946 
			27.638,15.606 20.031,16.262 27.638,16.921 20.031,17.576 27.638,18.235 20.031,18.896 27.638,19.551 20.031,20.211 
			27.638,20.871 20.031,21.524 27.638,22.18 20.031,22.84 27.638,23.5 20.031,24.154 27.638,24.814 20.031,25.469 27.638,26.129 
			20.031,26.789 27.638,27.444 20.031,28.104 27.638,28.758 20.031,29.419 27.638,30.073 20.031,30.733 27.638,31.394 
			20.031,32.049 27.638,32.702 20.031,33.362 27.638,34.022 20.031,34.678 27.638,35.338 20.031,35.997 27.638,36.652 
			20.031,37.312 27.638,37.967 20.031,38.626 27.638,39.281 20.031,39.94 27.638,40.596 20.031,41.256 27.638,41.91 20.031,42.57 
			27.638,43.229 20.031,43.885 27.638,44.545 20.031,45.205 27.638,45.86 20.031,46.52 27.638,47.174 20.031,47.834 27.638,48.489 
			20.031,49.149 27.638,49.805 20.031,50.464 27.638,51.118 20.031,51.778 27.638,52.438 20.031,53.094 27.638,53.754 
			20.031,54.408 27.638,55.068 20.031,55.723 		"/>
		<polygon fill-rule="evenodd" clip-rule="evenodd" fill="#D8E1E7" points="64.677,56.336 59.82,56.336 52.73,55.723 60.336,55.068 
			52.73,54.408 60.336,53.754 52.73,53.094 60.336,52.438 52.73,51.778 60.336,51.118 52.73,50.464 60.336,49.805 52.73,49.149 
			60.336,48.489 52.73,47.834 60.336,47.174 52.73,46.52 60.336,45.86 52.73,45.205 60.336,44.545 52.73,43.885 60.336,43.229 
			52.73,42.57 60.336,41.91 52.73,41.256 60.336,40.596 52.73,39.94 60.336,39.281 52.73,38.626 60.336,37.967 52.73,37.312 
			60.336,36.652 52.73,35.997 60.336,35.338 52.73,34.678 60.336,34.022 52.73,33.362 60.336,32.702 52.73,32.049 60.336,31.394 
			52.73,30.733 60.336,30.073 52.73,29.419 60.336,28.758 52.73,28.104 60.336,27.444 52.73,26.789 60.336,26.129 52.73,25.469 
			60.336,24.814 52.73,24.154 60.336,23.5 52.73,22.84 60.336,22.18 52.73,21.524 60.336,20.871 52.73,20.211 60.336,19.551 
			52.73,18.896 60.336,18.235 52.73,17.576 60.336,16.921 52.73,16.262 60.336,15.606 52.73,14.946 60.336,14.287 52.73,13.633 
			60.336,12.973 52.73,12.317 60.336,11.657 52.73,11.003 60.336,10.343 52.73,9.688 60.336,9.028 52.73,8.368 60.336,7.713 
			52.73,7.054 60.336,6.399 52.73,5.739 58.707,5.222 65.79,5.222 71.765,5.739 64.161,6.399 71.765,7.054 64.161,7.713 
			71.765,8.368 64.158,9.028 71.765,9.688 64.161,10.343 71.765,11.003 64.161,11.657 71.765,12.317 64.161,12.973 71.765,13.633 
			64.161,14.287 71.765,14.946 64.161,15.606 71.765,16.262 64.161,16.921 71.765,17.576 64.158,18.235 71.765,18.896 
			64.161,19.551 71.765,20.211 64.161,20.871 71.765,21.524 64.161,22.18 71.765,22.84 64.161,23.5 71.765,24.154 64.161,24.814 
			71.765,25.469 64.161,26.129 71.765,26.789 64.161,27.444 71.765,28.104 64.161,28.758 71.765,29.419 64.161,30.073 
			71.765,30.733 64.161,31.394 71.765,32.049 64.161,32.702 71.765,33.362 64.161,34.022 71.765,34.678 64.161,35.338 
			71.765,35.997 64.161,36.652 71.765,37.312 64.161,37.967 71.765,38.626 64.161,39.281 71.765,39.94 64.161,40.596 71.765,41.256 
			64.161,41.91 71.765,42.57 64.161,43.229 71.765,43.885 64.161,44.545 71.765,45.205 64.161,45.86 71.765,46.52 64.161,47.174 
			71.765,47.834 64.161,48.489 71.765,49.149 64.161,49.805 71.765,50.464 64.161,51.118 71.765,51.778 64.161,52.438 
			71.765,53.094 64.161,53.754 71.765,54.408 64.161,55.068 71.765,55.723 		"/>
		<polygon fill-rule="evenodd" clip-rule="evenodd" fill="#00954E" points="92.519,56.336 97.376,56.336 104.464,55.723 
			96.859,55.068 104.464,54.408 96.859,53.754 104.464,53.094 96.859,52.438 104.464,51.778 96.859,51.118 104.464,50.464 
			96.859,49.805 104.464,49.149 96.859,48.489 104.464,47.834 96.859,47.174 104.464,46.52 96.859,45.86 104.464,45.205 
			96.859,44.545 104.464,43.885 96.859,43.229 104.464,42.57 96.859,41.91 104.464,41.256 96.859,40.596 104.464,39.94 
			96.859,39.281 104.464,38.626 96.859,37.967 104.464,37.312 96.859,36.652 104.464,35.997 96.859,35.338 104.464,34.678 
			96.859,34.022 104.464,33.362 96.859,32.702 104.464,32.049 96.859,31.394 104.464,30.733 96.859,30.073 104.464,29.419 
			96.859,28.758 104.464,28.104 96.859,27.444 104.464,26.789 96.859,26.129 104.464,25.469 96.859,24.814 104.464,24.154 
			96.859,23.5 104.464,22.84 96.859,22.18 104.464,21.524 96.859,20.871 104.464,20.211 96.859,19.551 104.464,18.896 
			96.859,18.235 104.464,17.576 96.859,16.921 104.464,16.262 96.859,15.606 104.464,14.946 96.859,14.287 104.464,13.633 
			96.859,12.973 104.464,12.317 96.859,11.657 104.464,11.003 96.859,10.343 104.464,9.688 96.859,9.028 104.464,8.368 
			96.859,7.713 104.464,7.054 96.859,6.399 104.464,5.739 98.489,5.222 91.406,5.222 85.429,5.739 93.036,6.399 85.431,7.054 
			93.036,7.713 85.429,8.368 93.036,9.028 85.429,9.688 93.036,10.343 85.429,11.003 93.036,11.657 85.429,12.317 93.036,12.973 
			85.429,13.633 93.036,14.287 85.429,14.946 93.036,15.606 85.429,16.262 93.036,16.921 85.429,17.576 93.036,18.235 
			85.429,18.896 93.036,19.551 85.429,20.211 93.036,20.871 85.429,21.524 93.036,22.18 85.429,22.84 93.036,23.5 85.429,24.154 
			93.036,24.814 85.429,25.469 93.036,26.129 85.429,26.789 93.036,27.444 85.429,28.104 93.036,28.758 85.429,29.419 
			93.036,30.073 85.429,30.733 93.036,31.394 85.429,32.049 93.036,32.702 85.429,33.362 93.036,34.022 85.429,34.678 
			93.036,35.338 85.429,35.997 93.036,36.652 85.429,37.312 93.036,37.967 85.429,38.626 93.036,39.281 85.429,39.94 93.036,40.596 
			85.429,41.256 93.036,41.91 85.429,42.57 93.036,43.229 85.429,43.885 93.036,44.545 85.429,45.205 93.036,45.86 85.429,46.52 
			93.036,47.174 85.429,47.834 93.036,48.489 85.429,49.149 93.036,49.805 85.429,50.464 93.036,51.118 85.429,51.778 
			93.036,52.438 85.429,53.094 93.036,53.754 85.429,54.408 93.036,55.068 85.429,55.723 		"/>
	</g>
</g>
</svg>
