<?xml version="1.0" encoding="utf-8"?>
<!-- Generator: Adobe Illustrator 15.0.0, SVG Export Plug-In . SVG Version: 6.00 Build 0)  -->
<!DOCTYPE svg PUBLIC "-//W3C//DTD SVG 1.1//EN" "http://www.w3.org/Graphics/SVG/1.1/DTD/svg11.dtd">
<svg version="1.1" id="Layer_1" xmlns="http://www.w3.org/2000/svg" xmlns:xlink="http://www.w3.org/1999/xlink" x="0px" y="0px"
	 width="121.739px" height="65.218px" viewBox="0 0 121.739 65.218" enable-background="new 0 0 121.739 65.218"
	 xml:space="preserve">
<g>
	<rect x="12.371" y="5.11" fill-rule="evenodd" clip-rule="evenodd" fill="#231F20" width="99.753" height="52.875"/>
	<g>
		<rect x="13.25" y="5.991" fill-rule="evenodd" clip-rule="evenodd" fill="#00AE62" width="32.666" height="51.117"/>
		<rect x="45.916" y="5.991" fill-rule="evenodd" clip-rule="evenodd" fill="#EC1C24" width="32.663" height="51.117"/>
		<rect x="78.579" y="5.991" fill-rule="evenodd" clip-rule="evenodd" fill="#FFF100" width="32.665" height="51.117"/>
		<polygon fill-rule="evenodd" clip-rule="evenodd" fill="#008E4B" points="35.406,57.107 23.691,57.107 20.031,56.793 
			27.638,56.136 20.031,55.478 27.638,54.818 20.031,54.161 27.638,53.504 20.031,52.846 27.638,52.186 20.031,51.532 
			27.638,50.874 20.031,50.214 27.638,49.558 20.031,48.899 27.638,48.24 20.031,47.585 27.638,46.929 20.031,46.27 27.638,45.609 
			20.031,44.953 27.638,44.296 20.031,43.639 27.638,42.981 20.031,42.321 27.638,41.664 20.031,41.006 27.638,40.35 20.031,39.689 
			27.638,39.032 20.031,38.377 27.638,37.717 20.031,37.061 27.638,36.402 20.031,35.745 27.638,35.088 20.031,34.43 27.638,33.772 
			20.031,33.113 27.638,32.456 20.031,31.798 27.638,31.141 20.031,30.483 27.638,29.824 20.031,29.169 27.638,28.512 
			20.031,27.852 27.638,27.194 20.031,26.537 27.638,25.881 20.031,25.223 27.638,24.562 20.031,23.905 27.638,23.25 20.031,22.591 
			27.638,21.933 20.031,21.276 27.638,20.616 20.031,19.961 27.638,19.302 20.031,18.645 27.638,17.986 20.031,17.329 26.937,16.73 
			20.031,16.033 20.139,16.022 20.031,16.012 27.53,15.364 20.031,14.718 20.139,14.707 20.031,14.697 26.94,13.998 20.031,13.401 
			27.638,12.743 20.031,12.089 27.638,11.429 20.031,10.771 27.638,10.111 20.031,9.454 27.638,8.797 20.031,8.139 27.638,7.481 
			20.031,6.825 27.638,6.165 25.604,5.991 33.508,5.991 31.459,6.167 39.066,6.825 31.459,7.481 39.066,8.139 31.459,8.799 
			39.066,9.454 31.459,10.111 39.066,10.771 31.459,11.429 39.066,12.089 31.459,12.743 39.066,13.401 32.158,13.998 39.066,14.697 
			38.958,14.707 39.066,14.718 31.567,15.364 39.066,16.012 38.958,16.022 39.066,16.033 32.16,16.73 39.066,17.329 31.459,17.986 
			39.066,18.645 31.459,19.302 39.066,19.961 31.459,20.616 39.066,21.276 31.459,21.933 39.066,22.591 31.459,23.25 39.066,23.905 
			31.459,24.562 39.066,25.223 31.459,25.881 39.066,26.537 31.459,27.194 39.066,27.852 31.459,28.512 39.066,29.169 
			31.459,29.824 39.066,30.483 31.459,31.141 39.066,31.798 31.459,32.456 39.066,33.113 31.459,33.772 39.066,34.43 31.459,35.088 
			39.066,35.745 31.459,36.402 39.066,37.061 31.459,37.717 39.066,38.377 31.459,39.032 39.066,39.689 31.459,40.35 39.066,41.006 
			31.459,41.664 39.066,42.324 31.459,42.981 39.066,43.639 31.459,44.296 39.066,44.953 31.459,45.609 39.066,46.27 31.459,46.929 
			39.066,47.585 31.459,48.24 39.066,48.899 31.459,49.558 39.066,50.214 31.459,50.874 39.066,51.532 31.459,52.186 39.066,52.846 
			31.459,53.504 39.066,54.161 31.459,54.818 39.066,55.478 31.459,56.136 39.066,56.793 		"/>
		<polygon fill-rule="evenodd" clip-rule="evenodd" fill="#C2151C" points="56.39,57.107 68.104,57.107 71.765,56.793 
			64.158,56.136 71.765,55.478 64.158,54.818 71.765,54.161 64.158,53.504 71.765,52.846 64.158,52.186 71.765,51.532 
			64.158,50.874 71.765,50.214 64.158,49.558 71.765,48.899 64.158,48.24 71.765,47.585 64.158,46.929 71.765,46.27 64.158,45.609 
			71.765,44.953 64.158,44.296 71.765,43.639 64.158,42.981 71.765,42.324 64.158,41.664 71.765,41.006 64.158,40.35 71.765,39.689 
			64.158,39.032 71.765,38.377 64.158,37.717 71.765,37.061 64.158,36.402 71.765,35.745 64.158,35.088 71.765,34.43 64.158,33.772 
			71.765,33.113 64.158,32.456 71.765,31.798 64.158,31.141 71.765,30.483 64.158,29.824 71.765,29.169 64.158,28.512 
			71.765,27.852 64.158,27.194 71.765,26.537 64.158,25.881 71.765,25.223 64.158,24.562 71.765,23.905 64.158,23.25 71.765,22.591 
			64.158,21.933 71.765,21.276 64.158,20.616 71.765,19.961 64.158,19.302 71.765,18.645 64.158,17.986 71.765,17.329 64.858,16.73 
			71.765,16.033 71.657,16.022 71.765,16.012 64.268,15.364 71.765,14.718 71.657,14.707 71.765,14.697 64.856,13.998 
			71.765,13.401 64.158,12.743 71.765,12.089 64.158,11.429 71.765,10.771 64.158,10.111 71.765,9.454 64.158,8.799 71.765,8.139 
			64.158,7.481 71.765,6.825 64.158,6.167 66.206,5.991 58.303,5.991 60.336,6.165 52.73,6.825 60.336,7.481 52.73,8.139 
			60.336,8.797 52.73,9.454 60.336,10.111 52.73,10.771 60.336,11.429 52.73,12.089 60.336,12.743 52.73,13.401 59.638,13.998 
			52.73,14.697 52.837,14.707 52.73,14.718 60.229,15.364 52.73,16.012 52.837,16.022 52.73,16.033 59.638,16.73 52.73,17.329 
			60.336,17.986 52.73,18.645 60.336,19.302 52.73,19.961 60.336,20.616 52.73,21.276 60.336,21.933 52.73,22.591 60.336,23.25 
			52.73,23.905 60.336,24.562 52.73,25.223 60.336,25.881 52.73,26.537 60.336,27.194 52.73,27.852 60.336,28.512 52.73,29.169 
			60.336,29.824 52.73,30.483 60.336,31.141 52.73,31.798 60.336,32.456 52.73,33.113 60.336,33.772 52.73,34.43 60.336,35.088 
			52.73,35.745 60.336,36.402 52.73,37.061 60.336,37.717 52.73,38.377 60.336,39.032 52.73,39.689 60.336,40.35 52.73,41.006 
			60.336,41.664 52.73,42.321 60.336,42.981 52.73,43.639 60.336,44.296 52.73,44.953 60.336,45.609 52.73,46.27 60.336,46.929 
			52.73,47.585 60.336,48.24 52.73,48.899 60.336,49.558 52.73,50.214 60.336,50.874 52.73,51.532 60.336,52.186 52.73,52.846 
			60.336,53.504 52.73,54.161 60.336,54.818 52.73,55.478 60.336,56.136 52.73,56.793 		"/>
		<polygon fill-rule="evenodd" clip-rule="evenodd" fill="#FFDE00" points="100.804,57.107 89.091,57.107 85.429,56.793 
			93.036,56.136 85.429,55.478 93.036,54.818 85.429,54.161 93.036,53.504 85.429,52.846 93.036,52.186 85.429,51.532 
			93.036,50.874 85.429,50.214 93.036,49.558 85.429,48.899 93.036,48.24 85.429,47.585 93.036,46.929 85.429,46.27 93.036,45.609 
			85.429,44.953 93.036,44.296 85.429,43.639 93.036,42.981 85.429,42.321 93.036,41.664 85.429,41.006 93.036,40.35 85.429,39.689 
			93.036,39.032 85.429,38.377 93.036,37.717 85.429,37.061 93.036,36.402 85.429,35.745 93.036,35.088 85.429,34.43 93.036,33.772 
			85.429,33.113 93.036,32.456 85.429,31.798 93.036,31.141 85.429,30.483 93.036,29.824 85.429,29.169 93.036,28.512 
			85.429,27.852 93.036,27.194 85.429,26.537 93.036,25.881 85.429,25.223 93.036,24.562 85.429,23.905 93.036,23.25 85.429,22.591 
			93.036,21.933 85.429,21.276 93.036,20.616 85.429,19.961 93.036,19.302 85.429,18.645 93.036,17.986 85.429,17.329 92.337,16.73 
			85.429,16.033 85.536,16.022 85.429,16.012 92.928,15.364 85.429,14.718 85.536,14.707 85.429,14.697 92.337,13.998 
			85.429,13.401 93.036,12.743 85.429,12.089 93.036,11.429 85.429,10.771 93.036,10.111 85.429,9.454 93.036,8.797 85.429,8.139 
			93.036,7.481 85.429,6.825 93.036,6.165 91.002,5.991 98.905,5.991 96.856,6.167 104.464,6.825 96.859,7.481 104.464,8.139 
			96.859,8.799 104.464,9.454 96.859,10.111 104.464,10.771 96.859,11.429 104.464,12.089 96.859,12.743 104.464,13.401 
			97.555,13.998 104.464,14.697 104.356,14.707 104.464,14.718 96.964,15.364 104.464,16.012 104.356,16.022 104.464,16.033 
			97.558,16.73 104.464,17.329 96.859,17.986 104.464,18.645 96.856,19.302 104.464,19.961 96.859,20.616 104.464,21.276 
			96.859,21.933 104.464,22.591 96.856,23.25 104.464,23.905 96.859,24.562 104.464,25.223 96.859,25.881 104.464,26.537 
			96.859,27.194 104.464,27.852 96.856,28.512 104.464,29.169 96.859,29.824 104.464,30.483 96.859,31.141 104.464,31.798 
			96.859,32.456 104.464,33.113 96.859,33.772 104.464,34.43 96.859,35.088 104.464,35.745 96.859,36.402 104.464,37.061 
			96.859,37.717 104.464,38.377 96.859,39.032 104.464,39.689 96.859,40.35 104.464,41.006 96.859,41.664 104.464,42.324 
			96.859,42.981 104.464,43.639 96.859,44.296 104.464,44.953 96.859,45.609 104.464,46.27 96.859,46.929 104.464,47.585 
			96.859,48.24 104.464,48.899 96.859,49.558 104.464,50.214 96.859,50.874 104.464,51.532 96.859,52.186 104.464,52.846 
			96.859,53.504 104.464,54.161 96.859,54.818 104.464,55.478 96.859,56.136 104.464,56.793 		"/>
		<path fill-rule="evenodd" clip-rule="evenodd" fill="#FFDE00" d="M62.309,25.491l1.479,4.578l4.812-0.01
			c0.027,0,0.051,0.018,0.061,0.042c0.008,0.029-0.002,0.057-0.025,0.075l-3.896,2.819l1.494,4.572c0.011,0.026,0,0.054-0.023,0.072
			c-0.022,0.016-0.054,0.016-0.077,0l-3.885-2.834l-3.885,2.834c-0.023,0.016-0.054,0.016-0.076,0
			c-0.023-0.019-0.031-0.046-0.023-0.072l1.494-4.572l-3.896-2.819c-0.022-0.019-0.033-0.046-0.022-0.075
			c0.007-0.024,0.033-0.042,0.061-0.042l4.811,0.01l1.476-4.578c0.008-0.028,0.033-0.047,0.062-0.047S62.301,25.463,62.309,25.491z"
			/>
	</g>
</g>
</svg>
