<?xml version="1.0" encoding="utf-8"?>
<!-- Generator: Adobe Illustrator 15.0.0, SVG Export Plug-In . SVG Version: 6.00 Build 0)  -->
<!DOCTYPE svg PUBLIC "-//W3C//DTD SVG 1.1//EN" "http://www.w3.org/Graphics/SVG/1.1/DTD/svg11.dtd">
<svg version="1.1" id="Layer_1" xmlns="http://www.w3.org/2000/svg" xmlns:xlink="http://www.w3.org/1999/xlink" x="0px" y="0px"
	 width="121.739px" height="65.218px" viewBox="0 0 121.739 65.218" enable-background="new 0 0 121.739 65.218"
	 xml:space="preserve">
<g>
	<rect x="12.371" y="4.437" fill-rule="evenodd" clip-rule="evenodd" fill="#231F20" width="99.753" height="52.874"/>
	<g>
		<rect x="13.25" y="22.354" fill-rule="evenodd" clip-rule="evenodd" fill="#FFFFFF" width="97.994" height="17.038"/>
		<path fill-rule="evenodd" clip-rule="evenodd" fill="#D8E1E7" d="M27.612,39.392h3.873l7.581-0.655l-7.607-0.662l7.607-0.657
			l-7.607-0.659l7.607-0.658l-7.607-0.66l7.607-0.657l-7.607-0.66l7.607-0.659l-7.607-0.66l7.607-0.66l-7.607-0.658l7.607-0.66
			l-7.607-0.658l7.607-0.66l-7.607-0.66l7.607-0.659l-7.607-0.658l7.607-0.66l-7.607-0.66l7.607-0.66l-7.607-0.657l7.607-0.66
			l-7.607-0.66l7.607-0.66l-6.479-0.561H26.51l-6.479,0.561l7.607,0.66l-7.607,0.66l7.607,0.66l-7.607,0.657l7.607,0.66l-7.607,0.66
			l7.607,0.66l-7.607,0.658l7.607,0.659l-7.607,0.66l7.607,0.66l-7.607,0.658l7.607,0.66l-7.607,0.658l7.607,0.66l-7.607,0.66
			l7.607,0.659l-7.607,0.66l7.607,0.657l-7.607,0.66l7.607,0.658l-7.607,0.659l7.607,0.657l-7.607,0.662L27.612,39.392
			L27.612,39.392z M60.311,39.392h3.873l7.581-0.655l-7.606-0.662l7.606-0.657l-7.606-0.659l7.606-0.658l-7.606-0.66l7.606-0.657
			l-7.606-0.66l7.606-0.659l-7.606-0.66l7.606-0.66l-7.606-0.658l7.606-0.66l-7.606-0.658l7.606-0.66l-7.606-0.66l7.606-0.659
			l-7.606-0.658l7.606-0.66l-7.606-0.66l7.606-0.66l-7.606-0.657l7.606-0.66l-7.606-0.66l7.606-0.66l-6.479-0.561h-6.078
			l-6.479,0.561l7.606,0.66l-7.606,0.66l7.606,0.66l-7.606,0.657l7.606,0.66l-7.606,0.66l7.606,0.66l-7.606,0.658l7.606,0.659
			l-7.606,0.66l7.606,0.66l-7.606,0.658l7.606,0.66l-7.606,0.658l7.606,0.66l-7.606,0.66l7.606,0.659l-7.606,0.66l7.606,0.657
			L52.73,36.1l7.606,0.658l-7.606,0.659l7.606,0.657l-7.606,0.662L60.311,39.392L60.311,39.392z M93.009,39.392h3.876l7.579-0.655
			l-7.604-0.662l7.604-0.657l-7.604-0.659l7.604-0.658l-7.604-0.66l7.604-0.657l-7.604-0.66l7.604-0.659l-7.604-0.66l7.604-0.66
			l-7.604-0.658l7.604-0.66l-7.604-0.658l7.604-0.66l-7.604-0.66l7.604-0.659l-7.604-0.658l7.604-0.66l-7.604-0.66l7.604-0.66
			l-7.604-0.657l7.604-0.66l-7.604-0.66l7.604-0.66l-6.479-0.561H91.91l-6.481,0.561l7.607,0.66l-7.607,0.66l7.607,0.66
			l-7.607,0.657l7.607,0.66l-7.607,0.66l7.607,0.66l-7.607,0.658l7.607,0.659l-7.607,0.66l7.607,0.66l-7.607,0.658l7.607,0.66
			l-7.607,0.658l7.607,0.66l-7.607,0.66l7.607,0.659l-7.607,0.66l7.607,0.657l-7.607,0.66l7.607,0.658l-7.607,0.659l7.607,0.657
			l-7.607,0.662L93.009,39.392z"/>
		<rect x="13.25" y="5.314" fill-rule="evenodd" clip-rule="evenodd" fill="#EC1C24" width="97.994" height="17.039"/>
		<rect x="13.25" y="39.392" fill-rule="evenodd" clip-rule="evenodd" fill="#034EA1" width="97.994" height="17.04"/>
		<path fill-rule="evenodd" clip-rule="evenodd" fill="#C3161C" d="M59.208,22.354l1.128-0.097l-7.606-0.66l7.606-0.658
			l-7.606-0.662l7.606-0.657l-7.606-0.66l7.606-0.66l-7.606-0.66l7.606-0.657l-7.606-0.66l7.606-0.658L52.73,15l7.606-0.655
			l-7.606-0.66l7.606-0.658l-7.606-0.66l7.606-0.66l-7.606-0.657l7.606-0.662L52.73,9.731l7.606-0.66l-7.606-0.66l7.606-0.655
			L52.73,7.092l7.606-0.658l-7.606-0.66l5.312-0.46h8.413l5.31,0.46l-7.606,0.66l7.606,0.658l-7.606,0.665l7.606,0.655l-7.606,0.66
			l7.606,0.66l-7.606,0.657l7.606,0.662l-7.606,0.657l7.606,0.66l-7.606,0.66l7.606,0.658l-7.606,0.66L71.765,15l-7.606,0.665
			l7.606,0.658l-7.606,0.66l7.606,0.657l-7.606,0.66l7.606,0.66l-7.606,0.66l7.606,0.657l-7.606,0.662l7.606,0.658l-7.606,0.66
			l1.128,0.097H59.208L59.208,22.354z M97.984,22.354l-1.125-0.097l7.604-0.66l-7.604-0.658l7.604-0.662l-7.604-0.657l7.604-0.66
			l-7.607-0.66l7.607-0.66l-7.604-0.657l7.604-0.66l-7.604-0.658L104.464,15l-7.604-0.655l7.604-0.66l-7.604-0.658l7.604-0.66
			l-7.604-0.66l7.604-0.657l-7.604-0.662l7.604-0.657l-7.607-0.66l7.607-0.66l-7.604-0.655l7.604-0.665l-7.604-0.658l7.604-0.66
			l-5.311-0.46h-8.412l-5.312,0.46l7.607,0.66l-7.607,0.658l7.607,0.665l-7.607,0.655l7.607,0.66l-7.607,0.66l7.607,0.657
			l-7.607,0.662l7.607,0.657l-7.607,0.66l7.607,0.66l-7.607,0.658l7.607,0.66L85.429,15l7.607,0.665l-7.607,0.658l7.607,0.66
			l-7.607,0.657l7.607,0.66l-7.607,0.66l7.607,0.66l-7.607,0.657l7.607,0.662l-7.607,0.658l7.607,0.66l-1.126,0.097H97.984
			L97.984,22.354z M32.587,22.354l-1.128-0.097l7.607-0.66l-7.607-0.658l7.607-0.662l-7.607-0.657l7.607-0.66l-7.607-0.66
			l7.607-0.66l-7.607-0.657l7.607-0.66l-7.607-0.658L39.066,15l-7.607-0.655l7.607-0.66l-7.607-0.658l7.607-0.66l-7.607-0.66
			l7.607-0.657l-7.607-0.662l7.607-0.657l-7.607-0.66l7.607-0.66l-7.607-0.655l7.607-0.665l-7.607-0.658l7.607-0.66l-5.31-0.46
			h-8.415l-5.31,0.46l7.607,0.66l-7.607,0.658l7.607,0.665l-7.607,0.655l7.607,0.66l-7.607,0.66l7.607,0.657l-7.607,0.662
			l7.607,0.657l-7.607,0.66l7.607,0.66l-7.607,0.658l7.607,0.66L20.031,15l7.607,0.665l-7.607,0.658l7.607,0.66l-7.607,0.657
			l7.607,0.66l-7.607,0.66l7.607,0.66l-7.607,0.657l7.607,0.662l-7.607,0.658l7.607,0.66l-1.128,0.097H32.587z"/>
		<path fill-rule="evenodd" clip-rule="evenodd" fill="#003375" d="M93.009,39.392h3.876l-0.025,0.005l7.604,0.66l-7.604,0.657
			l7.604,0.657l-7.604,0.66l7.604,0.659l-7.604,0.661l7.604,0.659l-7.604,0.66l7.604,0.657l-7.604,0.66l7.604,0.659l-7.604,0.657
			l7.604,0.66l-7.604,0.657l7.604,0.663l-7.604,0.656l7.604,0.66l-7.604,0.658l7.604,0.66l-7.604,0.659l7.604,0.657l-7.604,0.662
			l7.604,0.658l-7.604,0.66l7.604,0.657l-6.426,0.558h-6.185l-6.425-0.558l7.607-0.657l-7.607-0.66l7.607-0.658l-7.607-0.662
			l7.607-0.657l-7.607-0.657l7.607-0.662l-7.607-0.658l7.607-0.66l-7.607-0.656l7.607-0.663l-7.607-0.657l7.607-0.66l-7.607-0.657
			l7.607-0.659l-7.607-0.66l7.607-0.66l-7.607-0.657l7.607-0.659l-7.607-0.661l7.607-0.659l-7.607-0.66l7.607-0.657l-7.607-0.657
			l7.607-0.66L93.009,39.392L93.009,39.392z M27.612,39.392h3.873l-0.026,0.005l7.607,0.66l-7.607,0.657l7.607,0.657l-7.607,0.66
			l7.607,0.659l-7.607,0.661l7.607,0.659l-7.607,0.66l7.607,0.657l-7.607,0.66l7.607,0.659l-7.607,0.657l7.607,0.66l-7.607,0.657
			l7.607,0.663l-7.607,0.656l7.607,0.66l-7.607,0.658l7.607,0.66l-7.607,0.659l7.607,0.657l-7.607,0.662l7.607,0.658l-7.607,0.66
			l7.607,0.657l-6.425,0.558h-6.185l-6.425-0.558l7.607-0.657l-7.607-0.66l7.607-0.658l-7.607-0.662l7.607-0.657l-7.607-0.657
			l7.607-0.662l-7.607-0.658l7.607-0.66l-7.607-0.656l7.607-0.663l-7.607-0.657l7.607-0.66l-7.607-0.657l7.607-0.659l-7.607-0.66
			l7.607-0.66l-7.607-0.657l7.607-0.659l-7.607-0.661l7.607-0.659l-7.607-0.66l7.607-0.657l-7.607-0.657l7.607-0.66L27.612,39.392
			L27.612,39.392z M60.311,39.392h3.873l-0.025,0.005l7.606,0.66l-7.606,0.657l7.606,0.657l-7.606,0.66l7.606,0.659l-7.606,0.661
			l7.606,0.659l-7.606,0.66l7.606,0.657l-7.606,0.66l7.606,0.659l-7.606,0.657l7.606,0.66l-7.606,0.657l7.606,0.663l-7.606,0.656
			l7.606,0.66l-7.606,0.658l7.606,0.66l-7.606,0.659l7.606,0.657l-7.606,0.662l7.606,0.658l-7.606,0.66l7.606,0.657l-6.425,0.558
			h-6.185l-6.425-0.558l7.606-0.657l-7.606-0.66l7.606-0.658l-7.606-0.662l7.606-0.657l-7.606-0.657l7.606-0.662l-7.606-0.658
			l7.606-0.66l-7.606-0.656l7.606-0.663l-7.606-0.657l7.606-0.66l-7.606-0.657l7.606-0.659l-7.606-0.66l7.606-0.66l-7.606-0.657
			l7.606-0.659L52.73,42.69l7.606-0.659l-7.606-0.66l7.606-0.657l-7.606-0.657l7.606-0.66L60.311,39.392z"/>
		<path fill-rule="evenodd" clip-rule="evenodd" fill="#FFFFFF" d="M53.073,24.042h9.174h9.175v11.952
			c-0.852,4.661-5.532,7.311-9.175,7.295c-3.642,0.016-8.323-2.634-9.174-7.295V24.042z"/>
		<path fill-rule="evenodd" clip-rule="evenodd" fill="#EC1C24" d="M53.073,23.871h9.174h9.175h0.169v0.171v11.952v0.014
			l-0.002,0.018c-0.402,2.197-1.635,3.957-3.211,5.21c-1.834,1.455-4.135,2.233-6.128,2.223h-0.003l0,0
			c-1.997,0.011-4.297-0.768-6.131-2.223c-1.575-1.253-2.809-3.013-3.21-5.21l-0.002-0.018v-0.014V24.042v-0.171H53.073
			L53.073,23.871z M56.779,24.214v3.608h-3.535v3.666h3.535v3.642h-3.535v0.853c0.192,1.037,0.578,1.972,1.102,2.801h2.433v2.521
			c0.649,0.457,1.348,0.834,2.064,1.12h1.578v0.491c0.622,0.138,1.238,0.205,1.826,0.205h0.003c0.583,0,1.196-0.067,1.815-0.205
			v-0.491h1.586c0.716-0.286,1.414-0.665,2.066-1.123v-2.519h2.43c0.525-0.829,0.911-1.766,1.104-2.805V35.13h-3.533v-3.642h3.533
			v-3.666h-3.533v-3.608h-3.652v3.608h-3.642v-3.608H56.779L56.779,24.214z M60.423,38.783v3.642h3.642v-3.642H60.423L60.423,38.783
			z M64.065,35.13v3.643h3.646V35.13H64.065L64.065,35.13z M56.779,35.13v3.643h3.642V35.13H56.779L56.779,35.13z M60.423,31.488
			v3.642h3.642v-3.642H60.423L60.423,31.488z M64.065,27.825v3.642h3.646v-3.642H64.065L64.065,27.825z M56.779,27.825v3.642h3.642
			v-3.642H56.779z"/>
		<path fill="#FFFFFF" d="M62.293,14.297l2.479,1.54l2.924-0.931l0.049-0.016l0.036,0.036l2.141,2.064l3.215-0.205l0.057-0.002
			l0.025,0.046l1.322,2.376l0.025,0.044l-0.028,0.043l-1.647,2.596l-0.104,0.161l-0.599,0.943l-0.105,0.164l-0.434,0.688
			l-0.057,0.087l-0.074-0.072c-0.361-0.33-0.852-0.639-1.45-0.916c-0.608-0.276-1.333-0.524-2.141-0.729
			c-0.581-0.146-1.204-0.271-1.865-0.371c-0.649-0.097-1.332-0.171-2.036-0.217c-0.291-0.018-0.582-0.033-0.877-0.041l0,0
			c-0.286-0.008-0.588-0.013-0.897-0.013c-0.315,0-0.617,0.005-0.906,0.013c-0.291,0.01-0.583,0.022-0.872,0.041
			c-0.703,0.046-1.386,0.121-2.033,0.217c-0.663,0.1-1.287,0.225-1.862,0.371c-0.813,0.205-1.535,0.453-2.144,0.729
			c-0.604,0.277-1.095,0.586-1.453,0.916l-0.076,0.072l-0.057-0.087l-2.89-4.552l-0.025-0.043l0.025-0.044l1.322-2.376l0.025-0.046
			l0.054,0.002l3.215,0.205l2.141-2.064l0.036-0.036l0.052,0.016l2.923,0.931l2.478-1.54l0.046-0.028L62.293,14.297z"/>
		<path fill-rule="evenodd" clip-rule="evenodd" fill="#00AFC6" d="M50.031,19.246l1.322-2.376l3.346,0.212l1.854,5.049
			c-1.622,0.41-2.898,0.988-3.632,1.668L50.031,19.246z"/>
		<path fill-rule="evenodd" clip-rule="evenodd" fill="#034EA1" d="M54.6,17.083l2.176-2.095l2.962,0.941l0.729,5.614
			c-1.435,0.095-2.765,0.299-3.916,0.591L54.6,17.083z"/>
		<path fill-rule="evenodd" clip-rule="evenodd" fill="#EC1C24" d="M60.153,19.134l0.199,1.519c-0.665-0.056-1.432,0.016-2.228,0.22
			c-0.67,0.174-1.276,0.424-1.783,0.719l-0.558-1.443c0.535-0.334,1.2-0.621,1.941-0.816C58.603,19.105,59.446,19.047,60.153,19.134
			z"/>
		<path fill-rule="evenodd" clip-rule="evenodd" fill="#EC1C24" d="M59.84,16.724l0.197,1.509c-0.706-0.087-1.552-0.028-2.43,0.199
			c-0.829,0.215-1.56,0.548-2.125,0.937l-0.55-1.427c0.582-0.435,1.371-0.814,2.277-1.049C58.173,16.642,59.099,16.599,59.84,16.724
			z"/>
		<path fill-rule="evenodd" clip-rule="evenodd" fill="#00AFC6" d="M59.738,15.929l2.512-1.558l2.509,1.558l-0.729,5.614
			c-0.578-0.039-1.172-0.056-1.78-0.056c-0.609,0-1.205,0.02-1.783,0.056L59.738,15.929z"/>
		<path fill-rule="evenodd" clip-rule="evenodd" fill="#00AFC6" d="M74.466,19.246l-1.322-2.376l-3.349,0.212l-1.854,5.049
			c1.625,0.41,2.901,0.988,3.635,1.668L74.466,19.246z"/>
		<polygon fill-rule="evenodd" clip-rule="evenodd" fill="#FFFFFF" points="68.757,19.911 68.24,21.318 72.011,23.111 
			72.819,21.842 		"/>
		<polygon fill-rule="evenodd" clip-rule="evenodd" fill="#EC1C24" points="68.69,20.093 68.308,21.139 72.115,22.947 
			72.714,22.006 		"/>
		<path fill-rule="evenodd" clip-rule="evenodd" fill="#034EA1" d="M69.895,17.083l-2.174-2.095l-2.962,0.941l-0.729,5.614
			c1.435,0.095,2.762,0.299,3.916,0.591L69.895,17.083z"/>
		<polygon fill-rule="evenodd" clip-rule="evenodd" fill="#FFCA05" points="52.108,17.868 52.582,18.43 53.195,17.993 
			52.924,18.684 53.607,18.98 52.865,19.111 52.935,19.84 52.461,19.279 51.847,19.717 52.116,19.024 51.436,18.729 52.177,18.599 
					"/>
		<path fill-rule="evenodd" clip-rule="evenodd" fill="#FFFFFF" d="M54.597,20.014c0.095,0.062,0.172,0.143,0.221,0.245
			c0.22,0.445-0.164,1.082-0.86,1.422c-0.691,0.341-1.43,0.256-1.649-0.188c-0.049-0.103-0.067-0.213-0.059-0.325
			c0.328,0.218,0.895,0.21,1.432-0.054C54.218,20.85,54.566,20.407,54.597,20.014z"/>
		<polygon fill-rule="evenodd" clip-rule="evenodd" fill="#FFCA05" points="72.341,17.901 71.867,18.464 71.257,18.026 
			71.524,18.719 70.844,19.014 71.583,19.144 71.515,19.873 71.987,19.313 72.601,19.748 72.333,19.057 73.013,18.763 
			72.271,18.632 		"/>
		<path fill-rule="evenodd" clip-rule="evenodd" fill="#FFF100" d="M65.866,19.215c-0.332,0-0.289-0.663-0.461-0.645
			c-0.225,0.021-0.386-0.038-0.444-0.102c-0.077-0.077-0.112-0.138,0-0.256c0.103-0.107,0.179-0.255,0.323-0.327
			c-0.195-0.146,0.6-0.445,0.744-0.361c-0.096,0.043-0.568,0.192-0.553,0.327c0.135,0.021,0.721-0.412,1.033-0.189
			c-0.502,0.094-0.752,0.35-0.736,0.363c0.13,0.095,0.141,0.156,0.293,0.192c0.139,0.03,0.426-0.031,0.745-0.082
			c0.229-0.042,0.856-0.269,1.021-0.128c0.435,0.379,0.322,0.809,0.498,1.039c0.134,0.171,0.129,0.841-0.066,1.023
			c-0.161,0.151-0.012-0.407-0.043-0.634c-0.028-0.205-0.188-0.276-0.273-0.133c-0.059,0.097-0.023,0.483-0.207,0.706
			c-0.289,0.353-0.295,0.049-0.133-0.11c0.084-0.084,0.133-0.515,0.119-0.652c-0.01-0.115-0.498,0.036-0.574,0.044
			c-0.461,0.043-0.666,0.255-0.691,0.862c-0.02,0.404-0.32,0.427-0.21-0.098c0.034-0.151,0.059-0.417,0.005-0.542
			c-0.02-0.046-0.138-0.074-0.145-0.066c-0.111,0.13-0.397,0.212-0.371,0.358c0.018,0.102,0.1,0.337,0.03,0.38
			c-0.087,0.054-0.159,0.013-0.153-0.071c0.01-0.107-0.095-0.394-0.062-0.437C65.606,19.615,65.866,19.325,65.866,19.215z"/>
		<circle fill-rule="evenodd" clip-rule="evenodd" fill="#E39F15" cx="61.04" cy="17.466" r="0.747"/>
		<path fill-rule="evenodd" clip-rule="evenodd" fill="#FFCA05" d="M61.04,16.747h0.016h0.018h0.016l0.018,0.003h0.016h0.015l0,0
			h0.018l0,0c0.312,0.02,0.606,0.143,0.606,0.639l0,0v0.01v0.005v0.007l-0.002,0.005v0.007v0.005v0.005v0.003l-0.003,0.018v0.002
			l0,0l0,0c-0.023,0.182-0.135,0.259-0.243,0.338c-0.016,0.016-0.025,0.031-0.036,0.049c-0.062,0.102-0.102,0.209-0.158,0.296
			s-0.128,0.154-0.248,0.161l-0.005,0.003h-0.008h-0.005l0,0h-0.008H61.04h-0.008h-0.005l0,0h-0.005h-0.01l-0.002-0.003
			c-0.12-0.01-0.194-0.074-0.248-0.161c-0.057-0.087-0.098-0.194-0.159-0.296c-0.01-0.018-0.021-0.033-0.035-0.049
			c-0.118-0.09-0.249-0.174-0.249-0.407c0-0.494,0.294-0.619,0.606-0.639l0,0h0.016l0,0h0.018h0.016l0.018-0.003h0.016h0.015H61.04z
			"/>
		<path fill-rule="evenodd" clip-rule="evenodd" fill="#FFF100" d="M61.04,16.896h0.013h0.018h0.015h0.016h0.016h0.015l0.015,0.002
			h0.013h0.003h0.013l0,0l0.015,0.003l0,0h0.013l0,0l0.015,0.002l0,0h0.013h0.002l0.013,0.003l0,0l0.016,0.002l0,0l0.013,0.002l0,0
			l0.013,0.003l0,0l0.013,0.003h0.003l0.01,0.002l0,0l0.015,0.005l0,0l0.013,0.002l0,0l0.013,0.003l0,0l0.01,0.004l0,0l0.013,0.005
			h0.002l0.01,0.002l0,0l0.01,0.005l0,0l0.013,0.005l0,0l0.013,0.005l0,0l0.01,0.005l0,0l0.01,0.005l0,0l0.01,0.008l0,0l0.01,0.005
			l0,0l0.01,0.008l0,0l0.011,0.007l0,0L61.498,17v0.003l0.01,0.007l0,0l0.008,0.008l0,0l0.01,0.008l0,0l0.008,0.01l0,0l0.01,0.008
			l0,0l0.005,0.01l0,0l0.01,0.008l0,0l0.005,0.01l0,0l0.008,0.013l0,0l0.008,0.01l0,0l0.005,0.013h0.002l0.005,0.01l0,0l0.007,0.013
			l0,0l0.005,0.013l0,0l0.005,0.013l0,0l0.002,0.013h0.003l0.002,0.016h0.003l0.002,0.012l0,0l0.003,0.016l0,0l0.005,0.015l0,0
			l0.002,0.016v0.003l0.002,0.015l0,0c0.008,0.039,0.01,0.082,0.01,0.128c0,0.103-0.077,0.095-0.169,0.074
			c-0.107-0.01-0.23-0.031-0.271,0.039c-0.052,0.087,0.194,0.255,0.164,0.376c-0.031,0.128-0.205,0.263-0.312,0.279h-0.005l0,0
			H61.05h-0.002h-0.005l-0.003,0.002l-0.005-0.002h-0.002H61.03h-0.005l0,0h-0.003c-0.11-0.016-0.281-0.151-0.312-0.279
			c-0.031-0.121,0.215-0.289,0.164-0.376c-0.041-0.069-0.164-0.049-0.269-0.039c-0.084,0.018-0.156,0.028-0.168-0.048l-0.002-0.005
			v-0.003l0,0l-0.003-0.018c0-0.048,0.005-0.089,0.013-0.128l0,0v-0.015v-0.003l0.005-0.016l0,0l0.002-0.015l0,0l0.005-0.016l0,0
			l0.003-0.012l0,0l0.005-0.016l0,0l0.005-0.013l0,0l0.005-0.013l0,0l0.005-0.013l0,0l0.004-0.013h0.002l0.005-0.01l0,0l0.007-0.013
			l0,0l0.005-0.01l0,0l0.007-0.013h0.003l0.005-0.01l0,0l0.007-0.008h0.002l0.005-0.01l0,0l0.01-0.008l0,0l0.008-0.01l0,0
			l0.008-0.008h0.002l0.007-0.008l0,0l0.01-0.007V17l0.008-0.005h0.002l0.007-0.007h0.003l0.008-0.008l0,0l0.013-0.005l0,0
			l0.01-0.008l0,0l0.01-0.005l0,0l0.01-0.005l0,0l0.01-0.005h0.003l0.01-0.005l0,0l0.013-0.005l0,0l0.011-0.002l0,0l0.013-0.005l0,0
			l0.013-0.004l0,0l0.013-0.003l0,0l0.012-0.002l0,0l0.013-0.005h0.002l0.011-0.002l0,0l0.015-0.003l0,0l0.01-0.003h0.003
			l0.012-0.002l0,0l0.016-0.002l0,0l0.013-0.003h0.002h0.01h0.002l0.013-0.002h0.002h0.013l0,0l0.016-0.003l0,0h0.012l0,0h0.016
			l0.015-0.002h0.016h0.015h0.015h0.016h0.016H61.04z"/>
		<path fill="#E39F15" d="M60.465,16.422l0.1-0.025c0.084,0.22,0.402,0.414,0.424-0.031h0.1c0.025,0.432,0.327,0.266,0.427,0.031
			l0.1,0.025l-0.123,0.517l-0.005-0.002l0,0l-0.011-0.007l0,0l-0.01-0.005l0,0l-0.01-0.007l0,0l-0.01-0.008l0,0l-0.01-0.005l0,0
			l-0.01-0.005l0,0l-0.013-0.005l0,0L61.4,16.888l0,0l-0.01-0.005l0,0l-0.01-0.005h-0.002l-0.013-0.005l0,0l-0.01-0.002l0,0
			l-0.013-0.002l0,0l-0.013-0.005l0,0l-0.015-0.002l0,0l-0.01-0.003h-0.003l-0.013-0.002l0,0l-0.013-0.003l0,0l-0.013-0.002l0,0
			l-0.016-0.002l0,0l-0.013-0.003h-0.002l-0.013-0.003l0,0h-0.015l0,0h-0.013l0,0l-0.015-0.002l0,0h-0.013H61.16l-0.013-0.002
			h-0.015h-0.015h-0.016h-0.016h-0.015h-0.018H61.04h-0.015h-0.016h-0.016h-0.015h-0.015h-0.016h-0.015l-0.016,0.002l0,0h-0.012l0,0
			l-0.016,0.002l0,0h-0.013h-0.002h-0.013h-0.002l-0.01,0.003h-0.002l-0.013,0.003l0,0l-0.016,0.002l0,0l-0.012,0.002h-0.003
			l-0.01,0.003l0,0l-0.015,0.002l0,0l-0.011,0.003h-0.002l-0.013,0.002l0,0l-0.012,0.005l0,0l-0.013,0.002l0,0l-0.013,0.002l0,0
			L60.7,16.878l0,0l-0.011,0.005l0,0l-0.013,0.005l0,0l-0.01,0.004h-0.003l-0.01,0.005l0,0l-0.01,0.005l0,0l-0.01,0.005l0,0
			l-0.01,0.008l0,0l-0.013,0.007l0,0l-0.008,0.005H60.6l-0.007,0.007H60.59l-0.003,0.002L60.465,16.422z"/>
		<circle fill-rule="evenodd" clip-rule="evenodd" fill="#E39F15" cx="63.419" cy="17.466" r="0.747"/>
		<path fill-rule="evenodd" clip-rule="evenodd" fill="#FFCA05" d="M63.419,16.747h0.015h0.016h0.019l0.016,0.003h0.018h0.016l0,0
			h0.018l0,0c0.312,0.02,0.605,0.143,0.605,0.639l0,0v0.01v0.005v0.007l-0.002,0.005v0.007v0.005v0.005v0.003l-0.003,0.018v0.002
			l0,0l0,0c-0.022,0.182-0.136,0.259-0.243,0.338c-0.016,0.016-0.025,0.031-0.035,0.049c-0.062,0.102-0.103,0.209-0.159,0.296
			c-0.056,0.087-0.128,0.154-0.248,0.161l-0.005,0.003h-0.008h-0.005l0,0h-0.008h-0.005h-0.008h-0.006l0,0h-0.004h-0.011
			l-0.003-0.003c-0.12-0.01-0.194-0.074-0.25-0.161c-0.054-0.087-0.095-0.194-0.156-0.296c-0.01-0.018-0.021-0.033-0.036-0.049
			c-0.12-0.09-0.248-0.174-0.248-0.407c0-0.494,0.293-0.619,0.606-0.639l0,0h0.016l0,0h0.018h0.016l0.018-0.003h0.016h0.016H63.419z
			"/>
		<path fill-rule="evenodd" clip-rule="evenodd" fill="#FFF100" d="M63.419,16.896h0.015h0.016h0.013h0.018h0.016h0.016l0.016,0.002
			h0.012l0,0h0.016l0,0l0.016,0.003l0,0h0.014l0,0l0.015,0.002l0,0h0.013h0.002l0.014,0.003l0,0l0.016,0.002l0,0l0.012,0.002l0,0
			l0.014,0.003l0,0l0.014,0.003h0.002l0.01,0.002l0,0l0.016,0.005l0,0l0.01,0.002h0.003l0.01,0.003h0.003l0.01,0.004l0,0
			l0.014,0.005h0.002l0.01,0.002l0,0l0.011,0.005l0,0l0.013,0.005l0,0l0.013,0.005l0,0l0.011,0.005l0,0l0.01,0.005l0,0l0.011,0.008
			l0,0l0.01,0.005l0,0l0.011,0.008l0,0l0.01,0.007l0,0L63.876,17v0.003l0.011,0.007l0,0l0.008,0.008l0,0l0.011,0.008l0,0l0.008,0.01
			l0,0l0.007,0.008h0.003l0.005,0.01l0,0l0.01,0.008l0,0l0.005,0.01l0,0l0.008,0.013l0,0l0.008,0.01l0,0l0.006,0.013l0,0l0.008,0.01
			l0,0l0.008,0.013l0,0l0.004,0.013l0,0l0.006,0.013l0,0l0.003,0.013h0.002l0.003,0.016l0,0l0.005,0.012l0,0l0.003,0.016l0,0
			l0.005,0.015l0,0l0.005,0.016v0.003v0.015l0,0c0.006,0.039,0.013,0.082,0.013,0.128c0,0.103-0.079,0.095-0.171,0.074
			c-0.107-0.01-0.23-0.031-0.271,0.039c-0.051,0.087,0.194,0.255,0.164,0.376c-0.031,0.128-0.205,0.263-0.312,0.279h-0.005l0,0
			h-0.003h-0.002h-0.006l-0.002,0.002l-0.005-0.002h-0.003h-0.002h-0.006l0,0h-0.002c-0.11-0.016-0.285-0.151-0.312-0.279
			c-0.031-0.121,0.215-0.289,0.164-0.376c-0.041-0.069-0.164-0.049-0.27-0.039c-0.084,0.018-0.156,0.028-0.171-0.048V17.41v-0.003
			l0,0l-0.003-0.018c0-0.048,0.006-0.089,0.014-0.128l0,0v-0.015v-0.003l0.004-0.016l0,0l0.004-0.015l0,0l0.005-0.016l0,0
			l0.002-0.012l0,0l0.005-0.016l0,0l0.006-0.013l0,0l0.005-0.013l0,0l0.005-0.013l0,0l0.006-0.013h0.002l0.005-0.01l0,0l0.008-0.013
			l0,0l0.005-0.01l0,0l0.008-0.013l0,0l0.008-0.01l0,0l0.008-0.008h0.003l0.005-0.01l0,0l0.01-0.008l0,0l0.008-0.01l0,0l0.008-0.008
			h0.002l0.008-0.008l0,0l0.01-0.007V17l0.009-0.005h0.003l0.008-0.007h0.002l0.008-0.008l0,0l0.012-0.005l0,0l0.012-0.008l0,0
			l0.01-0.005l0,0l0.01-0.005l0,0l0.011-0.005h0.003l0.01-0.005l0,0l0.013-0.005l0,0l0.011-0.002l0,0l0.012-0.005h0.003l0.011-0.004
			l0,0l0.012-0.003l0,0l0.014-0.002l0,0l0.013-0.005h0.003l0.01-0.002l0,0l0.016-0.003l0,0l0.01-0.003l0,0l0.016-0.002l0,0
			l0.016-0.002l0,0l0.012-0.003h0.003h0.011l0,0l0.016-0.002h0.002h0.013l0,0l0.016-0.003l0,0h0.013l0,0h0.016l0.016-0.002h0.015
			h0.016h0.015h0.016h0.016H63.419z"/>
		<path fill="#E39F15" d="M62.843,16.422l0.1-0.025c0.086,0.22,0.402,0.414,0.426-0.031h0.1c0.025,0.432,0.327,0.266,0.427,0.031
			l0.1,0.025l-0.122,0.517l-0.006-0.002l0,0l-0.01-0.007l0,0l-0.011-0.005l0,0l-0.01-0.007l0,0l-0.011-0.008l0,0l-0.01-0.005l0,0
			l-0.011-0.005l0,0l-0.013-0.005l0,0l-0.013-0.004l0,0l-0.011-0.005l0,0l-0.01-0.005h-0.002l-0.014-0.005l0,0l-0.01-0.002H63.73
			l-0.01-0.002h-0.003l-0.01-0.005l0,0l-0.016-0.002l0,0l-0.01-0.003h-0.002l-0.014-0.002l0,0l-0.014-0.003l0,0l-0.012-0.002l0,0
			l-0.016-0.002l0,0l-0.014-0.003H63.61l-0.013-0.003l0,0h-0.015l0,0h-0.014l0,0l-0.016-0.002l0,0h-0.016l0,0l-0.012-0.002h-0.016
			h-0.016h-0.016h-0.018h-0.013h-0.016h-0.015h-0.016h-0.016h-0.016h-0.015h-0.016h-0.015h-0.016l-0.016,0.002l0,0h-0.013l0,0
			l-0.016,0.002l0,0h-0.013h-0.002h-0.016l0,0l-0.011,0.003h-0.003l-0.012,0.003l0,0l-0.016,0.002l0,0l-0.016,0.002l0,0l-0.01,0.003
			l0,0l-0.016,0.002l0,0l-0.01,0.003h-0.003l-0.013,0.002l0,0l-0.014,0.005l0,0l-0.012,0.002l0,0l-0.011,0.002h-0.003l-0.012,0.005
			l0,0l-0.011,0.005l0,0l-0.013,0.005l0,0l-0.01,0.004h-0.003l-0.011,0.005l0,0l-0.01,0.005l0,0l-0.01,0.005l0,0l-0.012,0.008l0,0
			l-0.012,0.007l0,0l-0.008,0.005h-0.002l-0.008,0.007h-0.003l-0.003,0.002L62.843,16.422z"/>
		<circle fill-rule="evenodd" clip-rule="evenodd" fill="#E39F15" cx="62.25" cy="19.63" r="0.747"/>
		<path fill-rule="evenodd" clip-rule="evenodd" fill="#FFCA05" d="M62.25,18.911h0.015h0.018h0.015l0.018,0.003h0.016h0.015l0,0
			h0.018l0,0c0.312,0.021,0.607,0.143,0.607,0.639l0,0v0.01v0.005v0.008v0.008v0.005l-0.003,0.005v0.008l0,0l-0.003,0.02l0,0l0,0
			l0,0c-0.023,0.182-0.135,0.258-0.243,0.338c-0.013,0.015-0.025,0.03-0.035,0.048c-0.059,0.103-0.103,0.209-0.156,0.296
			c-0.059,0.09-0.13,0.154-0.25,0.164h-0.005h-0.007h-0.005l0,0h-0.008H62.25h-0.005h-0.008l0,0h-0.005h-0.007h-0.005
			c-0.117-0.013-0.194-0.077-0.25-0.164c-0.053-0.087-0.097-0.194-0.156-0.296c-0.011-0.016-0.021-0.034-0.033-0.046
			c-0.121-0.092-0.25-0.174-0.25-0.41c0-0.494,0.294-0.619,0.606-0.639h0.002h0.016l0,0h0.015h0.016l0.018-0.003h0.018h0.016H62.25z
			"/>
		<path fill-rule="evenodd" clip-rule="evenodd" fill="#FFF100" d="M62.25,19.059h0.015h0.016h0.015h0.016h0.016h0.015l0.016,0.002
			h0.016l0,0h0.012l0,0l0.016,0.003l0,0h0.013l0,0l0.015,0.002l0,0h0.016l0,0l0.012,0.005l0,0h0.013h0.002l0.013,0.005l0,0h0.013
			l0,0l0.016,0.002l0,0l0.013,0.003l0,0l0.012,0.005l0,0l0.013,0.002l0,0l0.013,0.003l0,0l0.013,0.005l0,0l0.01,0.005h0.002
			l0.011,0.002l0,0l0.012,0.005l0,0l0.01,0.005l0,0l0.01,0.007h0.002l0.01,0.005l0,0l0.011,0.005h0.002l0.01,0.005l0,0l0.01,0.007
			l0,0l0.008,0.005h0.002l0.008,0.007H62.7l0.007,0.008l0,0l0.01,0.008l0,0l0.008,0.007l0,0l0.01,0.008l0,0l0.007,0.01l0,0
			l0.011,0.008l0,0l0.008,0.01l0,0l0.005,0.01h0.002l0.008,0.01l0,0l0.005,0.011h0.003l0.006,0.01l0,0l0.007,0.013l0,0l0.005,0.01
			l0,0l0.006,0.013h0.002l0.003,0.013h0.003l0.002,0.013l0.003,0.002l0.003,0.011v0.003l0.004,0.013h0.004l0.002,0.016l0,0
			l0.005,0.013v0.002l0.003,0.013l0,0l0.002,0.019l0,0l0.003,0.015h0.003c0.005,0.039,0.01,0.082,0.01,0.127
			c0,0.103-0.079,0.095-0.171,0.075c-0.107-0.01-0.231-0.031-0.271,0.039c-0.051,0.087,0.194,0.255,0.167,0.378
			c-0.034,0.126-0.205,0.261-0.314,0.276h-0.003l0,0H62.26l0,0h-0.005l-0.005,0.002l-0.005-0.002H62.24l0,0h-0.003h-0.002h-0.003
			c-0.11-0.016-0.281-0.15-0.314-0.276c-0.026-0.12,0.217-0.291,0.166-0.378c-0.038-0.069-0.161-0.049-0.269-0.039
			c-0.082,0.018-0.156,0.028-0.169-0.049v-0.005l-0.002-0.002l0,0l-0.003-0.019c0-0.046,0.005-0.089,0.011-0.127h0.002l0.003-0.015
			l0,0l0.002-0.019l0,0l0.003-0.013v-0.002l0.005-0.013l0,0l0.005-0.016l0,0l0.005-0.013v-0.003l0.003-0.011V19.32l0.007-0.013l0,0
			l0.005-0.013l0,0l0.005-0.013l0,0l0.005-0.01l0,0l0.008-0.013l0,0l0.007-0.01l0,0l0.005-0.011h0.003l0.007-0.01l0,0l0.005-0.01
			l0,0l0.007-0.01h0.003l0.007-0.008l0,0l0.008-0.01l0,0l0.01-0.008l0,0l0.008-0.007l0,0l0.01-0.008l0,0l0.01-0.008l0,0l0.011-0.007
			l0,0l0.007-0.005l0,0l0.01-0.007h0.002l0.008-0.005h0.002l0.01-0.005l0,0l0.01-0.005h0.002l0.01-0.007l0,0l0.01-0.005h0.002
			l0.011-0.005l0,0l0.013-0.002l0,0l0.01-0.005l0,0l0.013-0.005h0.003l0.01-0.003l0,0l0.013-0.002l0,0l0.013-0.005l0,0l0.015-0.003
			l0,0l0.013-0.002l0,0h0.013l0,0l0.015-0.005l0,0h0.013l0,0l0.012-0.005l0,0h0.016l0,0l0.015-0.002l0,0h0.013h0.003l0.013-0.003
			l0,0h0.013l0,0h0.015l0.016-0.002h0.015h0.016h0.015h0.015h0.016H62.25z"/>
		<path fill="#E39F15" d="M61.674,18.586l0.1-0.025c0.085,0.22,0.402,0.414,0.425-0.031h0.102c0.023,0.435,0.328,0.266,0.425,0.031
			l0.1,0.025l-0.123,0.517L62.7,19.101h-0.002l-0.008-0.008h-0.002l-0.008-0.005l0,0l-0.01-0.008l0,0l-0.01-0.007h-0.002
			l-0.011-0.005l0,0l-0.01-0.005h-0.002l-0.01-0.005l0,0l-0.01-0.005l0,0l-0.012-0.005l0,0l-0.011-0.003h-0.002l-0.01-0.007l0,0
			l-0.013-0.002l0,0l-0.013-0.003l0,0l-0.013-0.005l0,0l-0.012-0.002l0,0l-0.013-0.003l0,0l-0.016-0.002l0,0l-0.013-0.002l0,0
			l-0.013-0.002H62.47l-0.013-0.003l0,0l-0.012-0.002l0,0h-0.016l0,0l-0.015-0.002l0,0h-0.013l0,0l-0.016-0.003l0,0h-0.012l0,0
			L62.357,19h-0.016h-0.015h-0.016h-0.016h-0.015h-0.016H62.25h-0.016h-0.016h-0.015h-0.015h-0.016h-0.015h-0.016l-0.015,0.002l0,0
			h-0.013l0,0l-0.013,0.003h-0.003h-0.013l0,0l-0.015,0.002l0,0h-0.016l0,0l-0.012,0.002l0,0l-0.013,0.003l0,0l-0.015,0.002l0,0
			l-0.013,0.002l0,0l-0.013,0.002l0,0l-0.015,0.003l0,0l-0.013,0.002l0,0l-0.013,0.005l0,0l-0.01,0.003h-0.003l-0.013,0.002l0,0
			l-0.01,0.007l0,0l-0.013,0.003l0,0l-0.011,0.005h-0.002l-0.01,0.005l0,0l-0.01,0.005h-0.002l-0.01,0.005l0,0l-0.01,0.005h-0.002
			l-0.008,0.007H61.83l-0.01,0.008l0,0l-0.007,0.005l0,0l-0.011,0.008l0,0L61.8,19.103L61.674,18.586z"/>
	</g>
</g>
</svg>
