<?xml version="1.0" encoding="utf-8"?>
<!-- Generator: Adobe Illustrator 15.0.0, SVG Export Plug-In . SVG Version: 6.00 Build 0)  -->
<!DOCTYPE svg PUBLIC "-//W3C//DTD SVG 1.1//EN" "http://www.w3.org/Graphics/SVG/1.1/DTD/svg11.dtd">
<svg version="1.1" id="Layer_1" xmlns="http://www.w3.org/2000/svg" xmlns:xlink="http://www.w3.org/1999/xlink" x="0px" y="0px"
	 width="121.739px" height="65.218px" viewBox="0 0 121.739 65.218" enable-background="new 0 0 121.739 65.218"
	 xml:space="preserve">
<g>
	<rect x="12.019" y="4.871" fill-rule="evenodd" clip-rule="evenodd" fill="#231F20" width="99.774" height="52.888"/>
	<g>
		<g>
			<rect x="12.899" y="5.751" fill-rule="evenodd" clip-rule="evenodd" fill="#FFCA05" width="98.014" height="25.941"/>
			<rect x="12.899" y="31.692" fill-rule="evenodd" clip-rule="evenodd" fill="#0071BB" width="98.014" height="12.593"/>
			<rect x="12.899" y="44.285" fill-rule="evenodd" clip-rule="evenodd" fill="#EC1C24" width="98.014" height="12.594"/>
		</g>
		<path fill-rule="evenodd" clip-rule="evenodd" fill="#00579B" d="M24.572,31.692h9.254l-2.714,0.235l7.607,0.657l-7.607,0.659
			l7.607,0.66l-7.607,0.66l7.607,0.66l-7.607,0.657l7.607,0.663l-7.607,0.657l7.607,0.657l-7.607,0.66l7.607,0.659l-7.607,0.66
			l7.607,0.66l-7.607,0.66l7.607,0.657l-7.607,0.657l7.607,0.659l-7.607,0.66l5.666,0.492H21.623l5.666-0.492l-7.61-0.66l7.61-0.659
			l-7.61-0.657l7.61-0.657l-7.61-0.66l7.61-0.66l-7.61-0.66l7.61-0.659l-7.61-0.66l7.61-0.657l-7.61-0.657l7.61-0.663l-7.61-0.657
			l7.61-0.66l-7.61-0.66l7.61-0.66l-7.61-0.659l7.61-0.657L24.572,31.692L24.572,31.692z M57.282,31.692h9.249l-2.711,0.235
			l7.607,0.657l-7.607,0.659l7.607,0.66l-7.607,0.66l7.607,0.66l-7.607,0.657l7.607,0.663l-7.607,0.657l7.607,0.657l-7.607,0.66
			l7.607,0.659l-7.607,0.66l7.607,0.66l-7.607,0.66l7.607,0.657l-7.607,0.657l7.607,0.659l-7.607,0.66l5.663,0.492H54.33
			l5.663-0.492l-7.606-0.66l7.606-0.659l-7.606-0.657l7.606-0.657l-7.606-0.66l7.606-0.66l-7.606-0.66l7.606-0.659l-7.606-0.66
			l7.606-0.657l-7.606-0.657l7.606-0.663l-7.606-0.657l7.606-0.66l-7.606-0.66l7.606-0.66l-7.606-0.659l7.606-0.657L57.282,31.692
			L57.282,31.692z M89.985,31.692h9.252l-2.715,0.235l7.607,0.657l-7.607,0.659l7.61,0.66l-7.61,0.66l7.607,0.66l-7.607,0.657
			l7.607,0.663l-7.607,0.657l7.607,0.657l-7.607,0.66l7.607,0.659l-7.607,0.66l7.607,0.66l-7.607,0.66l7.61,0.657l-7.61,0.657
			l7.607,0.659l-7.607,0.66l5.666,0.492H87.034l5.665-0.492l-7.606-0.66l7.606-0.659l-7.606-0.657l7.606-0.657l-7.606-0.66
			l7.606-0.66l-7.606-0.66l7.606-0.659l-7.606-0.66l7.606-0.657l-7.606-0.657l7.606-0.663l-7.606-0.657l7.606-0.66l-7.606-0.66
			l7.606-0.66l-7.606-0.659l7.606-0.657L89.985,31.692z"/>
		<path fill-rule="evenodd" clip-rule="evenodd" fill="#EBAC13" d="M24.572,31.692h9.254l4.893-0.424l-7.607-0.66l7.607-0.66
			l-7.607-0.658l7.607-0.66l-7.607-0.66l7.607-0.657l-7.607-0.66l7.607-0.663l-7.607-0.657l7.607-0.66l-7.607-0.657l7.607-0.66
			l-7.607-0.66l7.607-0.66l-7.607-0.658l7.607-0.663l-7.607-0.66l7.607-0.658l-7.609-0.663l7.609-0.657l-7.607-0.657l7.607-0.66
			l-7.607-0.66l7.607-0.663l-7.607-0.657l7.607-0.661l-7.607-0.657l7.607-0.658l-7.607-0.662l7.607-0.658l-7.607-0.66l7.607-0.659
			l-7.609-0.66l7.609-0.66l-7.607-0.658l7.607-0.662l-7.607-0.658l7.607-0.66l-5.312-0.46h-8.415l-5.313,0.46l7.61,0.66
			l-7.607,0.658l7.607,0.662l-7.61,0.658l7.61,0.66l-7.61,0.66l7.61,0.659l-7.61,0.66l7.61,0.658l-7.61,0.662l7.61,0.658
			l-7.61,0.657l7.61,0.661l-7.61,0.657l7.61,0.663l-7.61,0.66l7.61,0.66l-7.61,0.657l7.61,0.657l-7.61,0.663l7.61,0.658l-7.61,0.66
			l7.61,0.663l-7.61,0.658l7.61,0.66l-7.61,0.66l7.61,0.66l-7.61,0.657l7.61,0.66l-7.61,0.657l7.61,0.663l-7.61,0.66l7.61,0.657
			l-7.61,0.66l7.61,0.657l-7.61,0.661l7.61,0.66l-7.61,0.66L24.572,31.692L24.572,31.692z M57.282,31.692h9.249l4.896-0.424
			l-7.607-0.66l7.607-0.66l-7.607-0.658l7.607-0.66l-7.607-0.66l7.607-0.657l-7.607-0.66l7.607-0.663l-7.607-0.657l7.607-0.66
			l-7.607-0.657l7.607-0.66l-7.607-0.66l7.607-0.66l-7.607-0.658l7.607-0.663l-7.607-0.66l7.607-0.658l-7.609-0.663l7.609-0.657
			l-7.607-0.657l7.607-0.66l-7.607-0.66l7.607-0.663l-7.607-0.657l7.607-0.661l-7.607-0.657l7.607-0.658l-7.607-0.662l7.607-0.658
			l-7.607-0.66l7.607-0.659l-7.609-0.66l7.609-0.66l-7.607-0.658l7.607-0.662l-7.607-0.658l7.607-0.66l-5.313-0.46h-8.415
			l-5.312,0.46l7.606,0.66l-7.606,0.658l7.606,0.662l-7.606,0.658l7.606,0.66l-7.606,0.66l7.606,0.659l-7.606,0.66l7.606,0.658
			l-7.606,0.662l7.606,0.658l-7.606,0.657l7.606,0.661l-7.606,0.657l7.606,0.663l-7.606,0.66l7.606,0.66l-7.606,0.657l7.609,0.657
			l-7.609,0.663l7.606,0.658l-7.606,0.66l7.606,0.663l-7.606,0.658l7.606,0.66l-7.606,0.66l7.606,0.66l-7.606,0.657l7.606,0.66
			l-7.606,0.657l7.606,0.663l-7.606,0.66l7.606,0.657l-7.606,0.66l7.606,0.657l-7.606,0.661l7.606,0.66l-7.606,0.66L57.282,31.692
			L57.282,31.692z M89.985,31.692h9.252l4.893-0.424l-7.607-0.66l7.607-0.66l-7.607-0.658l7.607-0.66l-7.607-0.66l7.607-0.657
			l-7.607-0.66l7.61-0.663l-7.61-0.657l7.607-0.66l-7.607-0.657l7.607-0.66l-7.607-0.66l7.61-0.66l-7.61-0.658l7.61-0.663
			l-7.61-0.66l7.607-0.658l-7.607-0.663l7.607-0.657l-7.607-0.657l7.607-0.66l-7.607-0.66l7.607-0.663l-7.607-0.657l7.61-0.661
			l-7.61-0.657l7.607-0.658l-7.607-0.662l7.61-0.658l-7.61-0.66l7.61-0.659l-7.61-0.66l7.607-0.66l-7.607-0.658l7.61-0.662
			l-7.61-0.658l7.607-0.66l-5.311-0.46h-8.414l-5.312,0.46l7.606,0.66l-7.606,0.658l7.606,0.662l-7.606,0.658l7.606,0.66
			l-7.606,0.66l7.606,0.659l-7.606,0.66l7.606,0.658l-7.606,0.662l7.606,0.658l-7.606,0.657l7.606,0.661l-7.606,0.657l7.606,0.663
			l-7.606,0.66l7.606,0.66l-7.606,0.657l7.609,0.657l-7.609,0.663l7.606,0.658l-7.609,0.66l7.609,0.663l-7.609,0.658l7.609,0.66
			l-7.606,0.66l7.606,0.66l-7.606,0.657l7.606,0.66l-7.606,0.657l7.606,0.663l-7.606,0.66l7.606,0.657l-7.606,0.66l7.606,0.657
			l-7.606,0.661l7.606,0.66l-7.606,0.66L89.985,31.692z"/>
		<path fill-rule="evenodd" clip-rule="evenodd" fill="#C3161C" d="M26.103,56.879h6.195l6.422-0.558l-7.607-0.66l7.607-0.657
			l-7.607-0.657l7.607-0.663l-7.607-0.66l7.607-0.656l-7.607-0.663l7.607-0.657l-7.607-0.66l7.607-0.654l-7.607-0.665l7.607-0.657
			l-7.607-0.66l7.607-0.657l-7.607-0.66l7.607-0.66l-7.607-0.657l7.607-0.662l-1.941-0.168H21.623l-1.944,0.168l7.61,0.66
			l-7.61,0.659l7.61,0.66l-7.61,0.66l7.61,0.657l-7.61,0.66l7.61,0.657l-7.61,0.665l7.61,0.654l-7.61,0.66l7.61,0.657l-7.61,0.665
			l7.61,0.654l-7.61,0.66l7.61,0.663l-7.61,0.657l7.61,0.657l-7.61,0.66L26.103,56.879L26.103,56.879z M58.806,56.879h6.197
			l6.424-0.558l-7.607-0.66l7.607-0.657l-7.607-0.657l7.607-0.663l-7.607-0.66l7.607-0.656l-7.607-0.663l7.607-0.657l-7.607-0.66
			l7.607-0.654l-7.607-0.665l7.607-0.657l-7.607-0.66l7.607-0.657l-7.607-0.66l7.607-0.66l-7.607-0.657l7.607-0.662l-1.944-0.168
			H54.33l-1.944,0.168l7.606,0.66l-7.606,0.659l7.606,0.66l-7.606,0.66l7.606,0.657l-7.606,0.66l7.606,0.657l-7.606,0.665
			l7.606,0.654l-7.606,0.66l7.606,0.657l-7.606,0.665l7.606,0.654l-7.606,0.66l7.606,0.663l-7.606,0.657l7.606,0.657l-7.606,0.66
			L58.806,56.879L58.806,56.879z M91.513,56.879h6.197l6.423-0.558l-7.61-0.66l7.607-0.657l-7.607-0.657l7.607-0.663l-7.607-0.66
			l7.607-0.656l-7.607-0.663l7.607-0.657l-7.607-0.66l7.607-0.654l-7.607-0.665l7.607-0.657l-7.607-0.66l7.607-0.657l-7.607-0.66
			l7.61-0.66l-7.61-0.657l7.607-0.662l-1.941-0.168H87.034l-1.941,0.168l7.606,0.66l-7.606,0.659l7.606,0.66l-7.606,0.66
			l7.606,0.657l-7.606,0.66l7.606,0.657l-7.606,0.665l7.606,0.654l-7.606,0.66l7.606,0.657l-7.606,0.665l7.606,0.654l-7.606,0.66
			l7.606,0.663l-7.606,0.657l7.606,0.657l-7.606,0.66L91.513,56.879z"/>
		<g>
			<g>
				<path fill-rule="evenodd" clip-rule="evenodd" fill="#EC1C24" d="M56.992,30.479c-0.196-1.419,0.003-2.911,0.069-3.686
					l0.849,0.798c-0.103,0.691-0.128,1.819,0.194,2.887H56.992z"/>
				<path fill-rule="evenodd" clip-rule="evenodd" fill="#006CB6" d="M55.88,30.479c-0.061-1.767,0.309-3.69,0.342-4.696
					l0.929,1.095c-0.105,0.721-0.177,2.22,0.043,3.601H55.88z"/>
				<path fill-rule="evenodd" clip-rule="evenodd" fill="#FFD700" d="M54.514,30.479c-0.026-2.363,0.33-4.966,0.378-6.302
					l1.366,1.65c-0.051,1.614-0.253,3.253-0.222,4.652H54.514z"/>
				<path fill-rule="evenodd" clip-rule="evenodd" fill="#EC1C24" d="M66.741,30.479c0.24-1.419,0.08-2.911,0.035-3.686l-0.87,0.798
					c0.081,0.691,0.077,1.819-0.278,2.887H66.741z"/>
				<path fill-rule="evenodd" clip-rule="evenodd" fill="#006CB6" d="M67.855,30.479c0.109-1.767-0.207-3.69-0.212-4.696
					l-0.959,1.095c0.084,0.721,0.115,2.22-0.145,3.601H67.855z"/>
				<path fill-rule="evenodd" clip-rule="evenodd" fill="#FFD700" d="M69.219,30.479c0.093-2.363-0.187-4.966-0.196-6.302
					l-1.416,1.65c0.009,1.614,0.162,3.253,0.09,4.652H69.219z"/>
				<g>
					<path fill-rule="evenodd" clip-rule="evenodd" fill="#9CBDCD" d="M54.542,23.899l-0.033,0.028
						c-0.532-0.292-0.369-0.11-0.609-0.667l0.03-0.028C54.491,23.507,54.317,23.318,54.542,23.899z"/>
					
						<rect x="53.653" y="25.77" transform="matrix(-0.6747 -0.7381 0.7381 -0.6747 75.248 84.9123)" fill-rule="evenodd" clip-rule="evenodd" fill="#80A9BC" width="5.365" height="0.21"/>
				</g>
				<g>
					<path fill-rule="evenodd" clip-rule="evenodd" fill="#9CBDCD" d="M69.298,23.899l0.031,0.028
						c0.534-0.292,0.368-0.11,0.611-0.667l-0.033-0.028C69.349,23.507,69.522,23.318,69.298,23.899z"/>
					
						<rect x="64.822" y="25.769" transform="matrix(0.675 -0.7378 0.7378 0.675 2.8497 58.2186)" fill-rule="evenodd" clip-rule="evenodd" fill="#80A9BC" width="5.366" height="0.212"/>
				</g>
			</g>
			<g>
				<path fill-rule="evenodd" clip-rule="evenodd" fill="#EC1C24" d="M61.704,38.891c0,1.414,0,2.826,0,4.238
					c-0.473,0.301-0.79,0.498-1.097-0.172c0.859-0.857,0.583-2.791,0.663-3.988C61.415,38.943,61.558,38.918,61.704,38.891z"/>
				<path fill-rule="evenodd" clip-rule="evenodd" fill="#0088CF" d="M60.607,42.957c-0.054-0.174-0.195-0.235-0.105-0.583
					c-0.55,0.136-0.916,0.365-0.972-0.226c0.284-0.384,0.453-0.676,0.734-1.059c0.061-0.297,0.123-0.591,0.184-0.888
					c0.089-0.401,0.179-0.804,0.266-1.205c0.184-0.002,0.368-0.007,0.552-0.011C61.215,40.232,61.589,42.351,60.607,42.957z"/>
				<path fill-rule="evenodd" clip-rule="evenodd" fill="#FFD700" d="M59.53,42.148c-0.031-0.191-0.063-0.69,0.185-1.039
					c-2.325,0.387-1.625-0.41-0.501-2.152c0.031,0,2.747,0.02,1.501,0.04C60.642,40.524,60.463,41.521,59.53,42.148z"/>
				<path fill-rule="evenodd" clip-rule="evenodd" fill="#EC1C24" d="M60.558,37.984c-5.845,0.199-4.816-6.515-4.627-8.67
					l1.033,0.969c-0.269,1.817-0.112,6.092,3.834,6.799C60.768,37.246,60.589,37.82,60.558,37.984z"/>
				<path fill-rule="evenodd" clip-rule="evenodd" fill="#006CB6" d="M58.453,38.501c-5.673,0.146-3.629-7.757-3.543-10.417
					l1.128,1.333c-0.261,1.849-0.371,7.886,2.665,7.937C58.67,37.562,58.484,38.291,58.453,38.501z"/>
				<path fill-rule="evenodd" clip-rule="evenodd" fill="#FFD700" d="M57.9,39.191c-7.034,3.508-4.75-9.177-4.612-13.064
					l1.663,2.007c-0.156,4.809-1.399,9.793,3.077,10.245C57.987,38.649,57.944,38.921,57.9,39.191z"/>
				<path fill-rule="evenodd" clip-rule="evenodd" fill="#EC1C24" d="M61.684,38.891c0,1.414,0,2.826,0,4.238
					c0.473,0.301,0.792,0.498,1.097-0.172c-0.856-0.857-0.58-2.791-0.66-3.988C61.975,38.943,61.829,38.918,61.684,38.891z"/>
				<path fill-rule="evenodd" clip-rule="evenodd" fill="#0088CF" d="M62.78,42.957c0.057-0.174,0.197-0.235,0.107-0.583
					c0.551,0.136,0.916,0.365,0.973-0.226c-0.284-0.384-0.453-0.676-0.734-1.059c-0.061-0.297-0.125-0.591-0.188-0.888
					c-0.086-0.401-0.176-0.804-0.262-1.205c-0.185-0.002-0.371-0.007-0.556-0.011C62.175,40.232,61.801,42.351,62.78,42.957z"/>
				<path fill-rule="evenodd" clip-rule="evenodd" fill="#FFD700" d="M63.86,42.148c0.03-0.191,0.061-0.69-0.184-1.039
					c2.322,0.387,1.621-0.41,0.5-2.152c-0.029,0-2.747,0.02-1.5,0.04C62.747,40.524,62.924,41.521,63.86,42.148z"/>
				<path fill-rule="evenodd" clip-rule="evenodd" fill="#EC1C24" d="M62.884,37.984c5.836,0.199,5.002-6.515,4.871-8.67
					l-1.059,0.969c0.215,1.817-0.063,6.092-4.028,6.799C62.694,37.246,62.857,37.82,62.884,37.984z"/>
				<path fill-rule="evenodd" clip-rule="evenodd" fill="#006CB6" d="M64.976,38.501c5.668,0.146,3.847-7.757,3.836-10.417
					l-1.166,1.333c0.21,1.849,0.146,7.886-2.891,7.937C64.784,37.562,64.947,38.291,64.976,38.501z"/>
				<path fill-rule="evenodd" clip-rule="evenodd" fill="#FFD700" d="M65.505,39.191c6.934,3.508,5.014-9.177,4.985-13.064
					l-1.722,2.007c0.018,4.809,1.123,9.793-3.369,10.245C65.437,38.649,65.472,38.921,65.505,39.191z"/>
				<g>
					<path fill-rule="evenodd" clip-rule="evenodd" fill="#9CBDCD" d="M52.862,25.789l-0.039,0.033
						c-0.647-0.355-0.447-0.133-0.742-0.811l0.039-0.036C52.8,25.313,52.59,25.081,52.862,25.789z"/>
					
						<rect x="51.78" y="28.065" transform="matrix(-0.6747 -0.7381 0.7381 -0.6747 71.3733 87.8454)" fill-rule="evenodd" clip-rule="evenodd" fill="#80A9BC" width="6.532" height="0.257"/>
				</g>
				<g>
					<path fill-rule="evenodd" clip-rule="evenodd" fill="#9CBDCD" d="M70.827,25.789l0.039,0.033
						c0.646-0.355,0.447-0.133,0.742-0.811l-0.039-0.036C70.89,25.313,71.099,25.081,70.827,25.789z"/>
					
						<rect x="65.378" y="28.064" transform="matrix(0.6747 -0.7381 0.7381 0.6747 1.5204 59.8364)" fill-rule="evenodd" clip-rule="evenodd" fill="#80A9BC" width="6.532" height="0.258"/>
				</g>
			</g>
			<path fill-rule="evenodd" clip-rule="evenodd" fill="#F1F1F2" d="M64.172,19.279c3.335-0.158,5.442,0.854,7.472,1.765
				c0.506,0.228,0.734,0.484,0.068,0.819c-0.234,0.118-0.861-0.09-1.496-0.056c-0.381,0.018-0.713,0.281-1.111,0.317
				c-0.246,0.018-0.687-0.42-0.922-0.302c-0.266,0.13-0.307,0.547-0.578,0.646c-0.238,0.087-0.897-0.371-1.064-0.212
				c-0.191,0.179-0.025,0.415-0.061,0.453c-0.158,0.156-0.447-0.215-1.133,0.089c-0.192,0.084-0.021,0.409-0.219,0.486
				c-0.125,0.051-0.699-0.225-0.607,0.077c0.063,0.22-0.42,0.307-0.607,0.284c-1.377-0.182,0.219,0.97-0.885,0.8
				c-0.234-0.036-0.411-0.194-0.779-0.307c-0.371-0.112-0.54,0.161-0.612,0.266c-0.074,0.11,0.138,0.611-0.156,0.795
				c-0.266,0.166-0.605,0.243-0.954,0.335c-0.348,0.091-0.494,0.332-0.79,0.565c-0.916,0.716-0.745,0.333-0.512-0.284
				c0.235-0.614,0.854-1.729,0.936-1.941c0.166-0.438-0.66-0.476-1.143-0.706c-0.22-0.104-0.507-0.115-0.778-0.197
				c-0.378-0.112-0.652-0.742-1.013-0.836c-0.463-0.126-0.954,0.069-1.113-0.089c-0.104-0.105-0.276-0.32-0.844-0.415
				c-0.189-0.031-0.681,0.043-0.885,0.018c-0.404-0.056-0.453-0.34-0.806-0.374c-0.354-0.033-1.013,0.187-1.164,0.187
				c-1.445,0-0.494-0.389,0.683-1.046c1.486-0.826,4.236-1.709,6.013-1.287c0.29,0.067,0.456,0.23,0.555,0.586
				c0.215,0.767,0.345,0.982,0.908,1.133c0.358,0.098,0.368-0.322,0.832-0.353c0.591-0.041,1.632,0.262,2.004,0.013
				C64.042,20.093,63.799,19.295,64.172,19.279z"/>
			<path fill-rule="evenodd" clip-rule="evenodd" fill="#682900" d="M71.933,21.73c-0.057,0.043-0.131,0.087-0.221,0.133
				c-0.234,0.118-0.861-0.09-1.496-0.056c-0.381,0.018-0.713,0.281-1.111,0.317c-0.246,0.018-0.687-0.42-0.922-0.302
				c-0.266,0.13-0.307,0.547-0.578,0.646c-0.238,0.087-0.897-0.371-1.064-0.212c-0.191,0.179-0.025,0.415-0.061,0.453
				c-0.158,0.156-0.447-0.215-1.133,0.089c-0.192,0.084-0.021,0.409-0.219,0.486c-0.125,0.051-0.699-0.225-0.607,0.077
				c0.063,0.22-0.42,0.307-0.607,0.284c-0.833-0.11-0.578,0.269-0.49,0.548c-0.112,0.048-0.117,0.148-0.092,0.258
				c-0.064,0.016-0.162,0.016-0.303-0.005c-0.234-0.036-0.411-0.194-0.779-0.307c-0.371-0.112-0.54,0.161-0.612,0.266
				c-0.048,0.074,0.031,0.317,0,0.529v0.002c-0.013,0.016-0.015,0.041-0.015,0.072c-0.023,0.077-0.064,0.143-0.141,0.191
				c-0.266,0.166-0.605,0.243-0.954,0.335c-0.348,0.091-0.494,0.332-0.79,0.565c-0.276,0.215-0.45,0.33-0.558,0.371l0.046-0.125
				c0.317-0.829,0.678-1.791,0.936-2.471c0.166-0.438-0.66-0.476-1.143-0.706c-0.22-0.104-0.507-0.115-0.778-0.197
				c-0.378-0.112-0.652-0.742-1.013-0.836c-0.463-0.126-0.954,0.069-1.113-0.089c-0.104-0.105-0.276-0.32-0.844-0.415
				c-0.189-0.031-0.681,0.043-0.885,0.018c-0.404-0.056-0.453-0.34-0.806-0.374c-0.354-0.033-1.013,0.187-1.164,0.187
				c-0.095,0-0.179,0-0.25-0.005c-1.499-0.148,3.258-2.018,5.688-2.197c0.65-0.049,0.914,0.317,1.259,0.399
				c0.29,0.066,0.456,0.23,0.555,0.585c0.215,0.768,0.345,0.982,0.908,1.133c0.358,0.095,0.368-0.323,0.832-0.355
				c0.591-0.042,1.632,0.263,2.004,0.015c0.64-0.424,0.499-1.583,1.612-1.578C67.188,19.474,72.388,20.922,71.933,21.73z"/>
			<g>
				<ellipse fill-rule="evenodd" clip-rule="evenodd" fill="#6DCEF5" cx="61.919" cy="31.611" rx="4.877" ry="6.596"/>
				<path fill-rule="evenodd" clip-rule="evenodd" fill="#568EA6" d="M66.696,30.27c0.064,0.435,0.1,0.883,0.1,1.341
					c0,0.301-0.015,0.596-0.043,0.887c-2.251,0.918-6.673,0.092-8.044-0.039c-0.371-0.035-0.977-0.155-1.653-0.34
					c-0.01-0.168-0.015-0.337-0.015-0.508c0-0.713,0.087-1.402,0.241-2.046c1.269-0.274,2.48-0.655,3.276-1.185
					c0.832-0.552,0.979-0.292,1.665,0.238c0.264,0.202,1.663,0.376,2.09,0.529C64.858,29.344,65.829,29.881,66.696,30.27z"/>
				<path fill-rule="evenodd" clip-rule="evenodd" fill="#FFFFFF" d="M57.64,29.482c1.136-0.266,2.197-0.622,2.918-1.103
					c0.832-0.552,0.979-0.292,1.665,0.238c0.264,0.202,1.663,0.376,2.09,0.529c0.268,0.097,0.642,0.279,1.055,0.483
					c-0.947,0.064-1.984,0.1-3.063,0.1C60.581,29.73,58.977,29.641,57.64,29.482z"/>
				<path fill-rule="evenodd" clip-rule="evenodd" fill="#8BC53F" d="M66.792,31.35c0.002,0.087,0.004,0.174,0.004,0.261
					c0,3.642-2.184,6.596-4.877,6.596s-4.878-2.954-4.878-6.596c0-0.087,0.005-0.174,0.005-0.261
					c1.547-0.125,3.182-0.192,4.873-0.192S65.247,31.225,66.792,31.35z"/>
				<path fill-rule="evenodd" clip-rule="evenodd" fill="#0088CF" d="M65.687,35.803c-0.896,1.469-2.251,2.404-3.768,2.404
					c-1.24,0-2.376-0.629-3.236-1.666c1.034-0.391,2.668-1.285,1.27-1.989c-0.781-0.391,0.222-0.647,0.555-0.796
					c1.189-0.529-1.212-0.808-0.161-1.455c0.594-0.365,0.09-0.836,0.023-1.123c0.174-0.005,0.35-0.008,0.529-0.01
					c0.056,0.302,0.22,0.422,0.349,0.681c0.224,0.458-0.431,0.608,0.58,0.741c1.049,0.144,0.959,0.553,0.133,0.796
					c-0.179,0.054-0.109,0.44,0,0.528c0.153,0.129,0.699,0.108,0.926,0.108c0,0.399-0.609,0.52-0.713,0.688
					c-0.078,0.12,0.276,0.146,0.317,0.158C63.313,35.156,64.827,35.302,65.687,35.803z"/>
				<polygon fill-rule="evenodd" clip-rule="evenodd" fill="#FFCE01" points="61.919,25.781 62.034,26.114 62.269,25.85 
					62.249,26.201 62.566,26.047 62.413,26.364 62.763,26.344 62.5,26.577 62.833,26.692 62.5,26.807 62.763,27.042 62.413,27.019 
					62.566,27.336 62.249,27.183 62.269,27.536 62.036,27.272 61.919,27.605 61.804,27.272 61.571,27.536 61.591,27.183 
					61.276,27.336 61.428,27.019 61.078,27.042 61.341,26.807 61.008,26.692 61.341,26.577 61.078,26.344 61.428,26.364 
					61.276,26.047 61.591,26.201 61.571,25.85 61.804,26.114 				"/>
			</g>
			<path fill="#80A9BC" d="M61.919,24.733h0.002l0,0c1.44,0.002,2.74,0.785,3.673,2.046c0.915,1.238,1.48,2.946,1.483,4.826l0,0
				v0.005v0.002l0,0c0,1.883-0.568,3.591-1.483,4.829c-0.934,1.264-2.233,2.046-3.671,2.046l0,0h-0.005h-0.003l0,0
				c-1.438,0-2.737-0.782-3.67-2.046c-0.916-1.238-1.481-2.944-1.483-4.824H56.76v-0.007v-0.003h0.003
				c0-1.882,0.568-3.591,1.483-4.829c0.933-1.261,2.23-2.044,3.67-2.046l0,0H61.919L61.919,24.733z M61.921,25.295L61.921,25.295
				h-0.002h-0.003l0,0c-1.25,0-2.389,0.696-3.218,1.818c-0.849,1.146-1.376,2.737-1.376,4.494h0.003v0.003v0.007h-0.003
				c0,1.755,0.527,3.343,1.374,4.491c0.831,1.121,1.973,1.816,3.22,1.816l0,0h0.003h0.005l0,0c1.249,0,2.387-0.695,3.218-1.816
				c0.846-1.148,1.373-2.736,1.373-4.496l0,0v-0.002v-0.005l0,0c0-1.757-0.527-3.345-1.371-4.492
				C64.313,25.991,63.173,25.295,61.921,25.295z"/>
			<ellipse fill-rule="evenodd" clip-rule="evenodd" fill="#F1F1F2" cx="61.338" cy="22.021" rx="0.99" ry="1.112"/>
			<path fill-rule="evenodd" clip-rule="evenodd" fill="#DC8A62" d="M59.561,20.947c0.366,0,0.524-0.046,0.675,0.104
				c0.302-0.125,1.314,0.274,1.314,0.637c0,0.261-0.368,0.916-0.578,0.424c-0.212-0.491-0.68-0.394-0.795-0.465
				c-0.148,0.102-0.297,0.153-0.637,0.153c-0.341,0-0.86,0.162-0.86-0.164c0-0.103,0.343-0.128,0.422-0.235
				C59.276,21.167,59.308,20.947,59.561,20.947z"/>
			<path fill-rule="evenodd" clip-rule="evenodd" fill="#9CBDCD" d="M56.364,36.512c0.539-0.597,1.082-0.676,1.624,0l-0.669,2.012
				H57.13C56.875,37.854,56.62,37.184,56.364,36.512z"/>
			<path fill-rule="evenodd" clip-rule="evenodd" fill="#9CBDCD" d="M56.826,37.961v0.093c-1.136,0.417-0.652,0.417-1.785,0v-0.093
				C56.187,37.479,55.678,37.479,56.826,37.961z"/>
			<rect x="56.798" y="37.757" fill-rule="evenodd" clip-rule="evenodd" fill="#80A9BC" width="10.602" height="0.45"/>
			<polygon fill-rule="evenodd" clip-rule="evenodd" fill="#682900" points="58.23,37.148 58.23,36.539 65.687,36.539 
				65.687,39.271 58.23,39.271 			"/>
			<path fill-rule="evenodd" clip-rule="evenodd" fill="#AA4D11" d="M58.31,36.619h7.296v0.186H58.31V36.619L58.31,36.619z
				 M58.31,39.005h7.296v0.185H58.31V39.005L58.31,39.005z M58.31,38.739h7.296v0.187H58.31V38.739L58.31,38.739z M58.31,38.473
				h7.296v0.188H58.31V38.473L58.31,38.473z M58.31,38.21h7.296v0.187H58.31V38.21L58.31,38.21z M58.31,37.943h7.296v0.188H58.31
				V37.943L58.31,37.943z M58.31,37.678h7.296v0.187H58.31V37.678L58.31,37.678z M58.31,37.414h7.296v0.185H58.31V37.414
				L58.31,37.414z M58.31,37.148h7.296v0.187H58.31V37.148L58.31,37.148z M58.31,36.882h7.296v0.188H58.31V36.882z"/>
		</g>
	</g>
</g>
</svg>
