<?xml version="1.0" encoding="utf-8"?>
<!-- Generator: Adobe Illustrator 15.0.0, SVG Export Plug-In . SVG Version: 6.00 Build 0)  -->
<!DOCTYPE svg PUBLIC "-//W3C//DTD SVG 1.1//EN" "http://www.w3.org/Graphics/SVG/1.1/DTD/svg11.dtd">
<svg version="1.1" id="Layer_1" xmlns="http://www.w3.org/2000/svg" xmlns:xlink="http://www.w3.org/1999/xlink" x="0px" y="0px"
	 width="121.739px" height="65.218px" viewBox="0 0 121.739 65.218" enable-background="new 0 0 121.739 65.218"
	 xml:space="preserve">
<g>
	<rect x="12.019" y="4.227" fill-rule="evenodd" clip-rule="evenodd" fill="#231F20" width="99.774" height="52.887"/>
	<g>
		<rect x="78.24" y="5.104" fill-rule="evenodd" clip-rule="evenodd" fill="#EC1C24" width="32.673" height="51.131"/>
		<rect x="45.569" y="5.104" fill-rule="evenodd" clip-rule="evenodd" fill="#FFFFFF" width="32.671" height="51.131"/>
		<rect x="12.899" y="5.104" fill-rule="evenodd" clip-rule="evenodd" fill="#0059A9" width="32.67" height="51.131"/>
		<polygon fill-rule="evenodd" clip-rule="evenodd" fill="#004282" points="26.77,56.234 31.629,56.234 38.72,55.619 31.113,54.963 
			38.72,54.306 31.113,53.648 38.72,52.988 31.113,52.33 38.72,51.674 31.113,51.014 38.72,50.355 31.113,49.699 38.72,49.044 
			31.113,48.381 38.72,47.727 31.113,47.066 38.72,46.412 31.113,45.752 38.72,45.094 31.113,44.438 38.72,43.777 31.113,43.119 
			38.72,42.463 31.113,41.803 38.72,41.146 31.113,40.488 38.72,39.834 31.113,39.174 38.72,38.516 31.113,37.856 38.72,37.199 
			31.113,36.541 38.72,35.884 31.113,35.227 38.72,34.569 31.113,33.912 38.72,33.252 31.113,32.595 38.72,31.938 31.113,31.28 
			38.72,30.623 31.113,29.966 38.72,29.305 31.113,28.648 38.72,27.991 31.113,27.333 38.72,26.676 31.113,26.016 38.72,25.356 
			31.113,24.702 38.72,24.041 31.113,23.384 38.72,22.727 31.113,22.069 38.72,21.412 31.113,20.754 38.72,20.095 31.113,19.438 
			38.72,18.78 31.11,18.123 38.72,17.463 31.113,16.808 38.72,16.148 31.113,15.491 38.72,14.829 31.113,14.173 38.72,13.519 
			31.113,12.859 38.72,12.202 31.113,11.544 38.72,10.887 31.113,10.227 38.72,9.569 31.11,8.91 38.72,8.255 31.113,7.598 
			38.72,6.938 31.113,6.28 38.72,5.621 32.742,5.104 25.657,5.104 19.679,5.621 27.289,6.28 19.682,6.938 27.289,7.598 
			19.679,8.255 27.289,8.91 19.679,9.569 27.289,10.227 19.679,10.887 27.289,11.544 19.679,12.202 27.289,12.859 19.679,13.519 
			27.289,14.173 19.679,14.829 27.289,15.491 19.679,16.148 27.289,16.808 19.679,17.463 27.289,18.123 19.679,18.78 27.289,19.438 
			19.679,20.095 27.289,20.754 19.679,21.412 27.289,22.069 19.679,22.727 27.289,23.384 19.679,24.041 27.289,24.702 
			19.679,25.356 27.289,26.016 19.679,26.676 27.289,27.333 19.679,27.991 27.289,28.646 19.679,29.305 27.289,29.966 
			19.679,30.623 27.289,31.28 19.679,31.938 27.289,32.595 19.679,33.252 27.289,33.91 19.679,34.569 27.289,35.227 19.679,35.884 
			27.289,36.541 19.679,37.199 27.289,37.856 19.679,38.516 27.289,39.174 19.679,39.834 27.289,40.488 19.679,41.146 
			27.289,41.803 19.679,42.463 27.289,43.119 19.679,43.777 27.289,44.438 19.679,45.094 27.289,45.752 19.679,46.412 
			27.289,47.066 19.679,47.727 27.289,48.381 19.679,49.044 27.289,49.699 19.679,50.355 27.289,51.014 19.679,51.676 27.289,52.33 
			19.679,52.988 27.289,53.648 19.679,54.306 27.289,54.963 19.679,55.619 		"/>
		<polygon fill-rule="evenodd" clip-rule="evenodd" fill="#D8E1E7" points="64.336,56.234 59.476,56.234 52.386,55.619 
			59.993,54.963 52.386,54.306 59.993,53.648 52.386,52.988 59.993,52.33 52.386,51.676 59.993,51.014 52.386,50.355 59.993,49.699 
			52.386,49.044 59.993,48.381 52.386,47.727 59.993,47.066 52.386,46.412 59.993,45.752 52.386,45.094 59.993,44.438 
			52.386,43.777 59.993,43.119 52.386,42.463 59.993,41.803 52.386,41.146 59.993,40.488 52.386,39.834 59.993,39.174 
			52.386,38.516 59.993,37.856 52.386,37.199 59.993,36.541 52.386,35.884 59.993,35.227 52.386,34.569 59.993,33.91 52.386,33.252 
			59.993,32.595 52.386,31.938 59.993,31.28 52.386,30.623 59.993,29.966 52.386,29.305 59.993,28.646 52.386,27.991 59.993,27.333 
			52.386,26.676 59.993,26.016 52.386,25.356 59.993,24.702 52.386,24.041 59.993,23.384 52.386,22.727 59.993,22.069 
			52.386,21.412 59.993,20.754 52.386,20.095 59.993,19.438 52.386,18.78 59.995,18.123 52.386,17.463 59.993,16.808 52.386,16.148 
			59.993,15.491 52.386,14.829 59.993,14.173 52.386,13.519 59.993,12.859 52.386,12.202 59.993,11.544 52.386,10.887 
			59.993,10.227 52.386,9.569 59.993,8.91 52.386,8.255 59.993,7.598 52.386,6.938 59.993,6.28 52.386,5.621 58.363,5.104 
			65.448,5.104 71.427,5.621 63.819,6.28 71.427,6.938 63.819,7.598 71.427,8.255 63.817,8.91 71.427,9.569 63.819,10.227 
			71.427,10.887 63.819,11.544 71.427,12.202 63.819,12.859 71.427,13.519 63.819,14.173 71.427,14.829 63.819,15.491 
			71.427,16.148 63.819,16.808 71.427,17.463 63.817,18.123 71.427,18.78 63.819,19.438 71.427,20.095 63.819,20.754 71.427,21.412 
			63.819,22.069 71.427,22.727 63.819,23.384 71.427,24.041 63.819,24.702 71.427,25.356 63.819,26.016 71.427,26.676 
			63.819,27.333 71.427,27.991 63.819,28.648 71.427,29.305 63.819,29.966 71.427,30.623 63.819,31.28 71.427,31.938 63.819,32.595 
			71.427,33.252 63.819,33.912 71.427,34.569 63.819,35.227 71.427,35.884 63.819,36.541 71.427,37.199 63.819,37.856 
			71.427,38.516 63.819,39.174 71.427,39.834 63.819,40.488 71.427,41.146 63.819,41.803 71.427,42.463 63.819,43.119 
			71.427,43.777 63.819,44.438 71.427,45.094 63.819,45.752 71.427,46.412 63.819,47.066 71.427,47.727 63.819,48.381 
			71.427,49.044 63.819,49.699 71.427,50.355 63.819,51.014 71.427,51.674 63.819,52.33 71.427,52.988 63.819,53.648 71.427,54.306 
			63.819,54.963 71.427,55.619 		"/>
		<polygon fill-rule="evenodd" clip-rule="evenodd" fill="#C3161C" points="92.183,56.234 97.042,56.234 104.133,55.619 
			96.522,54.963 104.13,54.306 96.522,53.648 104.13,52.988 96.522,52.33 104.13,51.674 96.522,51.014 104.13,50.355 96.522,49.699 
			104.13,49.044 96.522,48.381 104.13,47.727 96.522,47.066 104.13,46.412 96.522,45.752 104.133,45.094 96.522,44.438 
			104.13,43.777 96.522,43.119 104.13,42.463 96.522,41.803 104.133,41.146 96.522,40.488 104.13,39.834 96.522,39.174 
			104.13,38.516 96.522,37.856 104.13,37.199 96.522,36.541 104.13,35.884 96.522,35.227 104.13,34.569 96.522,33.912 
			104.133,33.252 96.522,32.595 104.13,31.938 96.522,31.28 104.13,30.623 96.522,29.966 104.13,29.305 96.522,28.648 
			104.13,27.991 96.522,27.333 104.13,26.676 96.522,26.016 104.133,25.356 96.522,24.702 104.13,24.041 96.522,23.384 
			104.13,22.727 96.522,22.069 104.133,21.412 96.522,20.754 104.133,20.095 96.522,19.438 104.13,18.78 96.522,18.123 
			104.13,17.463 96.522,16.808 104.13,16.148 96.522,15.491 104.13,14.829 96.522,14.173 104.133,13.519 96.522,12.859 
			104.13,12.202 96.522,11.544 104.133,10.887 96.522,10.227 104.133,9.569 96.522,8.91 104.13,8.255 96.522,7.598 104.133,6.938 
			96.522,6.28 104.13,5.621 98.155,5.104 91.07,5.104 85.093,5.621 92.699,6.28 85.093,6.938 92.699,7.598 85.093,8.255 
			92.699,8.91 85.093,9.569 92.699,10.227 85.093,10.887 92.699,11.544 85.093,12.202 92.699,12.859 85.093,13.519 92.699,14.173 
			85.093,14.829 92.699,15.491 85.093,16.148 92.699,16.808 85.093,17.463 92.702,18.123 85.093,18.78 92.699,19.438 85.09,20.095 
			92.699,20.754 85.09,21.412 92.699,22.069 85.093,22.727 92.699,23.384 85.093,24.041 92.699,24.702 85.093,25.356 92.699,26.016 
			85.093,26.676 92.699,27.333 85.093,27.991 92.699,28.646 85.093,29.305 92.699,29.966 85.093,30.623 92.699,31.28 85.093,31.938 
			92.699,32.595 85.093,33.252 92.699,33.91 85.093,34.569 92.699,35.227 85.093,35.884 92.699,36.541 85.093,37.199 92.699,37.856 
			85.093,38.516 92.699,39.174 85.093,39.834 92.699,40.488 85.093,41.146 92.699,41.803 85.093,42.463 92.699,43.119 
			85.093,43.777 92.699,44.438 85.093,45.094 92.699,45.752 85.093,46.412 92.699,47.066 85.093,47.727 92.699,48.381 
			85.093,49.044 92.699,49.699 85.093,50.355 92.699,51.014 85.093,51.676 92.699,52.33 85.093,52.988 92.699,53.648 85.093,54.306 
			92.699,54.963 85.093,55.619 		"/>
	</g>
</g>
</svg>
