<?xml version="1.0" encoding="utf-8"?>
<!-- Generator: Adobe Illustrator 15.0.0, SVG Export Plug-In . SVG Version: 6.00 Build 0)  -->
<!DOCTYPE svg PUBLIC "-//W3C//DTD SVG 1.1//EN" "http://www.w3.org/Graphics/SVG/1.1/DTD/svg11.dtd">
<svg version="1.1" id="Layer_1" xmlns="http://www.w3.org/2000/svg" xmlns:xlink="http://www.w3.org/1999/xlink" x="0px" y="0px"
	 width="121.739px" height="65.218px" viewBox="0 0 121.739 65.218" enable-background="new 0 0 121.739 65.218"
	 xml:space="preserve">
<g>
	<rect x="12.019" y="5.035" fill-rule="evenodd" clip-rule="evenodd" fill="#231F20" width="99.774" height="52.887"/>
	<g>
		<rect x="12.899" y="40.002" fill-rule="evenodd" clip-rule="evenodd" fill="#FFCA05" width="98.014" height="17.04"/>
		<rect x="12.899" y="22.957" fill-rule="evenodd" clip-rule="evenodd" fill="#EC1C24" width="98.014" height="17.045"/>
		<rect x="12.899" y="5.913" fill-rule="evenodd" clip-rule="evenodd" fill="#494D51" width="98.014" height="17.044"/>
		<path fill-rule="evenodd" clip-rule="evenodd" fill="#EBAC13" d="M88.082,40.002h13.056l2.995,0.256l-7.61,0.66l7.607,0.659
			l-7.607,0.654l7.61,0.66l-7.61,0.655l7.607,0.66l-6.908,0.598l6.908,0.696l-0.107,0.016l0.107,0.005l-7.499,0.649l7.499,0.65
			l-0.105,0.009l0.105,0.011l-6.906,0.695l6.909,0.6l-7.61,0.653l7.61,0.66l-7.61,0.66l7.607,0.655l-7.607,0.659l7.61,0.66
			l-7.61,0.655l7.61,0.66l-7.61,0.659l7.607,0.654l-7.607,0.655l7.607,0.66l-7.607,0.66l4.104,0.354H88.599l4.101-0.354l-7.606-0.66
			l7.606-0.66l-7.606-0.655l7.606-0.654l-7.606-0.659l7.606-0.66l-7.606-0.655l7.606-0.66l-7.606-0.659l7.606-0.655l-7.609-0.66
			l7.609-0.66l-7.606-0.653l6.908-0.6l-6.908-0.695L85.2,46.83l-0.107-0.009l7.502-0.65l-7.502-0.649l0.107-0.005l-0.107-0.016
			l6.908-0.701l-6.908-0.593l7.606-0.66l-7.609-0.655l7.609-0.66l-7.606-0.654l7.606-0.659l-7.606-0.66L88.082,40.002L88.082,40.002
			z M22.67,40.002h13.055l2.995,0.256l-7.607,0.66l7.607,0.659l-7.607,0.654l7.607,0.66l-7.607,0.655l7.607,0.66l-6.911,0.598
			l6.911,0.696l-0.107,0.016l0.107,0.005l-7.499,0.649l7.499,0.65l-0.107,0.009l0.107,0.011l-6.908,0.695l6.908,0.6l-7.607,0.653
			l7.607,0.66l-7.607,0.66l7.607,0.655l-7.607,0.659l7.607,0.66l-7.607,0.655l7.607,0.66l-7.607,0.659l7.607,0.654l-7.607,0.655
			l7.607,0.66l-7.607,0.66l4.101,0.354H23.187l4.103-0.354l-7.607-0.66l7.607-0.66l-7.607-0.655l7.607-0.654l-7.607-0.659
			l7.607-0.66l-7.607-0.655l7.607-0.66l-7.607-0.659l7.607-0.655l-7.61-0.66l7.61-0.66l-7.607-0.653l6.906-0.6l-6.906-0.695
			l0.105-0.011l-0.105-0.009l7.499-0.65l-7.499-0.649l0.105-0.005l-0.105-0.016l6.909-0.701l-6.909-0.593l7.607-0.66l-7.61-0.655
			l7.61-0.66l-7.607-0.654l7.607-0.659l-7.607-0.66L22.67,40.002L22.67,40.002z M55.376,40.002h13.055l2.996,0.256l-7.607,0.66
			l7.607,0.659l-7.607,0.654l7.607,0.66l-7.607,0.655l7.607,0.66l-6.912,0.598l6.912,0.696l-0.107,0.016l0.107,0.005l-7.5,0.649
			l7.5,0.65l-0.107,0.009l0.107,0.011l-6.909,0.695l6.909,0.6l-7.607,0.653l7.607,0.66l-7.607,0.66l7.607,0.655l-7.607,0.659
			l7.607,0.66l-7.607,0.655l7.607,0.66l-7.607,0.659l7.607,0.654l-7.607,0.655l7.607,0.66l-7.607,0.66l4.1,0.354H55.893l4.1-0.354
			l-7.606-0.66l7.606-0.66l-7.606-0.655l7.606-0.654l-7.606-0.659l7.606-0.66l-7.606-0.655l7.606-0.66l-7.606-0.659l7.606-0.655
			l-7.606-0.66l7.606-0.66l-7.606-0.653l6.908-0.6l-6.908-0.695l0.107-0.011l-0.107-0.009l7.499-0.65l-7.499-0.649l0.107-0.005
			l-0.107-0.016l6.911-0.701l-6.911-0.593l7.606-0.66l-7.606-0.655l7.606-0.66l-7.606-0.654l7.606-0.659l-7.606-0.66L55.376,40.002z
			"/>
		<path fill-rule="evenodd" clip-rule="evenodd" fill="#C3161C" d="M88.082,40.002h13.056l-4.615-0.399l7.61-0.66l-7.61-0.659
			l7.607-0.654l-7.607-0.657l7.607-0.66l-7.607-0.657l7.61-0.658l-7.61-0.656l7.607-0.657l-7.607-0.66l7.607-0.657l-7.607-0.654
			l7.61-0.66l-7.61-0.657l7.607-0.657l-7.607-0.657l7.61-0.66l-7.61-0.658l7.607-0.659l-7.607-0.654l7.607-0.66l-7.607-0.658
			l7.607-0.657l-7.607-0.659l7.607-0.655l-2.297-0.2H87.392l-2.299,0.2l7.606,0.655l-7.606,0.659l7.606,0.657l-7.606,0.658
			l7.606,0.66l-7.606,0.654l7.606,0.659l-7.606,0.658l7.606,0.66l-7.606,0.657l7.606,0.657l-7.606,0.657l7.606,0.66l-7.606,0.654
			l7.609,0.657l-7.609,0.66l7.606,0.657l-7.606,0.656l7.606,0.658l-7.606,0.657l7.606,0.657l-7.606,0.66l7.606,0.654l-7.606,0.659
			l7.606,0.66L88.082,40.002L88.082,40.002z M22.67,40.002h13.055l-4.612-0.399l7.607-0.66l-7.607-0.659l7.607-0.654l-7.607-0.657
			l7.607-0.66l-7.607-0.657l7.607-0.658l-7.607-0.656l7.607-0.657l-7.607-0.66l7.607-0.657l-7.607-0.654l7.607-0.66l-7.607-0.657
			l7.607-0.657l-7.607-0.657l7.607-0.66l-7.607-0.658l7.607-0.659l-7.607-0.654l7.607-0.66l-7.607-0.658l7.607-0.657l-7.607-0.659
			l7.607-0.655l-2.299-0.2H21.979l-2.297,0.2l7.607,0.655l-7.607,0.659l7.607,0.657l-7.607,0.658l7.607,0.66l-7.607,0.654
			l7.607,0.659l-7.607,0.658l7.607,0.66l-7.607,0.657l7.607,0.657l-7.607,0.657l7.607,0.66l-7.607,0.654l7.607,0.657l-7.607,0.66
			l7.607,0.657l-7.607,0.656l7.607,0.658l-7.607,0.657l7.607,0.657l-7.607,0.66l7.607,0.654l-7.607,0.659l7.607,0.66L22.67,40.002
			L22.67,40.002z M55.376,40.002h13.055l-4.611-0.399l7.607-0.66l-7.607-0.659l7.607-0.654l-7.607-0.657l7.607-0.66l-7.607-0.657
			l7.607-0.658l-7.607-0.656l7.607-0.657l-7.607-0.66l7.607-0.657l-7.607-0.654l7.607-0.66l-7.607-0.657l7.607-0.657l-7.607-0.657
			l7.607-0.66l-7.607-0.658l7.607-0.659l-7.607-0.654l7.607-0.66l-7.607-0.658l7.607-0.657l-7.607-0.659l7.607-0.655l-2.301-0.2
			h-14.44l-2.299,0.2l7.606,0.655l-7.606,0.659l7.606,0.657l-7.606,0.658l7.606,0.66l-7.606,0.654l7.606,0.659l-7.606,0.658
			l7.606,0.66l-7.606,0.657l7.606,0.657l-7.606,0.657l7.606,0.66l-7.606,0.654l7.609,0.657l-7.609,0.66l7.606,0.657l-7.606,0.656
			l7.606,0.658l-7.606,0.657l7.606,0.657l-7.606,0.66l7.606,0.654l-7.606,0.659l7.606,0.66L55.376,40.002z"/>
		<path fill-rule="evenodd" clip-rule="evenodd" fill="#231F20" d="M86.663,5.913h15.896l1.573,0.139l-7.61,0.659l7.607,0.654
			l-7.607,0.66l7.607,0.658l-7.607,0.657l7.607,0.658l-7.607,0.655l7.607,0.66l-7.607,0.658l7.607,0.659l-7.607,0.656l7.61,0.658
			l-7.61,0.657l7.607,0.655l-7.607,0.66l7.607,0.657l-7.607,0.659l7.61,0.657l-7.61,0.66l7.607,0.655l-7.607,0.655l7.607,0.661
			l-7.607,0.658l7.607,0.66L96.522,22.5l5.311,0.457H87.392l5.308-0.457l-7.606-0.657l7.606-0.66l-7.606-0.658l7.606-0.656
			l-7.606-0.66l7.606-0.655l-7.606-0.66l7.606-0.66l-7.606-0.656l7.606-0.657l-7.606-0.66l7.606-0.655l-7.606-0.657l7.606-0.658
			l-7.606-0.656l7.606-0.659l-7.606-0.658l7.606-0.66l-7.606-0.655l7.606-0.658l-7.606-0.657l7.606-0.658l-7.606-0.66l7.606-0.654
			l-7.606-0.659L86.663,5.913L86.663,5.913z M21.252,5.913h15.894l1.573,0.139l-7.607,0.659l7.607,0.654l-7.607,0.66l7.607,0.658
			l-7.607,0.657l7.607,0.658l-7.607,0.655l7.607,0.66l-7.607,0.658l7.607,0.659l-7.607,0.656l7.607,0.658l-7.607,0.657l7.607,0.655
			l-7.607,0.66l7.607,0.657l-7.607,0.659l7.607,0.657l-7.607,0.66l7.607,0.655l-7.607,0.655l7.607,0.661l-7.607,0.658l7.607,0.66
			L31.113,22.5l5.308,0.457H21.979l5.31-0.457l-7.607-0.657l7.607-0.66l-7.607-0.658l7.607-0.656l-7.607-0.66l7.607-0.655
			l-7.607-0.66l7.607-0.66l-7.607-0.656l7.607-0.657l-7.607-0.66l7.607-0.655l-7.607-0.657l7.607-0.658l-7.607-0.656l7.607-0.659
			l-7.607-0.658l7.607-0.66l-7.607-0.655l7.607-0.658l-7.607-0.657l7.607-0.658l-7.607-0.66l7.607-0.654l-7.607-0.659L21.252,5.913
			L21.252,5.913z M53.956,5.913h15.9l1.57,0.139l-7.607,0.659l7.607,0.654l-7.607,0.66l7.607,0.658l-7.607,0.657l7.607,0.658
			l-7.607,0.655l7.607,0.66l-7.607,0.658l7.607,0.659l-7.607,0.656l7.607,0.658l-7.607,0.657l7.607,0.655l-7.607,0.66l7.607,0.657
			l-7.607,0.659l7.607,0.657l-7.607,0.66l7.607,0.655l-7.607,0.655l7.607,0.661l-7.607,0.658l7.607,0.66L63.819,22.5l5.307,0.457
			h-14.44l5.307-0.457l-7.606-0.657l7.606-0.66l-7.606-0.658l7.606-0.656l-7.606-0.66l7.606-0.655l-7.606-0.66l7.606-0.66
			l-7.606-0.656l7.606-0.657l-7.606-0.66l7.606-0.655l-7.606-0.657l7.606-0.658l-7.606-0.656l7.606-0.659l-7.606-0.658l7.606-0.66
			l-7.606-0.655l7.606-0.658l-7.606-0.657l7.606-0.658l-7.606-0.66l7.606-0.654l-7.606-0.659L53.956,5.913z"/>
	</g>
</g>
</svg>
