<?xml version="1.0" encoding="utf-8"?>
<!-- Generator: Adobe Illustrator 15.0.0, SVG Export Plug-In . SVG Version: 6.00 Build 0)  -->
<!DOCTYPE svg PUBLIC "-//W3C//DTD SVG 1.1//EN" "http://www.w3.org/Graphics/SVG/1.1/DTD/svg11.dtd">
<svg version="1.1" id="Layer_1" xmlns="http://www.w3.org/2000/svg" xmlns:xlink="http://www.w3.org/1999/xlink" x="0px" y="0px"
	 width="121.739px" height="65.218px" viewBox="0 0 121.739 65.218" enable-background="new 0 0 121.739 65.218"
	 xml:space="preserve">
<g>
	<rect x="12.019" y="4.741" fill-rule="evenodd" clip-rule="evenodd" fill="#231F20" width="99.774" height="52.885"/>
	<g>
		<rect x="12.899" y="22.66" fill-rule="evenodd" clip-rule="evenodd" fill="#FFCA05" width="98.014" height="17.046"/>
		<path fill-rule="evenodd" clip-rule="evenodd" fill="#EBAC13" d="M27.264,39.706h3.875l7.581-0.659l-7.607-0.66l7.607-0.655
			l-7.607-0.66l7.607-0.66l-7.607-0.659l7.607-0.66l-7.607-0.655l7.607-0.665l-7.607-0.659l7.607-0.66l-7.607-0.655l7.607-0.66
			l-7.607-0.659l7.607-0.66l-7.607-0.66l7.607-0.659l-7.607-0.659l7.607-0.66l-7.607-0.655l7.607-0.665l-7.607-0.655l7.607-0.659
			l-7.607-0.66l7.607-0.66l-6.481-0.563h-6.077l-6.479,0.563l7.607,0.66l-7.607,0.66l7.607,0.659l-7.607,0.655l7.607,0.665
			l-7.607,0.655l7.607,0.66l-7.607,0.659l7.607,0.659l-7.607,0.66l7.607,0.66l-7.607,0.659l7.607,0.66l-7.607,0.655l7.607,0.66
			l-7.607,0.659l7.607,0.66l-7.607,0.66l7.607,0.66l-7.607,0.659l7.607,0.66l-7.607,0.66l7.607,0.655l-7.607,0.66L27.264,39.706
			L27.264,39.706z M59.967,39.706h3.878l7.582-0.659l-7.607-0.66l7.607-0.655l-7.607-0.66l7.607-0.66l-7.607-0.659l7.607-0.66
			l-7.607-0.655l7.607-0.665l-7.607-0.659l7.607-0.66l-7.607-0.655l7.607-0.66l-7.607-0.659l7.607-0.66l-7.607-0.66l7.607-0.659
			l-7.607-0.659l7.607-0.66l-7.607-0.655l7.607-0.665l-7.607-0.655l7.607-0.659l-7.607-0.66l7.607-0.66l-6.482-0.563h-6.077
			l-6.481,0.563l7.606,0.66l-7.606,0.66l7.606,0.659l-7.606,0.655l7.606,0.665l-7.606,0.655l7.606,0.66l-7.606,0.659l7.606,0.659
			l-7.606,0.66l7.606,0.66l-7.606,0.659l7.606,0.66l-7.606,0.655l7.606,0.66l-7.606,0.659l7.606,0.66l-7.606,0.66l7.606,0.66
			l-7.606,0.659l7.606,0.66l-7.606,0.66l7.606,0.655l-7.606,0.66L59.967,39.706L59.967,39.706z M92.674,39.706h3.874l7.582-0.659
			l-7.607-0.66l7.607-0.655l-7.607-0.66l7.607-0.66l-7.607-0.659l7.607-0.66l-7.607-0.655l7.61-0.665l-7.61-0.659l7.607-0.66
			l-7.607-0.655l7.607-0.66l-7.607-0.659l7.607-0.66l-7.607-0.66l7.607-0.659l-7.607-0.659l7.607-0.66l-7.607-0.655l7.61-0.665
			l-7.61-0.655l7.607-0.659l-7.607-0.66l7.607-0.66l-6.479-0.563h-6.08l-6.479,0.563l7.606,0.66l-7.606,0.66l7.606,0.659
			l-7.606,0.655l7.606,0.665l-7.606,0.655l7.606,0.66l-7.606,0.659l7.606,0.659l-7.606,0.66l7.606,0.66l-7.606,0.659l7.606,0.66
			l-7.606,0.655l7.606,0.66l-7.606,0.659l7.606,0.66l-7.606,0.66l7.606,0.66l-7.606,0.659l7.606,0.66l-7.606,0.66l7.606,0.655
			l-7.606,0.66L92.674,39.706z"/>
		<rect x="12.899" y="5.621" fill-rule="evenodd" clip-rule="evenodd" fill="#EC1C24" width="98.014" height="17.039"/>
		<polygon fill-rule="evenodd" clip-rule="evenodd" fill="#EC1C24" points="61.906,29.024 62.44,30.677 64.177,30.677 
			62.771,31.694 63.311,33.348 61.906,32.324 60.502,33.348 61.042,31.694 59.632,30.677 61.372,30.677 		"/>
		<rect x="12.899" y="39.706" fill-rule="evenodd" clip-rule="evenodd" fill="#008F41" width="98.014" height="17.041"/>
		<polygon fill-rule="evenodd" clip-rule="evenodd" fill="#231F20" points="61.906,22.933 63.946,29.25 70.587,29.234 
			65.205,33.127 67.272,39.44 61.906,35.526 56.54,39.44 58.606,33.127 53.225,29.234 59.865,29.25 		"/>
		<path fill-rule="evenodd" clip-rule="evenodd" fill="#C3161C" d="M58.867,22.66l1.125-0.097l-7.606-0.659l7.606-0.655
			l-7.606-0.665l7.606-0.655l-7.606-0.659l7.609-0.66l-7.609-0.66l7.606-0.66l-7.606-0.659l7.606-0.66l-7.606-0.66l7.606-0.66
			l-7.606-0.659l7.606-0.655l-7.606-0.659l7.606-0.66l-7.606-0.66l7.606-0.659l-7.606-0.66l7.606-0.66l-7.606-0.66l7.606-0.654
			l-7.606-0.66l7.606-0.66l-7.606-0.66l5.312-0.46h8.415l5.313,0.46l-7.607,0.66l7.607,0.66l-7.607,0.66l7.607,0.654l-7.607,0.66
			l7.607,0.66l-7.607,0.66l7.607,0.659l-7.607,0.66l7.607,0.66l-7.607,0.659l7.607,0.655l-7.607,0.659l7.607,0.66l-7.607,0.66
			l7.607,0.66l-7.607,0.659l7.607,0.66l-7.607,0.66l7.607,0.66l-7.607,0.659l7.607,0.655l-7.607,0.665l7.607,0.655l-7.607,0.659
			l1.125,0.097H58.867L58.867,22.66z M97.651,22.66l-1.129-0.097l7.61-0.659l-7.61-0.655l7.61-0.665l-7.61-0.655l7.607-0.659
			l-7.607-0.66l7.607-0.66l-7.607-0.66l7.607-0.659l-7.607-0.66l7.607-0.66l-7.607-0.66l7.61-0.659l-7.61-0.655l7.607-0.659
			l-7.607-0.66l7.61-0.66l-7.61-0.659l7.61-0.66l-7.61-0.66l7.607-0.66l-7.607-0.654l7.61-0.66l-7.61-0.66l7.607-0.66l-5.311-0.46
			h-8.414l-5.312,0.46l7.606,0.66l-7.606,0.66l7.606,0.66l-7.606,0.654l7.606,0.66l-7.606,0.66l7.606,0.66l-7.606,0.659l7.606,0.66
			l-7.606,0.66l7.606,0.659l-7.606,0.655l7.606,0.659l-7.606,0.66l7.606,0.66l-7.606,0.66l7.606,0.659l-7.606,0.66l7.609,0.66
			l-7.609,0.66l7.606,0.659l-7.609,0.655l7.609,0.665l-7.609,0.655l7.609,0.659l-1.128,0.097H97.651L97.651,22.66z M32.238,22.66
			l-1.125-0.097l7.607-0.659l-7.607-0.655l7.607-0.665l-7.607-0.655l7.607-0.659l-7.607-0.66l7.607-0.66l-7.607-0.66l7.607-0.659
			l-7.607-0.66l7.607-0.66l-7.607-0.66l7.607-0.659l-7.607-0.655l7.607-0.659l-7.607-0.66l7.607-0.66l-7.607-0.659l7.607-0.66
			l-7.607-0.66l7.607-0.66l-7.607-0.654l7.607-0.66l-7.607-0.66l7.607-0.66l-5.312-0.46h-8.415l-5.31,0.46l7.607,0.66l-7.607,0.66
			l7.607,0.66l-7.607,0.654l7.607,0.66l-7.607,0.66l7.607,0.66l-7.607,0.659l7.607,0.66l-7.607,0.66l7.607,0.659l-7.607,0.655
			l7.607,0.659l-7.607,0.66l7.607,0.66l-7.607,0.66l7.607,0.659l-7.607,0.66l7.607,0.66l-7.607,0.66l7.607,0.659l-7.61,0.655
			l7.61,0.665l-7.61,0.655l7.61,0.659l-1.128,0.097H32.238z"/>
		<path fill-rule="evenodd" clip-rule="evenodd" fill="#007F3E" d="M92.674,39.706h3.874h-0.025l7.607,0.66l-7.607,0.66l7.61,0.659
			l-7.61,0.66l7.607,0.655l-7.607,0.66l7.607,0.66l-7.607,0.664l7.61,0.655l-7.61,0.66l7.607,0.66l-7.607,0.658l7.607,0.66
			l-7.607,0.655l7.607,0.665l-7.607,0.659l7.607,0.655l-7.607,0.66l7.607,0.66l-7.607,0.66l7.607,0.659l-7.607,0.66l7.607,0.66
			l-7.607,0.659l7.61,0.655l-6.429,0.559h-6.184l-6.428-0.559l7.606-0.655l-7.606-0.659l7.606-0.66l-7.606-0.66l7.606-0.659
			l-7.606-0.66l7.606-0.66l-7.606-0.66l7.606-0.655L85.093,49.6l7.606-0.665l-7.606-0.655l7.606-0.66l-7.606-0.658l7.606-0.66
			l-7.606-0.66l7.606-0.66l-7.606-0.659l7.606-0.66l-7.606-0.66l7.606-0.655l-7.606-0.66l7.606-0.659l-7.606-0.66l7.606-0.66H92.674
			L92.674,39.706z M27.264,39.706h3.875h-0.026l7.607,0.66l-7.607,0.66l7.607,0.659l-7.607,0.66l7.607,0.655l-7.607,0.66l7.607,0.66
			l-7.607,0.664l7.607,0.655l-7.607,0.66l7.607,0.66l-7.607,0.658l7.607,0.66l-7.607,0.655L38.72,49.6l-7.607,0.659l7.607,0.655
			l-7.607,0.66l7.607,0.66l-7.607,0.66l7.607,0.659l-7.607,0.66l7.607,0.66l-7.607,0.659l7.607,0.655l-6.427,0.559h-6.185
			l-6.426-0.559l7.607-0.655l-7.607-0.659l7.607-0.66l-7.607-0.66l7.607-0.659l-7.607-0.66l7.607-0.66l-7.607-0.66l7.607-0.655
			L19.682,49.6l7.607-0.665l-7.607-0.655l7.607-0.66l-7.607-0.658l7.607-0.66l-7.607-0.66l7.607-0.66l-7.607-0.659l7.607-0.66
			l-7.607-0.66l7.607-0.655l-7.607-0.66l7.607-0.659l-7.607-0.66l7.607-0.66H27.264L27.264,39.706z M59.967,39.706h3.878h-0.025
			l7.607,0.66l-7.607,0.66l7.607,0.659l-7.607,0.66l7.607,0.655l-7.607,0.66l7.607,0.66l-7.607,0.664l7.607,0.655l-7.607,0.66
			l7.607,0.66l-7.607,0.658l7.607,0.66l-7.607,0.655l7.607,0.665l-7.607,0.659l7.607,0.655l-7.607,0.66l7.607,0.66l-7.607,0.66
			l7.607,0.659l-7.607,0.66l7.607,0.66l-7.607,0.659l7.607,0.655l-6.429,0.559h-6.187l-6.425-0.559l7.606-0.655l-7.606-0.659
			l7.606-0.66l-7.606-0.66l7.606-0.659l-7.606-0.66l7.606-0.66l-7.606-0.66l7.606-0.655L52.386,49.6l7.606-0.665l-7.606-0.655
			l7.606-0.66l-7.606-0.658l7.606-0.66l-7.606-0.66l7.606-0.66l-7.606-0.659l7.606-0.66l-7.606-0.66l7.606-0.655l-7.606-0.66
			l7.606-0.659l-7.606-0.66l7.606-0.66H59.967z"/>
	</g>
</g>
</svg>
