<?xml version="1.0" encoding="utf-8"?>
<!-- Generator: Adobe Illustrator 15.0.0, SVG Export Plug-In . SVG Version: 6.00 Build 0)  -->
<!DOCTYPE svg PUBLIC "-//W3C//DTD SVG 1.1//EN" "http://www.w3.org/Graphics/SVG/1.1/DTD/svg11.dtd">
<svg version="1.1" id="Layer_1" xmlns="http://www.w3.org/2000/svg" xmlns:xlink="http://www.w3.org/1999/xlink" x="0px" y="0px"
	 width="121.739px" height="65.218px" viewBox="0 0 121.739 65.218" enable-background="new 0 0 121.739 65.218"
	 xml:space="preserve">
<g>
	<rect x="12.374" y="4.682" fill-rule="evenodd" clip-rule="evenodd" fill="#231F20" width="99.75" height="52.874"/>
	<g>
		<rect x="13.25" y="5.562" fill-rule="evenodd" clip-rule="evenodd" fill="#FFFFFF" width="97.994" height="51.113"/>
		<polygon fill-rule="evenodd" clip-rule="evenodd" fill="#D8E1E7" points="67.888,5.562 56.61,5.562 60.336,5.879 52.73,6.539 
			60.336,7.198 52.73,7.854 60.336,8.513 52.73,9.168 60.336,9.828 52.73,10.482 60.336,11.142 52.73,11.797 60.336,12.457 
			52.73,13.117 60.336,13.772 52.73,14.432 60.336,15.086 52.73,15.746 60.336,16.401 52.73,17.062 60.336,17.722 52.73,18.376 
			60.336,19.036 52.73,19.69 60.336,20.351 52.73,21.006 60.336,21.666 52.73,22.325 60.336,22.98 52.73,23.641 60.336,24.295 
			52.73,24.955 60.336,25.614 52.73,26.27 60.336,26.93 52.73,27.584 60.336,28.245 52.73,28.904 60.336,29.559 52.73,30.218 
			60.336,30.873 52.73,31.533 60.336,32.188 52.73,32.848 60.336,33.502 52.73,34.162 60.336,34.822 52.73,35.478 60.336,36.137 
			52.73,36.792 60.336,37.452 52.73,38.106 60.336,38.767 52.73,39.426 60.336,40.081 52.73,40.741 60.336,41.396 52.73,42.057 
			60.336,42.711 52.73,43.37 60.336,44.03 52.73,44.686 60.336,45.346 52.73,46 60.336,46.66 52.73,47.314 60.336,47.975 
			52.73,48.635 60.336,49.29 52.73,49.944 60.336,50.604 52.73,51.264 60.336,51.919 52.73,52.579 60.336,53.239 52.73,53.895 
			60.336,54.547 52.73,55.207 60.336,55.867 52.73,56.522 54.5,56.676 69.997,56.676 71.765,56.522 64.161,55.867 71.765,55.207 
			64.161,54.547 71.765,53.895 64.161,53.239 71.765,52.579 64.161,51.919 71.765,51.264 64.161,50.604 71.765,49.944 64.161,49.29 
			71.765,48.635 64.161,47.975 71.765,47.314 64.161,46.66 71.765,46 64.161,45.346 71.765,44.686 64.161,44.03 71.765,43.37 
			64.161,42.711 71.765,42.057 64.161,41.396 71.765,40.741 64.161,40.081 71.765,39.426 64.161,38.767 71.765,38.106 
			64.161,37.452 71.765,36.792 64.161,36.137 71.765,35.478 64.158,34.822 71.765,34.162 64.161,33.502 71.765,32.848 
			64.161,32.188 71.765,31.533 64.161,30.873 71.765,30.218 64.161,29.559 71.765,28.904 64.161,28.245 71.765,27.584 64.161,26.93 
			71.765,26.27 64.158,25.614 71.765,24.955 64.161,24.295 71.765,23.641 64.161,22.98 71.765,22.325 64.161,21.666 71.765,21.006 
			64.161,20.351 71.765,19.69 64.161,19.036 71.765,18.376 64.158,17.722 71.765,17.062 64.161,16.401 71.765,15.746 64.161,15.086 
			71.765,14.432 64.158,13.772 71.765,13.117 64.161,12.457 71.765,11.797 64.161,11.142 71.765,10.482 64.161,9.828 71.765,9.168 
			64.161,8.513 71.767,7.854 64.161,7.198 71.765,6.539 64.161,5.879 		"/>
		<ellipse fill-rule="evenodd" clip-rule="evenodd" fill="#EC1C24" cx="62.247" cy="31.119" rx="15.393" ry="15.443"/>
		<polygon fill-rule="evenodd" clip-rule="evenodd" fill="#D8E1E7" points="35.188,5.562 23.909,5.562 27.638,5.879 20.031,6.539 
			27.638,7.198 20.031,7.854 27.638,8.513 20.031,9.168 27.638,9.828 20.031,10.482 27.638,11.142 20.031,11.797 27.638,12.457 
			20.031,13.117 27.638,13.772 20.031,14.432 27.638,15.086 20.031,15.746 27.638,16.401 20.031,17.062 27.638,17.722 
			20.031,18.376 27.638,19.036 20.031,19.69 27.638,20.351 20.031,21.006 27.638,21.666 20.031,22.325 27.638,22.98 20.031,23.641 
			27.638,24.295 20.031,24.955 27.638,25.614 20.031,26.27 27.638,26.93 20.031,27.584 27.638,28.245 20.031,28.904 27.638,29.559 
			20.031,30.218 27.638,30.873 20.031,31.533 27.638,32.188 20.031,32.848 27.638,33.502 20.031,34.162 27.638,34.822 
			20.031,35.478 27.638,36.137 20.031,36.792 27.638,37.452 20.031,38.106 27.638,38.767 20.031,39.426 27.638,40.081 
			20.031,40.741 27.638,41.396 20.031,42.057 27.638,42.711 20.031,43.37 27.638,44.03 20.031,44.686 27.638,45.346 20.031,46 
			27.638,46.66 20.031,47.314 27.638,47.975 20.031,48.635 27.638,49.29 20.031,49.944 27.638,50.604 20.031,51.264 27.638,51.919 
			20.031,52.579 27.638,53.239 20.031,53.895 27.638,54.547 20.031,55.207 27.638,55.867 20.031,56.522 21.801,56.676 
			37.296,56.676 39.066,56.522 31.459,55.867 39.066,55.207 31.459,54.547 39.066,53.895 31.459,53.239 39.066,52.579 
			31.459,51.919 39.066,51.264 31.459,50.604 39.066,49.944 31.459,49.29 39.066,48.635 31.459,47.975 39.066,47.314 31.459,46.66 
			39.066,46 31.459,45.346 39.066,44.686 31.459,44.03 39.066,43.37 31.459,42.711 39.066,42.057 31.459,41.396 39.066,40.741 
			31.459,40.081 39.066,39.426 31.459,38.767 39.066,38.106 31.459,37.452 39.066,36.792 31.459,36.137 39.066,35.478 
			31.459,34.822 39.066,34.162 31.459,33.502 39.066,32.848 31.459,32.188 39.066,31.533 31.459,30.873 39.066,30.218 
			31.459,29.559 39.066,28.904 31.459,28.245 39.066,27.584 31.459,26.93 39.066,26.27 31.459,25.614 39.066,24.955 31.459,24.295 
			39.066,23.641 31.459,22.98 39.066,22.325 31.459,21.666 39.066,21.006 31.459,20.351 39.066,19.69 31.459,19.036 39.066,18.376 
			31.459,17.722 39.066,17.062 31.459,16.401 39.066,15.746 31.459,15.086 39.066,14.432 31.459,13.772 39.066,13.117 
			31.459,12.457 39.066,11.797 31.459,11.142 39.066,10.482 31.459,9.828 39.066,9.168 31.459,8.513 39.066,7.854 31.459,7.198 
			39.066,6.539 31.459,5.879 		"/>
		<path fill-rule="evenodd" clip-rule="evenodd" fill="#B01117" d="M62.25,46.562c1.849,0,3.624-0.327,5.269-0.931l-3.357-0.286
			l5.022-0.436c0.241-0.122,0.479-0.25,0.711-0.388l-5.733-0.492l7.435-0.645l0.036-0.025l-7.471-0.649l7.604-0.654l-7.604-0.66
			l7.604-0.655l-7.604-0.66l7.604-0.655l-7.604-0.659l7.604-0.66l-7.604-0.654l7.604-0.66l-7.604-0.655l7.604-0.659l-7.606-0.655
			l7.606-0.66l-7.604-0.66l7.604-0.654l-7.604-0.659l7.604-0.655l-7.604-0.66l7.604-0.655l-7.604-0.659l7.604-0.654l-7.604-0.659
			l7.604-0.661l-7.604-0.654l7.604-0.66l-7.606-0.655l7.606-0.659l-7.604-0.66l7.604-0.654l-7.604-0.66l7.604-0.655l-7.604-0.659
			l7.604-0.66l-7.604-0.655l7.604-0.66l-7.604-0.654l6.875-0.594l-0.207-0.148l-6.671-0.572l4.949-0.43
			c-0.417-0.21-0.847-0.4-1.284-0.574l-3.662-0.316l2.141-0.185c-1.292-0.353-2.65-0.541-4.052-0.541
			c-1.407,0-2.763,0.188-4.057,0.541l2.143,0.185l-3.663,0.316c-0.44,0.174-0.867,0.364-1.284,0.574l4.946,0.43l-6.668,0.572
			l-0.207,0.148l6.875,0.594L52.73,19.69l7.606,0.66l-7.606,0.655l7.606,0.66l-7.606,0.659l7.606,0.655l-7.606,0.66l7.606,0.654
			l-7.606,0.66l7.606,0.659L52.73,26.27l7.606,0.66l-7.606,0.654l7.606,0.661l-7.606,0.659l7.606,0.654l-7.606,0.659l7.606,0.655
			l-7.606,0.66l7.606,0.655l-7.606,0.659l7.606,0.654l-7.606,0.66l7.606,0.66l-7.606,0.655l7.606,0.659l-7.606,0.655l7.606,0.66
			l-7.606,0.654l7.606,0.66l-7.606,0.659l7.606,0.655l-7.606,0.66l7.606,0.655l-7.606,0.66l7.606,0.654l-7.471,0.649l0.034,0.025
			l7.438,0.645L54.6,44.522c0.235,0.138,0.473,0.266,0.713,0.388l5.023,0.436l-3.358,0.286
			C58.623,46.235,60.398,46.562,62.25,46.562z"/>
		<polygon fill-rule="evenodd" clip-rule="evenodd" fill="#D8E1E7" points="100.585,5.562 89.31,5.562 93.036,5.879 85.429,6.539 
			93.036,7.198 85.429,7.854 93.036,8.513 85.429,9.168 93.036,9.828 85.429,10.482 93.036,11.142 85.429,11.797 93.036,12.457 
			85.429,13.117 93.036,13.772 85.429,14.432 93.036,15.086 85.429,15.746 93.036,16.401 85.429,17.062 93.036,17.722 
			85.429,18.376 93.036,19.036 85.429,19.69 93.036,20.351 85.429,21.006 93.036,21.666 85.429,22.325 93.036,22.98 85.431,23.641 
			93.036,24.295 85.429,24.955 93.036,25.614 85.429,26.27 93.036,26.93 85.429,27.584 93.036,28.245 85.429,28.904 93.036,29.559 
			85.429,30.218 93.036,30.873 85.429,31.533 93.036,32.188 85.429,32.848 93.036,33.502 85.429,34.162 93.036,34.822 
			85.429,35.478 93.036,36.137 85.429,36.792 93.036,37.452 85.429,38.106 93.036,38.767 85.429,39.426 93.036,40.081 
			85.429,40.741 93.036,41.396 85.429,42.057 93.036,42.711 85.429,43.37 93.036,44.03 85.429,44.686 93.036,45.346 85.429,46 
			93.036,46.66 85.429,47.314 93.036,47.975 85.429,48.635 93.036,49.29 85.429,49.944 93.036,50.604 85.429,51.264 93.036,51.919 
			85.429,52.579 93.036,53.239 85.429,53.895 93.036,54.547 85.429,55.207 93.036,55.867 85.429,56.522 87.198,56.676 
			102.694,56.676 104.464,56.522 96.859,55.867 104.464,55.207 96.859,54.547 104.464,53.895 96.859,53.239 104.464,52.579 
			96.859,51.919 104.464,51.264 96.859,50.604 104.464,49.944 96.859,49.29 104.464,48.635 96.859,47.975 104.464,47.314 
			96.859,46.66 104.464,46 96.859,45.346 104.464,44.686 96.859,44.03 104.464,43.37 96.859,42.711 104.464,42.057 96.859,41.396 
			104.464,40.741 96.859,40.081 104.464,39.426 96.859,38.767 104.464,38.106 96.859,37.452 104.464,36.792 96.859,36.137 
			104.464,35.478 96.859,34.822 104.464,34.162 96.859,33.502 104.464,32.848 96.859,32.188 104.464,31.533 96.859,30.873 
			104.464,30.218 96.859,29.559 104.464,28.904 96.859,28.245 104.464,27.584 96.859,26.93 104.464,26.27 96.859,25.614 
			104.464,24.955 96.859,24.295 104.464,23.641 96.859,22.98 104.464,22.325 96.859,21.666 104.464,21.006 96.859,20.351 
			104.464,19.69 96.859,19.036 104.464,18.376 96.859,17.722 104.464,17.062 96.859,16.401 104.464,15.746 96.859,15.086 
			104.464,14.432 96.859,13.772 104.464,13.117 96.859,12.457 104.464,11.797 96.859,11.142 104.464,10.482 96.859,9.828 
			104.464,9.168 96.859,8.513 104.466,7.854 96.859,7.198 104.464,6.539 96.859,5.879 		"/>
	</g>
</g>
</svg>
