<?xml version="1.0" encoding="utf-8"?>
<!-- Generator: Adobe Illustrator 15.0.0, SVG Export Plug-In . SVG Version: 6.00 Build 0)  -->
<!DOCTYPE svg PUBLIC "-//W3C//DTD SVG 1.1//EN" "http://www.w3.org/Graphics/SVG/1.1/DTD/svg11.dtd">
<svg version="1.1" id="Layer_1" xmlns="http://www.w3.org/2000/svg" xmlns:xlink="http://www.w3.org/1999/xlink" x="0px" y="0px"
	 width="121.739px" height="65.218px" viewBox="0 0 121.739 65.218" enable-background="new 0 0 121.739 65.218"
	 xml:space="preserve">
<g>
	<rect x="12.019" y="4.353" fill-rule="evenodd" clip-rule="evenodd" fill="#231F20" width="99.774" height="52.885"/>
	<g>
		<rect x="12.899" y="5.228" fill-rule="evenodd" clip-rule="evenodd" fill="#F7F7F8" width="98.014" height="51.129"/>
		<polygon fill-rule="evenodd" clip-rule="evenodd" fill="#D8E1E7" points="33.315,56.356 25.086,56.356 27.289,56.169 
			19.682,55.509 27.289,54.854 19.682,54.193 27.289,53.539 19.682,52.88 27.289,52.22 19.682,51.564 27.289,50.904 19.682,50.245 
			27.289,49.59 19.682,48.93 27.289,48.275 19.682,47.615 27.289,46.955 19.682,46.301 27.289,45.641 19.682,44.985 27.289,44.325 
			19.682,43.671 27.289,43.012 19.682,42.352 27.289,41.696 19.682,41.036 27.289,40.376 19.682,39.721 27.289,39.062 
			19.679,38.407 27.289,37.747 19.679,37.092 27.289,36.432 19.682,35.772 27.289,35.117 19.682,34.457 27.289,33.798 
			19.682,33.144 27.289,32.484 19.682,31.829 27.289,31.169 19.682,30.514 27.289,29.854 19.682,29.194 27.289,28.54 19.682,27.88 
			27.289,27.22 19.682,26.564 27.289,25.904 19.682,25.25 27.289,24.59 19.682,23.93 27.289,23.275 19.682,22.615 27.289,21.961 
			19.682,21.301 27.289,20.646 19.682,19.985 27.289,19.325 19.682,18.671 27.289,18.012 19.682,17.356 27.289,16.696 
			19.682,16.041 27.289,15.381 19.682,14.722 27.289,14.062 19.682,13.408 27.289,12.747 19.682,12.093 27.289,11.434 
			19.682,10.773 27.289,10.118 19.682,9.458 27.289,8.804 19.682,8.145 27.289,7.483 19.682,6.829 27.289,6.169 19.682,5.514 
			22.953,5.228 35.446,5.228 38.72,5.514 31.113,6.169 38.72,6.829 31.113,7.483 38.72,8.145 31.113,8.804 38.72,9.458 
			31.113,10.118 38.72,10.773 31.113,11.434 38.72,12.093 31.113,12.747 38.72,13.408 31.113,14.062 38.72,14.722 31.113,15.381 
			38.72,16.041 31.113,16.696 38.72,17.356 31.113,18.012 38.72,18.671 31.113,19.325 38.72,19.985 31.113,20.646 38.72,21.301 
			31.113,21.961 38.72,22.615 31.113,23.275 38.72,23.93 31.113,24.59 38.72,25.25 31.113,25.904 38.72,26.564 31.113,27.22 
			38.72,27.88 31.113,28.54 38.72,29.194 31.113,29.854 38.72,30.514 31.113,31.169 38.72,31.829 31.113,32.484 38.72,33.144 
			31.113,33.798 38.72,34.457 31.113,35.117 38.72,35.772 31.113,36.432 38.72,37.092 31.113,37.747 38.72,38.407 31.113,39.062 
			38.72,39.721 31.113,40.376 38.72,41.036 31.113,41.696 38.72,42.352 31.113,43.012 38.72,43.671 31.113,44.325 38.72,44.985 
			31.113,45.641 38.72,46.301 31.113,46.955 38.72,47.615 31.113,48.275 38.72,48.93 31.113,49.59 38.72,50.245 31.113,50.904 
			38.72,51.564 31.113,52.22 38.72,52.88 31.113,53.539 38.72,54.193 31.113,54.854 38.72,55.509 31.113,56.169 		"/>
		<polygon fill-rule="evenodd" clip-rule="evenodd" fill="#D8E1E7" points="98.726,56.356 90.497,56.356 92.699,56.169 
			85.093,55.509 92.699,54.854 85.093,54.193 92.699,53.539 85.093,52.88 92.699,52.22 85.093,51.564 92.699,50.904 85.093,50.245 
			92.699,49.59 85.093,48.93 92.699,48.275 85.093,47.615 92.699,46.955 85.093,46.301 92.699,45.641 85.093,44.985 92.699,44.325 
			85.093,43.671 92.699,43.012 85.093,42.352 92.699,41.696 85.093,41.036 92.699,40.376 85.093,39.721 92.699,39.062 85.09,38.407 
			92.699,37.747 85.09,37.092 92.699,36.432 85.093,35.772 92.699,35.117 85.093,34.457 92.699,33.798 85.093,33.144 92.699,32.484 
			85.093,31.829 92.699,31.169 85.093,30.514 92.699,29.854 85.093,29.194 92.699,28.54 85.093,27.88 92.699,27.22 85.093,26.564 
			92.699,25.904 85.093,25.25 92.699,24.59 85.093,23.93 92.699,23.275 85.093,22.615 92.699,21.961 85.093,21.301 92.699,20.646 
			85.093,19.985 92.699,19.325 85.093,18.671 92.699,18.012 85.093,17.356 92.699,16.696 85.093,16.041 92.699,15.381 
			85.093,14.722 92.699,14.062 85.093,13.408 92.699,12.747 85.093,12.093 92.699,11.434 85.093,10.773 92.699,10.118 85.093,9.458 
			92.699,8.804 85.093,8.145 92.699,7.483 85.093,6.829 92.699,6.169 85.093,5.514 88.366,5.228 100.858,5.228 104.13,5.514 
			96.522,6.169 104.13,6.829 96.522,7.483 104.13,8.145 96.522,8.804 104.13,9.458 96.522,10.118 104.13,10.773 96.522,11.434 
			104.13,12.093 96.522,12.747 104.133,13.408 96.522,14.062 104.13,14.722 96.522,15.381 104.13,16.041 96.522,16.696 
			104.133,17.356 96.522,18.012 104.13,18.671 96.522,19.325 104.13,19.985 96.522,20.646 104.13,21.301 96.522,21.961 
			104.13,22.615 96.522,23.275 104.13,23.93 96.522,24.59 104.133,25.25 96.522,25.904 104.13,26.564 96.522,27.22 104.13,27.88 
			96.522,28.54 104.13,29.194 96.522,29.854 104.13,30.514 96.522,31.169 104.13,31.829 96.522,32.484 104.133,33.144 
			96.522,33.798 104.13,34.457 96.522,35.117 104.133,35.772 96.522,36.432 104.13,37.092 96.522,37.747 104.133,38.407 
			96.522,39.062 104.13,39.721 96.522,40.376 104.13,41.036 96.522,41.696 104.133,42.352 96.522,43.012 104.13,43.671 
			96.522,44.325 104.13,44.985 96.522,45.641 104.13,46.301 96.522,46.955 104.133,47.615 96.522,48.275 104.133,48.93 
			96.522,49.59 104.13,50.245 96.522,50.904 104.13,51.564 96.522,52.22 104.13,52.88 96.522,53.539 104.133,54.193 96.522,54.854 
			104.13,55.509 96.522,56.169 		"/>
		<polygon fill-rule="evenodd" clip-rule="evenodd" fill="#D8E1E7" points="66.019,56.356 57.793,56.356 59.993,56.169 
			52.386,55.509 59.993,54.854 52.386,54.193 59.993,53.539 52.386,52.88 59.993,52.22 52.386,51.564 59.993,50.904 52.386,50.245 
			59.993,49.59 52.386,48.93 59.993,48.275 52.386,47.615 59.993,46.955 52.386,46.301 59.993,45.641 52.386,44.985 59.993,44.325 
			52.386,43.671 59.993,43.012 52.386,42.352 59.993,41.696 52.386,41.036 59.993,40.376 52.386,39.721 59.993,39.062 
			52.386,38.407 59.993,37.747 52.386,37.092 59.993,36.432 52.386,35.772 59.993,35.117 52.386,34.457 59.993,33.798 
			52.386,33.144 59.993,32.484 52.386,31.829 59.993,31.169 52.386,30.514 59.993,29.854 52.386,29.194 59.993,28.54 52.386,27.88 
			59.993,27.22 52.386,26.564 59.993,25.904 52.386,25.25 59.993,24.59 52.386,23.93 59.993,23.275 52.386,22.615 59.993,21.961 
			52.386,21.301 59.993,20.646 52.386,19.985 59.993,19.325 52.386,18.671 59.993,18.012 52.386,17.356 59.993,16.696 
			52.386,16.041 59.993,15.381 52.386,14.722 59.993,14.062 52.386,13.408 59.993,12.747 52.386,12.093 59.993,11.434 
			52.386,10.773 59.993,10.118 52.386,9.458 59.993,8.804 52.386,8.145 59.993,7.483 52.386,6.829 59.993,6.169 52.386,5.514 
			55.66,5.228 68.152,5.228 71.427,5.514 63.819,6.169 71.427,6.829 63.819,7.483 71.427,8.145 63.819,8.804 71.427,9.458 
			63.819,10.118 71.427,10.773 63.819,11.434 71.427,12.093 63.819,12.747 71.427,13.408 63.819,14.062 71.427,14.722 
			63.819,15.381 71.427,16.041 63.819,16.696 71.427,17.356 63.819,18.012 71.427,18.671 63.819,19.325 71.427,19.985 
			63.819,20.646 71.427,21.301 63.819,21.961 71.427,22.615 63.819,23.275 71.427,23.93 63.819,24.59 71.427,25.25 63.819,25.904 
			71.427,26.564 63.819,27.22 71.427,27.88 63.819,28.54 71.427,29.194 63.819,29.854 71.427,30.514 63.819,31.169 71.427,31.829 
			63.819,32.484 71.427,33.144 63.819,33.798 71.427,34.457 63.819,35.117 71.427,35.772 63.819,36.432 71.427,37.092 
			63.819,37.747 71.427,38.407 63.819,39.062 71.427,39.721 63.819,40.376 71.427,41.036 63.819,41.696 71.427,42.352 
			63.819,43.012 71.427,43.671 63.817,44.325 71.427,44.985 63.819,45.641 71.427,46.301 63.819,46.955 71.427,47.615 
			63.817,48.275 71.427,48.93 63.819,49.59 71.427,50.245 63.819,50.904 71.427,51.564 63.819,52.22 71.427,52.88 63.819,53.539 
			71.427,54.193 63.819,54.854 71.427,55.509 63.817,56.169 		"/>
		<path fill-rule="evenodd" clip-rule="evenodd" fill="#EC1C24" d="M61.906,14.998c8.782,0,15.903,7.146,15.903,15.961
			c0,8.809-7.121,15.955-15.903,15.955c-8.784,0-15.904-7.146-15.904-15.955C46.002,22.145,53.122,14.998,61.906,14.998z"/>
		<path fill-rule="evenodd" clip-rule="evenodd" fill="#231F20" d="M38.474,41.845l2.601,3.524l1.151-0.9l-2.58-3.493L38.474,41.845
			L38.474,41.845z M36.456,18.242L42.546,10l1.169,0.87l-6.09,8.241L36.456,18.242L36.456,18.242z M87.356,18.236l-2.715-3.673
			l-1.148,0.9l2.693,3.647L87.356,18.236L87.356,18.236z M85.338,19.74l-1.169,0.869l-6.09-8.24l1.168-0.87L85.338,19.74
			L85.338,19.74z M83.775,13.393L81.269,10l-1.172,0.87l2.527,3.422L83.775,13.393L83.775,13.393z M83.314,21.25l-2.642-3.577
			l-1.148,0.901l2.619,3.545L83.314,21.25L83.314,21.25z M79.806,16.502l-2.584-3.494l-1.168,0.87l2.601,3.519L79.806,16.502
			L79.806,16.502z M40.502,21.25l1.167,0.869l6.09-8.241l-1.169-0.864L40.502,21.25L40.502,21.25z M38.474,19.74l1.172,0.869
			l6.087-8.235l-1.169-0.87L38.474,19.74L38.474,19.74z M36.456,43.349l1.169-0.87l6.09,8.242l-1.169,0.869L36.456,43.349
			L36.456,43.349z M87.356,43.349l-2.715,3.673l-1.148-0.9l2.693-3.643L87.356,43.349L87.356,43.349z M85.338,41.85l-1.169-0.874
			l-2.668,3.61l1.148,0.901L85.338,41.85L85.338,41.85z M81.782,46.659l-2.535,3.427l-1.168-0.87l2.555-3.458L81.782,46.659
			L81.782,46.659z M83.765,48.213l-1.15-0.899l-2.518,3.407l1.172,0.869L83.765,48.213L83.765,48.213z M83.314,40.341l-2.642,3.57
			l-1.148-0.896l2.619-3.544L83.314,40.341L83.314,40.341z M79.795,45.104l-1.151-0.9l-2.59,3.509l1.168,0.87L79.795,45.104
			L79.795,45.104z M40.502,40.335l1.167-0.863l6.09,8.235l-1.169,0.87L40.502,40.335L40.502,40.335z M41.945,46.541l2.619,3.545
			l1.169-0.87l-2.64-3.57L41.945,46.541z"/>
		<path fill-rule="evenodd" clip-rule="evenodd" fill="#C3161C" d="M61.906,14.998c1.028,0,2.033,0.098,3.008,0.287l-1.095,0.096
			l2.371,0.205c0.703,0.195,1.387,0.44,2.046,0.728l-4.417,0.383l6.205,0.537c0.117,0.073,0.232,0.138,0.348,0.216l-6.553,0.562
			l7.607,0.659l-7.607,0.654l7.607,0.66l-7.607,0.66l7.607,0.655l-7.607,0.66l7.607,0.654l-7.607,0.66l7.607,0.654l-7.607,0.66
			l7.607,0.66l-7.607,0.654l7.607,0.66l-7.607,0.655l7.607,0.66l-7.607,0.66l7.607,0.654l-7.607,0.659l7.607,0.66l-7.607,0.655
			l7.607,0.66l-7.607,0.655l7.607,0.659l-7.607,0.654l7.607,0.659l-7.607,0.66l7.607,0.655l-7.607,0.659l7.607,0.66l-7.607,0.655
			l7.607,0.66l-7.607,0.654l7.607,0.659l-7.607,0.655l7.607,0.66l-7.607,0.66l7.607,0.655l-7.607,0.66l7.607,0.659l-7.609,0.654
			l5.928,0.512c-0.209,0.123-0.422,0.236-0.639,0.349l-5.287,0.455l3.543,0.307c-1.704,0.623-3.539,0.967-5.456,0.967
			c-1.919,0-3.755-0.344-5.456-0.967l3.542-0.307l-5.289-0.455c-0.215-0.112-0.427-0.226-0.64-0.349l5.929-0.512l-7.606-0.654
			l7.606-0.659l-7.606-0.66l7.606-0.655l-7.606-0.66l7.606-0.66l-7.606-0.655l7.606-0.659l-7.606-0.654l7.606-0.66l-7.606-0.655
			l7.606-0.66l-7.606-0.659l7.606-0.655l-7.606-0.66l7.606-0.659l-7.606-0.654l7.606-0.659l-7.606-0.655l7.606-0.66l-7.606-0.655
			l7.606-0.66l-7.606-0.659l7.606-0.654l-7.606-0.66l7.606-0.66l-7.606-0.655l7.606-0.66l-7.606-0.654l7.606-0.66l-7.606-0.66
			l7.606-0.654l-7.606-0.66l7.606-0.654l-7.606-0.66l7.606-0.655l-7.606-0.66l7.606-0.66l-7.606-0.654l7.606-0.659l-6.553-0.562
			c0.115-0.078,0.231-0.143,0.348-0.216l6.205-0.537l-4.417-0.383c0.658-0.287,1.338-0.532,2.039-0.728l2.378-0.205l-1.1-0.096
			C59.87,15.096,60.875,14.998,61.906,14.998z"/>
		<path fill-rule="evenodd" clip-rule="evenodd" fill="#0071BB" d="M77.585,28.277c0.144,0.87,0.225,1.767,0.225,2.682
			c0,8.809-7.121,15.955-15.903,15.955c-7.802,0-14.288-5.637-15.644-13.07c-0.007-0.307-0.012-0.618-0.012-0.937
			c1.923-9.581,12.423-9.305,14.776-2.567C64.728,37.251,74.542,41.559,77.585,28.277z"/>
		<path fill-rule="evenodd" clip-rule="evenodd" fill="#003B74" d="M69.748,44.837c-0.21,0.123-0.425,0.236-0.64,0.349l-5.289,0.455
			l3.543,0.307c-1.701,0.623-3.541,0.967-5.456,0.967c-1.919,0-3.752-0.344-5.453-0.967l3.54-0.307l-5.284-0.455
			c-0.217-0.112-0.432-0.226-0.642-0.349l5.926-0.512l-7.606-0.654l7.606-0.659l-7.606-0.66l7.606-0.655l-7.606-0.66l7.606-0.66
			l-7.606-0.655l7.606-0.659l-7.606-0.654l7.606-0.66l-7.606-0.655l7.606-0.66l-7.606-0.659l7.606-0.655l-7.606-0.66l7.606-0.659
			l-7.606-0.654l7.606-0.659l-7.606-0.655l7.606-0.66l-7.606-0.655l7.606-0.66l-7.606-0.659l7.606-0.654l-7.606-0.66l6.624-0.574
			c0.878,0.784,1.584,1.796,2.016,3.034c0.982,1.836,2.395,3.482,3.995,4.67l-1.202,0.107l1.537,0.134
			c0.514,0.353,1.049,0.66,1.591,0.911l-3.128,0.27l7.607,0.66l-7.607,0.655l7.607,0.66l-7.607,0.654l7.607,0.659l-7.607,0.655
			l7.607,0.66l-7.607,0.66l7.607,0.655l-7.607,0.66l7.607,0.659l-7.609,0.654L69.748,44.837L69.748,44.837z M57.23,26.145
			c0.555,0.257,1.08,0.579,1.558,0.974l-6.402-0.554L57.23,26.145z"/>
	</g>
</g>
</svg>
