<?xml version="1.0" encoding="utf-8"?>
<!-- Generator: Adobe Illustrator 15.0.0, SVG Export Plug-In . SVG Version: 6.00 Build 0)  -->
<!DOCTYPE svg PUBLIC "-//W3C//DTD SVG 1.1//EN" "http://www.w3.org/Graphics/SVG/1.1/DTD/svg11.dtd">
<svg version="1.1" id="Layer_1" xmlns="http://www.w3.org/2000/svg" xmlns:xlink="http://www.w3.org/1999/xlink" x="0px" y="0px"
	 width="121.739px" height="65.218px" viewBox="0 0 121.739 65.218" enable-background="new 0 0 121.739 65.218"
	 xml:space="preserve">
<g>
	<rect x="12.371" y="4.72" fill-rule="evenodd" clip-rule="evenodd" fill="#231F20" width="99.753" height="52.876"/>
	<g>
		<rect x="13.25" y="39.677" fill-rule="evenodd" clip-rule="evenodd" fill="#0071BB" width="97.997" height="17.04"/>
		<rect x="13.25" y="22.639" fill-rule="evenodd" clip-rule="evenodd" fill="#F7F7F8" width="97.997" height="17.038"/>
		<rect x="13.25" y="5.6" fill-rule="evenodd" clip-rule="evenodd" fill="#EC1C24" width="97.997" height="17.039"/>
		<path fill-rule="evenodd" clip-rule="evenodd" fill="#003B74" d="M36.851,39.677H22.247l5.392,0.468l-7.607,0.657l7.607,0.656
			l-7.607,0.658l7.607,0.657l-7.607,0.657l7.607,0.658l-7.607,0.659l7.607,0.654l-7.607,0.658l7.607,0.66l-7.607,0.657l7.607,0.657
			l-7.607,0.657l7.607,0.66l-7.607,0.657l7.607,0.657l-7.607,0.658l7.607,0.657l-7.607,0.656l7.607,0.658l-7.607,0.66l7.607,0.657
			l-7.607,0.657l7.607,0.657l-7.607,0.656l1.504,0.132h16.027l1.504-0.132l-7.607-0.656l7.607-0.657l-7.607-0.657l7.607-0.657
			l-7.607-0.66l7.607-0.658l-7.607-0.656l7.607-0.657l-7.607-0.658l7.607-0.657l-7.607-0.657l7.607-0.66l-7.607-0.654l7.607-0.66
			l-7.607-0.657l7.607-0.66l-7.607-0.658l7.607-0.654l-7.607-0.659l7.607-0.658l-7.607-0.657l7.607-0.657l-7.607-0.658l7.607-0.656
			l-7.607-0.657L36.851,39.677L36.851,39.677z M102.249,39.677H87.644l5.393,0.468l-7.607,0.657l7.607,0.656l-7.607,0.658
			l7.607,0.657l-7.607,0.657l7.607,0.658l-7.607,0.659l7.607,0.654l-7.607,0.658l7.607,0.66l-7.607,0.657l7.607,0.657l-7.607,0.657
			l7.607,0.66l-7.607,0.657l7.607,0.657l-7.607,0.658l7.607,0.657l-7.607,0.656l7.607,0.658l-7.607,0.66l7.607,0.657l-7.607,0.657
			l7.607,0.657l-7.607,0.656l1.506,0.132h16.025l1.504-0.132l-7.604-0.656l7.604-0.657l-7.604-0.657l7.604-0.657l-7.604-0.66
			l7.604-0.658l-7.604-0.656l7.604-0.657l-7.604-0.658l7.604-0.657l-7.604-0.657l7.604-0.66l-7.604-0.654l7.604-0.66l-7.604-0.657
			l7.604-0.66l-7.604-0.658l7.604-0.654l-7.604-0.659l7.604-0.658l-7.604-0.657l7.604-0.657l-7.604-0.658l7.604-0.656l-7.604-0.657
			L102.249,39.677L102.249,39.677z M69.55,39.677H54.945l5.392,0.468l-7.606,0.657l7.606,0.656l-7.606,0.658l7.606,0.657
			l-7.606,0.657l7.606,0.658l-7.606,0.659l7.606,0.654l-7.606,0.658l7.606,0.66l-7.606,0.657l7.606,0.657l-7.606,0.657l7.606,0.66
			L52.73,50.01l7.606,0.657l-7.606,0.658l7.606,0.657l-7.606,0.656l7.606,0.658l-7.606,0.66l7.606,0.657l-7.606,0.657l7.606,0.657
			l-7.606,0.656l1.504,0.132h16.027l1.504-0.132l-7.604-0.656l7.604-0.657l-7.604-0.657l7.604-0.657l-7.604-0.66l7.604-0.658
			l-7.604-0.656l7.604-0.657l-7.604-0.658l7.604-0.657l-7.604-0.657l7.604-0.66l-7.604-0.654l7.604-0.66l-7.604-0.657l7.604-0.66
			l-7.604-0.658l7.604-0.654l-7.604-0.659l7.604-0.658l-7.604-0.657l7.604-0.657l-7.604-0.658l7.604-0.656l-7.604-0.657
			L69.55,39.677z"/>
		<path fill-rule="evenodd" clip-rule="evenodd" fill="#C3161C" d="M35.427,5.6H23.671l3.967,0.342l-7.607,0.655l7.607,0.66
			l-7.607,0.657l7.607,0.657L20.031,9.23l7.607,0.655l-7.607,0.657l7.607,0.662l-7.607,0.655l7.607,0.659l-7.607,0.654l7.607,0.661
			l-7.607,0.657l7.607,0.657l-7.607,0.659l7.607,0.658l-7.607,0.657l7.607,0.654l-7.607,0.66l7.607,0.658l-7.607,0.652l7.607,0.664
			l-7.607,0.655l7.607,0.66l-7.607,0.654l2.934,0.256h13.167l2.934-0.256l-7.607-0.654l7.607-0.658l-7.607-0.657l7.607-0.664
			l-7.607-0.652l7.607-0.658l-7.607-0.66l7.607-0.654l-7.607-0.657l7.607-0.658l-7.607-0.659l7.607-0.657l-7.607-0.657l7.607-0.661
			l-7.607-0.654l7.607-0.659l-7.607-0.655l7.607-0.662l-7.607-0.657l7.607-0.655l-7.607-0.659l7.607-0.657l-7.607-0.657l7.607-0.66
			l-7.607-0.655L35.427,5.6L35.427,5.6z M100.826,5.6H89.071l3.965,0.342l-7.607,0.655l7.607,0.66l-7.607,0.657l7.607,0.657
			L85.429,9.23l7.607,0.655l-7.607,0.657l7.607,0.662l-7.607,0.655l7.607,0.659l-7.607,0.654l7.607,0.661l-7.607,0.657l7.607,0.657
			l-7.607,0.659l7.607,0.658l-7.607,0.657l7.607,0.654l-7.607,0.66l7.607,0.658l-7.607,0.652l7.607,0.664l-7.607,0.655l7.607,0.66
			l-7.607,0.654l2.934,0.256h13.17l2.932-0.256l-7.604-0.654l7.604-0.658l-7.604-0.657l7.604-0.664l-7.604-0.652l7.604-0.658
			l-7.604-0.66l7.604-0.654l-7.604-0.657l7.604-0.658l-7.604-0.659l7.604-0.657l-7.604-0.657l7.604-0.661l-7.604-0.654l7.604-0.659
			l-7.604-0.655l7.604-0.662l-7.604-0.657l7.604-0.655l-7.604-0.659l7.604-0.657l-7.604-0.657l7.604-0.66l-7.604-0.655L100.826,5.6
			L100.826,5.6z M68.125,5.6H56.372l3.964,0.342L52.73,6.597l7.606,0.66L52.73,7.914l7.606,0.657L52.73,9.23l7.606,0.655
			l-7.606,0.657l7.606,0.662L52.73,11.86l7.606,0.659l-7.606,0.654l7.606,0.661l-7.606,0.657l7.606,0.657l-7.606,0.659l7.606,0.658
			l-7.606,0.657l7.606,0.654l-7.606,0.66l7.606,0.658l-7.606,0.652l7.606,0.664l-7.606,0.655l7.606,0.66l-7.606,0.654l2.934,0.256
			h13.167l2.934-0.256l-7.604-0.654l7.604-0.658l-7.604-0.657l7.604-0.664l-7.606-0.652l7.606-0.658l-7.604-0.66l7.604-0.654
			l-7.604-0.657l7.604-0.658l-7.606-0.659l7.606-0.657l-7.604-0.657l7.604-0.661l-7.604-0.654l7.604-0.659l-7.604-0.655l7.604-0.662
			l-7.604-0.657l7.604-0.655l-7.604-0.659l7.604-0.657l-7.606-0.657l7.606-0.66l-7.604-0.655L68.125,5.6z"/>
		<path fill-rule="evenodd" clip-rule="evenodd" fill="#D8E1E7" d="M102.249,39.677H87.644l-2.215-0.192l7.607-0.655l-7.607-0.66
			l7.607-0.656l-7.607-0.658l7.607-0.657l-7.607-0.66l7.607-0.656l-7.607-0.659l7.607-0.655l-7.607-0.658l7.607-0.657l-7.607-0.657
			l7.607-0.657l-7.607-0.659l7.607-0.655l-7.607-0.66l7.607-0.657l-7.607-0.658l7.607-0.659l-7.607-0.654l7.607-0.658l-7.607-0.66
			l7.607-0.657L85.429,23.7l7.607-0.657l-4.674-0.404h13.17l-4.673,0.404l7.604,0.657l-7.604,0.657l7.606,0.657l-7.606,0.66
			l7.604,0.658l-7.604,0.654l7.604,0.659l-7.604,0.658l7.604,0.657l-7.604,0.66l7.604,0.655l-7.604,0.659l7.604,0.657l-7.604,0.657
			l7.604,0.657l-7.604,0.658l7.604,0.655l-7.604,0.659l7.604,0.656l-7.604,0.66l7.604,0.657l-7.604,0.658l7.604,0.656l-7.604,0.66
			l7.604,0.655L102.249,39.677L102.249,39.677z M36.851,39.677H22.247l-2.215-0.192l7.607-0.655l-7.607-0.66l7.607-0.656
			l-7.607-0.658l7.607-0.657l-7.607-0.66l7.607-0.656l-7.607-0.659l7.607-0.655l-7.607-0.658l7.607-0.657l-7.607-0.657l7.607-0.657
			l-7.607-0.659l7.607-0.655l-7.607-0.66l7.607-0.657l-7.607-0.658l7.607-0.659l-7.607-0.654l7.607-0.658l-7.607-0.66l7.607-0.657
			L20.031,23.7l7.607-0.657l-4.673-0.404h13.167l-4.673,0.404l7.607,0.657l-7.607,0.657l7.607,0.657l-7.607,0.66l7.607,0.658
			l-7.607,0.654l7.607,0.659l-7.607,0.658l7.607,0.657l-7.607,0.66l7.607,0.655l-7.607,0.659l7.607,0.657l-7.607,0.657l7.607,0.657
			l-7.607,0.658l7.607,0.655l-7.607,0.659l7.607,0.656l-7.607,0.66l7.607,0.657l-7.607,0.658l7.607,0.656l-7.607,0.66l7.607,0.655
			L36.851,39.677L36.851,39.677z M69.55,39.677H54.945l-2.215-0.192l7.606-0.655l-7.606-0.66l7.606-0.656l-7.606-0.658l7.606-0.657
			l-7.606-0.66l7.606-0.656l-7.606-0.659l7.606-0.655l-7.606-0.658l7.606-0.657l-7.606-0.657l7.606-0.657l-7.606-0.659l7.606-0.655
			l-7.606-0.66l7.606-0.657l-7.606-0.658l7.606-0.659l-7.606-0.654l7.606-0.658l-7.606-0.66l7.606-0.657L52.73,23.7l7.606-0.657
			l-4.673-0.404h13.167l-4.67,0.404l7.604,0.657l-7.604,0.657l7.605,0.657l-7.605,0.66l7.604,0.658l-7.604,0.654l7.604,0.659
			l-7.604,0.658l7.604,0.657l-7.604,0.66l7.604,0.655l-7.604,0.659l7.604,0.657l-7.604,0.657l7.604,0.657l-7.604,0.658l7.604,0.655
			l-7.604,0.659l7.604,0.656l-7.604,0.66l7.604,0.657l-7.604,0.658l7.604,0.656l-7.604,0.66l7.604,0.655L69.55,39.677z"/>
	</g>
</g>
</svg>
