<?xml version="1.0" encoding="utf-8"?>
<!-- Generator: Adobe Illustrator 15.0.0, SVG Export Plug-In . SVG Version: 6.00 Build 0)  -->
<!DOCTYPE svg PUBLIC "-//W3C//DTD SVG 1.1//EN" "http://www.w3.org/Graphics/SVG/1.1/DTD/svg11.dtd">
<svg version="1.1" id="Layer_1" xmlns="http://www.w3.org/2000/svg" xmlns:xlink="http://www.w3.org/1999/xlink" x="0px" y="0px"
	 width="121.739px" height="65.218px" viewBox="0 0 121.739 65.218" enable-background="new 0 0 121.739 65.218"
	 xml:space="preserve">
<g>
	<rect x="12.019" y="4.999" fill-rule="evenodd" clip-rule="evenodd" fill="#231F20" width="99.774" height="52.884"/>
	<g>
		<rect x="12.899" y="5.878" fill-rule="evenodd" clip-rule="evenodd" fill="#FFFFFF" width="98.014" height="17.04"/>
		<rect x="12.899" y="22.918" fill-rule="evenodd" clip-rule="evenodd" fill="#0071BB" width="98.014" height="17.044"/>
		<rect x="12.899" y="39.962" fill-rule="evenodd" clip-rule="evenodd" fill="#EC1C24" width="98.014" height="17.041"/>
		<path fill-rule="evenodd" clip-rule="evenodd" fill="#D8E1E7" d="M36.502,22.918H21.897l5.392-0.466l-7.607-0.66l7.607-0.654
			l-7.607-0.659l7.607-0.655l-7.607-0.66l7.607-0.655l-7.607-0.66l7.607-0.66l-7.607-0.654l7.607-0.659l-7.607-0.655l7.607-0.66
			l-7.607-0.655l7.607-0.659l-7.607-0.66l7.607-0.654l-7.607-0.66l7.607-0.66l-7.607-0.655l7.607-0.659l-7.607-0.66l7.607-0.655
			l-7.607-0.66l7.607-0.654l-7.607-0.659l1.504-0.128h16.027l1.506,0.128l-7.607,0.659l7.607,0.654l-7.607,0.66l7.607,0.655
			l-7.607,0.66l7.607,0.659l-7.607,0.655l7.607,0.66l-7.607,0.66l7.607,0.654l-7.607,0.66l7.607,0.659l-7.607,0.655l7.607,0.66
			l-7.607,0.655l7.607,0.659l-7.607,0.654l7.607,0.66l-7.607,0.66l7.607,0.655l-7.607,0.66l7.607,0.655l-7.607,0.659l7.607,0.654
			l-7.607,0.66L36.502,22.918L36.502,22.918z M69.211,22.918h-14.61l5.392-0.466l-7.606-0.66l7.606-0.654l-7.606-0.659l7.606-0.655
			l-7.606-0.66l7.606-0.655l-7.606-0.66l7.606-0.66l-7.606-0.654l7.606-0.659l-7.606-0.655l7.606-0.66l-7.606-0.655l7.606-0.659
			l-7.606-0.66l7.606-0.654l-7.606-0.66l7.606-0.66l-7.606-0.655l7.606-0.659l-7.606-0.66l7.606-0.655l-7.606-0.66l7.606-0.654
			l-7.606-0.659l1.504-0.128h16.029l1.508,0.128l-7.607,0.659l7.607,0.654l-7.607,0.66l7.607,0.655l-7.607,0.66l7.607,0.659
			l-7.607,0.655l7.607,0.66l-7.607,0.66l7.607,0.654l-7.607,0.66l7.607,0.659l-7.607,0.655l7.607,0.66l-7.607,0.655l7.607,0.659
			l-7.607,0.654l7.607,0.66l-7.607,0.66l7.607,0.655l-7.607,0.66l7.607,0.655l-7.607,0.659l7.607,0.654l-7.607,0.66L69.211,22.918
			L69.211,22.918z M101.915,22.918H87.308l5.392-0.466l-7.606-0.66l7.606-0.654l-7.606-0.659l7.606-0.655l-7.606-0.66l7.606-0.655
			l-7.606-0.66l7.606-0.66l-7.606-0.654l7.606-0.659l-7.606-0.655l7.606-0.66l-7.606-0.655l7.606-0.659l-7.606-0.66l7.606-0.654
			l-7.606-0.66l7.606-0.66l-7.606-0.655l7.606-0.659l-7.606-0.66l7.606-0.655l-7.606-0.66l7.606-0.654l-7.606-0.659l1.506-0.128
			h16.027l1.504,0.128l-7.607,0.659l7.607,0.654l-7.607,0.66l7.607,0.655l-7.607,0.66l7.607,0.659l-7.607,0.655l7.607,0.66
			l-7.607,0.66l7.61,0.654l-7.61,0.66l7.607,0.659l-7.607,0.655l7.607,0.66l-7.607,0.655l7.61,0.659l-7.61,0.654l7.607,0.66
			l-7.607,0.66l7.607,0.655l-7.607,0.66l7.607,0.655l-7.607,0.659l7.607,0.654l-7.607,0.66L101.915,22.918z"/>
		<path fill-rule="evenodd" clip-rule="evenodd" fill="#C3161C" d="M35.08,57.003H23.322l3.967-0.344l-7.607-0.654l7.607-0.659
			l-7.607-0.655l7.607-0.66l-7.607-0.66l7.607-0.655l-7.607-0.66l7.607-0.659l-7.607-0.654l7.607-0.66l-7.607-0.655l7.607-0.66
			l-7.607-0.654l7.607-0.659l-7.607-0.66l7.607-0.654l-7.607-0.66l7.607-0.655l-7.607-0.659l7.607-0.654l-7.607-0.655l7.607-0.666
			l-7.607-0.654l7.607-0.659l-7.607-0.66l2.931-0.252h13.173l2.934,0.252l-7.607,0.66l7.607,0.654l-7.607,0.659l7.607,0.666
			l-7.607,0.655l7.607,0.654l-7.607,0.659l7.607,0.655l-7.607,0.66l7.607,0.654l-7.607,0.66l7.607,0.659l-7.607,0.654l7.607,0.66
			l-7.607,0.655l7.607,0.66l-7.607,0.654l7.607,0.659l-7.607,0.66l7.607,0.655l-7.607,0.66l7.607,0.66l-7.607,0.655l7.607,0.659
			l-7.607,0.654L35.08,57.003L35.08,57.003z M100.489,57.003H88.731l3.968-0.344l-7.606-0.654l7.606-0.659l-7.606-0.655l7.606-0.66
			l-7.606-0.66l7.606-0.655l-7.606-0.66l7.606-0.659l-7.606-0.654l7.606-0.66l-7.606-0.655l7.606-0.66l-7.606-0.654l7.606-0.659
			l-7.606-0.66l7.606-0.654l-7.606-0.66l7.606-0.655l-7.606-0.659l7.606-0.654l-7.606-0.655l7.606-0.666l-7.606-0.654l7.606-0.659
			l-7.606-0.66l2.934-0.252h13.172l2.932,0.252l-7.607,0.66l7.61,0.654l-7.61,0.659l7.607,0.666l-7.607,0.655l7.607,0.654
			l-7.607,0.659l7.607,0.655l-7.607,0.66l7.61,0.654l-7.61,0.66l7.61,0.659l-7.61,0.654l7.607,0.66l-7.607,0.655l7.607,0.66
			l-7.607,0.654l7.607,0.659l-7.607,0.66l7.61,0.655l-7.61,0.66l7.607,0.66l-7.607,0.655l7.61,0.659l-7.61,0.654L100.489,57.003
			L100.489,57.003z M67.784,57.003H56.028l3.965-0.344l-7.606-0.654l7.606-0.659l-7.606-0.655l7.606-0.66l-7.606-0.66l7.606-0.655
			l-7.606-0.66l7.606-0.659l-7.606-0.654l7.606-0.66l-7.606-0.655l7.606-0.66l-7.606-0.654l7.606-0.659l-7.606-0.66l7.606-0.654
			l-7.606-0.66l7.606-0.655l-7.606-0.659l7.606-0.654l-7.606-0.655l7.606-0.666l-7.606-0.654l7.606-0.659l-7.606-0.66l2.934-0.252
			h13.169l2.938,0.252l-7.607,0.66l7.607,0.654l-7.607,0.659l7.607,0.666l-7.609,0.655l7.609,0.654l-7.607,0.659l7.607,0.655
			l-7.607,0.66l7.607,0.654l-7.609,0.66l7.609,0.659l-7.607,0.654l7.607,0.66l-7.607,0.655l7.607,0.66l-7.607,0.654l7.607,0.659
			l-7.607,0.66l7.607,0.655l-7.607,0.66l7.607,0.66l-7.609,0.655l7.609,0.659l-7.607,0.654L67.784,57.003z"/>
		<path fill-rule="evenodd" clip-rule="evenodd" fill="#00579B" d="M101.915,22.918H87.308l-2.215,0.194l7.606,0.655l-7.606,0.659
			l7.606,0.66l-7.606,0.655l7.606,0.66l-7.606,0.654l7.606,0.659l-7.606,0.66l7.606,0.654l-7.606,0.66l7.606,0.655l-7.606,0.659
			l7.606,0.66l-7.606,0.66l7.606,0.655l-7.606,0.654l7.606,0.66l-7.606,0.659l7.606,0.655l-7.609,0.66l7.609,0.654l-7.609,0.66
			l7.609,0.66l-7.606,0.654l7.606,0.66l-4.673,0.403h13.172l-4.676-0.403l7.607-0.66l-7.607-0.654l7.61-0.66l-7.61-0.66l7.607-0.654
			l-7.607-0.66l7.61-0.655l-7.61-0.659l7.607-0.66l-7.607-0.654l7.61-0.655l-7.61-0.66l7.607-0.66l-7.607-0.659l7.607-0.655
			l-7.607-0.66l7.607-0.654l-7.607-0.66l7.607-0.659l-7.607-0.654l7.607-0.66l-7.607-0.655l7.61-0.66l-7.61-0.659l7.607-0.655
			L101.915,22.918L101.915,22.918z M36.502,22.918H21.897l-2.215,0.194l7.607,0.655l-7.607,0.659l7.607,0.66l-7.607,0.655
			l7.607,0.66l-7.607,0.654l7.607,0.659l-7.607,0.66l7.607,0.654l-7.607,0.66l7.607,0.655l-7.607,0.659l7.607,0.66l-7.607,0.66
			l7.607,0.655l-7.607,0.654l7.607,0.66l-7.607,0.659l7.607,0.655l-7.61,0.66l7.61,0.654l-7.61,0.66l7.61,0.66l-7.607,0.654
			l7.607,0.66l-4.676,0.403h13.173l-4.673-0.403l7.607-0.66l-7.607-0.654l7.607-0.66l-7.607-0.66l7.607-0.654l-7.607-0.66
			l7.607-0.655l-7.607-0.659l7.607-0.66l-7.607-0.654l7.607-0.655l-7.607-0.66l7.607-0.66l-7.607-0.659l7.607-0.655l-7.607-0.66
			l7.607-0.654l-7.607-0.66l7.607-0.659l-7.607-0.654l7.607-0.66l-7.607-0.655l7.607-0.66l-7.607-0.659l7.607-0.655L36.502,22.918
			L36.502,22.918z M69.211,22.918h-14.61l-2.215,0.194l7.606,0.655l-7.606,0.659l7.606,0.66l-7.606,0.655l7.606,0.66l-7.606,0.654
			l7.606,0.659l-7.606,0.66l7.606,0.654l-7.606,0.66l7.606,0.655l-7.606,0.659l7.606,0.66l-7.606,0.66l7.606,0.655l-7.606,0.654
			l7.606,0.66l-7.606,0.659l7.606,0.655l-7.606,0.66l7.606,0.654l-7.606,0.66l7.606,0.66l-7.606,0.654l7.606,0.66l-4.673,0.403
			h13.169l-4.67-0.403l7.607-0.66l-7.607-0.654l7.607-0.66l-7.607-0.66l7.607-0.654l-7.607-0.66l7.607-0.655l-7.607-0.659
			l7.607-0.66l-7.607-0.654l7.607-0.655l-7.607-0.66l7.607-0.66l-7.607-0.659l7.607-0.655l-7.607-0.66l7.607-0.654l-7.607-0.66
			l7.607-0.659l-7.607-0.654l7.607-0.66l-7.607-0.655l7.607-0.66l-7.607-0.659l7.607-0.655L69.211,22.918z"/>
	</g>
</g>
</svg>
