<?xml version="1.0" encoding="utf-8"?>
<!-- Generator: Adobe Illustrator 15.0.0, SVG Export Plug-In . SVG Version: 6.00 Build 0)  -->
<!DOCTYPE svg PUBLIC "-//W3C//DTD SVG 1.1//EN" "http://www.w3.org/Graphics/SVG/1.1/DTD/svg11.dtd">
<svg version="1.1" id="Layer_1" xmlns="http://www.w3.org/2000/svg" xmlns:xlink="http://www.w3.org/1999/xlink" x="0px" y="0px"
	 width="121.739px" height="65.218px" viewBox="0 0 121.739 65.218" enable-background="new 0 0 121.739 65.218"
	 xml:space="preserve">
<g>
	<rect x="12.019" y="4.52" fill-rule="evenodd" clip-rule="evenodd" fill="#231F20" width="99.774" height="52.89"/>
	<g>
		<rect x="12.899" y="5.399" fill-rule="evenodd" clip-rule="evenodd" fill="#EC1C24" width="98.014" height="51.13"/>
		<path fill-rule="evenodd" clip-rule="evenodd" fill="#C3161C" d="M34.839,5.399h-11.28l3.73,0.323l-7.61,0.657l7.61,0.658
			l-7.61,0.657l7.61,0.66l-7.61,0.657l7.61,0.657l-7.61,0.658l7.61,0.657l-7.61,0.66l7.61,0.658l-7.61,0.657l7.61,0.657l-7.61,0.66
			l7.61,0.655l-7.61,0.657l7.61,0.66l-7.61,0.658l7.61,0.658l-7.61,0.66l7.61,0.657l-7.61,0.658l7.61,0.657l-7.61,0.66l7.61,0.655
			l-7.61,0.66l7.61,0.658l-7.607,0.66l7.607,0.657l-7.61,0.655l7.61,0.659l-7.61,0.66l7.61,0.655l-7.61,0.66l7.61,0.658l-7.61,0.657
			l7.61,0.657l-7.61,0.658l7.61,0.657l-7.61,0.658l7.61,0.659l-7.61,0.658l7.61,0.656l-7.61,0.66l7.61,0.658l-7.61,0.657l7.61,0.659
			l-7.61,0.655l7.61,0.657l-7.61,0.657l7.61,0.66l-7.61,0.657l7.61,0.658l-7.61,0.659l7.61,0.655l-7.61,0.66l7.61,0.657l-7.61,0.657
			l7.61,0.657l-7.61,0.657l7.61,0.66l-7.61,0.654l7.61,0.662l-7.61,0.658l7.61,0.654l-7.61,0.66l7.61,0.654l-7.61,0.66l7.61,0.658
			l-7.61,0.66l7.61,0.654l-7.61,0.66l7.61,0.657l-7.61,0.659l7.61,0.654l-7.61,0.658l7.61,0.659l-7.61,0.657l1.77,0.154h15.5
			l1.771-0.154l-7.607-0.657l7.607-0.659L31.113,54.4l7.607-0.654l-7.607-0.659l7.607-0.657l-7.607-0.66l7.607-0.654l-7.607-0.66
			l7.607-0.658l-7.607-0.66l7.607-0.654l-7.607-0.66l7.607-0.654l-7.607-0.658l7.607-0.662l-7.607-0.654l7.607-0.66l-7.607-0.657
			l7.607-0.657l-7.607-0.657l7.607-0.657l-7.607-0.66l7.607-0.655l-7.607-0.659l7.607-0.658l-7.607-0.657l7.607-0.66l-7.607-0.657
			l7.607-0.657l-7.607-0.655l7.607-0.659l-7.609-0.657l7.609-0.658l-7.607-0.66l7.607-0.656l-7.607-0.658l7.607-0.659l-7.607-0.658
			l7.607-0.657l-7.607-0.658l7.607-0.657l-7.607-0.657l7.607-0.658l-7.607-0.66l7.607-0.655l-7.609-0.66l7.609-0.659l-7.607-0.655
			l7.607-0.657l-7.607-0.66l7.607-0.658l-7.607-0.66l7.607-0.655l-7.607-0.66l7.607-0.657l-7.607-0.658l7.607-0.657l-7.609-0.66
			l7.609-0.658l-7.607-0.658l7.607-0.66l-7.607-0.657l7.607-0.655l-7.609-0.66l7.609-0.657L31.113,12.3l7.607-0.66l-7.607-0.657
			l7.607-0.657l-7.607-0.658L38.72,9.01l-7.607-0.657l7.607-0.66l-7.607-0.657l7.607-0.658l-7.607-0.657L34.839,5.399L34.839,5.399z
			 M100.252,5.399h-11.28l3.728,0.323L85.09,6.378l7.609,0.658L85.09,7.693l7.609,0.66L85.093,9.01l7.606,0.657l-7.606,0.658
			l7.606,0.657l-7.606,0.66l7.606,0.658l-7.606,0.657l7.606,0.657l-7.606,0.66l7.606,0.655l-7.606,0.657l7.606,0.66l-7.606,0.658
			l7.606,0.658l-7.606,0.66l7.606,0.657l-7.606,0.658l7.606,0.657l-7.606,0.66l7.606,0.655l-7.606,0.66l7.606,0.658l-7.606,0.66
			l7.606,0.657l-7.606,0.655l7.606,0.659l-7.606,0.66l7.606,0.655l-7.606,0.66l7.606,0.658l-7.606,0.657l7.606,0.657l-7.606,0.658
			l7.606,0.657l-7.606,0.658l7.606,0.659l-7.606,0.658l7.606,0.656l-7.606,0.66l7.609,0.658l-7.609,0.657l7.606,0.659L85.09,36.64
			l7.609,0.657l-7.609,0.657l7.609,0.66l-7.606,0.657l7.606,0.658l-7.606,0.659l7.606,0.655l-7.606,0.66l7.606,0.657l-7.606,0.657
			l7.606,0.657l-7.606,0.657l7.606,0.66l-7.606,0.654l7.606,0.662l-7.606,0.658l7.606,0.654l-7.606,0.66l7.606,0.654l-7.606,0.66
			l7.606,0.658l-7.606,0.66l7.606,0.654l-7.606,0.66l7.606,0.657l-7.606,0.659l7.606,0.654l-7.606,0.658l7.606,0.659l-7.606,0.657
			l1.77,0.154h15.498l1.77-0.154l-7.607-0.657l7.607-0.659L96.522,54.4l7.607-0.654l-7.607-0.659l7.607-0.657l-7.607-0.66
			l7.607-0.654l-7.607-0.66l7.61-0.658l-7.61-0.66l7.607-0.654l-7.607-0.66l7.607-0.654l-7.607-0.658l7.607-0.662l-7.607-0.654
			l7.607-0.66l-7.607-0.657l7.607-0.657l-7.607-0.657l7.61-0.657l-7.61-0.66l7.607-0.655l-7.607-0.659l7.607-0.658l-7.607-0.657
			l7.61-0.66l-7.61-0.657l7.61-0.657l-7.61-0.655l7.607-0.659l-7.607-0.657l7.607-0.658l-7.607-0.66l7.607-0.656l-7.607-0.658
			l7.607-0.659l-7.607-0.658l7.61-0.657l-7.61-0.658l7.607-0.657l-7.607-0.657l7.61-0.658l-7.61-0.66l7.61-0.655l-7.61-0.66
			l7.607-0.659l-7.607-0.655l7.61-0.657l-7.61-0.66l7.607-0.658l-7.607-0.66l7.607-0.655l-7.607-0.66l7.607-0.657l-7.607-0.658
			l7.61-0.657l-7.61-0.66l7.61-0.658l-7.61-0.658l7.607-0.66l-7.607-0.657l7.607-0.655l-7.607-0.66l7.607-0.657L96.522,12.3
			l7.61-0.66l-7.61-0.657l7.607-0.657l-7.607-0.658l7.607-0.657l-7.607-0.657l7.61-0.66l-7.61-0.657l7.607-0.658l-7.607-0.657
			L100.252,5.399L100.252,5.399z M67.546,5.399h-11.28l3.727,0.323l-7.606,0.657l7.606,0.658l-7.606,0.657l7.606,0.66L52.386,9.01
			l7.606,0.657l-7.606,0.658l7.606,0.657l-7.606,0.66l7.606,0.658l-7.606,0.657l7.606,0.657l-7.606,0.66l7.606,0.655l-7.606,0.657
			l7.606,0.66l-7.606,0.658l7.606,0.658l-7.606,0.66l7.606,0.657l-7.606,0.658l7.606,0.657l-7.606,0.66l7.606,0.655l-7.606,0.66
			l7.606,0.658l-7.606,0.66l7.606,0.657l-7.606,0.655l7.606,0.659l-7.606,0.66l7.606,0.655l-7.606,0.66l7.606,0.658l-7.606,0.657
			l7.606,0.657l-7.606,0.658l7.606,0.657l-7.606,0.658l7.606,0.659l-7.606,0.658l7.606,0.656l-7.606,0.66l7.609,0.658l-7.609,0.657
			l7.606,0.659l-7.606,0.655l7.606,0.657l-7.606,0.657l7.606,0.66l-7.606,0.657l7.606,0.658l-7.606,0.659l7.606,0.655l-7.606,0.66
			l7.606,0.657l-7.606,0.657l7.606,0.657l-7.606,0.657l7.606,0.66l-7.606,0.654l7.606,0.662l-7.606,0.658l7.606,0.654l-7.606,0.66
			l7.606,0.654l-7.606,0.66l7.606,0.658l-7.606,0.66l7.606,0.654l-7.606,0.66l7.606,0.657l-7.606,0.659l7.606,0.654l-7.606,0.658
			l7.606,0.659l-7.606,0.657l1.77,0.154h15.5l1.771-0.154l-7.607-0.657l7.607-0.659L63.819,54.4l7.607-0.654l-7.607-0.659
			l7.607-0.657l-7.607-0.66l7.607-0.654l-7.607-0.66l7.607-0.658l-7.607-0.66l7.607-0.654l-7.607-0.66l7.607-0.654l-7.607-0.658
			l7.607-0.662l-7.607-0.654l7.607-0.66l-7.607-0.657l7.607-0.657l-7.607-0.657l7.607-0.657l-7.607-0.66l7.607-0.655l-7.607-0.659
			l7.607-0.658l-7.607-0.657l7.607-0.66l-7.607-0.657l7.607-0.657l-7.607-0.655l7.607-0.659l-7.609-0.657l7.609-0.658l-7.607-0.66
			l7.607-0.656l-7.607-0.658l7.607-0.659l-7.607-0.658l7.607-0.657l-7.607-0.658l7.607-0.657l-7.607-0.657l7.607-0.658l-7.607-0.66
			l7.607-0.655l-7.609-0.66l7.609-0.659l-7.607-0.655l7.607-0.657l-7.607-0.66l7.607-0.658l-7.607-0.66l7.607-0.655l-7.607-0.66
			l7.607-0.657l-7.607-0.658l7.607-0.657l-7.609-0.66l7.609-0.658l-7.607-0.658l7.607-0.66l-7.607-0.657l7.607-0.655l-7.609-0.66
			l7.609-0.657L63.819,12.3l7.607-0.66l-7.607-0.657l7.607-0.657l-7.607-0.658l7.607-0.657l-7.607-0.657l7.607-0.66l-7.607-0.657
			l7.607-0.658l-7.607-0.657L67.546,5.399z"/>
		<polygon fill-rule="evenodd" clip-rule="evenodd" fill="#FFFFFF" points="55.626,14.221 55.626,24.684 45.163,24.684 
			45.163,37.243 55.626,37.243 55.626,47.707 68.183,47.707 68.183,37.243 78.649,37.243 78.649,24.684 68.183,24.684 
			68.183,14.221 		"/>
		<polygon fill-rule="evenodd" clip-rule="evenodd" fill="#D8E1E7" points="55.626,14.221 55.626,14.556 59.993,14.929 
			55.626,15.308 55.626,15.868 59.993,16.246 55.626,16.625 55.626,17.185 59.993,17.562 55.626,17.94 55.626,18.5 59.993,18.878 
			55.626,19.257 55.626,19.814 59.993,20.193 55.626,20.572 55.626,21.132 59.993,21.508 55.626,21.887 55.626,22.446 
			59.993,22.826 55.626,23.204 55.626,23.764 59.993,24.143 55.626,24.519 55.626,24.684 53.685,24.684 52.386,24.798 
			59.993,25.457 52.386,26.117 59.993,26.772 52.386,27.432 59.993,28.089 52.386,28.747 59.993,29.404 52.386,30.062 
			59.993,30.718 52.386,31.376 59.993,32.035 52.386,32.693 59.993,33.35 52.386,34.01 59.995,34.668 52.386,35.325 59.993,35.984 
			52.386,36.64 59.993,37.297 55.626,37.676 55.626,38.236 59.993,38.614 55.626,38.993 55.626,39.551 59.993,39.93 55.626,40.308 
			55.626,40.865 59.993,41.244 55.626,41.623 55.626,42.182 59.993,42.562 55.626,42.939 55.626,43.5 59.993,43.876 55.626,44.254 
			55.626,44.814 59.993,45.193 55.626,45.569 55.626,46.129 59.993,46.51 55.626,46.887 55.626,47.446 58.642,47.707 65.17,47.707 
			68.183,47.446 68.183,46.887 63.819,46.51 68.183,46.129 68.183,45.569 63.819,45.193 68.183,44.814 68.183,44.254 63.819,43.876 
			68.183,43.5 68.183,42.939 63.819,42.562 68.183,42.182 68.183,41.623 63.819,41.244 68.183,40.865 68.183,40.308 63.819,39.93 
			68.183,39.551 68.183,38.99 63.819,38.614 68.183,38.236 68.183,37.676 63.819,37.297 71.427,36.64 63.819,35.984 71.427,35.325 
			63.817,34.668 71.427,34.01 63.819,33.35 71.427,32.693 63.819,32.035 71.427,31.376 63.819,30.718 71.427,30.062 63.819,29.404 
			71.427,28.747 63.819,28.089 71.427,27.432 63.819,26.772 71.427,26.117 63.817,25.457 71.427,24.798 70.126,24.684 
			68.183,24.684 68.183,24.519 63.819,24.143 68.183,23.764 68.183,23.204 63.819,22.826 68.183,22.446 68.183,21.887 
			63.819,21.508 68.183,21.132 68.183,20.572 63.819,20.193 68.183,19.814 68.183,19.257 63.819,18.878 68.183,18.5 68.183,17.94 
			63.817,17.562 68.183,17.185 68.183,16.625 63.819,16.246 68.183,15.868 68.183,15.308 63.819,14.929 68.183,14.556 
			68.183,14.221 		"/>
	</g>
</g>
</svg>
