<?xml version="1.0" encoding="utf-8"?>
<!-- Generator: Adobe Illustrator 15.0.0, SVG Export Plug-In . SVG Version: 6.00 Build 0)  -->
<!DOCTYPE svg PUBLIC "-//W3C//DTD SVG 1.1//EN" "http://www.w3.org/Graphics/SVG/1.1/DTD/svg11.dtd">
<svg version="1.1" id="Layer_1" xmlns="http://www.w3.org/2000/svg" xmlns:xlink="http://www.w3.org/1999/xlink" x="0px" y="0px"
	 width="121.739px" height="65.218px" viewBox="0 0 121.739 65.218" enable-background="new 0 0 121.739 65.218"
	 xml:space="preserve">
<g>
	<rect x="12.374" y="4.95" fill-rule="evenodd" clip-rule="evenodd" fill="#231F20" width="99.75" height="52.88"/>
	<g>
		<g>
			<rect x="13.253" y="5.831" fill-rule="evenodd" clip-rule="evenodd" fill="#FFFFFF" width="97.994" height="51.12"/>
			<path fill-rule="evenodd" clip-rule="evenodd" fill="#D8E1E7" d="M33.206,5.831h-7.315l-5.86,0.507l7.607,0.659l-7.607,0.654
				l7.607,0.66l-7.607,0.655l7.607,0.659l-7.607,0.659l7.607,0.655l-7.607,0.66l7.607,0.654l-7.607,0.66l7.607,0.655l-7.607,0.659
				l7.607,0.66l-7.607,0.655l7.607,0.66l-7.607,0.66l7.607,0.654l-7.607,0.654l7.607,0.66l-7.607,0.66l7.607,0.66l-7.607,0.655
				l7.607,0.659l-7.607,0.654l7.607,0.66l-7.607,0.655l7.607,0.655l-7.607,0.66l7.607,0.659l-7.607,0.654l7.607,0.66l-7.607,0.66
				l7.607,0.655l-7.607,0.654l7.607,0.66l-7.607,0.66l7.607,0.659l-7.607,0.654l7.607,0.655l-7.607,0.659l7.607,0.66l-7.607,0.655
				l7.607,0.66l-7.607,0.659l7.607,0.654l-7.607,0.66l7.607,0.655l-7.607,0.66l7.607,0.655l-7.607,0.659l7.607,0.654l-7.607,0.66
				l7.607,0.66l-7.607,0.655l7.607,0.659l-7.607,0.654l7.607,0.661l-7.607,0.654l7.607,0.66l-7.607,0.66l7.607,0.654l-7.607,0.66
				l7.607,0.654l-7.607,0.66l7.607,0.661l-7.607,0.654l7.607,0.659l-7.607,0.655l7.607,0.654l-7.607,0.666l7.607,0.654l-7.607,0.654
				l7.607,0.66l-7.607,0.659l7.607,0.655l-7.607,0.66l7.215,0.625h4.606l7.213-0.625l-7.607-0.66l7.607-0.655l-7.607-0.659
				l7.607-0.66l-7.607-0.654l7.607-0.654l-7.607-0.666l7.607-0.654l-7.607-0.655l7.607-0.659l-7.607-0.654l7.607-0.661l-7.607-0.66
				l7.607-0.654l-7.607-0.66l7.607-0.654l-7.607-0.66l7.607-0.66l-7.607-0.654l7.607-0.661l-7.607-0.654l7.607-0.659l-7.607-0.655
				l7.607-0.66l-7.607-0.66l7.607-0.654l-7.607-0.659l7.607-0.655l-7.607-0.66l7.607-0.655l-7.607-0.66l7.607-0.654l-7.607-0.659
				l7.607-0.66l-7.607-0.655l7.607-0.66l-7.607-0.659l7.607-0.655l-7.607-0.654l7.607-0.659l-7.607-0.66l7.607-0.66l-7.607-0.654
				l7.607-0.655l-7.607-0.66l7.607-0.66l-7.607-0.654l7.607-0.659l-7.607-0.66l7.607-0.655l-7.607-0.66l7.607-0.655l-7.607-0.654
				l7.607-0.659l-7.607-0.655l7.607-0.66l-7.607-0.66l7.607-0.66l-7.607-0.654l7.607-0.654l-7.607-0.66l7.607-0.66l-7.607-0.655
				l7.607-0.66l-7.607-0.659l7.607-0.655l-7.607-0.66l7.607-0.654l-7.607-0.66l7.607-0.655l-7.607-0.659l7.607-0.659l-7.607-0.655
				l7.607-0.66l-7.607-0.654l7.607-0.659L33.206,5.831L33.206,5.831z M65.907,5.831H58.59l-5.86,0.507l7.606,0.659L52.73,7.651
				l7.606,0.66L52.73,8.967l7.606,0.659l-7.606,0.659l7.606,0.655l-7.606,0.66l7.606,0.654l-7.606,0.66l7.606,0.655l-7.606,0.659
				l7.606,0.66l-7.606,0.655l7.606,0.66l-7.606,0.66l7.606,0.654l-7.606,0.654l7.606,0.66l-7.606,0.66l7.606,0.66L52.73,20.81
				l7.606,0.659l-7.606,0.654l7.606,0.66l-7.606,0.655l7.606,0.655l-7.606,0.66l7.606,0.659l-7.606,0.654l7.606,0.66l-7.606,0.66
				l7.606,0.655l-7.606,0.654l7.606,0.66l-7.606,0.66l7.606,0.659l-7.606,0.654l7.606,0.655l-7.606,0.659l7.606,0.66l-7.606,0.655
				l7.606,0.66L52.73,35.28l7.606,0.654l-7.606,0.66l7.606,0.655l-7.606,0.66l7.606,0.655l-7.606,0.659l7.606,0.654l-7.606,0.66
				l7.606,0.66l-7.606,0.655l7.606,0.659l-7.606,0.654l7.606,0.661l-7.606,0.654l7.606,0.66l-7.606,0.66l7.606,0.654l-7.606,0.66
				l7.606,0.654l-7.606,0.66l7.606,0.661l-7.606,0.654l7.606,0.659l-7.606,0.655l7.606,0.654l-7.606,0.666l7.606,0.654l-7.606,0.654
				l7.606,0.66l-7.606,0.659l7.606,0.655l-7.606,0.66l7.215,0.625h4.606l7.213-0.625l-7.604-0.66l7.604-0.655l-7.604-0.659
				l7.605-0.66l-7.605-0.654l7.604-0.654l-7.604-0.666l7.605-0.654l-7.605-0.655l7.604-0.659l-7.604-0.654l7.605-0.661l-7.605-0.66
				l7.604-0.654l-7.604-0.66l7.604-0.654l-7.604-0.66l7.604-0.66l-7.604-0.654l7.604-0.661l-7.604-0.654l7.604-0.659l-7.604-0.655
				l7.605-0.66l-7.605-0.66l7.604-0.654l-7.604-0.659l7.604-0.655l-7.604-0.66l7.604-0.655l-7.604-0.66l7.604-0.654l-7.604-0.659
				l7.604-0.66l-7.604-0.655l7.605-0.66l-7.605-0.659l7.604-0.655l-7.604-0.654l7.604-0.659l-7.604-0.66l7.605-0.66l-7.605-0.654
				l7.604-0.655l-7.604-0.66l7.604-0.66l-7.604-0.654l7.604-0.659l-7.604-0.66l7.604-0.655l-7.604-0.66l7.604-0.655l-7.604-0.654
				l7.604-0.659l-7.604-0.655l7.604-0.66l-7.604-0.66l7.604-0.66l-7.604-0.654l7.604-0.654l-7.604-0.66l7.605-0.66l-7.605-0.655
				l7.604-0.66l-7.606-0.659l7.606-0.655l-7.604-0.66l7.605-0.654l-7.605-0.66l7.604-0.655l-7.604-0.659l7.604-0.659l-7.606-0.655
				l7.608-0.66l-7.605-0.654l7.605-0.659L65.907,5.831L65.907,5.831z M98.606,5.831h-7.318l-5.859,0.507l7.607,0.659l-7.607,0.654
				l7.607,0.66l-7.605,0.655l7.605,0.659l-7.607,0.659l7.607,0.655l-7.607,0.66l7.607,0.654l-7.607,0.66l7.607,0.655l-7.607,0.659
				l7.607,0.66l-7.607,0.655l7.607,0.66l-7.607,0.66l7.607,0.654l-7.607,0.654l7.607,0.66l-7.607,0.66l7.607,0.66l-7.607,0.655
				l7.607,0.659l-7.607,0.654l7.607,0.66l-7.607,0.655l7.607,0.655l-7.607,0.66l7.607,0.659l-7.607,0.654l7.607,0.66l-7.607,0.66
				l7.607,0.655l-7.607,0.654l7.607,0.66l-7.607,0.66l7.607,0.659l-7.607,0.654l7.607,0.655l-7.607,0.659l7.607,0.66l-7.607,0.655
				l7.607,0.66l-7.607,0.659l7.607,0.654l-7.607,0.66l7.607,0.655l-7.607,0.66l7.607,0.655l-7.607,0.659l7.607,0.654l-7.607,0.66
				l7.607,0.66l-7.607,0.655l7.607,0.659l-7.607,0.654l7.607,0.661l-7.607,0.654l7.607,0.66l-7.607,0.66l7.607,0.654l-7.607,0.66
				l7.607,0.654l-7.607,0.66l7.607,0.661l-7.607,0.654l7.607,0.659l-7.607,0.655l7.607,0.654l-7.607,0.666l7.607,0.654l-7.607,0.654
				l7.607,0.66l-7.607,0.659l7.607,0.655l-7.607,0.66l7.215,0.625h4.607l7.213-0.625l-7.604-0.66l7.604-0.655l-7.604-0.659
				l7.606-0.66l-7.606-0.654l7.604-0.654l-7.604-0.666l7.604-0.654l-7.604-0.655l7.604-0.659l-7.604-0.654l7.604-0.661l-7.604-0.66
				l7.604-0.654l-7.604-0.66l7.604-0.654l-7.604-0.66l7.604-0.66l-7.604-0.654l7.604-0.661l-7.604-0.654l7.604-0.659l-7.604-0.655
				l7.604-0.66l-7.604-0.66l7.604-0.654l-7.604-0.659l7.604-0.655l-7.604-0.66l7.604-0.655l-7.604-0.66l7.604-0.654l-7.604-0.659
				l7.604-0.66l-7.604-0.655l7.604-0.66l-7.604-0.659l7.604-0.655l-7.604-0.654l7.604-0.659l-7.604-0.66l7.604-0.66l-7.604-0.654
				l7.604-0.655l-7.604-0.66l7.604-0.66l-7.604-0.654l7.604-0.659l-7.604-0.66l7.604-0.655l-7.604-0.66l7.604-0.655l-7.604-0.654
				l7.604-0.659l-7.604-0.655l7.604-0.66l-7.604-0.66l7.604-0.66l-7.604-0.654l7.604-0.654l-7.604-0.66l7.604-0.66l-7.604-0.655
				l7.604-0.66l-7.604-0.659l7.604-0.655l-7.604-0.66l7.604-0.654l-7.604-0.66l7.604-0.655l-7.604-0.659l7.604-0.659l-7.604-0.655
				l7.604-0.66l-7.604-0.654l7.604-0.659L98.606,5.831z"/>
		</g>
		<g>
			<rect x="44.519" y="12.226" fill-rule="evenodd" clip-rule="evenodd" fill="#006CB6" width="66.728" height="6.389"/>
			<path fill-rule="evenodd" clip-rule="evenodd" fill="#00508E" d="M59.95,12.226h4.597l-0.386,0.029l7.604,0.66l-7.606,0.655
				l7.606,0.659l-7.604,0.66l7.605,0.655l-7.605,0.66l7.604,0.66l-7.604,0.654l7.604,0.654l-5.039,0.44h-8.955l-5.041-0.44
				l7.606-0.654l-7.606-0.654l7.606-0.66l-7.606-0.66l7.606-0.655l-7.606-0.66l7.606-0.659l-7.606-0.655l7.606-0.66L59.95,12.226
				L59.95,12.226z M92.649,12.226h4.596l-0.386,0.029l7.604,0.66l-7.604,0.655l7.604,0.659l-7.604,0.66l7.604,0.655l-7.604,0.66
				l7.604,0.66l-7.604,0.654l7.604,0.654l-5.039,0.44H90.47l-5.041-0.44l7.607-0.654l-7.607-0.654l7.607-0.66l-7.607-0.66
				l7.607-0.655l-7.607-0.66l7.607-0.659l-7.607-0.655l7.607-0.66L92.649,12.226z"/>
		</g>
		<g>
			<rect x="44.519" y="25.003" fill-rule="evenodd" clip-rule="evenodd" fill="#0067B3" width="66.728" height="6.391"/>
			<path fill-rule="evenodd" clip-rule="evenodd" fill="#00508E" d="M55.597,25.003H68.9l-4.739,0.41l7.604,0.654l-7.604,0.66
				l7.604,0.66l-7.604,0.655l7.605,0.654l-7.605,0.66l7.604,0.66l-7.604,0.659l7.604,0.654l-0.69,0.062H53.423l-0.693-0.062
				l7.606-0.654l-7.606-0.659l7.606-0.66l-7.606-0.66l7.606-0.654l-7.606-0.655l7.606-0.66l-7.606-0.66l7.606-0.654L55.597,25.003
				L55.597,25.003z M88.296,25.003h13.303l-4.739,0.41l7.604,0.654l-7.604,0.66l7.604,0.66l-7.604,0.655l7.604,0.654l-7.604,0.66
				l7.604,0.66l-7.604,0.659l7.604,0.654l-0.691,0.062h-17.65l-0.693-0.062l7.607-0.654l-7.607-0.659l7.607-0.66l-7.607-0.66
				l7.607-0.654l-7.607-0.655l7.607-0.66l-7.607-0.66l7.607-0.654L88.296,25.003z"/>
		</g>
		<g>
			<rect x="13.253" y="37.782" fill-rule="evenodd" clip-rule="evenodd" fill="#0067B3" width="97.994" height="6.39"/>
			<path fill-rule="evenodd" clip-rule="evenodd" fill="#00508E" d="M21.504,37.782l-1.473,0.128l7.607,0.655l-7.607,0.659
				l7.607,0.654l-7.607,0.66l7.607,0.66l-7.607,0.655l7.607,0.659l-7.607,0.654l7.607,0.661l-3.954,0.343h11.729l-3.955-0.343
				l7.607-0.661l-7.607-0.654l7.607-0.659l-7.607-0.655l7.607-0.66l-7.607-0.66l7.607-0.654l-7.607-0.659l7.607-0.655l-1.473-0.128
				H21.504L21.504,37.782z M54.203,37.782h16.089l1.473,0.128l-7.604,0.655l7.604,0.659l-7.604,0.654l7.605,0.66l-7.605,0.66
				l7.604,0.655l-7.604,0.659l7.604,0.654l-7.604,0.661l3.951,0.343h-11.73l3.954-0.343l-7.606-0.661l7.606-0.654l-7.606-0.659
				l7.606-0.655l-7.606-0.66l7.606-0.66l-7.606-0.654l7.606-0.659L52.73,37.91L54.203,37.782L54.203,37.782z M86.904,37.782h16.086
				l1.474,0.128l-7.604,0.655l7.604,0.659l-7.604,0.654l7.604,0.66l-7.604,0.66l7.604,0.655l-7.604,0.659l7.604,0.654l-7.604,0.661
				l3.952,0.343H89.083l3.953-0.343l-7.607-0.661l7.607-0.654l-7.607-0.659l7.607-0.655l-7.607-0.66l7.607-0.66l-7.607-0.654
				l7.607-0.659l-7.607-0.655L86.904,37.782z"/>
		</g>
		<g>
			<rect x="13.253" y="50.561" fill-rule="evenodd" clip-rule="evenodd" fill="#0067B3" width="97.994" height="6.391"/>
			<path fill-rule="evenodd" clip-rule="evenodd" fill="#00508E" d="M25.868,50.561l-5.837,0.502l7.607,0.654l-7.607,0.666
				l7.607,0.654l-7.607,0.654l7.607,0.66l-7.607,0.659l7.607,0.655l-7.607,0.66l7.2,0.625h4.635l7.2-0.625l-7.607-0.66l7.607-0.655
				l-7.607-0.659l7.607-0.66l-7.607-0.654l7.607-0.654l-7.607-0.666l7.607-0.654l-5.837-0.502H25.868L25.868,50.561z M58.567,50.561
				h7.361l5.839,0.502l-7.605,0.654l7.604,0.666l-7.604,0.654l7.605,0.654l-7.605,0.66l7.604,0.659l-7.604,0.655l7.604,0.66
				l-7.197,0.625H59.93l-7.2-0.625l7.606-0.66l-7.606-0.655l7.606-0.659l-7.606-0.66l7.606-0.654l-7.606-0.654l7.606-0.666
				l-7.606-0.654L58.567,50.561L58.567,50.561z M91.266,50.561h7.363l5.835,0.502l-7.604,0.654l7.604,0.666l-7.604,0.654
				l7.606,0.654l-7.606,0.66l7.604,0.659l-7.604,0.655l7.604,0.66l-7.198,0.625h-4.638l-7.199-0.625l7.607-0.66l-7.607-0.655
				l7.607-0.659l-7.607-0.66l7.607-0.654l-7.607-0.654l7.607-0.666l-7.607-0.654L91.266,50.561z"/>
		</g>
		<g>
			<polygon fill-rule="evenodd" clip-rule="evenodd" fill="#C97B16" points="30.247,16.409 30.689,13.882 31.758,10.225 
				31.948,10.271 31.247,13.985 31.05,16.875 33.709,10.752 33.892,10.818 31.868,17.177 33.562,14.937 35.536,11.616 
				35.708,11.709 34.05,15.228 32.764,17.371 37.194,12.793 37.34,12.921 33.291,18.062 38.606,14.245 38.729,14.399 33.825,18.732 
				39.736,15.923 39.829,16.097 34.232,19.489 40.55,17.781 40.611,17.969 34.715,20.221 37.194,19.842 41.025,19.76 41.038,19.954 
				37.271,20.404 34.462,21.141 41.125,21.781 41.118,21.975 34.421,22.012 37.03,22.957 40.867,23.781 40.836,23.976 
				36.902,23.515 34.585,22.946 40.26,25.72 40.186,25.904 34.045,23.638 39.317,27.515 39.209,27.679 33.572,24.354 38.066,29.111 
				37.931,29.249 32.979,24.973 36.552,30.457 36.396,30.574 32.283,25.479 34.82,31.511 34.646,31.598 31.583,25.98 32.268,28.508 
				32.927,32.247 32.735,32.288 31.72,28.656 30.679,25.97 30.937,32.621 30.743,32.636 29.827,26.154 28.912,32.636 28.717,32.621 
				28.971,26.165 28.178,28.814 26.912,32.293 26.725,32.237 27.628,28.661 28.18,25.791 25.011,31.598 24.834,31.511 
				27.372,25.479 23.264,30.574 23.105,30.457 26.763,24.845 24.5,26.513 21.734,29.249 21.591,29.121 24.108,26.103 25.873,24.477 
				20.448,27.679 20.34,27.515 25.612,23.638 19.471,25.904 19.397,25.72 25.093,22.938 22.678,23.515 18.824,23.976 18.791,23.781 
				22.553,22.963 25.223,22.012 18.54,21.975 18.532,21.781 24.786,21.177 22.456,20.916 18.609,19.939 18.647,19.749 22.53,20.354 
				25.315,20.364 19.046,17.969 19.108,17.781 25.528,19.515 23.308,18.025 19.83,16.103 19.917,15.929 23.576,17.524 
				25.748,18.655 20.929,14.399 21.052,14.245 26.367,18.062 22.318,12.921 22.466,12.793 27.014,17.493 23.947,11.713 
				24.116,11.616 27.75,17.054 25.766,10.818 25.947,10.752 28.61,16.886 28.428,13.923 27.709,10.271 27.899,10.225 28.988,13.821 
				29.41,16.373 29.73,10.066 29.925,10.066 			"/>
			<polygon fill-rule="evenodd" clip-rule="evenodd" fill="#FCB813" points="29.827,10.168 30.012,13.749 30.191,17.335 
				30.789,13.907 31.828,10.347 31.145,13.975 30.907,17.462 32.334,14.174 33.764,10.879 32.677,14.302 31.587,17.72 
				33.648,14.993 35.572,11.754 33.961,15.181 32.211,18.093 34.705,15.514 37.199,12.931 34.979,15.749 32.759,18.568 
				35.672,16.477 38.585,14.383 35.9,16.763 33.211,19.136 36.452,17.597 39.693,16.062 36.624,17.919 33.554,19.774 37.017,18.845 
				40.481,17.908 37.132,19.187 33.779,20.466 37.199,19.944 40.928,19.867 37.248,20.303 33.876,21.188 37.447,21.53 41.02,21.873 
				37.432,21.893 33.843,21.913 37.004,23.06 40.749,23.863 36.925,23.413 33.682,22.619 36.908,24.194 40.13,25.771 36.764,24.533 
				33.397,23.29 36.286,25.413 39.176,27.541 36.086,25.72 32.996,23.893 35.459,26.502 37.925,29.111 35.209,26.763 32.495,24.421 
				34.455,27.422 36.414,30.431 34.16,27.638 31.907,24.85 33.298,28.155 34.689,31.459 32.971,28.312 31.252,25.162 32.168,28.528 
				32.807,32.165 31.817,28.625 30.551,25.356 30.692,28.942 30.833,32.522 30.329,28.973 29.827,25.423 29.326,28.973 
				28.825,32.522 28.965,28.942 29.106,25.356 28.081,28.779 26.85,32.165 27.73,28.682 28.405,25.162 26.687,28.312 24.968,31.459 
				26.359,28.155 27.75,24.85 25.497,27.638 23.244,30.431 25.203,27.422 27.162,24.421 24.43,26.441 21.732,29.111 24.18,26.176 
				26.661,23.893 23.571,25.72 20.481,27.541 23.372,25.413 26.259,23.29 22.896,24.527 19.53,25.771 22.752,24.194 25.975,22.619 
				22.663,23.413 18.908,23.863 22.584,23.06 25.812,21.913 22.226,21.893 18.637,21.873 22.21,21.53 25.781,21.188 22.476,20.818 
				18.729,19.867 22.528,20.455 25.878,20.466 22.528,19.187 19.177,17.908 22.64,18.845 26.103,19.774 23.359,17.934 
				19.965,16.062 23.53,17.616 26.446,19.136 23.758,16.763 21.07,14.383 23.985,16.477 26.901,18.568 24.679,15.749 22.458,12.931 
				24.952,15.514 27.446,18.093 25.766,14.921 24.083,11.754 26.078,14.736 28.07,17.72 26.983,14.302 25.894,10.879 27.321,14.174 
				28.75,17.462 28.528,13.902 27.827,10.347 28.886,13.842 29.464,17.335 29.648,13.749 			"/>
			<path fill-rule="evenodd" clip-rule="evenodd" fill="#C97B16" d="M29.827,17.294c-2.235,0-4.049,1.816-4.049,4.052
				s1.814,4.052,4.049,4.052c2.236,0,4.052-1.816,4.052-4.052S32.063,17.294,29.827,17.294L29.827,17.294z M29.827,17.085
				c2.355,0,4.264,1.908,4.264,4.261s-1.909,4.268-4.264,4.268c-2.353,0-4.261-1.915-4.261-4.268S27.474,17.085,29.827,17.085z"/>
		</g>
	</g>
</g>
</svg>
