<?xml version="1.0" encoding="utf-8"?>
<!-- Generator: Adobe Illustrator 15.0.0, SVG Export Plug-In . SVG Version: 6.00 Build 0)  -->
<!DOCTYPE svg PUBLIC "-//W3C//DTD SVG 1.1//EN" "http://www.w3.org/Graphics/SVG/1.1/DTD/svg11.dtd">
<svg version="1.1" id="Layer_1" xmlns="http://www.w3.org/2000/svg" xmlns:xlink="http://www.w3.org/1999/xlink" x="0px" y="0px"
	 width="121.739px" height="65.218px" viewBox="0 0 121.739 65.218" enable-background="new 0 0 121.739 65.218"
	 xml:space="preserve">
<g>
	<rect x="12.019" y="5.096" fill-rule="evenodd" clip-rule="evenodd" fill="#231F20" width="99.774" height="52.885"/>
	<g>
		<rect x="12.899" y="37.437" fill-rule="evenodd" clip-rule="evenodd" fill="#EC1C24" width="98.014" height="3.934"/>
		<rect x="12.899" y="33.502" fill-rule="evenodd" clip-rule="evenodd" fill="#FFFFFF" width="98.014" height="3.935"/>
		<rect x="12.899" y="29.568" fill-rule="evenodd" clip-rule="evenodd" fill="#EC1C24" width="98.014" height="3.934"/>
		<rect x="12.899" y="17.772" fill-rule="evenodd" clip-rule="evenodd" fill="#FFFFFF" width="98.014" height="3.934"/>
		<rect x="12.899" y="21.706" fill-rule="evenodd" clip-rule="evenodd" fill="#EC1C24" width="98.014" height="3.934"/>
		<rect x="12.899" y="25.64" fill-rule="evenodd" clip-rule="evenodd" fill="#FFFFFF" width="98.014" height="3.929"/>
		<rect x="12.899" y="13.838" fill-rule="evenodd" clip-rule="evenodd" fill="#EC1C24" width="98.014" height="3.935"/>
		<rect x="12.899" y="9.904" fill-rule="evenodd" clip-rule="evenodd" fill="#FFFFFF" width="98.014" height="3.934"/>
		<rect x="12.899" y="5.971" fill-rule="evenodd" clip-rule="evenodd" fill="#EC1C24" width="98.014" height="3.934"/>
		<rect x="12.899" y="41.37" fill-rule="evenodd" clip-rule="evenodd" fill="#FFFFFF" width="98.014" height="3.934"/>
		<rect x="12.899" y="45.304" fill-rule="evenodd" clip-rule="evenodd" fill="#EC1C24" width="98.014" height="3.935"/>
		<rect x="12.899" y="49.238" fill-rule="evenodd" clip-rule="evenodd" fill="#FFFFFF" width="98.014" height="3.934"/>
		<rect x="12.899" y="5.971" fill-rule="evenodd" clip-rule="evenodd" fill="#0094D9" width="39.163" height="27.531"/>
		<polygon fill-rule="evenodd" clip-rule="evenodd" fill="#006EAC" points="19.858,5.971 38.541,5.971 31.113,6.615 38.72,7.275 
			31.113,7.936 38.72,8.59 31.113,9.25 38.72,9.904 31.113,10.564 38.72,11.225 31.113,11.88 38.72,12.539 31.113,13.194 
			38.72,13.854 31.113,14.509 38.72,15.169 31.113,15.828 38.72,16.483 31.113,17.144 38.72,17.799 31.113,18.453 38.72,19.117 
			31.113,19.771 38.72,20.432 31.113,21.092 38.72,21.747 31.113,22.402 38.72,23.062 31.113,23.722 38.72,24.376 31.113,25.036 
			38.72,25.696 31.113,26.351 38.72,27.011 31.113,27.671 38.72,28.326 31.113,28.986 38.72,29.641 31.113,30.3 38.72,30.955 
			31.113,31.615 38.72,32.275 31.113,32.931 37.735,33.502 20.665,33.502 27.289,32.931 19.682,32.275 27.289,31.615 19.682,30.955 
			27.289,30.3 19.682,29.641 27.289,28.986 19.682,28.326 27.289,27.671 19.682,27.011 27.289,26.351 19.682,25.696 27.289,25.036 
			19.682,24.376 27.289,23.722 19.682,23.062 27.289,22.402 19.682,21.747 27.289,21.092 19.682,20.432 27.289,19.771 
			19.682,19.117 27.289,18.458 19.682,17.799 27.289,17.144 19.682,16.483 27.289,15.828 19.682,15.169 27.289,14.509 
			19.682,13.854 27.289,13.194 19.682,12.539 27.289,11.88 19.682,11.225 27.289,10.564 19.682,9.904 27.289,9.25 19.682,8.59 
			27.289,7.936 19.682,7.275 27.289,6.615 		"/>
		<path fill-rule="evenodd" clip-rule="evenodd" fill="#FFFFFF" d="M46.536,27.089l0.325,1.068l1.059-0.005l-0.856,0.659l0.33,1.069
			l-0.857-0.664l-0.857,0.664l0.33-1.069l-0.859-0.659l1.062,0.005L46.536,27.089L46.536,27.089z M15.153,6.569l0.325,1.069
			l1.061-0.005l-0.859,0.659l0.33,1.068l-0.856-0.664l-0.857,0.664l0.33-1.068l-0.857-0.659l1.059,0.005L15.153,6.569L15.153,6.569z
			 M22.056,6.564c0.108,0.358,0.214,0.716,0.325,1.069c0.353,0,0.706,0,1.059,0c-0.286,0.22-0.573,0.439-0.857,0.659
			c0.107,0.354,0.22,0.711,0.327,1.068c-0.286-0.224-0.57-0.444-0.854-0.664c-0.287,0.22-0.573,0.44-0.856,0.664
			c0.109-0.357,0.22-0.715,0.33-1.068c-0.286-0.22-0.573-0.439-0.859-0.659c0.354,0,0.706,0,1.059,0
			C21.836,7.28,21.945,6.923,22.056,6.564L22.056,6.564z M28.957,6.564c0.107,0.358,0.215,0.716,0.325,1.069c0.354,0,0.706,0,1.06,0
			c-0.285,0.22-0.571,0.439-0.857,0.659c0.108,0.354,0.22,0.711,0.328,1.068c-0.284-0.224-0.568-0.444-0.854-0.664
			c-0.286,0.22-0.57,0.44-0.857,0.664c0.11-0.357,0.22-0.715,0.33-1.068c-0.287-0.22-0.573-0.439-0.859-0.659
			c0.353,0,0.706,0,1.059,0C28.739,7.28,28.847,6.923,28.957,6.564L28.957,6.564z M35.857,6.564
			c0.108,0.358,0.217,0.716,0.325,1.069c0.355,0,0.708,0,1.061,0c-0.287,0.22-0.573,0.439-0.859,0.659
			c0.11,0.354,0.22,0.711,0.33,1.068c-0.286-0.224-0.57-0.444-0.857-0.664c-0.286,0.22-0.57,0.44-0.857,0.664
			c0.11-0.357,0.22-0.715,0.33-1.068c-0.286-0.22-0.573-0.439-0.859-0.659c0.353,0,0.706,0,1.059,0
			C35.64,7.28,35.75,6.923,35.857,6.564L35.857,6.564z M42.758,6.564c0.11,0.358,0.218,0.716,0.328,1.069c0.353,0,0.706,0,1.059,0
			c-0.286,0.22-0.572,0.439-0.859,0.659c0.109,0.354,0.219,0.711,0.33,1.068c-0.287-0.224-0.571-0.444-0.857-0.664
			c-0.286,0.22-0.57,0.44-0.857,0.664c0.11-0.357,0.223-0.715,0.33-1.068c-0.286-0.22-0.573-0.439-0.859-0.659
			c0.355,0,0.708,0,1.062,0C42.541,7.28,42.651,6.923,42.758,6.564L42.758,6.564z M49.66,6.569l0.327,1.069l1.059-0.005
			l-0.859,0.659l0.33,1.068L49.66,8.697l-0.854,0.664l0.327-1.068l-0.857-0.659l1.059,0.005L49.66,6.569L49.66,6.569z
			 M15.153,12.032l0.325,1.069h1.061l-0.859,0.66l0.33,1.064l-0.856-0.66l-0.857,0.66l0.33-1.064l-0.857-0.66h1.059L15.153,12.032
			L15.153,12.032z M22.056,12.032c0.108,0.358,0.214,0.717,0.325,1.069c0.353,0,0.706,0,1.059,0c-0.286,0.221-0.573,0.44-0.857,0.66
			c0.107,0.353,0.22,0.711,0.327,1.064c-0.286-0.22-0.57-0.439-0.854-0.66c-0.287,0.221-0.573,0.44-0.856,0.66
			c0.109-0.354,0.22-0.712,0.33-1.064c-0.286-0.22-0.573-0.439-0.859-0.66c0.354,0,0.706,0,1.059,0
			C21.836,12.749,21.945,12.391,22.056,12.032L22.056,12.032z M28.957,12.032c0.107,0.358,0.215,0.717,0.325,1.069
			c0.354,0,0.706,0,1.06,0c-0.285,0.221-0.571,0.44-0.857,0.66c0.108,0.353,0.22,0.711,0.328,1.064
			c-0.284-0.22-0.568-0.439-0.854-0.66c-0.286,0.221-0.57,0.44-0.857,0.66c0.11-0.354,0.22-0.712,0.33-1.064
			c-0.287-0.22-0.573-0.439-0.859-0.66c0.353,0,0.706,0,1.059,0C28.739,12.749,28.847,12.391,28.957,12.032L28.957,12.032z
			 M35.857,12.032c0.108,0.358,0.217,0.717,0.325,1.069c0.355,0,0.708,0,1.061,0c-0.287,0.221-0.573,0.44-0.859,0.66
			c0.11,0.353,0.22,0.711,0.33,1.064c-0.286-0.22-0.57-0.439-0.857-0.66c-0.286,0.221-0.57,0.44-0.857,0.66
			c0.11-0.354,0.22-0.712,0.33-1.064c-0.286-0.22-0.573-0.439-0.859-0.66c0.353,0,0.706,0,1.059,0
			C35.64,12.749,35.75,12.391,35.857,12.032L35.857,12.032z M42.758,12.032c0.11,0.358,0.218,0.717,0.328,1.069
			c0.353,0,0.706,0,1.059,0c-0.286,0.221-0.572,0.44-0.859,0.66c0.109,0.353,0.219,0.711,0.33,1.064
			c-0.287-0.22-0.571-0.439-0.857-0.66c-0.286,0.221-0.57,0.44-0.857,0.66c0.11-0.354,0.223-0.712,0.33-1.064
			c-0.286-0.22-0.573-0.439-0.859-0.66c0.355,0,0.708,0,1.062,0C42.541,12.749,42.651,12.391,42.758,12.032L42.758,12.032z
			 M49.66,12.032l0.327,1.069h1.059l-0.859,0.66l0.33,1.064l-0.856-0.66l-0.854,0.66l0.327-1.064l-0.857-0.66h1.059L49.66,12.032
			L49.66,12.032z M18.562,9.266l0.325,1.068h1.062l-0.859,0.655l0.327,1.069l-0.854-0.66l-0.857,0.66l0.33-1.069l-0.859-0.655h1.059
			L18.562,9.266L18.562,9.266z M25.555,9.266c0.11,0.358,0.218,0.711,0.328,1.068c0.353,0,0.706,0,1.059-0.005
			c-0.286,0.22-0.573,0.44-0.859,0.66c0.11,0.358,0.22,0.712,0.33,1.069c-0.286-0.221-0.57-0.441-0.857-0.66
			c-0.286,0.219-0.571,0.439-0.856,0.66c0.109-0.357,0.22-0.711,0.33-1.069c-0.287-0.22-0.573-0.44-0.859-0.66
			c0.354,0.005,0.708,0.005,1.062,0.005C25.338,9.977,25.447,9.624,25.555,9.266L25.555,9.266z M32.547,9.266
			c0.11,0.358,0.218,0.711,0.328,1.068c0.353,0,0.707,0,1.06-0.005c-0.287,0.22-0.574,0.44-0.86,0.66
			c0.113,0.358,0.22,0.712,0.33,1.069c-0.284-0.221-0.57-0.441-0.857-0.66c-0.284,0.219-0.57,0.439-0.854,0.66
			c0.108-0.357,0.22-0.711,0.328-1.069c-0.287-0.22-0.571-0.44-0.856-0.66c0.353,0.005,0.706,0.005,1.058,0.005
			C32.333,9.977,32.441,9.624,32.547,9.266L32.547,9.266z M39.543,9.266c0.107,0.358,0.217,0.711,0.325,1.068
			c0.353,0,0.706,0,1.059-0.005c-0.287,0.22-0.573,0.44-0.857,0.66c0.11,0.358,0.22,0.712,0.33,1.069
			c-0.287-0.221-0.573-0.441-0.857-0.66c-0.287,0.219-0.57,0.439-0.857,0.66c0.11-0.357,0.22-0.711,0.33-1.069
			c-0.286-0.22-0.573-0.44-0.859-0.66c0.353,0.005,0.706,0.005,1.061,0.005C39.326,9.977,39.433,9.624,39.543,9.266L39.543,9.266z
			 M46.536,9.266l0.325,1.068h1.059l-0.856,0.655l0.33,1.069l-0.857-0.66l-0.857,0.66l0.33-1.069l-0.859-0.655h1.062L46.536,9.266
			L46.536,9.266z M15.153,18.14l0.325,1.07h1.061l-0.859,0.654l0.33,1.069l-0.856-0.665l-0.857,0.665l0.33-1.069l-0.857-0.654h1.059
			L15.153,18.14L15.153,18.14z M22.056,18.14c0.108,0.354,0.214,0.712,0.325,1.07c0.353,0,0.706,0,1.059-0.005
			c-0.286,0.22-0.573,0.439-0.857,0.659c0.107,0.358,0.22,0.712,0.327,1.069c-0.286-0.219-0.57-0.439-0.854-0.665
			c-0.287,0.226-0.573,0.446-0.856,0.665c0.109-0.357,0.22-0.711,0.33-1.069c-0.286-0.22-0.573-0.439-0.859-0.659
			c0.354,0.005,0.706,0.005,1.059,0.005C21.836,18.852,21.945,18.493,22.056,18.14L22.056,18.14z M28.957,18.14
			c0.107,0.354,0.215,0.712,0.325,1.07c0.354,0,0.706,0,1.06-0.005c-0.285,0.22-0.571,0.439-0.857,0.659
			c0.108,0.358,0.22,0.712,0.328,1.069c-0.284-0.219-0.568-0.439-0.854-0.665c-0.286,0.226-0.57,0.446-0.857,0.665
			c0.11-0.357,0.22-0.711,0.33-1.069c-0.287-0.22-0.573-0.439-0.859-0.659c0.353,0.005,0.706,0.005,1.059,0.005
			C28.739,18.852,28.847,18.493,28.957,18.14L28.957,18.14z M35.857,18.14c0.108,0.354,0.217,0.712,0.325,1.07
			c0.355,0,0.708,0,1.061-0.005c-0.287,0.22-0.573,0.439-0.859,0.659c0.11,0.358,0.22,0.712,0.33,1.069
			c-0.286-0.219-0.57-0.439-0.857-0.665c-0.286,0.226-0.57,0.446-0.857,0.665c0.11-0.357,0.22-0.711,0.33-1.069
			c-0.286-0.22-0.573-0.439-0.859-0.659c0.353,0.005,0.706,0.005,1.059,0.005C35.64,18.852,35.75,18.493,35.857,18.14L35.857,18.14z
			 M42.758,18.14c0.11,0.354,0.218,0.712,0.328,1.07c0.353,0,0.706,0,1.059-0.005c-0.286,0.22-0.572,0.439-0.859,0.659
			c0.109,0.358,0.219,0.712,0.33,1.069c-0.287-0.219-0.571-0.439-0.857-0.665c-0.286,0.226-0.57,0.446-0.857,0.665
			c0.11-0.357,0.223-0.711,0.33-1.069c-0.286-0.22-0.573-0.439-0.859-0.659c0.355,0.005,0.708,0.005,1.062,0.005
			C42.541,18.852,42.651,18.493,42.758,18.14L42.758,18.14z M49.66,18.14l0.327,1.07h1.059l-0.859,0.654l0.33,1.069l-0.856-0.665
			l-0.854,0.665l0.327-1.069l-0.857-0.654h1.059L49.66,18.14L49.66,18.14z M15.153,23.609l0.325,1.068l1.061-0.005l-0.859,0.66
			l0.33,1.069l-0.856-0.665l-0.857,0.665l0.33-1.069l-0.857-0.66l1.059,0.005L15.153,23.609L15.153,23.609z M22.056,23.609
			c0.108,0.353,0.214,0.711,0.325,1.068c0.353-0.005,0.706-0.005,1.059-0.005c-0.286,0.221-0.573,0.44-0.857,0.66
			c0.107,0.353,0.22,0.711,0.327,1.069c-0.286-0.226-0.57-0.444-0.854-0.665c-0.287,0.221-0.573,0.439-0.856,0.665
			c0.109-0.358,0.22-0.717,0.33-1.069c-0.286-0.22-0.573-0.439-0.859-0.66c0.354,0,0.706,0,1.059,0.005
			C21.836,24.32,21.945,23.962,22.056,23.609L22.056,23.609z M28.957,23.609c0.107,0.353,0.215,0.711,0.325,1.068
			c0.354-0.005,0.706-0.005,1.06-0.005c-0.285,0.221-0.571,0.44-0.857,0.66c0.108,0.353,0.22,0.711,0.328,1.069
			c-0.284-0.226-0.568-0.444-0.854-0.665c-0.286,0.221-0.57,0.439-0.857,0.665c0.11-0.358,0.22-0.717,0.33-1.069
			c-0.287-0.22-0.573-0.439-0.859-0.66c0.353,0,0.706,0,1.059,0.005C28.739,24.32,28.847,23.962,28.957,23.609L28.957,23.609z
			 M35.857,23.609c0.108,0.353,0.217,0.711,0.325,1.068c0.355-0.005,0.708-0.005,1.061-0.005c-0.287,0.221-0.573,0.44-0.859,0.66
			c0.11,0.353,0.22,0.711,0.33,1.069c-0.286-0.226-0.57-0.444-0.857-0.665c-0.286,0.221-0.57,0.439-0.857,0.665
			c0.11-0.358,0.22-0.717,0.33-1.069c-0.286-0.22-0.573-0.439-0.859-0.66c0.353,0,0.706,0,1.059,0.005
			C35.64,24.32,35.75,23.962,35.857,23.609L35.857,23.609z M42.758,23.609c0.11,0.353,0.218,0.711,0.328,1.068
			c0.353-0.005,0.706-0.005,1.059-0.005c-0.286,0.221-0.572,0.44-0.859,0.66c0.109,0.353,0.219,0.711,0.33,1.069
			c-0.287-0.226-0.571-0.444-0.857-0.665c-0.286,0.221-0.57,0.439-0.857,0.665c0.11-0.358,0.223-0.717,0.33-1.069
			c-0.286-0.22-0.573-0.439-0.859-0.66c0.355,0,0.708,0,1.062,0.005C42.541,24.32,42.651,23.962,42.758,23.609L42.758,23.609z
			 M49.66,23.609l0.327,1.068l1.059-0.005l-0.859,0.66l0.33,1.069l-0.856-0.665l-0.854,0.665l0.327-1.069l-0.857-0.66l1.059,0.005
			L49.66,23.609L49.66,23.609z M18.562,20.836l0.325,1.069h1.062l-0.859,0.654l0.327,1.07l-0.854-0.66l-0.857,0.66l0.33-1.07
			l-0.859-0.654h1.059L18.562,20.836L18.562,20.836z M25.555,20.836c0.11,0.358,0.218,0.717,0.328,1.069c0.353,0,0.706,0,1.059,0
			c-0.286,0.221-0.573,0.441-0.859,0.654c0.11,0.358,0.22,0.717,0.33,1.07c-0.286-0.22-0.57-0.439-0.857-0.66
			c-0.286,0.221-0.571,0.44-0.856,0.66c0.109-0.354,0.22-0.712,0.33-1.07c-0.287-0.213-0.573-0.434-0.859-0.654
			c0.354,0,0.708,0,1.062,0C25.338,21.553,25.447,21.194,25.555,20.836L25.555,20.836z M32.547,20.836
			c0.11,0.358,0.218,0.717,0.328,1.069c0.353,0,0.707,0,1.06,0c-0.287,0.221-0.574,0.441-0.86,0.654
			c0.113,0.358,0.22,0.717,0.33,1.07c-0.284-0.22-0.57-0.439-0.857-0.66c-0.284,0.221-0.57,0.44-0.854,0.66
			c0.108-0.354,0.22-0.712,0.328-1.07c-0.287-0.213-0.571-0.434-0.856-0.654c0.353,0,0.706,0,1.058,0
			C32.333,21.553,32.441,21.194,32.547,20.836L32.547,20.836z M39.543,20.836c0.107,0.358,0.217,0.717,0.325,1.069
			c0.353,0,0.706,0,1.059,0c-0.287,0.221-0.573,0.441-0.857,0.654c0.11,0.358,0.22,0.717,0.33,1.07
			c-0.287-0.22-0.573-0.439-0.857-0.66c-0.287,0.221-0.57,0.44-0.857,0.66c0.11-0.354,0.22-0.712,0.33-1.07
			c-0.286-0.213-0.573-0.434-0.859-0.654c0.353,0,0.706,0,1.061,0C39.326,21.553,39.433,21.194,39.543,20.836L39.543,20.836z
			 M46.536,20.836l0.325,1.069h1.059l-0.856,0.654l0.33,1.07l-0.857-0.66l-0.857,0.66l0.33-1.07l-0.859-0.654h1.062L46.536,20.836
			L46.536,20.836z M18.562,15.368l0.325,1.069h1.062l-0.859,0.66l0.327,1.068l-0.854-0.665l-0.857,0.665l0.33-1.068l-0.859-0.66
			h1.059L18.562,15.368L18.562,15.368z M25.555,15.368c0.11,0.358,0.218,0.716,0.328,1.069c0.353,0,0.706,0,1.059,0
			c-0.286,0.22-0.573,0.439-0.859,0.66c0.11,0.354,0.22,0.711,0.33,1.068c-0.286-0.225-0.57-0.444-0.857-0.665
			c-0.286,0.221-0.571,0.44-0.856,0.665c0.109-0.357,0.22-0.715,0.33-1.068c-0.287-0.221-0.573-0.44-0.859-0.66
			c0.354,0,0.708,0,1.062,0C25.338,16.084,25.447,15.727,25.555,15.368L25.555,15.368z M32.547,15.368
			c0.11,0.358,0.218,0.716,0.328,1.069c0.353,0,0.707,0,1.06,0c-0.287,0.22-0.574,0.439-0.86,0.66
			c0.113,0.354,0.22,0.711,0.33,1.068c-0.284-0.225-0.57-0.444-0.857-0.665c-0.284,0.221-0.57,0.44-0.854,0.665
			c0.108-0.357,0.22-0.715,0.328-1.068c-0.287-0.221-0.571-0.44-0.856-0.66c0.353,0,0.706,0,1.058,0
			C32.333,16.084,32.441,15.727,32.547,15.368L32.547,15.368z M39.543,15.368c0.107,0.358,0.217,0.716,0.325,1.069
			c0.353,0,0.706,0,1.059,0c-0.287,0.22-0.573,0.439-0.857,0.66c0.11,0.354,0.22,0.711,0.33,1.068
			c-0.287-0.225-0.573-0.444-0.857-0.665c-0.287,0.221-0.57,0.44-0.857,0.665c0.11-0.357,0.22-0.715,0.33-1.068
			c-0.286-0.221-0.573-0.44-0.859-0.66c0.353,0,0.706,0,1.061,0C39.326,16.084,39.433,15.727,39.543,15.368L39.543,15.368z
			 M46.536,15.368l0.325,1.069h1.059l-0.856,0.66l0.33,1.068l-0.857-0.665l-0.857,0.665l0.33-1.068l-0.859-0.66h1.062L46.536,15.368
			L46.536,15.368z M15.153,29.855l0.325,1.068h1.061l-0.859,0.655l0.33,1.069l-0.856-0.66l-0.857,0.66l0.33-1.069l-0.857-0.655
			h1.059L15.153,29.855L15.153,29.855z M22.056,29.855c0.108,0.357,0.214,0.71,0.325,1.068c0.353,0,0.706,0,1.059-0.005
			c-0.286,0.221-0.573,0.441-0.857,0.66c0.107,0.358,0.22,0.711,0.327,1.069c-0.286-0.221-0.57-0.44-0.854-0.66
			c-0.287,0.22-0.573,0.439-0.856,0.66c0.109-0.358,0.22-0.711,0.33-1.069c-0.286-0.219-0.573-0.439-0.859-0.66
			c0.354,0.005,0.706,0.005,1.059,0.005C21.836,30.565,21.945,30.213,22.056,29.855L22.056,29.855z M28.957,29.855
			c0.107,0.357,0.215,0.71,0.325,1.068c0.354,0,0.706,0,1.06-0.005c-0.285,0.221-0.571,0.441-0.857,0.66
			c0.108,0.358,0.22,0.711,0.328,1.069c-0.284-0.221-0.568-0.44-0.854-0.66c-0.286,0.22-0.57,0.439-0.857,0.66
			c0.11-0.358,0.22-0.711,0.33-1.069c-0.287-0.219-0.573-0.439-0.859-0.66c0.353,0.005,0.706,0.005,1.059,0.005
			C28.739,30.565,28.847,30.213,28.957,29.855L28.957,29.855z M35.857,29.855c0.108,0.357,0.217,0.71,0.325,1.068
			c0.355,0,0.708,0,1.061-0.005c-0.287,0.221-0.573,0.441-0.859,0.66c0.11,0.358,0.22,0.711,0.33,1.069
			c-0.286-0.221-0.57-0.44-0.857-0.66c-0.286,0.22-0.57,0.439-0.857,0.66c0.11-0.358,0.22-0.711,0.33-1.069
			c-0.286-0.219-0.573-0.439-0.859-0.66c0.353,0.005,0.706,0.005,1.059,0.005C35.64,30.565,35.75,30.213,35.857,29.855
			L35.857,29.855z M42.758,29.855c0.11,0.357,0.218,0.71,0.328,1.068c0.353,0,0.706,0,1.059-0.005
			c-0.286,0.221-0.572,0.441-0.859,0.66c0.109,0.358,0.219,0.711,0.33,1.069c-0.287-0.221-0.571-0.44-0.857-0.66
			c-0.286,0.22-0.57,0.439-0.857,0.66c0.11-0.358,0.223-0.711,0.33-1.069c-0.286-0.219-0.573-0.439-0.859-0.66
			c0.355,0.005,0.708,0.005,1.062,0.005C42.541,30.565,42.651,30.213,42.758,29.855L42.758,29.855z M49.66,29.855l0.327,1.068h1.059
			l-0.859,0.655l0.33,1.069l-0.856-0.66l-0.854,0.66l0.327-1.069l-0.857-0.655h1.059L49.66,29.855L49.66,29.855z M18.562,27.089
			l0.325,1.068l1.062-0.005l-0.859,0.659l0.327,1.069l-0.854-0.664l-0.857,0.664l0.33-1.069l-0.859-0.659l1.059,0.005L18.562,27.089
			L18.562,27.089z M25.555,27.089c0.11,0.353,0.218,0.71,0.328,1.068c0.353-0.005,0.706-0.005,1.059-0.005
			c-0.286,0.22-0.573,0.439-0.859,0.659c0.11,0.354,0.22,0.711,0.33,1.069c-0.286-0.22-0.57-0.445-0.857-0.664
			c-0.286,0.219-0.571,0.444-0.856,0.664c0.109-0.358,0.22-0.716,0.33-1.069c-0.287-0.22-0.573-0.439-0.859-0.659
			c0.354,0,0.708,0,1.062,0.005C25.338,27.799,25.447,27.441,25.555,27.089L25.555,27.089z M32.547,27.089
			c0.11,0.353,0.218,0.71,0.328,1.068c0.353-0.005,0.707-0.005,1.06-0.005c-0.287,0.22-0.574,0.439-0.86,0.659
			c0.113,0.354,0.22,0.711,0.33,1.069c-0.284-0.22-0.57-0.445-0.857-0.664c-0.284,0.219-0.57,0.444-0.854,0.664
			c0.108-0.358,0.22-0.716,0.328-1.069c-0.287-0.22-0.571-0.439-0.856-0.659c0.353,0,0.706,0,1.058,0.005
			C32.333,27.799,32.441,27.441,32.547,27.089L32.547,27.089z M39.543,27.089c0.107,0.353,0.217,0.71,0.325,1.068
			c0.353-0.005,0.706-0.005,1.059-0.005c-0.287,0.22-0.573,0.439-0.857,0.659c0.11,0.354,0.22,0.711,0.33,1.069
			c-0.287-0.22-0.573-0.445-0.857-0.664c-0.287,0.219-0.57,0.444-0.857,0.664c0.11-0.358,0.22-0.716,0.33-1.069
			c-0.286-0.22-0.573-0.439-0.859-0.659c0.353,0,0.706,0,1.061,0.005C39.326,27.799,39.433,27.441,39.543,27.089z"/>
		<rect x="12.899" y="53.167" fill-rule="evenodd" clip-rule="evenodd" fill="#EC1C24" width="98.014" height="3.934"/>
		<path fill-rule="evenodd" clip-rule="evenodd" fill="#C3161C" d="M20.818,37.437h16.764l1.138,0.098l-7.607,0.66l7.607,0.654
			l-7.607,0.66l7.607,0.659l-7.607,0.655l6.297,0.547H20.989l6.3-0.547l-7.607-0.655l7.607-0.659l-7.607-0.66l7.607-0.654
			l-7.607-0.66L20.818,37.437L20.818,37.437z M20.931,45.304h16.538l1.251,0.108l-0.107,0.01l0.107,0.01l-6.908,0.695l6.908,0.599
			l-7.607,0.66l7.607,0.655l-7.607,0.66l6.195,0.537H21.092l6.197-0.537l-7.61-0.66l7.61-0.655l-7.607-0.66l6.906-0.599
			l-6.906-0.695l0.105-0.01l-0.105-0.01L20.931,45.304L20.931,45.304z M21.409,57.101h15.582l-5.878-0.507l7.607-0.653l-7.607-0.66
			l7.607-0.66l-7.607-0.655l7.607-0.66l-1.579-0.138H21.258l-1.576,0.138l7.607,0.66l-7.607,0.655l7.607,0.66l-7.607,0.66
			l7.607,0.653L21.409,57.101z"/>
		<path fill-rule="evenodd" clip-rule="evenodd" fill="#D8E1E7" d="M21.258,53.167h15.883l-6.028-0.518l7.607-0.659l-7.607-0.66
			l7.607-0.654l-7.607-0.66l7.607-0.659l-1.412-0.118H21.092l-1.41,0.118l7.607,0.659l-7.607,0.66l7.607,0.654l-7.607,0.66
			l7.607,0.659L21.258,53.167L21.258,53.167z M20.818,37.437h16.764l-6.469-0.558l7.607-0.659l-7.607-0.655l7.607-0.66l-7.607-0.66
			l7.607-0.654l-0.979-0.088H20.659l-0.977,0.088l7.607,0.654l-7.607,0.66l7.607,0.66l-7.607,0.655l7.607,0.659L20.818,37.437
			L20.818,37.437z M20.931,45.304h16.538l-6.248-0.542l7.499-0.65l-0.107-0.004l0.107-0.01l-6.911-0.701l6.911-0.599l-7.607-0.655
			l7.607-0.659l-1.31-0.113H20.989l-1.31,0.113l7.61,0.659l-7.607,0.655l6.909,0.599l-6.909,0.701l0.105,0.01l-0.105,0.004
			l7.499,0.65L20.931,45.304z"/>
		<path fill-rule="evenodd" clip-rule="evenodd" fill="#D8E1E7" d="M53.966,53.167h15.878l-6.025-0.518l7.607-0.659l-7.607-0.66
			l7.607-0.654l-7.607-0.66l7.607-0.659l-1.412-0.118H53.798l-1.412,0.118l7.606,0.659l-7.606,0.66l7.606,0.654l-7.606,0.66
			l7.606,0.659L53.966,53.167L53.966,53.167z M53.637,45.304h16.538l-6.248-0.542l7.5-0.65l-0.107-0.004l0.107-0.01l-6.912-0.701
			l6.912-0.599l-7.607-0.655l7.607-0.659l-1.311-0.113h-16.42l-1.31,0.113l7.606,0.659l-7.606,0.655l6.911,0.599l-6.911,0.701
			l0.107,0.01l-0.107,0.004l7.499,0.65L53.637,45.304L53.637,45.304z M53.524,37.437h16.764l-6.469-0.558l7.607-0.659l-7.607-0.655
			l7.607-0.66l-7.607-0.66l7.607-0.654l-0.98-0.088H53.369l-0.982,0.088l7.606,0.654l-7.606,0.66l7.606,0.66l-7.606,0.655
			l7.606,0.659L53.524,37.437L53.524,37.437z M53.209,29.568h17.393l-6.783-0.582l7.607-0.66l-7.607-0.655l7.607-0.66l-7.607-0.66
			l7.607-0.654l-0.643-0.057H53.028l-0.642,0.057l7.606,0.654l-7.606,0.66l7.606,0.66l-7.606,0.655l7.606,0.66L53.209,29.568
			L53.209,29.568z M52.88,21.706h18.05l-7.11-0.614l7.607-0.66l-7.607-0.66l7.607-0.654l-7.607-0.664l7.607-0.654l-0.328-0.026
			H52.713l-0.327,0.026l7.606,0.659l-7.606,0.659l7.606,0.654l-7.606,0.66l7.606,0.66L52.88,21.706L52.88,21.706z M52.535,13.838
			h18.744l-7.459-0.644l7.607-0.655l-7.607-0.659l7.607-0.655l-7.607-0.66l7.607-0.66H52.386l7.606,0.66l-7.606,0.66l7.606,0.655
			l-7.606,0.659l7.606,0.655L52.535,13.838z"/>
		<path fill-rule="evenodd" clip-rule="evenodd" fill="#C3161C" d="M54.115,57.101h15.583l-5.878-0.507l7.607-0.653l-7.607-0.66
			l7.607-0.66l-7.607-0.655l7.607-0.66l-1.582-0.138H53.966l-1.58,0.138l7.606,0.66l-7.606,0.655l7.606,0.66l-7.606,0.66
			l7.606,0.653L54.115,57.101L54.115,57.101z M53.637,45.304h16.538l1.252,0.108l-0.107,0.01l0.107,0.01l-6.909,0.695l6.909,0.599
			l-7.607,0.66l7.607,0.655l-7.607,0.66l6.195,0.537H53.798l6.195-0.537l-7.606-0.66l7.606-0.655l-7.606-0.66l6.908-0.599
			l-6.908-0.695l0.107-0.01l-0.107-0.01L53.637,45.304L53.637,45.304z M53.524,37.437h16.764l1.139,0.098l-7.607,0.66l7.607,0.654
			l-7.607,0.66l7.607,0.659l-7.607,0.655l6.297,0.547h-16.42l6.297-0.547l-7.606-0.655l7.606-0.659l-7.606-0.66l7.606-0.654
			l-7.606-0.66L53.524,37.437L53.524,37.437z M53.209,29.568h17.393l0.824,0.072L63.819,30.3l7.607,0.655l-7.607,0.66l7.607,0.66
			l-7.607,0.655l6.627,0.571H53.369l6.624-0.571l-7.606-0.655l7.609-0.66l-7.609-0.66l7.606-0.655l-7.606-0.659L53.209,29.568
			L53.209,29.568z M52.88,21.706h18.05l0.497,0.041l-7.607,0.655l7.607,0.659l-7.607,0.66l7.607,0.654l-7.607,0.66l6.965,0.604
			H53.028l6.964-0.604l-7.606-0.66l7.606-0.654l-7.606-0.66l7.606-0.659l-7.606-0.655L52.88,21.706L52.88,21.706z M52.535,13.838
			h18.744l0.148,0.017l-7.607,0.654l7.607,0.66l-7.607,0.659l7.607,0.655l-7.607,0.66l7.279,0.629H52.713l7.279-0.629l-7.606-0.66
			l7.606-0.655l-7.606-0.659l7.606-0.66l-7.606-0.654L52.535,13.838L52.535,13.838z M52.56,5.971h18.693l-7.434,0.645l7.607,0.66
			l-7.607,0.66l7.607,0.654l-7.607,0.66l7.607,0.654H52.386l7.606-0.654l-7.606-0.66l7.606-0.654l-7.606-0.66l7.606-0.66
			L52.56,5.971z"/>
		<path fill-rule="evenodd" clip-rule="evenodd" fill="#D8E1E7" d="M86.671,53.167h15.883l-6.031-0.518l7.61-0.659l-7.61-0.66
			l7.61-0.654l-7.61-0.66l7.607-0.659l-1.409-0.118H86.505l-1.412,0.118l7.606,0.659l-7.606,0.66l7.606,0.654l-7.606,0.66
			l7.606,0.659L86.671,53.167L86.671,53.167z M86.343,45.304h16.539l-6.251-0.542l7.499-0.65l-0.107-0.004l0.107-0.01l-6.908-0.701
			l6.908-0.599l-7.607-0.655l7.61-0.659l-1.31-0.113H86.402l-1.312,0.113l7.609,0.659l-7.606,0.655l6.908,0.599l-6.908,0.701
			l0.107,0.01l-0.107,0.004l7.502,0.65L86.343,45.304L86.343,45.304z M86.23,37.437h16.764l-6.472-0.558l7.607-0.659l-7.607-0.655
			l7.607-0.66l-7.607-0.66l7.61-0.654l-0.979-0.088H86.072l-0.979,0.088l7.606,0.654l-7.606,0.66l7.606,0.66l-7.606,0.655
			l7.606,0.659L86.23,37.437L86.23,37.437z M85.916,29.568h17.394l-6.787-0.582l7.607-0.66l-7.607-0.655l7.61-0.66l-7.61-0.66
			l7.607-0.654l-0.639-0.057H85.734l-0.642,0.057l7.606,0.654l-7.606,0.66l7.606,0.66l-7.606,0.655l7.606,0.66L85.916,29.568
			L85.916,29.568z M85.587,21.706h18.053l-7.117-0.614l7.607-0.66l-7.607-0.66l7.607-0.654l-7.607-0.664l7.607-0.654l-0.322-0.026
			H85.417l-0.324,0.026l7.606,0.659l-7.606,0.659l7.606,0.654l-7.606,0.66l7.606,0.66L85.587,21.706L85.587,21.706z M85.241,13.838
			h18.742l-7.461-0.644l7.61-0.655l-7.61-0.659l7.607-0.655l-7.607-0.66l7.607-0.66H85.093l7.606,0.66l-7.606,0.66l7.606,0.655
			l-7.606,0.659l7.606,0.655L85.241,13.838z"/>
		<path fill-rule="evenodd" clip-rule="evenodd" fill="#C3161C" d="M86.821,57.101h15.582l-5.881-0.507l7.61-0.653l-7.61-0.66
			l7.607-0.66l-7.607-0.655l7.607-0.66l-1.576-0.138H86.671l-1.578,0.138l7.606,0.66l-7.606,0.655l7.606,0.66l-7.606,0.66
			l7.606,0.653L86.821,57.101L86.821,57.101z M86.343,45.304h16.539l1.248,0.108l-0.105,0.01l0.105,0.01l-6.906,0.695l6.909,0.599
			l-7.61,0.66l7.61,0.655l-7.61,0.66l6.198,0.537H86.505l6.194-0.537l-7.609-0.66l7.609-0.655l-7.606-0.66l6.908-0.599l-6.908-0.695
			l0.107-0.01l-0.107-0.01L86.343,45.304L86.343,45.304z M86.23,37.437h16.764l1.139,0.098l-7.61,0.66l7.61,0.654l-7.61,0.66
			l7.607,0.659l-7.607,0.655l6.301,0.547H86.402l6.297-0.547l-7.606-0.655l7.606-0.659l-7.606-0.66l7.606-0.654l-7.606-0.66
			L86.23,37.437L86.23,37.437z M85.916,29.568h17.394l0.823,0.072l-7.61,0.659l7.607,0.655l-7.607,0.66l7.607,0.66l-7.607,0.655
			l6.631,0.571H86.072l6.627-0.571l-7.606-0.655l7.609-0.66l-7.609-0.66l7.606-0.655l-7.606-0.659L85.916,29.568L85.916,29.568z
			 M85.264,5.971h18.694l-7.436,0.645l7.607,0.66l-7.607,0.66l7.607,0.654l-7.607,0.66l7.607,0.654H85.093l7.606-0.654l-7.606-0.66
			l7.606-0.654l-7.606-0.66l7.606-0.66L85.264,5.971L85.264,5.971z M85.241,13.838h18.742l0.146,0.017l-7.607,0.654l7.607,0.66
			l-7.607,0.659l7.61,0.655l-7.61,0.66l7.285,0.629H85.417l7.282-0.629l-7.606-0.66l7.606-0.655l-7.606-0.659l7.606-0.66
			l-7.606-0.654L85.241,13.838L85.241,13.838z M85.587,21.706h18.053l0.49,0.041l-7.607,0.655l7.607,0.659l-7.607,0.66l7.607,0.654
			l-7.607,0.66l6.969,0.604H85.734l6.965-0.604l-7.606-0.66l7.606-0.654l-7.606-0.66l7.606-0.659l-7.606-0.655L85.587,21.706z"/>
	</g>
</g>
</svg>
